G04 #@! TF.GenerationSoftware,KiCad,Pcbnew,(6.0.0)*
G04 #@! TF.CreationDate,2023-01-29T20:42:11-05:00*
G04 #@! TF.ProjectId,tms7000 qfp 60 adapter,746d7337-3030-4302-9071-667020363020,rev?*
G04 #@! TF.SameCoordinates,Original*
G04 #@! TF.FileFunction,Copper,L1,Top*
G04 #@! TF.FilePolarity,Positive*
%FSLAX46Y46*%
G04 Gerber Fmt 4.6, Leading zero omitted, Abs format (unit mm)*
G04 Created by KiCad (PCBNEW (6.0.0)) date 2023-01-29 20:42:11*
%MOMM*%
%LPD*%
G01*
G04 APERTURE LIST*
G04 Aperture macros list*
%AMRoundRect*
0 Rectangle with rounded corners*
0 $1 Rounding radius*
0 $2 $3 $4 $5 $6 $7 $8 $9 X,Y pos of 4 corners*
0 Add a 4 corners polygon primitive as box body*
4,1,4,$2,$3,$4,$5,$6,$7,$8,$9,$2,$3,0*
0 Add four circle primitives for the rounded corners*
1,1,$1+$1,$2,$3*
1,1,$1+$1,$4,$5*
1,1,$1+$1,$6,$7*
1,1,$1+$1,$8,$9*
0 Add four rect primitives between the rounded corners*
20,1,$1+$1,$2,$3,$4,$5,0*
20,1,$1+$1,$4,$5,$6,$7,0*
20,1,$1+$1,$6,$7,$8,$9,0*
20,1,$1+$1,$8,$9,$2,$3,0*%
G04 Aperture macros list end*
G04 #@! TA.AperFunction,ComponentPad*
%ADD10R,1.700000X1.700000*%
G04 #@! TD*
G04 #@! TA.AperFunction,ComponentPad*
%ADD11R,1.600000X1.600000*%
G04 #@! TD*
G04 #@! TA.AperFunction,ComponentPad*
%ADD12O,1.600000X1.600000*%
G04 #@! TD*
G04 #@! TA.AperFunction,ComponentPad*
%ADD13C,1.600000*%
G04 #@! TD*
G04 #@! TA.AperFunction,ComponentPad*
%ADD14O,1.400000X1.400000*%
G04 #@! TD*
G04 #@! TA.AperFunction,SMDPad,CuDef*
%ADD15RoundRect,0.137500X-0.800000X-0.137500X0.800000X-0.137500X0.800000X0.137500X-0.800000X0.137500X0*%
G04 #@! TD*
G04 #@! TA.AperFunction,SMDPad,CuDef*
%ADD16RoundRect,0.137500X-0.137500X-0.800000X0.137500X-0.800000X0.137500X0.800000X-0.137500X0.800000X0*%
G04 #@! TD*
G04 #@! TA.AperFunction,ViaPad*
%ADD17C,0.800000*%
G04 #@! TD*
G04 #@! TA.AperFunction,Conductor*
%ADD18C,0.250000*%
G04 #@! TD*
G04 APERTURE END LIST*
D10*
X200152000Y-54356000D03*
X179832000Y-50292000D03*
X175768000Y-46228000D03*
X187960000Y-90932000D03*
X183896000Y-86868000D03*
X204216000Y-74676000D03*
D11*
X151384000Y-86360000D03*
D12*
X148844000Y-86360000D03*
D10*
X159258000Y-78740000D03*
X196088000Y-50292000D03*
D13*
X131064000Y-51845000D03*
D12*
X131064000Y-49305000D03*
D10*
X163322000Y-74676000D03*
X187960000Y-50292000D03*
X200152000Y-82804000D03*
X200152000Y-70612000D03*
X204216000Y-58420000D03*
X196088000Y-46228000D03*
X163322000Y-66548000D03*
X163322000Y-78740000D03*
X171704000Y-50292000D03*
X183896000Y-46228000D03*
X179832000Y-90932000D03*
X175768000Y-86868000D03*
X192024000Y-86868000D03*
X183896000Y-50292000D03*
X179832000Y-46228000D03*
X163322000Y-62484000D03*
X171450000Y-90932000D03*
X179832000Y-86868000D03*
D11*
X141102000Y-56134000D03*
D12*
X141102000Y-58674000D03*
X141102000Y-61214000D03*
X141102000Y-63754000D03*
X141102000Y-66294000D03*
X141102000Y-68834000D03*
X141102000Y-71374000D03*
X141102000Y-73914000D03*
X141102000Y-76454000D03*
X141102000Y-78994000D03*
X148722000Y-78994000D03*
X148722000Y-76454000D03*
X148722000Y-73914000D03*
X148722000Y-71374000D03*
X148722000Y-68834000D03*
X148722000Y-66294000D03*
X148722000Y-63754000D03*
X148722000Y-61214000D03*
X148722000Y-58674000D03*
X148722000Y-56134000D03*
D10*
X192024000Y-90932000D03*
X159258000Y-62484000D03*
D11*
X142325810Y-50800000D03*
D12*
X139785810Y-50800000D03*
D10*
X196088000Y-86868000D03*
X175768000Y-90932000D03*
X200152000Y-62484000D03*
X183896000Y-90932000D03*
X200152000Y-46228000D03*
D11*
X120116000Y-48531500D03*
D12*
X120116000Y-51071500D03*
X120116000Y-53611500D03*
X120116000Y-56151500D03*
X120116000Y-58691500D03*
X120116000Y-61231500D03*
X120116000Y-63771500D03*
X120116000Y-66311500D03*
X120116000Y-68851500D03*
X120116000Y-71391500D03*
X120116000Y-73931500D03*
X120116000Y-76471500D03*
X120116000Y-79011500D03*
X120116000Y-81551500D03*
X120116000Y-84091500D03*
X120116000Y-86631500D03*
X120116000Y-89171500D03*
X120116000Y-91711500D03*
X120116000Y-94251500D03*
X120116000Y-96791500D03*
X135356000Y-96791500D03*
X135356000Y-94251500D03*
X135356000Y-91711500D03*
X135356000Y-89171500D03*
D14*
X135356000Y-86631500D03*
X135356000Y-84091500D03*
X135356000Y-81551500D03*
D12*
X135356000Y-79011500D03*
X135356000Y-76471500D03*
X135356000Y-73931500D03*
X135356000Y-71391500D03*
X135356000Y-68851500D03*
X135356000Y-66311500D03*
D14*
X135356000Y-63771500D03*
X135356000Y-61231500D03*
X135356000Y-58691500D03*
D12*
X135356000Y-56151500D03*
X135356000Y-53611500D03*
X135356000Y-51071500D03*
X135356000Y-48531500D03*
D10*
X204216000Y-70612000D03*
D13*
X127254000Y-52607000D03*
D12*
X127254000Y-50067000D03*
D11*
X142325810Y-53340000D03*
D12*
X139785810Y-53340000D03*
D10*
X187960000Y-46228000D03*
X163322000Y-54356000D03*
X159258000Y-70612000D03*
X200152000Y-66548000D03*
X204216000Y-62484000D03*
X200152000Y-50292000D03*
X200152000Y-74676000D03*
X159258000Y-74676000D03*
X171704000Y-46228000D03*
X163322000Y-58420000D03*
X204216000Y-78740000D03*
X187960000Y-86868000D03*
X196088000Y-90932000D03*
X192024000Y-50292000D03*
X204216000Y-54356000D03*
X200152000Y-90932000D03*
X159258000Y-66548000D03*
X200152000Y-78740000D03*
D11*
X142325810Y-48260000D03*
D12*
X139785810Y-48260000D03*
D10*
X167640000Y-50292000D03*
X200152000Y-86868000D03*
D15*
X172760500Y-63996000D03*
X172760500Y-64796000D03*
X172760500Y-65596000D03*
X172760500Y-66396000D03*
X172760500Y-67196000D03*
X172760500Y-67996000D03*
X172760500Y-68796000D03*
X172760500Y-69596000D03*
X172760500Y-70396000D03*
X172760500Y-71196000D03*
X172760500Y-71996000D03*
X172760500Y-72796000D03*
X172760500Y-73596000D03*
X172760500Y-74396000D03*
X172760500Y-75196000D03*
D16*
X175248000Y-77683500D03*
X176048000Y-77683500D03*
X176848000Y-77683500D03*
X177648000Y-77683500D03*
X178448000Y-77683500D03*
X179248000Y-77683500D03*
X180048000Y-77683500D03*
X180848000Y-77683500D03*
X181648000Y-77683500D03*
X182448000Y-77683500D03*
X183248000Y-77683500D03*
X184048000Y-77683500D03*
X184848000Y-77683500D03*
X185648000Y-77683500D03*
X186448000Y-77683500D03*
D15*
X188935500Y-75196000D03*
X188935500Y-74396000D03*
X188935500Y-73596000D03*
X188935500Y-72796000D03*
X188935500Y-71996000D03*
X188935500Y-71196000D03*
X188935500Y-70396000D03*
X188935500Y-69596000D03*
X188935500Y-68796000D03*
X188935500Y-67996000D03*
X188935500Y-67196000D03*
X188935500Y-66396000D03*
X188935500Y-65596000D03*
X188935500Y-64796000D03*
X188935500Y-63996000D03*
D16*
X186448000Y-61508500D03*
X185648000Y-61508500D03*
X184848000Y-61508500D03*
X184048000Y-61508500D03*
X183248000Y-61508500D03*
X182448000Y-61508500D03*
X181648000Y-61508500D03*
X180848000Y-61508500D03*
X180048000Y-61508500D03*
X179248000Y-61508500D03*
X178448000Y-61508500D03*
X177648000Y-61508500D03*
X176848000Y-61508500D03*
X176048000Y-61508500D03*
X175248000Y-61508500D03*
D10*
X175768000Y-50292000D03*
X200152000Y-58420000D03*
X163322000Y-70612000D03*
X204216000Y-66548000D03*
X159258000Y-58420000D03*
X192024000Y-46228000D03*
D17*
X161036000Y-47752000D03*
X159004000Y-50546000D03*
X137858859Y-80835141D03*
X125730000Y-57658000D03*
X128778000Y-57658000D03*
X151130000Y-55880000D03*
X118491989Y-72516011D03*
X152146000Y-77978000D03*
X144780000Y-86360000D03*
X143510000Y-86360000D03*
X156210000Y-78994000D03*
X142494000Y-87122000D03*
X139192000Y-84582000D03*
X152654000Y-65024000D03*
X178308000Y-63754000D03*
X177546000Y-75692000D03*
X177038000Y-73152000D03*
X177038000Y-63754000D03*
X179324000Y-73660000D03*
X179578000Y-63754000D03*
X175006000Y-74168000D03*
X175768000Y-63754000D03*
X157480000Y-64770000D03*
D18*
X179248000Y-60717606D02*
X179248000Y-61508500D01*
X181864000Y-48260000D02*
X181864000Y-58101606D01*
X183896000Y-46228000D02*
X181864000Y-48260000D01*
X181864000Y-58101606D02*
X179248000Y-60717606D01*
X161036000Y-47752000D02*
X159004000Y-49784000D01*
X177648000Y-60717606D02*
X177800000Y-60565606D01*
X177648000Y-61508500D02*
X177648000Y-60717606D01*
X159004000Y-49784000D02*
X159004000Y-50546000D01*
X177800000Y-48260000D02*
X179832000Y-46228000D01*
X177800000Y-60565606D02*
X177800000Y-48260000D01*
X139836875Y-57258511D02*
X155593489Y-57258511D01*
X120116000Y-58691500D02*
X121140511Y-59716011D01*
X174244000Y-52070000D02*
X174244000Y-47752000D01*
X176048000Y-53874000D02*
X174244000Y-52070000D01*
X173482000Y-43942000D02*
X175768000Y-46228000D01*
X174244000Y-47752000D02*
X175768000Y-46228000D01*
X155593489Y-57258511D02*
X168910000Y-43942000D01*
X121140511Y-59716011D02*
X137379375Y-59716011D01*
X176048000Y-61508500D02*
X176048000Y-53874000D01*
X137379375Y-59716011D02*
X139836875Y-57258511D01*
X168910000Y-43942000D02*
X173482000Y-43942000D01*
X147632480Y-85148480D02*
X141664198Y-85148480D01*
X139785810Y-50800000D02*
X135627500Y-50800000D01*
X134714011Y-50429511D02*
X135356000Y-51071500D01*
X125730000Y-57658000D02*
X128778000Y-57658000D01*
X127616511Y-50429511D02*
X134714011Y-50429511D01*
X139785810Y-48260000D02*
X139785810Y-53340000D01*
X137858859Y-81343141D02*
X137858859Y-80835141D01*
X135627500Y-50800000D02*
X135356000Y-51071500D01*
X127254000Y-50067000D02*
X127616511Y-50429511D01*
X148844000Y-86360000D02*
X147632480Y-85148480D01*
X141664198Y-85148480D02*
X137858859Y-81343141D01*
X179832000Y-59333606D02*
X179832000Y-50292000D01*
X178448000Y-61508500D02*
X178448000Y-60717606D01*
X178448000Y-60717606D02*
X179832000Y-59333606D01*
X150259489Y-55009489D02*
X131246789Y-55009489D01*
X176848000Y-51372000D02*
X175768000Y-50292000D01*
X176848000Y-61508500D02*
X176848000Y-51372000D01*
X131246789Y-55009489D02*
X127719789Y-51482489D01*
X127719789Y-51482489D02*
X124785011Y-51482489D01*
X151130000Y-55880000D02*
X150259489Y-55009489D01*
X124785011Y-51482489D02*
X120116000Y-56151500D01*
X180048000Y-77683500D02*
X180048000Y-79972000D01*
X120290811Y-72516011D02*
X118491989Y-72516011D01*
X180048000Y-79972000D02*
X183896000Y-83820000D01*
X163322000Y-78740000D02*
X169216500Y-78740000D01*
X169216500Y-78740000D02*
X172760500Y-75196000D01*
X152146000Y-77978000D02*
X152037489Y-77869489D01*
X185928000Y-84074000D02*
X185928000Y-88900000D01*
X134582500Y-49305000D02*
X135356000Y-48531500D01*
X180848000Y-78994000D02*
X185928000Y-84074000D01*
X131064000Y-49305000D02*
X134582500Y-49305000D01*
X125644289Y-77869489D02*
X120290811Y-72516011D01*
X180848000Y-77683500D02*
X180848000Y-78994000D01*
X185928000Y-88900000D02*
X187960000Y-90932000D01*
X183896000Y-83820000D02*
X183896000Y-86868000D01*
X152037489Y-77869489D02*
X125644289Y-77869489D01*
X133589500Y-51845000D02*
X135356000Y-53611500D01*
X131064000Y-51845000D02*
X133589500Y-51845000D01*
X164147022Y-69088000D02*
X161036000Y-69088000D01*
X161036000Y-69088000D02*
X159258000Y-67310000D01*
X123780511Y-67436011D02*
X120116000Y-63771500D01*
X159258000Y-67310000D02*
X159258000Y-66548000D01*
X158369989Y-67436011D02*
X123780511Y-67436011D01*
X159258000Y-66548000D02*
X158369989Y-67436011D01*
X165455022Y-70396000D02*
X164147022Y-69088000D01*
X172760500Y-70396000D02*
X165455022Y-70396000D01*
X123780511Y-72516011D02*
X120116000Y-68851500D01*
X160642000Y-71996000D02*
X159258000Y-70612000D01*
X172760500Y-71996000D02*
X160642000Y-71996000D01*
X157353989Y-72516011D02*
X123780511Y-72516011D01*
X159258000Y-70612000D02*
X157353989Y-72516011D01*
X144018000Y-85598000D02*
X141478000Y-85598000D01*
X126448500Y-80264000D02*
X120116000Y-73931500D01*
X144780000Y-86360000D02*
X144018000Y-85598000D01*
X175248000Y-85102000D02*
X171450000Y-88900000D01*
X175248000Y-77683500D02*
X175248000Y-85102000D01*
X141478000Y-85598000D02*
X136144000Y-80264000D01*
X136144000Y-80264000D02*
X126448500Y-80264000D01*
X171450000Y-88900000D02*
X171450000Y-90932000D01*
X176848000Y-77683500D02*
X176848000Y-78643520D01*
X177198480Y-89501520D02*
X175768000Y-90932000D01*
X123680511Y-82576011D02*
X135609989Y-82576011D01*
X176848000Y-78643520D02*
X177198480Y-78994000D01*
X177198480Y-78994000D02*
X177198480Y-89501520D01*
X143510000Y-86360000D02*
X139393978Y-86360000D01*
X120116000Y-79011500D02*
X123680511Y-82576011D01*
X139393978Y-86360000D02*
X135609989Y-82576011D01*
X169403606Y-76962000D02*
X161036000Y-76962000D01*
X124071489Y-88046989D02*
X153761011Y-88046989D01*
X156210000Y-85598000D02*
X156210000Y-78994000D01*
X172760500Y-74396000D02*
X171969606Y-74396000D01*
X171969606Y-74396000D02*
X169403606Y-76962000D01*
X120116000Y-84091500D02*
X124071489Y-88046989D01*
X153761011Y-88046989D02*
X156210000Y-85598000D01*
X161036000Y-76962000D02*
X159258000Y-78740000D01*
X152662614Y-62484000D02*
X121368500Y-62484000D01*
X153837125Y-63658511D02*
X152662614Y-62484000D01*
X158908511Y-63658511D02*
X153837125Y-63658511D01*
X121368500Y-62484000D02*
X120116000Y-61231500D01*
X166370000Y-69596000D02*
X163322000Y-66548000D01*
X163322000Y-66548000D02*
X161798000Y-66548000D01*
X172760500Y-69596000D02*
X166370000Y-69596000D01*
X161798000Y-66548000D02*
X158908511Y-63658511D01*
X149733989Y-69976011D02*
X123780511Y-69976011D01*
X123780511Y-69976011D02*
X120116000Y-66311500D01*
X172760500Y-71196000D02*
X163906000Y-71196000D01*
X163322000Y-70612000D02*
X161607022Y-70612000D01*
X150272511Y-69437489D02*
X149733989Y-69976011D01*
X163906000Y-71196000D02*
X163322000Y-70612000D01*
X161607022Y-70612000D02*
X160432511Y-69437489D01*
X160432511Y-69437489D02*
X150272511Y-69437489D01*
X123780511Y-75056011D02*
X120116000Y-71391500D01*
X159258000Y-74676000D02*
X158877989Y-75056011D01*
X161138000Y-72796000D02*
X159258000Y-74676000D01*
X172760500Y-72796000D02*
X161138000Y-72796000D01*
X158877989Y-75056011D02*
X123780511Y-75056011D01*
X177648000Y-84430000D02*
X178308000Y-85090000D01*
X142494000Y-87122000D02*
X138377978Y-87122000D01*
X178308000Y-85090000D02*
X178308000Y-89408000D01*
X177648000Y-77683500D02*
X177648000Y-84430000D01*
X138377978Y-87122000D02*
X136371989Y-85116011D01*
X178308000Y-89408000D02*
X179832000Y-90932000D01*
X120116000Y-81551500D02*
X123680511Y-85116011D01*
X123680511Y-85116011D02*
X136371989Y-85116011D01*
X120116000Y-89171500D02*
X123908500Y-92964000D01*
X180149022Y-92964000D02*
X181102000Y-92011022D01*
X123908500Y-92964000D02*
X180149022Y-92964000D01*
X181102000Y-92011022D02*
X181102000Y-88138000D01*
X181102000Y-88138000D02*
X179832000Y-86868000D01*
X179832000Y-82804000D02*
X179832000Y-86868000D01*
X178448000Y-77683500D02*
X178448000Y-81420000D01*
X178448000Y-81420000D02*
X179832000Y-82804000D01*
X189992000Y-92710000D02*
X189992000Y-89662000D01*
X184658000Y-98044000D02*
X189992000Y-92710000D01*
X187960000Y-87630000D02*
X187960000Y-86868000D01*
X181648000Y-78474394D02*
X187960000Y-84786394D01*
X181648000Y-77683500D02*
X181648000Y-78474394D01*
X189992000Y-89662000D02*
X187960000Y-87630000D01*
X187960000Y-84786394D02*
X187960000Y-86868000D01*
X123908500Y-98044000D02*
X184658000Y-98044000D01*
X120116000Y-94251500D02*
X123908500Y-98044000D01*
X190307586Y-80010000D02*
X194056000Y-83758414D01*
X184048000Y-78474394D02*
X185583606Y-80010000D01*
X184048000Y-77683500D02*
X184048000Y-78474394D01*
X194056000Y-83758414D02*
X194056000Y-88900000D01*
X185583606Y-80010000D02*
X190307586Y-80010000D01*
X194056000Y-88900000D02*
X196088000Y-90932000D01*
X198977489Y-89757489D02*
X200152000Y-90932000D01*
X186119126Y-78945520D02*
X190514542Y-78945520D01*
X185648000Y-77683500D02*
X185648000Y-78474394D01*
X190514542Y-78945520D02*
X198977489Y-87408467D01*
X198977489Y-87408467D02*
X198977489Y-89757489D01*
X185648000Y-78474394D02*
X186119126Y-78945520D01*
X190967500Y-77683500D02*
X200152000Y-86868000D01*
X186448000Y-77683500D02*
X190967500Y-77683500D01*
X157480000Y-78168978D02*
X159798467Y-75850511D01*
X162147489Y-75850511D02*
X163322000Y-74676000D01*
X163322000Y-74676000D02*
X170889606Y-74676000D01*
X123908500Y-90424000D02*
X153416000Y-90424000D01*
X157480000Y-86360000D02*
X157480000Y-78168978D01*
X120116000Y-86631500D02*
X123908500Y-90424000D01*
X153416000Y-90424000D02*
X157480000Y-86360000D01*
X159798467Y-75850511D02*
X162147489Y-75850511D01*
X170889606Y-74676000D02*
X171969606Y-73596000D01*
X171969606Y-73596000D02*
X172760500Y-73596000D01*
X179161011Y-95666989D02*
X183896000Y-90932000D01*
X181864000Y-82804000D02*
X181864000Y-88900000D01*
X179248000Y-80188000D02*
X181864000Y-82804000D01*
X179248000Y-77683500D02*
X179248000Y-80188000D01*
X120116000Y-91711500D02*
X124071489Y-95666989D01*
X181864000Y-88900000D02*
X183896000Y-90932000D01*
X124071489Y-95666989D02*
X179161011Y-95666989D01*
X182448000Y-77683500D02*
X182448000Y-78474394D01*
X182448000Y-78474394D02*
X185253606Y-81280000D01*
X185253606Y-81280000D02*
X188468000Y-81280000D01*
X188468000Y-81280000D02*
X189992000Y-82804000D01*
X189992000Y-82804000D02*
X189992000Y-88900000D01*
X189992000Y-88900000D02*
X192024000Y-90932000D01*
X183248000Y-77683500D02*
X183248000Y-78474394D01*
X183248000Y-78474394D02*
X185545606Y-80772000D01*
X192024000Y-83566000D02*
X192024000Y-86868000D01*
X189230000Y-80772000D02*
X192024000Y-83566000D01*
X185545606Y-80772000D02*
X189230000Y-80772000D01*
X185875606Y-79502000D02*
X190435304Y-79502000D01*
X184848000Y-77683500D02*
X184848000Y-78474394D01*
X190435304Y-79502000D02*
X196088000Y-85154696D01*
X184848000Y-78474394D02*
X185875606Y-79502000D01*
X196088000Y-85154696D02*
X196088000Y-86868000D01*
X188935500Y-74396000D02*
X195808000Y-74396000D01*
X195808000Y-74396000D02*
X200152000Y-78740000D01*
X200152000Y-82296000D02*
X200152000Y-82804000D01*
X136161500Y-81551500D02*
X135356000Y-81551500D01*
X139192000Y-84582000D02*
X136161500Y-81551500D01*
X188935500Y-75196000D02*
X193052000Y-75196000D01*
X193052000Y-75196000D02*
X200152000Y-82296000D01*
X184048000Y-61508500D02*
X184048000Y-60717606D01*
X194056000Y-48260000D02*
X196088000Y-46228000D01*
X194056000Y-50709606D02*
X194056000Y-48260000D01*
X184048000Y-60717606D02*
X194056000Y-50709606D01*
X183896000Y-56869606D02*
X183896000Y-50292000D01*
X180048000Y-61508500D02*
X180048000Y-60717606D01*
X180048000Y-60717606D02*
X183896000Y-56869606D01*
X181648000Y-60717606D02*
X187960000Y-54405606D01*
X187960000Y-54405606D02*
X187960000Y-50292000D01*
X181648000Y-61508500D02*
X181648000Y-60717606D01*
X183248000Y-60717606D02*
X192024000Y-51941606D01*
X192024000Y-51941606D02*
X192024000Y-50292000D01*
X183248000Y-61508500D02*
X183248000Y-60717606D01*
X176048000Y-86588000D02*
X175768000Y-86868000D01*
X176048000Y-77683500D02*
X176048000Y-86588000D01*
X189853436Y-67196000D02*
X194565436Y-62484000D01*
X194565436Y-62484000D02*
X200152000Y-62484000D01*
X188935500Y-67196000D02*
X189853436Y-67196000D01*
X190017718Y-66396000D02*
X195961718Y-60452000D01*
X202184000Y-60452000D02*
X204216000Y-58420000D01*
X195961718Y-60452000D02*
X202184000Y-60452000D01*
X188935500Y-66396000D02*
X190017718Y-66396000D01*
X188935500Y-65596000D02*
X190182000Y-65596000D01*
X200152000Y-58420000D02*
X197358000Y-58420000D01*
X197358000Y-58420000D02*
X190182000Y-65596000D01*
X188935500Y-64796000D02*
X189726394Y-64796000D01*
X198134394Y-56388000D02*
X202184000Y-56388000D01*
X189726394Y-64796000D02*
X198134394Y-56388000D01*
X202184000Y-56388000D02*
X204216000Y-54356000D01*
X198575500Y-54356000D02*
X200152000Y-54356000D01*
X188935500Y-63996000D02*
X198575500Y-54356000D01*
X148401700Y-65024000D02*
X152654000Y-65024000D01*
X141102000Y-63754000D02*
X147131700Y-63754000D01*
X147131700Y-63754000D02*
X148401700Y-65024000D01*
X171704000Y-62939500D02*
X171704000Y-50292000D01*
X172760500Y-63996000D02*
X171704000Y-62939500D01*
X164496511Y-58122905D02*
X164496511Y-55530511D01*
X178308000Y-63754000D02*
X178308000Y-74930000D01*
X178308000Y-74930000D02*
X177546000Y-75692000D01*
X164496511Y-55530511D02*
X163322000Y-54356000D01*
X172760500Y-65596000D02*
X171969606Y-65596000D01*
X171969606Y-65596000D02*
X164496511Y-58122905D01*
X172760500Y-67196000D02*
X170383022Y-67196000D01*
X161798000Y-60960000D02*
X159258000Y-58420000D01*
X177038000Y-63754000D02*
X177038000Y-73152000D01*
X164147022Y-60960000D02*
X161798000Y-60960000D01*
X170383022Y-67196000D02*
X164147022Y-60960000D01*
X161544000Y-64770000D02*
X159258000Y-62484000D01*
X157988000Y-61214000D02*
X159258000Y-62484000D01*
X172760500Y-68796000D02*
X167856000Y-68796000D01*
X167856000Y-68796000D02*
X163830000Y-64770000D01*
X163830000Y-64770000D02*
X161544000Y-64770000D01*
X148722000Y-61214000D02*
X157988000Y-61214000D01*
X192584500Y-55372000D02*
X195072000Y-55372000D01*
X186448000Y-61508500D02*
X192584500Y-55372000D01*
X195072000Y-55372000D02*
X200152000Y-50292000D01*
X191755606Y-54610000D02*
X195198282Y-54610000D01*
X198120000Y-51688282D02*
X198120000Y-48260000D01*
X185648000Y-60717606D02*
X191755606Y-54610000D01*
X198120000Y-48260000D02*
X200152000Y-46228000D01*
X195198282Y-54610000D02*
X198120000Y-51688282D01*
X185648000Y-61508500D02*
X185648000Y-60717606D01*
X196088000Y-51562000D02*
X196088000Y-50292000D01*
X191971606Y-53594000D02*
X194056000Y-53594000D01*
X184848000Y-60717606D02*
X191971606Y-53594000D01*
X194056000Y-53594000D02*
X196088000Y-51562000D01*
X184848000Y-61508500D02*
X184848000Y-60717606D01*
X173482000Y-48006000D02*
X171704000Y-46228000D01*
X147574000Y-59944000D02*
X153924000Y-59944000D01*
X153924000Y-59944000D02*
X167640000Y-46228000D01*
X167640000Y-46228000D02*
X171704000Y-46228000D01*
X146304000Y-61214000D02*
X147574000Y-59944000D01*
X173482000Y-52070000D02*
X173482000Y-48006000D01*
X141102000Y-61214000D02*
X146304000Y-61214000D01*
X175248000Y-61508500D02*
X175248000Y-53836000D01*
X175248000Y-53836000D02*
X173482000Y-52070000D01*
X171969606Y-64796000D02*
X167640000Y-60466394D01*
X167640000Y-60466394D02*
X167640000Y-50292000D01*
X172760500Y-64796000D02*
X171969606Y-64796000D01*
X179578000Y-73406000D02*
X179324000Y-73660000D01*
X179578000Y-63754000D02*
X179578000Y-73406000D01*
X163322000Y-59499260D02*
X163322000Y-58420000D01*
X175768000Y-73406000D02*
X175006000Y-74168000D01*
X175768000Y-63754000D02*
X175768000Y-73406000D01*
X170218740Y-66396000D02*
X163322000Y-59499260D01*
X172760500Y-66396000D02*
X170218740Y-66396000D01*
X168834000Y-67996000D02*
X163322000Y-62484000D01*
X148722000Y-63754000D02*
X153162000Y-63754000D01*
X172760500Y-67996000D02*
X168834000Y-67996000D01*
X157226000Y-65024000D02*
X157480000Y-64770000D01*
X153162000Y-63754000D02*
X154432000Y-65024000D01*
X154432000Y-65024000D02*
X157226000Y-65024000D01*
X188935500Y-73596000D02*
X196024000Y-73596000D01*
X196024000Y-73596000D02*
X199136000Y-76708000D01*
X202946000Y-76708000D02*
X204216000Y-77978000D01*
X204216000Y-77978000D02*
X204216000Y-78740000D01*
X199136000Y-76708000D02*
X202946000Y-76708000D01*
X188935500Y-72796000D02*
X198272000Y-72796000D01*
X198272000Y-72796000D02*
X200152000Y-74676000D01*
X188935500Y-69596000D02*
X189738000Y-69596000D01*
X189738000Y-69596000D02*
X190754000Y-68580000D01*
X190754000Y-68580000D02*
X202184000Y-68580000D01*
X202184000Y-68580000D02*
X204216000Y-66548000D01*
X188935500Y-67996000D02*
X189726394Y-67996000D01*
X189726394Y-67996000D02*
X193206394Y-64516000D01*
X193206394Y-64516000D02*
X202184000Y-64516000D01*
X202184000Y-64516000D02*
X204216000Y-62484000D01*
X188935500Y-71996000D02*
X201536000Y-71996000D01*
X201536000Y-71996000D02*
X204216000Y-74676000D01*
X199568000Y-71196000D02*
X200152000Y-70612000D01*
X188935500Y-71196000D02*
X199568000Y-71196000D01*
X198018978Y-70396000D02*
X199072978Y-69342000D01*
X188935500Y-70396000D02*
X198018978Y-70396000D01*
X199072978Y-69342000D02*
X202946000Y-69342000D01*
X202946000Y-69342000D02*
X204216000Y-70612000D01*
X191974394Y-66548000D02*
X189726394Y-68796000D01*
X200152000Y-66548000D02*
X191974394Y-66548000D01*
X189726394Y-68796000D02*
X188935500Y-68796000D01*
X182448000Y-60717606D02*
X189992000Y-53173606D01*
X189992000Y-48260000D02*
X192024000Y-46228000D01*
X182448000Y-61508500D02*
X182448000Y-60717606D01*
X189992000Y-53173606D02*
X189992000Y-48260000D01*
X180848000Y-61508500D02*
X180848000Y-60717606D01*
X185928000Y-55637606D02*
X185928000Y-48260000D01*
X180848000Y-60717606D02*
X185928000Y-55637606D01*
X185928000Y-48260000D02*
X187960000Y-46228000D01*
M02*
