G04 #@! TF.GenerationSoftware,KiCad,Pcbnew,(6.0.0)*
G04 #@! TF.CreationDate,2023-01-29T20:42:11-05:00*
G04 #@! TF.ProjectId,tms7000 qfp 60 adapter,746d7337-3030-4302-9071-667020363020,rev?*
G04 #@! TF.SameCoordinates,Original*
G04 #@! TF.FileFunction,Copper,L2,Bot*
G04 #@! TF.FilePolarity,Positive*
%FSLAX46Y46*%
G04 Gerber Fmt 4.6, Leading zero omitted, Abs format (unit mm)*
G04 Created by KiCad (PCBNEW (6.0.0)) date 2023-01-29 20:42:11*
%MOMM*%
%LPD*%
G01*
G04 APERTURE LIST*
G04 #@! TA.AperFunction,ComponentPad*
%ADD10R,1.700000X1.700000*%
G04 #@! TD*
G04 #@! TA.AperFunction,ComponentPad*
%ADD11R,1.600000X1.600000*%
G04 #@! TD*
G04 #@! TA.AperFunction,ComponentPad*
%ADD12O,1.600000X1.600000*%
G04 #@! TD*
G04 #@! TA.AperFunction,ComponentPad*
%ADD13C,1.600000*%
G04 #@! TD*
G04 #@! TA.AperFunction,ComponentPad*
%ADD14O,1.400000X1.400000*%
G04 #@! TD*
G04 #@! TA.AperFunction,ViaPad*
%ADD15C,0.800000*%
G04 #@! TD*
G04 #@! TA.AperFunction,Conductor*
%ADD16C,0.250000*%
G04 #@! TD*
G04 APERTURE END LIST*
D10*
X200152000Y-54356000D03*
X179832000Y-50292000D03*
X175768000Y-46228000D03*
X187960000Y-90932000D03*
X183896000Y-86868000D03*
X204216000Y-74676000D03*
D11*
X151384000Y-86360000D03*
D12*
X148844000Y-86360000D03*
D10*
X159258000Y-78740000D03*
X196088000Y-50292000D03*
D13*
X131064000Y-51845000D03*
D12*
X131064000Y-49305000D03*
D10*
X163322000Y-74676000D03*
X187960000Y-50292000D03*
X200152000Y-82804000D03*
X200152000Y-70612000D03*
X204216000Y-58420000D03*
X196088000Y-46228000D03*
X163322000Y-66548000D03*
X163322000Y-78740000D03*
X171704000Y-50292000D03*
X183896000Y-46228000D03*
X179832000Y-90932000D03*
X175768000Y-86868000D03*
X192024000Y-86868000D03*
X183896000Y-50292000D03*
X179832000Y-46228000D03*
X163322000Y-62484000D03*
X171450000Y-90932000D03*
X179832000Y-86868000D03*
D11*
X141102000Y-56134000D03*
D12*
X141102000Y-58674000D03*
X141102000Y-61214000D03*
X141102000Y-63754000D03*
X141102000Y-66294000D03*
X141102000Y-68834000D03*
X141102000Y-71374000D03*
X141102000Y-73914000D03*
X141102000Y-76454000D03*
X141102000Y-78994000D03*
X148722000Y-78994000D03*
X148722000Y-76454000D03*
X148722000Y-73914000D03*
X148722000Y-71374000D03*
X148722000Y-68834000D03*
X148722000Y-66294000D03*
X148722000Y-63754000D03*
X148722000Y-61214000D03*
X148722000Y-58674000D03*
X148722000Y-56134000D03*
D10*
X192024000Y-90932000D03*
X159258000Y-62484000D03*
D11*
X142325810Y-50800000D03*
D12*
X139785810Y-50800000D03*
D10*
X196088000Y-86868000D03*
X175768000Y-90932000D03*
X200152000Y-62484000D03*
X183896000Y-90932000D03*
X200152000Y-46228000D03*
D11*
X120116000Y-48531500D03*
D12*
X120116000Y-51071500D03*
X120116000Y-53611500D03*
X120116000Y-56151500D03*
X120116000Y-58691500D03*
X120116000Y-61231500D03*
X120116000Y-63771500D03*
X120116000Y-66311500D03*
X120116000Y-68851500D03*
X120116000Y-71391500D03*
X120116000Y-73931500D03*
X120116000Y-76471500D03*
X120116000Y-79011500D03*
X120116000Y-81551500D03*
X120116000Y-84091500D03*
X120116000Y-86631500D03*
X120116000Y-89171500D03*
X120116000Y-91711500D03*
X120116000Y-94251500D03*
X120116000Y-96791500D03*
X135356000Y-96791500D03*
X135356000Y-94251500D03*
X135356000Y-91711500D03*
X135356000Y-89171500D03*
D14*
X135356000Y-86631500D03*
X135356000Y-84091500D03*
X135356000Y-81551500D03*
D12*
X135356000Y-79011500D03*
X135356000Y-76471500D03*
X135356000Y-73931500D03*
X135356000Y-71391500D03*
X135356000Y-68851500D03*
X135356000Y-66311500D03*
D14*
X135356000Y-63771500D03*
X135356000Y-61231500D03*
X135356000Y-58691500D03*
D12*
X135356000Y-56151500D03*
X135356000Y-53611500D03*
X135356000Y-51071500D03*
X135356000Y-48531500D03*
D10*
X204216000Y-70612000D03*
D13*
X127254000Y-52607000D03*
D12*
X127254000Y-50067000D03*
D11*
X142325810Y-53340000D03*
D12*
X139785810Y-53340000D03*
D10*
X187960000Y-46228000D03*
X163322000Y-54356000D03*
X159258000Y-70612000D03*
X200152000Y-66548000D03*
X204216000Y-62484000D03*
X200152000Y-50292000D03*
X200152000Y-74676000D03*
X159258000Y-74676000D03*
X171704000Y-46228000D03*
X163322000Y-58420000D03*
X204216000Y-78740000D03*
X187960000Y-86868000D03*
X196088000Y-90932000D03*
X192024000Y-50292000D03*
X204216000Y-54356000D03*
X200152000Y-90932000D03*
X159258000Y-66548000D03*
X200152000Y-78740000D03*
D11*
X142325810Y-48260000D03*
D12*
X139785810Y-48260000D03*
D10*
X167640000Y-50292000D03*
X200152000Y-86868000D03*
X175768000Y-50292000D03*
X200152000Y-58420000D03*
X163322000Y-70612000D03*
X204216000Y-66548000D03*
X159258000Y-58420000D03*
X192024000Y-46228000D03*
D15*
X161036000Y-47752000D03*
X159004000Y-50546000D03*
X137858859Y-80835141D03*
X125730000Y-57658000D03*
X128778000Y-57658000D03*
X151130000Y-55880000D03*
X118491989Y-72516011D03*
X152146000Y-77978000D03*
X144780000Y-86360000D03*
X143510000Y-86360000D03*
X156210000Y-78994000D03*
X142494000Y-87122000D03*
X139192000Y-84582000D03*
X152654000Y-65024000D03*
X178308000Y-63754000D03*
X177546000Y-75692000D03*
X177038000Y-73152000D03*
X177038000Y-63754000D03*
X179324000Y-73660000D03*
X179578000Y-63754000D03*
X175006000Y-74168000D03*
X175768000Y-63754000D03*
X157480000Y-64770000D03*
D16*
X154053425Y-52196011D02*
X133222011Y-52196011D01*
X127666700Y-47498000D02*
X121149500Y-47498000D01*
X183896000Y-46228000D02*
X182255040Y-44587040D01*
X182255040Y-44587040D02*
X161662396Y-44587040D01*
X133222011Y-52196011D02*
X131455511Y-50429511D01*
X130598211Y-50429511D02*
X127666700Y-47498000D01*
X121149500Y-47498000D02*
X120116000Y-48531500D01*
X161662396Y-44587040D02*
X154053425Y-52196011D01*
X131455511Y-50429511D02*
X130598211Y-50429511D01*
X133730282Y-57404000D02*
X127808771Y-51482489D01*
X159004000Y-50546000D02*
X154531150Y-55018850D01*
X127808771Y-51482489D02*
X124793511Y-51482489D01*
X124793511Y-51482489D02*
X122664500Y-53611500D01*
X135890000Y-57404000D02*
X133730282Y-57404000D01*
X122664500Y-53611500D02*
X120116000Y-53611500D01*
X176593022Y-47752000D02*
X178117022Y-46228000D01*
X138284511Y-55009489D02*
X135890000Y-57404000D01*
X161036000Y-47752000D02*
X176593022Y-47752000D01*
X178117022Y-46228000D02*
X179832000Y-46228000D01*
X154531150Y-55018850D02*
X154521789Y-55009489D01*
X154521789Y-55009489D02*
X138284511Y-55009489D01*
X127254000Y-50067000D02*
X122710800Y-50067000D01*
X119650211Y-54736011D02*
X122808011Y-54736011D01*
X137550707Y-80526989D02*
X137858859Y-80835141D01*
X128778000Y-74023800D02*
X135281189Y-80526989D01*
X128778000Y-57658000D02*
X128778000Y-74023800D01*
X122710800Y-50067000D02*
X120453800Y-52324000D01*
X118991489Y-54077289D02*
X119650211Y-54736011D01*
X120453800Y-52324000D02*
X119126000Y-52324000D01*
X119126000Y-52324000D02*
X118991489Y-52458511D01*
X135281189Y-80526989D02*
X137550707Y-80526989D01*
X122808011Y-54736011D02*
X125730000Y-57658000D01*
X118991489Y-52458511D02*
X118991489Y-54077289D01*
X136797489Y-54464511D02*
X136525989Y-54736011D01*
X177741520Y-48201520D02*
X161611094Y-48201520D01*
X127480502Y-47947520D02*
X123239980Y-47947520D01*
X131698011Y-54736011D02*
X129794000Y-52832000D01*
X136525989Y-54736011D02*
X131698011Y-54736011D01*
X129794000Y-52832000D02*
X129794000Y-50261018D01*
X153056361Y-54464511D02*
X136797489Y-54464511D01*
X161336103Y-48476511D02*
X159044361Y-48476511D01*
X123239980Y-47947520D02*
X120116000Y-51071500D01*
X129794000Y-50261018D02*
X127480502Y-47947520D01*
X161611094Y-48201520D02*
X161336103Y-48476511D01*
X159044361Y-48476511D02*
X153056361Y-54464511D01*
X179832000Y-50292000D02*
X177741520Y-48201520D01*
X161923574Y-48651040D02*
X155106244Y-55468370D01*
X155106244Y-55468370D02*
X151541630Y-55468370D01*
X174127040Y-48651040D02*
X161923574Y-48651040D01*
X175768000Y-50292000D02*
X174127040Y-48651040D01*
X151541630Y-55468370D02*
X151130000Y-55880000D01*
X161094480Y-43247802D02*
X161094480Y-43238480D01*
X118491989Y-72516011D02*
X118491989Y-47879989D01*
X136897500Y-46990000D02*
X157352282Y-46990000D01*
X194056000Y-93980000D02*
X194056000Y-90614978D01*
X199453022Y-93980000D02*
X194056000Y-93980000D01*
X161935040Y-77353040D02*
X152770960Y-77353040D01*
X192468022Y-89027000D02*
X186055000Y-89027000D01*
X118491989Y-47879989D02*
X119381978Y-46990000D01*
X186055000Y-89027000D02*
X187960000Y-90932000D01*
X128749000Y-46990000D02*
X131064000Y-49305000D01*
X194056000Y-90614978D02*
X192468022Y-89027000D01*
X152770960Y-77353040D02*
X152146000Y-77978000D01*
X135356000Y-48531500D02*
X136897500Y-46990000D01*
X119381978Y-46990000D02*
X128749000Y-46990000D01*
X207264000Y-50990978D02*
X207264000Y-86169022D01*
X199511502Y-43238480D02*
X207264000Y-50990978D01*
X157352282Y-46990000D02*
X161094480Y-43247802D01*
X161094480Y-43238480D02*
X199511502Y-43238480D01*
X207264000Y-86169022D02*
X199453022Y-93980000D01*
X183896000Y-86868000D02*
X186055000Y-89027000D01*
X163322000Y-78740000D02*
X161935040Y-77353040D01*
X144780000Y-88136564D02*
X144780000Y-86360000D01*
X153382376Y-96738940D02*
X144780000Y-88136564D01*
X171450000Y-90932000D02*
X171450000Y-92456000D01*
X171450000Y-92456000D02*
X167167060Y-96738940D01*
X167167060Y-96738940D02*
X153382376Y-96738940D01*
X163228460Y-97188460D02*
X153196178Y-97188460D01*
X163228460Y-97188460D02*
X171289540Y-97188460D01*
X162212460Y-97188460D02*
X163228460Y-97188460D01*
X175768000Y-92710000D02*
X175768000Y-90932000D01*
X171289540Y-97188460D02*
X175768000Y-92710000D01*
X153196178Y-97188460D02*
X143510000Y-87502282D01*
X143510000Y-87502282D02*
X143510000Y-86360000D01*
X156210000Y-78994000D02*
X156464000Y-78740000D01*
X156464000Y-78740000D02*
X159258000Y-78740000D01*
X153009980Y-97637980D02*
X142494000Y-87122000D01*
X160629980Y-97637980D02*
X161391980Y-97637980D01*
X161391980Y-97637980D02*
X173126020Y-97637980D01*
X173126020Y-97637980D02*
X179832000Y-90932000D01*
X161391980Y-97637980D02*
X153009980Y-97637980D01*
X136647750Y-91055468D02*
X136647750Y-92959750D01*
X196088000Y-90932000D02*
X194056000Y-88900000D01*
X194056000Y-88900000D02*
X194056000Y-83566000D01*
X136647750Y-92959750D02*
X135356000Y-94251500D01*
X183504960Y-81886640D02*
X167165385Y-81886640D01*
X194056000Y-83566000D02*
X191477600Y-80987600D01*
X144234098Y-83469120D02*
X136647750Y-91055468D01*
X167165385Y-81886640D02*
X165582903Y-83469120D01*
X191477600Y-80987600D02*
X184404000Y-80987600D01*
X165582903Y-83469120D02*
X144234098Y-83469120D01*
X184404000Y-80987600D02*
X183504960Y-81886640D01*
X198120000Y-85471718D02*
X198120000Y-88772282D01*
X198120000Y-88772282D02*
X198056141Y-88836141D01*
X135356000Y-89171500D02*
X137016217Y-89171500D01*
X192736842Y-80088560D02*
X198120000Y-85471718D01*
X166792989Y-80987600D02*
X182539551Y-80987600D01*
X182539551Y-80987600D02*
X183438591Y-80088560D01*
X165210509Y-82570080D02*
X166792989Y-80987600D01*
X137016217Y-89171500D02*
X143617638Y-82570080D01*
X143617638Y-82570080D02*
X165210509Y-82570080D01*
X198056141Y-88836141D02*
X200152000Y-90932000D01*
X183438591Y-80088560D02*
X192736842Y-80088560D01*
X133858000Y-86582378D02*
X133858000Y-85589500D01*
X182353354Y-80538080D02*
X166606792Y-80538080D01*
X200152000Y-86868000D02*
X192923040Y-79639040D01*
X183252395Y-79639040D02*
X182353354Y-80538080D01*
X166606792Y-80538080D02*
X165024312Y-82120560D01*
X137895989Y-87656011D02*
X134931633Y-87656011D01*
X134931633Y-87656011D02*
X133858000Y-86582378D01*
X165024312Y-82120560D02*
X143431440Y-82120560D01*
X133858000Y-85589500D02*
X135356000Y-84091500D01*
X143431440Y-82120560D02*
X137895989Y-87656011D01*
X192923040Y-79639040D02*
X183252395Y-79639040D01*
X184868500Y-98087500D02*
X192024000Y-90932000D01*
X120116000Y-96791500D02*
X121412000Y-98087500D01*
X121412000Y-98087500D02*
X184868500Y-98087500D01*
X165769103Y-83918639D02*
X144420296Y-83918640D01*
X192024000Y-82296000D02*
X191165120Y-81437120D01*
X167351582Y-82336160D02*
X165769103Y-83918639D01*
X137409750Y-94737750D02*
X135356000Y-96791500D01*
X191165120Y-81437120D02*
X184590198Y-81437120D01*
X137409750Y-90929186D02*
X137409750Y-94737750D01*
X144420296Y-83918640D02*
X137409750Y-90929186D01*
X184590198Y-81437120D02*
X183691157Y-82336160D01*
X192024000Y-86868000D02*
X192024000Y-82296000D01*
X183691157Y-82336160D02*
X167351582Y-82336160D01*
X183250960Y-81437120D02*
X184150000Y-80538080D01*
X196088000Y-84075436D02*
X196088000Y-86868000D01*
X135356000Y-91711500D02*
X144047900Y-83019600D01*
X144047900Y-83019600D02*
X165396706Y-83019600D01*
X192550644Y-80538080D02*
X196088000Y-84075436D01*
X166979187Y-81437120D02*
X183250960Y-81437120D01*
X184150000Y-80538080D02*
X192550644Y-80538080D01*
X165396706Y-83019600D02*
X166979187Y-81437120D01*
X182879999Y-78740000D02*
X200152000Y-78740000D01*
X135390989Y-83066989D02*
X127254000Y-74930000D01*
X140765980Y-81221520D02*
X164651916Y-81221520D01*
X135780367Y-83066989D02*
X135390989Y-83066989D01*
X164651916Y-81221520D02*
X166234396Y-79639040D01*
X127254000Y-74930000D02*
X127254000Y-52607000D01*
X136380511Y-85606989D02*
X136380511Y-83667133D01*
X135356000Y-86631500D02*
X136380511Y-85606989D01*
X136380511Y-83667133D02*
X135780367Y-83066989D01*
X166234396Y-79639040D02*
X181980960Y-79639040D01*
X181980960Y-79639040D02*
X182879999Y-78740000D01*
X135356000Y-86631500D02*
X140765980Y-81221520D01*
X141224000Y-82550000D02*
X142102960Y-81671040D01*
X183066197Y-79189520D02*
X198061520Y-79189520D01*
X164838114Y-81671040D02*
X166420594Y-80088560D01*
X140716000Y-83058000D02*
X141224000Y-82550000D01*
X141224000Y-82550000D02*
X139192000Y-84582000D01*
X142102960Y-81671040D02*
X164838114Y-81671040D01*
X200152000Y-81280000D02*
X200152000Y-82804000D01*
X198061520Y-79189520D02*
X200152000Y-81280000D01*
X182167157Y-80088559D02*
X183066197Y-79189520D01*
X166420594Y-80088560D02*
X182167157Y-80088559D01*
X138412500Y-58691500D02*
X135356000Y-58691500D01*
X139554511Y-57549489D02*
X138412500Y-58691500D01*
X151137520Y-59322432D02*
X149364577Y-57549489D01*
X176671582Y-67993440D02*
X153083440Y-67993440D01*
X196088000Y-46228000D02*
X194913489Y-47402511D01*
X194913489Y-49751533D02*
X176671582Y-67993440D01*
X153083440Y-67993440D02*
X151137520Y-66047520D01*
X149364577Y-57549489D02*
X139554511Y-57549489D01*
X194913489Y-47402511D02*
X194913489Y-49751533D01*
X151137520Y-66047520D02*
X151137520Y-59322432D01*
X161848594Y-45036560D02*
X180989582Y-45036560D01*
X182372000Y-46418978D02*
X182372000Y-48768000D01*
X180989582Y-45036560D02*
X182372000Y-46418978D01*
X153545154Y-53340000D02*
X161848594Y-45036560D01*
X142325810Y-53340000D02*
X153545154Y-53340000D01*
X182372000Y-48768000D02*
X183896000Y-50292000D01*
X154813717Y-50800000D02*
X142325810Y-50800000D01*
X185869520Y-44137520D02*
X161476198Y-44137520D01*
X185928000Y-48260000D02*
X185928000Y-44196000D01*
X161476198Y-44137520D02*
X154813717Y-50800000D01*
X185928000Y-44196000D02*
X185869520Y-44137520D01*
X187960000Y-50292000D02*
X185928000Y-48260000D01*
X192024000Y-50292000D02*
X193198511Y-49117489D01*
X156718000Y-48260000D02*
X142325810Y-48260000D01*
X191833022Y-43688000D02*
X161290000Y-43688000D01*
X193198511Y-49117489D02*
X193198511Y-45053489D01*
X193198511Y-45053489D02*
X191833022Y-43688000D01*
X161290000Y-43688000D02*
X156718000Y-48260000D01*
X175768000Y-86868000D02*
X151892000Y-86868000D01*
X151892000Y-86868000D02*
X151384000Y-86360000D01*
X180018198Y-79189520D02*
X196723718Y-62484000D01*
X139504480Y-79622497D02*
X140653983Y-80772000D01*
X196723718Y-62484000D02*
X200152000Y-62484000D01*
X140653983Y-80772000D02*
X164465718Y-80772000D01*
X139504480Y-60271520D02*
X139504480Y-79622497D01*
X141102000Y-58674000D02*
X139504480Y-60271520D01*
X166048198Y-79189520D02*
X180018198Y-79189520D01*
X164465718Y-80772000D02*
X166048198Y-79189520D01*
X205390511Y-53244511D02*
X205327489Y-53181489D01*
X152799489Y-69958511D02*
X144766511Y-69958511D01*
X205327489Y-53181489D02*
X199040511Y-53181489D01*
X144766511Y-69958511D02*
X141102000Y-66294000D01*
X204216000Y-58420000D02*
X205390511Y-57245489D01*
X199040511Y-53181489D02*
X180340000Y-71882000D01*
X205390511Y-57245489D02*
X205390511Y-53244511D01*
X154722978Y-71882000D02*
X152799489Y-69958511D01*
X180340000Y-71882000D02*
X154722978Y-71882000D01*
X141102000Y-68834000D02*
X139954000Y-69982000D01*
X179832000Y-78740000D02*
X200152000Y-58420000D01*
X139954000Y-69982000D02*
X139954000Y-79436300D01*
X140636211Y-80118511D02*
X164483489Y-80118511D01*
X139954000Y-79436300D02*
X140636211Y-80118511D01*
X165862000Y-78740000D02*
X179832000Y-78740000D01*
X164483489Y-80118511D02*
X165862000Y-78740000D01*
X203041489Y-55530511D02*
X204216000Y-54356000D01*
X178366480Y-76903520D02*
X199739489Y-55530511D01*
X149098000Y-77578511D02*
X149206511Y-77470000D01*
X149352000Y-77470000D02*
X149918480Y-76903520D01*
X149918480Y-76903520D02*
X178366480Y-76903520D01*
X199739489Y-55530511D02*
X203041489Y-55530511D01*
X141102000Y-76454000D02*
X142226511Y-77578511D01*
X142226511Y-77578511D02*
X149098000Y-77578511D01*
X149206511Y-77470000D02*
X149352000Y-77470000D01*
X148722000Y-76454000D02*
X178054000Y-76454000D01*
X178054000Y-76454000D02*
X200152000Y-54356000D01*
X163497440Y-49100560D02*
X152654000Y-59944000D01*
X152654000Y-59944000D02*
X152654000Y-65024000D01*
X170512560Y-49100560D02*
X163497440Y-49100560D01*
X171704000Y-50292000D02*
X170512560Y-49100560D01*
X163322000Y-54356000D02*
X177038000Y-54356000D01*
X158300480Y-76004480D02*
X173794480Y-76004480D01*
X157625489Y-75329489D02*
X158300480Y-76004480D01*
X177233520Y-76004480D02*
X173794480Y-76004480D01*
X173794480Y-76004480D02*
X174693520Y-76004480D01*
X178308000Y-55626000D02*
X178308000Y-63754000D01*
X141102000Y-73914000D02*
X142517489Y-75329489D01*
X177038000Y-54356000D02*
X178308000Y-55626000D01*
X142517489Y-75329489D02*
X157625489Y-75329489D01*
X177546000Y-75692000D02*
X177233520Y-76004480D01*
X176217520Y-72331520D02*
X175201520Y-72331520D01*
X149679520Y-72331520D02*
X175201520Y-72331520D01*
X175768000Y-56896000D02*
X177038000Y-58166000D01*
X148722000Y-71374000D02*
X149679520Y-72331520D01*
X177038000Y-58166000D02*
X177038000Y-63754000D01*
X177038000Y-73152000D02*
X176217520Y-72331520D01*
X160782000Y-56896000D02*
X175768000Y-56896000D01*
X159258000Y-58420000D02*
X160782000Y-56896000D01*
X149860000Y-68834000D02*
X148722000Y-68834000D01*
X181102000Y-69342000D02*
X150368000Y-69342000D01*
X200152000Y-50292000D02*
X181102000Y-69342000D01*
X150368000Y-69342000D02*
X149860000Y-68834000D01*
X197262511Y-51403489D02*
X185674000Y-62992000D01*
X197262511Y-49117489D02*
X197262511Y-51403489D01*
X185674000Y-62992000D02*
X179773520Y-68892480D01*
X200152000Y-46228000D02*
X197262511Y-49117489D01*
X179773520Y-68892480D02*
X151320480Y-68892480D01*
X151320480Y-68892480D02*
X148722000Y-66294000D01*
X185674000Y-62992000D02*
X183946031Y-64719969D01*
X177937040Y-68442960D02*
X151638000Y-68442960D01*
X150688000Y-67492960D02*
X150688000Y-60640000D01*
X196088000Y-50292000D02*
X177937040Y-68442960D01*
X150688000Y-60640000D02*
X148722000Y-58674000D01*
X151638000Y-68442960D02*
X150688000Y-67492960D01*
X142509040Y-72781040D02*
X175143040Y-72781040D01*
X179578000Y-54102000D02*
X179578000Y-63754000D01*
X167640000Y-50292000D02*
X168814511Y-51466511D01*
X176784000Y-74422000D02*
X178562000Y-74422000D01*
X168814511Y-51466511D02*
X176942511Y-51466511D01*
X141102000Y-71374000D02*
X142509040Y-72781040D01*
X178562000Y-74422000D02*
X179324000Y-73660000D01*
X176942511Y-51466511D02*
X179578000Y-54102000D01*
X175143040Y-72781040D02*
X176784000Y-74422000D01*
X175006000Y-74168000D02*
X169989022Y-74168000D01*
X163322000Y-58420000D02*
X174498000Y-58420000D01*
X148722000Y-73914000D02*
X149134511Y-73501489D01*
X175768000Y-59690000D02*
X175768000Y-63754000D01*
X174498000Y-58420000D02*
X175768000Y-59690000D01*
X169989022Y-74168000D02*
X169322511Y-73501489D01*
X149134511Y-73501489D02*
X169322511Y-73501489D01*
X157480000Y-64770000D02*
X161036000Y-64770000D01*
X161036000Y-64770000D02*
X163322000Y-62484000D01*
M02*
