G04 #@! TF.GenerationSoftware,KiCad,Pcbnew,(6.0.0)*
G04 #@! TF.CreationDate,2023-01-29T20:42:11-05:00*
G04 #@! TF.ProjectId,tms7000 qfp 60 adapter,746d7337-3030-4302-9071-667020363020,rev?*
G04 #@! TF.SameCoordinates,Original*
G04 #@! TF.FileFunction,Paste,Top*
G04 #@! TF.FilePolarity,Positive*
%FSLAX46Y46*%
G04 Gerber Fmt 4.6, Leading zero omitted, Abs format (unit mm)*
G04 Created by KiCad (PCBNEW (6.0.0)) date 2023-01-29 20:42:11*
%MOMM*%
%LPD*%
G01*
G04 APERTURE LIST*
G04 Aperture macros list*
%AMRoundRect*
0 Rectangle with rounded corners*
0 $1 Rounding radius*
0 $2 $3 $4 $5 $6 $7 $8 $9 X,Y pos of 4 corners*
0 Add a 4 corners polygon primitive as box body*
4,1,4,$2,$3,$4,$5,$6,$7,$8,$9,$2,$3,0*
0 Add four circle primitives for the rounded corners*
1,1,$1+$1,$2,$3*
1,1,$1+$1,$4,$5*
1,1,$1+$1,$6,$7*
1,1,$1+$1,$8,$9*
0 Add four rect primitives between the rounded corners*
20,1,$1+$1,$2,$3,$4,$5,0*
20,1,$1+$1,$4,$5,$6,$7,0*
20,1,$1+$1,$6,$7,$8,$9,0*
20,1,$1+$1,$8,$9,$2,$3,0*%
G04 Aperture macros list end*
%ADD10RoundRect,0.137500X-0.800000X-0.137500X0.800000X-0.137500X0.800000X0.137500X-0.800000X0.137500X0*%
%ADD11RoundRect,0.137500X-0.137500X-0.800000X0.137500X-0.800000X0.137500X0.800000X-0.137500X0.800000X0*%
G04 APERTURE END LIST*
D10*
X172760500Y-63996000D03*
X172760500Y-64796000D03*
X172760500Y-65596000D03*
X172760500Y-66396000D03*
X172760500Y-67196000D03*
X172760500Y-67996000D03*
X172760500Y-68796000D03*
X172760500Y-69596000D03*
X172760500Y-70396000D03*
X172760500Y-71196000D03*
X172760500Y-71996000D03*
X172760500Y-72796000D03*
X172760500Y-73596000D03*
X172760500Y-74396000D03*
X172760500Y-75196000D03*
D11*
X175248000Y-77683500D03*
X176048000Y-77683500D03*
X176848000Y-77683500D03*
X177648000Y-77683500D03*
X178448000Y-77683500D03*
X179248000Y-77683500D03*
X180048000Y-77683500D03*
X180848000Y-77683500D03*
X181648000Y-77683500D03*
X182448000Y-77683500D03*
X183248000Y-77683500D03*
X184048000Y-77683500D03*
X184848000Y-77683500D03*
X185648000Y-77683500D03*
X186448000Y-77683500D03*
D10*
X188935500Y-75196000D03*
X188935500Y-74396000D03*
X188935500Y-73596000D03*
X188935500Y-72796000D03*
X188935500Y-71996000D03*
X188935500Y-71196000D03*
X188935500Y-70396000D03*
X188935500Y-69596000D03*
X188935500Y-68796000D03*
X188935500Y-67996000D03*
X188935500Y-67196000D03*
X188935500Y-66396000D03*
X188935500Y-65596000D03*
X188935500Y-64796000D03*
X188935500Y-63996000D03*
D11*
X186448000Y-61508500D03*
X185648000Y-61508500D03*
X184848000Y-61508500D03*
X184048000Y-61508500D03*
X183248000Y-61508500D03*
X182448000Y-61508500D03*
X181648000Y-61508500D03*
X180848000Y-61508500D03*
X180048000Y-61508500D03*
X179248000Y-61508500D03*
X178448000Y-61508500D03*
X177648000Y-61508500D03*
X176848000Y-61508500D03*
X176048000Y-61508500D03*
X175248000Y-61508500D03*
M02*
