G04 #@! TF.GenerationSoftware,KiCad,Pcbnew,(6.0.0)*
G04 #@! TF.CreationDate,2023-01-29T20:42:12-05:00*
G04 #@! TF.ProjectId,tms7000 qfp 60 adapter,746d7337-3030-4302-9071-667020363020,rev?*
G04 #@! TF.SameCoordinates,Original*
G04 #@! TF.FileFunction,Soldermask,Top*
G04 #@! TF.FilePolarity,Negative*
%FSLAX46Y46*%
G04 Gerber Fmt 4.6, Leading zero omitted, Abs format (unit mm)*
G04 Created by KiCad (PCBNEW (6.0.0)) date 2023-01-29 20:42:12*
%MOMM*%
%LPD*%
G01*
G04 APERTURE LIST*
G04 Aperture macros list*
%AMRoundRect*
0 Rectangle with rounded corners*
0 $1 Rounding radius*
0 $2 $3 $4 $5 $6 $7 $8 $9 X,Y pos of 4 corners*
0 Add a 4 corners polygon primitive as box body*
4,1,4,$2,$3,$4,$5,$6,$7,$8,$9,$2,$3,0*
0 Add four circle primitives for the rounded corners*
1,1,$1+$1,$2,$3*
1,1,$1+$1,$4,$5*
1,1,$1+$1,$6,$7*
1,1,$1+$1,$8,$9*
0 Add four rect primitives between the rounded corners*
20,1,$1+$1,$2,$3,$4,$5,0*
20,1,$1+$1,$4,$5,$6,$7,0*
20,1,$1+$1,$6,$7,$8,$9,0*
20,1,$1+$1,$8,$9,$2,$3,0*%
G04 Aperture macros list end*
%ADD10R,1.700000X1.700000*%
%ADD11R,1.600000X1.600000*%
%ADD12O,1.600000X1.600000*%
%ADD13C,1.600000*%
%ADD14O,1.400000X1.400000*%
%ADD15RoundRect,0.137500X-0.800000X-0.137500X0.800000X-0.137500X0.800000X0.137500X-0.800000X0.137500X0*%
%ADD16RoundRect,0.137500X-0.137500X-0.800000X0.137500X-0.800000X0.137500X0.800000X-0.137500X0.800000X0*%
G04 APERTURE END LIST*
D10*
X200152000Y-54356000D03*
X179832000Y-50292000D03*
X175768000Y-46228000D03*
X187960000Y-90932000D03*
X183896000Y-86868000D03*
X204216000Y-74676000D03*
D11*
X151384000Y-86360000D03*
D12*
X148844000Y-86360000D03*
D10*
X159258000Y-78740000D03*
X196088000Y-50292000D03*
D13*
X131064000Y-51845000D03*
D12*
X131064000Y-49305000D03*
D10*
X163322000Y-74676000D03*
X187960000Y-50292000D03*
X200152000Y-82804000D03*
X200152000Y-70612000D03*
X204216000Y-58420000D03*
X196088000Y-46228000D03*
X163322000Y-66548000D03*
X163322000Y-78740000D03*
X171704000Y-50292000D03*
X183896000Y-46228000D03*
X179832000Y-90932000D03*
X175768000Y-86868000D03*
X192024000Y-86868000D03*
X183896000Y-50292000D03*
X179832000Y-46228000D03*
X163322000Y-62484000D03*
X171450000Y-90932000D03*
X179832000Y-86868000D03*
D11*
X141102000Y-56134000D03*
D12*
X141102000Y-58674000D03*
X141102000Y-61214000D03*
X141102000Y-63754000D03*
X141102000Y-66294000D03*
X141102000Y-68834000D03*
X141102000Y-71374000D03*
X141102000Y-73914000D03*
X141102000Y-76454000D03*
X141102000Y-78994000D03*
X148722000Y-78994000D03*
X148722000Y-76454000D03*
X148722000Y-73914000D03*
X148722000Y-71374000D03*
X148722000Y-68834000D03*
X148722000Y-66294000D03*
X148722000Y-63754000D03*
X148722000Y-61214000D03*
X148722000Y-58674000D03*
X148722000Y-56134000D03*
D10*
X192024000Y-90932000D03*
X159258000Y-62484000D03*
D11*
X142325810Y-50800000D03*
D12*
X139785810Y-50800000D03*
D10*
X196088000Y-86868000D03*
X175768000Y-90932000D03*
X200152000Y-62484000D03*
X183896000Y-90932000D03*
X200152000Y-46228000D03*
D11*
X120116000Y-48531500D03*
D12*
X120116000Y-51071500D03*
X120116000Y-53611500D03*
X120116000Y-56151500D03*
X120116000Y-58691500D03*
X120116000Y-61231500D03*
X120116000Y-63771500D03*
X120116000Y-66311500D03*
X120116000Y-68851500D03*
X120116000Y-71391500D03*
X120116000Y-73931500D03*
X120116000Y-76471500D03*
X120116000Y-79011500D03*
X120116000Y-81551500D03*
X120116000Y-84091500D03*
X120116000Y-86631500D03*
X120116000Y-89171500D03*
X120116000Y-91711500D03*
X120116000Y-94251500D03*
X120116000Y-96791500D03*
X135356000Y-96791500D03*
X135356000Y-94251500D03*
X135356000Y-91711500D03*
X135356000Y-89171500D03*
D14*
X135356000Y-86631500D03*
X135356000Y-84091500D03*
X135356000Y-81551500D03*
D12*
X135356000Y-79011500D03*
X135356000Y-76471500D03*
X135356000Y-73931500D03*
X135356000Y-71391500D03*
X135356000Y-68851500D03*
X135356000Y-66311500D03*
D14*
X135356000Y-63771500D03*
X135356000Y-61231500D03*
X135356000Y-58691500D03*
D12*
X135356000Y-56151500D03*
X135356000Y-53611500D03*
X135356000Y-51071500D03*
X135356000Y-48531500D03*
D10*
X204216000Y-70612000D03*
D13*
X127254000Y-52607000D03*
D12*
X127254000Y-50067000D03*
D11*
X142325810Y-53340000D03*
D12*
X139785810Y-53340000D03*
D10*
X187960000Y-46228000D03*
X163322000Y-54356000D03*
X159258000Y-70612000D03*
X200152000Y-66548000D03*
X204216000Y-62484000D03*
X200152000Y-50292000D03*
X200152000Y-74676000D03*
X159258000Y-74676000D03*
X171704000Y-46228000D03*
X163322000Y-58420000D03*
X204216000Y-78740000D03*
X187960000Y-86868000D03*
X196088000Y-90932000D03*
X192024000Y-50292000D03*
X204216000Y-54356000D03*
X200152000Y-90932000D03*
X159258000Y-66548000D03*
X200152000Y-78740000D03*
D11*
X142325810Y-48260000D03*
D12*
X139785810Y-48260000D03*
D10*
X167640000Y-50292000D03*
X200152000Y-86868000D03*
D15*
X172760500Y-63996000D03*
X172760500Y-64796000D03*
X172760500Y-65596000D03*
X172760500Y-66396000D03*
X172760500Y-67196000D03*
X172760500Y-67996000D03*
X172760500Y-68796000D03*
X172760500Y-69596000D03*
X172760500Y-70396000D03*
X172760500Y-71196000D03*
X172760500Y-71996000D03*
X172760500Y-72796000D03*
X172760500Y-73596000D03*
X172760500Y-74396000D03*
X172760500Y-75196000D03*
D16*
X175248000Y-77683500D03*
X176048000Y-77683500D03*
X176848000Y-77683500D03*
X177648000Y-77683500D03*
X178448000Y-77683500D03*
X179248000Y-77683500D03*
X180048000Y-77683500D03*
X180848000Y-77683500D03*
X181648000Y-77683500D03*
X182448000Y-77683500D03*
X183248000Y-77683500D03*
X184048000Y-77683500D03*
X184848000Y-77683500D03*
X185648000Y-77683500D03*
X186448000Y-77683500D03*
D15*
X188935500Y-75196000D03*
X188935500Y-74396000D03*
X188935500Y-73596000D03*
X188935500Y-72796000D03*
X188935500Y-71996000D03*
X188935500Y-71196000D03*
X188935500Y-70396000D03*
X188935500Y-69596000D03*
X188935500Y-68796000D03*
X188935500Y-67996000D03*
X188935500Y-67196000D03*
X188935500Y-66396000D03*
X188935500Y-65596000D03*
X188935500Y-64796000D03*
X188935500Y-63996000D03*
D16*
X186448000Y-61508500D03*
X185648000Y-61508500D03*
X184848000Y-61508500D03*
X184048000Y-61508500D03*
X183248000Y-61508500D03*
X182448000Y-61508500D03*
X181648000Y-61508500D03*
X180848000Y-61508500D03*
X180048000Y-61508500D03*
X179248000Y-61508500D03*
X178448000Y-61508500D03*
X177648000Y-61508500D03*
X176848000Y-61508500D03*
X176048000Y-61508500D03*
X175248000Y-61508500D03*
D10*
X175768000Y-50292000D03*
X200152000Y-58420000D03*
X163322000Y-70612000D03*
X204216000Y-66548000D03*
X159258000Y-58420000D03*
X192024000Y-46228000D03*
M02*
