M48
; DRILL file {KiCad (6.0.0)} date Sun Jan 29 20:42:13 2023
; FORMAT={-:-/ absolute / metric / decimal}
; #@! TF.CreationDate,2023-01-29T20:42:13-05:00
; #@! TF.GenerationSoftware,Kicad,Pcbnew,(6.0.0)
; #@! TF.FileFunction,Plated,1,2,PTH
FMAT,2
METRIC
; #@! TA.AperFunction,Plated,PTH,ViaDrill
T1C0.400
; #@! TA.AperFunction,Plated,PTH,ComponentDrill
T2C0.800
; #@! TA.AperFunction,Plated,PTH,ComponentDrill
T3C1.000
%
G90
G05
T1
X118.492Y-72.516
X125.73Y-57.658
X128.778Y-57.658
X137.859Y-80.835
X139.192Y-84.582
X142.494Y-87.122
X143.51Y-86.36
X144.78Y-86.36
X151.13Y-55.88
X152.146Y-77.978
X152.654Y-65.024
X156.21Y-78.994
X157.48Y-64.77
X159.004Y-50.546
X161.036Y-47.752
X175.006Y-74.168
X175.768Y-63.754
X177.038Y-63.754
X177.038Y-73.152
X177.546Y-75.692
X178.308Y-63.754
X179.324Y-73.66
X179.578Y-63.754
T2
X120.116Y-48.532
X120.116Y-51.072
X120.116Y-53.611
X120.116Y-56.151
X120.116Y-58.691
X120.116Y-61.231
X120.116Y-63.771
X120.116Y-66.311
X120.116Y-68.852
X120.116Y-71.391
X120.116Y-73.931
X120.116Y-76.471
X120.116Y-79.011
X120.116Y-81.551
X120.116Y-84.091
X120.116Y-86.632
X120.116Y-89.171
X120.116Y-91.712
X120.116Y-94.251
X120.116Y-96.791
X127.254Y-50.067
X127.254Y-52.607
X131.064Y-49.305
X131.064Y-51.845
X135.356Y-48.532
X135.356Y-51.072
X135.356Y-53.611
X135.356Y-56.151
X135.356Y-58.691
X135.356Y-61.231
X135.356Y-63.771
X135.356Y-66.311
X135.356Y-68.852
X135.356Y-71.391
X135.356Y-73.931
X135.356Y-76.471
X135.356Y-79.011
X135.356Y-81.551
X135.356Y-84.091
X135.356Y-86.632
X135.356Y-89.171
X135.356Y-91.712
X135.356Y-94.251
X135.356Y-96.791
X139.786Y-48.26
X139.786Y-50.8
X139.786Y-53.34
X141.102Y-56.134
X141.102Y-58.674
X141.102Y-61.214
X141.102Y-63.754
X141.102Y-66.294
X141.102Y-68.834
X141.102Y-71.374
X141.102Y-73.914
X141.102Y-76.454
X141.102Y-78.994
X142.326Y-48.26
X142.326Y-50.8
X142.326Y-53.34
X148.722Y-56.134
X148.722Y-58.674
X148.722Y-61.214
X148.722Y-63.754
X148.722Y-66.294
X148.722Y-68.834
X148.722Y-71.374
X148.722Y-73.914
X148.722Y-76.454
X148.722Y-78.994
X148.844Y-86.36
X151.384Y-86.36
T3
X159.258Y-58.42
X159.258Y-62.484
X159.258Y-66.548
X159.258Y-70.612
X159.258Y-74.676
X159.258Y-78.74
X163.322Y-54.356
X163.322Y-58.42
X163.322Y-62.484
X163.322Y-66.548
X163.322Y-70.612
X163.322Y-74.676
X163.322Y-78.74
X167.64Y-50.292
X171.45Y-90.932
X171.704Y-46.228
X171.704Y-50.292
X175.768Y-46.228
X175.768Y-50.292
X175.768Y-86.868
X175.768Y-90.932
X179.832Y-46.228
X179.832Y-50.292
X179.832Y-86.868
X179.832Y-90.932
X183.896Y-46.228
X183.896Y-50.292
X183.896Y-86.868
X183.896Y-90.932
X187.96Y-46.228
X187.96Y-50.292
X187.96Y-86.868
X187.96Y-90.932
X192.024Y-46.228
X192.024Y-50.292
X192.024Y-86.868
X192.024Y-90.932
X196.088Y-46.228
X196.088Y-50.292
X196.088Y-86.868
X196.088Y-90.932
X200.152Y-46.228
X200.152Y-50.292
X200.152Y-54.356
X200.152Y-58.42
X200.152Y-62.484
X200.152Y-66.548
X200.152Y-70.612
X200.152Y-74.676
X200.152Y-78.74
X200.152Y-82.804
X200.152Y-86.868
X200.152Y-90.932
X204.216Y-54.356
X204.216Y-58.42
X204.216Y-62.484
X204.216Y-66.548
X204.216Y-70.612
X204.216Y-74.676
X204.216Y-78.74
T0
M30
