G04 #@! TF.GenerationSoftware,KiCad,Pcbnew,(6.0.0)*
G04 #@! TF.CreationDate,2023-01-29T20:42:12-05:00*
G04 #@! TF.ProjectId,tms7000 qfp 60 adapter,746d7337-3030-4302-9071-667020363020,rev?*
G04 #@! TF.SameCoordinates,Original*
G04 #@! TF.FileFunction,Legend,Top*
G04 #@! TF.FilePolarity,Positive*
%FSLAX46Y46*%
G04 Gerber Fmt 4.6, Leading zero omitted, Abs format (unit mm)*
G04 Created by KiCad (PCBNEW (6.0.0)) date 2023-01-29 20:42:12*
%MOMM*%
%LPD*%
G01*
G04 APERTURE LIST*
G04 Aperture macros list*
%AMRoundRect*
0 Rectangle with rounded corners*
0 $1 Rounding radius*
0 $2 $3 $4 $5 $6 $7 $8 $9 X,Y pos of 4 corners*
0 Add a 4 corners polygon primitive as box body*
4,1,4,$2,$3,$4,$5,$6,$7,$8,$9,$2,$3,0*
0 Add four circle primitives for the rounded corners*
1,1,$1+$1,$2,$3*
1,1,$1+$1,$4,$5*
1,1,$1+$1,$6,$7*
1,1,$1+$1,$8,$9*
0 Add four rect primitives between the rounded corners*
20,1,$1+$1,$2,$3,$4,$5,0*
20,1,$1+$1,$4,$5,$6,$7,0*
20,1,$1+$1,$6,$7,$8,$9,0*
20,1,$1+$1,$8,$9,$2,$3,0*%
G04 Aperture macros list end*
%ADD10C,0.150000*%
%ADD11C,0.120000*%
%ADD12R,1.700000X1.700000*%
%ADD13R,1.600000X1.600000*%
%ADD14O,1.600000X1.600000*%
%ADD15C,1.600000*%
%ADD16O,1.400000X1.400000*%
%ADD17RoundRect,0.137500X-0.800000X-0.137500X0.800000X-0.137500X0.800000X0.137500X-0.800000X0.137500X0*%
%ADD18RoundRect,0.137500X-0.137500X-0.800000X0.137500X-0.800000X0.137500X0.800000X-0.137500X0.800000X0*%
G04 APERTURE END LIST*
D10*
X191262095Y-84383619D02*
X191309714Y-84336000D01*
X191404952Y-84288380D01*
X191643047Y-84288380D01*
X191738285Y-84336000D01*
X191785904Y-84383619D01*
X191833523Y-84478857D01*
X191833523Y-84574095D01*
X191785904Y-84716952D01*
X191214476Y-85288380D01*
X191833523Y-85288380D01*
X192690666Y-84288380D02*
X192500190Y-84288380D01*
X192404952Y-84336000D01*
X192357333Y-84383619D01*
X192262095Y-84526476D01*
X192214476Y-84716952D01*
X192214476Y-85097904D01*
X192262095Y-85193142D01*
X192309714Y-85240761D01*
X192404952Y-85288380D01*
X192595428Y-85288380D01*
X192690666Y-85240761D01*
X192738285Y-85193142D01*
X192785904Y-85097904D01*
X192785904Y-84859809D01*
X192738285Y-84764571D01*
X192690666Y-84716952D01*
X192595428Y-84669333D01*
X192404952Y-84669333D01*
X192309714Y-84716952D01*
X192262095Y-84764571D01*
X192214476Y-84859809D01*
X205692476Y-74128380D02*
X206311523Y-74128380D01*
X205978190Y-74509333D01*
X206121047Y-74509333D01*
X206216285Y-74556952D01*
X206263904Y-74604571D01*
X206311523Y-74699809D01*
X206311523Y-74937904D01*
X206263904Y-75033142D01*
X206216285Y-75080761D01*
X206121047Y-75128380D01*
X205835333Y-75128380D01*
X205740095Y-75080761D01*
X205692476Y-75033142D01*
X207216285Y-74128380D02*
X206740095Y-74128380D01*
X206692476Y-74604571D01*
X206740095Y-74556952D01*
X206835333Y-74509333D01*
X207073428Y-74509333D01*
X207168666Y-74556952D01*
X207216285Y-74604571D01*
X207263904Y-74699809D01*
X207263904Y-74937904D01*
X207216285Y-75033142D01*
X207168666Y-75080761D01*
X207073428Y-75128380D01*
X206835333Y-75128380D01*
X206740095Y-75080761D01*
X206692476Y-75033142D01*
X183657904Y-52030380D02*
X183181714Y-52030380D01*
X183134095Y-52506571D01*
X183181714Y-52458952D01*
X183276952Y-52411333D01*
X183515047Y-52411333D01*
X183610285Y-52458952D01*
X183657904Y-52506571D01*
X183705523Y-52601809D01*
X183705523Y-52839904D01*
X183657904Y-52935142D01*
X183610285Y-52982761D01*
X183515047Y-53030380D01*
X183276952Y-53030380D01*
X183181714Y-52982761D01*
X183134095Y-52935142D01*
X184562666Y-52363714D02*
X184562666Y-53030380D01*
X184324571Y-51982761D02*
X184086476Y-52697047D01*
X184705523Y-52697047D01*
X183134095Y-92765619D02*
X183181714Y-92718000D01*
X183276952Y-92670380D01*
X183515047Y-92670380D01*
X183610285Y-92718000D01*
X183657904Y-92765619D01*
X183705523Y-92860857D01*
X183705523Y-92956095D01*
X183657904Y-93098952D01*
X183086476Y-93670380D01*
X183705523Y-93670380D01*
X184657904Y-93670380D02*
X184086476Y-93670380D01*
X184372190Y-93670380D02*
X184372190Y-92670380D01*
X184276952Y-92813238D01*
X184181714Y-92908476D01*
X184086476Y-92956095D01*
X205692476Y-70064380D02*
X206311523Y-70064380D01*
X205978190Y-70445333D01*
X206121047Y-70445333D01*
X206216285Y-70492952D01*
X206263904Y-70540571D01*
X206311523Y-70635809D01*
X206311523Y-70873904D01*
X206263904Y-70969142D01*
X206216285Y-71016761D01*
X206121047Y-71064380D01*
X205835333Y-71064380D01*
X205740095Y-71016761D01*
X205692476Y-70969142D01*
X206644857Y-70064380D02*
X207311523Y-70064380D01*
X206882952Y-71064380D01*
X202152285Y-50077714D02*
X202152285Y-50744380D01*
X201914190Y-49696761D02*
X201676095Y-50411047D01*
X202295142Y-50411047D01*
X203104666Y-49744380D02*
X202914190Y-49744380D01*
X202818952Y-49792000D01*
X202771333Y-49839619D01*
X202676095Y-49982476D01*
X202628476Y-50172952D01*
X202628476Y-50553904D01*
X202676095Y-50649142D01*
X202723714Y-50696761D01*
X202818952Y-50744380D01*
X203009428Y-50744380D01*
X203104666Y-50696761D01*
X203152285Y-50649142D01*
X203199904Y-50553904D01*
X203199904Y-50315809D01*
X203152285Y-50220571D01*
X203104666Y-50172952D01*
X203009428Y-50125333D01*
X202818952Y-50125333D01*
X202723714Y-50172952D01*
X202676095Y-50220571D01*
X202628476Y-50315809D01*
X183134095Y-84383619D02*
X183181714Y-84336000D01*
X183276952Y-84288380D01*
X183515047Y-84288380D01*
X183610285Y-84336000D01*
X183657904Y-84383619D01*
X183705523Y-84478857D01*
X183705523Y-84574095D01*
X183657904Y-84716952D01*
X183086476Y-85288380D01*
X183705523Y-85288380D01*
X184086476Y-84383619D02*
X184134095Y-84336000D01*
X184229333Y-84288380D01*
X184467428Y-84288380D01*
X184562666Y-84336000D01*
X184610285Y-84383619D01*
X184657904Y-84478857D01*
X184657904Y-84574095D01*
X184610285Y-84716952D01*
X184038857Y-85288380D01*
X184657904Y-85288380D01*
X122853380Y-71056095D02*
X122853380Y-70484666D01*
X123853380Y-70770380D02*
X122853380Y-70770380D01*
X123853380Y-70151333D02*
X122853380Y-70151333D01*
X123567666Y-69818000D01*
X122853380Y-69484666D01*
X123853380Y-69484666D01*
X123805761Y-69056095D02*
X123853380Y-68913238D01*
X123853380Y-68675142D01*
X123805761Y-68579904D01*
X123758142Y-68532285D01*
X123662904Y-68484666D01*
X123567666Y-68484666D01*
X123472428Y-68532285D01*
X123424809Y-68579904D01*
X123377190Y-68675142D01*
X123329571Y-68865619D01*
X123281952Y-68960857D01*
X123234333Y-69008476D01*
X123139095Y-69056095D01*
X123043857Y-69056095D01*
X122948619Y-69008476D01*
X122901000Y-68960857D01*
X122853380Y-68865619D01*
X122853380Y-68627523D01*
X122901000Y-68484666D01*
X122853380Y-68151333D02*
X122853380Y-67484666D01*
X123853380Y-67913238D01*
X122853380Y-66913238D02*
X122853380Y-66818000D01*
X122901000Y-66722761D01*
X122948619Y-66675142D01*
X123043857Y-66627523D01*
X123234333Y-66579904D01*
X123472428Y-66579904D01*
X123662904Y-66627523D01*
X123758142Y-66675142D01*
X123805761Y-66722761D01*
X123853380Y-66818000D01*
X123853380Y-66913238D01*
X123805761Y-67008476D01*
X123758142Y-67056095D01*
X123662904Y-67103714D01*
X123472428Y-67151333D01*
X123234333Y-67151333D01*
X123043857Y-67103714D01*
X122948619Y-67056095D01*
X122901000Y-67008476D01*
X122853380Y-66913238D01*
X122853380Y-65960857D02*
X122853380Y-65865619D01*
X122901000Y-65770380D01*
X122948619Y-65722761D01*
X123043857Y-65675142D01*
X123234333Y-65627523D01*
X123472428Y-65627523D01*
X123662904Y-65675142D01*
X123758142Y-65722761D01*
X123805761Y-65770380D01*
X123853380Y-65865619D01*
X123853380Y-65960857D01*
X123805761Y-66056095D01*
X123758142Y-66103714D01*
X123662904Y-66151333D01*
X123472428Y-66198952D01*
X123234333Y-66198952D01*
X123043857Y-66151333D01*
X122948619Y-66103714D01*
X122901000Y-66056095D01*
X122853380Y-65960857D01*
X122853380Y-65008476D02*
X122853380Y-64913238D01*
X122901000Y-64818000D01*
X122948619Y-64770380D01*
X123043857Y-64722761D01*
X123234333Y-64675142D01*
X123472428Y-64675142D01*
X123662904Y-64722761D01*
X123758142Y-64770380D01*
X123805761Y-64818000D01*
X123853380Y-64913238D01*
X123853380Y-65008476D01*
X123805761Y-65103714D01*
X123758142Y-65151333D01*
X123662904Y-65198952D01*
X123472428Y-65246571D01*
X123234333Y-65246571D01*
X123043857Y-65198952D01*
X122948619Y-65151333D01*
X122901000Y-65103714D01*
X122853380Y-65008476D01*
X124796714Y-70079904D02*
X124796714Y-69698952D01*
X124463380Y-69937047D02*
X125320523Y-69937047D01*
X125415761Y-69889428D01*
X125463380Y-69794190D01*
X125463380Y-69698952D01*
X125463380Y-69222761D02*
X125415761Y-69318000D01*
X125368142Y-69365619D01*
X125272904Y-69413238D01*
X124987190Y-69413238D01*
X124891952Y-69365619D01*
X124844333Y-69318000D01*
X124796714Y-69222761D01*
X124796714Y-69079904D01*
X124844333Y-68984666D01*
X124891952Y-68937047D01*
X124987190Y-68889428D01*
X125272904Y-68889428D01*
X125368142Y-68937047D01*
X125415761Y-68984666D01*
X125463380Y-69079904D01*
X125463380Y-69222761D01*
X125463380Y-67698952D02*
X124463380Y-67698952D01*
X124463380Y-67460857D01*
X124511000Y-67318000D01*
X124606238Y-67222761D01*
X124701476Y-67175142D01*
X124891952Y-67127523D01*
X125034809Y-67127523D01*
X125225285Y-67175142D01*
X125320523Y-67222761D01*
X125415761Y-67318000D01*
X125463380Y-67460857D01*
X125463380Y-67698952D01*
X125463380Y-66698952D02*
X124463380Y-66698952D01*
X125463380Y-66222761D02*
X124463380Y-66222761D01*
X124463380Y-65841809D01*
X124511000Y-65746571D01*
X124558619Y-65698952D01*
X124653857Y-65651333D01*
X124796714Y-65651333D01*
X124891952Y-65698952D01*
X124939571Y-65746571D01*
X124987190Y-65841809D01*
X124987190Y-66222761D01*
X191785904Y-52030380D02*
X191309714Y-52030380D01*
X191262095Y-52506571D01*
X191309714Y-52458952D01*
X191404952Y-52411333D01*
X191643047Y-52411333D01*
X191738285Y-52458952D01*
X191785904Y-52506571D01*
X191833523Y-52601809D01*
X191833523Y-52839904D01*
X191785904Y-52935142D01*
X191738285Y-52982761D01*
X191643047Y-53030380D01*
X191404952Y-53030380D01*
X191309714Y-52982761D01*
X191262095Y-52935142D01*
X192452571Y-52030380D02*
X192547809Y-52030380D01*
X192643047Y-52078000D01*
X192690666Y-52125619D01*
X192738285Y-52220857D01*
X192785904Y-52411333D01*
X192785904Y-52649428D01*
X192738285Y-52839904D01*
X192690666Y-52935142D01*
X192643047Y-52982761D01*
X192547809Y-53030380D01*
X192452571Y-53030380D01*
X192357333Y-52982761D01*
X192309714Y-52935142D01*
X192262095Y-52839904D01*
X192214476Y-52649428D01*
X192214476Y-52411333D01*
X192262095Y-52220857D01*
X192309714Y-52125619D01*
X192357333Y-52078000D01*
X192452571Y-52030380D01*
X205946476Y-78192380D02*
X206565523Y-78192380D01*
X206232190Y-78573333D01*
X206375047Y-78573333D01*
X206470285Y-78620952D01*
X206517904Y-78668571D01*
X206565523Y-78763809D01*
X206565523Y-79001904D01*
X206517904Y-79097142D01*
X206470285Y-79144761D01*
X206375047Y-79192380D01*
X206089333Y-79192380D01*
X205994095Y-79144761D01*
X205946476Y-79097142D01*
X206898857Y-78192380D02*
X207517904Y-78192380D01*
X207184571Y-78573333D01*
X207327428Y-78573333D01*
X207422666Y-78620952D01*
X207470285Y-78668571D01*
X207517904Y-78763809D01*
X207517904Y-79001904D01*
X207470285Y-79097142D01*
X207422666Y-79144761D01*
X207327428Y-79192380D01*
X207041714Y-79192380D01*
X206946476Y-79144761D01*
X206898857Y-79097142D01*
X175577523Y-85288380D02*
X175006095Y-85288380D01*
X175291809Y-85288380D02*
X175291809Y-84288380D01*
X175196571Y-84431238D01*
X175101333Y-84526476D01*
X175006095Y-84574095D01*
X175910857Y-84288380D02*
X176577523Y-84288380D01*
X176148952Y-85288380D01*
X195802285Y-52363714D02*
X195802285Y-53030380D01*
X195564190Y-51982761D02*
X195326095Y-52697047D01*
X195945142Y-52697047D01*
X196468952Y-52458952D02*
X196373714Y-52411333D01*
X196326095Y-52363714D01*
X196278476Y-52268476D01*
X196278476Y-52220857D01*
X196326095Y-52125619D01*
X196373714Y-52078000D01*
X196468952Y-52030380D01*
X196659428Y-52030380D01*
X196754666Y-52078000D01*
X196802285Y-52125619D01*
X196849904Y-52220857D01*
X196849904Y-52268476D01*
X196802285Y-52363714D01*
X196754666Y-52411333D01*
X196659428Y-52458952D01*
X196468952Y-52458952D01*
X196373714Y-52506571D01*
X196326095Y-52554190D01*
X196278476Y-52649428D01*
X196278476Y-52839904D01*
X196326095Y-52935142D01*
X196373714Y-52982761D01*
X196468952Y-53030380D01*
X196659428Y-53030380D01*
X196754666Y-52982761D01*
X196802285Y-52935142D01*
X196849904Y-52839904D01*
X196849904Y-52649428D01*
X196802285Y-52554190D01*
X196754666Y-52506571D01*
X196659428Y-52458952D01*
X201930095Y-90479619D02*
X201977714Y-90432000D01*
X202072952Y-90384380D01*
X202311047Y-90384380D01*
X202406285Y-90432000D01*
X202453904Y-90479619D01*
X202501523Y-90574857D01*
X202501523Y-90670095D01*
X202453904Y-90812952D01*
X201882476Y-91384380D01*
X202501523Y-91384380D01*
X202977714Y-91384380D02*
X203168190Y-91384380D01*
X203263428Y-91336761D01*
X203311047Y-91289142D01*
X203406285Y-91146285D01*
X203453904Y-90955809D01*
X203453904Y-90574857D01*
X203406285Y-90479619D01*
X203358666Y-90432000D01*
X203263428Y-90384380D01*
X203072952Y-90384380D01*
X202977714Y-90432000D01*
X202930095Y-90479619D01*
X202882476Y-90574857D01*
X202882476Y-90812952D01*
X202930095Y-90908190D01*
X202977714Y-90955809D01*
X203072952Y-91003428D01*
X203263428Y-91003428D01*
X203358666Y-90955809D01*
X203406285Y-90908190D01*
X203453904Y-90812952D01*
X167354285Y-47807619D02*
X167401904Y-47760000D01*
X167497142Y-47712380D01*
X167735238Y-47712380D01*
X167830476Y-47760000D01*
X167878095Y-47807619D01*
X167925714Y-47902857D01*
X167925714Y-47998095D01*
X167878095Y-48140952D01*
X167306666Y-48712380D01*
X167925714Y-48712380D01*
X165417523Y-75128380D02*
X164846095Y-75128380D01*
X165131809Y-75128380D02*
X165131809Y-74128380D01*
X165036571Y-74271238D01*
X164941333Y-74366476D01*
X164846095Y-74414095D01*
X165750857Y-74128380D02*
X166369904Y-74128380D01*
X166036571Y-74509333D01*
X166179428Y-74509333D01*
X166274666Y-74556952D01*
X166322285Y-74604571D01*
X166369904Y-74699809D01*
X166369904Y-74937904D01*
X166322285Y-75033142D01*
X166274666Y-75080761D01*
X166179428Y-75128380D01*
X165893714Y-75128380D01*
X165798476Y-75080761D01*
X165750857Y-75033142D01*
X156781523Y-71064380D02*
X156210095Y-71064380D01*
X156495809Y-71064380D02*
X156495809Y-70064380D01*
X156400571Y-70207238D01*
X156305333Y-70302476D01*
X156210095Y-70350095D01*
X157733904Y-71064380D02*
X157162476Y-71064380D01*
X157448190Y-71064380D02*
X157448190Y-70064380D01*
X157352952Y-70207238D01*
X157257714Y-70302476D01*
X157162476Y-70350095D01*
X195326095Y-84383619D02*
X195373714Y-84336000D01*
X195468952Y-84288380D01*
X195707047Y-84288380D01*
X195802285Y-84336000D01*
X195849904Y-84383619D01*
X195897523Y-84478857D01*
X195897523Y-84574095D01*
X195849904Y-84716952D01*
X195278476Y-85288380D01*
X195897523Y-85288380D01*
X196468952Y-84716952D02*
X196373714Y-84669333D01*
X196326095Y-84621714D01*
X196278476Y-84526476D01*
X196278476Y-84478857D01*
X196326095Y-84383619D01*
X196373714Y-84336000D01*
X196468952Y-84288380D01*
X196659428Y-84288380D01*
X196754666Y-84336000D01*
X196802285Y-84383619D01*
X196849904Y-84478857D01*
X196849904Y-84526476D01*
X196802285Y-84621714D01*
X196754666Y-84669333D01*
X196659428Y-84716952D01*
X196468952Y-84716952D01*
X196373714Y-84764571D01*
X196326095Y-84812190D01*
X196278476Y-84907428D01*
X196278476Y-85097904D01*
X196326095Y-85193142D01*
X196373714Y-85240761D01*
X196468952Y-85288380D01*
X196659428Y-85288380D01*
X196754666Y-85240761D01*
X196802285Y-85193142D01*
X196849904Y-85097904D01*
X196849904Y-84907428D01*
X196802285Y-84812190D01*
X196754666Y-84764571D01*
X196659428Y-84716952D01*
X179593904Y-43648380D02*
X179117714Y-43648380D01*
X179070095Y-44124571D01*
X179117714Y-44076952D01*
X179212952Y-44029333D01*
X179451047Y-44029333D01*
X179546285Y-44076952D01*
X179593904Y-44124571D01*
X179641523Y-44219809D01*
X179641523Y-44457904D01*
X179593904Y-44553142D01*
X179546285Y-44600761D01*
X179451047Y-44648380D01*
X179212952Y-44648380D01*
X179117714Y-44600761D01*
X179070095Y-44553142D01*
X179974857Y-43648380D02*
X180641523Y-43648380D01*
X180212952Y-44648380D01*
X197056476Y-74128380D02*
X197675523Y-74128380D01*
X197342190Y-74509333D01*
X197485047Y-74509333D01*
X197580285Y-74556952D01*
X197627904Y-74604571D01*
X197675523Y-74699809D01*
X197675523Y-74937904D01*
X197627904Y-75033142D01*
X197580285Y-75080761D01*
X197485047Y-75128380D01*
X197199333Y-75128380D01*
X197104095Y-75080761D01*
X197056476Y-75033142D01*
X198532666Y-74461714D02*
X198532666Y-75128380D01*
X198294571Y-74080761D02*
X198056476Y-74795047D01*
X198675523Y-74795047D01*
X165417523Y-71064380D02*
X164846095Y-71064380D01*
X165131809Y-71064380D02*
X165131809Y-70064380D01*
X165036571Y-70207238D01*
X164941333Y-70302476D01*
X164846095Y-70350095D01*
X166036571Y-70064380D02*
X166131809Y-70064380D01*
X166227047Y-70112000D01*
X166274666Y-70159619D01*
X166322285Y-70254857D01*
X166369904Y-70445333D01*
X166369904Y-70683428D01*
X166322285Y-70873904D01*
X166274666Y-70969142D01*
X166227047Y-71016761D01*
X166131809Y-71064380D01*
X166036571Y-71064380D01*
X165941333Y-71016761D01*
X165893714Y-70969142D01*
X165846095Y-70873904D01*
X165798476Y-70683428D01*
X165798476Y-70445333D01*
X165846095Y-70254857D01*
X165893714Y-70159619D01*
X165941333Y-70112000D01*
X166036571Y-70064380D01*
X179593904Y-52030380D02*
X179117714Y-52030380D01*
X179070095Y-52506571D01*
X179117714Y-52458952D01*
X179212952Y-52411333D01*
X179451047Y-52411333D01*
X179546285Y-52458952D01*
X179593904Y-52506571D01*
X179641523Y-52601809D01*
X179641523Y-52839904D01*
X179593904Y-52935142D01*
X179546285Y-52982761D01*
X179451047Y-53030380D01*
X179212952Y-53030380D01*
X179117714Y-52982761D01*
X179070095Y-52935142D01*
X180498666Y-52030380D02*
X180308190Y-52030380D01*
X180212952Y-52078000D01*
X180165333Y-52125619D01*
X180070095Y-52268476D01*
X180022476Y-52458952D01*
X180022476Y-52839904D01*
X180070095Y-52935142D01*
X180117714Y-52982761D01*
X180212952Y-53030380D01*
X180403428Y-53030380D01*
X180498666Y-52982761D01*
X180546285Y-52935142D01*
X180593904Y-52839904D01*
X180593904Y-52601809D01*
X180546285Y-52506571D01*
X180498666Y-52458952D01*
X180403428Y-52411333D01*
X180212952Y-52411333D01*
X180117714Y-52458952D01*
X180070095Y-52506571D01*
X180022476Y-52601809D01*
X197580285Y-54395714D02*
X197580285Y-55062380D01*
X197342190Y-54014761D02*
X197104095Y-54729047D01*
X197723142Y-54729047D01*
X198580285Y-54062380D02*
X198104095Y-54062380D01*
X198056476Y-54538571D01*
X198104095Y-54490952D01*
X198199333Y-54443333D01*
X198437428Y-54443333D01*
X198532666Y-54490952D01*
X198580285Y-54538571D01*
X198627904Y-54633809D01*
X198627904Y-54871904D01*
X198580285Y-54967142D01*
X198532666Y-55014761D01*
X198437428Y-55062380D01*
X198199333Y-55062380D01*
X198104095Y-55014761D01*
X198056476Y-54967142D01*
X199866285Y-43981714D02*
X199866285Y-44648380D01*
X199628190Y-43600761D02*
X199390095Y-44315047D01*
X200009142Y-44315047D01*
X200294857Y-43648380D02*
X200961523Y-43648380D01*
X200532952Y-44648380D01*
X179070095Y-84383619D02*
X179117714Y-84336000D01*
X179212952Y-84288380D01*
X179451047Y-84288380D01*
X179546285Y-84336000D01*
X179593904Y-84383619D01*
X179641523Y-84478857D01*
X179641523Y-84574095D01*
X179593904Y-84716952D01*
X179022476Y-85288380D01*
X179641523Y-85288380D01*
X180260571Y-84288380D02*
X180355809Y-84288380D01*
X180451047Y-84336000D01*
X180498666Y-84383619D01*
X180546285Y-84478857D01*
X180593904Y-84669333D01*
X180593904Y-84907428D01*
X180546285Y-85097904D01*
X180498666Y-85193142D01*
X180451047Y-85240761D01*
X180355809Y-85288380D01*
X180260571Y-85288380D01*
X180165333Y-85240761D01*
X180117714Y-85193142D01*
X180070095Y-85097904D01*
X180022476Y-84907428D01*
X180022476Y-84669333D01*
X180070095Y-84478857D01*
X180117714Y-84383619D01*
X180165333Y-84336000D01*
X180260571Y-84288380D01*
X187198095Y-92765619D02*
X187245714Y-92718000D01*
X187340952Y-92670380D01*
X187579047Y-92670380D01*
X187674285Y-92718000D01*
X187721904Y-92765619D01*
X187769523Y-92860857D01*
X187769523Y-92956095D01*
X187721904Y-93098952D01*
X187150476Y-93670380D01*
X187769523Y-93670380D01*
X188102857Y-92670380D02*
X188721904Y-92670380D01*
X188388571Y-93051333D01*
X188531428Y-93051333D01*
X188626666Y-93098952D01*
X188674285Y-93146571D01*
X188721904Y-93241809D01*
X188721904Y-93479904D01*
X188674285Y-93575142D01*
X188626666Y-93622761D01*
X188531428Y-93670380D01*
X188245714Y-93670380D01*
X188150476Y-93622761D01*
X188102857Y-93575142D01*
X206216285Y-62523714D02*
X206216285Y-63190380D01*
X205978190Y-62142761D02*
X205740095Y-62857047D01*
X206359142Y-62857047D01*
X206930571Y-62190380D02*
X207025809Y-62190380D01*
X207121047Y-62238000D01*
X207168666Y-62285619D01*
X207216285Y-62380857D01*
X207263904Y-62571333D01*
X207263904Y-62809428D01*
X207216285Y-62999904D01*
X207168666Y-63095142D01*
X207121047Y-63142761D01*
X207025809Y-63190380D01*
X206930571Y-63190380D01*
X206835333Y-63142761D01*
X206787714Y-63095142D01*
X206740095Y-62999904D01*
X206692476Y-62809428D01*
X206692476Y-62571333D01*
X206740095Y-62380857D01*
X206787714Y-62285619D01*
X206835333Y-62238000D01*
X206930571Y-62190380D01*
X175529904Y-52030380D02*
X175053714Y-52030380D01*
X175006095Y-52506571D01*
X175053714Y-52458952D01*
X175148952Y-52411333D01*
X175387047Y-52411333D01*
X175482285Y-52458952D01*
X175529904Y-52506571D01*
X175577523Y-52601809D01*
X175577523Y-52839904D01*
X175529904Y-52935142D01*
X175482285Y-52982761D01*
X175387047Y-53030380D01*
X175148952Y-53030380D01*
X175053714Y-52982761D01*
X175006095Y-52935142D01*
X176148952Y-52458952D02*
X176053714Y-52411333D01*
X176006095Y-52363714D01*
X175958476Y-52268476D01*
X175958476Y-52220857D01*
X176006095Y-52125619D01*
X176053714Y-52078000D01*
X176148952Y-52030380D01*
X176339428Y-52030380D01*
X176434666Y-52078000D01*
X176482285Y-52125619D01*
X176529904Y-52220857D01*
X176529904Y-52268476D01*
X176482285Y-52363714D01*
X176434666Y-52411333D01*
X176339428Y-52458952D01*
X176148952Y-52458952D01*
X176053714Y-52506571D01*
X176006095Y-52554190D01*
X175958476Y-52649428D01*
X175958476Y-52839904D01*
X176006095Y-52935142D01*
X176053714Y-52982761D01*
X176148952Y-53030380D01*
X176339428Y-53030380D01*
X176434666Y-52982761D01*
X176482285Y-52935142D01*
X176529904Y-52839904D01*
X176529904Y-52649428D01*
X176482285Y-52554190D01*
X176434666Y-52506571D01*
X176339428Y-52458952D01*
X156892666Y-61936380D02*
X157559333Y-61936380D01*
X157130761Y-62936380D01*
X201628476Y-86320380D02*
X202247523Y-86320380D01*
X201914190Y-86701333D01*
X202057047Y-86701333D01*
X202152285Y-86748952D01*
X202199904Y-86796571D01*
X202247523Y-86891809D01*
X202247523Y-87129904D01*
X202199904Y-87225142D01*
X202152285Y-87272761D01*
X202057047Y-87320380D01*
X201771333Y-87320380D01*
X201676095Y-87272761D01*
X201628476Y-87225142D01*
X202866571Y-86320380D02*
X202961809Y-86320380D01*
X203057047Y-86368000D01*
X203104666Y-86415619D01*
X203152285Y-86510857D01*
X203199904Y-86701333D01*
X203199904Y-86939428D01*
X203152285Y-87129904D01*
X203104666Y-87225142D01*
X203057047Y-87272761D01*
X202961809Y-87320380D01*
X202866571Y-87320380D01*
X202771333Y-87272761D01*
X202723714Y-87225142D01*
X202676095Y-87129904D01*
X202628476Y-86939428D01*
X202628476Y-86701333D01*
X202676095Y-86510857D01*
X202723714Y-86415619D01*
X202771333Y-86368000D01*
X202866571Y-86320380D01*
X171418285Y-43648380D02*
X171227809Y-43648380D01*
X171132571Y-43696000D01*
X171084952Y-43743619D01*
X170989714Y-43886476D01*
X170942095Y-44076952D01*
X170942095Y-44457904D01*
X170989714Y-44553142D01*
X171037333Y-44600761D01*
X171132571Y-44648380D01*
X171323047Y-44648380D01*
X171418285Y-44600761D01*
X171465904Y-44553142D01*
X171513523Y-44457904D01*
X171513523Y-44219809D01*
X171465904Y-44124571D01*
X171418285Y-44076952D01*
X171323047Y-44029333D01*
X171132571Y-44029333D01*
X171037333Y-44076952D01*
X170989714Y-44124571D01*
X170942095Y-44219809D01*
X172132571Y-43648380D02*
X172227809Y-43648380D01*
X172323047Y-43696000D01*
X172370666Y-43743619D01*
X172418285Y-43838857D01*
X172465904Y-44029333D01*
X172465904Y-44267428D01*
X172418285Y-44457904D01*
X172370666Y-44553142D01*
X172323047Y-44600761D01*
X172227809Y-44648380D01*
X172132571Y-44648380D01*
X172037333Y-44600761D01*
X171989714Y-44553142D01*
X171942095Y-44457904D01*
X171894476Y-44267428D01*
X171894476Y-44029333D01*
X171942095Y-43838857D01*
X171989714Y-43743619D01*
X172037333Y-43696000D01*
X172132571Y-43648380D01*
X195802285Y-43981714D02*
X195802285Y-44648380D01*
X195564190Y-43600761D02*
X195326095Y-44315047D01*
X195945142Y-44315047D01*
X196373714Y-44648380D02*
X196564190Y-44648380D01*
X196659428Y-44600761D01*
X196707047Y-44553142D01*
X196802285Y-44410285D01*
X196849904Y-44219809D01*
X196849904Y-43838857D01*
X196802285Y-43743619D01*
X196754666Y-43696000D01*
X196659428Y-43648380D01*
X196468952Y-43648380D01*
X196373714Y-43696000D01*
X196326095Y-43743619D01*
X196278476Y-43838857D01*
X196278476Y-44076952D01*
X196326095Y-44172190D01*
X196373714Y-44219809D01*
X196468952Y-44267428D01*
X196659428Y-44267428D01*
X196754666Y-44219809D01*
X196802285Y-44172190D01*
X196849904Y-44076952D01*
X201628476Y-82256380D02*
X202247523Y-82256380D01*
X201914190Y-82637333D01*
X202057047Y-82637333D01*
X202152285Y-82684952D01*
X202199904Y-82732571D01*
X202247523Y-82827809D01*
X202247523Y-83065904D01*
X202199904Y-83161142D01*
X202152285Y-83208761D01*
X202057047Y-83256380D01*
X201771333Y-83256380D01*
X201676095Y-83208761D01*
X201628476Y-83161142D01*
X203199904Y-83256380D02*
X202628476Y-83256380D01*
X202914190Y-83256380D02*
X202914190Y-82256380D01*
X202818952Y-82399238D01*
X202723714Y-82494476D01*
X202628476Y-82542095D01*
X165258761Y-66428952D02*
X165163523Y-66381333D01*
X165115904Y-66333714D01*
X165068285Y-66238476D01*
X165068285Y-66190857D01*
X165115904Y-66095619D01*
X165163523Y-66048000D01*
X165258761Y-66000380D01*
X165449238Y-66000380D01*
X165544476Y-66048000D01*
X165592095Y-66095619D01*
X165639714Y-66190857D01*
X165639714Y-66238476D01*
X165592095Y-66333714D01*
X165544476Y-66381333D01*
X165449238Y-66428952D01*
X165258761Y-66428952D01*
X165163523Y-66476571D01*
X165115904Y-66524190D01*
X165068285Y-66619428D01*
X165068285Y-66809904D01*
X165115904Y-66905142D01*
X165163523Y-66952761D01*
X165258761Y-67000380D01*
X165449238Y-67000380D01*
X165544476Y-66952761D01*
X165592095Y-66905142D01*
X165639714Y-66809904D01*
X165639714Y-66619428D01*
X165592095Y-66524190D01*
X165544476Y-66476571D01*
X165449238Y-66428952D01*
X205692476Y-66000380D02*
X206311523Y-66000380D01*
X205978190Y-66381333D01*
X206121047Y-66381333D01*
X206216285Y-66428952D01*
X206263904Y-66476571D01*
X206311523Y-66571809D01*
X206311523Y-66809904D01*
X206263904Y-66905142D01*
X206216285Y-66952761D01*
X206121047Y-67000380D01*
X205835333Y-67000380D01*
X205740095Y-66952761D01*
X205692476Y-66905142D01*
X206882952Y-66428952D02*
X206787714Y-66381333D01*
X206740095Y-66333714D01*
X206692476Y-66238476D01*
X206692476Y-66190857D01*
X206740095Y-66095619D01*
X206787714Y-66048000D01*
X206882952Y-66000380D01*
X207073428Y-66000380D01*
X207168666Y-66048000D01*
X207216285Y-66095619D01*
X207263904Y-66190857D01*
X207263904Y-66238476D01*
X207216285Y-66333714D01*
X207168666Y-66381333D01*
X207073428Y-66428952D01*
X206882952Y-66428952D01*
X206787714Y-66476571D01*
X206740095Y-66524190D01*
X206692476Y-66619428D01*
X206692476Y-66809904D01*
X206740095Y-66905142D01*
X206787714Y-66952761D01*
X206882952Y-67000380D01*
X207073428Y-67000380D01*
X207168666Y-66952761D01*
X207216285Y-66905142D01*
X207263904Y-66809904D01*
X207263904Y-66619428D01*
X207216285Y-66524190D01*
X207168666Y-66476571D01*
X207073428Y-66428952D01*
X179641523Y-93670380D02*
X179070095Y-93670380D01*
X179355809Y-93670380D02*
X179355809Y-92670380D01*
X179260571Y-92813238D01*
X179165333Y-92908476D01*
X179070095Y-92956095D01*
X180117714Y-93670380D02*
X180308190Y-93670380D01*
X180403428Y-93622761D01*
X180451047Y-93575142D01*
X180546285Y-93432285D01*
X180593904Y-93241809D01*
X180593904Y-92860857D01*
X180546285Y-92765619D01*
X180498666Y-92718000D01*
X180403428Y-92670380D01*
X180212952Y-92670380D01*
X180117714Y-92718000D01*
X180070095Y-92765619D01*
X180022476Y-92860857D01*
X180022476Y-93098952D01*
X180070095Y-93194190D01*
X180117714Y-93241809D01*
X180212952Y-93289428D01*
X180403428Y-93289428D01*
X180498666Y-93241809D01*
X180546285Y-93194190D01*
X180593904Y-93098952D01*
X156527523Y-75128380D02*
X155956095Y-75128380D01*
X156241809Y-75128380D02*
X156241809Y-74128380D01*
X156146571Y-74271238D01*
X156051333Y-74366476D01*
X155956095Y-74414095D01*
X156908476Y-74223619D02*
X156956095Y-74176000D01*
X157051333Y-74128380D01*
X157289428Y-74128380D01*
X157384666Y-74176000D01*
X157432285Y-74223619D01*
X157479904Y-74318857D01*
X157479904Y-74414095D01*
X157432285Y-74556952D01*
X156860857Y-75128380D01*
X157479904Y-75128380D01*
X187198095Y-84383619D02*
X187245714Y-84336000D01*
X187340952Y-84288380D01*
X187579047Y-84288380D01*
X187674285Y-84336000D01*
X187721904Y-84383619D01*
X187769523Y-84478857D01*
X187769523Y-84574095D01*
X187721904Y-84716952D01*
X187150476Y-85288380D01*
X187769523Y-85288380D01*
X188626666Y-84621714D02*
X188626666Y-85288380D01*
X188388571Y-84240761D02*
X188150476Y-84955047D01*
X188769523Y-84955047D01*
X171259523Y-89352380D02*
X170688095Y-89352380D01*
X170973809Y-89352380D02*
X170973809Y-88352380D01*
X170878571Y-88495238D01*
X170783333Y-88590476D01*
X170688095Y-88638095D01*
X172116666Y-88352380D02*
X171926190Y-88352380D01*
X171830952Y-88400000D01*
X171783333Y-88447619D01*
X171688095Y-88590476D01*
X171640476Y-88780952D01*
X171640476Y-89161904D01*
X171688095Y-89257142D01*
X171735714Y-89304761D01*
X171830952Y-89352380D01*
X172021428Y-89352380D01*
X172116666Y-89304761D01*
X172164285Y-89257142D01*
X172211904Y-89161904D01*
X172211904Y-88923809D01*
X172164285Y-88828571D01*
X172116666Y-88780952D01*
X172021428Y-88733333D01*
X171830952Y-88733333D01*
X171735714Y-88780952D01*
X171688095Y-88828571D01*
X171640476Y-88923809D01*
X197056476Y-70064380D02*
X197675523Y-70064380D01*
X197342190Y-70445333D01*
X197485047Y-70445333D01*
X197580285Y-70492952D01*
X197627904Y-70540571D01*
X197675523Y-70635809D01*
X197675523Y-70873904D01*
X197627904Y-70969142D01*
X197580285Y-71016761D01*
X197485047Y-71064380D01*
X197199333Y-71064380D01*
X197104095Y-71016761D01*
X197056476Y-70969142D01*
X198532666Y-70064380D02*
X198342190Y-70064380D01*
X198246952Y-70112000D01*
X198199333Y-70159619D01*
X198104095Y-70302476D01*
X198056476Y-70492952D01*
X198056476Y-70873904D01*
X198104095Y-70969142D01*
X198151714Y-71016761D01*
X198246952Y-71064380D01*
X198437428Y-71064380D01*
X198532666Y-71016761D01*
X198580285Y-70969142D01*
X198627904Y-70873904D01*
X198627904Y-70635809D01*
X198580285Y-70540571D01*
X198532666Y-70492952D01*
X198437428Y-70445333D01*
X198246952Y-70445333D01*
X198151714Y-70492952D01*
X198104095Y-70540571D01*
X198056476Y-70635809D01*
X187721904Y-43648380D02*
X187245714Y-43648380D01*
X187198095Y-44124571D01*
X187245714Y-44076952D01*
X187340952Y-44029333D01*
X187579047Y-44029333D01*
X187674285Y-44076952D01*
X187721904Y-44124571D01*
X187769523Y-44219809D01*
X187769523Y-44457904D01*
X187721904Y-44553142D01*
X187674285Y-44600761D01*
X187579047Y-44648380D01*
X187340952Y-44648380D01*
X187245714Y-44600761D01*
X187198095Y-44553142D01*
X188102857Y-43648380D02*
X188721904Y-43648380D01*
X188388571Y-44029333D01*
X188531428Y-44029333D01*
X188626666Y-44076952D01*
X188674285Y-44124571D01*
X188721904Y-44219809D01*
X188721904Y-44457904D01*
X188674285Y-44553142D01*
X188626666Y-44600761D01*
X188531428Y-44648380D01*
X188245714Y-44648380D01*
X188150476Y-44600761D01*
X188102857Y-44553142D01*
X122205714Y-48966380D02*
X121634285Y-48966380D01*
X121920000Y-48966380D02*
X121920000Y-47966380D01*
X121824761Y-48109238D01*
X121729523Y-48204476D01*
X121634285Y-48252095D01*
X157464095Y-57872380D02*
X156987904Y-57872380D01*
X156940285Y-58348571D01*
X156987904Y-58300952D01*
X157083142Y-58253333D01*
X157321238Y-58253333D01*
X157416476Y-58300952D01*
X157464095Y-58348571D01*
X157511714Y-58443809D01*
X157511714Y-58681904D01*
X157464095Y-58777142D01*
X157416476Y-58824761D01*
X157321238Y-58872380D01*
X157083142Y-58872380D01*
X156987904Y-58824761D01*
X156940285Y-58777142D01*
X206216285Y-58459714D02*
X206216285Y-59126380D01*
X205978190Y-58078761D02*
X205740095Y-58793047D01*
X206359142Y-58793047D01*
X206692476Y-58221619D02*
X206740095Y-58174000D01*
X206835333Y-58126380D01*
X207073428Y-58126380D01*
X207168666Y-58174000D01*
X207216285Y-58221619D01*
X207263904Y-58316857D01*
X207263904Y-58412095D01*
X207216285Y-58554952D01*
X206644857Y-59126380D01*
X207263904Y-59126380D01*
X197056476Y-77938380D02*
X197675523Y-77938380D01*
X197342190Y-78319333D01*
X197485047Y-78319333D01*
X197580285Y-78366952D01*
X197627904Y-78414571D01*
X197675523Y-78509809D01*
X197675523Y-78747904D01*
X197627904Y-78843142D01*
X197580285Y-78890761D01*
X197485047Y-78938380D01*
X197199333Y-78938380D01*
X197104095Y-78890761D01*
X197056476Y-78843142D01*
X198056476Y-78033619D02*
X198104095Y-77986000D01*
X198199333Y-77938380D01*
X198437428Y-77938380D01*
X198532666Y-77986000D01*
X198580285Y-78033619D01*
X198627904Y-78128857D01*
X198627904Y-78224095D01*
X198580285Y-78366952D01*
X198008857Y-78938380D01*
X198627904Y-78938380D01*
X175529904Y-43648380D02*
X175053714Y-43648380D01*
X175006095Y-44124571D01*
X175053714Y-44076952D01*
X175148952Y-44029333D01*
X175387047Y-44029333D01*
X175482285Y-44076952D01*
X175529904Y-44124571D01*
X175577523Y-44219809D01*
X175577523Y-44457904D01*
X175529904Y-44553142D01*
X175482285Y-44600761D01*
X175387047Y-44648380D01*
X175148952Y-44648380D01*
X175053714Y-44600761D01*
X175006095Y-44553142D01*
X176053714Y-44648380D02*
X176244190Y-44648380D01*
X176339428Y-44600761D01*
X176387047Y-44553142D01*
X176482285Y-44410285D01*
X176529904Y-44219809D01*
X176529904Y-43838857D01*
X176482285Y-43743619D01*
X176434666Y-43696000D01*
X176339428Y-43648380D01*
X176148952Y-43648380D01*
X176053714Y-43696000D01*
X176006095Y-43743619D01*
X175958476Y-43838857D01*
X175958476Y-44076952D01*
X176006095Y-44172190D01*
X176053714Y-44219809D01*
X176148952Y-44267428D01*
X176339428Y-44267428D01*
X176434666Y-44219809D01*
X176482285Y-44172190D01*
X176529904Y-44076952D01*
X165417523Y-79192380D02*
X164846095Y-79192380D01*
X165131809Y-79192380D02*
X165131809Y-78192380D01*
X165036571Y-78335238D01*
X164941333Y-78430476D01*
X164846095Y-78478095D01*
X166322285Y-78192380D02*
X165846095Y-78192380D01*
X165798476Y-78668571D01*
X165846095Y-78620952D01*
X165941333Y-78573333D01*
X166179428Y-78573333D01*
X166274666Y-78620952D01*
X166322285Y-78668571D01*
X166369904Y-78763809D01*
X166369904Y-79001904D01*
X166322285Y-79097142D01*
X166274666Y-79144761D01*
X166179428Y-79192380D01*
X165941333Y-79192380D01*
X165846095Y-79144761D01*
X165798476Y-79097142D01*
X183657904Y-43648380D02*
X183181714Y-43648380D01*
X183134095Y-44124571D01*
X183181714Y-44076952D01*
X183276952Y-44029333D01*
X183515047Y-44029333D01*
X183610285Y-44076952D01*
X183657904Y-44124571D01*
X183705523Y-44219809D01*
X183705523Y-44457904D01*
X183657904Y-44553142D01*
X183610285Y-44600761D01*
X183515047Y-44648380D01*
X183276952Y-44648380D01*
X183181714Y-44600761D01*
X183134095Y-44553142D01*
X184610285Y-43648380D02*
X184134095Y-43648380D01*
X184086476Y-44124571D01*
X184134095Y-44076952D01*
X184229333Y-44029333D01*
X184467428Y-44029333D01*
X184562666Y-44076952D01*
X184610285Y-44124571D01*
X184657904Y-44219809D01*
X184657904Y-44457904D01*
X184610285Y-44553142D01*
X184562666Y-44600761D01*
X184467428Y-44648380D01*
X184229333Y-44648380D01*
X184134095Y-44600761D01*
X184086476Y-44553142D01*
X165544476Y-58205714D02*
X165544476Y-58872380D01*
X165306380Y-57824761D02*
X165068285Y-58539047D01*
X165687333Y-58539047D01*
X171989714Y-53030380D02*
X171418285Y-53030380D01*
X171704000Y-53030380D02*
X171704000Y-52030380D01*
X171608761Y-52173238D01*
X171513523Y-52268476D01*
X171418285Y-52316095D01*
X206216285Y-54141714D02*
X206216285Y-54808380D01*
X205978190Y-53760761D02*
X205740095Y-54475047D01*
X206359142Y-54475047D01*
X207168666Y-54141714D02*
X207168666Y-54808380D01*
X206930571Y-53760761D02*
X206692476Y-54475047D01*
X207311523Y-54475047D01*
X195326095Y-92765619D02*
X195373714Y-92718000D01*
X195468952Y-92670380D01*
X195707047Y-92670380D01*
X195802285Y-92718000D01*
X195849904Y-92765619D01*
X195897523Y-92860857D01*
X195897523Y-92956095D01*
X195849904Y-93098952D01*
X195278476Y-93670380D01*
X195897523Y-93670380D01*
X196230857Y-92670380D02*
X196897523Y-92670380D01*
X196468952Y-93670380D01*
X197580285Y-62269714D02*
X197580285Y-62936380D01*
X197342190Y-61888761D02*
X197104095Y-62603047D01*
X197723142Y-62603047D01*
X198627904Y-62936380D02*
X198056476Y-62936380D01*
X198342190Y-62936380D02*
X198342190Y-61936380D01*
X198246952Y-62079238D01*
X198151714Y-62174476D01*
X198056476Y-62222095D01*
X175577523Y-93670380D02*
X175006095Y-93670380D01*
X175291809Y-93670380D02*
X175291809Y-92670380D01*
X175196571Y-92813238D01*
X175101333Y-92908476D01*
X175006095Y-92956095D01*
X176148952Y-93098952D02*
X176053714Y-93051333D01*
X176006095Y-93003714D01*
X175958476Y-92908476D01*
X175958476Y-92860857D01*
X176006095Y-92765619D01*
X176053714Y-92718000D01*
X176148952Y-92670380D01*
X176339428Y-92670380D01*
X176434666Y-92718000D01*
X176482285Y-92765619D01*
X176529904Y-92860857D01*
X176529904Y-92908476D01*
X176482285Y-93003714D01*
X176434666Y-93051333D01*
X176339428Y-93098952D01*
X176148952Y-93098952D01*
X176053714Y-93146571D01*
X176006095Y-93194190D01*
X175958476Y-93289428D01*
X175958476Y-93479904D01*
X176006095Y-93575142D01*
X176053714Y-93622761D01*
X176148952Y-93670380D01*
X176339428Y-93670380D01*
X176434666Y-93622761D01*
X176482285Y-93575142D01*
X176529904Y-93479904D01*
X176529904Y-93289428D01*
X176482285Y-93194190D01*
X176434666Y-93146571D01*
X176339428Y-93098952D01*
X197056476Y-66000380D02*
X197675523Y-66000380D01*
X197342190Y-66381333D01*
X197485047Y-66381333D01*
X197580285Y-66428952D01*
X197627904Y-66476571D01*
X197675523Y-66571809D01*
X197675523Y-66809904D01*
X197627904Y-66905142D01*
X197580285Y-66952761D01*
X197485047Y-67000380D01*
X197199333Y-67000380D01*
X197104095Y-66952761D01*
X197056476Y-66905142D01*
X198151714Y-67000380D02*
X198342190Y-67000380D01*
X198437428Y-66952761D01*
X198485047Y-66905142D01*
X198580285Y-66762285D01*
X198627904Y-66571809D01*
X198627904Y-66190857D01*
X198580285Y-66095619D01*
X198532666Y-66048000D01*
X198437428Y-66000380D01*
X198246952Y-66000380D01*
X198151714Y-66048000D01*
X198104095Y-66095619D01*
X198056476Y-66190857D01*
X198056476Y-66428952D01*
X198104095Y-66524190D01*
X198151714Y-66571809D01*
X198246952Y-66619428D01*
X198437428Y-66619428D01*
X198532666Y-66571809D01*
X198580285Y-66524190D01*
X198627904Y-66428952D01*
X191262095Y-92765619D02*
X191309714Y-92718000D01*
X191404952Y-92670380D01*
X191643047Y-92670380D01*
X191738285Y-92718000D01*
X191785904Y-92765619D01*
X191833523Y-92860857D01*
X191833523Y-92956095D01*
X191785904Y-93098952D01*
X191214476Y-93670380D01*
X191833523Y-93670380D01*
X192738285Y-92670380D02*
X192262095Y-92670380D01*
X192214476Y-93146571D01*
X192262095Y-93098952D01*
X192357333Y-93051333D01*
X192595428Y-93051333D01*
X192690666Y-93098952D01*
X192738285Y-93146571D01*
X192785904Y-93241809D01*
X192785904Y-93479904D01*
X192738285Y-93575142D01*
X192690666Y-93622761D01*
X192595428Y-93670380D01*
X192357333Y-93670380D01*
X192262095Y-93622761D01*
X192214476Y-93575142D01*
X156781523Y-78938380D02*
X156210095Y-78938380D01*
X156495809Y-78938380D02*
X156495809Y-77938380D01*
X156400571Y-78081238D01*
X156305333Y-78176476D01*
X156210095Y-78224095D01*
X157638666Y-78271714D02*
X157638666Y-78938380D01*
X157400571Y-77890761D02*
X157162476Y-78605047D01*
X157781523Y-78605047D01*
X187721904Y-52030380D02*
X187245714Y-52030380D01*
X187198095Y-52506571D01*
X187245714Y-52458952D01*
X187340952Y-52411333D01*
X187579047Y-52411333D01*
X187674285Y-52458952D01*
X187721904Y-52506571D01*
X187769523Y-52601809D01*
X187769523Y-52839904D01*
X187721904Y-52935142D01*
X187674285Y-52982761D01*
X187579047Y-53030380D01*
X187340952Y-53030380D01*
X187245714Y-52982761D01*
X187198095Y-52935142D01*
X188150476Y-52125619D02*
X188198095Y-52078000D01*
X188293333Y-52030380D01*
X188531428Y-52030380D01*
X188626666Y-52078000D01*
X188674285Y-52125619D01*
X188721904Y-52220857D01*
X188721904Y-52316095D01*
X188674285Y-52458952D01*
X188102857Y-53030380D01*
X188721904Y-53030380D01*
X165290476Y-61936380D02*
X165100000Y-61936380D01*
X165004761Y-61984000D01*
X164957142Y-62031619D01*
X164861904Y-62174476D01*
X164814285Y-62364952D01*
X164814285Y-62745904D01*
X164861904Y-62841142D01*
X164909523Y-62888761D01*
X165004761Y-62936380D01*
X165195238Y-62936380D01*
X165290476Y-62888761D01*
X165338095Y-62841142D01*
X165385714Y-62745904D01*
X165385714Y-62507809D01*
X165338095Y-62412571D01*
X165290476Y-62364952D01*
X165195238Y-62317333D01*
X165004761Y-62317333D01*
X164909523Y-62364952D01*
X164861904Y-62412571D01*
X164814285Y-62507809D01*
X191785904Y-43648380D02*
X191309714Y-43648380D01*
X191262095Y-44124571D01*
X191309714Y-44076952D01*
X191404952Y-44029333D01*
X191643047Y-44029333D01*
X191738285Y-44076952D01*
X191785904Y-44124571D01*
X191833523Y-44219809D01*
X191833523Y-44457904D01*
X191785904Y-44553142D01*
X191738285Y-44600761D01*
X191643047Y-44648380D01*
X191404952Y-44648380D01*
X191309714Y-44600761D01*
X191262095Y-44553142D01*
X192785904Y-44648380D02*
X192214476Y-44648380D01*
X192500190Y-44648380D02*
X192500190Y-43648380D01*
X192404952Y-43791238D01*
X192309714Y-43886476D01*
X192214476Y-43934095D01*
X131060619Y-76349904D02*
X131013000Y-76445142D01*
X130917761Y-76540380D01*
X130774904Y-76683238D01*
X130727285Y-76778476D01*
X130727285Y-76873714D01*
X130965380Y-76826095D02*
X130917761Y-76921333D01*
X130822523Y-77016571D01*
X130632047Y-77064190D01*
X130298714Y-77064190D01*
X130108238Y-77016571D01*
X130013000Y-76921333D01*
X129965380Y-76826095D01*
X129965380Y-76635619D01*
X130013000Y-76540380D01*
X130108238Y-76445142D01*
X130298714Y-76397523D01*
X130632047Y-76397523D01*
X130822523Y-76445142D01*
X130917761Y-76540380D01*
X130965380Y-76635619D01*
X130965380Y-76826095D01*
X130441571Y-75635619D02*
X130441571Y-75968952D01*
X130965380Y-75968952D02*
X129965380Y-75968952D01*
X129965380Y-75492761D01*
X130965380Y-75111809D02*
X129965380Y-75111809D01*
X129965380Y-74730857D01*
X130013000Y-74635619D01*
X130060619Y-74588000D01*
X130155857Y-74540380D01*
X130298714Y-74540380D01*
X130393952Y-74588000D01*
X130441571Y-74635619D01*
X130489190Y-74730857D01*
X130489190Y-75111809D01*
X130584428Y-74111809D02*
X130584428Y-73349904D01*
X129965380Y-72445142D02*
X129965380Y-72635619D01*
X130013000Y-72730857D01*
X130060619Y-72778476D01*
X130203476Y-72873714D01*
X130393952Y-72921333D01*
X130774904Y-72921333D01*
X130870142Y-72873714D01*
X130917761Y-72826095D01*
X130965380Y-72730857D01*
X130965380Y-72540380D01*
X130917761Y-72445142D01*
X130870142Y-72397523D01*
X130774904Y-72349904D01*
X130536809Y-72349904D01*
X130441571Y-72397523D01*
X130393952Y-72445142D01*
X130346333Y-72540380D01*
X130346333Y-72730857D01*
X130393952Y-72826095D01*
X130441571Y-72873714D01*
X130536809Y-72921333D01*
X129965380Y-71730857D02*
X129965380Y-71635619D01*
X130013000Y-71540380D01*
X130060619Y-71492761D01*
X130155857Y-71445142D01*
X130346333Y-71397523D01*
X130584428Y-71397523D01*
X130774904Y-71445142D01*
X130870142Y-71492761D01*
X130917761Y-71540380D01*
X130965380Y-71635619D01*
X130965380Y-71730857D01*
X130917761Y-71826095D01*
X130870142Y-71873714D01*
X130774904Y-71921333D01*
X130584428Y-71968952D01*
X130346333Y-71968952D01*
X130155857Y-71921333D01*
X130060619Y-71873714D01*
X130013000Y-71826095D01*
X129965380Y-71730857D01*
X129965380Y-70016571D02*
X129965380Y-69921333D01*
X130013000Y-69826095D01*
X130060619Y-69778476D01*
X130155857Y-69730857D01*
X130346333Y-69683238D01*
X130584428Y-69683238D01*
X130774904Y-69730857D01*
X130870142Y-69778476D01*
X130917761Y-69826095D01*
X130965380Y-69921333D01*
X130965380Y-70016571D01*
X130917761Y-70111809D01*
X130870142Y-70159428D01*
X130774904Y-70207047D01*
X130584428Y-70254666D01*
X130346333Y-70254666D01*
X130155857Y-70207047D01*
X130060619Y-70159428D01*
X130013000Y-70111809D01*
X129965380Y-70016571D01*
X130870142Y-69254666D02*
X130917761Y-69207047D01*
X130965380Y-69254666D01*
X130917761Y-69302285D01*
X130870142Y-69254666D01*
X130965380Y-69254666D01*
X130393952Y-68635619D02*
X130346333Y-68730857D01*
X130298714Y-68778476D01*
X130203476Y-68826095D01*
X130155857Y-68826095D01*
X130060619Y-68778476D01*
X130013000Y-68730857D01*
X129965380Y-68635619D01*
X129965380Y-68445142D01*
X130013000Y-68349904D01*
X130060619Y-68302285D01*
X130155857Y-68254666D01*
X130203476Y-68254666D01*
X130298714Y-68302285D01*
X130346333Y-68349904D01*
X130393952Y-68445142D01*
X130393952Y-68635619D01*
X130441571Y-68730857D01*
X130489190Y-68778476D01*
X130584428Y-68826095D01*
X130774904Y-68826095D01*
X130870142Y-68778476D01*
X130917761Y-68730857D01*
X130965380Y-68635619D01*
X130965380Y-68445142D01*
X130917761Y-68349904D01*
X130870142Y-68302285D01*
X130774904Y-68254666D01*
X130584428Y-68254666D01*
X130489190Y-68302285D01*
X130441571Y-68349904D01*
X130393952Y-68445142D01*
X130965380Y-67826095D02*
X130298714Y-67826095D01*
X130393952Y-67826095D02*
X130346333Y-67778476D01*
X130298714Y-67683238D01*
X130298714Y-67540380D01*
X130346333Y-67445142D01*
X130441571Y-67397523D01*
X130965380Y-67397523D01*
X130441571Y-67397523D02*
X130346333Y-67349904D01*
X130298714Y-67254666D01*
X130298714Y-67111809D01*
X130346333Y-67016571D01*
X130441571Y-66968952D01*
X130965380Y-66968952D01*
X130965380Y-66492761D02*
X130298714Y-66492761D01*
X130393952Y-66492761D02*
X130346333Y-66445142D01*
X130298714Y-66349904D01*
X130298714Y-66207047D01*
X130346333Y-66111809D01*
X130441571Y-66064190D01*
X130965380Y-66064190D01*
X130441571Y-66064190D02*
X130346333Y-66016571D01*
X130298714Y-65921333D01*
X130298714Y-65778476D01*
X130346333Y-65683238D01*
X130441571Y-65635619D01*
X130965380Y-65635619D01*
X130298714Y-64397523D02*
X131298714Y-64397523D01*
X130346333Y-64397523D02*
X130298714Y-64302285D01*
X130298714Y-64111809D01*
X130346333Y-64016571D01*
X130393952Y-63968952D01*
X130489190Y-63921333D01*
X130774904Y-63921333D01*
X130870142Y-63968952D01*
X130917761Y-64016571D01*
X130965380Y-64111809D01*
X130965380Y-64302285D01*
X130917761Y-64397523D01*
X130965380Y-63492761D02*
X130298714Y-63492761D01*
X129965380Y-63492761D02*
X130013000Y-63540380D01*
X130060619Y-63492761D01*
X130013000Y-63445142D01*
X129965380Y-63492761D01*
X130060619Y-63492761D01*
X130298714Y-63159428D02*
X130298714Y-62778476D01*
X129965380Y-63016571D02*
X130822523Y-63016571D01*
X130917761Y-62968952D01*
X130965380Y-62873714D01*
X130965380Y-62778476D01*
X130917761Y-62016571D02*
X130965380Y-62111809D01*
X130965380Y-62302285D01*
X130917761Y-62397523D01*
X130870142Y-62445142D01*
X130774904Y-62492761D01*
X130489190Y-62492761D01*
X130393952Y-62445142D01*
X130346333Y-62397523D01*
X130298714Y-62302285D01*
X130298714Y-62111809D01*
X130346333Y-62016571D01*
X130965380Y-61588000D02*
X129965380Y-61588000D01*
X130965380Y-61159428D02*
X130441571Y-61159428D01*
X130346333Y-61207047D01*
X130298714Y-61302285D01*
X130298714Y-61445142D01*
X130346333Y-61540380D01*
X130393952Y-61588000D01*
X132575380Y-71183238D02*
X132527761Y-71278476D01*
X132480142Y-71326095D01*
X132384904Y-71373714D01*
X132099190Y-71373714D01*
X132003952Y-71326095D01*
X131956333Y-71278476D01*
X131908714Y-71183238D01*
X131908714Y-71040380D01*
X131956333Y-70945142D01*
X132003952Y-70897523D01*
X132099190Y-70849904D01*
X132384904Y-70849904D01*
X132480142Y-70897523D01*
X132527761Y-70945142D01*
X132575380Y-71040380D01*
X132575380Y-71183238D01*
X131908714Y-70421333D02*
X132575380Y-70421333D01*
X132003952Y-70421333D02*
X131956333Y-70373714D01*
X131908714Y-70278476D01*
X131908714Y-70135619D01*
X131956333Y-70040380D01*
X132051571Y-69992761D01*
X132575380Y-69992761D01*
X131908714Y-68897523D02*
X131908714Y-68516571D01*
X131575380Y-68754666D02*
X132432523Y-68754666D01*
X132527761Y-68707047D01*
X132575380Y-68611809D01*
X132575380Y-68516571D01*
X132575380Y-68040380D02*
X132527761Y-68135619D01*
X132480142Y-68183238D01*
X132384904Y-68230857D01*
X132099190Y-68230857D01*
X132003952Y-68183238D01*
X131956333Y-68135619D01*
X131908714Y-68040380D01*
X131908714Y-67897523D01*
X131956333Y-67802285D01*
X132003952Y-67754666D01*
X132099190Y-67707047D01*
X132384904Y-67707047D01*
X132480142Y-67754666D01*
X132527761Y-67802285D01*
X132575380Y-67897523D01*
X132575380Y-68040380D01*
X131908714Y-67278476D02*
X132908714Y-67278476D01*
X131956333Y-67278476D02*
X131908714Y-67183238D01*
X131908714Y-66992761D01*
X131956333Y-66897523D01*
X132003952Y-66849904D01*
X132099190Y-66802285D01*
X132384904Y-66802285D01*
X132480142Y-66849904D01*
X132527761Y-66897523D01*
X132575380Y-66992761D01*
X132575380Y-67183238D01*
X132527761Y-67278476D01*
X157035523Y-67000380D02*
X157226000Y-67000380D01*
X157321238Y-66952761D01*
X157368857Y-66905142D01*
X157464095Y-66762285D01*
X157511714Y-66571809D01*
X157511714Y-66190857D01*
X157464095Y-66095619D01*
X157416476Y-66048000D01*
X157321238Y-66000380D01*
X157130761Y-66000380D01*
X157035523Y-66048000D01*
X156987904Y-66095619D01*
X156940285Y-66190857D01*
X156940285Y-66428952D01*
X156987904Y-66524190D01*
X157035523Y-66571809D01*
X157130761Y-66619428D01*
X157321238Y-66619428D01*
X157416476Y-66571809D01*
X157464095Y-66524190D01*
X157511714Y-66428952D01*
X165020666Y-53808380D02*
X165639714Y-53808380D01*
X165306380Y-54189333D01*
X165449238Y-54189333D01*
X165544476Y-54236952D01*
X165592095Y-54284571D01*
X165639714Y-54379809D01*
X165639714Y-54617904D01*
X165592095Y-54713142D01*
X165544476Y-54760761D01*
X165449238Y-54808380D01*
X165163523Y-54808380D01*
X165068285Y-54760761D01*
X165020666Y-54713142D01*
X197580285Y-58205714D02*
X197580285Y-58872380D01*
X197342190Y-57824761D02*
X197104095Y-58539047D01*
X197723142Y-58539047D01*
X198008857Y-57872380D02*
X198627904Y-57872380D01*
X198294571Y-58253333D01*
X198437428Y-58253333D01*
X198532666Y-58300952D01*
X198580285Y-58348571D01*
X198627904Y-58443809D01*
X198627904Y-58681904D01*
X198580285Y-58777142D01*
X198532666Y-58824761D01*
X198437428Y-58872380D01*
X198151714Y-58872380D01*
X198056476Y-58824761D01*
X198008857Y-58777142D01*
X146805904Y-86526666D02*
X147282095Y-86526666D01*
X146710666Y-86812380D02*
X147044000Y-85812380D01*
X147377333Y-86812380D01*
X130849714Y-56046571D02*
X131516380Y-56046571D01*
X130468761Y-56284666D02*
X131183047Y-56522761D01*
X131183047Y-55903714D01*
X131421142Y-55522761D02*
X131468761Y-55475142D01*
X131516380Y-55522761D01*
X131468761Y-55570380D01*
X131421142Y-55522761D01*
X131516380Y-55522761D01*
X130516380Y-55141809D02*
X130516380Y-54475142D01*
X131516380Y-54903714D01*
X131516380Y-54094190D02*
X130516380Y-54094190D01*
X131135428Y-53998952D02*
X131516380Y-53713238D01*
X130849714Y-53713238D02*
X131230666Y-54094190D01*
X137747714Y-50966666D02*
X138223905Y-50966666D01*
X137652476Y-51252380D02*
X137985810Y-50252380D01*
X138319143Y-51252380D01*
X127039714Y-56808571D02*
X127706380Y-56808571D01*
X126658761Y-57046666D02*
X127373047Y-57284761D01*
X127373047Y-56665714D01*
X127611142Y-56284761D02*
X127658761Y-56237142D01*
X127706380Y-56284761D01*
X127658761Y-56332380D01*
X127611142Y-56284761D01*
X127706380Y-56284761D01*
X126706380Y-55903809D02*
X126706380Y-55237142D01*
X127706380Y-55665714D01*
X127706380Y-54856190D02*
X126706380Y-54856190D01*
X127325428Y-54760952D02*
X127706380Y-54475238D01*
X127039714Y-54475238D02*
X127420666Y-54856190D01*
X137747714Y-53506666D02*
X138223905Y-53506666D01*
X137652476Y-53792380D02*
X137985810Y-52792380D01*
X138319143Y-53792380D01*
X137747714Y-48426666D02*
X138223905Y-48426666D01*
X137652476Y-48712380D02*
X137985810Y-47712380D01*
X138319143Y-48712380D01*
D11*
X201482000Y-55626000D02*
X201482000Y-55686000D01*
X198822000Y-55626000D02*
X198822000Y-55686000D01*
X198822000Y-55686000D02*
X201482000Y-55686000D01*
X198822000Y-53026000D02*
X200152000Y-53026000D01*
X198822000Y-54356000D02*
X198822000Y-53026000D01*
X198822000Y-55626000D02*
X201482000Y-55626000D01*
X178502000Y-48962000D02*
X179832000Y-48962000D01*
X178502000Y-50292000D02*
X178502000Y-48962000D01*
X181162000Y-51562000D02*
X181162000Y-51622000D01*
X178502000Y-51622000D02*
X181162000Y-51622000D01*
X178502000Y-51562000D02*
X178502000Y-51622000D01*
X178502000Y-51562000D02*
X181162000Y-51562000D01*
X174438000Y-44898000D02*
X175768000Y-44898000D01*
X174438000Y-46228000D02*
X174438000Y-44898000D01*
X174438000Y-47498000D02*
X177098000Y-47498000D01*
X174438000Y-47558000D02*
X177098000Y-47558000D01*
X177098000Y-47498000D02*
X177098000Y-47558000D01*
X174438000Y-47498000D02*
X174438000Y-47558000D01*
X189290000Y-92202000D02*
X189290000Y-92262000D01*
X186630000Y-92202000D02*
X189290000Y-92202000D01*
X186630000Y-90932000D02*
X186630000Y-89602000D01*
X186630000Y-92202000D02*
X186630000Y-92262000D01*
X186630000Y-89602000D02*
X187960000Y-89602000D01*
X186630000Y-92262000D02*
X189290000Y-92262000D01*
X182566000Y-85538000D02*
X183896000Y-85538000D01*
X182566000Y-86868000D02*
X182566000Y-85538000D01*
X182566000Y-88198000D02*
X185226000Y-88198000D01*
X185226000Y-88138000D02*
X185226000Y-88198000D01*
X182566000Y-88138000D02*
X185226000Y-88138000D01*
X182566000Y-88138000D02*
X182566000Y-88198000D01*
X205546000Y-75946000D02*
X205546000Y-76006000D01*
X202886000Y-75946000D02*
X205546000Y-75946000D01*
X202886000Y-75946000D02*
X202886000Y-76006000D01*
X202886000Y-76006000D02*
X205546000Y-76006000D01*
X202886000Y-73346000D02*
X204216000Y-73346000D01*
X202886000Y-74676000D02*
X202886000Y-73346000D01*
X150057629Y-86360000D02*
X149944000Y-86360000D01*
X152710371Y-86360000D02*
G75*
G03*
X152710371Y-86360000I-1326371J0D01*
G01*
X157928000Y-80070000D02*
X160588000Y-80070000D01*
X157928000Y-78740000D02*
X157928000Y-77410000D01*
X157928000Y-77410000D02*
X159258000Y-77410000D01*
X157928000Y-80010000D02*
X160588000Y-80010000D01*
X160588000Y-80010000D02*
X160588000Y-80070000D01*
X157928000Y-80010000D02*
X157928000Y-80070000D01*
X197418000Y-51562000D02*
X197418000Y-51622000D01*
X194758000Y-48962000D02*
X196088000Y-48962000D01*
X194758000Y-50292000D02*
X194758000Y-48962000D01*
X194758000Y-51562000D02*
X197418000Y-51562000D01*
X194758000Y-51562000D02*
X194758000Y-51622000D01*
X194758000Y-51622000D02*
X197418000Y-51622000D01*
X131064000Y-50475000D02*
X131064000Y-50405000D01*
X132434000Y-51845000D02*
G75*
G03*
X132434000Y-51845000I-1370000J0D01*
G01*
X161992000Y-75946000D02*
X161992000Y-76006000D01*
X161992000Y-76006000D02*
X164652000Y-76006000D01*
X161992000Y-73346000D02*
X163322000Y-73346000D01*
X161992000Y-74676000D02*
X161992000Y-73346000D01*
X164652000Y-75946000D02*
X164652000Y-76006000D01*
X161992000Y-75946000D02*
X164652000Y-75946000D01*
X186630000Y-50292000D02*
X186630000Y-48962000D01*
X186630000Y-48962000D02*
X187960000Y-48962000D01*
X186630000Y-51562000D02*
X189290000Y-51562000D01*
X189290000Y-51562000D02*
X189290000Y-51622000D01*
X186630000Y-51562000D02*
X186630000Y-51622000D01*
X186630000Y-51622000D02*
X189290000Y-51622000D01*
X198822000Y-84074000D02*
X201482000Y-84074000D01*
X198822000Y-81474000D02*
X200152000Y-81474000D01*
X198822000Y-82804000D02*
X198822000Y-81474000D01*
X198822000Y-84134000D02*
X201482000Y-84134000D01*
X198822000Y-84074000D02*
X198822000Y-84134000D01*
X201482000Y-84074000D02*
X201482000Y-84134000D01*
X198822000Y-71942000D02*
X201482000Y-71942000D01*
X198822000Y-69282000D02*
X200152000Y-69282000D01*
X201482000Y-71882000D02*
X201482000Y-71942000D01*
X198822000Y-71882000D02*
X198822000Y-71942000D01*
X198822000Y-70612000D02*
X198822000Y-69282000D01*
X198822000Y-71882000D02*
X201482000Y-71882000D01*
X202886000Y-59690000D02*
X205546000Y-59690000D01*
X202886000Y-58420000D02*
X202886000Y-57090000D01*
X202886000Y-59750000D02*
X205546000Y-59750000D01*
X202886000Y-57090000D02*
X204216000Y-57090000D01*
X202886000Y-59690000D02*
X202886000Y-59750000D01*
X205546000Y-59690000D02*
X205546000Y-59750000D01*
X194758000Y-47498000D02*
X197418000Y-47498000D01*
X194758000Y-46228000D02*
X194758000Y-44898000D01*
X194758000Y-47558000D02*
X197418000Y-47558000D01*
X194758000Y-44898000D02*
X196088000Y-44898000D01*
X194758000Y-47498000D02*
X194758000Y-47558000D01*
X197418000Y-47498000D02*
X197418000Y-47558000D01*
X161992000Y-67818000D02*
X161992000Y-67878000D01*
X161992000Y-67818000D02*
X164652000Y-67818000D01*
X161992000Y-65218000D02*
X163322000Y-65218000D01*
X164652000Y-67818000D02*
X164652000Y-67878000D01*
X161992000Y-66548000D02*
X161992000Y-65218000D01*
X161992000Y-67878000D02*
X164652000Y-67878000D01*
X161992000Y-80070000D02*
X164652000Y-80070000D01*
X161992000Y-77410000D02*
X163322000Y-77410000D01*
X164652000Y-80010000D02*
X164652000Y-80070000D01*
X161992000Y-78740000D02*
X161992000Y-77410000D01*
X161992000Y-80010000D02*
X161992000Y-80070000D01*
X161992000Y-80010000D02*
X164652000Y-80010000D01*
X170374000Y-51562000D02*
X170374000Y-51622000D01*
X170374000Y-51622000D02*
X173034000Y-51622000D01*
X170374000Y-50292000D02*
X170374000Y-48962000D01*
X170374000Y-51562000D02*
X173034000Y-51562000D01*
X173034000Y-51562000D02*
X173034000Y-51622000D01*
X170374000Y-48962000D02*
X171704000Y-48962000D01*
X185226000Y-47498000D02*
X185226000Y-47558000D01*
X182566000Y-46228000D02*
X182566000Y-44898000D01*
X182566000Y-47498000D02*
X182566000Y-47558000D01*
X182566000Y-47558000D02*
X185226000Y-47558000D01*
X182566000Y-47498000D02*
X185226000Y-47498000D01*
X182566000Y-44898000D02*
X183896000Y-44898000D01*
X178502000Y-90932000D02*
X178502000Y-89602000D01*
X178502000Y-92202000D02*
X181162000Y-92202000D01*
X178502000Y-92202000D02*
X178502000Y-92262000D01*
X181162000Y-92202000D02*
X181162000Y-92262000D01*
X178502000Y-92262000D02*
X181162000Y-92262000D01*
X178502000Y-89602000D02*
X179832000Y-89602000D01*
X174438000Y-86868000D02*
X174438000Y-85538000D01*
X174438000Y-88138000D02*
X174438000Y-88198000D01*
X174438000Y-88198000D02*
X177098000Y-88198000D01*
X174438000Y-85538000D02*
X175768000Y-85538000D01*
X174438000Y-88138000D02*
X177098000Y-88138000D01*
X177098000Y-88138000D02*
X177098000Y-88198000D01*
X193354000Y-88138000D02*
X193354000Y-88198000D01*
X190694000Y-88138000D02*
X193354000Y-88138000D01*
X190694000Y-85538000D02*
X192024000Y-85538000D01*
X190694000Y-86868000D02*
X190694000Y-85538000D01*
X190694000Y-88138000D02*
X190694000Y-88198000D01*
X190694000Y-88198000D02*
X193354000Y-88198000D01*
X182566000Y-51562000D02*
X182566000Y-51622000D01*
X182566000Y-51622000D02*
X185226000Y-51622000D01*
X182566000Y-48962000D02*
X183896000Y-48962000D01*
X182566000Y-50292000D02*
X182566000Y-48962000D01*
X182566000Y-51562000D02*
X185226000Y-51562000D01*
X185226000Y-51562000D02*
X185226000Y-51622000D01*
X181162000Y-47498000D02*
X181162000Y-47558000D01*
X178502000Y-46228000D02*
X178502000Y-44898000D01*
X178502000Y-47558000D02*
X181162000Y-47558000D01*
X178502000Y-47498000D02*
X178502000Y-47558000D01*
X178502000Y-47498000D02*
X181162000Y-47498000D01*
X178502000Y-44898000D02*
X179832000Y-44898000D01*
X164652000Y-63754000D02*
X164652000Y-63814000D01*
X161992000Y-61154000D02*
X163322000Y-61154000D01*
X161992000Y-63754000D02*
X161992000Y-63814000D01*
X161992000Y-63814000D02*
X164652000Y-63814000D01*
X161992000Y-63754000D02*
X164652000Y-63754000D01*
X161992000Y-62484000D02*
X161992000Y-61154000D01*
X172780000Y-92202000D02*
X172780000Y-92262000D01*
X170120000Y-92202000D02*
X170120000Y-92262000D01*
X170120000Y-90932000D02*
X170120000Y-89602000D01*
X170120000Y-92262000D02*
X172780000Y-92262000D01*
X170120000Y-89602000D02*
X171450000Y-89602000D01*
X170120000Y-92202000D02*
X172780000Y-92202000D01*
X178502000Y-88138000D02*
X178502000Y-88198000D01*
X178502000Y-85538000D02*
X179832000Y-85538000D01*
X181162000Y-88138000D02*
X181162000Y-88198000D01*
X178502000Y-88138000D02*
X181162000Y-88138000D01*
X178502000Y-88198000D02*
X181162000Y-88198000D01*
X178502000Y-86868000D02*
X178502000Y-85538000D01*
X142262000Y-54804000D02*
X142262000Y-80324000D01*
X143912000Y-54804000D02*
X142262000Y-54804000D01*
X142262000Y-80324000D02*
X147562000Y-80324000D01*
X147562000Y-80324000D02*
X147562000Y-54804000D01*
X147562000Y-54804000D02*
X145912000Y-54804000D01*
X143912000Y-54804000D02*
G75*
G03*
X145912000Y-54804000I1000000J0D01*
G01*
X193354000Y-92202000D02*
X193354000Y-92262000D01*
X190694000Y-89602000D02*
X192024000Y-89602000D01*
X190694000Y-90932000D02*
X190694000Y-89602000D01*
X190694000Y-92202000D02*
X190694000Y-92262000D01*
X190694000Y-92262000D02*
X193354000Y-92262000D01*
X190694000Y-92202000D02*
X193354000Y-92202000D01*
X157928000Y-61154000D02*
X159258000Y-61154000D01*
X157928000Y-62484000D02*
X157928000Y-61154000D01*
X157928000Y-63814000D02*
X160588000Y-63814000D01*
X160588000Y-63754000D02*
X160588000Y-63814000D01*
X157928000Y-63754000D02*
X157928000Y-63814000D01*
X157928000Y-63754000D02*
X160588000Y-63754000D01*
X140999439Y-50800000D02*
X140885810Y-50800000D01*
X143652181Y-50800000D02*
G75*
G03*
X143652181Y-50800000I-1326371J0D01*
G01*
X194758000Y-88198000D02*
X197418000Y-88198000D01*
X194758000Y-86868000D02*
X194758000Y-85538000D01*
X194758000Y-85538000D02*
X196088000Y-85538000D01*
X197418000Y-88138000D02*
X197418000Y-88198000D01*
X194758000Y-88138000D02*
X197418000Y-88138000D01*
X194758000Y-88138000D02*
X194758000Y-88198000D01*
X177098000Y-92202000D02*
X177098000Y-92262000D01*
X174438000Y-89602000D02*
X175768000Y-89602000D01*
X174438000Y-90932000D02*
X174438000Y-89602000D01*
X174438000Y-92202000D02*
X177098000Y-92202000D01*
X174438000Y-92262000D02*
X177098000Y-92262000D01*
X174438000Y-92202000D02*
X174438000Y-92262000D01*
X198822000Y-63814000D02*
X201482000Y-63814000D01*
X198822000Y-63754000D02*
X198822000Y-63814000D01*
X198822000Y-62484000D02*
X198822000Y-61154000D01*
X201482000Y-63754000D02*
X201482000Y-63814000D01*
X198822000Y-63754000D02*
X201482000Y-63754000D01*
X198822000Y-61154000D02*
X200152000Y-61154000D01*
X182566000Y-89602000D02*
X183896000Y-89602000D01*
X182566000Y-90932000D02*
X182566000Y-89602000D01*
X182566000Y-92202000D02*
X185226000Y-92202000D01*
X182566000Y-92262000D02*
X185226000Y-92262000D01*
X185226000Y-92202000D02*
X185226000Y-92262000D01*
X182566000Y-92202000D02*
X182566000Y-92262000D01*
X198822000Y-47558000D02*
X201482000Y-47558000D01*
X198822000Y-47498000D02*
X198822000Y-47558000D01*
X198822000Y-44898000D02*
X200152000Y-44898000D01*
X198822000Y-47498000D02*
X201482000Y-47498000D01*
X201482000Y-47498000D02*
X201482000Y-47558000D01*
X198822000Y-46228000D02*
X198822000Y-44898000D01*
X118786000Y-98181500D02*
X136686000Y-98181500D01*
X118786000Y-47141500D02*
X118786000Y-98181500D01*
X136686000Y-98181500D02*
X136686000Y-47141500D01*
X134196000Y-47201500D02*
X128736000Y-47201500D01*
X126736000Y-47201500D02*
X121276000Y-47201500D01*
X134196000Y-98121500D02*
X134196000Y-47201500D01*
X136686000Y-47141500D02*
X118786000Y-47141500D01*
X121276000Y-47201500D02*
X121276000Y-98121500D01*
X121276000Y-98121500D02*
X134196000Y-98121500D01*
X126736000Y-47201500D02*
G75*
G03*
X128736000Y-47201500I1000000J0D01*
G01*
X202886000Y-71882000D02*
X202886000Y-71942000D01*
X202886000Y-69282000D02*
X204216000Y-69282000D01*
X202886000Y-71942000D02*
X205546000Y-71942000D01*
X202886000Y-71882000D02*
X205546000Y-71882000D01*
X202886000Y-70612000D02*
X202886000Y-69282000D01*
X205546000Y-71882000D02*
X205546000Y-71942000D01*
G36*
X123508492Y-95413189D02*
G01*
X123530321Y-95428119D01*
X123557311Y-95446838D01*
X123559796Y-95448574D01*
X123628943Y-95492323D01*
X123706439Y-95533821D01*
X123783436Y-95568426D01*
X123802343Y-95575745D01*
X123838061Y-95588119D01*
X123879303Y-95600990D01*
X123921759Y-95613177D01*
X123961119Y-95623502D01*
X123993073Y-95630782D01*
X124013311Y-95633837D01*
X124014532Y-95633865D01*
X124023124Y-95639842D01*
X124042736Y-95657008D01*
X124072174Y-95684216D01*
X124110240Y-95720318D01*
X124155740Y-95764168D01*
X124207477Y-95814618D01*
X124264255Y-95870520D01*
X124324880Y-95930728D01*
X124347620Y-95953441D01*
X124667108Y-96273016D01*
X124661761Y-96320204D01*
X124658565Y-96348214D01*
X124654018Y-96387812D01*
X124648772Y-96433338D01*
X124644354Y-96471562D01*
X124638285Y-96525271D01*
X124631764Y-96585060D01*
X124625756Y-96641977D01*
X124622782Y-96671220D01*
X124618394Y-96713885D01*
X124614078Y-96753518D01*
X124610417Y-96784867D01*
X124608529Y-96799261D01*
X124603791Y-96831814D01*
X123816891Y-96831814D01*
X123812152Y-96799261D01*
X123809318Y-96777030D01*
X123805415Y-96742768D01*
X123801027Y-96701727D01*
X123797925Y-96671220D01*
X123792532Y-96619312D01*
X123785977Y-96559664D01*
X123779313Y-96501753D01*
X123776207Y-96475902D01*
X123770408Y-96425843D01*
X123764754Y-96372369D01*
X123760060Y-96323404D01*
X123758034Y-96299362D01*
X123754244Y-96263393D01*
X123749417Y-96236247D01*
X123744264Y-96221545D01*
X123742493Y-96220004D01*
X123716768Y-96212254D01*
X123680974Y-96200632D01*
X123639887Y-96186787D01*
X123598284Y-96172363D01*
X123560942Y-96159008D01*
X123532637Y-96148367D01*
X123522388Y-96144151D01*
X123485495Y-96127858D01*
X123485495Y-95763158D01*
X123485591Y-95671036D01*
X123485906Y-95595002D01*
X123486478Y-95533781D01*
X123487346Y-95486100D01*
X123488548Y-95450686D01*
X123490123Y-95426265D01*
X123492110Y-95411565D01*
X123494546Y-95405310D01*
X123496346Y-95405143D01*
X123508492Y-95413189D01*
G37*
G36*
X126034143Y-94040576D02*
G01*
X126063968Y-94043882D01*
X126105141Y-94048542D01*
X126151770Y-94053885D01*
X126189562Y-94058261D01*
X126243268Y-94064358D01*
X126303055Y-94070902D01*
X126359969Y-94076922D01*
X126389220Y-94079900D01*
X126431885Y-94084287D01*
X126471518Y-94088603D01*
X126502867Y-94092265D01*
X126517261Y-94094152D01*
X126549814Y-94098891D01*
X126549814Y-94885791D01*
X126517261Y-94890529D01*
X126495030Y-94893364D01*
X126460768Y-94897266D01*
X126419727Y-94901654D01*
X126389220Y-94904757D01*
X126337312Y-94910149D01*
X126277664Y-94916705D01*
X126219753Y-94923369D01*
X126193902Y-94926475D01*
X126143843Y-94932273D01*
X126090369Y-94937928D01*
X126041404Y-94942622D01*
X126017362Y-94944648D01*
X125981411Y-94948436D01*
X125954259Y-94953262D01*
X125939536Y-94958413D01*
X125937983Y-94960188D01*
X125928236Y-94992643D01*
X125914543Y-95034966D01*
X125899054Y-95080770D01*
X125883917Y-95123666D01*
X125874156Y-95149911D01*
X125851603Y-95208506D01*
X125488884Y-95208506D01*
X125411427Y-95208415D01*
X125339625Y-95208156D01*
X125275278Y-95207748D01*
X125220183Y-95207211D01*
X125176137Y-95206563D01*
X125144940Y-95205825D01*
X125128387Y-95205016D01*
X125126164Y-95204582D01*
X125130786Y-95196113D01*
X125143032Y-95177212D01*
X125160474Y-95151602D01*
X125164742Y-95145471D01*
X125210905Y-95072605D01*
X125253866Y-94992100D01*
X125289020Y-94912711D01*
X125293745Y-94900338D01*
X125307314Y-94861143D01*
X125320879Y-94817289D01*
X125333274Y-94773114D01*
X125343337Y-94732955D01*
X125349903Y-94701149D01*
X125351865Y-94683809D01*
X125358001Y-94672983D01*
X125376443Y-94650569D01*
X125407242Y-94616513D01*
X125450450Y-94570761D01*
X125506118Y-94513258D01*
X125574298Y-94443950D01*
X125655041Y-94362783D01*
X125667379Y-94350442D01*
X125982894Y-94035016D01*
X126034143Y-94040576D01*
G37*
G36*
X122892039Y-92602436D02*
G01*
X122913745Y-92619380D01*
X122945924Y-92644852D01*
X122985637Y-92676493D01*
X123029947Y-92711943D01*
X123075915Y-92748845D01*
X123120603Y-92784837D01*
X123161074Y-92817561D01*
X123194389Y-92844657D01*
X123217609Y-92863766D01*
X123220660Y-92866318D01*
X123237377Y-92879992D01*
X123261250Y-92899099D01*
X123276881Y-92911454D01*
X123315670Y-92941942D01*
X123376710Y-92908960D01*
X123416563Y-92888444D01*
X123462624Y-92866224D01*
X123504994Y-92847075D01*
X123505406Y-92846898D01*
X123573062Y-92817817D01*
X123828765Y-93073411D01*
X123883525Y-93128287D01*
X123934271Y-93179411D01*
X123979723Y-93225474D01*
X124018603Y-93265168D01*
X124049632Y-93297185D01*
X124071533Y-93320216D01*
X124083025Y-93332953D01*
X124084469Y-93335038D01*
X124076716Y-93339601D01*
X124056983Y-93344453D01*
X124043235Y-93346664D01*
X124007307Y-93353141D01*
X123960734Y-93363772D01*
X123909279Y-93377030D01*
X123858702Y-93391387D01*
X123814765Y-93405316D01*
X123794640Y-93412578D01*
X123742897Y-93434823D01*
X123685151Y-93463198D01*
X123629039Y-93493761D01*
X123584425Y-93521083D01*
X123540123Y-93550475D01*
X122619412Y-93550475D01*
X122605990Y-93529991D01*
X122591597Y-93510040D01*
X122580957Y-93497438D01*
X122571649Y-93486665D01*
X122553724Y-93465006D01*
X122529383Y-93435155D01*
X122500828Y-93399803D01*
X122485895Y-93381199D01*
X122452581Y-93339657D01*
X122419064Y-93297937D01*
X122388702Y-93260214D01*
X122364853Y-93230662D01*
X122359627Y-93224208D01*
X122336144Y-93194827D01*
X122314527Y-93167078D01*
X122299185Y-93146627D01*
X122298374Y-93145494D01*
X122279937Y-93119602D01*
X122838775Y-92561540D01*
X122892039Y-92602436D01*
G37*
G36*
X124608529Y-92185420D02*
G01*
X124611364Y-92207651D01*
X124615266Y-92241914D01*
X124619654Y-92282954D01*
X124622757Y-92313462D01*
X124628149Y-92365369D01*
X124634705Y-92425018D01*
X124641369Y-92482929D01*
X124644475Y-92508780D01*
X124650273Y-92558838D01*
X124655928Y-92612312D01*
X124660622Y-92661277D01*
X124662648Y-92685320D01*
X124666438Y-92721289D01*
X124671264Y-92748435D01*
X124676418Y-92763136D01*
X124678188Y-92764677D01*
X124703913Y-92772428D01*
X124739708Y-92784049D01*
X124780794Y-92797895D01*
X124822397Y-92812318D01*
X124859739Y-92825674D01*
X124888044Y-92836315D01*
X124898294Y-92840531D01*
X124935187Y-92856824D01*
X124935187Y-93221011D01*
X124935137Y-93298622D01*
X124934994Y-93370574D01*
X124934770Y-93435074D01*
X124934473Y-93490329D01*
X124934117Y-93534546D01*
X124933710Y-93565930D01*
X124933264Y-93582690D01*
X124933017Y-93585030D01*
X124925435Y-93580347D01*
X124906792Y-93567881D01*
X124880270Y-93549776D01*
X124861400Y-93536755D01*
X124745310Y-93466675D01*
X124619706Y-93410275D01*
X124486993Y-93368608D01*
X124466424Y-93363648D01*
X124401318Y-93348563D01*
X124077944Y-93026359D01*
X123754569Y-92704154D01*
X123759419Y-92660722D01*
X123762397Y-92634377D01*
X123766754Y-92596232D01*
X123771868Y-92551732D01*
X123776327Y-92513120D01*
X123782396Y-92459411D01*
X123788918Y-92399621D01*
X123794925Y-92342705D01*
X123797900Y-92313462D01*
X123802287Y-92270796D01*
X123806603Y-92231163D01*
X123810265Y-92199815D01*
X123812152Y-92185420D01*
X123816891Y-92152867D01*
X124603791Y-92152867D01*
X124608529Y-92185420D01*
G37*
G36*
X125344051Y-95425937D02*
G01*
X125790245Y-95426347D01*
X125829309Y-95475643D01*
X125850961Y-95502886D01*
X125870167Y-95526910D01*
X125882763Y-95542508D01*
X125893877Y-95556210D01*
X125913148Y-95580100D01*
X125938640Y-95611769D01*
X125968418Y-95648806D01*
X126000547Y-95688801D01*
X126033093Y-95729344D01*
X126064121Y-95768025D01*
X126091696Y-95802434D01*
X126113883Y-95830160D01*
X126128746Y-95848794D01*
X126134157Y-95855656D01*
X126129764Y-95863835D01*
X126113643Y-95883309D01*
X126086534Y-95913294D01*
X126049179Y-95953004D01*
X126002320Y-96001655D01*
X125946697Y-96058463D01*
X125883053Y-96122643D01*
X125861386Y-96144337D01*
X125581717Y-96423908D01*
X125429898Y-96301599D01*
X125384922Y-96265347D01*
X125343653Y-96232046D01*
X125308306Y-96203486D01*
X125281094Y-96181456D01*
X125264231Y-96167745D01*
X125260686Y-96164832D01*
X125246508Y-96153249D01*
X125222712Y-96134016D01*
X125193248Y-96110318D01*
X125175647Y-96096208D01*
X125108000Y-96042045D01*
X125032444Y-96080326D01*
X124992514Y-96100184D01*
X124951580Y-96119928D01*
X124916601Y-96136220D01*
X124906820Y-96140591D01*
X124856751Y-96162575D01*
X124600007Y-95906269D01*
X124545277Y-95851448D01*
X124494722Y-95800451D01*
X124449595Y-95754568D01*
X124411146Y-95715090D01*
X124380630Y-95683304D01*
X124359297Y-95660503D01*
X124348402Y-95647976D01*
X124347269Y-95645957D01*
X124357287Y-95642624D01*
X124379511Y-95637860D01*
X124406679Y-95633102D01*
X124535993Y-95603751D01*
X124663178Y-95557530D01*
X124787033Y-95494905D01*
X124831885Y-95467601D01*
X124897858Y-95425526D01*
X125344051Y-95425937D01*
G37*
G36*
X123058335Y-94634527D02*
G01*
X123063414Y-94653466D01*
X123064458Y-94659446D01*
X123092590Y-94791415D01*
X123134231Y-94917660D01*
X123188255Y-95035138D01*
X123230190Y-95106462D01*
X123268475Y-95165644D01*
X123268475Y-96074787D01*
X123239834Y-96099558D01*
X123214552Y-96120902D01*
X123185804Y-96144459D01*
X123176898Y-96151595D01*
X123159701Y-96165331D01*
X123131625Y-96187827D01*
X123095317Y-96216961D01*
X123053424Y-96250607D01*
X123008593Y-96286643D01*
X122999370Y-96294060D01*
X122956303Y-96328679D01*
X122917548Y-96359793D01*
X122885245Y-96385690D01*
X122861529Y-96404657D01*
X122848539Y-96414981D01*
X122847026Y-96416157D01*
X122838847Y-96411764D01*
X122819372Y-96395643D01*
X122789388Y-96368534D01*
X122749678Y-96331179D01*
X122701026Y-96284320D01*
X122644218Y-96228697D01*
X122580038Y-96165053D01*
X122558344Y-96143386D01*
X122278774Y-95863717D01*
X122401082Y-95711898D01*
X122437335Y-95666922D01*
X122470636Y-95625653D01*
X122499196Y-95590306D01*
X122521226Y-95563094D01*
X122534936Y-95546231D01*
X122537850Y-95542686D01*
X122549433Y-95528508D01*
X122568666Y-95504712D01*
X122592363Y-95475248D01*
X122606473Y-95457647D01*
X122660637Y-95390000D01*
X122622355Y-95314444D01*
X122602361Y-95274217D01*
X122582356Y-95232696D01*
X122565746Y-95196989D01*
X122561364Y-95187176D01*
X122538653Y-95135463D01*
X122792829Y-94881178D01*
X122847554Y-94826573D01*
X122898531Y-94775987D01*
X122944445Y-94730702D01*
X122983985Y-94691999D01*
X123015836Y-94661163D01*
X123038687Y-94639474D01*
X123051224Y-94628216D01*
X123053177Y-94626893D01*
X123058335Y-94634527D01*
G37*
G36*
X123691479Y-94165170D02*
G01*
X123736915Y-94086627D01*
X123796703Y-94012349D01*
X123815365Y-93992742D01*
X123888627Y-93927793D01*
X123966991Y-93877972D01*
X124054082Y-93841108D01*
X124084393Y-93831691D01*
X124122888Y-93821276D01*
X124154279Y-93814919D01*
X124184898Y-93811961D01*
X124221080Y-93811736D01*
X124261094Y-93813209D01*
X124337080Y-93820002D01*
X124402180Y-93833862D01*
X124462005Y-93856449D01*
X124522167Y-93889419D01*
X124525036Y-93891214D01*
X124590465Y-93942327D01*
X124646304Y-94006467D01*
X124690966Y-94081253D01*
X124722860Y-94164304D01*
X124732162Y-94201534D01*
X124738673Y-94244089D01*
X124742166Y-94292630D01*
X124742775Y-94342999D01*
X124740633Y-94391038D01*
X124735876Y-94432590D01*
X124728636Y-94463497D01*
X124723355Y-94474905D01*
X124709086Y-94496681D01*
X123910853Y-94496681D01*
X123911158Y-94533575D01*
X123919673Y-94616333D01*
X123943001Y-94693712D01*
X123979917Y-94763660D01*
X124029197Y-94824123D01*
X124089617Y-94873049D01*
X124125920Y-94893690D01*
X124154396Y-94907478D01*
X124176778Y-94916715D01*
X124197826Y-94922312D01*
X124222302Y-94925181D01*
X124254966Y-94926233D01*
X124296685Y-94926380D01*
X124342502Y-94926056D01*
X124375514Y-94924620D01*
X124400274Y-94921375D01*
X124421332Y-94915626D01*
X124443242Y-94906676D01*
X124452023Y-94902626D01*
X124488029Y-94882771D01*
X124529747Y-94855265D01*
X124571452Y-94824290D01*
X124607418Y-94794027D01*
X124626194Y-94775417D01*
X124643853Y-94761128D01*
X124662374Y-94759219D01*
X124685019Y-94770277D01*
X124710209Y-94790542D01*
X124747888Y-94823979D01*
X124717836Y-94873656D01*
X124659496Y-94954246D01*
X124590021Y-95022289D01*
X124510735Y-95076702D01*
X124422965Y-95116405D01*
X124418349Y-95117994D01*
X124382336Y-95129109D01*
X124348676Y-95136480D01*
X124311496Y-95140992D01*
X124264925Y-95143533D01*
X124245064Y-95144126D01*
X124199101Y-95144519D01*
X124154701Y-95143520D01*
X124117441Y-95141331D01*
X124095948Y-95138755D01*
X124024983Y-95120088D01*
X123951402Y-95090187D01*
X123882505Y-95052074D01*
X123875732Y-95047647D01*
X123806831Y-94991628D01*
X123748071Y-94922762D01*
X123700009Y-94842683D01*
X123663204Y-94753020D01*
X123638215Y-94655408D01*
X123625601Y-94551477D01*
X123625920Y-94442859D01*
X123636605Y-94349108D01*
X123638564Y-94340427D01*
X123910523Y-94340427D01*
X124147240Y-94340378D01*
X124213461Y-94340044D01*
X124274483Y-94339122D01*
X124327809Y-94337695D01*
X124370943Y-94335846D01*
X124401387Y-94333656D01*
X124415617Y-94331536D01*
X124447190Y-94316391D01*
X124467398Y-94290702D01*
X124477229Y-94252768D01*
X124478557Y-94223236D01*
X124469583Y-94161517D01*
X124444921Y-94104158D01*
X124406132Y-94053575D01*
X124354782Y-94012184D01*
X124334402Y-94000458D01*
X124289130Y-93984932D01*
X124235764Y-93979305D01*
X124180386Y-93983451D01*
X124129078Y-93997245D01*
X124111764Y-94005067D01*
X124054567Y-94043970D01*
X124004713Y-94096330D01*
X123964478Y-94158999D01*
X123936141Y-94228827D01*
X123928611Y-94258233D01*
X123922280Y-94287636D01*
X123916773Y-94312802D01*
X123914962Y-94320895D01*
X123910523Y-94340427D01*
X123638564Y-94340427D01*
X123658630Y-94251491D01*
X123691479Y-94165170D01*
G37*
G36*
X123031645Y-93767591D02*
G01*
X123107680Y-93767906D01*
X123168901Y-93768478D01*
X123216582Y-93769346D01*
X123251996Y-93770548D01*
X123276416Y-93772123D01*
X123291117Y-93774110D01*
X123297371Y-93776546D01*
X123297538Y-93778346D01*
X123289493Y-93790492D01*
X123274563Y-93812321D01*
X123255843Y-93839311D01*
X123254108Y-93841796D01*
X123210358Y-93910943D01*
X123168861Y-93988439D01*
X123134255Y-94065436D01*
X123126936Y-94084343D01*
X123114563Y-94120061D01*
X123101692Y-94161303D01*
X123089504Y-94203759D01*
X123079180Y-94243119D01*
X123071900Y-94275073D01*
X123068844Y-94295311D01*
X123068816Y-94296532D01*
X123062796Y-94306052D01*
X123045674Y-94326154D01*
X123018862Y-94355439D01*
X122983772Y-94392505D01*
X122941813Y-94435954D01*
X122894396Y-94484385D01*
X122842934Y-94536400D01*
X122788836Y-94590597D01*
X122733513Y-94645578D01*
X122678377Y-94699943D01*
X122624838Y-94752292D01*
X122574307Y-94801225D01*
X122528196Y-94845343D01*
X122487914Y-94883246D01*
X122454874Y-94913534D01*
X122430485Y-94934807D01*
X122416159Y-94945666D01*
X122413373Y-94946782D01*
X122391774Y-94944805D01*
X122370013Y-94942464D01*
X122292079Y-94933458D01*
X122228492Y-94926164D01*
X122176357Y-94920261D01*
X122132779Y-94915427D01*
X122094864Y-94911340D01*
X122059716Y-94907678D01*
X122031462Y-94904820D01*
X121988797Y-94900417D01*
X121949165Y-94896088D01*
X121917816Y-94892419D01*
X121903420Y-94890529D01*
X121870867Y-94885791D01*
X121870867Y-94098891D01*
X121903420Y-94094152D01*
X121925651Y-94091318D01*
X121959914Y-94087415D01*
X122000954Y-94083027D01*
X122031462Y-94079925D01*
X122083369Y-94074532D01*
X122143018Y-94067977D01*
X122200929Y-94061313D01*
X122226780Y-94058207D01*
X122276838Y-94052408D01*
X122330312Y-94046754D01*
X122379277Y-94042060D01*
X122403320Y-94040034D01*
X122439289Y-94036244D01*
X122466435Y-94031417D01*
X122481136Y-94026264D01*
X122482677Y-94024493D01*
X122490428Y-93998768D01*
X122502049Y-93962974D01*
X122515895Y-93921887D01*
X122530318Y-93880284D01*
X122543674Y-93842942D01*
X122554315Y-93814637D01*
X122558531Y-93804388D01*
X122574824Y-93767495D01*
X122939523Y-93767495D01*
X123031645Y-93767591D01*
G37*
G36*
X125861386Y-92840344D02*
G01*
X125927412Y-92906691D01*
X125985650Y-92965914D01*
X126035359Y-93017228D01*
X126075798Y-93059850D01*
X126106226Y-93092993D01*
X126125901Y-93115875D01*
X126134081Y-93127709D01*
X126134157Y-93129026D01*
X126126559Y-93138655D01*
X126110029Y-93159371D01*
X126086523Y-93188735D01*
X126057999Y-93224313D01*
X126026413Y-93263668D01*
X125993723Y-93304363D01*
X125961885Y-93343962D01*
X125932857Y-93380029D01*
X125908595Y-93410128D01*
X125891056Y-93431821D01*
X125882763Y-93441995D01*
X125871205Y-93456179D01*
X125851996Y-93479974D01*
X125828322Y-93509426D01*
X125814303Y-93526917D01*
X125760234Y-93594447D01*
X125806728Y-93687481D01*
X125826311Y-93727476D01*
X125844017Y-93765103D01*
X125857741Y-93795804D01*
X125864810Y-93813341D01*
X125876397Y-93846166D01*
X125625038Y-94097637D01*
X125570643Y-94151923D01*
X125520023Y-94202185D01*
X125474496Y-94247133D01*
X125435381Y-94285478D01*
X125403993Y-94315931D01*
X125381652Y-94337202D01*
X125369674Y-94348003D01*
X125368041Y-94349108D01*
X125360518Y-94342224D01*
X125357134Y-94335376D01*
X125352758Y-94315365D01*
X125351865Y-94302288D01*
X125349187Y-94280138D01*
X125341934Y-94245975D01*
X125331275Y-94204170D01*
X125318381Y-94159092D01*
X125304420Y-94115113D01*
X125293529Y-94084343D01*
X125263099Y-94010207D01*
X125229524Y-93943571D01*
X125189988Y-93877904D01*
X125152207Y-93819038D01*
X125152207Y-92909895D01*
X125180847Y-92885123D01*
X125206112Y-92863779D01*
X125234846Y-92840197D01*
X125243783Y-92833018D01*
X125260658Y-92819504D01*
X125288517Y-92797119D01*
X125324834Y-92767896D01*
X125367081Y-92733870D01*
X125412733Y-92697073D01*
X125429898Y-92683230D01*
X125581717Y-92560774D01*
X125861386Y-92840344D01*
G37*
X127254000Y-51237000D02*
X127254000Y-51167000D01*
X128624000Y-52607000D02*
G75*
G03*
X128624000Y-52607000I-1370000J0D01*
G01*
X140999439Y-53340000D02*
X140885810Y-53340000D01*
X143652181Y-53340000D02*
G75*
G03*
X143652181Y-53340000I-1326371J0D01*
G01*
X186630000Y-44898000D02*
X187960000Y-44898000D01*
X186630000Y-47558000D02*
X189290000Y-47558000D01*
X186630000Y-47498000D02*
X186630000Y-47558000D01*
X186630000Y-47498000D02*
X189290000Y-47498000D01*
X186630000Y-46228000D02*
X186630000Y-44898000D01*
X189290000Y-47498000D02*
X189290000Y-47558000D01*
X161992000Y-55686000D02*
X164652000Y-55686000D01*
X161992000Y-54356000D02*
X161992000Y-53026000D01*
X161992000Y-55626000D02*
X161992000Y-55686000D01*
X164652000Y-55626000D02*
X164652000Y-55686000D01*
X161992000Y-53026000D02*
X163322000Y-53026000D01*
X161992000Y-55626000D02*
X164652000Y-55626000D01*
X160588000Y-71882000D02*
X160588000Y-71942000D01*
X157928000Y-71882000D02*
X160588000Y-71882000D01*
X157928000Y-71942000D02*
X160588000Y-71942000D01*
X157928000Y-69282000D02*
X159258000Y-69282000D01*
X157928000Y-71882000D02*
X157928000Y-71942000D01*
X157928000Y-70612000D02*
X157928000Y-69282000D01*
X198822000Y-67878000D02*
X201482000Y-67878000D01*
X198822000Y-66548000D02*
X198822000Y-65218000D01*
X198822000Y-65218000D02*
X200152000Y-65218000D01*
X198822000Y-67818000D02*
X201482000Y-67818000D01*
X198822000Y-67818000D02*
X198822000Y-67878000D01*
X201482000Y-67818000D02*
X201482000Y-67878000D01*
X202886000Y-61154000D02*
X204216000Y-61154000D01*
X202886000Y-63814000D02*
X205546000Y-63814000D01*
X202886000Y-63754000D02*
X202886000Y-63814000D01*
X202886000Y-62484000D02*
X202886000Y-61154000D01*
X205546000Y-63754000D02*
X205546000Y-63814000D01*
X202886000Y-63754000D02*
X205546000Y-63754000D01*
X198822000Y-50292000D02*
X198822000Y-48962000D01*
X198822000Y-51562000D02*
X201482000Y-51562000D01*
X198822000Y-48962000D02*
X200152000Y-48962000D01*
X198822000Y-51622000D02*
X201482000Y-51622000D01*
X198822000Y-51562000D02*
X198822000Y-51622000D01*
X201482000Y-51562000D02*
X201482000Y-51622000D01*
X201482000Y-75946000D02*
X201482000Y-76006000D01*
X198822000Y-75946000D02*
X201482000Y-75946000D01*
X198822000Y-74676000D02*
X198822000Y-73346000D01*
X198822000Y-73346000D02*
X200152000Y-73346000D01*
X198822000Y-75946000D02*
X198822000Y-76006000D01*
X198822000Y-76006000D02*
X201482000Y-76006000D01*
X157928000Y-73346000D02*
X159258000Y-73346000D01*
X157928000Y-75946000D02*
X160588000Y-75946000D01*
X160588000Y-75946000D02*
X160588000Y-76006000D01*
X157928000Y-75946000D02*
X157928000Y-76006000D01*
X157928000Y-76006000D02*
X160588000Y-76006000D01*
X157928000Y-74676000D02*
X157928000Y-73346000D01*
X170374000Y-44898000D02*
X171704000Y-44898000D01*
X170374000Y-46228000D02*
X170374000Y-44898000D01*
X173034000Y-47498000D02*
X173034000Y-47558000D01*
X170374000Y-47498000D02*
X170374000Y-47558000D01*
X170374000Y-47498000D02*
X173034000Y-47498000D01*
X170374000Y-47558000D02*
X173034000Y-47558000D01*
X164652000Y-59690000D02*
X164652000Y-59750000D01*
X161992000Y-58420000D02*
X161992000Y-57090000D01*
X161992000Y-59750000D02*
X164652000Y-59750000D01*
X161992000Y-59690000D02*
X164652000Y-59690000D01*
X161992000Y-59690000D02*
X161992000Y-59750000D01*
X161992000Y-57090000D02*
X163322000Y-57090000D01*
X202886000Y-78740000D02*
X202886000Y-77410000D01*
X202886000Y-80010000D02*
X205546000Y-80010000D01*
X202886000Y-80070000D02*
X205546000Y-80070000D01*
X202886000Y-77410000D02*
X204216000Y-77410000D01*
X202886000Y-80010000D02*
X202886000Y-80070000D01*
X205546000Y-80010000D02*
X205546000Y-80070000D01*
X186630000Y-85538000D02*
X187960000Y-85538000D01*
X186630000Y-88198000D02*
X189290000Y-88198000D01*
X186630000Y-88138000D02*
X186630000Y-88198000D01*
X186630000Y-88138000D02*
X189290000Y-88138000D01*
X186630000Y-86868000D02*
X186630000Y-85538000D01*
X189290000Y-88138000D02*
X189290000Y-88198000D01*
X194758000Y-92262000D02*
X197418000Y-92262000D01*
X194758000Y-92202000D02*
X197418000Y-92202000D01*
X197418000Y-92202000D02*
X197418000Y-92262000D01*
X194758000Y-92202000D02*
X194758000Y-92262000D01*
X194758000Y-90932000D02*
X194758000Y-89602000D01*
X194758000Y-89602000D02*
X196088000Y-89602000D01*
X190694000Y-48962000D02*
X192024000Y-48962000D01*
X190694000Y-51622000D02*
X193354000Y-51622000D01*
X190694000Y-51562000D02*
X190694000Y-51622000D01*
X190694000Y-51562000D02*
X193354000Y-51562000D01*
X193354000Y-51562000D02*
X193354000Y-51622000D01*
X190694000Y-50292000D02*
X190694000Y-48962000D01*
X202886000Y-53026000D02*
X204216000Y-53026000D01*
X202886000Y-55626000D02*
X202886000Y-55686000D01*
X202886000Y-55686000D02*
X205546000Y-55686000D01*
X205546000Y-55626000D02*
X205546000Y-55686000D01*
X202886000Y-54356000D02*
X202886000Y-53026000D01*
X202886000Y-55626000D02*
X205546000Y-55626000D01*
X198822000Y-92202000D02*
X198822000Y-92262000D01*
X198822000Y-92202000D02*
X201482000Y-92202000D01*
X198822000Y-89602000D02*
X200152000Y-89602000D01*
X198822000Y-90932000D02*
X198822000Y-89602000D01*
X198822000Y-92262000D02*
X201482000Y-92262000D01*
X201482000Y-92202000D02*
X201482000Y-92262000D01*
X160588000Y-67818000D02*
X160588000Y-67878000D01*
X157928000Y-67818000D02*
X160588000Y-67818000D01*
X157928000Y-65218000D02*
X159258000Y-65218000D01*
X157928000Y-66548000D02*
X157928000Y-65218000D01*
X157928000Y-67818000D02*
X157928000Y-67878000D01*
X157928000Y-67878000D02*
X160588000Y-67878000D01*
X198822000Y-80010000D02*
X198822000Y-80070000D01*
X201482000Y-80010000D02*
X201482000Y-80070000D01*
X198822000Y-77410000D02*
X200152000Y-77410000D01*
X198822000Y-80010000D02*
X201482000Y-80010000D01*
X198822000Y-78740000D02*
X198822000Y-77410000D01*
X198822000Y-80070000D02*
X201482000Y-80070000D01*
X140999439Y-48260000D02*
X140885810Y-48260000D01*
X143652181Y-48260000D02*
G75*
G03*
X143652181Y-48260000I-1326371J0D01*
G01*
X166310000Y-51622000D02*
X168970000Y-51622000D01*
X168970000Y-51562000D02*
X168970000Y-51622000D01*
X166310000Y-51562000D02*
X168970000Y-51562000D01*
X166310000Y-51562000D02*
X166310000Y-51622000D01*
X166310000Y-50292000D02*
X166310000Y-48962000D01*
X166310000Y-48962000D02*
X167640000Y-48962000D01*
X198822000Y-86868000D02*
X198822000Y-85538000D01*
X198822000Y-85538000D02*
X200152000Y-85538000D01*
X201482000Y-88138000D02*
X201482000Y-88198000D01*
X198822000Y-88138000D02*
X201482000Y-88138000D01*
X198822000Y-88198000D02*
X201482000Y-88198000D01*
X198822000Y-88138000D02*
X198822000Y-88198000D01*
X174138000Y-62886000D02*
X174138000Y-63461000D01*
X174138000Y-76306000D02*
X174138000Y-75731000D01*
X187558000Y-62886000D02*
X187558000Y-63461000D01*
X174713000Y-76306000D02*
X174138000Y-76306000D01*
X174138000Y-63461000D02*
X171823000Y-63461000D01*
X187558000Y-76306000D02*
X187558000Y-75731000D01*
X186983000Y-62886000D02*
X187558000Y-62886000D01*
X186983000Y-76306000D02*
X187558000Y-76306000D01*
X174713000Y-62886000D02*
X174138000Y-62886000D01*
X177098000Y-51562000D02*
X177098000Y-51622000D01*
X174438000Y-50292000D02*
X174438000Y-48962000D01*
X174438000Y-51562000D02*
X177098000Y-51562000D01*
X174438000Y-51562000D02*
X174438000Y-51622000D01*
X174438000Y-51622000D02*
X177098000Y-51622000D01*
X174438000Y-48962000D02*
X175768000Y-48962000D01*
X198822000Y-59690000D02*
X201482000Y-59690000D01*
X198822000Y-57090000D02*
X200152000Y-57090000D01*
X201482000Y-59690000D02*
X201482000Y-59750000D01*
X198822000Y-59690000D02*
X198822000Y-59750000D01*
X198822000Y-59750000D02*
X201482000Y-59750000D01*
X198822000Y-58420000D02*
X198822000Y-57090000D01*
X161992000Y-71882000D02*
X161992000Y-71942000D01*
X161992000Y-71942000D02*
X164652000Y-71942000D01*
X161992000Y-70612000D02*
X161992000Y-69282000D01*
X161992000Y-71882000D02*
X164652000Y-71882000D01*
X164652000Y-71882000D02*
X164652000Y-71942000D01*
X161992000Y-69282000D02*
X163322000Y-69282000D01*
X202886000Y-67878000D02*
X205546000Y-67878000D01*
X202886000Y-67818000D02*
X202886000Y-67878000D01*
X202886000Y-67818000D02*
X205546000Y-67818000D01*
X202886000Y-65218000D02*
X204216000Y-65218000D01*
X202886000Y-66548000D02*
X202886000Y-65218000D01*
X205546000Y-67818000D02*
X205546000Y-67878000D01*
X160588000Y-59690000D02*
X160588000Y-59750000D01*
X157928000Y-59690000D02*
X160588000Y-59690000D01*
X157928000Y-57090000D02*
X159258000Y-57090000D01*
X157928000Y-58420000D02*
X157928000Y-57090000D01*
X157928000Y-59690000D02*
X157928000Y-59750000D01*
X157928000Y-59750000D02*
X160588000Y-59750000D01*
X190694000Y-46228000D02*
X190694000Y-44898000D01*
X193354000Y-47498000D02*
X193354000Y-47558000D01*
X190694000Y-47558000D02*
X193354000Y-47558000D01*
X190694000Y-47498000D02*
X193354000Y-47498000D01*
X190694000Y-47498000D02*
X190694000Y-47558000D01*
X190694000Y-44898000D02*
X192024000Y-44898000D01*
%LPC*%
D12*
X200152000Y-54356000D03*
X179832000Y-50292000D03*
X175768000Y-46228000D03*
X187960000Y-90932000D03*
X183896000Y-86868000D03*
X204216000Y-74676000D03*
D13*
X151384000Y-86360000D03*
D14*
X148844000Y-86360000D03*
D12*
X159258000Y-78740000D03*
X196088000Y-50292000D03*
D15*
X131064000Y-51845000D03*
D14*
X131064000Y-49305000D03*
D12*
X163322000Y-74676000D03*
X187960000Y-50292000D03*
X200152000Y-82804000D03*
X200152000Y-70612000D03*
X204216000Y-58420000D03*
X196088000Y-46228000D03*
X163322000Y-66548000D03*
X163322000Y-78740000D03*
X171704000Y-50292000D03*
X183896000Y-46228000D03*
X179832000Y-90932000D03*
X175768000Y-86868000D03*
X192024000Y-86868000D03*
X183896000Y-50292000D03*
X179832000Y-46228000D03*
X163322000Y-62484000D03*
X171450000Y-90932000D03*
X179832000Y-86868000D03*
D13*
X141102000Y-56134000D03*
D14*
X141102000Y-58674000D03*
X141102000Y-61214000D03*
X141102000Y-63754000D03*
X141102000Y-66294000D03*
X141102000Y-68834000D03*
X141102000Y-71374000D03*
X141102000Y-73914000D03*
X141102000Y-76454000D03*
X141102000Y-78994000D03*
X148722000Y-78994000D03*
X148722000Y-76454000D03*
X148722000Y-73914000D03*
X148722000Y-71374000D03*
X148722000Y-68834000D03*
X148722000Y-66294000D03*
X148722000Y-63754000D03*
X148722000Y-61214000D03*
X148722000Y-58674000D03*
X148722000Y-56134000D03*
D12*
X192024000Y-90932000D03*
X159258000Y-62484000D03*
D13*
X142325810Y-50800000D03*
D14*
X139785810Y-50800000D03*
D12*
X196088000Y-86868000D03*
X175768000Y-90932000D03*
X200152000Y-62484000D03*
X183896000Y-90932000D03*
X200152000Y-46228000D03*
D13*
X120116000Y-48531500D03*
D14*
X120116000Y-51071500D03*
X120116000Y-53611500D03*
X120116000Y-56151500D03*
X120116000Y-58691500D03*
X120116000Y-61231500D03*
X120116000Y-63771500D03*
X120116000Y-66311500D03*
X120116000Y-68851500D03*
X120116000Y-71391500D03*
X120116000Y-73931500D03*
X120116000Y-76471500D03*
X120116000Y-79011500D03*
X120116000Y-81551500D03*
X120116000Y-84091500D03*
X120116000Y-86631500D03*
X120116000Y-89171500D03*
X120116000Y-91711500D03*
X120116000Y-94251500D03*
X120116000Y-96791500D03*
X135356000Y-96791500D03*
X135356000Y-94251500D03*
X135356000Y-91711500D03*
X135356000Y-89171500D03*
D16*
X135356000Y-86631500D03*
X135356000Y-84091500D03*
X135356000Y-81551500D03*
D14*
X135356000Y-79011500D03*
X135356000Y-76471500D03*
X135356000Y-73931500D03*
X135356000Y-71391500D03*
X135356000Y-68851500D03*
X135356000Y-66311500D03*
D16*
X135356000Y-63771500D03*
X135356000Y-61231500D03*
X135356000Y-58691500D03*
D14*
X135356000Y-56151500D03*
X135356000Y-53611500D03*
X135356000Y-51071500D03*
X135356000Y-48531500D03*
D12*
X204216000Y-70612000D03*
D15*
X127254000Y-52607000D03*
D14*
X127254000Y-50067000D03*
D13*
X142325810Y-53340000D03*
D14*
X139785810Y-53340000D03*
D12*
X187960000Y-46228000D03*
X163322000Y-54356000D03*
X159258000Y-70612000D03*
X200152000Y-66548000D03*
X204216000Y-62484000D03*
X200152000Y-50292000D03*
X200152000Y-74676000D03*
X159258000Y-74676000D03*
X171704000Y-46228000D03*
X163322000Y-58420000D03*
X204216000Y-78740000D03*
X187960000Y-86868000D03*
X196088000Y-90932000D03*
X192024000Y-50292000D03*
X204216000Y-54356000D03*
X200152000Y-90932000D03*
X159258000Y-66548000D03*
X200152000Y-78740000D03*
D13*
X142325810Y-48260000D03*
D14*
X139785810Y-48260000D03*
D12*
X167640000Y-50292000D03*
X200152000Y-86868000D03*
D17*
X172760500Y-63996000D03*
X172760500Y-64796000D03*
X172760500Y-65596000D03*
X172760500Y-66396000D03*
X172760500Y-67196000D03*
X172760500Y-67996000D03*
X172760500Y-68796000D03*
X172760500Y-69596000D03*
X172760500Y-70396000D03*
X172760500Y-71196000D03*
X172760500Y-71996000D03*
X172760500Y-72796000D03*
X172760500Y-73596000D03*
X172760500Y-74396000D03*
X172760500Y-75196000D03*
D18*
X175248000Y-77683500D03*
X176048000Y-77683500D03*
X176848000Y-77683500D03*
X177648000Y-77683500D03*
X178448000Y-77683500D03*
X179248000Y-77683500D03*
X180048000Y-77683500D03*
X180848000Y-77683500D03*
X181648000Y-77683500D03*
X182448000Y-77683500D03*
X183248000Y-77683500D03*
X184048000Y-77683500D03*
X184848000Y-77683500D03*
X185648000Y-77683500D03*
X186448000Y-77683500D03*
D17*
X188935500Y-75196000D03*
X188935500Y-74396000D03*
X188935500Y-73596000D03*
X188935500Y-72796000D03*
X188935500Y-71996000D03*
X188935500Y-71196000D03*
X188935500Y-70396000D03*
X188935500Y-69596000D03*
X188935500Y-68796000D03*
X188935500Y-67996000D03*
X188935500Y-67196000D03*
X188935500Y-66396000D03*
X188935500Y-65596000D03*
X188935500Y-64796000D03*
X188935500Y-63996000D03*
D18*
X186448000Y-61508500D03*
X185648000Y-61508500D03*
X184848000Y-61508500D03*
X184048000Y-61508500D03*
X183248000Y-61508500D03*
X182448000Y-61508500D03*
X181648000Y-61508500D03*
X180848000Y-61508500D03*
X180048000Y-61508500D03*
X179248000Y-61508500D03*
X178448000Y-61508500D03*
X177648000Y-61508500D03*
X176848000Y-61508500D03*
X176048000Y-61508500D03*
X175248000Y-61508500D03*
D12*
X175768000Y-50292000D03*
X200152000Y-58420000D03*
X163322000Y-70612000D03*
X204216000Y-66548000D03*
X159258000Y-58420000D03*
X192024000Y-46228000D03*
M02*
