M48
; DRILL file {KiCad (6.0.0)} date Sun Jan 29 20:41:17 2023
; FORMAT={-:-/ absolute / metric / decimal}
; #@! TF.CreationDate,2023-01-29T20:41:17-05:00
; #@! TF.GenerationSoftware,Kicad,Pcbnew,(6.0.0)
; #@! TF.FileFunction,Plated,1,2,PTH
FMAT,2
METRIC
; #@! TA.AperFunction,Plated,PTH,ComponentDrill
T1C0.800
%
G90
G05
T1
X120.116Y-48.532
X120.116Y-51.072
X120.116Y-53.611
X120.116Y-56.151
X120.116Y-58.691
X120.116Y-61.231
X120.116Y-63.771
X120.116Y-66.311
X120.116Y-68.852
X120.116Y-71.391
X120.116Y-73.931
X120.116Y-76.471
X120.116Y-79.011
X120.116Y-81.551
X120.116Y-84.091
X120.116Y-86.632
X120.116Y-89.171
X120.116Y-91.712
X120.116Y-94.251
X120.116Y-96.791
X129.032Y-62.484
X129.032Y-65.024
X129.032Y-67.564
X129.032Y-70.104
X129.032Y-72.644
X129.032Y-75.184
X129.032Y-77.724
X129.032Y-80.264
X129.032Y-82.804
X131.572Y-59.944
X131.572Y-62.484
X131.572Y-65.024
X131.572Y-67.564
X131.572Y-70.104
X131.572Y-72.644
X131.572Y-75.184
X131.572Y-77.724
X131.572Y-80.264
X131.572Y-82.804
X131.572Y-85.344
X134.112Y-59.944
X134.112Y-62.484
X134.112Y-82.804
X134.112Y-85.344
X135.356Y-48.532
X135.356Y-51.072
X135.356Y-53.611
X135.356Y-56.151
X135.356Y-58.691
X135.356Y-61.231
X135.356Y-63.771
X135.356Y-66.311
X135.356Y-68.852
X135.356Y-71.391
X135.356Y-73.931
X135.356Y-76.471
X135.356Y-79.011
X135.356Y-81.551
X135.356Y-84.091
X135.356Y-86.632
X135.356Y-89.171
X135.356Y-91.712
X135.356Y-94.251
X135.356Y-96.791
X136.652Y-59.944
X136.652Y-62.484
X136.652Y-82.804
X136.652Y-85.344
X139.192Y-59.944
X139.192Y-62.484
X139.192Y-82.804
X139.192Y-85.344
X141.732Y-59.944
X141.732Y-62.484
X141.732Y-82.804
X141.732Y-85.344
X144.272Y-59.944
X144.272Y-62.484
X144.272Y-82.804
X144.272Y-85.344
X146.812Y-59.944
X146.812Y-62.484
X146.812Y-82.804
X146.812Y-85.344
X149.352Y-59.944
X149.352Y-62.484
X149.352Y-82.804
X149.352Y-85.344
X151.892Y-59.944
X151.892Y-62.484
X151.892Y-65.024
X151.892Y-67.564
X151.892Y-70.104
X151.892Y-72.644
X151.892Y-75.184
X151.892Y-77.724
X151.892Y-80.264
X151.892Y-82.804
X151.892Y-85.344
X154.432Y-62.484
X154.432Y-65.024
X154.432Y-67.564
X154.432Y-70.104
X154.432Y-72.644
X154.432Y-75.184
X154.432Y-77.724
X154.432Y-80.264
X154.432Y-82.804
T0
M30
