G04 #@! TF.GenerationSoftware,KiCad,Pcbnew,(6.0.0)*
G04 #@! TF.CreationDate,2023-01-29T20:41:16-05:00*
G04 #@! TF.ProjectId,tms7000 plcc 68 adapter,746d7337-3030-4302-9070-6c6363203638,rev?*
G04 #@! TF.SameCoordinates,Original*
G04 #@! TF.FileFunction,Copper,L1,Top*
G04 #@! TF.FilePolarity,Positive*
%FSLAX46Y46*%
G04 Gerber Fmt 4.6, Leading zero omitted, Abs format (unit mm)*
G04 Created by KiCad (PCBNEW (6.0.0)) date 2023-01-29 20:41:16*
%MOMM*%
%LPD*%
G01*
G04 APERTURE LIST*
G04 #@! TA.AperFunction,ComponentPad*
%ADD10R,1.600000X1.600000*%
G04 #@! TD*
G04 #@! TA.AperFunction,ComponentPad*
%ADD11O,1.600000X1.600000*%
G04 #@! TD*
G04 #@! TA.AperFunction,ComponentPad*
%ADD12O,1.400000X1.400000*%
G04 #@! TD*
G04 #@! TA.AperFunction,ComponentPad*
%ADD13R,1.422400X1.422400*%
G04 #@! TD*
G04 #@! TA.AperFunction,ComponentPad*
%ADD14C,1.422400*%
G04 #@! TD*
G04 #@! TA.AperFunction,Conductor*
%ADD15C,0.250000*%
G04 #@! TD*
G04 APERTURE END LIST*
D10*
X120116000Y-48531500D03*
D11*
X120116000Y-51071500D03*
X120116000Y-53611500D03*
X120116000Y-56151500D03*
X120116000Y-58691500D03*
X120116000Y-61231500D03*
X120116000Y-63771500D03*
X120116000Y-66311500D03*
X120116000Y-68851500D03*
X120116000Y-71391500D03*
X120116000Y-73931500D03*
X120116000Y-76471500D03*
X120116000Y-79011500D03*
X120116000Y-81551500D03*
X120116000Y-84091500D03*
X120116000Y-86631500D03*
X120116000Y-89171500D03*
X120116000Y-91711500D03*
X120116000Y-94251500D03*
X120116000Y-96791500D03*
X135356000Y-96791500D03*
X135356000Y-94251500D03*
X135356000Y-91711500D03*
X135356000Y-89171500D03*
D12*
X135356000Y-86631500D03*
X135356000Y-84091500D03*
X135356000Y-81551500D03*
D11*
X135356000Y-79011500D03*
X135356000Y-76471500D03*
X135356000Y-73931500D03*
X135356000Y-71391500D03*
X135356000Y-68851500D03*
X135356000Y-66311500D03*
D12*
X135356000Y-63771500D03*
X135356000Y-61231500D03*
X135356000Y-58691500D03*
D11*
X135356000Y-56151500D03*
X135356000Y-53611500D03*
X135356000Y-51071500D03*
X135356000Y-48531500D03*
D13*
X141732000Y-59944000D03*
D14*
X141732000Y-62484000D03*
X139192000Y-59944000D03*
X139192000Y-62484000D03*
X136652000Y-59944000D03*
X136652000Y-62484000D03*
X134112000Y-59944000D03*
X134112000Y-62484000D03*
X131572000Y-59944000D03*
X129032000Y-62484000D03*
X131572000Y-62484000D03*
X129032000Y-65024000D03*
X131572000Y-65024000D03*
X129032000Y-67564000D03*
X131572000Y-67564000D03*
X129032000Y-70104000D03*
X131572000Y-70104000D03*
X129032000Y-72644000D03*
X131572000Y-72644000D03*
X129032000Y-75184000D03*
X131572000Y-75184000D03*
X129032000Y-77724000D03*
X131572000Y-77724000D03*
X129032000Y-80264000D03*
X131572000Y-80264000D03*
X129032000Y-82804000D03*
X131572000Y-85344000D03*
X131572000Y-82804000D03*
X134112000Y-85344000D03*
X134112000Y-82804000D03*
X136652000Y-85344000D03*
X136652000Y-82804000D03*
X139192000Y-85344000D03*
X139192000Y-82804000D03*
X141732000Y-85344000D03*
X141732000Y-82804000D03*
X144272000Y-85344000D03*
X144272000Y-82804000D03*
X146812000Y-85344000D03*
X146812000Y-82804000D03*
X149352000Y-85344000D03*
X149352000Y-82804000D03*
X151892000Y-85344000D03*
X154432000Y-82804000D03*
X151892000Y-82804000D03*
X154432000Y-80264000D03*
X151892000Y-80264000D03*
X154432000Y-77724000D03*
X151892000Y-77724000D03*
X154432000Y-75184000D03*
X151892000Y-75184000D03*
X154432000Y-72644000D03*
X151892000Y-72644000D03*
X154432000Y-70104000D03*
X151892000Y-70104000D03*
X154432000Y-67564000D03*
X151892000Y-67564000D03*
X154432000Y-65024000D03*
X151892000Y-65024000D03*
X154432000Y-62484000D03*
X151892000Y-59944000D03*
X151892000Y-62484000D03*
X149352000Y-59944000D03*
X149352000Y-62484000D03*
X146812000Y-59944000D03*
X146812000Y-62484000D03*
X144272000Y-59944000D03*
X144272000Y-62484000D03*
D15*
X121240511Y-49656011D02*
X120116000Y-48531500D01*
X140080011Y-49656011D02*
X121240511Y-49656011D01*
X149352000Y-59944000D02*
X149352000Y-58928000D01*
X149352000Y-58928000D02*
X140080011Y-49656011D01*
X141732000Y-54864000D02*
X121368500Y-54864000D01*
X145542000Y-61214000D02*
X145542000Y-58674000D01*
X121368500Y-54864000D02*
X120116000Y-53611500D01*
X145542000Y-58674000D02*
X141732000Y-54864000D01*
X144272000Y-62484000D02*
X145542000Y-61214000D01*
X148082000Y-60198000D02*
X148082000Y-58928000D01*
X153162000Y-61214000D02*
X149098000Y-61214000D01*
X148082000Y-58928000D02*
X141478000Y-52324000D01*
X154432000Y-62484000D02*
X153162000Y-61214000D01*
X141478000Y-52324000D02*
X121368500Y-52324000D01*
X121368500Y-52324000D02*
X120116000Y-51071500D01*
X149098000Y-61214000D02*
X148082000Y-60198000D01*
X121368500Y-57404000D02*
X141732000Y-57404000D01*
X120116000Y-56151500D02*
X121368500Y-57404000D01*
X141732000Y-57404000D02*
X144272000Y-59944000D01*
X120116000Y-56151500D02*
X121622500Y-57658000D01*
X129032000Y-65024000D02*
X121368500Y-65024000D01*
X121368500Y-65024000D02*
X120116000Y-63771500D01*
X129032000Y-67564000D02*
X121403500Y-67564000D01*
X121403500Y-67564000D02*
X120116000Y-68851500D01*
X121403500Y-72644000D02*
X120116000Y-73931500D01*
X129032000Y-72644000D02*
X121403500Y-72644000D01*
X129032000Y-75184000D02*
X123943500Y-75184000D01*
X123943500Y-75184000D02*
X120116000Y-79011500D01*
X131572000Y-62484000D02*
X130319500Y-61231500D01*
X130319500Y-61231500D02*
X120116000Y-61231500D01*
X131572000Y-65024000D02*
X130284500Y-66311500D01*
X130284500Y-66311500D02*
X120116000Y-66311500D01*
X131572000Y-67564000D02*
X130536289Y-68599711D01*
X130536289Y-68599711D02*
X122907789Y-68599711D01*
X122907789Y-68599711D02*
X120116000Y-71391500D01*
X131572000Y-72644000D02*
X130536289Y-73679711D01*
X122907789Y-73679711D02*
X120116000Y-76471500D01*
X130536289Y-73679711D02*
X122907789Y-73679711D01*
X131572000Y-75184000D02*
X130536289Y-76219711D01*
X122195922Y-81551500D02*
X120116000Y-81551500D01*
X130536289Y-76219711D02*
X127527711Y-76219711D01*
X127527711Y-76219711D02*
X122195922Y-81551500D01*
X124968000Y-80264000D02*
X121412000Y-83820000D01*
X129032000Y-80264000D02*
X124968000Y-80264000D01*
X121412000Y-87875500D02*
X120116000Y-89171500D01*
X121412000Y-83820000D02*
X121412000Y-87875500D01*
X135356000Y-94251500D02*
X142094782Y-94251500D01*
X153483802Y-89466480D02*
X156776480Y-86173802D01*
X142094782Y-94251500D02*
X146879803Y-89466480D01*
X156776480Y-80068480D02*
X154432000Y-77724000D01*
X156776480Y-86173802D02*
X156776480Y-80068480D01*
X146879803Y-89466480D02*
X153483802Y-89466480D01*
X153111405Y-88567441D02*
X155877440Y-85801406D01*
X145305500Y-89171500D02*
X145909559Y-88567441D01*
X145909559Y-88567441D02*
X153111405Y-88567441D01*
X135356000Y-89171500D02*
X145305500Y-89171500D01*
X155877440Y-85801406D02*
X155877440Y-81709440D01*
X155877440Y-81709440D02*
X154432000Y-80264000D01*
X153162000Y-86868000D02*
X138430000Y-86868000D01*
X137922000Y-84836000D02*
X137177500Y-84091500D01*
X137922000Y-86360000D02*
X137922000Y-84836000D01*
X151892000Y-82804000D02*
X154178000Y-85090000D01*
X137177500Y-84091500D02*
X135356000Y-84091500D01*
X154178000Y-85852000D02*
X153162000Y-86868000D01*
X138430000Y-86868000D02*
X137922000Y-86360000D01*
X154178000Y-85090000D02*
X154178000Y-85852000D01*
X121861520Y-89965980D02*
X120116000Y-91711500D01*
X130536289Y-81299711D02*
X124568007Y-81299711D01*
X121861520Y-84006198D02*
X121861520Y-89965980D01*
X131572000Y-80264000D02*
X130536289Y-81299711D01*
X124568007Y-81299711D02*
X121861520Y-84006198D01*
X157226000Y-77978000D02*
X157226000Y-86360000D01*
X157226000Y-86360000D02*
X153670000Y-89916000D01*
X151892000Y-77724000D02*
X153162000Y-76454000D01*
X140190500Y-96791500D02*
X135356000Y-96791500D01*
X153670000Y-89916000D02*
X147066000Y-89916000D01*
X153162000Y-76454000D02*
X155702000Y-76454000D01*
X155702000Y-76454000D02*
X157226000Y-77978000D01*
X147066000Y-89916000D02*
X140190500Y-96791500D01*
X156326960Y-85987604D02*
X156326960Y-80694242D01*
X156326960Y-80694242D02*
X154861007Y-79228289D01*
X154861007Y-79228289D02*
X152927711Y-79228289D01*
X153297604Y-89016960D02*
X156326960Y-85987604D01*
X135356000Y-91711500D02*
X143999064Y-91711500D01*
X143999064Y-91711500D02*
X146693606Y-89016960D01*
X146693606Y-89016960D02*
X153297604Y-89016960D01*
X152927711Y-79228289D02*
X151892000Y-80264000D01*
X129032000Y-85090000D02*
X130573500Y-86631500D01*
X129032000Y-82804000D02*
X129032000Y-85090000D01*
X130573500Y-86631500D02*
X135356000Y-86631500D01*
X149860000Y-84074000D02*
X150856289Y-83077711D01*
X137177500Y-81551500D02*
X137922000Y-82296000D01*
X137922000Y-82296000D02*
X137922000Y-83312000D01*
X150856289Y-83077711D02*
X150856289Y-82335422D01*
X151423422Y-81768289D02*
X153396289Y-81768289D01*
X150856289Y-82335422D02*
X151423422Y-81768289D01*
X135356000Y-81551500D02*
X137177500Y-81551500D01*
X153396289Y-81768289D02*
X154432000Y-82804000D01*
X137922000Y-83312000D02*
X138684000Y-84074000D01*
X138684000Y-84074000D02*
X149860000Y-84074000D01*
X139183500Y-72644000D02*
X135356000Y-76471500D01*
X151892000Y-72644000D02*
X139183500Y-72644000D01*
X151892000Y-70104000D02*
X136643500Y-70104000D01*
X136643500Y-70104000D02*
X135356000Y-71391500D01*
X136608500Y-67564000D02*
X135356000Y-66311500D01*
X151892000Y-67564000D02*
X136608500Y-67564000D01*
X137922000Y-61722000D02*
X137431500Y-61231500D01*
X137922000Y-64008000D02*
X137922000Y-61722000D01*
X138938000Y-65024000D02*
X137922000Y-64008000D01*
X137431500Y-61231500D02*
X135356000Y-61231500D01*
X151892000Y-65024000D02*
X138938000Y-65024000D01*
X133367500Y-58691500D02*
X132842000Y-59217000D01*
X132842000Y-78740000D02*
X134366000Y-80264000D01*
X134366000Y-80264000D02*
X137668000Y-80264000D01*
X137668000Y-80264000D02*
X139192000Y-81788000D01*
X135356000Y-58691500D02*
X133367500Y-58691500D01*
X132842000Y-59217000D02*
X132842000Y-78740000D01*
X139192000Y-81788000D02*
X139192000Y-82804000D01*
X140687789Y-73679711D02*
X135356000Y-79011500D01*
X153396289Y-73679711D02*
X140687789Y-73679711D01*
X154432000Y-72644000D02*
X153396289Y-73679711D01*
X154432000Y-70104000D02*
X153396289Y-71139711D01*
X153396289Y-71139711D02*
X138147789Y-71139711D01*
X138147789Y-71139711D02*
X135356000Y-73931500D01*
X153144500Y-68851500D02*
X135356000Y-68851500D01*
X154432000Y-67564000D02*
X153144500Y-68851500D01*
X154432000Y-65024000D02*
X153396289Y-66059711D01*
X153396289Y-66059711D02*
X137644211Y-66059711D01*
X137644211Y-66059711D02*
X135356000Y-63771500D01*
M02*
