G04 #@! TF.GenerationSoftware,KiCad,Pcbnew,(6.0.0)*
G04 #@! TF.CreationDate,2023-01-29T20:41:16-05:00*
G04 #@! TF.ProjectId,tms7000 plcc 68 adapter,746d7337-3030-4302-9070-6c6363203638,rev?*
G04 #@! TF.SameCoordinates,Original*
G04 #@! TF.FileFunction,Soldermask,Top*
G04 #@! TF.FilePolarity,Negative*
%FSLAX46Y46*%
G04 Gerber Fmt 4.6, Leading zero omitted, Abs format (unit mm)*
G04 Created by KiCad (PCBNEW (6.0.0)) date 2023-01-29 20:41:16*
%MOMM*%
%LPD*%
G01*
G04 APERTURE LIST*
%ADD10R,1.600000X1.600000*%
%ADD11O,1.600000X1.600000*%
%ADD12O,1.400000X1.400000*%
%ADD13R,1.422400X1.422400*%
%ADD14C,1.422400*%
G04 APERTURE END LIST*
D10*
X120116000Y-48531500D03*
D11*
X120116000Y-51071500D03*
X120116000Y-53611500D03*
X120116000Y-56151500D03*
X120116000Y-58691500D03*
X120116000Y-61231500D03*
X120116000Y-63771500D03*
X120116000Y-66311500D03*
X120116000Y-68851500D03*
X120116000Y-71391500D03*
X120116000Y-73931500D03*
X120116000Y-76471500D03*
X120116000Y-79011500D03*
X120116000Y-81551500D03*
X120116000Y-84091500D03*
X120116000Y-86631500D03*
X120116000Y-89171500D03*
X120116000Y-91711500D03*
X120116000Y-94251500D03*
X120116000Y-96791500D03*
X135356000Y-96791500D03*
X135356000Y-94251500D03*
X135356000Y-91711500D03*
X135356000Y-89171500D03*
D12*
X135356000Y-86631500D03*
X135356000Y-84091500D03*
X135356000Y-81551500D03*
D11*
X135356000Y-79011500D03*
X135356000Y-76471500D03*
X135356000Y-73931500D03*
X135356000Y-71391500D03*
X135356000Y-68851500D03*
X135356000Y-66311500D03*
D12*
X135356000Y-63771500D03*
X135356000Y-61231500D03*
X135356000Y-58691500D03*
D11*
X135356000Y-56151500D03*
X135356000Y-53611500D03*
X135356000Y-51071500D03*
X135356000Y-48531500D03*
D13*
X141732000Y-59944000D03*
D14*
X141732000Y-62484000D03*
X139192000Y-59944000D03*
X139192000Y-62484000D03*
X136652000Y-59944000D03*
X136652000Y-62484000D03*
X134112000Y-59944000D03*
X134112000Y-62484000D03*
X131572000Y-59944000D03*
X129032000Y-62484000D03*
X131572000Y-62484000D03*
X129032000Y-65024000D03*
X131572000Y-65024000D03*
X129032000Y-67564000D03*
X131572000Y-67564000D03*
X129032000Y-70104000D03*
X131572000Y-70104000D03*
X129032000Y-72644000D03*
X131572000Y-72644000D03*
X129032000Y-75184000D03*
X131572000Y-75184000D03*
X129032000Y-77724000D03*
X131572000Y-77724000D03*
X129032000Y-80264000D03*
X131572000Y-80264000D03*
X129032000Y-82804000D03*
X131572000Y-85344000D03*
X131572000Y-82804000D03*
X134112000Y-85344000D03*
X134112000Y-82804000D03*
X136652000Y-85344000D03*
X136652000Y-82804000D03*
X139192000Y-85344000D03*
X139192000Y-82804000D03*
X141732000Y-85344000D03*
X141732000Y-82804000D03*
X144272000Y-85344000D03*
X144272000Y-82804000D03*
X146812000Y-85344000D03*
X146812000Y-82804000D03*
X149352000Y-85344000D03*
X149352000Y-82804000D03*
X151892000Y-85344000D03*
X154432000Y-82804000D03*
X151892000Y-82804000D03*
X154432000Y-80264000D03*
X151892000Y-80264000D03*
X154432000Y-77724000D03*
X151892000Y-77724000D03*
X154432000Y-75184000D03*
X151892000Y-75184000D03*
X154432000Y-72644000D03*
X151892000Y-72644000D03*
X154432000Y-70104000D03*
X151892000Y-70104000D03*
X154432000Y-67564000D03*
X151892000Y-67564000D03*
X154432000Y-65024000D03*
X151892000Y-65024000D03*
X154432000Y-62484000D03*
X151892000Y-59944000D03*
X151892000Y-62484000D03*
X149352000Y-59944000D03*
X149352000Y-62484000D03*
X146812000Y-59944000D03*
X146812000Y-62484000D03*
X144272000Y-59944000D03*
X144272000Y-62484000D03*
M02*
