G04 #@! TF.GenerationSoftware,KiCad,Pcbnew,(6.0.0)*
G04 #@! TF.CreationDate,2023-01-29T20:41:16-05:00*
G04 #@! TF.ProjectId,tms7000 plcc 68 adapter,746d7337-3030-4302-9070-6c6363203638,rev?*
G04 #@! TF.SameCoordinates,Original*
G04 #@! TF.FileFunction,Copper,L2,Bot*
G04 #@! TF.FilePolarity,Positive*
%FSLAX46Y46*%
G04 Gerber Fmt 4.6, Leading zero omitted, Abs format (unit mm)*
G04 Created by KiCad (PCBNEW (6.0.0)) date 2023-01-29 20:41:16*
%MOMM*%
%LPD*%
G01*
G04 APERTURE LIST*
G04 #@! TA.AperFunction,ComponentPad*
%ADD10R,1.600000X1.600000*%
G04 #@! TD*
G04 #@! TA.AperFunction,ComponentPad*
%ADD11O,1.600000X1.600000*%
G04 #@! TD*
G04 #@! TA.AperFunction,ComponentPad*
%ADD12O,1.400000X1.400000*%
G04 #@! TD*
G04 #@! TA.AperFunction,ComponentPad*
%ADD13R,1.422400X1.422400*%
G04 #@! TD*
G04 #@! TA.AperFunction,ComponentPad*
%ADD14C,1.422400*%
G04 #@! TD*
G04 #@! TA.AperFunction,Conductor*
%ADD15C,0.250000*%
G04 #@! TD*
G04 APERTURE END LIST*
D10*
X120116000Y-48531500D03*
D11*
X120116000Y-51071500D03*
X120116000Y-53611500D03*
X120116000Y-56151500D03*
X120116000Y-58691500D03*
X120116000Y-61231500D03*
X120116000Y-63771500D03*
X120116000Y-66311500D03*
X120116000Y-68851500D03*
X120116000Y-71391500D03*
X120116000Y-73931500D03*
X120116000Y-76471500D03*
X120116000Y-79011500D03*
X120116000Y-81551500D03*
X120116000Y-84091500D03*
X120116000Y-86631500D03*
X120116000Y-89171500D03*
X120116000Y-91711500D03*
X120116000Y-94251500D03*
X120116000Y-96791500D03*
X135356000Y-96791500D03*
X135356000Y-94251500D03*
X135356000Y-91711500D03*
X135356000Y-89171500D03*
D12*
X135356000Y-86631500D03*
X135356000Y-84091500D03*
X135356000Y-81551500D03*
D11*
X135356000Y-79011500D03*
X135356000Y-76471500D03*
X135356000Y-73931500D03*
X135356000Y-71391500D03*
X135356000Y-68851500D03*
X135356000Y-66311500D03*
D12*
X135356000Y-63771500D03*
X135356000Y-61231500D03*
X135356000Y-58691500D03*
D11*
X135356000Y-56151500D03*
X135356000Y-53611500D03*
X135356000Y-51071500D03*
X135356000Y-48531500D03*
D13*
X141732000Y-59944000D03*
D14*
X141732000Y-62484000D03*
X139192000Y-59944000D03*
X139192000Y-62484000D03*
X136652000Y-59944000D03*
X136652000Y-62484000D03*
X134112000Y-59944000D03*
X134112000Y-62484000D03*
X131572000Y-59944000D03*
X129032000Y-62484000D03*
X131572000Y-62484000D03*
X129032000Y-65024000D03*
X131572000Y-65024000D03*
X129032000Y-67564000D03*
X131572000Y-67564000D03*
X129032000Y-70104000D03*
X131572000Y-70104000D03*
X129032000Y-72644000D03*
X131572000Y-72644000D03*
X129032000Y-75184000D03*
X131572000Y-75184000D03*
X129032000Y-77724000D03*
X131572000Y-77724000D03*
X129032000Y-80264000D03*
X131572000Y-80264000D03*
X129032000Y-82804000D03*
X131572000Y-85344000D03*
X131572000Y-82804000D03*
X134112000Y-85344000D03*
X134112000Y-82804000D03*
X136652000Y-85344000D03*
X136652000Y-82804000D03*
X139192000Y-85344000D03*
X139192000Y-82804000D03*
X141732000Y-85344000D03*
X141732000Y-82804000D03*
X144272000Y-85344000D03*
X144272000Y-82804000D03*
X146812000Y-85344000D03*
X146812000Y-82804000D03*
X149352000Y-85344000D03*
X149352000Y-82804000D03*
X151892000Y-85344000D03*
X154432000Y-82804000D03*
X151892000Y-82804000D03*
X154432000Y-80264000D03*
X151892000Y-80264000D03*
X154432000Y-77724000D03*
X151892000Y-77724000D03*
X154432000Y-75184000D03*
X151892000Y-75184000D03*
X154432000Y-72644000D03*
X151892000Y-72644000D03*
X154432000Y-70104000D03*
X151892000Y-70104000D03*
X154432000Y-67564000D03*
X151892000Y-67564000D03*
X154432000Y-65024000D03*
X151892000Y-65024000D03*
X154432000Y-62484000D03*
X151892000Y-59944000D03*
X151892000Y-62484000D03*
X149352000Y-59944000D03*
X149352000Y-62484000D03*
X146812000Y-59944000D03*
X146812000Y-62484000D03*
X144272000Y-59944000D03*
X144272000Y-62484000D03*
D15*
X132842000Y-61722000D02*
X132842000Y-62992000D01*
X134874000Y-65024000D02*
X144272000Y-65024000D01*
X122638500Y-61214000D02*
X132334000Y-61214000D01*
X132842000Y-62992000D02*
X134874000Y-65024000D01*
X132334000Y-61214000D02*
X132842000Y-61722000D01*
X144272000Y-65024000D02*
X146812000Y-62484000D01*
X120116000Y-58691500D02*
X122638500Y-61214000D01*
X143019500Y-51071500D02*
X151892000Y-59944000D01*
X135356000Y-51071500D02*
X143019500Y-51071500D01*
X143019500Y-56151500D02*
X146812000Y-59944000D01*
X135356000Y-56151500D02*
X143019500Y-56151500D01*
X133604000Y-56388000D02*
X133604000Y-50283500D01*
X147320000Y-61214000D02*
X143002000Y-61214000D01*
X141732000Y-59944000D02*
X139319000Y-57531000D01*
X148082000Y-63754000D02*
X148082000Y-61976000D01*
X143002000Y-61214000D02*
X141732000Y-59944000D01*
X139319000Y-57531000D02*
X134747000Y-57531000D01*
X134112000Y-75184000D02*
X136652000Y-75184000D01*
X148082000Y-61976000D02*
X147320000Y-61214000D01*
X134747000Y-57531000D02*
X133604000Y-56388000D01*
X136652000Y-75184000D02*
X148082000Y-63754000D01*
X133604000Y-50283500D02*
X135356000Y-48531500D01*
X131572000Y-77724000D02*
X134112000Y-75184000D01*
X142765500Y-53611500D02*
X135356000Y-53611500D01*
X149352000Y-62484000D02*
X148082000Y-61214000D01*
X148082000Y-58928000D02*
X142765500Y-53611500D01*
X148082000Y-61214000D02*
X148082000Y-58928000D01*
X127508000Y-71374000D02*
X121240511Y-77641489D01*
X121240511Y-82966989D02*
X120116000Y-84091500D01*
X130302000Y-71374000D02*
X127508000Y-71374000D01*
X121240511Y-77641489D02*
X121240511Y-82966989D01*
X131572000Y-70104000D02*
X130302000Y-71374000D01*
X120116000Y-94251500D02*
X123943500Y-90424000D01*
X123943500Y-90424000D02*
X136906000Y-90424000D01*
X136906000Y-90424000D02*
X140462000Y-86868000D01*
X140462000Y-86868000D02*
X140462000Y-82042000D01*
X140462000Y-82042000D02*
X147320000Y-75184000D01*
X147320000Y-75184000D02*
X151892000Y-75184000D01*
X120116000Y-86631500D02*
X121920000Y-84827500D01*
X133096000Y-72898000D02*
X133096000Y-69694704D01*
X132235296Y-68834000D02*
X130302000Y-68834000D01*
X127254000Y-73914000D02*
X132080000Y-73914000D01*
X132080000Y-73914000D02*
X133096000Y-72898000D01*
X121920000Y-79248000D02*
X127254000Y-73914000D01*
X130302000Y-68834000D02*
X129032000Y-70104000D01*
X133096000Y-69694704D02*
X132235296Y-68834000D01*
X121920000Y-84827500D02*
X121920000Y-79248000D01*
X145542000Y-86614000D02*
X145542000Y-80772000D01*
X139192000Y-92964000D02*
X145542000Y-86614000D01*
X120116000Y-96791500D02*
X123943500Y-92964000D01*
X123943500Y-92964000D02*
X139192000Y-92964000D01*
X149860000Y-76454000D02*
X153162000Y-76454000D01*
X153162000Y-76454000D02*
X154432000Y-75184000D01*
X145542000Y-80772000D02*
X149860000Y-76454000D01*
M02*
