G04 #@! TF.GenerationSoftware,KiCad,Pcbnew,(6.0.0)*
G04 #@! TF.CreationDate,2023-01-29T20:38:55-05:00*
G04 #@! TF.ProjectId,tms7000 54 pin adapter,746d7337-3030-4302-9035-342070696e20,rev?*
G04 #@! TF.SameCoordinates,Original*
G04 #@! TF.FileFunction,Copper,L1,Top*
G04 #@! TF.FilePolarity,Positive*
%FSLAX46Y46*%
G04 Gerber Fmt 4.6, Leading zero omitted, Abs format (unit mm)*
G04 Created by KiCad (PCBNEW (6.0.0)) date 2023-01-29 20:38:55*
%MOMM*%
%LPD*%
G01*
G04 APERTURE LIST*
G04 #@! TA.AperFunction,ComponentPad*
%ADD10R,1.600000X1.600000*%
G04 #@! TD*
G04 #@! TA.AperFunction,ComponentPad*
%ADD11O,1.600000X1.600000*%
G04 #@! TD*
G04 #@! TA.AperFunction,ComponentPad*
%ADD12C,1.600000*%
G04 #@! TD*
G04 #@! TA.AperFunction,ComponentPad*
%ADD13R,1.100000X1.100000*%
G04 #@! TD*
G04 #@! TA.AperFunction,ComponentPad*
%ADD14C,1.100000*%
G04 #@! TD*
G04 #@! TA.AperFunction,ComponentPad*
%ADD15O,1.400000X1.400000*%
G04 #@! TD*
G04 #@! TA.AperFunction,ViaPad*
%ADD16C,0.800000*%
G04 #@! TD*
G04 #@! TA.AperFunction,Conductor*
%ADD17C,0.250000*%
G04 #@! TD*
G04 APERTURE END LIST*
D10*
X124968000Y-81886315D03*
D11*
X124968000Y-79346315D03*
D12*
X125984000Y-51816000D03*
D11*
X125984000Y-49276000D03*
D10*
X141102000Y-56134000D03*
D11*
X141102000Y-58674000D03*
X141102000Y-61214000D03*
X141102000Y-63754000D03*
X141102000Y-66294000D03*
X141102000Y-68834000D03*
X141102000Y-71374000D03*
X141102000Y-73914000D03*
X141102000Y-76454000D03*
X141102000Y-78994000D03*
X148722000Y-78994000D03*
X148722000Y-76454000D03*
X148722000Y-73914000D03*
X148722000Y-71374000D03*
X148722000Y-68834000D03*
X148722000Y-66294000D03*
X148722000Y-63754000D03*
X148722000Y-61214000D03*
X148722000Y-58674000D03*
X148722000Y-56134000D03*
D13*
X129286000Y-49784000D03*
D14*
X129286000Y-51562000D03*
X129286000Y-53340000D03*
X129286000Y-55118000D03*
X129286000Y-56896000D03*
X129286000Y-58674000D03*
X129286000Y-60452000D03*
X129286000Y-62230000D03*
X129286000Y-64008000D03*
X129286000Y-65786000D03*
X129286000Y-67564000D03*
X129286000Y-69342000D03*
X129286000Y-71120000D03*
X129286000Y-72898000D03*
X129286000Y-74676000D03*
X129286000Y-76454000D03*
X129286000Y-78232000D03*
X129286000Y-80010000D03*
X129286000Y-81788000D03*
X129286000Y-83566000D03*
X129286000Y-85344000D03*
X129286000Y-87122000D03*
X129286000Y-88900000D03*
X129286000Y-90678000D03*
X129286000Y-92456000D03*
X129286000Y-94234000D03*
X129286000Y-96012000D03*
X144526000Y-96012000D03*
X144526000Y-94234000D03*
X144526000Y-92456000D03*
X144526000Y-90678000D03*
X144526000Y-88900000D03*
X144526000Y-87122000D03*
X144526000Y-85344000D03*
X144526000Y-83566000D03*
X144526000Y-81788000D03*
X144526000Y-80010000D03*
X144526000Y-78232000D03*
X144526000Y-76454000D03*
X144526000Y-74676000D03*
X144526000Y-72898000D03*
X144526000Y-71120000D03*
X144526000Y-69342000D03*
X144526000Y-67564000D03*
X144526000Y-65786000D03*
X144526000Y-64008000D03*
X144526000Y-62230000D03*
X144526000Y-60452000D03*
X144526000Y-58674000D03*
X144526000Y-56896000D03*
X144526000Y-55118000D03*
X144526000Y-53340000D03*
X144526000Y-51562000D03*
X144526000Y-49784000D03*
D10*
X120116000Y-48531500D03*
D11*
X120116000Y-51071500D03*
X120116000Y-53611500D03*
X120116000Y-56151500D03*
X120116000Y-58691500D03*
X120116000Y-61231500D03*
X120116000Y-63771500D03*
X120116000Y-66311500D03*
X120116000Y-68851500D03*
X120116000Y-71391500D03*
X120116000Y-73931500D03*
X120116000Y-76471500D03*
X120116000Y-79011500D03*
X120116000Y-81551500D03*
X120116000Y-84091500D03*
X120116000Y-86631500D03*
X120116000Y-89171500D03*
X120116000Y-91711500D03*
X120116000Y-94251500D03*
X120116000Y-96791500D03*
X135356000Y-96791500D03*
X135356000Y-94251500D03*
X135356000Y-91711500D03*
X135356000Y-89171500D03*
D15*
X135356000Y-86631500D03*
X135356000Y-84091500D03*
X135356000Y-81551500D03*
D11*
X135356000Y-79011500D03*
X135356000Y-76471500D03*
X135356000Y-73931500D03*
X135356000Y-71391500D03*
X135356000Y-68851500D03*
X135356000Y-66311500D03*
D15*
X135356000Y-63771500D03*
X135356000Y-61231500D03*
X135356000Y-58691500D03*
D11*
X135356000Y-56151500D03*
X135356000Y-53611500D03*
X135356000Y-51071500D03*
X135356000Y-48531500D03*
D12*
X122936000Y-53115000D03*
D11*
X122936000Y-50575000D03*
D10*
X142240000Y-50800000D03*
D11*
X139700000Y-50800000D03*
D10*
X142240000Y-48260000D03*
D11*
X139700000Y-48260000D03*
D10*
X142240000Y-53340000D03*
D11*
X139700000Y-53340000D03*
D16*
X124460000Y-87884000D03*
X122936000Y-87630000D03*
X131064000Y-73914000D03*
X132588000Y-76454000D03*
X130556000Y-71882000D03*
D17*
X123649200Y-48531500D02*
X120116000Y-48531500D01*
X129286000Y-49784000D02*
X128669489Y-50400511D01*
X128669489Y-50400511D02*
X125518211Y-50400511D01*
X125518211Y-50400511D02*
X123649200Y-48531500D01*
X129286000Y-53340000D02*
X128386489Y-54239511D01*
X128386489Y-54239511D02*
X120744011Y-54239511D01*
X120744011Y-54239511D02*
X120116000Y-53611500D01*
X121911500Y-56896000D02*
X120116000Y-58691500D01*
X129286000Y-56896000D02*
X121911500Y-56896000D01*
X139700000Y-53340000D02*
X139700000Y-50800000D01*
X135356000Y-51071500D02*
X139428500Y-51071500D01*
X139428500Y-51071500D02*
X139700000Y-50800000D01*
X139700000Y-50800000D02*
X139700000Y-48260000D01*
X123327511Y-51699511D02*
X120744011Y-51699511D01*
X120744011Y-51699511D02*
X120116000Y-51071500D01*
X129286000Y-51562000D02*
X127907489Y-52940511D01*
X124568511Y-52940511D02*
X123327511Y-51699511D01*
X127907489Y-52940511D02*
X124568511Y-52940511D01*
X121149500Y-55118000D02*
X120116000Y-56151500D01*
X129286000Y-55118000D02*
X121149500Y-55118000D01*
X126728500Y-48531500D02*
X135356000Y-48531500D01*
X125984000Y-49276000D02*
X126728500Y-48531500D01*
X123756480Y-67411980D02*
X123756480Y-69146480D01*
X120116000Y-63771500D02*
X123756480Y-67411980D01*
X123756480Y-69146480D02*
X129286000Y-74676000D01*
X120116000Y-68851500D02*
X129286000Y-78021500D01*
X129286000Y-78021500D02*
X129286000Y-78232000D01*
X126092511Y-82150511D02*
X126092511Y-80761804D01*
X121240511Y-77298511D02*
X121240511Y-75056011D01*
X124703804Y-80761804D02*
X121240511Y-77298511D01*
X121240511Y-75056011D02*
X120116000Y-73931500D01*
X129286000Y-85344000D02*
X126092511Y-82150511D01*
X126092511Y-80761804D02*
X124703804Y-80761804D01*
X120116000Y-79011500D02*
X120116000Y-79730000D01*
X120116000Y-79730000D02*
X129286000Y-88900000D01*
X124460000Y-87884000D02*
X120667500Y-84091500D01*
X120667500Y-84091500D02*
X120116000Y-84091500D01*
X120116000Y-61231500D02*
X124206000Y-65321500D01*
X124206000Y-65321500D02*
X124206000Y-67818000D01*
X124206000Y-67818000D02*
X129286000Y-72898000D01*
X120116000Y-66311500D02*
X128411489Y-74606989D01*
X128411489Y-74606989D02*
X128411489Y-75579489D01*
X128411489Y-75579489D02*
X129286000Y-76454000D01*
X120116000Y-71391500D02*
X128734500Y-80010000D01*
X128734500Y-80010000D02*
X129286000Y-80010000D01*
X129242500Y-90678000D02*
X129286000Y-90678000D01*
X120116000Y-81551500D02*
X129242500Y-90678000D01*
X120116000Y-89171500D02*
X126001500Y-89171500D01*
X126001500Y-89171500D02*
X129286000Y-92456000D01*
X135356000Y-94251500D02*
X140952500Y-94251500D01*
X140952500Y-94251500D02*
X144526000Y-90678000D01*
X142476500Y-89171500D02*
X144526000Y-87122000D01*
X135356000Y-89171500D02*
X142476500Y-89171500D01*
X135356000Y-84091500D02*
X136608500Y-85344000D01*
X136608500Y-85344000D02*
X144526000Y-85344000D01*
X120116000Y-86631500D02*
X121937500Y-86631500D01*
X121937500Y-86631500D02*
X122936000Y-87630000D01*
X120116000Y-91711500D02*
X126763500Y-91711500D01*
X126763500Y-91711500D02*
X129286000Y-94234000D01*
X144526000Y-94234000D02*
X140843989Y-97916011D01*
X140843989Y-97916011D02*
X121240511Y-97916011D01*
X121240511Y-97916011D02*
X120116000Y-96791500D01*
X140190500Y-96791500D02*
X144526000Y-92456000D01*
X135356000Y-96791500D02*
X140190500Y-96791500D01*
X135356000Y-91711500D02*
X141714500Y-91711500D01*
X141714500Y-91711500D02*
X144526000Y-88900000D01*
X143264989Y-80526989D02*
X134865011Y-80526989D01*
X134331489Y-85606989D02*
X135356000Y-86631500D01*
X134331489Y-81060511D02*
X134331489Y-85606989D01*
X134865011Y-80526989D02*
X134331489Y-81060511D01*
X144526000Y-81788000D02*
X143264989Y-80526989D01*
X137370500Y-83566000D02*
X144526000Y-83566000D01*
X135356000Y-81551500D02*
X137370500Y-83566000D01*
X142094511Y-57549489D02*
X144526000Y-55118000D01*
X135356000Y-58691500D02*
X136498011Y-57549489D01*
X136498011Y-57549489D02*
X142094511Y-57549489D01*
X144526000Y-49784000D02*
X143002000Y-48260000D01*
X143002000Y-48260000D02*
X142240000Y-48260000D01*
X143002000Y-51562000D02*
X142240000Y-50800000D01*
X144526000Y-51562000D02*
X143002000Y-51562000D01*
X144526000Y-53340000D02*
X142240000Y-53340000D01*
X124968000Y-82804000D02*
X124968000Y-81886315D01*
X129286000Y-87122000D02*
X124968000Y-82804000D01*
X144526000Y-67564000D02*
X142372000Y-67564000D01*
X142372000Y-67564000D02*
X141102000Y-66294000D01*
X145400511Y-66660511D02*
X145400511Y-68213489D01*
X144526000Y-65786000D02*
X145400511Y-66660511D01*
X141468511Y-68467489D02*
X141102000Y-68834000D01*
X145400511Y-68213489D02*
X145146511Y-68467489D01*
X145146511Y-68467489D02*
X141468511Y-68467489D01*
X143754511Y-73801489D02*
X141102000Y-76454000D01*
X145850031Y-65332031D02*
X145850031Y-72839693D01*
X144526000Y-64008000D02*
X145850031Y-65332031D01*
X145850031Y-72839693D02*
X144888235Y-73801489D01*
X144888235Y-73801489D02*
X143754511Y-73801489D01*
X148722000Y-76454000D02*
X146558000Y-74290000D01*
X146558000Y-74290000D02*
X146558000Y-64262000D01*
X146558000Y-64262000D02*
X144526000Y-62230000D01*
X129286000Y-60452000D02*
X131580989Y-62746989D01*
X140094989Y-62746989D02*
X141102000Y-63754000D01*
X131580989Y-62746989D02*
X140094989Y-62746989D01*
X137164011Y-69976011D02*
X134746011Y-69976011D01*
X141102000Y-73914000D02*
X137164011Y-69976011D01*
X134746011Y-69976011D02*
X129286000Y-64516000D01*
X129286000Y-64516000D02*
X129286000Y-64008000D01*
X131280511Y-73697489D02*
X131280511Y-69558511D01*
X131280511Y-69558511D02*
X129286000Y-67564000D01*
X131064000Y-73914000D02*
X131280511Y-73697489D01*
X147147969Y-67259969D02*
X147147969Y-63073969D01*
X148722000Y-68834000D02*
X147147969Y-67259969D01*
X147147969Y-63073969D02*
X144526000Y-60452000D01*
X148722000Y-66294000D02*
X147597489Y-65169489D01*
X147597489Y-65169489D02*
X147597489Y-61745489D01*
X147597489Y-61745489D02*
X144526000Y-58674000D01*
X144526000Y-56896000D02*
X146944000Y-56896000D01*
X146944000Y-56896000D02*
X148722000Y-58674000D01*
X140094989Y-60206989D02*
X141102000Y-61214000D01*
X129286000Y-58674000D02*
X130818989Y-60206989D01*
X130818989Y-60206989D02*
X140094989Y-60206989D01*
X137454989Y-67726989D02*
X134782989Y-67726989D01*
X141102000Y-71374000D02*
X137454989Y-67726989D01*
X134782989Y-67726989D02*
X129286000Y-62230000D01*
X132588000Y-69088000D02*
X129286000Y-65786000D01*
X132588000Y-76454000D02*
X132588000Y-69088000D01*
X130556000Y-71882000D02*
X130556000Y-70612000D01*
X130556000Y-70612000D02*
X129286000Y-69342000D01*
M02*
