G04 #@! TF.GenerationSoftware,KiCad,Pcbnew,(6.0.0)*
G04 #@! TF.CreationDate,2023-01-29T20:38:55-05:00*
G04 #@! TF.ProjectId,tms7000 54 pin adapter,746d7337-3030-4302-9035-342070696e20,rev?*
G04 #@! TF.SameCoordinates,Original*
G04 #@! TF.FileFunction,Soldermask,Bot*
G04 #@! TF.FilePolarity,Negative*
%FSLAX46Y46*%
G04 Gerber Fmt 4.6, Leading zero omitted, Abs format (unit mm)*
G04 Created by KiCad (PCBNEW (6.0.0)) date 2023-01-29 20:38:55*
%MOMM*%
%LPD*%
G01*
G04 APERTURE LIST*
%ADD10R,1.600000X1.600000*%
%ADD11O,1.600000X1.600000*%
%ADD12C,1.600000*%
%ADD13R,1.100000X1.100000*%
%ADD14C,1.100000*%
%ADD15O,1.400000X1.400000*%
G04 APERTURE END LIST*
D10*
X124968000Y-81886315D03*
D11*
X124968000Y-79346315D03*
D12*
X125984000Y-51816000D03*
D11*
X125984000Y-49276000D03*
D10*
X141102000Y-56134000D03*
D11*
X141102000Y-58674000D03*
X141102000Y-61214000D03*
X141102000Y-63754000D03*
X141102000Y-66294000D03*
X141102000Y-68834000D03*
X141102000Y-71374000D03*
X141102000Y-73914000D03*
X141102000Y-76454000D03*
X141102000Y-78994000D03*
X148722000Y-78994000D03*
X148722000Y-76454000D03*
X148722000Y-73914000D03*
X148722000Y-71374000D03*
X148722000Y-68834000D03*
X148722000Y-66294000D03*
X148722000Y-63754000D03*
X148722000Y-61214000D03*
X148722000Y-58674000D03*
X148722000Y-56134000D03*
D13*
X129286000Y-49784000D03*
D14*
X129286000Y-51562000D03*
X129286000Y-53340000D03*
X129286000Y-55118000D03*
X129286000Y-56896000D03*
X129286000Y-58674000D03*
X129286000Y-60452000D03*
X129286000Y-62230000D03*
X129286000Y-64008000D03*
X129286000Y-65786000D03*
X129286000Y-67564000D03*
X129286000Y-69342000D03*
X129286000Y-71120000D03*
X129286000Y-72898000D03*
X129286000Y-74676000D03*
X129286000Y-76454000D03*
X129286000Y-78232000D03*
X129286000Y-80010000D03*
X129286000Y-81788000D03*
X129286000Y-83566000D03*
X129286000Y-85344000D03*
X129286000Y-87122000D03*
X129286000Y-88900000D03*
X129286000Y-90678000D03*
X129286000Y-92456000D03*
X129286000Y-94234000D03*
X129286000Y-96012000D03*
X144526000Y-96012000D03*
X144526000Y-94234000D03*
X144526000Y-92456000D03*
X144526000Y-90678000D03*
X144526000Y-88900000D03*
X144526000Y-87122000D03*
X144526000Y-85344000D03*
X144526000Y-83566000D03*
X144526000Y-81788000D03*
X144526000Y-80010000D03*
X144526000Y-78232000D03*
X144526000Y-76454000D03*
X144526000Y-74676000D03*
X144526000Y-72898000D03*
X144526000Y-71120000D03*
X144526000Y-69342000D03*
X144526000Y-67564000D03*
X144526000Y-65786000D03*
X144526000Y-64008000D03*
X144526000Y-62230000D03*
X144526000Y-60452000D03*
X144526000Y-58674000D03*
X144526000Y-56896000D03*
X144526000Y-55118000D03*
X144526000Y-53340000D03*
X144526000Y-51562000D03*
X144526000Y-49784000D03*
D10*
X120116000Y-48531500D03*
D11*
X120116000Y-51071500D03*
X120116000Y-53611500D03*
X120116000Y-56151500D03*
X120116000Y-58691500D03*
X120116000Y-61231500D03*
X120116000Y-63771500D03*
X120116000Y-66311500D03*
X120116000Y-68851500D03*
X120116000Y-71391500D03*
X120116000Y-73931500D03*
X120116000Y-76471500D03*
X120116000Y-79011500D03*
X120116000Y-81551500D03*
X120116000Y-84091500D03*
X120116000Y-86631500D03*
X120116000Y-89171500D03*
X120116000Y-91711500D03*
X120116000Y-94251500D03*
X120116000Y-96791500D03*
X135356000Y-96791500D03*
X135356000Y-94251500D03*
X135356000Y-91711500D03*
X135356000Y-89171500D03*
D15*
X135356000Y-86631500D03*
X135356000Y-84091500D03*
X135356000Y-81551500D03*
D11*
X135356000Y-79011500D03*
X135356000Y-76471500D03*
X135356000Y-73931500D03*
X135356000Y-71391500D03*
X135356000Y-68851500D03*
X135356000Y-66311500D03*
D15*
X135356000Y-63771500D03*
X135356000Y-61231500D03*
X135356000Y-58691500D03*
D11*
X135356000Y-56151500D03*
X135356000Y-53611500D03*
X135356000Y-51071500D03*
X135356000Y-48531500D03*
D12*
X122936000Y-53115000D03*
D11*
X122936000Y-50575000D03*
D10*
X142240000Y-50800000D03*
D11*
X139700000Y-50800000D03*
D10*
X142240000Y-48260000D03*
D11*
X139700000Y-48260000D03*
D10*
X142240000Y-53340000D03*
D11*
X139700000Y-53340000D03*
M02*
