G04 #@! TF.GenerationSoftware,KiCad,Pcbnew,(6.0.0)*
G04 #@! TF.CreationDate,2023-01-29T20:38:55-05:00*
G04 #@! TF.ProjectId,tms7000 54 pin adapter,746d7337-3030-4302-9035-342070696e20,rev?*
G04 #@! TF.SameCoordinates,Original*
G04 #@! TF.FileFunction,Legend,Top*
G04 #@! TF.FilePolarity,Positive*
%FSLAX46Y46*%
G04 Gerber Fmt 4.6, Leading zero omitted, Abs format (unit mm)*
G04 Created by KiCad (PCBNEW (6.0.0)) date 2023-01-29 20:38:55*
%MOMM*%
%LPD*%
G01*
G04 APERTURE LIST*
%ADD10C,0.150000*%
%ADD11C,0.254000*%
%ADD12C,0.120000*%
%ADD13C,0.200000*%
%ADD14R,1.600000X1.600000*%
%ADD15O,1.600000X1.600000*%
%ADD16C,1.600000*%
%ADD17R,1.100000X1.100000*%
%ADD18C,1.100000*%
%ADD19O,1.400000X1.400000*%
G04 APERTURE END LIST*
D10*
X122853380Y-76898095D02*
X122853380Y-76326666D01*
X123853380Y-76612380D02*
X122853380Y-76612380D01*
X123853380Y-75993333D02*
X122853380Y-75993333D01*
X123567666Y-75660000D01*
X122853380Y-75326666D01*
X123853380Y-75326666D01*
X123805761Y-74898095D02*
X123853380Y-74755238D01*
X123853380Y-74517142D01*
X123805761Y-74421904D01*
X123758142Y-74374285D01*
X123662904Y-74326666D01*
X123567666Y-74326666D01*
X123472428Y-74374285D01*
X123424809Y-74421904D01*
X123377190Y-74517142D01*
X123329571Y-74707619D01*
X123281952Y-74802857D01*
X123234333Y-74850476D01*
X123139095Y-74898095D01*
X123043857Y-74898095D01*
X122948619Y-74850476D01*
X122901000Y-74802857D01*
X122853380Y-74707619D01*
X122853380Y-74469523D01*
X122901000Y-74326666D01*
X122853380Y-73993333D02*
X122853380Y-73326666D01*
X123853380Y-73755238D01*
X122853380Y-72755238D02*
X122853380Y-72660000D01*
X122901000Y-72564761D01*
X122948619Y-72517142D01*
X123043857Y-72469523D01*
X123234333Y-72421904D01*
X123472428Y-72421904D01*
X123662904Y-72469523D01*
X123758142Y-72517142D01*
X123805761Y-72564761D01*
X123853380Y-72660000D01*
X123853380Y-72755238D01*
X123805761Y-72850476D01*
X123758142Y-72898095D01*
X123662904Y-72945714D01*
X123472428Y-72993333D01*
X123234333Y-72993333D01*
X123043857Y-72945714D01*
X122948619Y-72898095D01*
X122901000Y-72850476D01*
X122853380Y-72755238D01*
X122853380Y-71802857D02*
X122853380Y-71707619D01*
X122901000Y-71612380D01*
X122948619Y-71564761D01*
X123043857Y-71517142D01*
X123234333Y-71469523D01*
X123472428Y-71469523D01*
X123662904Y-71517142D01*
X123758142Y-71564761D01*
X123805761Y-71612380D01*
X123853380Y-71707619D01*
X123853380Y-71802857D01*
X123805761Y-71898095D01*
X123758142Y-71945714D01*
X123662904Y-71993333D01*
X123472428Y-72040952D01*
X123234333Y-72040952D01*
X123043857Y-71993333D01*
X122948619Y-71945714D01*
X122901000Y-71898095D01*
X122853380Y-71802857D01*
X122853380Y-70850476D02*
X122853380Y-70755238D01*
X122901000Y-70660000D01*
X122948619Y-70612380D01*
X123043857Y-70564761D01*
X123234333Y-70517142D01*
X123472428Y-70517142D01*
X123662904Y-70564761D01*
X123758142Y-70612380D01*
X123805761Y-70660000D01*
X123853380Y-70755238D01*
X123853380Y-70850476D01*
X123805761Y-70945714D01*
X123758142Y-70993333D01*
X123662904Y-71040952D01*
X123472428Y-71088571D01*
X123234333Y-71088571D01*
X123043857Y-71040952D01*
X122948619Y-70993333D01*
X122901000Y-70945714D01*
X122853380Y-70850476D01*
X124796714Y-75921904D02*
X124796714Y-75540952D01*
X124463380Y-75779047D02*
X125320523Y-75779047D01*
X125415761Y-75731428D01*
X125463380Y-75636190D01*
X125463380Y-75540952D01*
X125463380Y-75064761D02*
X125415761Y-75160000D01*
X125368142Y-75207619D01*
X125272904Y-75255238D01*
X124987190Y-75255238D01*
X124891952Y-75207619D01*
X124844333Y-75160000D01*
X124796714Y-75064761D01*
X124796714Y-74921904D01*
X124844333Y-74826666D01*
X124891952Y-74779047D01*
X124987190Y-74731428D01*
X125272904Y-74731428D01*
X125368142Y-74779047D01*
X125415761Y-74826666D01*
X125463380Y-74921904D01*
X125463380Y-75064761D01*
X125463380Y-73540952D02*
X124463380Y-73540952D01*
X124463380Y-73302857D01*
X124511000Y-73160000D01*
X124606238Y-73064761D01*
X124701476Y-73017142D01*
X124891952Y-72969523D01*
X125034809Y-72969523D01*
X125225285Y-73017142D01*
X125320523Y-73064761D01*
X125415761Y-73160000D01*
X125463380Y-73302857D01*
X125463380Y-73540952D01*
X125463380Y-72540952D02*
X124463380Y-72540952D01*
X125463380Y-72064761D02*
X124463380Y-72064761D01*
X124463380Y-71683809D01*
X124511000Y-71588571D01*
X124558619Y-71540952D01*
X124653857Y-71493333D01*
X124796714Y-71493333D01*
X124891952Y-71540952D01*
X124939571Y-71588571D01*
X124987190Y-71683809D01*
X124987190Y-72064761D01*
X122205714Y-48966380D02*
X121634285Y-48966380D01*
X121920000Y-48966380D02*
X121920000Y-47966380D01*
X121824761Y-48109238D01*
X121729523Y-48204476D01*
X121634285Y-48252095D01*
X124377380Y-68412761D02*
X124377380Y-68317523D01*
X124425000Y-68222285D01*
X124472619Y-68174666D01*
X124567857Y-68127047D01*
X124758333Y-68079428D01*
X124996428Y-68079428D01*
X125186904Y-68127047D01*
X125282142Y-68174666D01*
X125329761Y-68222285D01*
X125377380Y-68317523D01*
X125377380Y-68412761D01*
X125329761Y-68508000D01*
X125282142Y-68555619D01*
X125186904Y-68603238D01*
X124996428Y-68650857D01*
X124758333Y-68650857D01*
X124567857Y-68603238D01*
X124472619Y-68555619D01*
X124425000Y-68508000D01*
X124377380Y-68412761D01*
X125282142Y-67650857D02*
X125329761Y-67603238D01*
X125377380Y-67650857D01*
X125329761Y-67698476D01*
X125282142Y-67650857D01*
X125377380Y-67650857D01*
X124377380Y-66984190D02*
X124377380Y-66888952D01*
X124425000Y-66793714D01*
X124472619Y-66746095D01*
X124567857Y-66698476D01*
X124758333Y-66650857D01*
X124996428Y-66650857D01*
X125186904Y-66698476D01*
X125282142Y-66746095D01*
X125329761Y-66793714D01*
X125377380Y-66888952D01*
X125377380Y-66984190D01*
X125329761Y-67079428D01*
X125282142Y-67127047D01*
X125186904Y-67174666D01*
X124996428Y-67222285D01*
X124758333Y-67222285D01*
X124567857Y-67174666D01*
X124472619Y-67127047D01*
X124425000Y-67079428D01*
X124377380Y-66984190D01*
X124377380Y-66317523D02*
X124377380Y-65650857D01*
X125377380Y-66079428D01*
X124377380Y-65317523D02*
X124567857Y-65317523D01*
X124377380Y-64936571D02*
X124567857Y-64936571D01*
X125329761Y-63793714D02*
X125377380Y-63698476D01*
X125377380Y-63508000D01*
X125329761Y-63412761D01*
X125234523Y-63365142D01*
X125186904Y-63365142D01*
X125091666Y-63412761D01*
X125044047Y-63508000D01*
X125044047Y-63650857D01*
X124996428Y-63746095D01*
X124901190Y-63793714D01*
X124853571Y-63793714D01*
X124758333Y-63746095D01*
X124710714Y-63650857D01*
X124710714Y-63508000D01*
X124758333Y-63412761D01*
X125377380Y-62793714D02*
X125329761Y-62888952D01*
X125282142Y-62936571D01*
X125186904Y-62984190D01*
X124901190Y-62984190D01*
X124805952Y-62936571D01*
X124758333Y-62888952D01*
X124710714Y-62793714D01*
X124710714Y-62650857D01*
X124758333Y-62555619D01*
X124805952Y-62508000D01*
X124901190Y-62460380D01*
X125186904Y-62460380D01*
X125282142Y-62508000D01*
X125329761Y-62555619D01*
X125377380Y-62650857D01*
X125377380Y-62793714D01*
X125329761Y-61603238D02*
X125377380Y-61698476D01*
X125377380Y-61888952D01*
X125329761Y-61984190D01*
X125282142Y-62031809D01*
X125186904Y-62079428D01*
X124901190Y-62079428D01*
X124805952Y-62031809D01*
X124758333Y-61984190D01*
X124710714Y-61888952D01*
X124710714Y-61698476D01*
X124758333Y-61603238D01*
X125377380Y-61174666D02*
X124377380Y-61174666D01*
X124996428Y-61079428D02*
X125377380Y-60793714D01*
X124710714Y-60793714D02*
X125091666Y-61174666D01*
X125329761Y-59984190D02*
X125377380Y-60079428D01*
X125377380Y-60269904D01*
X125329761Y-60365142D01*
X125234523Y-60412761D01*
X124853571Y-60412761D01*
X124758333Y-60365142D01*
X124710714Y-60269904D01*
X124710714Y-60079428D01*
X124758333Y-59984190D01*
X124853571Y-59936571D01*
X124948809Y-59936571D01*
X125044047Y-60412761D01*
X124710714Y-59650857D02*
X124710714Y-59269904D01*
X124377380Y-59508000D02*
X125234523Y-59508000D01*
X125329761Y-59460380D01*
X125377380Y-59365142D01*
X125377380Y-59269904D01*
X126987380Y-66103238D02*
X126939761Y-66198476D01*
X126892142Y-66246095D01*
X126796904Y-66293714D01*
X126511190Y-66293714D01*
X126415952Y-66246095D01*
X126368333Y-66198476D01*
X126320714Y-66103238D01*
X126320714Y-65960380D01*
X126368333Y-65865142D01*
X126415952Y-65817523D01*
X126511190Y-65769904D01*
X126796904Y-65769904D01*
X126892142Y-65817523D01*
X126939761Y-65865142D01*
X126987380Y-65960380D01*
X126987380Y-66103238D01*
X126320714Y-65341333D02*
X126987380Y-65341333D01*
X126415952Y-65341333D02*
X126368333Y-65293714D01*
X126320714Y-65198476D01*
X126320714Y-65055619D01*
X126368333Y-64960380D01*
X126463571Y-64912761D01*
X126987380Y-64912761D01*
X126320714Y-63817523D02*
X126320714Y-63436571D01*
X125987380Y-63674666D02*
X126844523Y-63674666D01*
X126939761Y-63627047D01*
X126987380Y-63531809D01*
X126987380Y-63436571D01*
X126987380Y-62960380D02*
X126939761Y-63055619D01*
X126892142Y-63103238D01*
X126796904Y-63150857D01*
X126511190Y-63150857D01*
X126415952Y-63103238D01*
X126368333Y-63055619D01*
X126320714Y-62960380D01*
X126320714Y-62817523D01*
X126368333Y-62722285D01*
X126415952Y-62674666D01*
X126511190Y-62627047D01*
X126796904Y-62627047D01*
X126892142Y-62674666D01*
X126939761Y-62722285D01*
X126987380Y-62817523D01*
X126987380Y-62960380D01*
X126320714Y-62198476D02*
X127320714Y-62198476D01*
X126368333Y-62198476D02*
X126320714Y-62103238D01*
X126320714Y-61912761D01*
X126368333Y-61817523D01*
X126415952Y-61769904D01*
X126511190Y-61722285D01*
X126796904Y-61722285D01*
X126892142Y-61769904D01*
X126939761Y-61817523D01*
X126987380Y-61912761D01*
X126987380Y-62103238D01*
X126939761Y-62198476D01*
X125134666Y-77784410D02*
X125134666Y-77308219D01*
X125420380Y-77879648D02*
X124420380Y-77546315D01*
X125420380Y-77212981D01*
X125769714Y-56017571D02*
X126436380Y-56017571D01*
X125388761Y-56255666D02*
X126103047Y-56493761D01*
X126103047Y-55874714D01*
X126341142Y-55493761D02*
X126388761Y-55446142D01*
X126436380Y-55493761D01*
X126388761Y-55541380D01*
X126341142Y-55493761D01*
X126436380Y-55493761D01*
X125436380Y-55112809D02*
X125436380Y-54446142D01*
X126436380Y-54874714D01*
X126436380Y-54065190D02*
X125436380Y-54065190D01*
X126055428Y-53969952D02*
X126436380Y-53684238D01*
X125769714Y-53684238D02*
X126150666Y-54065190D01*
D11*
X128862666Y-49088523D02*
X128862666Y-49995666D01*
X128802190Y-50177095D01*
X128681238Y-50298047D01*
X128499809Y-50358523D01*
X128378857Y-50358523D01*
X130132666Y-50358523D02*
X129406952Y-50358523D01*
X129769809Y-50358523D02*
X129769809Y-49088523D01*
X129648857Y-49269952D01*
X129527904Y-49390904D01*
X129406952Y-49451380D01*
D10*
X122721714Y-57316571D02*
X123388380Y-57316571D01*
X122340761Y-57554666D02*
X123055047Y-57792761D01*
X123055047Y-57173714D01*
X123293142Y-56792761D02*
X123340761Y-56745142D01*
X123388380Y-56792761D01*
X123340761Y-56840380D01*
X123293142Y-56792761D01*
X123388380Y-56792761D01*
X122388380Y-56411809D02*
X122388380Y-55745142D01*
X123388380Y-56173714D01*
X123388380Y-55364190D02*
X122388380Y-55364190D01*
X123007428Y-55268952D02*
X123388380Y-54983238D01*
X122721714Y-54983238D02*
X123102666Y-55364190D01*
D12*
X124968000Y-80559944D02*
X124968000Y-80446315D01*
X126294371Y-81886315D02*
G75*
G03*
X126294371Y-81886315I-1326371J0D01*
G01*
X125984000Y-50446000D02*
X125984000Y-50376000D01*
X127354000Y-51816000D02*
G75*
G03*
X127354000Y-51816000I-1370000J0D01*
G01*
X142262000Y-54804000D02*
X142262000Y-80324000D01*
X143912000Y-54804000D02*
X142262000Y-54804000D01*
X142262000Y-80324000D02*
X147562000Y-80324000D01*
X147562000Y-80324000D02*
X147562000Y-54804000D01*
X147562000Y-54804000D02*
X145912000Y-54804000D01*
X143912000Y-54804000D02*
G75*
G03*
X145912000Y-54804000I1000000J0D01*
G01*
D13*
X145726000Y-48775000D02*
X128086000Y-48775000D01*
X128086000Y-48775000D02*
X128086000Y-49784000D01*
X128086000Y-97021000D02*
X145726000Y-97021000D01*
D12*
X118786000Y-98181500D02*
X136686000Y-98181500D01*
X118786000Y-47141500D02*
X118786000Y-98181500D01*
X136686000Y-98181500D02*
X136686000Y-47141500D01*
X134196000Y-47201500D02*
X128736000Y-47201500D01*
X126736000Y-47201500D02*
X121276000Y-47201500D01*
X134196000Y-98121500D02*
X134196000Y-47201500D01*
X136686000Y-47141500D02*
X118786000Y-47141500D01*
X121276000Y-47201500D02*
X121276000Y-98121500D01*
X121276000Y-98121500D02*
X134196000Y-98121500D01*
X126736000Y-47201500D02*
G75*
G03*
X128736000Y-47201500I1000000J0D01*
G01*
G36*
X123508492Y-95413189D02*
G01*
X123530321Y-95428119D01*
X123557311Y-95446838D01*
X123559796Y-95448574D01*
X123628943Y-95492323D01*
X123706439Y-95533821D01*
X123783436Y-95568426D01*
X123802343Y-95575745D01*
X123838061Y-95588119D01*
X123879303Y-95600990D01*
X123921759Y-95613177D01*
X123961119Y-95623502D01*
X123993073Y-95630782D01*
X124013311Y-95633837D01*
X124014532Y-95633865D01*
X124023124Y-95639842D01*
X124042736Y-95657008D01*
X124072174Y-95684216D01*
X124110240Y-95720318D01*
X124155740Y-95764168D01*
X124207477Y-95814618D01*
X124264255Y-95870520D01*
X124324880Y-95930728D01*
X124347620Y-95953441D01*
X124667108Y-96273016D01*
X124661761Y-96320204D01*
X124658565Y-96348214D01*
X124654018Y-96387812D01*
X124648772Y-96433338D01*
X124644354Y-96471562D01*
X124638285Y-96525271D01*
X124631764Y-96585060D01*
X124625756Y-96641977D01*
X124622782Y-96671220D01*
X124618394Y-96713885D01*
X124614078Y-96753518D01*
X124610417Y-96784867D01*
X124608529Y-96799261D01*
X124603791Y-96831814D01*
X123816891Y-96831814D01*
X123812152Y-96799261D01*
X123809318Y-96777030D01*
X123805415Y-96742768D01*
X123801027Y-96701727D01*
X123797925Y-96671220D01*
X123792532Y-96619312D01*
X123785977Y-96559664D01*
X123779313Y-96501753D01*
X123776207Y-96475902D01*
X123770408Y-96425843D01*
X123764754Y-96372369D01*
X123760060Y-96323404D01*
X123758034Y-96299362D01*
X123754244Y-96263393D01*
X123749417Y-96236247D01*
X123744264Y-96221545D01*
X123742493Y-96220004D01*
X123716768Y-96212254D01*
X123680974Y-96200632D01*
X123639887Y-96186787D01*
X123598284Y-96172363D01*
X123560942Y-96159008D01*
X123532637Y-96148367D01*
X123522388Y-96144151D01*
X123485495Y-96127858D01*
X123485495Y-95763158D01*
X123485591Y-95671036D01*
X123485906Y-95595002D01*
X123486478Y-95533781D01*
X123487346Y-95486100D01*
X123488548Y-95450686D01*
X123490123Y-95426265D01*
X123492110Y-95411565D01*
X123494546Y-95405310D01*
X123496346Y-95405143D01*
X123508492Y-95413189D01*
G37*
G36*
X126034143Y-94040576D02*
G01*
X126063968Y-94043882D01*
X126105141Y-94048542D01*
X126151770Y-94053885D01*
X126189562Y-94058261D01*
X126243268Y-94064358D01*
X126303055Y-94070902D01*
X126359969Y-94076922D01*
X126389220Y-94079900D01*
X126431885Y-94084287D01*
X126471518Y-94088603D01*
X126502867Y-94092265D01*
X126517261Y-94094152D01*
X126549814Y-94098891D01*
X126549814Y-94885791D01*
X126517261Y-94890529D01*
X126495030Y-94893364D01*
X126460768Y-94897266D01*
X126419727Y-94901654D01*
X126389220Y-94904757D01*
X126337312Y-94910149D01*
X126277664Y-94916705D01*
X126219753Y-94923369D01*
X126193902Y-94926475D01*
X126143843Y-94932273D01*
X126090369Y-94937928D01*
X126041404Y-94942622D01*
X126017362Y-94944648D01*
X125981411Y-94948436D01*
X125954259Y-94953262D01*
X125939536Y-94958413D01*
X125937983Y-94960188D01*
X125928236Y-94992643D01*
X125914543Y-95034966D01*
X125899054Y-95080770D01*
X125883917Y-95123666D01*
X125874156Y-95149911D01*
X125851603Y-95208506D01*
X125488884Y-95208506D01*
X125411427Y-95208415D01*
X125339625Y-95208156D01*
X125275278Y-95207748D01*
X125220183Y-95207211D01*
X125176137Y-95206563D01*
X125144940Y-95205825D01*
X125128387Y-95205016D01*
X125126164Y-95204582D01*
X125130786Y-95196113D01*
X125143032Y-95177212D01*
X125160474Y-95151602D01*
X125164742Y-95145471D01*
X125210905Y-95072605D01*
X125253866Y-94992100D01*
X125289020Y-94912711D01*
X125293745Y-94900338D01*
X125307314Y-94861143D01*
X125320879Y-94817289D01*
X125333274Y-94773114D01*
X125343337Y-94732955D01*
X125349903Y-94701149D01*
X125351865Y-94683809D01*
X125358001Y-94672983D01*
X125376443Y-94650569D01*
X125407242Y-94616513D01*
X125450450Y-94570761D01*
X125506118Y-94513258D01*
X125574298Y-94443950D01*
X125655041Y-94362783D01*
X125667379Y-94350442D01*
X125982894Y-94035016D01*
X126034143Y-94040576D01*
G37*
G36*
X122892039Y-92602436D02*
G01*
X122913745Y-92619380D01*
X122945924Y-92644852D01*
X122985637Y-92676493D01*
X123029947Y-92711943D01*
X123075915Y-92748845D01*
X123120603Y-92784837D01*
X123161074Y-92817561D01*
X123194389Y-92844657D01*
X123217609Y-92863766D01*
X123220660Y-92866318D01*
X123237377Y-92879992D01*
X123261250Y-92899099D01*
X123276881Y-92911454D01*
X123315670Y-92941942D01*
X123376710Y-92908960D01*
X123416563Y-92888444D01*
X123462624Y-92866224D01*
X123504994Y-92847075D01*
X123505406Y-92846898D01*
X123573062Y-92817817D01*
X123828765Y-93073411D01*
X123883525Y-93128287D01*
X123934271Y-93179411D01*
X123979723Y-93225474D01*
X124018603Y-93265168D01*
X124049632Y-93297185D01*
X124071533Y-93320216D01*
X124083025Y-93332953D01*
X124084469Y-93335038D01*
X124076716Y-93339601D01*
X124056983Y-93344453D01*
X124043235Y-93346664D01*
X124007307Y-93353141D01*
X123960734Y-93363772D01*
X123909279Y-93377030D01*
X123858702Y-93391387D01*
X123814765Y-93405316D01*
X123794640Y-93412578D01*
X123742897Y-93434823D01*
X123685151Y-93463198D01*
X123629039Y-93493761D01*
X123584425Y-93521083D01*
X123540123Y-93550475D01*
X122619412Y-93550475D01*
X122605990Y-93529991D01*
X122591597Y-93510040D01*
X122580957Y-93497438D01*
X122571649Y-93486665D01*
X122553724Y-93465006D01*
X122529383Y-93435155D01*
X122500828Y-93399803D01*
X122485895Y-93381199D01*
X122452581Y-93339657D01*
X122419064Y-93297937D01*
X122388702Y-93260214D01*
X122364853Y-93230662D01*
X122359627Y-93224208D01*
X122336144Y-93194827D01*
X122314527Y-93167078D01*
X122299185Y-93146627D01*
X122298374Y-93145494D01*
X122279937Y-93119602D01*
X122838775Y-92561540D01*
X122892039Y-92602436D01*
G37*
G36*
X124608529Y-92185420D02*
G01*
X124611364Y-92207651D01*
X124615266Y-92241914D01*
X124619654Y-92282954D01*
X124622757Y-92313462D01*
X124628149Y-92365369D01*
X124634705Y-92425018D01*
X124641369Y-92482929D01*
X124644475Y-92508780D01*
X124650273Y-92558838D01*
X124655928Y-92612312D01*
X124660622Y-92661277D01*
X124662648Y-92685320D01*
X124666438Y-92721289D01*
X124671264Y-92748435D01*
X124676418Y-92763136D01*
X124678188Y-92764677D01*
X124703913Y-92772428D01*
X124739708Y-92784049D01*
X124780794Y-92797895D01*
X124822397Y-92812318D01*
X124859739Y-92825674D01*
X124888044Y-92836315D01*
X124898294Y-92840531D01*
X124935187Y-92856824D01*
X124935187Y-93221011D01*
X124935137Y-93298622D01*
X124934994Y-93370574D01*
X124934770Y-93435074D01*
X124934473Y-93490329D01*
X124934117Y-93534546D01*
X124933710Y-93565930D01*
X124933264Y-93582690D01*
X124933017Y-93585030D01*
X124925435Y-93580347D01*
X124906792Y-93567881D01*
X124880270Y-93549776D01*
X124861400Y-93536755D01*
X124745310Y-93466675D01*
X124619706Y-93410275D01*
X124486993Y-93368608D01*
X124466424Y-93363648D01*
X124401318Y-93348563D01*
X124077944Y-93026359D01*
X123754569Y-92704154D01*
X123759419Y-92660722D01*
X123762397Y-92634377D01*
X123766754Y-92596232D01*
X123771868Y-92551732D01*
X123776327Y-92513120D01*
X123782396Y-92459411D01*
X123788918Y-92399621D01*
X123794925Y-92342705D01*
X123797900Y-92313462D01*
X123802287Y-92270796D01*
X123806603Y-92231163D01*
X123810265Y-92199815D01*
X123812152Y-92185420D01*
X123816891Y-92152867D01*
X124603791Y-92152867D01*
X124608529Y-92185420D01*
G37*
G36*
X125344051Y-95425937D02*
G01*
X125790245Y-95426347D01*
X125829309Y-95475643D01*
X125850961Y-95502886D01*
X125870167Y-95526910D01*
X125882763Y-95542508D01*
X125893877Y-95556210D01*
X125913148Y-95580100D01*
X125938640Y-95611769D01*
X125968418Y-95648806D01*
X126000547Y-95688801D01*
X126033093Y-95729344D01*
X126064121Y-95768025D01*
X126091696Y-95802434D01*
X126113883Y-95830160D01*
X126128746Y-95848794D01*
X126134157Y-95855656D01*
X126129764Y-95863835D01*
X126113643Y-95883309D01*
X126086534Y-95913294D01*
X126049179Y-95953004D01*
X126002320Y-96001655D01*
X125946697Y-96058463D01*
X125883053Y-96122643D01*
X125861386Y-96144337D01*
X125581717Y-96423908D01*
X125429898Y-96301599D01*
X125384922Y-96265347D01*
X125343653Y-96232046D01*
X125308306Y-96203486D01*
X125281094Y-96181456D01*
X125264231Y-96167745D01*
X125260686Y-96164832D01*
X125246508Y-96153249D01*
X125222712Y-96134016D01*
X125193248Y-96110318D01*
X125175647Y-96096208D01*
X125108000Y-96042045D01*
X125032444Y-96080326D01*
X124992514Y-96100184D01*
X124951580Y-96119928D01*
X124916601Y-96136220D01*
X124906820Y-96140591D01*
X124856751Y-96162575D01*
X124600007Y-95906269D01*
X124545277Y-95851448D01*
X124494722Y-95800451D01*
X124449595Y-95754568D01*
X124411146Y-95715090D01*
X124380630Y-95683304D01*
X124359297Y-95660503D01*
X124348402Y-95647976D01*
X124347269Y-95645957D01*
X124357287Y-95642624D01*
X124379511Y-95637860D01*
X124406679Y-95633102D01*
X124535993Y-95603751D01*
X124663178Y-95557530D01*
X124787033Y-95494905D01*
X124831885Y-95467601D01*
X124897858Y-95425526D01*
X125344051Y-95425937D01*
G37*
G36*
X123058335Y-94634527D02*
G01*
X123063414Y-94653466D01*
X123064458Y-94659446D01*
X123092590Y-94791415D01*
X123134231Y-94917660D01*
X123188255Y-95035138D01*
X123230190Y-95106462D01*
X123268475Y-95165644D01*
X123268475Y-96074787D01*
X123239834Y-96099558D01*
X123214552Y-96120902D01*
X123185804Y-96144459D01*
X123176898Y-96151595D01*
X123159701Y-96165331D01*
X123131625Y-96187827D01*
X123095317Y-96216961D01*
X123053424Y-96250607D01*
X123008593Y-96286643D01*
X122999370Y-96294060D01*
X122956303Y-96328679D01*
X122917548Y-96359793D01*
X122885245Y-96385690D01*
X122861529Y-96404657D01*
X122848539Y-96414981D01*
X122847026Y-96416157D01*
X122838847Y-96411764D01*
X122819372Y-96395643D01*
X122789388Y-96368534D01*
X122749678Y-96331179D01*
X122701026Y-96284320D01*
X122644218Y-96228697D01*
X122580038Y-96165053D01*
X122558344Y-96143386D01*
X122278774Y-95863717D01*
X122401082Y-95711898D01*
X122437335Y-95666922D01*
X122470636Y-95625653D01*
X122499196Y-95590306D01*
X122521226Y-95563094D01*
X122534936Y-95546231D01*
X122537850Y-95542686D01*
X122549433Y-95528508D01*
X122568666Y-95504712D01*
X122592363Y-95475248D01*
X122606473Y-95457647D01*
X122660637Y-95390000D01*
X122622355Y-95314444D01*
X122602361Y-95274217D01*
X122582356Y-95232696D01*
X122565746Y-95196989D01*
X122561364Y-95187176D01*
X122538653Y-95135463D01*
X122792829Y-94881178D01*
X122847554Y-94826573D01*
X122898531Y-94775987D01*
X122944445Y-94730702D01*
X122983985Y-94691999D01*
X123015836Y-94661163D01*
X123038687Y-94639474D01*
X123051224Y-94628216D01*
X123053177Y-94626893D01*
X123058335Y-94634527D01*
G37*
G36*
X123691479Y-94165170D02*
G01*
X123736915Y-94086627D01*
X123796703Y-94012349D01*
X123815365Y-93992742D01*
X123888627Y-93927793D01*
X123966991Y-93877972D01*
X124054082Y-93841108D01*
X124084393Y-93831691D01*
X124122888Y-93821276D01*
X124154279Y-93814919D01*
X124184898Y-93811961D01*
X124221080Y-93811736D01*
X124261094Y-93813209D01*
X124337080Y-93820002D01*
X124402180Y-93833862D01*
X124462005Y-93856449D01*
X124522167Y-93889419D01*
X124525036Y-93891214D01*
X124590465Y-93942327D01*
X124646304Y-94006467D01*
X124690966Y-94081253D01*
X124722860Y-94164304D01*
X124732162Y-94201534D01*
X124738673Y-94244089D01*
X124742166Y-94292630D01*
X124742775Y-94342999D01*
X124740633Y-94391038D01*
X124735876Y-94432590D01*
X124728636Y-94463497D01*
X124723355Y-94474905D01*
X124709086Y-94496681D01*
X123910853Y-94496681D01*
X123911158Y-94533575D01*
X123919673Y-94616333D01*
X123943001Y-94693712D01*
X123979917Y-94763660D01*
X124029197Y-94824123D01*
X124089617Y-94873049D01*
X124125920Y-94893690D01*
X124154396Y-94907478D01*
X124176778Y-94916715D01*
X124197826Y-94922312D01*
X124222302Y-94925181D01*
X124254966Y-94926233D01*
X124296685Y-94926380D01*
X124342502Y-94926056D01*
X124375514Y-94924620D01*
X124400274Y-94921375D01*
X124421332Y-94915626D01*
X124443242Y-94906676D01*
X124452023Y-94902626D01*
X124488029Y-94882771D01*
X124529747Y-94855265D01*
X124571452Y-94824290D01*
X124607418Y-94794027D01*
X124626194Y-94775417D01*
X124643853Y-94761128D01*
X124662374Y-94759219D01*
X124685019Y-94770277D01*
X124710209Y-94790542D01*
X124747888Y-94823979D01*
X124717836Y-94873656D01*
X124659496Y-94954246D01*
X124590021Y-95022289D01*
X124510735Y-95076702D01*
X124422965Y-95116405D01*
X124418349Y-95117994D01*
X124382336Y-95129109D01*
X124348676Y-95136480D01*
X124311496Y-95140992D01*
X124264925Y-95143533D01*
X124245064Y-95144126D01*
X124199101Y-95144519D01*
X124154701Y-95143520D01*
X124117441Y-95141331D01*
X124095948Y-95138755D01*
X124024983Y-95120088D01*
X123951402Y-95090187D01*
X123882505Y-95052074D01*
X123875732Y-95047647D01*
X123806831Y-94991628D01*
X123748071Y-94922762D01*
X123700009Y-94842683D01*
X123663204Y-94753020D01*
X123638215Y-94655408D01*
X123625601Y-94551477D01*
X123625920Y-94442859D01*
X123636605Y-94349108D01*
X123638564Y-94340427D01*
X123910523Y-94340427D01*
X124147240Y-94340378D01*
X124213461Y-94340044D01*
X124274483Y-94339122D01*
X124327809Y-94337695D01*
X124370943Y-94335846D01*
X124401387Y-94333656D01*
X124415617Y-94331536D01*
X124447190Y-94316391D01*
X124467398Y-94290702D01*
X124477229Y-94252768D01*
X124478557Y-94223236D01*
X124469583Y-94161517D01*
X124444921Y-94104158D01*
X124406132Y-94053575D01*
X124354782Y-94012184D01*
X124334402Y-94000458D01*
X124289130Y-93984932D01*
X124235764Y-93979305D01*
X124180386Y-93983451D01*
X124129078Y-93997245D01*
X124111764Y-94005067D01*
X124054567Y-94043970D01*
X124004713Y-94096330D01*
X123964478Y-94158999D01*
X123936141Y-94228827D01*
X123928611Y-94258233D01*
X123922280Y-94287636D01*
X123916773Y-94312802D01*
X123914962Y-94320895D01*
X123910523Y-94340427D01*
X123638564Y-94340427D01*
X123658630Y-94251491D01*
X123691479Y-94165170D01*
G37*
G36*
X123031645Y-93767591D02*
G01*
X123107680Y-93767906D01*
X123168901Y-93768478D01*
X123216582Y-93769346D01*
X123251996Y-93770548D01*
X123276416Y-93772123D01*
X123291117Y-93774110D01*
X123297371Y-93776546D01*
X123297538Y-93778346D01*
X123289493Y-93790492D01*
X123274563Y-93812321D01*
X123255843Y-93839311D01*
X123254108Y-93841796D01*
X123210358Y-93910943D01*
X123168861Y-93988439D01*
X123134255Y-94065436D01*
X123126936Y-94084343D01*
X123114563Y-94120061D01*
X123101692Y-94161303D01*
X123089504Y-94203759D01*
X123079180Y-94243119D01*
X123071900Y-94275073D01*
X123068844Y-94295311D01*
X123068816Y-94296532D01*
X123062796Y-94306052D01*
X123045674Y-94326154D01*
X123018862Y-94355439D01*
X122983772Y-94392505D01*
X122941813Y-94435954D01*
X122894396Y-94484385D01*
X122842934Y-94536400D01*
X122788836Y-94590597D01*
X122733513Y-94645578D01*
X122678377Y-94699943D01*
X122624838Y-94752292D01*
X122574307Y-94801225D01*
X122528196Y-94845343D01*
X122487914Y-94883246D01*
X122454874Y-94913534D01*
X122430485Y-94934807D01*
X122416159Y-94945666D01*
X122413373Y-94946782D01*
X122391774Y-94944805D01*
X122370013Y-94942464D01*
X122292079Y-94933458D01*
X122228492Y-94926164D01*
X122176357Y-94920261D01*
X122132779Y-94915427D01*
X122094864Y-94911340D01*
X122059716Y-94907678D01*
X122031462Y-94904820D01*
X121988797Y-94900417D01*
X121949165Y-94896088D01*
X121917816Y-94892419D01*
X121903420Y-94890529D01*
X121870867Y-94885791D01*
X121870867Y-94098891D01*
X121903420Y-94094152D01*
X121925651Y-94091318D01*
X121959914Y-94087415D01*
X122000954Y-94083027D01*
X122031462Y-94079925D01*
X122083369Y-94074532D01*
X122143018Y-94067977D01*
X122200929Y-94061313D01*
X122226780Y-94058207D01*
X122276838Y-94052408D01*
X122330312Y-94046754D01*
X122379277Y-94042060D01*
X122403320Y-94040034D01*
X122439289Y-94036244D01*
X122466435Y-94031417D01*
X122481136Y-94026264D01*
X122482677Y-94024493D01*
X122490428Y-93998768D01*
X122502049Y-93962974D01*
X122515895Y-93921887D01*
X122530318Y-93880284D01*
X122543674Y-93842942D01*
X122554315Y-93814637D01*
X122558531Y-93804388D01*
X122574824Y-93767495D01*
X122939523Y-93767495D01*
X123031645Y-93767591D01*
G37*
G36*
X125861386Y-92840344D02*
G01*
X125927412Y-92906691D01*
X125985650Y-92965914D01*
X126035359Y-93017228D01*
X126075798Y-93059850D01*
X126106226Y-93092993D01*
X126125901Y-93115875D01*
X126134081Y-93127709D01*
X126134157Y-93129026D01*
X126126559Y-93138655D01*
X126110029Y-93159371D01*
X126086523Y-93188735D01*
X126057999Y-93224313D01*
X126026413Y-93263668D01*
X125993723Y-93304363D01*
X125961885Y-93343962D01*
X125932857Y-93380029D01*
X125908595Y-93410128D01*
X125891056Y-93431821D01*
X125882763Y-93441995D01*
X125871205Y-93456179D01*
X125851996Y-93479974D01*
X125828322Y-93509426D01*
X125814303Y-93526917D01*
X125760234Y-93594447D01*
X125806728Y-93687481D01*
X125826311Y-93727476D01*
X125844017Y-93765103D01*
X125857741Y-93795804D01*
X125864810Y-93813341D01*
X125876397Y-93846166D01*
X125625038Y-94097637D01*
X125570643Y-94151923D01*
X125520023Y-94202185D01*
X125474496Y-94247133D01*
X125435381Y-94285478D01*
X125403993Y-94315931D01*
X125381652Y-94337202D01*
X125369674Y-94348003D01*
X125368041Y-94349108D01*
X125360518Y-94342224D01*
X125357134Y-94335376D01*
X125352758Y-94315365D01*
X125351865Y-94302288D01*
X125349187Y-94280138D01*
X125341934Y-94245975D01*
X125331275Y-94204170D01*
X125318381Y-94159092D01*
X125304420Y-94115113D01*
X125293529Y-94084343D01*
X125263099Y-94010207D01*
X125229524Y-93943571D01*
X125189988Y-93877904D01*
X125152207Y-93819038D01*
X125152207Y-92909895D01*
X125180847Y-92885123D01*
X125206112Y-92863779D01*
X125234846Y-92840197D01*
X125243783Y-92833018D01*
X125260658Y-92819504D01*
X125288517Y-92797119D01*
X125324834Y-92767896D01*
X125367081Y-92733870D01*
X125412733Y-92697073D01*
X125429898Y-92683230D01*
X125581717Y-92560774D01*
X125861386Y-92840344D01*
G37*
X122936000Y-51745000D02*
X122936000Y-51675000D01*
X124306000Y-53115000D02*
G75*
G03*
X124306000Y-53115000I-1370000J0D01*
G01*
%LPC*%
D14*
X124968000Y-81886315D03*
D15*
X124968000Y-79346315D03*
D16*
X125984000Y-51816000D03*
D15*
X125984000Y-49276000D03*
D14*
X141102000Y-56134000D03*
D15*
X141102000Y-58674000D03*
X141102000Y-61214000D03*
X141102000Y-63754000D03*
X141102000Y-66294000D03*
X141102000Y-68834000D03*
X141102000Y-71374000D03*
X141102000Y-73914000D03*
X141102000Y-76454000D03*
X141102000Y-78994000D03*
X148722000Y-78994000D03*
X148722000Y-76454000D03*
X148722000Y-73914000D03*
X148722000Y-71374000D03*
X148722000Y-68834000D03*
X148722000Y-66294000D03*
X148722000Y-63754000D03*
X148722000Y-61214000D03*
X148722000Y-58674000D03*
X148722000Y-56134000D03*
D17*
X129286000Y-49784000D03*
D18*
X129286000Y-51562000D03*
X129286000Y-53340000D03*
X129286000Y-55118000D03*
X129286000Y-56896000D03*
X129286000Y-58674000D03*
X129286000Y-60452000D03*
X129286000Y-62230000D03*
X129286000Y-64008000D03*
X129286000Y-65786000D03*
X129286000Y-67564000D03*
X129286000Y-69342000D03*
X129286000Y-71120000D03*
X129286000Y-72898000D03*
X129286000Y-74676000D03*
X129286000Y-76454000D03*
X129286000Y-78232000D03*
X129286000Y-80010000D03*
X129286000Y-81788000D03*
X129286000Y-83566000D03*
X129286000Y-85344000D03*
X129286000Y-87122000D03*
X129286000Y-88900000D03*
X129286000Y-90678000D03*
X129286000Y-92456000D03*
X129286000Y-94234000D03*
X129286000Y-96012000D03*
X144526000Y-96012000D03*
X144526000Y-94234000D03*
X144526000Y-92456000D03*
X144526000Y-90678000D03*
X144526000Y-88900000D03*
X144526000Y-87122000D03*
X144526000Y-85344000D03*
X144526000Y-83566000D03*
X144526000Y-81788000D03*
X144526000Y-80010000D03*
X144526000Y-78232000D03*
X144526000Y-76454000D03*
X144526000Y-74676000D03*
X144526000Y-72898000D03*
X144526000Y-71120000D03*
X144526000Y-69342000D03*
X144526000Y-67564000D03*
X144526000Y-65786000D03*
X144526000Y-64008000D03*
X144526000Y-62230000D03*
X144526000Y-60452000D03*
X144526000Y-58674000D03*
X144526000Y-56896000D03*
X144526000Y-55118000D03*
X144526000Y-53340000D03*
X144526000Y-51562000D03*
X144526000Y-49784000D03*
D14*
X120116000Y-48531500D03*
D15*
X120116000Y-51071500D03*
X120116000Y-53611500D03*
X120116000Y-56151500D03*
X120116000Y-58691500D03*
X120116000Y-61231500D03*
X120116000Y-63771500D03*
X120116000Y-66311500D03*
X120116000Y-68851500D03*
X120116000Y-71391500D03*
X120116000Y-73931500D03*
X120116000Y-76471500D03*
X120116000Y-79011500D03*
X120116000Y-81551500D03*
X120116000Y-84091500D03*
X120116000Y-86631500D03*
X120116000Y-89171500D03*
X120116000Y-91711500D03*
X120116000Y-94251500D03*
X120116000Y-96791500D03*
X135356000Y-96791500D03*
X135356000Y-94251500D03*
X135356000Y-91711500D03*
X135356000Y-89171500D03*
D19*
X135356000Y-86631500D03*
X135356000Y-84091500D03*
X135356000Y-81551500D03*
D15*
X135356000Y-79011500D03*
X135356000Y-76471500D03*
X135356000Y-73931500D03*
X135356000Y-71391500D03*
X135356000Y-68851500D03*
X135356000Y-66311500D03*
D19*
X135356000Y-63771500D03*
X135356000Y-61231500D03*
X135356000Y-58691500D03*
D15*
X135356000Y-56151500D03*
X135356000Y-53611500D03*
X135356000Y-51071500D03*
X135356000Y-48531500D03*
D16*
X122936000Y-53115000D03*
D15*
X122936000Y-50575000D03*
D14*
X142240000Y-50800000D03*
D15*
X139700000Y-50800000D03*
D14*
X142240000Y-48260000D03*
D15*
X139700000Y-48260000D03*
D14*
X142240000Y-53340000D03*
D15*
X139700000Y-53340000D03*
M02*
