M48
; DRILL file {KiCad (6.0.0)} date Sun Jan 29 20:38:57 2023
; FORMAT={-:-/ absolute / metric / decimal}
; #@! TF.CreationDate,2023-01-29T20:38:57-05:00
; #@! TF.GenerationSoftware,Kicad,Pcbnew,(6.0.0)
; #@! TF.FileFunction,Plated,1,2,PTH
FMAT,2
METRIC
; #@! TA.AperFunction,Plated,PTH,ViaDrill
T1C0.400
; #@! TA.AperFunction,Plated,PTH,ComponentDrill
T2C0.700
; #@! TA.AperFunction,Plated,PTH,ComponentDrill
T3C0.800
%
G90
G05
T1
X122.936Y-87.63
X124.46Y-87.884
X130.556Y-71.882
X131.064Y-73.914
X132.588Y-76.454
T2
X129.286Y-49.784
X129.286Y-51.562
X129.286Y-53.34
X129.286Y-55.118
X129.286Y-56.896
X129.286Y-58.674
X129.286Y-60.452
X129.286Y-62.23
X129.286Y-64.008
X129.286Y-65.786
X129.286Y-67.564
X129.286Y-69.342
X129.286Y-71.12
X129.286Y-72.898
X129.286Y-74.676
X129.286Y-76.454
X129.286Y-78.232
X129.286Y-80.01
X129.286Y-81.788
X129.286Y-83.566
X129.286Y-85.344
X129.286Y-87.122
X129.286Y-88.9
X129.286Y-90.678
X129.286Y-92.456
X129.286Y-94.234
X129.286Y-96.012
X144.526Y-49.784
X144.526Y-51.562
X144.526Y-53.34
X144.526Y-55.118
X144.526Y-56.896
X144.526Y-58.674
X144.526Y-60.452
X144.526Y-62.23
X144.526Y-64.008
X144.526Y-65.786
X144.526Y-67.564
X144.526Y-69.342
X144.526Y-71.12
X144.526Y-72.898
X144.526Y-74.676
X144.526Y-76.454
X144.526Y-78.232
X144.526Y-80.01
X144.526Y-81.788
X144.526Y-83.566
X144.526Y-85.344
X144.526Y-87.122
X144.526Y-88.9
X144.526Y-90.678
X144.526Y-92.456
X144.526Y-94.234
X144.526Y-96.012
T3
X120.116Y-48.532
X120.116Y-51.072
X120.116Y-53.611
X120.116Y-56.151
X120.116Y-58.691
X120.116Y-61.231
X120.116Y-63.771
X120.116Y-66.311
X120.116Y-68.852
X120.116Y-71.391
X120.116Y-73.931
X120.116Y-76.471
X120.116Y-79.011
X120.116Y-81.551
X120.116Y-84.091
X120.116Y-86.632
X120.116Y-89.171
X120.116Y-91.712
X120.116Y-94.251
X120.116Y-96.791
X122.936Y-50.575
X122.936Y-53.115
X124.968Y-79.346
X124.968Y-81.886
X125.984Y-49.276
X125.984Y-51.816
X135.356Y-48.532
X135.356Y-51.072
X135.356Y-53.611
X135.356Y-56.151
X135.356Y-58.691
X135.356Y-61.231
X135.356Y-63.771
X135.356Y-66.311
X135.356Y-68.852
X135.356Y-71.391
X135.356Y-73.931
X135.356Y-76.471
X135.356Y-79.011
X135.356Y-81.551
X135.356Y-84.091
X135.356Y-86.632
X135.356Y-89.171
X135.356Y-91.712
X135.356Y-94.251
X135.356Y-96.791
X139.7Y-48.26
X139.7Y-50.8
X139.7Y-53.34
X141.102Y-56.134
X141.102Y-58.674
X141.102Y-61.214
X141.102Y-63.754
X141.102Y-66.294
X141.102Y-68.834
X141.102Y-71.374
X141.102Y-73.914
X141.102Y-76.454
X141.102Y-78.994
X142.24Y-48.26
X142.24Y-50.8
X142.24Y-53.34
X148.722Y-56.134
X148.722Y-58.674
X148.722Y-61.214
X148.722Y-63.754
X148.722Y-66.294
X148.722Y-68.834
X148.722Y-71.374
X148.722Y-73.914
X148.722Y-76.454
X148.722Y-78.994
T0
M30
