G04 #@! TF.GenerationSoftware,KiCad,Pcbnew,(6.0.0)*
G04 #@! TF.CreationDate,2023-01-29T20:38:55-05:00*
G04 #@! TF.ProjectId,tms7000 54 pin adapter,746d7337-3030-4302-9035-342070696e20,rev?*
G04 #@! TF.SameCoordinates,Original*
G04 #@! TF.FileFunction,Legend,Bot*
G04 #@! TF.FilePolarity,Positive*
%FSLAX46Y46*%
G04 Gerber Fmt 4.6, Leading zero omitted, Abs format (unit mm)*
G04 Created by KiCad (PCBNEW (6.0.0)) date 2023-01-29 20:38:55*
%MOMM*%
%LPD*%
G01*
G04 APERTURE LIST*
%ADD10C,0.150000*%
%ADD11C,0.100000*%
%ADD12C,0.120000*%
%ADD13R,1.600000X1.600000*%
%ADD14O,1.600000X1.600000*%
%ADD15C,1.600000*%
%ADD16R,1.100000X1.100000*%
%ADD17C,1.100000*%
%ADD18O,1.400000X1.400000*%
G04 APERTURE END LIST*
D10*
X142084619Y-93868285D02*
X143084619Y-93868285D01*
X142370333Y-93534952D01*
X143084619Y-93201619D01*
X142084619Y-93201619D01*
X142084619Y-92296857D02*
X142608428Y-92296857D01*
X142703666Y-92344476D01*
X142751285Y-92439714D01*
X142751285Y-92630190D01*
X142703666Y-92725428D01*
X142132238Y-92296857D02*
X142084619Y-92392095D01*
X142084619Y-92630190D01*
X142132238Y-92725428D01*
X142227476Y-92773047D01*
X142322714Y-92773047D01*
X142417952Y-92725428D01*
X142465571Y-92630190D01*
X142465571Y-92392095D01*
X142513190Y-92296857D01*
X142132238Y-91392095D02*
X142084619Y-91487333D01*
X142084619Y-91677809D01*
X142132238Y-91773047D01*
X142179857Y-91820666D01*
X142275095Y-91868285D01*
X142560809Y-91868285D01*
X142656047Y-91820666D01*
X142703666Y-91773047D01*
X142751285Y-91677809D01*
X142751285Y-91487333D01*
X142703666Y-91392095D01*
X142084619Y-90963523D02*
X143084619Y-90963523D01*
X142084619Y-90534952D02*
X142608428Y-90534952D01*
X142703666Y-90582571D01*
X142751285Y-90677809D01*
X142751285Y-90820666D01*
X142703666Y-90915904D01*
X142656047Y-90963523D01*
X142084619Y-90058761D02*
X142751285Y-90058761D01*
X143084619Y-90058761D02*
X143037000Y-90106380D01*
X142989380Y-90058761D01*
X143037000Y-90011142D01*
X143084619Y-90058761D01*
X142989380Y-90058761D01*
X142751285Y-89582571D02*
X142084619Y-89582571D01*
X142656047Y-89582571D02*
X142703666Y-89534952D01*
X142751285Y-89439714D01*
X142751285Y-89296857D01*
X142703666Y-89201619D01*
X142608428Y-89154000D01*
X142084619Y-89154000D01*
X142132238Y-88296857D02*
X142084619Y-88392095D01*
X142084619Y-88582571D01*
X142132238Y-88677809D01*
X142227476Y-88725428D01*
X142608428Y-88725428D01*
X142703666Y-88677809D01*
X142751285Y-88582571D01*
X142751285Y-88392095D01*
X142703666Y-88296857D01*
X142608428Y-88249238D01*
X142513190Y-88249238D01*
X142417952Y-88725428D01*
X142751285Y-87058761D02*
X141751285Y-87058761D01*
X142703666Y-87058761D02*
X142751285Y-86963523D01*
X142751285Y-86773047D01*
X142703666Y-86677809D01*
X142656047Y-86630190D01*
X142560809Y-86582571D01*
X142275095Y-86582571D01*
X142179857Y-86630190D01*
X142132238Y-86677809D01*
X142084619Y-86773047D01*
X142084619Y-86963523D01*
X142132238Y-87058761D01*
X142084619Y-86154000D02*
X142751285Y-86154000D01*
X143084619Y-86154000D02*
X143037000Y-86201619D01*
X142989380Y-86154000D01*
X143037000Y-86106380D01*
X143084619Y-86154000D01*
X142989380Y-86154000D01*
X142751285Y-85677809D02*
X142084619Y-85677809D01*
X142656047Y-85677809D02*
X142703666Y-85630190D01*
X142751285Y-85534952D01*
X142751285Y-85392095D01*
X142703666Y-85296857D01*
X142608428Y-85249238D01*
X142084619Y-85249238D01*
X142132238Y-84820666D02*
X142084619Y-84725428D01*
X142084619Y-84534952D01*
X142132238Y-84439714D01*
X142227476Y-84392095D01*
X142275095Y-84392095D01*
X142370333Y-84439714D01*
X142417952Y-84534952D01*
X142417952Y-84677809D01*
X142465571Y-84773047D01*
X142560809Y-84820666D01*
X142608428Y-84820666D01*
X142703666Y-84773047D01*
X142751285Y-84677809D01*
X142751285Y-84534952D01*
X142703666Y-84439714D01*
X140474619Y-92654000D02*
X140522238Y-92749238D01*
X140569857Y-92796857D01*
X140665095Y-92844476D01*
X140950809Y-92844476D01*
X141046047Y-92796857D01*
X141093666Y-92749238D01*
X141141285Y-92654000D01*
X141141285Y-92511142D01*
X141093666Y-92415904D01*
X141046047Y-92368285D01*
X140950809Y-92320666D01*
X140665095Y-92320666D01*
X140569857Y-92368285D01*
X140522238Y-92415904D01*
X140474619Y-92511142D01*
X140474619Y-92654000D01*
X141141285Y-91892095D02*
X140474619Y-91892095D01*
X141046047Y-91892095D02*
X141093666Y-91844476D01*
X141141285Y-91749238D01*
X141141285Y-91606380D01*
X141093666Y-91511142D01*
X140998428Y-91463523D01*
X140474619Y-91463523D01*
X140474619Y-90225428D02*
X141474619Y-90225428D01*
X141093666Y-90225428D02*
X141141285Y-90130190D01*
X141141285Y-89939714D01*
X141093666Y-89844476D01*
X141046047Y-89796857D01*
X140950809Y-89749238D01*
X140665095Y-89749238D01*
X140569857Y-89796857D01*
X140522238Y-89844476D01*
X140474619Y-89939714D01*
X140474619Y-90130190D01*
X140522238Y-90225428D01*
X140474619Y-89177809D02*
X140522238Y-89273047D01*
X140569857Y-89320666D01*
X140665095Y-89368285D01*
X140950809Y-89368285D01*
X141046047Y-89320666D01*
X141093666Y-89273047D01*
X141141285Y-89177809D01*
X141141285Y-89034952D01*
X141093666Y-88939714D01*
X141046047Y-88892095D01*
X140950809Y-88844476D01*
X140665095Y-88844476D01*
X140569857Y-88892095D01*
X140522238Y-88939714D01*
X140474619Y-89034952D01*
X140474619Y-89177809D01*
X141141285Y-88558761D02*
X141141285Y-88177809D01*
X141474619Y-88415904D02*
X140617476Y-88415904D01*
X140522238Y-88368285D01*
X140474619Y-88273047D01*
X140474619Y-88177809D01*
X141141285Y-87987333D02*
X141141285Y-87606380D01*
X141474619Y-87844476D02*
X140617476Y-87844476D01*
X140522238Y-87796857D01*
X140474619Y-87701619D01*
X140474619Y-87606380D01*
X140474619Y-87130190D02*
X140522238Y-87225428D01*
X140569857Y-87273047D01*
X140665095Y-87320666D01*
X140950809Y-87320666D01*
X141046047Y-87273047D01*
X141093666Y-87225428D01*
X141141285Y-87130190D01*
X141141285Y-86987333D01*
X141093666Y-86892095D01*
X141046047Y-86844476D01*
X140950809Y-86796857D01*
X140665095Y-86796857D01*
X140569857Y-86844476D01*
X140522238Y-86892095D01*
X140474619Y-86987333D01*
X140474619Y-87130190D01*
X140474619Y-86368285D02*
X141141285Y-86368285D01*
X141046047Y-86368285D02*
X141093666Y-86320666D01*
X141141285Y-86225428D01*
X141141285Y-86082571D01*
X141093666Y-85987333D01*
X140998428Y-85939714D01*
X140474619Y-85939714D01*
X140998428Y-85939714D02*
X141093666Y-85892095D01*
X141141285Y-85796857D01*
X141141285Y-85654000D01*
X141093666Y-85558761D01*
X140998428Y-85511142D01*
X140474619Y-85511142D01*
D11*
X138367333Y-97640000D02*
X138734000Y-97640000D01*
X138800666Y-97673333D01*
X138834000Y-97740000D01*
X138834000Y-97873333D01*
X138800666Y-97940000D01*
X138400666Y-97640000D02*
X138367333Y-97706666D01*
X138367333Y-97873333D01*
X138400666Y-97940000D01*
X138467333Y-97973333D01*
X138534000Y-97973333D01*
X138600666Y-97940000D01*
X138634000Y-97873333D01*
X138634000Y-97706666D01*
X138667333Y-97640000D01*
X138367333Y-97306666D02*
X139067333Y-97306666D01*
X138800666Y-97306666D02*
X138834000Y-97240000D01*
X138834000Y-97106666D01*
X138800666Y-97040000D01*
X138767333Y-97006666D01*
X138700666Y-96973333D01*
X138500666Y-96973333D01*
X138434000Y-97006666D01*
X138400666Y-97040000D01*
X138367333Y-97106666D01*
X138367333Y-97240000D01*
X138400666Y-97306666D01*
X138834000Y-96740000D02*
X138834000Y-96373333D01*
X138367333Y-96740000D01*
X138367333Y-96373333D01*
X138367333Y-96106666D02*
X138834000Y-96106666D01*
X138767333Y-96106666D02*
X138800666Y-96073333D01*
X138834000Y-96006666D01*
X138834000Y-95906666D01*
X138800666Y-95840000D01*
X138734000Y-95806666D01*
X138367333Y-95806666D01*
X138734000Y-95806666D02*
X138800666Y-95773333D01*
X138834000Y-95706666D01*
X138834000Y-95606666D01*
X138800666Y-95540000D01*
X138734000Y-95506666D01*
X138367333Y-95506666D01*
X138367333Y-94873333D02*
X138734000Y-94873333D01*
X138800666Y-94906666D01*
X138834000Y-94973333D01*
X138834000Y-95106666D01*
X138800666Y-95173333D01*
X138400666Y-94873333D02*
X138367333Y-94940000D01*
X138367333Y-95106666D01*
X138400666Y-95173333D01*
X138467333Y-95206666D01*
X138534000Y-95206666D01*
X138600666Y-95173333D01*
X138634000Y-95106666D01*
X138634000Y-94940000D01*
X138667333Y-94873333D01*
X138834000Y-94540000D02*
X138367333Y-94540000D01*
X138767333Y-94540000D02*
X138800666Y-94506666D01*
X138834000Y-94440000D01*
X138834000Y-94340000D01*
X138800666Y-94273333D01*
X138734000Y-94240000D01*
X138367333Y-94240000D01*
X139000666Y-93940000D02*
X139034000Y-93906666D01*
X139067333Y-93840000D01*
X139067333Y-93673333D01*
X139034000Y-93606666D01*
X139000666Y-93573333D01*
X138934000Y-93540000D01*
X138867333Y-93540000D01*
X138767333Y-93573333D01*
X138367333Y-93973333D01*
X138367333Y-93540000D01*
X138367333Y-93240000D02*
X139067333Y-93240000D01*
X138634000Y-93173333D02*
X138367333Y-92973333D01*
X138834000Y-92973333D02*
X138567333Y-93240000D01*
X138434000Y-92673333D02*
X138400666Y-92640000D01*
X138367333Y-92673333D01*
X138400666Y-92706666D01*
X138434000Y-92673333D01*
X138367333Y-92673333D01*
X138834000Y-92406666D02*
X138367333Y-92273333D01*
X138700666Y-92140000D01*
X138367333Y-92006666D01*
X138834000Y-91873333D01*
X138367333Y-91506666D02*
X138400666Y-91573333D01*
X138434000Y-91606666D01*
X138500666Y-91640000D01*
X138700666Y-91640000D01*
X138767333Y-91606666D01*
X138800666Y-91573333D01*
X138834000Y-91506666D01*
X138834000Y-91406666D01*
X138800666Y-91340000D01*
X138767333Y-91306666D01*
X138700666Y-91273333D01*
X138500666Y-91273333D01*
X138434000Y-91306666D01*
X138400666Y-91340000D01*
X138367333Y-91406666D01*
X138367333Y-91506666D01*
X138367333Y-90973333D02*
X138834000Y-90973333D01*
X138700666Y-90973333D02*
X138767333Y-90940000D01*
X138800666Y-90906666D01*
X138834000Y-90840000D01*
X138834000Y-90773333D01*
X138367333Y-90240000D02*
X139067333Y-90240000D01*
X138400666Y-90240000D02*
X138367333Y-90306666D01*
X138367333Y-90440000D01*
X138400666Y-90506666D01*
X138434000Y-90540000D01*
X138500666Y-90573333D01*
X138700666Y-90573333D01*
X138767333Y-90540000D01*
X138800666Y-90506666D01*
X138834000Y-90440000D01*
X138834000Y-90306666D01*
X138800666Y-90240000D01*
X138834000Y-89906666D02*
X138134000Y-89906666D01*
X138800666Y-89906666D02*
X138834000Y-89840000D01*
X138834000Y-89706666D01*
X138800666Y-89640000D01*
X138767333Y-89606666D01*
X138700666Y-89573333D01*
X138500666Y-89573333D01*
X138434000Y-89606666D01*
X138400666Y-89640000D01*
X138367333Y-89706666D01*
X138367333Y-89840000D01*
X138400666Y-89906666D01*
X138367333Y-89273333D02*
X138834000Y-89273333D01*
X138700666Y-89273333D02*
X138767333Y-89240000D01*
X138800666Y-89206666D01*
X138834000Y-89140000D01*
X138834000Y-89073333D01*
X138400666Y-88573333D02*
X138367333Y-88640000D01*
X138367333Y-88773333D01*
X138400666Y-88840000D01*
X138467333Y-88873333D01*
X138734000Y-88873333D01*
X138800666Y-88840000D01*
X138834000Y-88773333D01*
X138834000Y-88640000D01*
X138800666Y-88573333D01*
X138734000Y-88540000D01*
X138667333Y-88540000D01*
X138600666Y-88873333D01*
X138400666Y-88273333D02*
X138367333Y-88206666D01*
X138367333Y-88073333D01*
X138400666Y-88006666D01*
X138467333Y-87973333D01*
X138500666Y-87973333D01*
X138567333Y-88006666D01*
X138600666Y-88073333D01*
X138600666Y-88173333D01*
X138634000Y-88240000D01*
X138700666Y-88273333D01*
X138734000Y-88273333D01*
X138800666Y-88240000D01*
X138834000Y-88173333D01*
X138834000Y-88073333D01*
X138800666Y-88006666D01*
X138400666Y-87706666D02*
X138367333Y-87640000D01*
X138367333Y-87506666D01*
X138400666Y-87440000D01*
X138467333Y-87406666D01*
X138500666Y-87406666D01*
X138567333Y-87440000D01*
X138600666Y-87506666D01*
X138600666Y-87606666D01*
X138634000Y-87673333D01*
X138700666Y-87706666D01*
X138734000Y-87706666D01*
X138800666Y-87673333D01*
X138834000Y-87606666D01*
X138834000Y-87506666D01*
X138800666Y-87440000D01*
X138434000Y-87106666D02*
X138400666Y-87073333D01*
X138367333Y-87106666D01*
X138400666Y-87140000D01*
X138434000Y-87106666D01*
X138367333Y-87106666D01*
X138400666Y-86473333D02*
X138367333Y-86540000D01*
X138367333Y-86673333D01*
X138400666Y-86740000D01*
X138434000Y-86773333D01*
X138500666Y-86806666D01*
X138700666Y-86806666D01*
X138767333Y-86773333D01*
X138800666Y-86740000D01*
X138834000Y-86673333D01*
X138834000Y-86540000D01*
X138800666Y-86473333D01*
X138367333Y-86073333D02*
X138400666Y-86140000D01*
X138434000Y-86173333D01*
X138500666Y-86206666D01*
X138700666Y-86206666D01*
X138767333Y-86173333D01*
X138800666Y-86140000D01*
X138834000Y-86073333D01*
X138834000Y-85973333D01*
X138800666Y-85906666D01*
X138767333Y-85873333D01*
X138700666Y-85840000D01*
X138500666Y-85840000D01*
X138434000Y-85873333D01*
X138400666Y-85906666D01*
X138367333Y-85973333D01*
X138367333Y-86073333D01*
X138367333Y-85540000D02*
X138834000Y-85540000D01*
X138767333Y-85540000D02*
X138800666Y-85506666D01*
X138834000Y-85440000D01*
X138834000Y-85340000D01*
X138800666Y-85273333D01*
X138734000Y-85240000D01*
X138367333Y-85240000D01*
X138734000Y-85240000D02*
X138800666Y-85206666D01*
X138834000Y-85140000D01*
X138834000Y-85040000D01*
X138800666Y-84973333D01*
X138734000Y-84940000D01*
X138367333Y-84940000D01*
D10*
X138138095Y-50966666D02*
X137661904Y-50966666D01*
X138233333Y-51252380D02*
X137900000Y-50252380D01*
X137566666Y-51252380D01*
X138138095Y-48426666D02*
X137661904Y-48426666D01*
X138233333Y-48712380D02*
X137900000Y-47712380D01*
X137566666Y-48712380D01*
X138138095Y-53506666D02*
X137661904Y-53506666D01*
X138233333Y-53792380D02*
X137900000Y-52792380D01*
X137566666Y-53792380D01*
G36*
X127087389Y-96262644D02*
G01*
X127080887Y-96306692D01*
X127069432Y-96343065D01*
X127052383Y-96373840D01*
X127029101Y-96401091D01*
X127013543Y-96415032D01*
X126972530Y-96440863D01*
X126927542Y-96455036D01*
X126892314Y-96457788D01*
X126851745Y-96455121D01*
X126814517Y-96447277D01*
X126788930Y-96436783D01*
X126751903Y-96411732D01*
X126720822Y-96378289D01*
X126698305Y-96338896D01*
X126693959Y-96325802D01*
X126687969Y-96294798D01*
X126684166Y-96256595D01*
X126682555Y-96214443D01*
X126682688Y-96204622D01*
X126783396Y-96204622D01*
X126784009Y-96233827D01*
X126787610Y-96273015D01*
X126794818Y-96302494D01*
X126806071Y-96323791D01*
X126821807Y-96338431D01*
X126821842Y-96338454D01*
X126851699Y-96351496D01*
X126884910Y-96355697D01*
X126917383Y-96351083D01*
X126945031Y-96337678D01*
X126954491Y-96330094D01*
X126967977Y-96315574D01*
X126977170Y-96298180D01*
X126982813Y-96275524D01*
X126985653Y-96245214D01*
X126986434Y-96204860D01*
X126986432Y-96201198D01*
X126986118Y-96168228D01*
X126985024Y-96144807D01*
X126982802Y-96128236D01*
X126979107Y-96115818D01*
X126973593Y-96104856D01*
X126958118Y-96084609D01*
X126932291Y-96065528D01*
X126902772Y-96055446D01*
X126872039Y-96054361D01*
X126842569Y-96062271D01*
X126816838Y-96079171D01*
X126797325Y-96105059D01*
X126791672Y-96117271D01*
X126787343Y-96131273D01*
X126784811Y-96148421D01*
X126783641Y-96171832D01*
X126783396Y-96204622D01*
X126682688Y-96204622D01*
X126683137Y-96171595D01*
X126685916Y-96131300D01*
X126690894Y-96096811D01*
X126698074Y-96071377D01*
X126707503Y-96051878D01*
X126734757Y-96014228D01*
X126769129Y-95984967D01*
X126808824Y-95964456D01*
X126852045Y-95953056D01*
X126896997Y-95951129D01*
X126941884Y-95959034D01*
X126984911Y-95977134D01*
X127024281Y-96005789D01*
X127033752Y-96014975D01*
X127055751Y-96041849D01*
X127071622Y-96072103D01*
X127082076Y-96107908D01*
X127087826Y-96151437D01*
X127089584Y-96204860D01*
X127089576Y-96208846D01*
X127087389Y-96262644D01*
G37*
G36*
X122977871Y-95954238D02*
G01*
X123015992Y-95963047D01*
X123062834Y-95983097D01*
X123101027Y-96012091D01*
X123130702Y-96050168D01*
X123151990Y-96097468D01*
X123165022Y-96154132D01*
X123168813Y-96208952D01*
X123164257Y-96263558D01*
X123151680Y-96314106D01*
X123131645Y-96358354D01*
X123104717Y-96394062D01*
X123098313Y-96400200D01*
X123065202Y-96424577D01*
X123026916Y-96443771D01*
X122989003Y-96454867D01*
X122965022Y-96458394D01*
X122937330Y-96459908D01*
X122912099Y-96457074D01*
X122883799Y-96449619D01*
X122871987Y-96445538D01*
X122836908Y-96429273D01*
X122804545Y-96408747D01*
X122779743Y-96386882D01*
X122772316Y-96377808D01*
X122771768Y-96370513D01*
X122779743Y-96360459D01*
X122783378Y-96356658D01*
X122797995Y-96343044D01*
X122814962Y-96328782D01*
X122838272Y-96310296D01*
X122860727Y-96327423D01*
X122865668Y-96331027D01*
X122899678Y-96348417D01*
X122935569Y-96355831D01*
X122971033Y-96353672D01*
X123003765Y-96342349D01*
X123031459Y-96322264D01*
X123051808Y-96293825D01*
X123052576Y-96292244D01*
X123059531Y-96275391D01*
X123063699Y-96257822D01*
X123065716Y-96235618D01*
X123066216Y-96204860D01*
X123066177Y-96195915D01*
X123065349Y-96168334D01*
X123062925Y-96148228D01*
X123058215Y-96131631D01*
X123050532Y-96114574D01*
X123033896Y-96089155D01*
X123009032Y-96068800D01*
X122977211Y-96057986D01*
X122937239Y-96056096D01*
X122925983Y-96056829D01*
X122903422Y-96060086D01*
X122885471Y-96066754D01*
X122866473Y-96078636D01*
X122837664Y-96098942D01*
X122814658Y-96080697D01*
X122808917Y-96076039D01*
X122792153Y-96061426D01*
X122779684Y-96049195D01*
X122777840Y-96047144D01*
X122771560Y-96038479D01*
X122772929Y-96031261D01*
X122782449Y-96020254D01*
X122785187Y-96017425D01*
X122815986Y-95992751D01*
X122854070Y-95971886D01*
X122894764Y-95957443D01*
X122904832Y-95954973D01*
X122928491Y-95950847D01*
X122950570Y-95950690D01*
X122977871Y-95954238D01*
G37*
G36*
X123411677Y-96737800D02*
G01*
X123453860Y-96748756D01*
X123491837Y-96770210D01*
X123513705Y-96786889D01*
X123513705Y-96742492D01*
X123613729Y-96742492D01*
X123613729Y-97236364D01*
X123513705Y-97236364D01*
X123513695Y-97072261D01*
X123513662Y-97039446D01*
X123513441Y-96995757D01*
X123512930Y-96962000D01*
X123512036Y-96936591D01*
X123510665Y-96917944D01*
X123508723Y-96904474D01*
X123506118Y-96894595D01*
X123502755Y-96886722D01*
X123492847Y-96871290D01*
X123469113Y-96850292D01*
X123440121Y-96838753D01*
X123408599Y-96837525D01*
X123377272Y-96847462D01*
X123352794Y-96860221D01*
X123316699Y-96816346D01*
X123315920Y-96815397D01*
X123298951Y-96793992D01*
X123289510Y-96779879D01*
X123286623Y-96771283D01*
X123289315Y-96766426D01*
X123325343Y-96747579D01*
X123367950Y-96737391D01*
X123411677Y-96737800D01*
G37*
G36*
X126123277Y-97137740D02*
G01*
X126114922Y-97157757D01*
X126091580Y-97189802D01*
X126058911Y-97215586D01*
X126018545Y-97233616D01*
X125993158Y-97239020D01*
X125958418Y-97241812D01*
X125923401Y-97240875D01*
X125894172Y-97236088D01*
X125892691Y-97235657D01*
X125871317Y-97226380D01*
X125851974Y-97213687D01*
X125833025Y-97197743D01*
X125833025Y-97236364D01*
X125725651Y-97236364D01*
X125727978Y-97064272D01*
X125833025Y-97064272D01*
X125833604Y-97078452D01*
X125838725Y-97106494D01*
X125848335Y-97127439D01*
X125861451Y-97138712D01*
X125864155Y-97139600D01*
X125882169Y-97142827D01*
X125907171Y-97144946D01*
X125934707Y-97145796D01*
X125960328Y-97145214D01*
X125979582Y-97143036D01*
X125987641Y-97140911D01*
X126010465Y-97128711D01*
X126025844Y-97110733D01*
X126032743Y-97089599D01*
X126030127Y-97067929D01*
X126016961Y-97048344D01*
X126010341Y-97042676D01*
X126002387Y-97038213D01*
X125991449Y-97035238D01*
X125975148Y-97033340D01*
X125951103Y-97032111D01*
X125916937Y-97031141D01*
X125833025Y-97029094D01*
X125833025Y-97064272D01*
X125727978Y-97064272D01*
X125728208Y-97047255D01*
X125728247Y-97044355D01*
X125729275Y-96983620D01*
X125730548Y-96934473D01*
X125732113Y-96896040D01*
X125734012Y-96867444D01*
X125736292Y-96847811D01*
X125738998Y-96836265D01*
X125752443Y-96808681D01*
X125777282Y-96779763D01*
X125811901Y-96757477D01*
X125821053Y-96753171D01*
X125838787Y-96746373D01*
X125857670Y-96741986D01*
X125881486Y-96739268D01*
X125914020Y-96737479D01*
X125940432Y-96736870D01*
X125984015Y-96739008D01*
X126019425Y-96746034D01*
X126049091Y-96758543D01*
X126075440Y-96777132D01*
X126086170Y-96786729D01*
X126097461Y-96798123D01*
X126101841Y-96804491D01*
X126101693Y-96805031D01*
X126095611Y-96811955D01*
X126082396Y-96823767D01*
X126064504Y-96838248D01*
X126027166Y-96867244D01*
X126011277Y-96852518D01*
X126002270Y-96845351D01*
X125983153Y-96836342D01*
X125957587Y-96831474D01*
X125922690Y-96830014D01*
X125907294Y-96830657D01*
X125877148Y-96836125D01*
X125853732Y-96846349D01*
X125839780Y-96860331D01*
X125837340Y-96867205D01*
X125834238Y-96885354D01*
X125833025Y-96907065D01*
X125833025Y-96941179D01*
X125925235Y-96943805D01*
X125968004Y-96945565D01*
X126002830Y-96948623D01*
X126029680Y-96953508D01*
X126050863Y-96960814D01*
X126068688Y-96971137D01*
X126085462Y-96985071D01*
X126096949Y-96997966D01*
X126114503Y-97029197D01*
X126125417Y-97065625D01*
X126127499Y-97089599D01*
X126128678Y-97103167D01*
X126123277Y-97137740D01*
G37*
G36*
X126496434Y-97236364D02*
G01*
X126494498Y-97069135D01*
X126494145Y-97039512D01*
X126493519Y-96995597D01*
X126492783Y-96961697D01*
X126491805Y-96936222D01*
X126490451Y-96917577D01*
X126488587Y-96904172D01*
X126486080Y-96894412D01*
X126482797Y-96886706D01*
X126478603Y-96879461D01*
X126477992Y-96878494D01*
X126457149Y-96856799D01*
X126429512Y-96842771D01*
X126398521Y-96837062D01*
X126367620Y-96840325D01*
X126340249Y-96853214D01*
X126329982Y-96861294D01*
X126321244Y-96870344D01*
X126314528Y-96881322D01*
X126309571Y-96895738D01*
X126306107Y-96915103D01*
X126303873Y-96940927D01*
X126302603Y-96974721D01*
X126302034Y-97017995D01*
X126301900Y-97072261D01*
X126301891Y-97236364D01*
X126201354Y-97236364D01*
X126203173Y-97044129D01*
X126203271Y-97033827D01*
X126203871Y-96978085D01*
X126204686Y-96933100D01*
X126205998Y-96897373D01*
X126208088Y-96869404D01*
X126211240Y-96847694D01*
X126215735Y-96830744D01*
X126221855Y-96817054D01*
X126229884Y-96805126D01*
X126240103Y-96793460D01*
X126252794Y-96780557D01*
X126267956Y-96767508D01*
X126303671Y-96747927D01*
X126343792Y-96737566D01*
X126385391Y-96736657D01*
X126425538Y-96745430D01*
X126461305Y-96764116D01*
X126463334Y-96765586D01*
X126477775Y-96775746D01*
X126487874Y-96782376D01*
X126488701Y-96782602D01*
X126490820Y-96779698D01*
X126492492Y-96770631D01*
X126493761Y-96754346D01*
X126494671Y-96729785D01*
X126495266Y-96695893D01*
X126495590Y-96651612D01*
X126495688Y-96595886D01*
X126495688Y-96404781D01*
X126462868Y-96426443D01*
X126447662Y-96435433D01*
X126422440Y-96447327D01*
X126400229Y-96454693D01*
X126369194Y-96458451D01*
X126327136Y-96453887D01*
X126288242Y-96438972D01*
X126254504Y-96414870D01*
X126227914Y-96382746D01*
X126210464Y-96343763D01*
X126209652Y-96340742D01*
X126205495Y-96316146D01*
X126202559Y-96282661D01*
X126200844Y-96243333D01*
X126200429Y-96207986D01*
X126305016Y-96207986D01*
X126305498Y-96246380D01*
X126307482Y-96278556D01*
X126311532Y-96302193D01*
X126318210Y-96319347D01*
X126328076Y-96332073D01*
X126341691Y-96342429D01*
X126358756Y-96350480D01*
X126388223Y-96356127D01*
X126418651Y-96354293D01*
X126446119Y-96345372D01*
X126466704Y-96329764D01*
X126472699Y-96321379D01*
X126484967Y-96293046D01*
X126492757Y-96257414D01*
X126496088Y-96217623D01*
X126494979Y-96176815D01*
X126489449Y-96138130D01*
X126479516Y-96104709D01*
X126465200Y-96079694D01*
X126456345Y-96069959D01*
X126445478Y-96062372D01*
X126430875Y-96058336D01*
X126408153Y-96056032D01*
X126385858Y-96055596D01*
X126355395Y-96061064D01*
X126332702Y-96074914D01*
X126316286Y-96097828D01*
X126311575Y-96109489D01*
X126308331Y-96123916D01*
X126306323Y-96143514D01*
X126305301Y-96170724D01*
X126305016Y-96207986D01*
X126200429Y-96207986D01*
X126200349Y-96201209D01*
X126201072Y-96159334D01*
X126203014Y-96120754D01*
X126206173Y-96088517D01*
X126210548Y-96065668D01*
X126217244Y-96046939D01*
X126238648Y-96011125D01*
X126267730Y-95983222D01*
X126302672Y-95963821D01*
X126341654Y-95953514D01*
X126382855Y-95952892D01*
X126424457Y-95962547D01*
X126464638Y-95983070D01*
X126495688Y-96003965D01*
X126495688Y-95954798D01*
X126595713Y-95954798D01*
X126595713Y-97236364D01*
X126496434Y-97236364D01*
G37*
G36*
X122739054Y-96197519D02*
G01*
X122738451Y-96235025D01*
X122735988Y-96269379D01*
X122731700Y-96295969D01*
X122719097Y-96334741D01*
X122694702Y-96378724D01*
X122661952Y-96413624D01*
X122621212Y-96439074D01*
X122572848Y-96454708D01*
X122569870Y-96455295D01*
X122515895Y-96459426D01*
X122462548Y-96451787D01*
X122412082Y-96432941D01*
X122366750Y-96403447D01*
X122360269Y-96397882D01*
X122349090Y-96386868D01*
X122344667Y-96380207D01*
X122344698Y-96379966D01*
X122349789Y-96373179D01*
X122361907Y-96361098D01*
X122378612Y-96346170D01*
X122412557Y-96317169D01*
X122435184Y-96332524D01*
X122438735Y-96334850D01*
X122459897Y-96346624D01*
X122480045Y-96355217D01*
X122489905Y-96357786D01*
X122517319Y-96360513D01*
X122546851Y-96358956D01*
X122573746Y-96353555D01*
X122593250Y-96344748D01*
X122608816Y-96328790D01*
X122623510Y-96305823D01*
X122634297Y-96281144D01*
X122638489Y-96259799D01*
X122638489Y-96242369D01*
X122330814Y-96242369D01*
X122333378Y-96172039D01*
X122334152Y-96161099D01*
X122430797Y-96161099D01*
X122638489Y-96161099D01*
X122638489Y-96143328D01*
X122635450Y-96124786D01*
X122624235Y-96099124D01*
X122607563Y-96075933D01*
X122588419Y-96060170D01*
X122587520Y-96059698D01*
X122563303Y-96051620D01*
X122534798Y-96048571D01*
X122527949Y-96048768D01*
X122494333Y-96056359D01*
X122466972Y-96074311D01*
X122446886Y-96101713D01*
X122435091Y-96137656D01*
X122430797Y-96161099D01*
X122334152Y-96161099D01*
X122336583Y-96126718D01*
X122343361Y-96089731D01*
X122354730Y-96059451D01*
X122371751Y-96033071D01*
X122395484Y-96007789D01*
X122433084Y-95979394D01*
X122477904Y-95959477D01*
X122525608Y-95951200D01*
X122574733Y-95954995D01*
X122617329Y-95968291D01*
X122657831Y-95992633D01*
X122690761Y-96026780D01*
X122715894Y-96070495D01*
X122733006Y-96123537D01*
X122734540Y-96131494D01*
X122737722Y-96161099D01*
X122737762Y-96161472D01*
X122739054Y-96197519D01*
G37*
G36*
X124743369Y-92241388D02*
G01*
X124799570Y-92241442D01*
X124845038Y-92241603D01*
X124880952Y-92241928D01*
X124908490Y-92242476D01*
X124928834Y-92243302D01*
X124943163Y-92244464D01*
X124952655Y-92246019D01*
X124958491Y-92248024D01*
X124961851Y-92250535D01*
X124963913Y-92253610D01*
X124964182Y-92254217D01*
X124967094Y-92264783D01*
X124971909Y-92286002D01*
X124978341Y-92316450D01*
X124986099Y-92354706D01*
X124994894Y-92399349D01*
X125004438Y-92448957D01*
X125014441Y-92502108D01*
X125016182Y-92511436D01*
X125026164Y-92563856D01*
X125035712Y-92612320D01*
X125044530Y-92655436D01*
X125052320Y-92691812D01*
X125058787Y-92720058D01*
X125063633Y-92738782D01*
X125066563Y-92746591D01*
X125068658Y-92748118D01*
X125081227Y-92754716D01*
X125102847Y-92764748D01*
X125131660Y-92777451D01*
X125165810Y-92792066D01*
X125203439Y-92807832D01*
X125242689Y-92823987D01*
X125281702Y-92839772D01*
X125318621Y-92854425D01*
X125351588Y-92867186D01*
X125378746Y-92877293D01*
X125398236Y-92883986D01*
X125408203Y-92886505D01*
X125411560Y-92885922D01*
X125424228Y-92880311D01*
X125444948Y-92868554D01*
X125474122Y-92850396D01*
X125512152Y-92825582D01*
X125559442Y-92793858D01*
X125616394Y-92754970D01*
X125633748Y-92743042D01*
X125683170Y-92709091D01*
X125723576Y-92681409D01*
X125755953Y-92659381D01*
X125781288Y-92642393D01*
X125800566Y-92629831D01*
X125814776Y-92621079D01*
X125824904Y-92615523D01*
X125831935Y-92612549D01*
X125836857Y-92611541D01*
X125840656Y-92611885D01*
X125844318Y-92612967D01*
X125849804Y-92616512D01*
X125863480Y-92628125D01*
X125883484Y-92646557D01*
X125908641Y-92670611D01*
X125937776Y-92699093D01*
X125969713Y-92730804D01*
X126003278Y-92764550D01*
X126037294Y-92799134D01*
X126070588Y-92833359D01*
X126101984Y-92866030D01*
X126130307Y-92895950D01*
X126154381Y-92921924D01*
X126173032Y-92942754D01*
X126185084Y-92957244D01*
X126189363Y-92964199D01*
X126189303Y-92964667D01*
X126184995Y-92973787D01*
X126174427Y-92991805D01*
X126158378Y-93017510D01*
X126137628Y-93049693D01*
X126112955Y-93087143D01*
X126085137Y-93128652D01*
X126054955Y-93173009D01*
X126052078Y-93177208D01*
X126012190Y-93235896D01*
X125979392Y-93285116D01*
X125953756Y-93324756D01*
X125935355Y-93354699D01*
X125924261Y-93374831D01*
X125920547Y-93385039D01*
X125921603Y-93391070D01*
X125927022Y-93408357D01*
X125936352Y-93433753D01*
X125948817Y-93465465D01*
X125963640Y-93501699D01*
X125980045Y-93540663D01*
X125997256Y-93580564D01*
X126014496Y-93619609D01*
X126030988Y-93656004D01*
X126045956Y-93687958D01*
X126058623Y-93713676D01*
X126068213Y-93731366D01*
X126073949Y-93739235D01*
X126081881Y-93742017D01*
X126100930Y-93746846D01*
X126129433Y-93753271D01*
X126165910Y-93760982D01*
X126208880Y-93769665D01*
X126256864Y-93779008D01*
X126308382Y-93788699D01*
X126356241Y-93797626D01*
X126404653Y-93806820D01*
X126448213Y-93815264D01*
X126485432Y-93822660D01*
X126514819Y-93828713D01*
X126534884Y-93833125D01*
X126544138Y-93835600D01*
X126558204Y-93841510D01*
X126558204Y-94091037D01*
X126558203Y-94099380D01*
X126558163Y-94160530D01*
X126558021Y-94210474D01*
X126557728Y-94250368D01*
X126557234Y-94281366D01*
X126556489Y-94304623D01*
X126555444Y-94321295D01*
X126554048Y-94332537D01*
X126552253Y-94339504D01*
X126550008Y-94343351D01*
X126547264Y-94345233D01*
X126538961Y-94347385D01*
X126519765Y-94351547D01*
X126491157Y-94357416D01*
X126454589Y-94364702D01*
X126411512Y-94373116D01*
X126363377Y-94382369D01*
X126311634Y-94392173D01*
X126282245Y-94397726D01*
X126224864Y-94408767D01*
X126178477Y-94418034D01*
X126142161Y-94425736D01*
X126114993Y-94432085D01*
X126096050Y-94437289D01*
X126084409Y-94441560D01*
X126079147Y-94445108D01*
X126078256Y-94446600D01*
X126072683Y-94458358D01*
X126063362Y-94479708D01*
X126050938Y-94509110D01*
X126036058Y-94545027D01*
X126019365Y-94585920D01*
X126001505Y-94630250D01*
X125985714Y-94670008D01*
X125966031Y-94720836D01*
X125951214Y-94760990D01*
X125941111Y-94790911D01*
X125935565Y-94811039D01*
X125934424Y-94821813D01*
X125937652Y-94829173D01*
X125947347Y-94846078D01*
X125962649Y-94870802D01*
X125982726Y-94902050D01*
X126006744Y-94938529D01*
X126033871Y-94978944D01*
X126063274Y-95022001D01*
X126089617Y-95060495D01*
X126116734Y-95100662D01*
X126140729Y-95136781D01*
X126160796Y-95167609D01*
X126176129Y-95191907D01*
X126185920Y-95208434D01*
X126189363Y-95215948D01*
X126189066Y-95216879D01*
X126182614Y-95225668D01*
X126168451Y-95241950D01*
X126147532Y-95264715D01*
X126120814Y-95292948D01*
X126089250Y-95325639D01*
X126053795Y-95361775D01*
X126015405Y-95400343D01*
X125987224Y-95428412D01*
X125946831Y-95468395D01*
X125913910Y-95500566D01*
X125887679Y-95525638D01*
X125867353Y-95544324D01*
X125852148Y-95557336D01*
X125841280Y-95565387D01*
X125833966Y-95569190D01*
X125829422Y-95569458D01*
X125823536Y-95566169D01*
X125808082Y-95556400D01*
X125784667Y-95541073D01*
X125754557Y-95521033D01*
X125719020Y-95497125D01*
X125679323Y-95470193D01*
X125636733Y-95441082D01*
X125600698Y-95416526D01*
X125560497Y-95389542D01*
X125524239Y-95365644D01*
X125493187Y-95345642D01*
X125468604Y-95330350D01*
X125451754Y-95320579D01*
X125443900Y-95317141D01*
X125440969Y-95317687D01*
X125427341Y-95322812D01*
X125406033Y-95332468D01*
X125379324Y-95345594D01*
X125349496Y-95361128D01*
X125336227Y-95368123D01*
X125307606Y-95382502D01*
X125283150Y-95393838D01*
X125265112Y-95401117D01*
X125255744Y-95403325D01*
X125253848Y-95402138D01*
X125249288Y-95395986D01*
X125242617Y-95384039D01*
X125233550Y-95365651D01*
X125221803Y-95340179D01*
X125207093Y-95306977D01*
X125189134Y-95265400D01*
X125167643Y-95214804D01*
X125142336Y-95154543D01*
X125112929Y-95083973D01*
X125079138Y-95002449D01*
X125061557Y-94959880D01*
X125034740Y-94894673D01*
X125009624Y-94833273D01*
X124986597Y-94776647D01*
X124966047Y-94725760D01*
X124948363Y-94681580D01*
X124933933Y-94645075D01*
X124923145Y-94617210D01*
X124916388Y-94598954D01*
X124914049Y-94591273D01*
X124914602Y-94588090D01*
X124923234Y-94575750D01*
X124940618Y-94562067D01*
X124944212Y-94559721D01*
X124963778Y-94546425D01*
X124987886Y-94529478D01*
X125012140Y-94511960D01*
X125049171Y-94482131D01*
X125104147Y-94425696D01*
X125149472Y-94362520D01*
X125184672Y-94293825D01*
X125209274Y-94220831D01*
X125222806Y-94144763D01*
X125224795Y-94066841D01*
X125214767Y-93988288D01*
X125210093Y-93967870D01*
X125185475Y-93894745D01*
X125150150Y-93826523D01*
X125105131Y-93764286D01*
X125051433Y-93709119D01*
X124990070Y-93662104D01*
X124922057Y-93624327D01*
X124848408Y-93596870D01*
X124828525Y-93591961D01*
X124779764Y-93584619D01*
X124725556Y-93581439D01*
X124670210Y-93582421D01*
X124618035Y-93587565D01*
X124573340Y-93596870D01*
X124527361Y-93612173D01*
X124464513Y-93641533D01*
X124406811Y-93679993D01*
X124351411Y-93729248D01*
X124343356Y-93737386D01*
X124306607Y-93777485D01*
X124277888Y-93815186D01*
X124254897Y-93853811D01*
X124235331Y-93896684D01*
X124213609Y-93962314D01*
X124199542Y-94039516D01*
X124197158Y-94116636D01*
X124206126Y-94192501D01*
X124226114Y-94265939D01*
X124256787Y-94335777D01*
X124297816Y-94400842D01*
X124348867Y-94459961D01*
X124409608Y-94511960D01*
X124415316Y-94516131D01*
X124439940Y-94533793D01*
X124463344Y-94550132D01*
X124481130Y-94562067D01*
X124487343Y-94566321D01*
X124502241Y-94579847D01*
X124507699Y-94591273D01*
X124506763Y-94594824D01*
X124501597Y-94609276D01*
X124492257Y-94633694D01*
X124479131Y-94667111D01*
X124462607Y-94708561D01*
X124443073Y-94757076D01*
X124420919Y-94811689D01*
X124396531Y-94871434D01*
X124370299Y-94935343D01*
X124342610Y-95002449D01*
X124321065Y-95054472D01*
X124290033Y-95129107D01*
X124263210Y-95193190D01*
X124240309Y-95247365D01*
X124221049Y-95292276D01*
X124205143Y-95328569D01*
X124192309Y-95356888D01*
X124182262Y-95377879D01*
X124174719Y-95392185D01*
X124169394Y-95400452D01*
X124166004Y-95403325D01*
X124163113Y-95403047D01*
X124149671Y-95398494D01*
X124128546Y-95389313D01*
X124101989Y-95376520D01*
X124072253Y-95361128D01*
X124059186Y-95354219D01*
X124030421Y-95339591D01*
X124005755Y-95327827D01*
X123987471Y-95319990D01*
X123977848Y-95317141D01*
X123971851Y-95319601D01*
X123956327Y-95328434D01*
X123932872Y-95342915D01*
X123902750Y-95362232D01*
X123867224Y-95385574D01*
X123827558Y-95412128D01*
X123785015Y-95441082D01*
X123749292Y-95465514D01*
X123709030Y-95492865D01*
X123672719Y-95517330D01*
X123641625Y-95538066D01*
X123617017Y-95554229D01*
X123600162Y-95564975D01*
X123592327Y-95569458D01*
X123589885Y-95569681D01*
X123583771Y-95567376D01*
X123574417Y-95561106D01*
X123561038Y-95550161D01*
X123542851Y-95533827D01*
X123519072Y-95511390D01*
X123488917Y-95482140D01*
X123451602Y-95445362D01*
X123406344Y-95400343D01*
X123396160Y-95390165D01*
X123358439Y-95352130D01*
X123323902Y-95316790D01*
X123293502Y-95285158D01*
X123268196Y-95258246D01*
X123248938Y-95237065D01*
X123236683Y-95222628D01*
X123232385Y-95215948D01*
X123235172Y-95209635D01*
X123244352Y-95193972D01*
X123259156Y-95170411D01*
X123278777Y-95140192D01*
X123302408Y-95104557D01*
X123329243Y-95064746D01*
X123358474Y-95022001D01*
X123384296Y-94984226D01*
X123411755Y-94943409D01*
X123436209Y-94906366D01*
X123456825Y-94874391D01*
X123472772Y-94848777D01*
X123483216Y-94830820D01*
X123487325Y-94821813D01*
X123487053Y-94815701D01*
X123483012Y-94798780D01*
X123474465Y-94772215D01*
X123461257Y-94735565D01*
X123443234Y-94688390D01*
X123420243Y-94630250D01*
X123414400Y-94615684D01*
X123396846Y-94572294D01*
X123380667Y-94532836D01*
X123366507Y-94498850D01*
X123355013Y-94471875D01*
X123346829Y-94453448D01*
X123342601Y-94445108D01*
X123340983Y-94443601D01*
X123332989Y-94439757D01*
X123318204Y-94435095D01*
X123295706Y-94429406D01*
X123264571Y-94422480D01*
X123223876Y-94414106D01*
X123172698Y-94404073D01*
X123110114Y-94392173D01*
X123059036Y-94382496D01*
X123010844Y-94373233D01*
X122967690Y-94364806D01*
X122931027Y-94357504D01*
X122902304Y-94351615D01*
X122882973Y-94347428D01*
X122874485Y-94345233D01*
X122874119Y-94345069D01*
X122871439Y-94343007D01*
X122869252Y-94338839D01*
X122867508Y-94331409D01*
X122866158Y-94319563D01*
X122865152Y-94302144D01*
X122864441Y-94277997D01*
X122863974Y-94245969D01*
X122863702Y-94204903D01*
X122863576Y-94153644D01*
X122863545Y-94091037D01*
X122863545Y-93841510D01*
X122877611Y-93835600D01*
X122885791Y-93833378D01*
X122905108Y-93829099D01*
X122933856Y-93823158D01*
X122970547Y-93815851D01*
X123013689Y-93807474D01*
X123061792Y-93798325D01*
X123113367Y-93788699D01*
X123161324Y-93779689D01*
X123209608Y-93770311D01*
X123252983Y-93761570D01*
X123289969Y-93753780D01*
X123319088Y-93747253D01*
X123338858Y-93742301D01*
X123347800Y-93739235D01*
X123351040Y-93735343D01*
X123359364Y-93720900D01*
X123371038Y-93697799D01*
X123385286Y-93667833D01*
X123401331Y-93632794D01*
X123418396Y-93594476D01*
X123435706Y-93554672D01*
X123452483Y-93515174D01*
X123467951Y-93477776D01*
X123481333Y-93444271D01*
X123491853Y-93416451D01*
X123498735Y-93396109D01*
X123501202Y-93385039D01*
X123501185Y-93384674D01*
X123496982Y-93373809D01*
X123485405Y-93353026D01*
X123466524Y-93322440D01*
X123440414Y-93282165D01*
X123407146Y-93232317D01*
X123366793Y-93173009D01*
X123362773Y-93167138D01*
X123332853Y-93123082D01*
X123305400Y-93082031D01*
X123281191Y-93045195D01*
X123261007Y-93013784D01*
X123245625Y-92989008D01*
X123235825Y-92972076D01*
X123232385Y-92964199D01*
X123234960Y-92959539D01*
X123245341Y-92946664D01*
X123262589Y-92927176D01*
X123285528Y-92902271D01*
X123312985Y-92873147D01*
X123343782Y-92840999D01*
X123376746Y-92807023D01*
X123410702Y-92772415D01*
X123444473Y-92738373D01*
X123476885Y-92706092D01*
X123506763Y-92676767D01*
X123532932Y-92651596D01*
X123554216Y-92631775D01*
X123569440Y-92618500D01*
X123577430Y-92612967D01*
X123578880Y-92612499D01*
X123582361Y-92611597D01*
X123586291Y-92611616D01*
X123591658Y-92613169D01*
X123599448Y-92616870D01*
X123610647Y-92623336D01*
X123626241Y-92633181D01*
X123647218Y-92647019D01*
X123674563Y-92665465D01*
X123709262Y-92689134D01*
X123752303Y-92718641D01*
X123804671Y-92754601D01*
X123834897Y-92775294D01*
X123886936Y-92810517D01*
X123929523Y-92838719D01*
X123963069Y-92860158D01*
X123987982Y-92875093D01*
X124004673Y-92883783D01*
X124013551Y-92886485D01*
X124016454Y-92885981D01*
X124030626Y-92881611D01*
X124053537Y-92873387D01*
X124083331Y-92862071D01*
X124118154Y-92848422D01*
X124156152Y-92833200D01*
X124195470Y-92817166D01*
X124234254Y-92801079D01*
X124270648Y-92785700D01*
X124302798Y-92771788D01*
X124328851Y-92760103D01*
X124346950Y-92751406D01*
X124355241Y-92746457D01*
X124355593Y-92745946D01*
X124358835Y-92736161D01*
X124363950Y-92715705D01*
X124370645Y-92685968D01*
X124378621Y-92648339D01*
X124387584Y-92604209D01*
X124397237Y-92554967D01*
X124407285Y-92502004D01*
X124408932Y-92493196D01*
X124418905Y-92440520D01*
X124428367Y-92391621D01*
X124437029Y-92347921D01*
X124444602Y-92310839D01*
X124450796Y-92281795D01*
X124455322Y-92262210D01*
X124457892Y-92253505D01*
X124458765Y-92252010D01*
X124461314Y-92249228D01*
X124465754Y-92246980D01*
X124473266Y-92245207D01*
X124485028Y-92243854D01*
X124502219Y-92242864D01*
X124526018Y-92242181D01*
X124557604Y-92241748D01*
X124598156Y-92241508D01*
X124648853Y-92241406D01*
X124710874Y-92241385D01*
X124743369Y-92241388D01*
G37*
G36*
X124113104Y-97149519D02*
G01*
X124092170Y-97183522D01*
X124061454Y-97211309D01*
X124021723Y-97231415D01*
X124021225Y-97231592D01*
X123990950Y-97238670D01*
X123954665Y-97241914D01*
X123918211Y-97241122D01*
X123887428Y-97236088D01*
X123885948Y-97235657D01*
X123864574Y-97226380D01*
X123845230Y-97213687D01*
X123826282Y-97197743D01*
X123826282Y-97236364D01*
X123726257Y-97236364D01*
X123726290Y-97060914D01*
X123826282Y-97060914D01*
X123826292Y-97063370D01*
X123829254Y-97095220D01*
X123837993Y-97117765D01*
X123853273Y-97133041D01*
X123854103Y-97133552D01*
X123869408Y-97139004D01*
X123892263Y-97143400D01*
X123918125Y-97146227D01*
X123942449Y-97146973D01*
X123960690Y-97145129D01*
X123969981Y-97142948D01*
X123987418Y-97139062D01*
X124006570Y-97130436D01*
X124021057Y-97112406D01*
X124026132Y-97087890D01*
X124026006Y-97082813D01*
X124023113Y-97063719D01*
X124015296Y-97049699D01*
X124001058Y-97040037D01*
X123978900Y-97034020D01*
X123947326Y-97030933D01*
X123904837Y-97030063D01*
X123826282Y-97030063D01*
X123826282Y-97060914D01*
X123726290Y-97060914D01*
X123726292Y-97050380D01*
X123726382Y-97015627D01*
X123726913Y-96961609D01*
X123727890Y-96915939D01*
X123729281Y-96879654D01*
X123731052Y-96853792D01*
X123733168Y-96839391D01*
X123734314Y-96835610D01*
X123749105Y-96807853D01*
X123773012Y-96782037D01*
X123803090Y-96760802D01*
X123836397Y-96746788D01*
X123856901Y-96742206D01*
X123896569Y-96737574D01*
X123939106Y-96736642D01*
X123979581Y-96739434D01*
X124013066Y-96745971D01*
X124017677Y-96747500D01*
X124037408Y-96756593D01*
X124058069Y-96769137D01*
X124076605Y-96782921D01*
X124089966Y-96795735D01*
X124095098Y-96805369D01*
X124094993Y-96805840D01*
X124089122Y-96812775D01*
X124076043Y-96824545D01*
X124058241Y-96838889D01*
X124052737Y-96843106D01*
X124035575Y-96855615D01*
X124024906Y-96861431D01*
X124018197Y-96861568D01*
X124012917Y-96857041D01*
X124002209Y-96847698D01*
X123977983Y-96836890D01*
X123947858Y-96830970D01*
X123915278Y-96829950D01*
X123883683Y-96833843D01*
X123856517Y-96842661D01*
X123837222Y-96856416D01*
X123833920Y-96860986D01*
X123828094Y-96878354D01*
X123826282Y-96905151D01*
X123826282Y-96941395D01*
X123918492Y-96943639D01*
X123928728Y-96943901D01*
X123964375Y-96945178D01*
X123990670Y-96946992D01*
X124010151Y-96949665D01*
X124025359Y-96953518D01*
X124038834Y-96958873D01*
X124073530Y-96980461D01*
X124100796Y-97010661D01*
X124117840Y-97047731D01*
X124122558Y-97068733D01*
X124122982Y-97087890D01*
X124123489Y-97110767D01*
X124113104Y-97149519D01*
G37*
G36*
X123319005Y-95960593D02*
G01*
X123351825Y-95975131D01*
X123377031Y-95996542D01*
X123377815Y-95997481D01*
X123383088Y-96001819D01*
X123386196Y-95997413D01*
X123388674Y-95982400D01*
X123391800Y-95957924D01*
X123443375Y-95956108D01*
X123494950Y-95954293D01*
X123494950Y-96455427D01*
X123443375Y-96453611D01*
X123391800Y-96451796D01*
X123388674Y-96279878D01*
X123388187Y-96253424D01*
X123387170Y-96205364D01*
X123385942Y-96167612D01*
X123384209Y-96138674D01*
X123381680Y-96117055D01*
X123378060Y-96101263D01*
X123373057Y-96089801D01*
X123366378Y-96081178D01*
X123357730Y-96073898D01*
X123346820Y-96066468D01*
X123330225Y-96059232D01*
X123303115Y-96055181D01*
X123274425Y-96057096D01*
X123249488Y-96065054D01*
X123229703Y-96075286D01*
X123205691Y-96047863D01*
X123195917Y-96036505D01*
X123180626Y-96018055D01*
X123169480Y-96003784D01*
X123157280Y-95987129D01*
X123177842Y-95974421D01*
X123205317Y-95961594D01*
X123242705Y-95953486D01*
X123281616Y-95953265D01*
X123319005Y-95960593D01*
G37*
G36*
X124486346Y-96278582D02*
G01*
X124480019Y-96316055D01*
X124470937Y-96344669D01*
X124447952Y-96382762D01*
X124414511Y-96416331D01*
X124373831Y-96440832D01*
X124327744Y-96454858D01*
X124317955Y-96456265D01*
X124278030Y-96457441D01*
X124237786Y-96452546D01*
X124203142Y-96442182D01*
X124177385Y-96427797D01*
X124145608Y-96401539D01*
X124118630Y-96370013D01*
X124100189Y-96337035D01*
X124096326Y-96326799D01*
X124091857Y-96311735D01*
X124088882Y-96295039D01*
X124087102Y-96273993D01*
X124086216Y-96245881D01*
X124085924Y-96207986D01*
X124085927Y-96204860D01*
X124185745Y-96204860D01*
X124185952Y-96227778D01*
X124187744Y-96262510D01*
X124191992Y-96288462D01*
X124199436Y-96308017D01*
X124210813Y-96323558D01*
X124226864Y-96337466D01*
X124245824Y-96348316D01*
X124278867Y-96355735D01*
X124315407Y-96351881D01*
X124315645Y-96351820D01*
X124341325Y-96342895D01*
X124360516Y-96329919D01*
X124374038Y-96311248D01*
X124382710Y-96285237D01*
X124387352Y-96250243D01*
X124388783Y-96204622D01*
X124388607Y-96175170D01*
X124387570Y-96150809D01*
X124385222Y-96133081D01*
X124381129Y-96118870D01*
X124374854Y-96105059D01*
X124370791Y-96097788D01*
X124349656Y-96073670D01*
X124321357Y-96059473D01*
X124285229Y-96054823D01*
X124284513Y-96054825D01*
X124249830Y-96060568D01*
X124221112Y-96077289D01*
X124198586Y-96104856D01*
X124197985Y-96105891D01*
X124192655Y-96116874D01*
X124189112Y-96129566D01*
X124187011Y-96146662D01*
X124186004Y-96170861D01*
X124185745Y-96204860D01*
X124085927Y-96204860D01*
X124085939Y-96194509D01*
X124087012Y-96149476D01*
X124090176Y-96113867D01*
X124096068Y-96085289D01*
X124105324Y-96061350D01*
X124118579Y-96039655D01*
X124136471Y-96017813D01*
X124168808Y-95988796D01*
X124209034Y-95966438D01*
X124252285Y-95953922D01*
X124296743Y-95950968D01*
X124340586Y-95957294D01*
X124381998Y-95972621D01*
X124419157Y-95996667D01*
X124450246Y-96029152D01*
X124473445Y-96069796D01*
X124475595Y-96075404D01*
X124483498Y-96107000D01*
X124488494Y-96146460D01*
X124490614Y-96190440D01*
X124490386Y-96204622D01*
X124489888Y-96235596D01*
X124486346Y-96278582D01*
G37*
G36*
X125279114Y-97079442D02*
G01*
X125278103Y-97101143D01*
X125276385Y-97117095D01*
X125273777Y-97129291D01*
X125270093Y-97139724D01*
X125265149Y-97150388D01*
X125261195Y-97157791D01*
X125237698Y-97189005D01*
X125207343Y-97215135D01*
X125174205Y-97232505D01*
X125168798Y-97234243D01*
X125143846Y-97239683D01*
X125119022Y-97242122D01*
X125107513Y-97241651D01*
X125079922Y-97236859D01*
X125051695Y-97228148D01*
X125027205Y-97217019D01*
X125010829Y-97204975D01*
X125006352Y-97200290D01*
X124996225Y-97193470D01*
X124990726Y-97198086D01*
X124989068Y-97214483D01*
X124989068Y-97236364D01*
X124889043Y-97236364D01*
X124889043Y-96989428D01*
X124992195Y-96989428D01*
X124992196Y-96991233D01*
X124993024Y-97033573D01*
X124995879Y-97065550D01*
X125001463Y-97089164D01*
X125010481Y-97106413D01*
X125023637Y-97119296D01*
X125041635Y-97129811D01*
X125061996Y-97137832D01*
X125092773Y-97141449D01*
X125125549Y-97134097D01*
X125131719Y-97131566D01*
X125152569Y-97116740D01*
X125167700Y-97093685D01*
X125177397Y-97061552D01*
X125181944Y-97019486D01*
X125181628Y-96966638D01*
X125179138Y-96931000D01*
X125174555Y-96900902D01*
X125167972Y-96881312D01*
X125157224Y-96865578D01*
X125134335Y-96847411D01*
X125106788Y-96837724D01*
X125077338Y-96836486D01*
X125048741Y-96843665D01*
X125023751Y-96859231D01*
X125005125Y-96883152D01*
X125004206Y-96884958D01*
X124998997Y-96897206D01*
X124995524Y-96911052D01*
X124993453Y-96929222D01*
X124992454Y-96954439D01*
X124992195Y-96989428D01*
X124889043Y-96989428D01*
X124889043Y-96535665D01*
X124937492Y-96537491D01*
X124985942Y-96539317D01*
X124987637Y-96662785D01*
X124987732Y-96669201D01*
X124988580Y-96706317D01*
X124989807Y-96738464D01*
X124991305Y-96763758D01*
X124992967Y-96780315D01*
X124994686Y-96786253D01*
X124999460Y-96784273D01*
X125008620Y-96775881D01*
X125011474Y-96772796D01*
X125030595Y-96759342D01*
X125056867Y-96747674D01*
X125085917Y-96739443D01*
X125113373Y-96736302D01*
X125122717Y-96736433D01*
X125161895Y-96741481D01*
X125195270Y-96754925D01*
X125226812Y-96778230D01*
X125242726Y-96793443D01*
X125255296Y-96808465D01*
X125264678Y-96824877D01*
X125271329Y-96844528D01*
X125275705Y-96869270D01*
X125278265Y-96900955D01*
X125279466Y-96941432D01*
X125279764Y-96992554D01*
X125279756Y-97010820D01*
X125279722Y-97019486D01*
X125279604Y-97049999D01*
X125279114Y-97079442D01*
G37*
G36*
X124785034Y-95951672D02*
G01*
X124812052Y-95956969D01*
X124857806Y-95972908D01*
X124893404Y-95996083D01*
X124918811Y-96026461D01*
X124933994Y-96064007D01*
X124938918Y-96108686D01*
X124938589Y-96116215D01*
X124934491Y-96141819D01*
X124927240Y-96164225D01*
X124921293Y-96175849D01*
X124903563Y-96199793D01*
X124879917Y-96218253D01*
X124848764Y-96232022D01*
X124808509Y-96241892D01*
X124757561Y-96248656D01*
X124739634Y-96250527D01*
X124705289Y-96255525D01*
X124681082Y-96261940D01*
X124665351Y-96270542D01*
X124656435Y-96282105D01*
X124652673Y-96297399D01*
X124652821Y-96313094D01*
X124661321Y-96334300D01*
X124680313Y-96349297D01*
X124709985Y-96358206D01*
X124750522Y-96361148D01*
X124752223Y-96361144D01*
X124796636Y-96357304D01*
X124835468Y-96345264D01*
X124873541Y-96323552D01*
X124901662Y-96304204D01*
X124935908Y-96334239D01*
X124937980Y-96336063D01*
X124954281Y-96350995D01*
X124965828Y-96362578D01*
X124970234Y-96368437D01*
X124969980Y-96369685D01*
X124962841Y-96378242D01*
X124947832Y-96390355D01*
X124927578Y-96404200D01*
X124904705Y-96417956D01*
X124881836Y-96429800D01*
X124860866Y-96438572D01*
X124832345Y-96448252D01*
X124807773Y-96454356D01*
X124795179Y-96456276D01*
X124744867Y-96458589D01*
X124696437Y-96452800D01*
X124651848Y-96439634D01*
X124613057Y-96419812D01*
X124582021Y-96394060D01*
X124560698Y-96363098D01*
X124552237Y-96335604D01*
X124549599Y-96299819D01*
X124553934Y-96263406D01*
X124565076Y-96231383D01*
X124566275Y-96229092D01*
X124581337Y-96206241D01*
X124600404Y-96188351D01*
X124625162Y-96174699D01*
X124657295Y-96164565D01*
X124698489Y-96157225D01*
X124750428Y-96151958D01*
X124750530Y-96151950D01*
X124776059Y-96148876D01*
X124799007Y-96144231D01*
X124814415Y-96139017D01*
X124827646Y-96129077D01*
X124837031Y-96111409D01*
X124836530Y-96091678D01*
X124826407Y-96072755D01*
X124806926Y-96057511D01*
X124787901Y-96051058D01*
X124756701Y-96048109D01*
X124721712Y-96050912D01*
X124686846Y-96059083D01*
X124656016Y-96072241D01*
X124621313Y-96091826D01*
X124592638Y-96058261D01*
X124591762Y-96057233D01*
X124577730Y-96040032D01*
X124567776Y-96026483D01*
X124564006Y-96019442D01*
X124564502Y-96017712D01*
X124572643Y-96009151D01*
X124588678Y-95997807D01*
X124609883Y-95985462D01*
X124633536Y-95973902D01*
X124656332Y-95965958D01*
X124689363Y-95958275D01*
X124725007Y-95952866D01*
X124758489Y-95950432D01*
X124785034Y-95951672D01*
G37*
G36*
X123946908Y-95956113D02*
G01*
X123998199Y-95957924D01*
X123998167Y-96142344D01*
X123998165Y-96148771D01*
X123998114Y-96200487D01*
X123997920Y-96241436D01*
X123997477Y-96273183D01*
X123996682Y-96297292D01*
X123995431Y-96315328D01*
X123993617Y-96328855D01*
X123991138Y-96339436D01*
X123987889Y-96348638D01*
X123983765Y-96358022D01*
X123974605Y-96375573D01*
X123946353Y-96411845D01*
X123910198Y-96438638D01*
X123866917Y-96455307D01*
X123857313Y-96457289D01*
X123815678Y-96458291D01*
X123773252Y-96447917D01*
X123732301Y-96426650D01*
X123701251Y-96405754D01*
X123701251Y-96454921D01*
X123601226Y-96454921D01*
X123601226Y-95954798D01*
X123701251Y-95954798D01*
X123701251Y-96116014D01*
X123701256Y-96137468D01*
X123701356Y-96182131D01*
X123701679Y-96216655D01*
X123702351Y-96242721D01*
X123703496Y-96262008D01*
X123705241Y-96276197D01*
X123707709Y-96286969D01*
X123711026Y-96296003D01*
X123715317Y-96304980D01*
X123719968Y-96313387D01*
X123740686Y-96337627D01*
X123767805Y-96351554D01*
X123802485Y-96355845D01*
X123807369Y-96355738D01*
X123835247Y-96351097D01*
X123857879Y-96338186D01*
X123879033Y-96314994D01*
X123881169Y-96311993D01*
X123884555Y-96305882D01*
X123887186Y-96297918D01*
X123889181Y-96286580D01*
X123890658Y-96270346D01*
X123891737Y-96247694D01*
X123892537Y-96217104D01*
X123893174Y-96177054D01*
X123893770Y-96126023D01*
X123895616Y-95954302D01*
X123946908Y-95956113D01*
G37*
G36*
X124484161Y-96743764D02*
G01*
X124522541Y-96745618D01*
X124576073Y-96912724D01*
X124578243Y-96919491D01*
X124592064Y-96962207D01*
X124604670Y-97000542D01*
X124615551Y-97032989D01*
X124624195Y-97058040D01*
X124630092Y-97074185D01*
X124632730Y-97079917D01*
X124634299Y-97076573D01*
X124638835Y-97062741D01*
X124645742Y-97039694D01*
X124654544Y-97009062D01*
X124664767Y-96972475D01*
X124675935Y-96931565D01*
X124683697Y-96902819D01*
X124694638Y-96862316D01*
X124704418Y-96826124D01*
X124712514Y-96796182D01*
X124718400Y-96774430D01*
X124721552Y-96762810D01*
X124727091Y-96742492D01*
X124779935Y-96742492D01*
X124789474Y-96742550D01*
X124811613Y-96743203D01*
X124827008Y-96744426D01*
X124832779Y-96746029D01*
X124832748Y-96746205D01*
X124830472Y-96753929D01*
X124824944Y-96771824D01*
X124816652Y-96798349D01*
X124806086Y-96831962D01*
X124793735Y-96871123D01*
X124780087Y-96914290D01*
X124765631Y-96959923D01*
X124750857Y-97006480D01*
X124736253Y-97052421D01*
X124722308Y-97096204D01*
X124709512Y-97136289D01*
X124698352Y-97171135D01*
X124689319Y-97199200D01*
X124682901Y-97218944D01*
X124679587Y-97228825D01*
X124679417Y-97229237D01*
X124672905Y-97233492D01*
X124657421Y-97235366D01*
X124631274Y-97235076D01*
X124585877Y-97233238D01*
X124536357Y-97066291D01*
X124534537Y-97060166D01*
X124521663Y-97017454D01*
X124509845Y-96979276D01*
X124499569Y-96947128D01*
X124491321Y-96922504D01*
X124485588Y-96906899D01*
X124482855Y-96901806D01*
X124482726Y-96901938D01*
X124479634Y-96909492D01*
X124473564Y-96927325D01*
X124465008Y-96953880D01*
X124454463Y-96987601D01*
X124442420Y-97026932D01*
X124429375Y-97070315D01*
X124379876Y-97236364D01*
X124289728Y-97236364D01*
X124249176Y-97109770D01*
X124237145Y-97072180D01*
X124220415Y-97019832D01*
X124203160Y-96965767D01*
X124186827Y-96914526D01*
X124172867Y-96870649D01*
X124172752Y-96870288D01*
X124161362Y-96834513D01*
X124151164Y-96802618D01*
X124142806Y-96776612D01*
X124136932Y-96758505D01*
X124134190Y-96750306D01*
X124134443Y-96747595D01*
X124141278Y-96744595D01*
X124157403Y-96742977D01*
X124184407Y-96742492D01*
X124186737Y-96742495D01*
X124215858Y-96743390D01*
X124233500Y-96745953D01*
X124240537Y-96750306D01*
X124242478Y-96756707D01*
X124247336Y-96773867D01*
X124254566Y-96799913D01*
X124263700Y-96833149D01*
X124274270Y-96871880D01*
X124285808Y-96914409D01*
X124296133Y-96952260D01*
X124306930Y-96991124D01*
X124316419Y-97024524D01*
X124324121Y-97050806D01*
X124329559Y-97068314D01*
X124332256Y-97075395D01*
X124332566Y-97075400D01*
X124336187Y-97068638D01*
X124342952Y-97051696D01*
X124352342Y-97026018D01*
X124363842Y-96993047D01*
X124376934Y-96954228D01*
X124391103Y-96911002D01*
X124445781Y-96741911D01*
X124484161Y-96743764D01*
G37*
G36*
X125455162Y-95957800D02*
G01*
X125488466Y-95970183D01*
X125514345Y-95989339D01*
X125523651Y-95998500D01*
X125533149Y-96003696D01*
X125537904Y-95997629D01*
X125539203Y-95979804D01*
X125539203Y-95954798D01*
X125639228Y-95954798D01*
X125639228Y-96454921D01*
X125540110Y-96454921D01*
X125538094Y-96287693D01*
X125537639Y-96251193D01*
X125537001Y-96208886D01*
X125536245Y-96176355D01*
X125535232Y-96152000D01*
X125533821Y-96134222D01*
X125531873Y-96121420D01*
X125529248Y-96111994D01*
X125525807Y-96104343D01*
X125521408Y-96096869D01*
X125518596Y-96092537D01*
X125498343Y-96070786D01*
X125472559Y-96058614D01*
X125438891Y-96054823D01*
X125406499Y-96058765D01*
X125380129Y-96071841D01*
X125360319Y-96094742D01*
X125356962Y-96101182D01*
X125354067Y-96109755D01*
X125351791Y-96121551D01*
X125350011Y-96138116D01*
X125348606Y-96160997D01*
X125347451Y-96191741D01*
X125346425Y-96231895D01*
X125345405Y-96283004D01*
X125342280Y-96451796D01*
X125290213Y-96453619D01*
X125238147Y-96455443D01*
X125240201Y-96269199D01*
X125240230Y-96266587D01*
X125240854Y-96213735D01*
X125241503Y-96171759D01*
X125242296Y-96139104D01*
X125243349Y-96114211D01*
X125244782Y-96095524D01*
X125246711Y-96081486D01*
X125249255Y-96070541D01*
X125252530Y-96061130D01*
X125256656Y-96051697D01*
X125275194Y-96019025D01*
X125301145Y-95991184D01*
X125336028Y-95968819D01*
X125343898Y-95965112D01*
X125379558Y-95954882D01*
X125417753Y-95952572D01*
X125455162Y-95957800D01*
G37*
G36*
X123277331Y-96954044D02*
G01*
X123278412Y-97009588D01*
X123272479Y-97062463D01*
X123260012Y-97109828D01*
X123241494Y-97148842D01*
X123226636Y-97170242D01*
X123200727Y-97197475D01*
X123169432Y-97217912D01*
X123129235Y-97234229D01*
X123107192Y-97239181D01*
X123071098Y-97241604D01*
X123031906Y-97239480D01*
X122994380Y-97233135D01*
X122963284Y-97222895D01*
X122957193Y-97219955D01*
X122936075Y-97207974D01*
X122915587Y-97194124D01*
X122898302Y-97180394D01*
X122886791Y-97168774D01*
X122883626Y-97161256D01*
X122883699Y-97161097D01*
X122889529Y-97154625D01*
X122902223Y-97142762D01*
X122919172Y-97127952D01*
X122952920Y-97099278D01*
X122971163Y-97114629D01*
X122992700Y-97128108D01*
X123022946Y-97139553D01*
X123054689Y-97145929D01*
X123082433Y-97145702D01*
X123115551Y-97134814D01*
X123143754Y-97114784D01*
X123164044Y-97087845D01*
X123174277Y-97056091D01*
X123177768Y-97030063D01*
X122868223Y-97030063D01*
X122870949Y-96958836D01*
X122871147Y-96953763D01*
X122871719Y-96942541D01*
X122970133Y-96942541D01*
X123177768Y-96942541D01*
X123174277Y-96916513D01*
X123165081Y-96885679D01*
X123145720Y-96859012D01*
X123118121Y-96840467D01*
X123083917Y-96831577D01*
X123065192Y-96831240D01*
X123032592Y-96839018D01*
X123005900Y-96857292D01*
X122986057Y-96885287D01*
X122974005Y-96922224D01*
X122970133Y-96942541D01*
X122871719Y-96942541D01*
X122872720Y-96922901D01*
X122875051Y-96900369D01*
X122878895Y-96882495D01*
X122885006Y-96865609D01*
X122894140Y-96846040D01*
X122916066Y-96810225D01*
X122949135Y-96776336D01*
X122989076Y-96752766D01*
X123035448Y-96739762D01*
X123087808Y-96737572D01*
X123094076Y-96738027D01*
X123142579Y-96747742D01*
X123184299Y-96767773D01*
X123218883Y-96797736D01*
X123245977Y-96837243D01*
X123265229Y-96885909D01*
X123276129Y-96942541D01*
X123276285Y-96943349D01*
X123277331Y-96954044D01*
G37*
G36*
X126131203Y-96221975D02*
G01*
X126125932Y-96273625D01*
X126113793Y-96322000D01*
X126094756Y-96364730D01*
X126068791Y-96399443D01*
X126045627Y-96418949D01*
X126006548Y-96440874D01*
X125963484Y-96454715D01*
X125935693Y-96457811D01*
X125897059Y-96456766D01*
X125857420Y-96451114D01*
X125822299Y-96441376D01*
X125808327Y-96435062D01*
X125783128Y-96420007D01*
X125761143Y-96402966D01*
X125732651Y-96376777D01*
X125768512Y-96347185D01*
X125776670Y-96340494D01*
X125792416Y-96328362D01*
X125802562Y-96322842D01*
X125809879Y-96322788D01*
X125817136Y-96327052D01*
X125820204Y-96329275D01*
X125857821Y-96349592D01*
X125897693Y-96359834D01*
X125937191Y-96359639D01*
X125973686Y-96348645D01*
X125998884Y-96330031D01*
X126018138Y-96301670D01*
X126029468Y-96265812D01*
X126033641Y-96242369D01*
X125720498Y-96242369D01*
X125720545Y-96203297D01*
X125721040Y-96178930D01*
X125722854Y-96161099D01*
X125826774Y-96161099D01*
X126032762Y-96161099D01*
X126029094Y-96140781D01*
X126022204Y-96115361D01*
X126005984Y-96084597D01*
X125983701Y-96062720D01*
X125967629Y-96054794D01*
X125937501Y-96048741D01*
X125905586Y-96050494D01*
X125876844Y-96060170D01*
X125861805Y-96071653D01*
X125844333Y-96093635D01*
X125831661Y-96119179D01*
X125826774Y-96143328D01*
X125826774Y-96161099D01*
X125722854Y-96161099D01*
X125726486Y-96125407D01*
X125738400Y-96080594D01*
X125757352Y-96042759D01*
X125783910Y-96010165D01*
X125811283Y-95987489D01*
X125852213Y-95966044D01*
X125896552Y-95954312D01*
X125942093Y-95952332D01*
X125986628Y-95960143D01*
X126027948Y-95977782D01*
X126063848Y-96005288D01*
X126084202Y-96030073D01*
X126106106Y-96071101D01*
X126121260Y-96118342D01*
X126128271Y-96161099D01*
X126129636Y-96169424D01*
X126131203Y-96221975D01*
G37*
G36*
X125420188Y-96737965D02*
G01*
X125460323Y-96749909D01*
X125495490Y-96772115D01*
X125520448Y-96793479D01*
X125520448Y-96742492D01*
X125620473Y-96742492D01*
X125620473Y-97236364D01*
X125520448Y-97236364D01*
X125520448Y-97075148D01*
X125520443Y-97053833D01*
X125520343Y-97009135D01*
X125520020Y-96974579D01*
X125519349Y-96948483D01*
X125518203Y-96929165D01*
X125516459Y-96914943D01*
X125513991Y-96904136D01*
X125510674Y-96895062D01*
X125506382Y-96886039D01*
X125492404Y-96865807D01*
X125467789Y-96846808D01*
X125438661Y-96837030D01*
X125407927Y-96837323D01*
X125378490Y-96848539D01*
X125358436Y-96860766D01*
X125323789Y-96819025D01*
X125317301Y-96811116D01*
X125302896Y-96792800D01*
X125292890Y-96778956D01*
X125289141Y-96772103D01*
X125292363Y-96768371D01*
X125304279Y-96760697D01*
X125321962Y-96751643D01*
X125335396Y-96746084D01*
X125377680Y-96736588D01*
X125420188Y-96737965D01*
G37*
D12*
X140913629Y-50800000D02*
X140800000Y-50800000D01*
X143566371Y-50800000D02*
G75*
G03*
X143566371Y-50800000I-1326371J0D01*
G01*
X140913629Y-48260000D02*
X140800000Y-48260000D01*
X143566371Y-48260000D02*
G75*
G03*
X143566371Y-48260000I-1326371J0D01*
G01*
X140913629Y-53340000D02*
X140800000Y-53340000D01*
X143566371Y-53340000D02*
G75*
G03*
X143566371Y-53340000I-1326371J0D01*
G01*
%LPC*%
D13*
X124968000Y-81886315D03*
D14*
X124968000Y-79346315D03*
D15*
X125984000Y-51816000D03*
D14*
X125984000Y-49276000D03*
D13*
X141102000Y-56134000D03*
D14*
X141102000Y-58674000D03*
X141102000Y-61214000D03*
X141102000Y-63754000D03*
X141102000Y-66294000D03*
X141102000Y-68834000D03*
X141102000Y-71374000D03*
X141102000Y-73914000D03*
X141102000Y-76454000D03*
X141102000Y-78994000D03*
X148722000Y-78994000D03*
X148722000Y-76454000D03*
X148722000Y-73914000D03*
X148722000Y-71374000D03*
X148722000Y-68834000D03*
X148722000Y-66294000D03*
X148722000Y-63754000D03*
X148722000Y-61214000D03*
X148722000Y-58674000D03*
X148722000Y-56134000D03*
D16*
X129286000Y-49784000D03*
D17*
X129286000Y-51562000D03*
X129286000Y-53340000D03*
X129286000Y-55118000D03*
X129286000Y-56896000D03*
X129286000Y-58674000D03*
X129286000Y-60452000D03*
X129286000Y-62230000D03*
X129286000Y-64008000D03*
X129286000Y-65786000D03*
X129286000Y-67564000D03*
X129286000Y-69342000D03*
X129286000Y-71120000D03*
X129286000Y-72898000D03*
X129286000Y-74676000D03*
X129286000Y-76454000D03*
X129286000Y-78232000D03*
X129286000Y-80010000D03*
X129286000Y-81788000D03*
X129286000Y-83566000D03*
X129286000Y-85344000D03*
X129286000Y-87122000D03*
X129286000Y-88900000D03*
X129286000Y-90678000D03*
X129286000Y-92456000D03*
X129286000Y-94234000D03*
X129286000Y-96012000D03*
X144526000Y-96012000D03*
X144526000Y-94234000D03*
X144526000Y-92456000D03*
X144526000Y-90678000D03*
X144526000Y-88900000D03*
X144526000Y-87122000D03*
X144526000Y-85344000D03*
X144526000Y-83566000D03*
X144526000Y-81788000D03*
X144526000Y-80010000D03*
X144526000Y-78232000D03*
X144526000Y-76454000D03*
X144526000Y-74676000D03*
X144526000Y-72898000D03*
X144526000Y-71120000D03*
X144526000Y-69342000D03*
X144526000Y-67564000D03*
X144526000Y-65786000D03*
X144526000Y-64008000D03*
X144526000Y-62230000D03*
X144526000Y-60452000D03*
X144526000Y-58674000D03*
X144526000Y-56896000D03*
X144526000Y-55118000D03*
X144526000Y-53340000D03*
X144526000Y-51562000D03*
X144526000Y-49784000D03*
D13*
X120116000Y-48531500D03*
D14*
X120116000Y-51071500D03*
X120116000Y-53611500D03*
X120116000Y-56151500D03*
X120116000Y-58691500D03*
X120116000Y-61231500D03*
X120116000Y-63771500D03*
X120116000Y-66311500D03*
X120116000Y-68851500D03*
X120116000Y-71391500D03*
X120116000Y-73931500D03*
X120116000Y-76471500D03*
X120116000Y-79011500D03*
X120116000Y-81551500D03*
X120116000Y-84091500D03*
X120116000Y-86631500D03*
X120116000Y-89171500D03*
X120116000Y-91711500D03*
X120116000Y-94251500D03*
X120116000Y-96791500D03*
X135356000Y-96791500D03*
X135356000Y-94251500D03*
X135356000Y-91711500D03*
X135356000Y-89171500D03*
D18*
X135356000Y-86631500D03*
X135356000Y-84091500D03*
X135356000Y-81551500D03*
D14*
X135356000Y-79011500D03*
X135356000Y-76471500D03*
X135356000Y-73931500D03*
X135356000Y-71391500D03*
X135356000Y-68851500D03*
X135356000Y-66311500D03*
D18*
X135356000Y-63771500D03*
X135356000Y-61231500D03*
X135356000Y-58691500D03*
D14*
X135356000Y-56151500D03*
X135356000Y-53611500D03*
X135356000Y-51071500D03*
X135356000Y-48531500D03*
D15*
X122936000Y-53115000D03*
D14*
X122936000Y-50575000D03*
D13*
X142240000Y-50800000D03*
D14*
X139700000Y-50800000D03*
D13*
X142240000Y-48260000D03*
D14*
X139700000Y-48260000D03*
D13*
X142240000Y-53340000D03*
D14*
X139700000Y-53340000D03*
M02*
