%FSLAX45Y45*%
G04 Gerber Fmt 4.5, Leading zero omitted, Abs format (unit mm)*
G04 Created by KiCad (PCBNEW (6.0.0)) date 2023-01-29 20:38:57*
%MOMM*%
%LPD*%
G01*
G04 APERTURE LIST*
%TA.AperFunction,Profile*%
%ADD10C,0.100000*%
%TD*%
%ADD11C,0.200000*%
%ADD12C,0.040000*%
%ADD13C,0.070000*%
%ADD14C,0.080000*%
G04 APERTURE END LIST*
D10*
X11722100Y-9855200D02*
X13716000Y-9855200D01*
X14986000Y-5461000D02*
X14986000Y-8051800D01*
X14071600Y-9855200D02*
X14478000Y-9855200D01*
X14478000Y-9855200D02*
X14554200Y-9855200D01*
X14986000Y-8051800D02*
X14605000Y-9753600D01*
X14478000Y-4648200D02*
X14986000Y-5461000D01*
X14605000Y-9753600D02*
X14579600Y-9855200D01*
X13716000Y-4648200D02*
X14427200Y-4648200D01*
X11722100Y-4648200D02*
X11722100Y-8140700D01*
X14427200Y-4648200D02*
X14478000Y-4648200D01*
X14071600Y-9855200D02*
X13716000Y-9855200D01*
X14554200Y-9855200D02*
X14579600Y-9855200D01*
X13716000Y-4648200D02*
X11722100Y-4648200D01*
X11722100Y-8140700D02*
X11722100Y-9855200D01*
D11*
D12*
X12273600Y-8743000D02*
X12313600Y-8783000D01*
X12313600Y-8743000D02*
X12273600Y-8783000D01*
X12426000Y-8768400D02*
X12466000Y-8808400D01*
X12466000Y-8768400D02*
X12426000Y-8808400D01*
X13035600Y-7168200D02*
X13075600Y-7208200D01*
X13075600Y-7168200D02*
X13035600Y-7208200D01*
X13086400Y-7371400D02*
X13126400Y-7411400D01*
X13126400Y-7371400D02*
X13086400Y-7411400D01*
X13238800Y-7625400D02*
X13278800Y-7665400D01*
X13278800Y-7625400D02*
X13238800Y-7665400D01*
D13*
X12963600Y-4978400D02*
G75*
G03*
X12963600Y-4978400I-35000J0D01*
G01*
X12963600Y-5156200D02*
G75*
G03*
X12963600Y-5156200I-35000J0D01*
G01*
X12963600Y-5334000D02*
G75*
G03*
X12963600Y-5334000I-35000J0D01*
G01*
X12963600Y-5511800D02*
G75*
G03*
X12963600Y-5511800I-35000J0D01*
G01*
X12963600Y-5689600D02*
G75*
G03*
X12963600Y-5689600I-35000J0D01*
G01*
X12963600Y-5867400D02*
G75*
G03*
X12963600Y-5867400I-35000J0D01*
G01*
X12963600Y-6045200D02*
G75*
G03*
X12963600Y-6045200I-35000J0D01*
G01*
X12963600Y-6223000D02*
G75*
G03*
X12963600Y-6223000I-35000J0D01*
G01*
X12963600Y-6400800D02*
G75*
G03*
X12963600Y-6400800I-35000J0D01*
G01*
X12963600Y-6578600D02*
G75*
G03*
X12963600Y-6578600I-35000J0D01*
G01*
X12963600Y-6756400D02*
G75*
G03*
X12963600Y-6756400I-35000J0D01*
G01*
X12963600Y-6934200D02*
G75*
G03*
X12963600Y-6934200I-35000J0D01*
G01*
X12963600Y-7112000D02*
G75*
G03*
X12963600Y-7112000I-35000J0D01*
G01*
X12963600Y-7289800D02*
G75*
G03*
X12963600Y-7289800I-35000J0D01*
G01*
X12963600Y-7467600D02*
G75*
G03*
X12963600Y-7467600I-35000J0D01*
G01*
X12963600Y-7645400D02*
G75*
G03*
X12963600Y-7645400I-35000J0D01*
G01*
X12963600Y-7823200D02*
G75*
G03*
X12963600Y-7823200I-35000J0D01*
G01*
X12963600Y-8001000D02*
G75*
G03*
X12963600Y-8001000I-35000J0D01*
G01*
X12963600Y-8178800D02*
G75*
G03*
X12963600Y-8178800I-35000J0D01*
G01*
X12963600Y-8356600D02*
G75*
G03*
X12963600Y-8356600I-35000J0D01*
G01*
X12963600Y-8534400D02*
G75*
G03*
X12963600Y-8534400I-35000J0D01*
G01*
X12963600Y-8712200D02*
G75*
G03*
X12963600Y-8712200I-35000J0D01*
G01*
X12963600Y-8890000D02*
G75*
G03*
X12963600Y-8890000I-35000J0D01*
G01*
X12963600Y-9067800D02*
G75*
G03*
X12963600Y-9067800I-35000J0D01*
G01*
X12963600Y-9245600D02*
G75*
G03*
X12963600Y-9245600I-35000J0D01*
G01*
X12963600Y-9423400D02*
G75*
G03*
X12963600Y-9423400I-35000J0D01*
G01*
X12963600Y-9601200D02*
G75*
G03*
X12963600Y-9601200I-35000J0D01*
G01*
X14487600Y-4978400D02*
G75*
G03*
X14487600Y-4978400I-35000J0D01*
G01*
X14487600Y-5156200D02*
G75*
G03*
X14487600Y-5156200I-35000J0D01*
G01*
X14487600Y-5334000D02*
G75*
G03*
X14487600Y-5334000I-35000J0D01*
G01*
X14487600Y-5511800D02*
G75*
G03*
X14487600Y-5511800I-35000J0D01*
G01*
X14487600Y-5689600D02*
G75*
G03*
X14487600Y-5689600I-35000J0D01*
G01*
X14487600Y-5867400D02*
G75*
G03*
X14487600Y-5867400I-35000J0D01*
G01*
X14487600Y-6045200D02*
G75*
G03*
X14487600Y-6045200I-35000J0D01*
G01*
X14487600Y-6223000D02*
G75*
G03*
X14487600Y-6223000I-35000J0D01*
G01*
X14487600Y-6400800D02*
G75*
G03*
X14487600Y-6400800I-35000J0D01*
G01*
X14487600Y-6578600D02*
G75*
G03*
X14487600Y-6578600I-35000J0D01*
G01*
X14487600Y-6756400D02*
G75*
G03*
X14487600Y-6756400I-35000J0D01*
G01*
X14487600Y-6934200D02*
G75*
G03*
X14487600Y-6934200I-35000J0D01*
G01*
X14487600Y-7112000D02*
G75*
G03*
X14487600Y-7112000I-35000J0D01*
G01*
X14487600Y-7289800D02*
G75*
G03*
X14487600Y-7289800I-35000J0D01*
G01*
X14487600Y-7467600D02*
G75*
G03*
X14487600Y-7467600I-35000J0D01*
G01*
X14487600Y-7645400D02*
G75*
G03*
X14487600Y-7645400I-35000J0D01*
G01*
X14487600Y-7823200D02*
G75*
G03*
X14487600Y-7823200I-35000J0D01*
G01*
X14487600Y-8001000D02*
G75*
G03*
X14487600Y-8001000I-35000J0D01*
G01*
X14487600Y-8178800D02*
G75*
G03*
X14487600Y-8178800I-35000J0D01*
G01*
X14487600Y-8356600D02*
G75*
G03*
X14487600Y-8356600I-35000J0D01*
G01*
X14487600Y-8534400D02*
G75*
G03*
X14487600Y-8534400I-35000J0D01*
G01*
X14487600Y-8712200D02*
G75*
G03*
X14487600Y-8712200I-35000J0D01*
G01*
X14487600Y-8890000D02*
G75*
G03*
X14487600Y-8890000I-35000J0D01*
G01*
X14487600Y-9067800D02*
G75*
G03*
X14487600Y-9067800I-35000J0D01*
G01*
X14487600Y-9245600D02*
G75*
G03*
X14487600Y-9245600I-35000J0D01*
G01*
X14487600Y-9423400D02*
G75*
G03*
X14487600Y-9423400I-35000J0D01*
G01*
X14487600Y-9601200D02*
G75*
G03*
X14487600Y-9601200I-35000J0D01*
G01*
D14*
X12011600Y-4813150D02*
X12011600Y-4893150D01*
X11971600Y-4853150D02*
X12051600Y-4853150D01*
X12011600Y-5067150D02*
X12011600Y-5147150D01*
X11971600Y-5107150D02*
X12051600Y-5107150D01*
X12011600Y-5321150D02*
X12011600Y-5401150D01*
X11971600Y-5361150D02*
X12051600Y-5361150D01*
X12011600Y-5575150D02*
X12011600Y-5655150D01*
X11971600Y-5615150D02*
X12051600Y-5615150D01*
X12011600Y-5829150D02*
X12011600Y-5909150D01*
X11971600Y-5869150D02*
X12051600Y-5869150D01*
X12011600Y-6083150D02*
X12011600Y-6163150D01*
X11971600Y-6123150D02*
X12051600Y-6123150D01*
X12011600Y-6337150D02*
X12011600Y-6417150D01*
X11971600Y-6377150D02*
X12051600Y-6377150D01*
X12011600Y-6591150D02*
X12011600Y-6671150D01*
X11971600Y-6631150D02*
X12051600Y-6631150D01*
X12011600Y-6845150D02*
X12011600Y-6925150D01*
X11971600Y-6885150D02*
X12051600Y-6885150D01*
X12011600Y-7099150D02*
X12011600Y-7179150D01*
X11971600Y-7139150D02*
X12051600Y-7139150D01*
X12011600Y-7353150D02*
X12011600Y-7433150D01*
X11971600Y-7393150D02*
X12051600Y-7393150D01*
X12011600Y-7607150D02*
X12011600Y-7687150D01*
X11971600Y-7647150D02*
X12051600Y-7647150D01*
X12011600Y-7861150D02*
X12011600Y-7941150D01*
X11971600Y-7901150D02*
X12051600Y-7901150D01*
X12011600Y-8115150D02*
X12011600Y-8195150D01*
X11971600Y-8155150D02*
X12051600Y-8155150D01*
X12011600Y-8369150D02*
X12011600Y-8449150D01*
X11971600Y-8409150D02*
X12051600Y-8409150D01*
X12011600Y-8623150D02*
X12011600Y-8703150D01*
X11971600Y-8663150D02*
X12051600Y-8663150D01*
X12011600Y-8877150D02*
X12011600Y-8957150D01*
X11971600Y-8917150D02*
X12051600Y-8917150D01*
X12011600Y-9131150D02*
X12011600Y-9211150D01*
X11971600Y-9171150D02*
X12051600Y-9171150D01*
X12011600Y-9385150D02*
X12011600Y-9465150D01*
X11971600Y-9425150D02*
X12051600Y-9425150D01*
X12011600Y-9639150D02*
X12011600Y-9719150D01*
X11971600Y-9679150D02*
X12051600Y-9679150D01*
X12293600Y-5017500D02*
X12293600Y-5097500D01*
X12253600Y-5057500D02*
X12333600Y-5057500D01*
X12293600Y-5271500D02*
X12293600Y-5351500D01*
X12253600Y-5311500D02*
X12333600Y-5311500D01*
X12496800Y-7894631D02*
X12496800Y-7974631D01*
X12456800Y-7934631D02*
X12536800Y-7934631D01*
X12496800Y-8148631D02*
X12496800Y-8228631D01*
X12456800Y-8188631D02*
X12536800Y-8188631D01*
X12598400Y-4887600D02*
X12598400Y-4967600D01*
X12558400Y-4927600D02*
X12638400Y-4927600D01*
X12598400Y-5141600D02*
X12598400Y-5221600D01*
X12558400Y-5181600D02*
X12638400Y-5181600D01*
X13535600Y-4813150D02*
X13535600Y-4893150D01*
X13495600Y-4853150D02*
X13575600Y-4853150D01*
X13535600Y-5067150D02*
X13535600Y-5147150D01*
X13495600Y-5107150D02*
X13575600Y-5107150D01*
X13535600Y-5321150D02*
X13535600Y-5401150D01*
X13495600Y-5361150D02*
X13575600Y-5361150D01*
X13535600Y-5575150D02*
X13535600Y-5655150D01*
X13495600Y-5615150D02*
X13575600Y-5615150D01*
X13535600Y-5829150D02*
X13535600Y-5909150D01*
X13495600Y-5869150D02*
X13575600Y-5869150D01*
X13535600Y-6083150D02*
X13535600Y-6163150D01*
X13495600Y-6123150D02*
X13575600Y-6123150D01*
X13535600Y-6337150D02*
X13535600Y-6417150D01*
X13495600Y-6377150D02*
X13575600Y-6377150D01*
X13535600Y-6591150D02*
X13535600Y-6671150D01*
X13495600Y-6631150D02*
X13575600Y-6631150D01*
X13535600Y-6845150D02*
X13535600Y-6925150D01*
X13495600Y-6885150D02*
X13575600Y-6885150D01*
X13535600Y-7099150D02*
X13535600Y-7179150D01*
X13495600Y-7139150D02*
X13575600Y-7139150D01*
X13535600Y-7353150D02*
X13535600Y-7433150D01*
X13495600Y-7393150D02*
X13575600Y-7393150D01*
X13535600Y-7607150D02*
X13535600Y-7687150D01*
X13495600Y-7647150D02*
X13575600Y-7647150D01*
X13535600Y-7861150D02*
X13535600Y-7941150D01*
X13495600Y-7901150D02*
X13575600Y-7901150D01*
X13535600Y-8115150D02*
X13535600Y-8195150D01*
X13495600Y-8155150D02*
X13575600Y-8155150D01*
X13535600Y-8369150D02*
X13535600Y-8449150D01*
X13495600Y-8409150D02*
X13575600Y-8409150D01*
X13535600Y-8623150D02*
X13535600Y-8703150D01*
X13495600Y-8663150D02*
X13575600Y-8663150D01*
X13535600Y-8877150D02*
X13535600Y-8957150D01*
X13495600Y-8917150D02*
X13575600Y-8917150D01*
X13535600Y-9131150D02*
X13535600Y-9211150D01*
X13495600Y-9171150D02*
X13575600Y-9171150D01*
X13535600Y-9385150D02*
X13535600Y-9465150D01*
X13495600Y-9425150D02*
X13575600Y-9425150D01*
X13535600Y-9639150D02*
X13535600Y-9719150D01*
X13495600Y-9679150D02*
X13575600Y-9679150D01*
X13970000Y-4786000D02*
X13970000Y-4866000D01*
X13930000Y-4826000D02*
X14010000Y-4826000D01*
X13970000Y-5040000D02*
X13970000Y-5120000D01*
X13930000Y-5080000D02*
X14010000Y-5080000D01*
X13970000Y-5294000D02*
X13970000Y-5374000D01*
X13930000Y-5334000D02*
X14010000Y-5334000D01*
X14110200Y-5573400D02*
X14110200Y-5653400D01*
X14070200Y-5613400D02*
X14150200Y-5613400D01*
X14110200Y-5827400D02*
X14110200Y-5907400D01*
X14070200Y-5867400D02*
X14150200Y-5867400D01*
X14110200Y-6081400D02*
X14110200Y-6161400D01*
X14070200Y-6121400D02*
X14150200Y-6121400D01*
X14110200Y-6335400D02*
X14110200Y-6415400D01*
X14070200Y-6375400D02*
X14150200Y-6375400D01*
X14110200Y-6589400D02*
X14110200Y-6669400D01*
X14070200Y-6629400D02*
X14150200Y-6629400D01*
X14110200Y-6843400D02*
X14110200Y-6923400D01*
X14070200Y-6883400D02*
X14150200Y-6883400D01*
X14110200Y-7097400D02*
X14110200Y-7177400D01*
X14070200Y-7137400D02*
X14150200Y-7137400D01*
X14110200Y-7351400D02*
X14110200Y-7431400D01*
X14070200Y-7391400D02*
X14150200Y-7391400D01*
X14110200Y-7605400D02*
X14110200Y-7685400D01*
X14070200Y-7645400D02*
X14150200Y-7645400D01*
X14110200Y-7859400D02*
X14110200Y-7939400D01*
X14070200Y-7899400D02*
X14150200Y-7899400D01*
X14224000Y-4786000D02*
X14224000Y-4866000D01*
X14184000Y-4826000D02*
X14264000Y-4826000D01*
X14224000Y-5040000D02*
X14224000Y-5120000D01*
X14184000Y-5080000D02*
X14264000Y-5080000D01*
X14224000Y-5294000D02*
X14224000Y-5374000D01*
X14184000Y-5334000D02*
X14264000Y-5334000D01*
X14872200Y-5573400D02*
X14872200Y-5653400D01*
X14832200Y-5613400D02*
X14912200Y-5613400D01*
X14872200Y-5827400D02*
X14872200Y-5907400D01*
X14832200Y-5867400D02*
X14912200Y-5867400D01*
X14872200Y-6081400D02*
X14872200Y-6161400D01*
X14832200Y-6121400D02*
X14912200Y-6121400D01*
X14872200Y-6335400D02*
X14872200Y-6415400D01*
X14832200Y-6375400D02*
X14912200Y-6375400D01*
X14872200Y-6589400D02*
X14872200Y-6669400D01*
X14832200Y-6629400D02*
X14912200Y-6629400D01*
X14872200Y-6843400D02*
X14872200Y-6923400D01*
X14832200Y-6883400D02*
X14912200Y-6883400D01*
X14872200Y-7097400D02*
X14872200Y-7177400D01*
X14832200Y-7137400D02*
X14912200Y-7137400D01*
X14872200Y-7351400D02*
X14872200Y-7431400D01*
X14832200Y-7391400D02*
X14912200Y-7391400D01*
X14872200Y-7605400D02*
X14872200Y-7685400D01*
X14832200Y-7645400D02*
X14912200Y-7645400D01*
X14872200Y-7859400D02*
X14872200Y-7939400D01*
X14832200Y-7899400D02*
X14912200Y-7899400D01*
D11*
X11974719Y-10170676D02*
X11974719Y-9970676D01*
X12022338Y-9970676D01*
X12050909Y-9980200D01*
X12069957Y-9999248D01*
X12079481Y-10018295D01*
X12089005Y-10056390D01*
X12089005Y-10084962D01*
X12079481Y-10123057D01*
X12069957Y-10142105D01*
X12050909Y-10161152D01*
X12022338Y-10170676D01*
X11974719Y-10170676D01*
X12174719Y-10170676D02*
X12174719Y-10037343D01*
X12174719Y-10075438D02*
X12184243Y-10056390D01*
X12193767Y-10046867D01*
X12212814Y-10037343D01*
X12231862Y-10037343D01*
X12298528Y-10170676D02*
X12298528Y-10037343D01*
X12298528Y-9970676D02*
X12289005Y-9980200D01*
X12298528Y-9989724D01*
X12308052Y-9980200D01*
X12298528Y-9970676D01*
X12298528Y-9989724D01*
X12422338Y-10170676D02*
X12403290Y-10161152D01*
X12393767Y-10142105D01*
X12393767Y-9970676D01*
X12527100Y-10170676D02*
X12508052Y-10161152D01*
X12498528Y-10142105D01*
X12498528Y-9970676D01*
X12755671Y-10170676D02*
X12755671Y-9970676D01*
X12822338Y-10113533D01*
X12889005Y-9970676D01*
X12889005Y-10170676D01*
X13069957Y-10170676D02*
X13069957Y-10065914D01*
X13060433Y-10046867D01*
X13041386Y-10037343D01*
X13003290Y-10037343D01*
X12984243Y-10046867D01*
X13069957Y-10161152D02*
X13050909Y-10170676D01*
X13003290Y-10170676D01*
X12984243Y-10161152D01*
X12974719Y-10142105D01*
X12974719Y-10123057D01*
X12984243Y-10104010D01*
X13003290Y-10094486D01*
X13050909Y-10094486D01*
X13069957Y-10084962D01*
X13165195Y-10037343D02*
X13165195Y-10237343D01*
X13165195Y-10046867D02*
X13184243Y-10037343D01*
X13222338Y-10037343D01*
X13241386Y-10046867D01*
X13250909Y-10056390D01*
X13260433Y-10075438D01*
X13260433Y-10132581D01*
X13250909Y-10151629D01*
X13241386Y-10161152D01*
X13222338Y-10170676D01*
X13184243Y-10170676D01*
X13165195Y-10161152D01*
X13346148Y-10151629D02*
X13355671Y-10161152D01*
X13346148Y-10170676D01*
X13336624Y-10161152D01*
X13346148Y-10151629D01*
X13346148Y-10170676D01*
X13346148Y-10046867D02*
X13355671Y-10056390D01*
X13346148Y-10065914D01*
X13336624Y-10056390D01*
X13346148Y-10046867D01*
X13346148Y-10065914D01*
D12*
X11677100Y-10480200D02*
X11717100Y-10520200D01*
X11717100Y-10480200D02*
X11677100Y-10520200D01*
D11*
X12012814Y-10390676D02*
X12031862Y-10390676D01*
X12050909Y-10400200D01*
X12060433Y-10409724D01*
X12069957Y-10428771D01*
X12079481Y-10466867D01*
X12079481Y-10514486D01*
X12069957Y-10552581D01*
X12060433Y-10571629D01*
X12050909Y-10581152D01*
X12031862Y-10590676D01*
X12012814Y-10590676D01*
X11993767Y-10581152D01*
X11984243Y-10571629D01*
X11974719Y-10552581D01*
X11965195Y-10514486D01*
X11965195Y-10466867D01*
X11974719Y-10428771D01*
X11984243Y-10409724D01*
X11993767Y-10400200D01*
X12012814Y-10390676D01*
X12165195Y-10571629D02*
X12174719Y-10581152D01*
X12165195Y-10590676D01*
X12155671Y-10581152D01*
X12165195Y-10571629D01*
X12165195Y-10590676D01*
X12346148Y-10457343D02*
X12346148Y-10590676D01*
X12298528Y-10381152D02*
X12250909Y-10524010D01*
X12374719Y-10524010D01*
X12489005Y-10390676D02*
X12508052Y-10390676D01*
X12527100Y-10400200D01*
X12536624Y-10409724D01*
X12546148Y-10428771D01*
X12555671Y-10466867D01*
X12555671Y-10514486D01*
X12546148Y-10552581D01*
X12536624Y-10571629D01*
X12527100Y-10581152D01*
X12508052Y-10590676D01*
X12489005Y-10590676D01*
X12469957Y-10581152D01*
X12460433Y-10571629D01*
X12450909Y-10552581D01*
X12441386Y-10514486D01*
X12441386Y-10466867D01*
X12450909Y-10428771D01*
X12460433Y-10409724D01*
X12469957Y-10400200D01*
X12489005Y-10390676D01*
X12679481Y-10390676D02*
X12698528Y-10390676D01*
X12717576Y-10400200D01*
X12727100Y-10409724D01*
X12736624Y-10428771D01*
X12746148Y-10466867D01*
X12746148Y-10514486D01*
X12736624Y-10552581D01*
X12727100Y-10571629D01*
X12717576Y-10581152D01*
X12698528Y-10590676D01*
X12679481Y-10590676D01*
X12660433Y-10581152D01*
X12650909Y-10571629D01*
X12641386Y-10552581D01*
X12631862Y-10514486D01*
X12631862Y-10466867D01*
X12641386Y-10428771D01*
X12650909Y-10409724D01*
X12660433Y-10400200D01*
X12679481Y-10390676D01*
X12831862Y-10590676D02*
X12831862Y-10457343D01*
X12831862Y-10476390D02*
X12841386Y-10466867D01*
X12860433Y-10457343D01*
X12889005Y-10457343D01*
X12908052Y-10466867D01*
X12917576Y-10485914D01*
X12917576Y-10590676D01*
X12917576Y-10485914D02*
X12927100Y-10466867D01*
X12946148Y-10457343D01*
X12974719Y-10457343D01*
X12993767Y-10466867D01*
X13003290Y-10485914D01*
X13003290Y-10590676D01*
X13098528Y-10590676D02*
X13098528Y-10457343D01*
X13098528Y-10476390D02*
X13108052Y-10466867D01*
X13127100Y-10457343D01*
X13155671Y-10457343D01*
X13174719Y-10466867D01*
X13184243Y-10485914D01*
X13184243Y-10590676D01*
X13184243Y-10485914D02*
X13193767Y-10466867D01*
X13212814Y-10457343D01*
X13241386Y-10457343D01*
X13260433Y-10466867D01*
X13269957Y-10485914D01*
X13269957Y-10590676D01*
X13660433Y-10381152D02*
X13489005Y-10638295D01*
X13917576Y-10390676D02*
X13936624Y-10390676D01*
X13955671Y-10400200D01*
X13965195Y-10409724D01*
X13974719Y-10428771D01*
X13984243Y-10466867D01*
X13984243Y-10514486D01*
X13974719Y-10552581D01*
X13965195Y-10571629D01*
X13955671Y-10581152D01*
X13936624Y-10590676D01*
X13917576Y-10590676D01*
X13898528Y-10581152D01*
X13889005Y-10571629D01*
X13879481Y-10552581D01*
X13869957Y-10514486D01*
X13869957Y-10466867D01*
X13879481Y-10428771D01*
X13889005Y-10409724D01*
X13898528Y-10400200D01*
X13917576Y-10390676D01*
X14069957Y-10571629D02*
X14079481Y-10581152D01*
X14069957Y-10590676D01*
X14060433Y-10581152D01*
X14069957Y-10571629D01*
X14069957Y-10590676D01*
X14203290Y-10390676D02*
X14222338Y-10390676D01*
X14241386Y-10400200D01*
X14250909Y-10409724D01*
X14260433Y-10428771D01*
X14269957Y-10466867D01*
X14269957Y-10514486D01*
X14260433Y-10552581D01*
X14250909Y-10571629D01*
X14241386Y-10581152D01*
X14222338Y-10590676D01*
X14203290Y-10590676D01*
X14184243Y-10581152D01*
X14174719Y-10571629D01*
X14165195Y-10552581D01*
X14155671Y-10514486D01*
X14155671Y-10466867D01*
X14165195Y-10428771D01*
X14174719Y-10409724D01*
X14184243Y-10400200D01*
X14203290Y-10390676D01*
X14460433Y-10590676D02*
X14346148Y-10590676D01*
X14403290Y-10590676D02*
X14403290Y-10390676D01*
X14384243Y-10419248D01*
X14365195Y-10438295D01*
X14346148Y-10447819D01*
X14641386Y-10390676D02*
X14546148Y-10390676D01*
X14536624Y-10485914D01*
X14546148Y-10476390D01*
X14565195Y-10466867D01*
X14612814Y-10466867D01*
X14631862Y-10476390D01*
X14641386Y-10485914D01*
X14650909Y-10504962D01*
X14650909Y-10552581D01*
X14641386Y-10571629D01*
X14631862Y-10581152D01*
X14612814Y-10590676D01*
X14565195Y-10590676D01*
X14546148Y-10581152D01*
X14536624Y-10571629D01*
X14717576Y-10390676D02*
X14850909Y-10390676D01*
X14765195Y-10590676D01*
X14917576Y-10390676D02*
X14917576Y-10428771D01*
X14993767Y-10390676D02*
X14993767Y-10428771D01*
X15289005Y-10666867D02*
X15279481Y-10657343D01*
X15260433Y-10628771D01*
X15250909Y-10609724D01*
X15241386Y-10581152D01*
X15231862Y-10533533D01*
X15231862Y-10495438D01*
X15241386Y-10447819D01*
X15250909Y-10419248D01*
X15260433Y-10400200D01*
X15279481Y-10371629D01*
X15289005Y-10362105D01*
X15460433Y-10390676D02*
X15365195Y-10390676D01*
X15355671Y-10485914D01*
X15365195Y-10476390D01*
X15384243Y-10466867D01*
X15431862Y-10466867D01*
X15450909Y-10476390D01*
X15460433Y-10485914D01*
X15469957Y-10504962D01*
X15469957Y-10552581D01*
X15460433Y-10571629D01*
X15450909Y-10581152D01*
X15431862Y-10590676D01*
X15384243Y-10590676D01*
X15365195Y-10581152D01*
X15355671Y-10571629D01*
X15708052Y-10590676D02*
X15708052Y-10390676D01*
X15793767Y-10590676D02*
X15793767Y-10485914D01*
X15784243Y-10466867D01*
X15765195Y-10457343D01*
X15736624Y-10457343D01*
X15717576Y-10466867D01*
X15708052Y-10476390D01*
X15917576Y-10590676D02*
X15898528Y-10581152D01*
X15889005Y-10571629D01*
X15879481Y-10552581D01*
X15879481Y-10495438D01*
X15889005Y-10476390D01*
X15898528Y-10466867D01*
X15917576Y-10457343D01*
X15946148Y-10457343D01*
X15965195Y-10466867D01*
X15974719Y-10476390D01*
X15984243Y-10495438D01*
X15984243Y-10552581D01*
X15974719Y-10571629D01*
X15965195Y-10581152D01*
X15946148Y-10590676D01*
X15917576Y-10590676D01*
X16098528Y-10590676D02*
X16079481Y-10581152D01*
X16069957Y-10562105D01*
X16069957Y-10390676D01*
X16250909Y-10581152D02*
X16231862Y-10590676D01*
X16193767Y-10590676D01*
X16174719Y-10581152D01*
X16165195Y-10562105D01*
X16165195Y-10485914D01*
X16174719Y-10466867D01*
X16193767Y-10457343D01*
X16231862Y-10457343D01*
X16250909Y-10466867D01*
X16260433Y-10485914D01*
X16260433Y-10504962D01*
X16165195Y-10524010D01*
X16336624Y-10581152D02*
X16355671Y-10590676D01*
X16393767Y-10590676D01*
X16412814Y-10581152D01*
X16422338Y-10562105D01*
X16422338Y-10552581D01*
X16412814Y-10533533D01*
X16393767Y-10524010D01*
X16365195Y-10524010D01*
X16346148Y-10514486D01*
X16336624Y-10495438D01*
X16336624Y-10485914D01*
X16346148Y-10466867D01*
X16365195Y-10457343D01*
X16393767Y-10457343D01*
X16412814Y-10466867D01*
X16489005Y-10666867D02*
X16498528Y-10657343D01*
X16517576Y-10628771D01*
X16527100Y-10609724D01*
X16536624Y-10581152D01*
X16546148Y-10533533D01*
X16546148Y-10495438D01*
X16536624Y-10447819D01*
X16527100Y-10419248D01*
X16517576Y-10400200D01*
X16498528Y-10371629D01*
X16489005Y-10362105D01*
D13*
X11717100Y-10764200D02*
G75*
G03*
X11717100Y-10764200I-35000J0D01*
G01*
D11*
X12012814Y-10654676D02*
X12031862Y-10654676D01*
X12050909Y-10664200D01*
X12060433Y-10673724D01*
X12069957Y-10692771D01*
X12079481Y-10730867D01*
X12079481Y-10778486D01*
X12069957Y-10816581D01*
X12060433Y-10835629D01*
X12050909Y-10845152D01*
X12031862Y-10854676D01*
X12012814Y-10854676D01*
X11993767Y-10845152D01*
X11984243Y-10835629D01*
X11974719Y-10816581D01*
X11965195Y-10778486D01*
X11965195Y-10730867D01*
X11974719Y-10692771D01*
X11984243Y-10673724D01*
X11993767Y-10664200D01*
X12012814Y-10654676D01*
X12165195Y-10835629D02*
X12174719Y-10845152D01*
X12165195Y-10854676D01*
X12155671Y-10845152D01*
X12165195Y-10835629D01*
X12165195Y-10854676D01*
X12241386Y-10654676D02*
X12374719Y-10654676D01*
X12289005Y-10854676D01*
X12489005Y-10654676D02*
X12508052Y-10654676D01*
X12527100Y-10664200D01*
X12536624Y-10673724D01*
X12546148Y-10692771D01*
X12555671Y-10730867D01*
X12555671Y-10778486D01*
X12546148Y-10816581D01*
X12536624Y-10835629D01*
X12527100Y-10845152D01*
X12508052Y-10854676D01*
X12489005Y-10854676D01*
X12469957Y-10845152D01*
X12460433Y-10835629D01*
X12450909Y-10816581D01*
X12441386Y-10778486D01*
X12441386Y-10730867D01*
X12450909Y-10692771D01*
X12460433Y-10673724D01*
X12469957Y-10664200D01*
X12489005Y-10654676D01*
X12679481Y-10654676D02*
X12698528Y-10654676D01*
X12717576Y-10664200D01*
X12727100Y-10673724D01*
X12736624Y-10692771D01*
X12746148Y-10730867D01*
X12746148Y-10778486D01*
X12736624Y-10816581D01*
X12727100Y-10835629D01*
X12717576Y-10845152D01*
X12698528Y-10854676D01*
X12679481Y-10854676D01*
X12660433Y-10845152D01*
X12650909Y-10835629D01*
X12641386Y-10816581D01*
X12631862Y-10778486D01*
X12631862Y-10730867D01*
X12641386Y-10692771D01*
X12650909Y-10673724D01*
X12660433Y-10664200D01*
X12679481Y-10654676D01*
X12831862Y-10854676D02*
X12831862Y-10721343D01*
X12831862Y-10740390D02*
X12841386Y-10730867D01*
X12860433Y-10721343D01*
X12889005Y-10721343D01*
X12908052Y-10730867D01*
X12917576Y-10749914D01*
X12917576Y-10854676D01*
X12917576Y-10749914D02*
X12927100Y-10730867D01*
X12946148Y-10721343D01*
X12974719Y-10721343D01*
X12993767Y-10730867D01*
X13003290Y-10749914D01*
X13003290Y-10854676D01*
X13098528Y-10854676D02*
X13098528Y-10721343D01*
X13098528Y-10740390D02*
X13108052Y-10730867D01*
X13127100Y-10721343D01*
X13155671Y-10721343D01*
X13174719Y-10730867D01*
X13184243Y-10749914D01*
X13184243Y-10854676D01*
X13184243Y-10749914D02*
X13193767Y-10730867D01*
X13212814Y-10721343D01*
X13241386Y-10721343D01*
X13260433Y-10730867D01*
X13269957Y-10749914D01*
X13269957Y-10854676D01*
X13660433Y-10645152D02*
X13489005Y-10902295D01*
X13917576Y-10654676D02*
X13936624Y-10654676D01*
X13955671Y-10664200D01*
X13965195Y-10673724D01*
X13974719Y-10692771D01*
X13984243Y-10730867D01*
X13984243Y-10778486D01*
X13974719Y-10816581D01*
X13965195Y-10835629D01*
X13955671Y-10845152D01*
X13936624Y-10854676D01*
X13917576Y-10854676D01*
X13898528Y-10845152D01*
X13889005Y-10835629D01*
X13879481Y-10816581D01*
X13869957Y-10778486D01*
X13869957Y-10730867D01*
X13879481Y-10692771D01*
X13889005Y-10673724D01*
X13898528Y-10664200D01*
X13917576Y-10654676D01*
X14069957Y-10835629D02*
X14079481Y-10845152D01*
X14069957Y-10854676D01*
X14060433Y-10845152D01*
X14069957Y-10835629D01*
X14069957Y-10854676D01*
X14203290Y-10654676D02*
X14222338Y-10654676D01*
X14241386Y-10664200D01*
X14250909Y-10673724D01*
X14260433Y-10692771D01*
X14269957Y-10730867D01*
X14269957Y-10778486D01*
X14260433Y-10816581D01*
X14250909Y-10835629D01*
X14241386Y-10845152D01*
X14222338Y-10854676D01*
X14203290Y-10854676D01*
X14184243Y-10845152D01*
X14174719Y-10835629D01*
X14165195Y-10816581D01*
X14155671Y-10778486D01*
X14155671Y-10730867D01*
X14165195Y-10692771D01*
X14174719Y-10673724D01*
X14184243Y-10664200D01*
X14203290Y-10654676D01*
X14346148Y-10673724D02*
X14355671Y-10664200D01*
X14374719Y-10654676D01*
X14422338Y-10654676D01*
X14441386Y-10664200D01*
X14450909Y-10673724D01*
X14460433Y-10692771D01*
X14460433Y-10711819D01*
X14450909Y-10740390D01*
X14336624Y-10854676D01*
X14460433Y-10854676D01*
X14527100Y-10654676D02*
X14660433Y-10654676D01*
X14574719Y-10854676D01*
X14822338Y-10654676D02*
X14784243Y-10654676D01*
X14765195Y-10664200D01*
X14755671Y-10673724D01*
X14736624Y-10702295D01*
X14727100Y-10740390D01*
X14727100Y-10816581D01*
X14736624Y-10835629D01*
X14746148Y-10845152D01*
X14765195Y-10854676D01*
X14803290Y-10854676D01*
X14822338Y-10845152D01*
X14831862Y-10835629D01*
X14841386Y-10816581D01*
X14841386Y-10768962D01*
X14831862Y-10749914D01*
X14822338Y-10740390D01*
X14803290Y-10730867D01*
X14765195Y-10730867D01*
X14746148Y-10740390D01*
X14736624Y-10749914D01*
X14727100Y-10768962D01*
X14917576Y-10654676D02*
X14917576Y-10692771D01*
X14993767Y-10654676D02*
X14993767Y-10692771D01*
X15289005Y-10930867D02*
X15279481Y-10921343D01*
X15260433Y-10892771D01*
X15250909Y-10873724D01*
X15241386Y-10845152D01*
X15231862Y-10797533D01*
X15231862Y-10759438D01*
X15241386Y-10711819D01*
X15250909Y-10683248D01*
X15260433Y-10664200D01*
X15279481Y-10635629D01*
X15289005Y-10626105D01*
X15460433Y-10654676D02*
X15365195Y-10654676D01*
X15355671Y-10749914D01*
X15365195Y-10740390D01*
X15384243Y-10730867D01*
X15431862Y-10730867D01*
X15450909Y-10740390D01*
X15460433Y-10749914D01*
X15469957Y-10768962D01*
X15469957Y-10816581D01*
X15460433Y-10835629D01*
X15450909Y-10845152D01*
X15431862Y-10854676D01*
X15384243Y-10854676D01*
X15365195Y-10845152D01*
X15355671Y-10835629D01*
X15641386Y-10721343D02*
X15641386Y-10854676D01*
X15593767Y-10645152D02*
X15546148Y-10788010D01*
X15669957Y-10788010D01*
X15898528Y-10854676D02*
X15898528Y-10654676D01*
X15984243Y-10854676D02*
X15984243Y-10749914D01*
X15974719Y-10730867D01*
X15955671Y-10721343D01*
X15927100Y-10721343D01*
X15908052Y-10730867D01*
X15898528Y-10740390D01*
X16108052Y-10854676D02*
X16089005Y-10845152D01*
X16079481Y-10835629D01*
X16069957Y-10816581D01*
X16069957Y-10759438D01*
X16079481Y-10740390D01*
X16089005Y-10730867D01*
X16108052Y-10721343D01*
X16136624Y-10721343D01*
X16155671Y-10730867D01*
X16165195Y-10740390D01*
X16174719Y-10759438D01*
X16174719Y-10816581D01*
X16165195Y-10835629D01*
X16155671Y-10845152D01*
X16136624Y-10854676D01*
X16108052Y-10854676D01*
X16289005Y-10854676D02*
X16269957Y-10845152D01*
X16260433Y-10826105D01*
X16260433Y-10654676D01*
X16441386Y-10845152D02*
X16422338Y-10854676D01*
X16384243Y-10854676D01*
X16365195Y-10845152D01*
X16355671Y-10826105D01*
X16355671Y-10749914D01*
X16365195Y-10730867D01*
X16384243Y-10721343D01*
X16422338Y-10721343D01*
X16441386Y-10730867D01*
X16450909Y-10749914D01*
X16450909Y-10768962D01*
X16355671Y-10788010D01*
X16527100Y-10845152D02*
X16546148Y-10854676D01*
X16584243Y-10854676D01*
X16603290Y-10845152D01*
X16612814Y-10826105D01*
X16612814Y-10816581D01*
X16603290Y-10797533D01*
X16584243Y-10788010D01*
X16555671Y-10788010D01*
X16536624Y-10778486D01*
X16527100Y-10759438D01*
X16527100Y-10749914D01*
X16536624Y-10730867D01*
X16555671Y-10721343D01*
X16584243Y-10721343D01*
X16603290Y-10730867D01*
X16679481Y-10930867D02*
X16689005Y-10921343D01*
X16708052Y-10892771D01*
X16717576Y-10873724D01*
X16727100Y-10845152D01*
X16736624Y-10797533D01*
X16736624Y-10759438D01*
X16727100Y-10711819D01*
X16717576Y-10683248D01*
X16708052Y-10664200D01*
X16689005Y-10635629D01*
X16679481Y-10626105D01*
D14*
X11677100Y-10988200D02*
X11677100Y-11068200D01*
X11637100Y-11028200D02*
X11717100Y-11028200D01*
D11*
X12012814Y-10918676D02*
X12031862Y-10918676D01*
X12050909Y-10928200D01*
X12060433Y-10937724D01*
X12069957Y-10956771D01*
X12079481Y-10994867D01*
X12079481Y-11042486D01*
X12069957Y-11080581D01*
X12060433Y-11099629D01*
X12050909Y-11109152D01*
X12031862Y-11118676D01*
X12012814Y-11118676D01*
X11993767Y-11109152D01*
X11984243Y-11099629D01*
X11974719Y-11080581D01*
X11965195Y-11042486D01*
X11965195Y-10994867D01*
X11974719Y-10956771D01*
X11984243Y-10937724D01*
X11993767Y-10928200D01*
X12012814Y-10918676D01*
X12165195Y-11099629D02*
X12174719Y-11109152D01*
X12165195Y-11118676D01*
X12155671Y-11109152D01*
X12165195Y-11099629D01*
X12165195Y-11118676D01*
X12289005Y-11004390D02*
X12269957Y-10994867D01*
X12260433Y-10985343D01*
X12250909Y-10966295D01*
X12250909Y-10956771D01*
X12260433Y-10937724D01*
X12269957Y-10928200D01*
X12289005Y-10918676D01*
X12327100Y-10918676D01*
X12346148Y-10928200D01*
X12355671Y-10937724D01*
X12365195Y-10956771D01*
X12365195Y-10966295D01*
X12355671Y-10985343D01*
X12346148Y-10994867D01*
X12327100Y-11004390D01*
X12289005Y-11004390D01*
X12269957Y-11013914D01*
X12260433Y-11023438D01*
X12250909Y-11042486D01*
X12250909Y-11080581D01*
X12260433Y-11099629D01*
X12269957Y-11109152D01*
X12289005Y-11118676D01*
X12327100Y-11118676D01*
X12346148Y-11109152D01*
X12355671Y-11099629D01*
X12365195Y-11080581D01*
X12365195Y-11042486D01*
X12355671Y-11023438D01*
X12346148Y-11013914D01*
X12327100Y-11004390D01*
X12489005Y-10918676D02*
X12508052Y-10918676D01*
X12527100Y-10928200D01*
X12536624Y-10937724D01*
X12546148Y-10956771D01*
X12555671Y-10994867D01*
X12555671Y-11042486D01*
X12546148Y-11080581D01*
X12536624Y-11099629D01*
X12527100Y-11109152D01*
X12508052Y-11118676D01*
X12489005Y-11118676D01*
X12469957Y-11109152D01*
X12460433Y-11099629D01*
X12450909Y-11080581D01*
X12441386Y-11042486D01*
X12441386Y-10994867D01*
X12450909Y-10956771D01*
X12460433Y-10937724D01*
X12469957Y-10928200D01*
X12489005Y-10918676D01*
X12679481Y-10918676D02*
X12698528Y-10918676D01*
X12717576Y-10928200D01*
X12727100Y-10937724D01*
X12736624Y-10956771D01*
X12746148Y-10994867D01*
X12746148Y-11042486D01*
X12736624Y-11080581D01*
X12727100Y-11099629D01*
X12717576Y-11109152D01*
X12698528Y-11118676D01*
X12679481Y-11118676D01*
X12660433Y-11109152D01*
X12650909Y-11099629D01*
X12641386Y-11080581D01*
X12631862Y-11042486D01*
X12631862Y-10994867D01*
X12641386Y-10956771D01*
X12650909Y-10937724D01*
X12660433Y-10928200D01*
X12679481Y-10918676D01*
X12831862Y-11118676D02*
X12831862Y-10985343D01*
X12831862Y-11004390D02*
X12841386Y-10994867D01*
X12860433Y-10985343D01*
X12889005Y-10985343D01*
X12908052Y-10994867D01*
X12917576Y-11013914D01*
X12917576Y-11118676D01*
X12917576Y-11013914D02*
X12927100Y-10994867D01*
X12946148Y-10985343D01*
X12974719Y-10985343D01*
X12993767Y-10994867D01*
X13003290Y-11013914D01*
X13003290Y-11118676D01*
X13098528Y-11118676D02*
X13098528Y-10985343D01*
X13098528Y-11004390D02*
X13108052Y-10994867D01*
X13127100Y-10985343D01*
X13155671Y-10985343D01*
X13174719Y-10994867D01*
X13184243Y-11013914D01*
X13184243Y-11118676D01*
X13184243Y-11013914D02*
X13193767Y-10994867D01*
X13212814Y-10985343D01*
X13241386Y-10985343D01*
X13260433Y-10994867D01*
X13269957Y-11013914D01*
X13269957Y-11118676D01*
X13660433Y-10909152D02*
X13489005Y-11166295D01*
X13917576Y-10918676D02*
X13936624Y-10918676D01*
X13955671Y-10928200D01*
X13965195Y-10937724D01*
X13974719Y-10956771D01*
X13984243Y-10994867D01*
X13984243Y-11042486D01*
X13974719Y-11080581D01*
X13965195Y-11099629D01*
X13955671Y-11109152D01*
X13936624Y-11118676D01*
X13917576Y-11118676D01*
X13898528Y-11109152D01*
X13889005Y-11099629D01*
X13879481Y-11080581D01*
X13869957Y-11042486D01*
X13869957Y-10994867D01*
X13879481Y-10956771D01*
X13889005Y-10937724D01*
X13898528Y-10928200D01*
X13917576Y-10918676D01*
X14069957Y-11099629D02*
X14079481Y-11109152D01*
X14069957Y-11118676D01*
X14060433Y-11109152D01*
X14069957Y-11099629D01*
X14069957Y-11118676D01*
X14203290Y-10918676D02*
X14222338Y-10918676D01*
X14241386Y-10928200D01*
X14250909Y-10937724D01*
X14260433Y-10956771D01*
X14269957Y-10994867D01*
X14269957Y-11042486D01*
X14260433Y-11080581D01*
X14250909Y-11099629D01*
X14241386Y-11109152D01*
X14222338Y-11118676D01*
X14203290Y-11118676D01*
X14184243Y-11109152D01*
X14174719Y-11099629D01*
X14165195Y-11080581D01*
X14155671Y-11042486D01*
X14155671Y-10994867D01*
X14165195Y-10956771D01*
X14174719Y-10937724D01*
X14184243Y-10928200D01*
X14203290Y-10918676D01*
X14336624Y-10918676D02*
X14460433Y-10918676D01*
X14393767Y-10994867D01*
X14422338Y-10994867D01*
X14441386Y-11004390D01*
X14450909Y-11013914D01*
X14460433Y-11032962D01*
X14460433Y-11080581D01*
X14450909Y-11099629D01*
X14441386Y-11109152D01*
X14422338Y-11118676D01*
X14365195Y-11118676D01*
X14346148Y-11109152D01*
X14336624Y-11099629D01*
X14650909Y-11118676D02*
X14536624Y-11118676D01*
X14593767Y-11118676D02*
X14593767Y-10918676D01*
X14574719Y-10947248D01*
X14555671Y-10966295D01*
X14536624Y-10975819D01*
X14831862Y-10918676D02*
X14736624Y-10918676D01*
X14727100Y-11013914D01*
X14736624Y-11004390D01*
X14755671Y-10994867D01*
X14803290Y-10994867D01*
X14822338Y-11004390D01*
X14831862Y-11013914D01*
X14841386Y-11032962D01*
X14841386Y-11080581D01*
X14831862Y-11099629D01*
X14822338Y-11109152D01*
X14803290Y-11118676D01*
X14755671Y-11118676D01*
X14736624Y-11109152D01*
X14727100Y-11099629D01*
X14917576Y-10918676D02*
X14917576Y-10956771D01*
X14993767Y-10918676D02*
X14993767Y-10956771D01*
X15289005Y-11194867D02*
X15279481Y-11185343D01*
X15260433Y-11156771D01*
X15250909Y-11137724D01*
X15241386Y-11109152D01*
X15231862Y-11061533D01*
X15231862Y-11023438D01*
X15241386Y-10975819D01*
X15250909Y-10947248D01*
X15260433Y-10928200D01*
X15279481Y-10899629D01*
X15289005Y-10890105D01*
X15346148Y-10918676D02*
X15479481Y-10918676D01*
X15393767Y-11118676D01*
X15546148Y-10937724D02*
X15555671Y-10928200D01*
X15574719Y-10918676D01*
X15622338Y-10918676D01*
X15641386Y-10928200D01*
X15650909Y-10937724D01*
X15660433Y-10956771D01*
X15660433Y-10975819D01*
X15650909Y-11004390D01*
X15536624Y-11118676D01*
X15660433Y-11118676D01*
X15898528Y-11118676D02*
X15898528Y-10918676D01*
X15984243Y-11118676D02*
X15984243Y-11013914D01*
X15974719Y-10994867D01*
X15955671Y-10985343D01*
X15927100Y-10985343D01*
X15908052Y-10994867D01*
X15898528Y-11004390D01*
X16108052Y-11118676D02*
X16089005Y-11109152D01*
X16079481Y-11099629D01*
X16069957Y-11080581D01*
X16069957Y-11023438D01*
X16079481Y-11004390D01*
X16089005Y-10994867D01*
X16108052Y-10985343D01*
X16136624Y-10985343D01*
X16155671Y-10994867D01*
X16165195Y-11004390D01*
X16174719Y-11023438D01*
X16174719Y-11080581D01*
X16165195Y-11099629D01*
X16155671Y-11109152D01*
X16136624Y-11118676D01*
X16108052Y-11118676D01*
X16289005Y-11118676D02*
X16269957Y-11109152D01*
X16260433Y-11090105D01*
X16260433Y-10918676D01*
X16441386Y-11109152D02*
X16422338Y-11118676D01*
X16384243Y-11118676D01*
X16365195Y-11109152D01*
X16355671Y-11090105D01*
X16355671Y-11013914D01*
X16365195Y-10994867D01*
X16384243Y-10985343D01*
X16422338Y-10985343D01*
X16441386Y-10994867D01*
X16450909Y-11013914D01*
X16450909Y-11032962D01*
X16355671Y-11052010D01*
X16527100Y-11109152D02*
X16546148Y-11118676D01*
X16584243Y-11118676D01*
X16603290Y-11109152D01*
X16612814Y-11090105D01*
X16612814Y-11080581D01*
X16603290Y-11061533D01*
X16584243Y-11052010D01*
X16555671Y-11052010D01*
X16536624Y-11042486D01*
X16527100Y-11023438D01*
X16527100Y-11013914D01*
X16536624Y-10994867D01*
X16555671Y-10985343D01*
X16584243Y-10985343D01*
X16603290Y-10994867D01*
X16679481Y-11194867D02*
X16689005Y-11185343D01*
X16708052Y-11156771D01*
X16717576Y-11137724D01*
X16727100Y-11109152D01*
X16736624Y-11061533D01*
X16736624Y-11023438D01*
X16727100Y-10975819D01*
X16717576Y-10947248D01*
X16708052Y-10928200D01*
X16689005Y-10899629D01*
X16679481Y-10890105D01*
M02*
