%TF.GenerationSoftware,KiCad,Pcbnew,(6.0.0)*%
%TF.CreationDate,2023-01-31T14:46:14-05:00*%
%TF.ProjectId,dumper,64756d70-6572-42e6-9b69-6361645f7063,rev?*%
%TF.SameCoordinates,Original*%
%TF.FileFunction,Legend,Top*%
%TF.FilePolarity,Positive*%
%FSLAX46Y46*%
G04 Gerber Fmt 4.6, Leading zero omitted, Abs format (unit mm)*
G04 Created by KiCad (PCBNEW (6.0.0)) date 2023-01-31 14:46:14*
%MOMM*%
%LPD*%
G01*
G04 APERTURE LIST*
%ADD10C,0.150000*%
%ADD11C,0.120000*%
%ADD12C,0.152400*%
%ADD13C,1.700000*%
%ADD14R,1.600000X1.600000*%
%ADD15O,1.600000X1.600000*%
%ADD16R,1.700000X1.700000*%
%ADD17C,1.600000*%
%ADD18R,1.295400X1.295400*%
%ADD19C,1.295400*%
%ADD20C,3.200000*%
%ADD21O,1.700000X1.700000*%
%ADD22R,1.800000X1.800000*%
%ADD23C,1.800000*%
G04 APERTURE END LIST*
D10*
X140325000Y-107950000D02*
X159375000Y-107950000D01*
X148580000Y-100965000D02*
G75*
G03*
X151120000Y-100965000I1270000J0D01*
G01*
X148580000Y-107950000D02*
G75*
G03*
X151120000Y-107950000I1270000J0D01*
G01*
X124118952Y-95972380D02*
X124452285Y-96972380D01*
X124785619Y-95972380D01*
X125499904Y-96924761D02*
X125404666Y-96972380D01*
X125214190Y-96972380D01*
X125118952Y-96924761D01*
X125071333Y-96829523D01*
X125071333Y-96448571D01*
X125118952Y-96353333D01*
X125214190Y-96305714D01*
X125404666Y-96305714D01*
X125499904Y-96353333D01*
X125547523Y-96448571D01*
X125547523Y-96543809D01*
X125071333Y-96639047D01*
X125976095Y-96972380D02*
X125976095Y-96305714D01*
X125976095Y-96496190D02*
X126023714Y-96400952D01*
X126071333Y-96353333D01*
X126166571Y-96305714D01*
X126261809Y-96305714D01*
X126595142Y-96877142D02*
X126642761Y-96924761D01*
X126595142Y-96972380D01*
X126547523Y-96924761D01*
X126595142Y-96877142D01*
X126595142Y-96972380D01*
X127785619Y-96686666D02*
X128261809Y-96686666D01*
X127690380Y-96972380D02*
X128023714Y-95972380D01*
X128357047Y-96972380D01*
X162851666Y-118832380D02*
X163470714Y-118832380D01*
X163137380Y-119213333D01*
X163280238Y-119213333D01*
X163375476Y-119260952D01*
X163423095Y-119308571D01*
X163470714Y-119403809D01*
X163470714Y-119641904D01*
X163423095Y-119737142D01*
X163375476Y-119784761D01*
X163280238Y-119832380D01*
X162994523Y-119832380D01*
X162899285Y-119784761D01*
X162851666Y-119737142D01*
X163470714Y-114752380D02*
X162899285Y-114752380D01*
X163185000Y-114752380D02*
X163185000Y-113752380D01*
X163089761Y-113895238D01*
X162994523Y-113990476D01*
X162899285Y-114038095D01*
X162899285Y-116387619D02*
X162946904Y-116340000D01*
X163042142Y-116292380D01*
X163280238Y-116292380D01*
X163375476Y-116340000D01*
X163423095Y-116387619D01*
X163470714Y-116482857D01*
X163470714Y-116578095D01*
X163423095Y-116720952D01*
X162851666Y-117292380D01*
X163470714Y-117292380D01*
X134017857Y-143327380D02*
X134017857Y-142803571D01*
X133970238Y-142708333D01*
X133875000Y-142660714D01*
X133684523Y-142660714D01*
X133589285Y-142708333D01*
X134017857Y-143279761D02*
X133922619Y-143327380D01*
X133684523Y-143327380D01*
X133589285Y-143279761D01*
X133541666Y-143184523D01*
X133541666Y-143089285D01*
X133589285Y-142994047D01*
X133684523Y-142946428D01*
X133922619Y-142946428D01*
X134017857Y-142898809D01*
X134494047Y-143327380D02*
X134494047Y-142327380D01*
X134494047Y-142708333D02*
X134589285Y-142660714D01*
X134779761Y-142660714D01*
X134875000Y-142708333D01*
X134922619Y-142755952D01*
X134970238Y-142851190D01*
X134970238Y-143136904D01*
X134922619Y-143232142D01*
X134875000Y-143279761D01*
X134779761Y-143327380D01*
X134589285Y-143327380D01*
X134494047Y-143279761D01*
X135303571Y-142660714D02*
X135827380Y-142660714D01*
X135303571Y-143327380D01*
X135827380Y-143327380D01*
X136208333Y-143327380D02*
X136208333Y-142660714D01*
X136208333Y-142755952D02*
X136255952Y-142708333D01*
X136351190Y-142660714D01*
X136494047Y-142660714D01*
X136589285Y-142708333D01*
X136636904Y-142803571D01*
X136636904Y-143327380D01*
X136636904Y-142803571D02*
X136684523Y-142708333D01*
X136779761Y-142660714D01*
X136922619Y-142660714D01*
X137017857Y-142708333D01*
X137065476Y-142803571D01*
X137065476Y-143327380D01*
X137970238Y-143327380D02*
X137970238Y-142803571D01*
X137922619Y-142708333D01*
X137827380Y-142660714D01*
X137636904Y-142660714D01*
X137541666Y-142708333D01*
X137970238Y-143279761D02*
X137875000Y-143327380D01*
X137636904Y-143327380D01*
X137541666Y-143279761D01*
X137494047Y-143184523D01*
X137494047Y-143089285D01*
X137541666Y-142994047D01*
X137636904Y-142946428D01*
X137875000Y-142946428D01*
X137970238Y-142898809D01*
X138446428Y-142660714D02*
X138446428Y-143327380D01*
X138446428Y-142755952D02*
X138494047Y-142708333D01*
X138589285Y-142660714D01*
X138732142Y-142660714D01*
X138827380Y-142708333D01*
X138875000Y-142803571D01*
X138875000Y-143327380D01*
X139303571Y-142422619D02*
X139351190Y-142375000D01*
X139446428Y-142327380D01*
X139684523Y-142327380D01*
X139779761Y-142375000D01*
X139827380Y-142422619D01*
X139875000Y-142517857D01*
X139875000Y-142613095D01*
X139827380Y-142755952D01*
X139255952Y-143327380D01*
X139875000Y-143327380D01*
X140303571Y-143327380D02*
X140303571Y-142327380D01*
X140398809Y-142946428D02*
X140684523Y-143327380D01*
X140684523Y-142660714D02*
X140303571Y-143041666D01*
X141113095Y-143232142D02*
X141160714Y-143279761D01*
X141113095Y-143327380D01*
X141065476Y-143279761D01*
X141113095Y-143232142D01*
X141113095Y-143327380D01*
X141494047Y-142660714D02*
X141684523Y-143327380D01*
X141875000Y-142851190D01*
X142065476Y-143327380D01*
X142255952Y-142660714D01*
X142779761Y-143327380D02*
X142684523Y-143279761D01*
X142636904Y-143232142D01*
X142589285Y-143136904D01*
X142589285Y-142851190D01*
X142636904Y-142755952D01*
X142684523Y-142708333D01*
X142779761Y-142660714D01*
X142922619Y-142660714D01*
X143017857Y-142708333D01*
X143065476Y-142755952D01*
X143113095Y-142851190D01*
X143113095Y-143136904D01*
X143065476Y-143232142D01*
X143017857Y-143279761D01*
X142922619Y-143327380D01*
X142779761Y-143327380D01*
X143541666Y-143327380D02*
X143541666Y-142660714D01*
X143541666Y-142851190D02*
X143589285Y-142755952D01*
X143636904Y-142708333D01*
X143732142Y-142660714D01*
X143827380Y-142660714D01*
X144589285Y-143327380D02*
X144589285Y-142327380D01*
X144589285Y-143279761D02*
X144494047Y-143327380D01*
X144303571Y-143327380D01*
X144208333Y-143279761D01*
X144160714Y-143232142D01*
X144113095Y-143136904D01*
X144113095Y-142851190D01*
X144160714Y-142755952D01*
X144208333Y-142708333D01*
X144303571Y-142660714D01*
X144494047Y-142660714D01*
X144589285Y-142708333D01*
X145065476Y-142660714D02*
X145065476Y-143660714D01*
X145065476Y-142708333D02*
X145160714Y-142660714D01*
X145351190Y-142660714D01*
X145446428Y-142708333D01*
X145494047Y-142755952D01*
X145541666Y-142851190D01*
X145541666Y-143136904D01*
X145494047Y-143232142D01*
X145446428Y-143279761D01*
X145351190Y-143327380D01*
X145160714Y-143327380D01*
X145065476Y-143279761D01*
X145970238Y-143327380D02*
X145970238Y-142660714D01*
X145970238Y-142851190D02*
X146017857Y-142755952D01*
X146065476Y-142708333D01*
X146160714Y-142660714D01*
X146255952Y-142660714D01*
X146970238Y-143279761D02*
X146875000Y-143327380D01*
X146684523Y-143327380D01*
X146589285Y-143279761D01*
X146541666Y-143184523D01*
X146541666Y-142803571D01*
X146589285Y-142708333D01*
X146684523Y-142660714D01*
X146875000Y-142660714D01*
X146970238Y-142708333D01*
X147017857Y-142803571D01*
X147017857Y-142898809D01*
X146541666Y-142994047D01*
X147398809Y-143279761D02*
X147494047Y-143327380D01*
X147684523Y-143327380D01*
X147779761Y-143279761D01*
X147827380Y-143184523D01*
X147827380Y-143136904D01*
X147779761Y-143041666D01*
X147684523Y-142994047D01*
X147541666Y-142994047D01*
X147446428Y-142946428D01*
X147398809Y-142851190D01*
X147398809Y-142803571D01*
X147446428Y-142708333D01*
X147541666Y-142660714D01*
X147684523Y-142660714D01*
X147779761Y-142708333D01*
X148208333Y-143279761D02*
X148303571Y-143327380D01*
X148494047Y-143327380D01*
X148589285Y-143279761D01*
X148636904Y-143184523D01*
X148636904Y-143136904D01*
X148589285Y-143041666D01*
X148494047Y-142994047D01*
X148351190Y-142994047D01*
X148255952Y-142946428D01*
X148208333Y-142851190D01*
X148208333Y-142803571D01*
X148255952Y-142708333D01*
X148351190Y-142660714D01*
X148494047Y-142660714D01*
X148589285Y-142708333D01*
X149065476Y-143232142D02*
X149113095Y-143279761D01*
X149065476Y-143327380D01*
X149017857Y-143279761D01*
X149065476Y-143232142D01*
X149065476Y-143327380D01*
X149970238Y-143279761D02*
X149875000Y-143327380D01*
X149684523Y-143327380D01*
X149589285Y-143279761D01*
X149541666Y-143232142D01*
X149494047Y-143136904D01*
X149494047Y-142851190D01*
X149541666Y-142755952D01*
X149589285Y-142708333D01*
X149684523Y-142660714D01*
X149875000Y-142660714D01*
X149970238Y-142708333D01*
X150541666Y-143327380D02*
X150446428Y-143279761D01*
X150398809Y-143232142D01*
X150351190Y-143136904D01*
X150351190Y-142851190D01*
X150398809Y-142755952D01*
X150446428Y-142708333D01*
X150541666Y-142660714D01*
X150684523Y-142660714D01*
X150779761Y-142708333D01*
X150827380Y-142755952D01*
X150875000Y-142851190D01*
X150875000Y-143136904D01*
X150827380Y-143232142D01*
X150779761Y-143279761D01*
X150684523Y-143327380D01*
X150541666Y-143327380D01*
X151303571Y-143327380D02*
X151303571Y-142660714D01*
X151303571Y-142755952D02*
X151351190Y-142708333D01*
X151446428Y-142660714D01*
X151589285Y-142660714D01*
X151684523Y-142708333D01*
X151732142Y-142803571D01*
X151732142Y-143327380D01*
X151732142Y-142803571D02*
X151779761Y-142708333D01*
X151875000Y-142660714D01*
X152017857Y-142660714D01*
X152113095Y-142708333D01*
X152160714Y-142803571D01*
X152160714Y-143327380D01*
X102140952Y-96337380D02*
X102140952Y-95337380D01*
X102521904Y-95337380D01*
X102617142Y-95385000D01*
X102664761Y-95432619D01*
X102712380Y-95527857D01*
X102712380Y-95670714D01*
X102664761Y-95765952D01*
X102617142Y-95813571D01*
X102521904Y-95861190D01*
X102140952Y-95861190D01*
X103140952Y-96337380D02*
X103140952Y-95337380D01*
X104188571Y-96242142D02*
X104140952Y-96289761D01*
X103998095Y-96337380D01*
X103902857Y-96337380D01*
X103759999Y-96289761D01*
X103664761Y-96194523D01*
X103617142Y-96099285D01*
X103569523Y-95908809D01*
X103569523Y-95765952D01*
X103617142Y-95575476D01*
X103664761Y-95480238D01*
X103759999Y-95385000D01*
X103902857Y-95337380D01*
X103998095Y-95337380D01*
X104140952Y-95385000D01*
X104188571Y-95432619D01*
X104521904Y-95337380D02*
X105188571Y-95337380D01*
X104759999Y-96337380D01*
X105759999Y-95337380D02*
X105855238Y-95337380D01*
X105950476Y-95385000D01*
X105998095Y-95432619D01*
X106045714Y-95527857D01*
X106093333Y-95718333D01*
X106093333Y-95956428D01*
X106045714Y-96146904D01*
X105998095Y-96242142D01*
X105950476Y-96289761D01*
X105855238Y-96337380D01*
X105759999Y-96337380D01*
X105664761Y-96289761D01*
X105617142Y-96242142D01*
X105569523Y-96146904D01*
X105521904Y-95956428D01*
X105521904Y-95718333D01*
X105569523Y-95527857D01*
X105617142Y-95432619D01*
X105664761Y-95385000D01*
X105759999Y-95337380D01*
X106426666Y-96337380D02*
X106950476Y-95670714D01*
X106426666Y-95670714D02*
X106950476Y-96337380D01*
X107236190Y-96337380D02*
X107759999Y-95670714D01*
X107236190Y-95670714D02*
X107759999Y-96337380D01*
X108855238Y-95289761D02*
X107998095Y-96575476D01*
X109045714Y-95337380D02*
X109617142Y-95337380D01*
X109331428Y-96337380D02*
X109331428Y-95337380D01*
X109950476Y-96337380D02*
X109950476Y-95337380D01*
X110283809Y-96051666D01*
X110617142Y-95337380D01*
X110617142Y-96337380D01*
X111045714Y-96289761D02*
X111188571Y-96337380D01*
X111426666Y-96337380D01*
X111521904Y-96289761D01*
X111569523Y-96242142D01*
X111617142Y-96146904D01*
X111617142Y-96051666D01*
X111569523Y-95956428D01*
X111521904Y-95908809D01*
X111426666Y-95861190D01*
X111236190Y-95813571D01*
X111140952Y-95765952D01*
X111093333Y-95718333D01*
X111045714Y-95623095D01*
X111045714Y-95527857D01*
X111093333Y-95432619D01*
X111140952Y-95385000D01*
X111236190Y-95337380D01*
X111474285Y-95337380D01*
X111617142Y-95385000D01*
X111950476Y-95337380D02*
X112617142Y-95337380D01*
X112188571Y-96337380D01*
X113188571Y-95337380D02*
X113283809Y-95337380D01*
X113379047Y-95385000D01*
X113426666Y-95432619D01*
X113474285Y-95527857D01*
X113521904Y-95718333D01*
X113521904Y-95956428D01*
X113474285Y-96146904D01*
X113426666Y-96242142D01*
X113379047Y-96289761D01*
X113283809Y-96337380D01*
X113188571Y-96337380D01*
X113093333Y-96289761D01*
X113045714Y-96242142D01*
X112998095Y-96146904D01*
X112950476Y-95956428D01*
X112950476Y-95718333D01*
X112998095Y-95527857D01*
X113045714Y-95432619D01*
X113093333Y-95385000D01*
X113188571Y-95337380D01*
X113855238Y-96337380D02*
X114379047Y-95670714D01*
X113855238Y-95670714D02*
X114379047Y-96337380D01*
X114664761Y-96337380D02*
X115188571Y-95670714D01*
X114664761Y-95670714D02*
X115188571Y-96337380D01*
X116759999Y-96337380D02*
X116759999Y-95337380D01*
X116759999Y-96289761D02*
X116664761Y-96337380D01*
X116474285Y-96337380D01*
X116379047Y-96289761D01*
X116331428Y-96242142D01*
X116283809Y-96146904D01*
X116283809Y-95861190D01*
X116331428Y-95765952D01*
X116379047Y-95718333D01*
X116474285Y-95670714D01*
X116664761Y-95670714D01*
X116759999Y-95718333D01*
X117664761Y-95670714D02*
X117664761Y-96337380D01*
X117236190Y-95670714D02*
X117236190Y-96194523D01*
X117283809Y-96289761D01*
X117379047Y-96337380D01*
X117521904Y-96337380D01*
X117617142Y-96289761D01*
X117664761Y-96242142D01*
X118140952Y-96337380D02*
X118140952Y-95670714D01*
X118140952Y-95765952D02*
X118188571Y-95718333D01*
X118283809Y-95670714D01*
X118426666Y-95670714D01*
X118521904Y-95718333D01*
X118569523Y-95813571D01*
X118569523Y-96337380D01*
X118569523Y-95813571D02*
X118617142Y-95718333D01*
X118712380Y-95670714D01*
X118855238Y-95670714D01*
X118950476Y-95718333D01*
X118998095Y-95813571D01*
X118998095Y-96337380D01*
X119474285Y-95670714D02*
X119474285Y-96670714D01*
X119474285Y-95718333D02*
X119569523Y-95670714D01*
X119759999Y-95670714D01*
X119855238Y-95718333D01*
X119902857Y-95765952D01*
X119950476Y-95861190D01*
X119950476Y-96146904D01*
X119902857Y-96242142D01*
X119855238Y-96289761D01*
X119759999Y-96337380D01*
X119569523Y-96337380D01*
X119474285Y-96289761D01*
X120759999Y-96289761D02*
X120664761Y-96337380D01*
X120474285Y-96337380D01*
X120379047Y-96289761D01*
X120331428Y-96194523D01*
X120331428Y-95813571D01*
X120379047Y-95718333D01*
X120474285Y-95670714D01*
X120664761Y-95670714D01*
X120759999Y-95718333D01*
X120807619Y-95813571D01*
X120807619Y-95908809D01*
X120331428Y-96004047D01*
X121236190Y-96337380D02*
X121236190Y-95670714D01*
X121236190Y-95861190D02*
X121283809Y-95765952D01*
X121331428Y-95718333D01*
X121426666Y-95670714D01*
X121521904Y-95670714D01*
X85082142Y-100580714D02*
X85082142Y-101247380D01*
X84653571Y-100580714D02*
X84653571Y-101104523D01*
X84701190Y-101199761D01*
X84796428Y-101247380D01*
X84939285Y-101247380D01*
X85034523Y-101199761D01*
X85082142Y-101152142D01*
X85510714Y-101199761D02*
X85605952Y-101247380D01*
X85796428Y-101247380D01*
X85891666Y-101199761D01*
X85939285Y-101104523D01*
X85939285Y-101056904D01*
X85891666Y-100961666D01*
X85796428Y-100914047D01*
X85653571Y-100914047D01*
X85558333Y-100866428D01*
X85510714Y-100771190D01*
X85510714Y-100723571D01*
X85558333Y-100628333D01*
X85653571Y-100580714D01*
X85796428Y-100580714D01*
X85891666Y-100628333D01*
X86367857Y-101247380D02*
X86367857Y-100247380D01*
X86367857Y-100628333D02*
X86463095Y-100580714D01*
X86653571Y-100580714D01*
X86748809Y-100628333D01*
X86796428Y-100675952D01*
X86844047Y-100771190D01*
X86844047Y-101056904D01*
X86796428Y-101152142D01*
X86748809Y-101199761D01*
X86653571Y-101247380D01*
X86463095Y-101247380D01*
X86367857Y-101199761D01*
X84391666Y-102809761D02*
X84486904Y-102857380D01*
X84677380Y-102857380D01*
X84772619Y-102809761D01*
X84820238Y-102714523D01*
X84820238Y-102666904D01*
X84772619Y-102571666D01*
X84677380Y-102524047D01*
X84534523Y-102524047D01*
X84439285Y-102476428D01*
X84391666Y-102381190D01*
X84391666Y-102333571D01*
X84439285Y-102238333D01*
X84534523Y-102190714D01*
X84677380Y-102190714D01*
X84772619Y-102238333D01*
X85248809Y-102857380D02*
X85248809Y-102190714D01*
X85248809Y-101857380D02*
X85201190Y-101905000D01*
X85248809Y-101952619D01*
X85296428Y-101905000D01*
X85248809Y-101857380D01*
X85248809Y-101952619D01*
X86153571Y-102857380D02*
X86153571Y-101857380D01*
X86153571Y-102809761D02*
X86058333Y-102857380D01*
X85867857Y-102857380D01*
X85772619Y-102809761D01*
X85725000Y-102762142D01*
X85677380Y-102666904D01*
X85677380Y-102381190D01*
X85725000Y-102285952D01*
X85772619Y-102238333D01*
X85867857Y-102190714D01*
X86058333Y-102190714D01*
X86153571Y-102238333D01*
X87010714Y-102809761D02*
X86915476Y-102857380D01*
X86725000Y-102857380D01*
X86629761Y-102809761D01*
X86582142Y-102714523D01*
X86582142Y-102333571D01*
X86629761Y-102238333D01*
X86725000Y-102190714D01*
X86915476Y-102190714D01*
X87010714Y-102238333D01*
X87058333Y-102333571D01*
X87058333Y-102428809D01*
X86582142Y-102524047D01*
X131366309Y-97167619D02*
X131413928Y-97120000D01*
X131509166Y-97072380D01*
X131747261Y-97072380D01*
X131842500Y-97120000D01*
X131890119Y-97167619D01*
X131937738Y-97262857D01*
X131937738Y-97358095D01*
X131890119Y-97500952D01*
X131318690Y-98072380D01*
X131937738Y-98072380D01*
X132509166Y-97500952D02*
X132413928Y-97453333D01*
X132366309Y-97405714D01*
X132318690Y-97310476D01*
X132318690Y-97262857D01*
X132366309Y-97167619D01*
X132413928Y-97120000D01*
X132509166Y-97072380D01*
X132699642Y-97072380D01*
X132794880Y-97120000D01*
X132842500Y-97167619D01*
X132890119Y-97262857D01*
X132890119Y-97310476D01*
X132842500Y-97405714D01*
X132794880Y-97453333D01*
X132699642Y-97500952D01*
X132509166Y-97500952D01*
X132413928Y-97548571D01*
X132366309Y-97596190D01*
X132318690Y-97691428D01*
X132318690Y-97881904D01*
X132366309Y-97977142D01*
X132413928Y-98024761D01*
X132509166Y-98072380D01*
X132699642Y-98072380D01*
X132794880Y-98024761D01*
X132842500Y-97977142D01*
X132890119Y-97881904D01*
X132890119Y-97691428D01*
X132842500Y-97596190D01*
X132794880Y-97548571D01*
X132699642Y-97500952D01*
X133842500Y-98072380D02*
X133271071Y-98072380D01*
X133556785Y-98072380D02*
X133556785Y-97072380D01*
X133461547Y-97215238D01*
X133366309Y-97310476D01*
X133271071Y-97358095D01*
X134699642Y-97072380D02*
X134509166Y-97072380D01*
X134413928Y-97120000D01*
X134366309Y-97167619D01*
X134271071Y-97310476D01*
X134223452Y-97500952D01*
X134223452Y-97881904D01*
X134271071Y-97977142D01*
X134318690Y-98024761D01*
X134413928Y-98072380D01*
X134604404Y-98072380D01*
X134699642Y-98024761D01*
X134747261Y-97977142D01*
X134794880Y-97881904D01*
X134794880Y-97643809D01*
X134747261Y-97548571D01*
X134699642Y-97500952D01*
X134604404Y-97453333D01*
X134413928Y-97453333D01*
X134318690Y-97500952D01*
X134271071Y-97548571D01*
X134223452Y-97643809D01*
X135937738Y-97024761D02*
X135080595Y-98310476D01*
X136223452Y-97167619D02*
X136271071Y-97120000D01*
X136366309Y-97072380D01*
X136604404Y-97072380D01*
X136699642Y-97120000D01*
X136747261Y-97167619D01*
X136794880Y-97262857D01*
X136794880Y-97358095D01*
X136747261Y-97500952D01*
X136175833Y-98072380D01*
X136794880Y-98072380D01*
X137128214Y-97072380D02*
X137794880Y-97072380D01*
X137366309Y-98072380D01*
X138699642Y-98072380D02*
X138128214Y-98072380D01*
X138413928Y-98072380D02*
X138413928Y-97072380D01*
X138318690Y-97215238D01*
X138223452Y-97310476D01*
X138128214Y-97358095D01*
X139556785Y-97072380D02*
X139366309Y-97072380D01*
X139271071Y-97120000D01*
X139223452Y-97167619D01*
X139128214Y-97310476D01*
X139080595Y-97500952D01*
X139080595Y-97881904D01*
X139128214Y-97977142D01*
X139175833Y-98024761D01*
X139271071Y-98072380D01*
X139461547Y-98072380D01*
X139556785Y-98024761D01*
X139604404Y-97977142D01*
X139652023Y-97881904D01*
X139652023Y-97643809D01*
X139604404Y-97548571D01*
X139556785Y-97500952D01*
X139461547Y-97453333D01*
X139271071Y-97453333D01*
X139175833Y-97500952D01*
X139128214Y-97548571D01*
X139080595Y-97643809D01*
X140842500Y-97691428D02*
X141604404Y-97691428D01*
X143271071Y-98024761D02*
X143175833Y-98072380D01*
X142985357Y-98072380D01*
X142890119Y-98024761D01*
X142842500Y-97977142D01*
X142794880Y-97881904D01*
X142794880Y-97596190D01*
X142842500Y-97500952D01*
X142890119Y-97453333D01*
X142985357Y-97405714D01*
X143175833Y-97405714D01*
X143271071Y-97453333D01*
X143842500Y-98072380D02*
X143747261Y-98024761D01*
X143699642Y-97977142D01*
X143652023Y-97881904D01*
X143652023Y-97596190D01*
X143699642Y-97500952D01*
X143747261Y-97453333D01*
X143842500Y-97405714D01*
X143985357Y-97405714D01*
X144080595Y-97453333D01*
X144128214Y-97500952D01*
X144175833Y-97596190D01*
X144175833Y-97881904D01*
X144128214Y-97977142D01*
X144080595Y-98024761D01*
X143985357Y-98072380D01*
X143842500Y-98072380D01*
X144604404Y-97405714D02*
X144604404Y-98072380D01*
X144604404Y-97500952D02*
X144652023Y-97453333D01*
X144747261Y-97405714D01*
X144890119Y-97405714D01*
X144985357Y-97453333D01*
X145032976Y-97548571D01*
X145032976Y-98072380D01*
X145509166Y-97405714D02*
X145509166Y-98072380D01*
X145509166Y-97500952D02*
X145556785Y-97453333D01*
X145652023Y-97405714D01*
X145794880Y-97405714D01*
X145890119Y-97453333D01*
X145937738Y-97548571D01*
X145937738Y-98072380D01*
X146794880Y-98024761D02*
X146699642Y-98072380D01*
X146509166Y-98072380D01*
X146413928Y-98024761D01*
X146366309Y-97929523D01*
X146366309Y-97548571D01*
X146413928Y-97453333D01*
X146509166Y-97405714D01*
X146699642Y-97405714D01*
X146794880Y-97453333D01*
X146842500Y-97548571D01*
X146842500Y-97643809D01*
X146366309Y-97739047D01*
X147699642Y-98024761D02*
X147604404Y-98072380D01*
X147413928Y-98072380D01*
X147318690Y-98024761D01*
X147271071Y-97977142D01*
X147223452Y-97881904D01*
X147223452Y-97596190D01*
X147271071Y-97500952D01*
X147318690Y-97453333D01*
X147413928Y-97405714D01*
X147604404Y-97405714D01*
X147699642Y-97453333D01*
X147985357Y-97405714D02*
X148366309Y-97405714D01*
X148128214Y-97072380D02*
X148128214Y-97929523D01*
X148175833Y-98024761D01*
X148271071Y-98072380D01*
X148366309Y-98072380D01*
X149747261Y-97072380D02*
X149747261Y-97786666D01*
X149699642Y-97929523D01*
X149604404Y-98024761D01*
X149461547Y-98072380D01*
X149366309Y-98072380D01*
X150699642Y-97072380D02*
X150223452Y-97072380D01*
X150175833Y-97548571D01*
X150223452Y-97500952D01*
X150318690Y-97453333D01*
X150556785Y-97453333D01*
X150652023Y-97500952D01*
X150699642Y-97548571D01*
X150747261Y-97643809D01*
X150747261Y-97881904D01*
X150699642Y-97977142D01*
X150652023Y-98024761D01*
X150556785Y-98072380D01*
X150318690Y-98072380D01*
X150223452Y-98024761D01*
X150175833Y-97977142D01*
X152461547Y-98072380D02*
X151890119Y-98072380D01*
X152175833Y-98072380D02*
X152175833Y-97072380D01*
X152080595Y-97215238D01*
X151985357Y-97310476D01*
X151890119Y-97358095D01*
X152890119Y-97691428D02*
X153652023Y-97691428D01*
X154080595Y-97167619D02*
X154128214Y-97120000D01*
X154223452Y-97072380D01*
X154461547Y-97072380D01*
X154556785Y-97120000D01*
X154604404Y-97167619D01*
X154652023Y-97262857D01*
X154652023Y-97358095D01*
X154604404Y-97500952D01*
X154032976Y-98072380D01*
X154652023Y-98072380D01*
X123699642Y-98777619D02*
X123747261Y-98730000D01*
X123842499Y-98682380D01*
X124080595Y-98682380D01*
X124175833Y-98730000D01*
X124223452Y-98777619D01*
X124271071Y-98872857D01*
X124271071Y-98968095D01*
X124223452Y-99110952D01*
X123652023Y-99682380D01*
X124271071Y-99682380D01*
X124604404Y-98682380D02*
X125271071Y-98682380D01*
X124842499Y-99682380D01*
X125556785Y-98682380D02*
X126175833Y-98682380D01*
X125842499Y-99063333D01*
X125985357Y-99063333D01*
X126080595Y-99110952D01*
X126128214Y-99158571D01*
X126175833Y-99253809D01*
X126175833Y-99491904D01*
X126128214Y-99587142D01*
X126080595Y-99634761D01*
X125985357Y-99682380D01*
X125699642Y-99682380D01*
X125604404Y-99634761D01*
X125556785Y-99587142D01*
X126556785Y-98777619D02*
X126604404Y-98730000D01*
X126699642Y-98682380D01*
X126937738Y-98682380D01*
X127032976Y-98730000D01*
X127080595Y-98777619D01*
X127128214Y-98872857D01*
X127128214Y-98968095D01*
X127080595Y-99110952D01*
X126509166Y-99682380D01*
X127128214Y-99682380D01*
X128271071Y-98634761D02*
X127413928Y-99920476D01*
X128556785Y-98777619D02*
X128604404Y-98730000D01*
X128699642Y-98682380D01*
X128937738Y-98682380D01*
X129032976Y-98730000D01*
X129080595Y-98777619D01*
X129128214Y-98872857D01*
X129128214Y-98968095D01*
X129080595Y-99110952D01*
X128509166Y-99682380D01*
X129128214Y-99682380D01*
X129461547Y-98682380D02*
X130128214Y-98682380D01*
X129699642Y-99682380D01*
X130937738Y-98682380D02*
X130747261Y-98682380D01*
X130652023Y-98730000D01*
X130604404Y-98777619D01*
X130509166Y-98920476D01*
X130461547Y-99110952D01*
X130461547Y-99491904D01*
X130509166Y-99587142D01*
X130556785Y-99634761D01*
X130652023Y-99682380D01*
X130842499Y-99682380D01*
X130937738Y-99634761D01*
X130985357Y-99587142D01*
X131032976Y-99491904D01*
X131032976Y-99253809D01*
X130985357Y-99158571D01*
X130937738Y-99110952D01*
X130842499Y-99063333D01*
X130652023Y-99063333D01*
X130556785Y-99110952D01*
X130509166Y-99158571D01*
X130461547Y-99253809D01*
X131890119Y-99015714D02*
X131890119Y-99682380D01*
X131652023Y-98634761D02*
X131413928Y-99349047D01*
X132032976Y-99349047D01*
X133128214Y-98634761D02*
X132271071Y-99920476D01*
X133461547Y-99682380D02*
X133461547Y-98682380D01*
X133699642Y-98682380D01*
X133842499Y-98730000D01*
X133937738Y-98825238D01*
X133985357Y-98920476D01*
X134032976Y-99110952D01*
X134032976Y-99253809D01*
X133985357Y-99444285D01*
X133937738Y-99539523D01*
X133842499Y-99634761D01*
X133699642Y-99682380D01*
X133461547Y-99682380D01*
X134413928Y-99634761D02*
X134556785Y-99682380D01*
X134794880Y-99682380D01*
X134890119Y-99634761D01*
X134937738Y-99587142D01*
X134985357Y-99491904D01*
X134985357Y-99396666D01*
X134937738Y-99301428D01*
X134890119Y-99253809D01*
X134794880Y-99206190D01*
X134604404Y-99158571D01*
X134509166Y-99110952D01*
X134461547Y-99063333D01*
X134413928Y-98968095D01*
X134413928Y-98872857D01*
X134461547Y-98777619D01*
X134509166Y-98730000D01*
X134604404Y-98682380D01*
X134842500Y-98682380D01*
X134985357Y-98730000D01*
X135937738Y-99682380D02*
X135366309Y-99682380D01*
X135652023Y-99682380D02*
X135652023Y-98682380D01*
X135556785Y-98825238D01*
X135461547Y-98920476D01*
X135366309Y-98968095D01*
X136318690Y-98777619D02*
X136366309Y-98730000D01*
X136461547Y-98682380D01*
X136699642Y-98682380D01*
X136794880Y-98730000D01*
X136842500Y-98777619D01*
X136890119Y-98872857D01*
X136890119Y-98968095D01*
X136842500Y-99110952D01*
X136271071Y-99682380D01*
X136890119Y-99682380D01*
X137271071Y-98777619D02*
X137318690Y-98730000D01*
X137413928Y-98682380D01*
X137652023Y-98682380D01*
X137747261Y-98730000D01*
X137794880Y-98777619D01*
X137842500Y-98872857D01*
X137842500Y-98968095D01*
X137794880Y-99110952D01*
X137223452Y-99682380D01*
X137842500Y-99682380D01*
X138747261Y-98682380D02*
X138271071Y-98682380D01*
X138223452Y-99158571D01*
X138271071Y-99110952D01*
X138366309Y-99063333D01*
X138604404Y-99063333D01*
X138699642Y-99110952D01*
X138747261Y-99158571D01*
X138794880Y-99253809D01*
X138794880Y-99491904D01*
X138747261Y-99587142D01*
X138699642Y-99634761D01*
X138604404Y-99682380D01*
X138366309Y-99682380D01*
X138271071Y-99634761D01*
X138223452Y-99587142D01*
X139413928Y-99206190D02*
X139413928Y-99682380D01*
X139080595Y-98682380D02*
X139413928Y-99206190D01*
X139747261Y-98682380D01*
X140842500Y-99301428D02*
X141604404Y-99301428D01*
X143271071Y-99634761D02*
X143175833Y-99682380D01*
X142985357Y-99682380D01*
X142890119Y-99634761D01*
X142842500Y-99587142D01*
X142794880Y-99491904D01*
X142794880Y-99206190D01*
X142842500Y-99110952D01*
X142890119Y-99063333D01*
X142985357Y-99015714D01*
X143175833Y-99015714D01*
X143271071Y-99063333D01*
X143842500Y-99682380D02*
X143747261Y-99634761D01*
X143699642Y-99587142D01*
X143652023Y-99491904D01*
X143652023Y-99206190D01*
X143699642Y-99110952D01*
X143747261Y-99063333D01*
X143842500Y-99015714D01*
X143985357Y-99015714D01*
X144080595Y-99063333D01*
X144128214Y-99110952D01*
X144175833Y-99206190D01*
X144175833Y-99491904D01*
X144128214Y-99587142D01*
X144080595Y-99634761D01*
X143985357Y-99682380D01*
X143842500Y-99682380D01*
X144604404Y-99015714D02*
X144604404Y-99682380D01*
X144604404Y-99110952D02*
X144652023Y-99063333D01*
X144747261Y-99015714D01*
X144890119Y-99015714D01*
X144985357Y-99063333D01*
X145032976Y-99158571D01*
X145032976Y-99682380D01*
X145509166Y-99015714D02*
X145509166Y-99682380D01*
X145509166Y-99110952D02*
X145556785Y-99063333D01*
X145652023Y-99015714D01*
X145794880Y-99015714D01*
X145890119Y-99063333D01*
X145937738Y-99158571D01*
X145937738Y-99682380D01*
X146794880Y-99634761D02*
X146699642Y-99682380D01*
X146509166Y-99682380D01*
X146413928Y-99634761D01*
X146366309Y-99539523D01*
X146366309Y-99158571D01*
X146413928Y-99063333D01*
X146509166Y-99015714D01*
X146699642Y-99015714D01*
X146794880Y-99063333D01*
X146842499Y-99158571D01*
X146842499Y-99253809D01*
X146366309Y-99349047D01*
X147699642Y-99634761D02*
X147604404Y-99682380D01*
X147413928Y-99682380D01*
X147318690Y-99634761D01*
X147271071Y-99587142D01*
X147223452Y-99491904D01*
X147223452Y-99206190D01*
X147271071Y-99110952D01*
X147318690Y-99063333D01*
X147413928Y-99015714D01*
X147604404Y-99015714D01*
X147699642Y-99063333D01*
X147985357Y-99015714D02*
X148366309Y-99015714D01*
X148128214Y-98682380D02*
X148128214Y-99539523D01*
X148175833Y-99634761D01*
X148271071Y-99682380D01*
X148366309Y-99682380D01*
X149747261Y-98682380D02*
X149747261Y-99396666D01*
X149699642Y-99539523D01*
X149604404Y-99634761D01*
X149461547Y-99682380D01*
X149366309Y-99682380D01*
X150699642Y-98682380D02*
X150223452Y-98682380D01*
X150175833Y-99158571D01*
X150223452Y-99110952D01*
X150318690Y-99063333D01*
X150556785Y-99063333D01*
X150652023Y-99110952D01*
X150699642Y-99158571D01*
X150747261Y-99253809D01*
X150747261Y-99491904D01*
X150699642Y-99587142D01*
X150652023Y-99634761D01*
X150556785Y-99682380D01*
X150318690Y-99682380D01*
X150223452Y-99634761D01*
X150175833Y-99587142D01*
X151890119Y-98777619D02*
X151937738Y-98730000D01*
X152032976Y-98682380D01*
X152271071Y-98682380D01*
X152366309Y-98730000D01*
X152413928Y-98777619D01*
X152461547Y-98872857D01*
X152461547Y-98968095D01*
X152413928Y-99110952D01*
X151842499Y-99682380D01*
X152461547Y-99682380D01*
X152890119Y-99301428D02*
X153652023Y-99301428D01*
X154032976Y-98682380D02*
X154652023Y-98682380D01*
X154318690Y-99063333D01*
X154461547Y-99063333D01*
X154556785Y-99110952D01*
X154604404Y-99158571D01*
X154652023Y-99253809D01*
X154652023Y-99491904D01*
X154604404Y-99587142D01*
X154556785Y-99634761D01*
X154461547Y-99682380D01*
X154175833Y-99682380D01*
X154080595Y-99634761D01*
X154032976Y-99587142D01*
X147564285Y-104322619D02*
X147611904Y-104275000D01*
X147707142Y-104227380D01*
X147945238Y-104227380D01*
X148040476Y-104275000D01*
X148088095Y-104322619D01*
X148135714Y-104417857D01*
X148135714Y-104513095D01*
X148088095Y-104655952D01*
X147516666Y-105227380D01*
X148135714Y-105227380D01*
X148707142Y-104655952D02*
X148611904Y-104608333D01*
X148564285Y-104560714D01*
X148516666Y-104465476D01*
X148516666Y-104417857D01*
X148564285Y-104322619D01*
X148611904Y-104275000D01*
X148707142Y-104227380D01*
X148897619Y-104227380D01*
X148992857Y-104275000D01*
X149040476Y-104322619D01*
X149088095Y-104417857D01*
X149088095Y-104465476D01*
X149040476Y-104560714D01*
X148992857Y-104608333D01*
X148897619Y-104655952D01*
X148707142Y-104655952D01*
X148611904Y-104703571D01*
X148564285Y-104751190D01*
X148516666Y-104846428D01*
X148516666Y-105036904D01*
X148564285Y-105132142D01*
X148611904Y-105179761D01*
X148707142Y-105227380D01*
X148897619Y-105227380D01*
X148992857Y-105179761D01*
X149040476Y-105132142D01*
X149088095Y-105036904D01*
X149088095Y-104846428D01*
X149040476Y-104751190D01*
X148992857Y-104703571D01*
X148897619Y-104655952D01*
X150278571Y-104560714D02*
X150278571Y-105560714D01*
X150278571Y-104608333D02*
X150373809Y-104560714D01*
X150564285Y-104560714D01*
X150659523Y-104608333D01*
X150707142Y-104655952D01*
X150754761Y-104751190D01*
X150754761Y-105036904D01*
X150707142Y-105132142D01*
X150659523Y-105179761D01*
X150564285Y-105227380D01*
X150373809Y-105227380D01*
X150278571Y-105179761D01*
X151183333Y-105227380D02*
X151183333Y-104560714D01*
X151183333Y-104227380D02*
X151135714Y-104275000D01*
X151183333Y-104322619D01*
X151230952Y-104275000D01*
X151183333Y-104227380D01*
X151183333Y-104322619D01*
X151659523Y-104560714D02*
X151659523Y-105227380D01*
X151659523Y-104655952D02*
X151707142Y-104608333D01*
X151802380Y-104560714D01*
X151945238Y-104560714D01*
X152040476Y-104608333D01*
X152088095Y-104703571D01*
X152088095Y-105227380D01*
X147564285Y-110672619D02*
X147611904Y-110625000D01*
X147707142Y-110577380D01*
X147945238Y-110577380D01*
X148040476Y-110625000D01*
X148088095Y-110672619D01*
X148135714Y-110767857D01*
X148135714Y-110863095D01*
X148088095Y-111005952D01*
X147516666Y-111577380D01*
X148135714Y-111577380D01*
X148992857Y-110910714D02*
X148992857Y-111577380D01*
X148754761Y-110529761D02*
X148516666Y-111244047D01*
X149135714Y-111244047D01*
X150278571Y-110910714D02*
X150278571Y-111910714D01*
X150278571Y-110958333D02*
X150373809Y-110910714D01*
X150564285Y-110910714D01*
X150659523Y-110958333D01*
X150707142Y-111005952D01*
X150754761Y-111101190D01*
X150754761Y-111386904D01*
X150707142Y-111482142D01*
X150659523Y-111529761D01*
X150564285Y-111577380D01*
X150373809Y-111577380D01*
X150278571Y-111529761D01*
X151183333Y-111577380D02*
X151183333Y-110910714D01*
X151183333Y-110577380D02*
X151135714Y-110625000D01*
X151183333Y-110672619D01*
X151230952Y-110625000D01*
X151183333Y-110577380D01*
X151183333Y-110672619D01*
X151659523Y-110910714D02*
X151659523Y-111577380D01*
X151659523Y-111005952D02*
X151707142Y-110958333D01*
X151802380Y-110910714D01*
X151945238Y-110910714D01*
X152040476Y-110958333D01*
X152088095Y-111053571D01*
X152088095Y-111577380D01*
X133644047Y-134832380D02*
X133834523Y-134832380D01*
X133929761Y-134880000D01*
X134025000Y-134975238D01*
X134072619Y-135165714D01*
X134072619Y-135499047D01*
X134025000Y-135689523D01*
X133929761Y-135784761D01*
X133834523Y-135832380D01*
X133644047Y-135832380D01*
X133548809Y-135784761D01*
X133453571Y-135689523D01*
X133405952Y-135499047D01*
X133405952Y-135165714D01*
X133453571Y-134975238D01*
X133548809Y-134880000D01*
X133644047Y-134832380D01*
X135072619Y-135832380D02*
X134739285Y-135356190D01*
X134501190Y-135832380D02*
X134501190Y-134832380D01*
X134882142Y-134832380D01*
X134977380Y-134880000D01*
X135025000Y-134927619D01*
X135072619Y-135022857D01*
X135072619Y-135165714D01*
X135025000Y-135260952D01*
X134977380Y-135308571D01*
X134882142Y-135356190D01*
X134501190Y-135356190D01*
X136215476Y-134927619D02*
X136263095Y-134880000D01*
X136358333Y-134832380D01*
X136596428Y-134832380D01*
X136691666Y-134880000D01*
X136739285Y-134927619D01*
X136786904Y-135022857D01*
X136786904Y-135118095D01*
X136739285Y-135260952D01*
X136167857Y-135832380D01*
X136786904Y-135832380D01*
X137120238Y-134832380D02*
X137786904Y-134832380D01*
X137358333Y-135832380D01*
X138691666Y-135832380D02*
X138120238Y-135832380D01*
X138405952Y-135832380D02*
X138405952Y-134832380D01*
X138310714Y-134975238D01*
X138215476Y-135070476D01*
X138120238Y-135118095D01*
X139548809Y-134832380D02*
X139358333Y-134832380D01*
X139263095Y-134880000D01*
X139215476Y-134927619D01*
X139120238Y-135070476D01*
X139072619Y-135260952D01*
X139072619Y-135641904D01*
X139120238Y-135737142D01*
X139167857Y-135784761D01*
X139263095Y-135832380D01*
X139453571Y-135832380D01*
X139548809Y-135784761D01*
X139596428Y-135737142D01*
X139644047Y-135641904D01*
X139644047Y-135403809D01*
X139596428Y-135308571D01*
X139548809Y-135260952D01*
X139453571Y-135213333D01*
X139263095Y-135213333D01*
X139167857Y-135260952D01*
X139120238Y-135308571D01*
X139072619Y-135403809D01*
X133644047Y-136442380D02*
X133834523Y-136442380D01*
X133929761Y-136490000D01*
X134025000Y-136585238D01*
X134072619Y-136775714D01*
X134072619Y-137109047D01*
X134025000Y-137299523D01*
X133929761Y-137394761D01*
X133834523Y-137442380D01*
X133644047Y-137442380D01*
X133548809Y-137394761D01*
X133453571Y-137299523D01*
X133405952Y-137109047D01*
X133405952Y-136775714D01*
X133453571Y-136585238D01*
X133548809Y-136490000D01*
X133644047Y-136442380D01*
X135072619Y-137442380D02*
X134739285Y-136966190D01*
X134501190Y-137442380D02*
X134501190Y-136442380D01*
X134882142Y-136442380D01*
X134977380Y-136490000D01*
X135025000Y-136537619D01*
X135072619Y-136632857D01*
X135072619Y-136775714D01*
X135025000Y-136870952D01*
X134977380Y-136918571D01*
X134882142Y-136966190D01*
X134501190Y-136966190D01*
X136215476Y-136537619D02*
X136263095Y-136490000D01*
X136358333Y-136442380D01*
X136596428Y-136442380D01*
X136691666Y-136490000D01*
X136739285Y-136537619D01*
X136786904Y-136632857D01*
X136786904Y-136728095D01*
X136739285Y-136870952D01*
X136167857Y-137442380D01*
X136786904Y-137442380D01*
X137358333Y-136870952D02*
X137263095Y-136823333D01*
X137215476Y-136775714D01*
X137167857Y-136680476D01*
X137167857Y-136632857D01*
X137215476Y-136537619D01*
X137263095Y-136490000D01*
X137358333Y-136442380D01*
X137548809Y-136442380D01*
X137644047Y-136490000D01*
X137691666Y-136537619D01*
X137739285Y-136632857D01*
X137739285Y-136680476D01*
X137691666Y-136775714D01*
X137644047Y-136823333D01*
X137548809Y-136870952D01*
X137358333Y-136870952D01*
X137263095Y-136918571D01*
X137215476Y-136966190D01*
X137167857Y-137061428D01*
X137167857Y-137251904D01*
X137215476Y-137347142D01*
X137263095Y-137394761D01*
X137358333Y-137442380D01*
X137548809Y-137442380D01*
X137644047Y-137394761D01*
X137691666Y-137347142D01*
X137739285Y-137251904D01*
X137739285Y-137061428D01*
X137691666Y-136966190D01*
X137644047Y-136918571D01*
X137548809Y-136870952D01*
X138691666Y-137442380D02*
X138120238Y-137442380D01*
X138405952Y-137442380D02*
X138405952Y-136442380D01*
X138310714Y-136585238D01*
X138215476Y-136680476D01*
X138120238Y-136728095D01*
X139548809Y-136442380D02*
X139358333Y-136442380D01*
X139263095Y-136490000D01*
X139215476Y-136537619D01*
X139120238Y-136680476D01*
X139072619Y-136870952D01*
X139072619Y-137251904D01*
X139120238Y-137347142D01*
X139167857Y-137394761D01*
X139263095Y-137442380D01*
X139453571Y-137442380D01*
X139548809Y-137394761D01*
X139596428Y-137347142D01*
X139644047Y-137251904D01*
X139644047Y-137013809D01*
X139596428Y-136918571D01*
X139548809Y-136870952D01*
X139453571Y-136823333D01*
X139263095Y-136823333D01*
X139167857Y-136870952D01*
X139120238Y-136918571D01*
X139072619Y-137013809D01*
X133644047Y-138052380D02*
X133834523Y-138052380D01*
X133929761Y-138100000D01*
X134025000Y-138195238D01*
X134072619Y-138385714D01*
X134072619Y-138719047D01*
X134025000Y-138909523D01*
X133929761Y-139004761D01*
X133834523Y-139052380D01*
X133644047Y-139052380D01*
X133548809Y-139004761D01*
X133453571Y-138909523D01*
X133405952Y-138719047D01*
X133405952Y-138385714D01*
X133453571Y-138195238D01*
X133548809Y-138100000D01*
X133644047Y-138052380D01*
X135072619Y-139052380D02*
X134739285Y-138576190D01*
X134501190Y-139052380D02*
X134501190Y-138052380D01*
X134882142Y-138052380D01*
X134977380Y-138100000D01*
X135025000Y-138147619D01*
X135072619Y-138242857D01*
X135072619Y-138385714D01*
X135025000Y-138480952D01*
X134977380Y-138528571D01*
X134882142Y-138576190D01*
X134501190Y-138576190D01*
X136215476Y-138147619D02*
X136263095Y-138100000D01*
X136358333Y-138052380D01*
X136596428Y-138052380D01*
X136691666Y-138100000D01*
X136739285Y-138147619D01*
X136786904Y-138242857D01*
X136786904Y-138338095D01*
X136739285Y-138480952D01*
X136167857Y-139052380D01*
X136786904Y-139052380D01*
X137120238Y-138052380D02*
X137786904Y-138052380D01*
X137358333Y-139052380D01*
X138072619Y-138052380D02*
X138691666Y-138052380D01*
X138358333Y-138433333D01*
X138501190Y-138433333D01*
X138596428Y-138480952D01*
X138644047Y-138528571D01*
X138691666Y-138623809D01*
X138691666Y-138861904D01*
X138644047Y-138957142D01*
X138596428Y-139004761D01*
X138501190Y-139052380D01*
X138215476Y-139052380D01*
X138120238Y-139004761D01*
X138072619Y-138957142D01*
X139072619Y-138147619D02*
X139120238Y-138100000D01*
X139215476Y-138052380D01*
X139453571Y-138052380D01*
X139548809Y-138100000D01*
X139596428Y-138147619D01*
X139644047Y-138242857D01*
X139644047Y-138338095D01*
X139596428Y-138480952D01*
X139025000Y-139052380D01*
X139644047Y-139052380D01*
X133644047Y-139662380D02*
X133834523Y-139662380D01*
X133929761Y-139710000D01*
X134025000Y-139805238D01*
X134072619Y-139995714D01*
X134072619Y-140329047D01*
X134025000Y-140519523D01*
X133929761Y-140614761D01*
X133834523Y-140662380D01*
X133644047Y-140662380D01*
X133548809Y-140614761D01*
X133453571Y-140519523D01*
X133405952Y-140329047D01*
X133405952Y-139995714D01*
X133453571Y-139805238D01*
X133548809Y-139710000D01*
X133644047Y-139662380D01*
X135072619Y-140662380D02*
X134739285Y-140186190D01*
X134501190Y-140662380D02*
X134501190Y-139662380D01*
X134882142Y-139662380D01*
X134977380Y-139710000D01*
X135025000Y-139757619D01*
X135072619Y-139852857D01*
X135072619Y-139995714D01*
X135025000Y-140090952D01*
X134977380Y-140138571D01*
X134882142Y-140186190D01*
X134501190Y-140186190D01*
X136215476Y-139757619D02*
X136263095Y-139710000D01*
X136358333Y-139662380D01*
X136596428Y-139662380D01*
X136691666Y-139710000D01*
X136739285Y-139757619D01*
X136786904Y-139852857D01*
X136786904Y-139948095D01*
X136739285Y-140090952D01*
X136167857Y-140662380D01*
X136786904Y-140662380D01*
X137120238Y-139662380D02*
X137786904Y-139662380D01*
X137358333Y-140662380D01*
X138596428Y-139662380D02*
X138405952Y-139662380D01*
X138310714Y-139710000D01*
X138263095Y-139757619D01*
X138167857Y-139900476D01*
X138120238Y-140090952D01*
X138120238Y-140471904D01*
X138167857Y-140567142D01*
X138215476Y-140614761D01*
X138310714Y-140662380D01*
X138501190Y-140662380D01*
X138596428Y-140614761D01*
X138644047Y-140567142D01*
X138691666Y-140471904D01*
X138691666Y-140233809D01*
X138644047Y-140138571D01*
X138596428Y-140090952D01*
X138501190Y-140043333D01*
X138310714Y-140043333D01*
X138215476Y-140090952D01*
X138167857Y-140138571D01*
X138120238Y-140233809D01*
X139548809Y-139995714D02*
X139548809Y-140662380D01*
X139310714Y-139614761D02*
X139072619Y-140329047D01*
X139691666Y-140329047D01*
X124985714Y-148312142D02*
X124938095Y-148359761D01*
X124795238Y-148407380D01*
X124700000Y-148407380D01*
X124557142Y-148359761D01*
X124461904Y-148264523D01*
X124414285Y-148169285D01*
X124366666Y-147978809D01*
X124366666Y-147835952D01*
X124414285Y-147645476D01*
X124461904Y-147550238D01*
X124557142Y-147455000D01*
X124700000Y-147407380D01*
X124795238Y-147407380D01*
X124938095Y-147455000D01*
X124985714Y-147502619D01*
X125557142Y-148407380D02*
X125461904Y-148359761D01*
X125414285Y-148312142D01*
X125366666Y-148216904D01*
X125366666Y-147931190D01*
X125414285Y-147835952D01*
X125461904Y-147788333D01*
X125557142Y-147740714D01*
X125700000Y-147740714D01*
X125795238Y-147788333D01*
X125842857Y-147835952D01*
X125890476Y-147931190D01*
X125890476Y-148216904D01*
X125842857Y-148312142D01*
X125795238Y-148359761D01*
X125700000Y-148407380D01*
X125557142Y-148407380D01*
X126319047Y-147740714D02*
X126319047Y-148407380D01*
X126319047Y-147835952D02*
X126366666Y-147788333D01*
X126461904Y-147740714D01*
X126604761Y-147740714D01*
X126700000Y-147788333D01*
X126747619Y-147883571D01*
X126747619Y-148407380D01*
X127080952Y-147740714D02*
X127461904Y-147740714D01*
X127223809Y-147407380D02*
X127223809Y-148264523D01*
X127271428Y-148359761D01*
X127366666Y-148407380D01*
X127461904Y-148407380D01*
X127795238Y-148407380D02*
X127795238Y-147740714D01*
X127795238Y-147931190D02*
X127842857Y-147835952D01*
X127890476Y-147788333D01*
X127985714Y-147740714D01*
X128080952Y-147740714D01*
X128557142Y-148407380D02*
X128461904Y-148359761D01*
X128414285Y-148312142D01*
X128366666Y-148216904D01*
X128366666Y-147931190D01*
X128414285Y-147835952D01*
X128461904Y-147788333D01*
X128557142Y-147740714D01*
X128700000Y-147740714D01*
X128795238Y-147788333D01*
X128842857Y-147835952D01*
X128890476Y-147931190D01*
X128890476Y-148216904D01*
X128842857Y-148312142D01*
X128795238Y-148359761D01*
X128700000Y-148407380D01*
X128557142Y-148407380D01*
X129461904Y-148407380D02*
X129366666Y-148359761D01*
X129319047Y-148264523D01*
X129319047Y-147407380D01*
X129985714Y-148407380D02*
X129890476Y-148359761D01*
X129842857Y-148264523D01*
X129842857Y-147407380D01*
X130747619Y-148359761D02*
X130652380Y-148407380D01*
X130461904Y-148407380D01*
X130366666Y-148359761D01*
X130319047Y-148264523D01*
X130319047Y-147883571D01*
X130366666Y-147788333D01*
X130461904Y-147740714D01*
X130652380Y-147740714D01*
X130747619Y-147788333D01*
X130795238Y-147883571D01*
X130795238Y-147978809D01*
X130319047Y-148074047D01*
X131652380Y-148407380D02*
X131652380Y-147407380D01*
X131652380Y-148359761D02*
X131557142Y-148407380D01*
X131366666Y-148407380D01*
X131271428Y-148359761D01*
X131223809Y-148312142D01*
X131176190Y-148216904D01*
X131176190Y-147931190D01*
X131223809Y-147835952D01*
X131271428Y-147788333D01*
X131366666Y-147740714D01*
X131557142Y-147740714D01*
X131652380Y-147788333D01*
X132795238Y-147740714D02*
X133033333Y-148407380D01*
X133271428Y-147740714D01*
X133652380Y-148407380D02*
X133652380Y-147740714D01*
X133652380Y-147407380D02*
X133604761Y-147455000D01*
X133652380Y-147502619D01*
X133700000Y-147455000D01*
X133652380Y-147407380D01*
X133652380Y-147502619D01*
X134557142Y-148407380D02*
X134557142Y-147883571D01*
X134509523Y-147788333D01*
X134414285Y-147740714D01*
X134223809Y-147740714D01*
X134128571Y-147788333D01*
X134557142Y-148359761D02*
X134461904Y-148407380D01*
X134223809Y-148407380D01*
X134128571Y-148359761D01*
X134080952Y-148264523D01*
X134080952Y-148169285D01*
X134128571Y-148074047D01*
X134223809Y-148026428D01*
X134461904Y-148026428D01*
X134557142Y-147978809D01*
X135795238Y-148407380D02*
X135795238Y-147407380D01*
X135795238Y-147788333D02*
X135890476Y-147740714D01*
X136080952Y-147740714D01*
X136176190Y-147788333D01*
X136223809Y-147835952D01*
X136271428Y-147931190D01*
X136271428Y-148216904D01*
X136223809Y-148312142D01*
X136176190Y-148359761D01*
X136080952Y-148407380D01*
X135890476Y-148407380D01*
X135795238Y-148359761D01*
X137128571Y-147740714D02*
X137128571Y-148407380D01*
X136700000Y-147740714D02*
X136700000Y-148264523D01*
X136747619Y-148359761D01*
X136842857Y-148407380D01*
X136985714Y-148407380D01*
X137080952Y-148359761D01*
X137128571Y-148312142D01*
X137461904Y-147740714D02*
X137842857Y-147740714D01*
X137604761Y-147407380D02*
X137604761Y-148264523D01*
X137652380Y-148359761D01*
X137747619Y-148407380D01*
X137842857Y-148407380D01*
X138033333Y-147740714D02*
X138414285Y-147740714D01*
X138176190Y-147407380D02*
X138176190Y-148264523D01*
X138223809Y-148359761D01*
X138319047Y-148407380D01*
X138414285Y-148407380D01*
X138890476Y-148407380D02*
X138795238Y-148359761D01*
X138747619Y-148312142D01*
X138700000Y-148216904D01*
X138700000Y-147931190D01*
X138747619Y-147835952D01*
X138795238Y-147788333D01*
X138890476Y-147740714D01*
X139033333Y-147740714D01*
X139128571Y-147788333D01*
X139176190Y-147835952D01*
X139223809Y-147931190D01*
X139223809Y-148216904D01*
X139176190Y-148312142D01*
X139128571Y-148359761D01*
X139033333Y-148407380D01*
X138890476Y-148407380D01*
X139652380Y-147740714D02*
X139652380Y-148407380D01*
X139652380Y-147835952D02*
X139700000Y-147788333D01*
X139795238Y-147740714D01*
X139938095Y-147740714D01*
X140033333Y-147788333D01*
X140080952Y-147883571D01*
X140080952Y-148407380D01*
X141461904Y-148407380D02*
X141366666Y-148359761D01*
X141319047Y-148312142D01*
X141271428Y-148216904D01*
X141271428Y-147931190D01*
X141319047Y-147835952D01*
X141366666Y-147788333D01*
X141461904Y-147740714D01*
X141604761Y-147740714D01*
X141700000Y-147788333D01*
X141747619Y-147835952D01*
X141795238Y-147931190D01*
X141795238Y-148216904D01*
X141747619Y-148312142D01*
X141700000Y-148359761D01*
X141604761Y-148407380D01*
X141461904Y-148407380D01*
X142223809Y-148407380D02*
X142223809Y-147740714D01*
X142223809Y-147931190D02*
X142271428Y-147835952D01*
X142319047Y-147788333D01*
X142414285Y-147740714D01*
X142509523Y-147740714D01*
X143747619Y-148407380D02*
X143652380Y-148359761D01*
X143604761Y-148312142D01*
X143557142Y-148216904D01*
X143557142Y-147931190D01*
X143604761Y-147835952D01*
X143652380Y-147788333D01*
X143747619Y-147740714D01*
X143890476Y-147740714D01*
X143985714Y-147788333D01*
X144033333Y-147835952D01*
X144080952Y-147931190D01*
X144080952Y-148216904D01*
X144033333Y-148312142D01*
X143985714Y-148359761D01*
X143890476Y-148407380D01*
X143747619Y-148407380D01*
X144414285Y-147740714D02*
X144652380Y-148407380D01*
X144890476Y-147740714D01*
X145652380Y-148359761D02*
X145557142Y-148407380D01*
X145366666Y-148407380D01*
X145271428Y-148359761D01*
X145223809Y-148264523D01*
X145223809Y-147883571D01*
X145271428Y-147788333D01*
X145366666Y-147740714D01*
X145557142Y-147740714D01*
X145652380Y-147788333D01*
X145700000Y-147883571D01*
X145700000Y-147978809D01*
X145223809Y-148074047D01*
X146128571Y-148407380D02*
X146128571Y-147740714D01*
X146128571Y-147931190D02*
X146176190Y-147835952D01*
X146223809Y-147788333D01*
X146319047Y-147740714D01*
X146414285Y-147740714D01*
X147461904Y-148359761D02*
X147557142Y-148407380D01*
X147747619Y-148407380D01*
X147842857Y-148359761D01*
X147890476Y-148264523D01*
X147890476Y-148216904D01*
X147842857Y-148121666D01*
X147747619Y-148074047D01*
X147604761Y-148074047D01*
X147509523Y-148026428D01*
X147461904Y-147931190D01*
X147461904Y-147883571D01*
X147509523Y-147788333D01*
X147604761Y-147740714D01*
X147747619Y-147740714D01*
X147842857Y-147788333D01*
X148700000Y-148359761D02*
X148604761Y-148407380D01*
X148414285Y-148407380D01*
X148319047Y-148359761D01*
X148271428Y-148264523D01*
X148271428Y-147883571D01*
X148319047Y-147788333D01*
X148414285Y-147740714D01*
X148604761Y-147740714D01*
X148700000Y-147788333D01*
X148747619Y-147883571D01*
X148747619Y-147978809D01*
X148271428Y-148074047D01*
X149176190Y-148407380D02*
X149176190Y-147740714D01*
X149176190Y-147931190D02*
X149223809Y-147835952D01*
X149271428Y-147788333D01*
X149366666Y-147740714D01*
X149461904Y-147740714D01*
X149795238Y-148407380D02*
X149795238Y-147740714D01*
X149795238Y-147407380D02*
X149747619Y-147455000D01*
X149795238Y-147502619D01*
X149842857Y-147455000D01*
X149795238Y-147407380D01*
X149795238Y-147502619D01*
X150700000Y-148407380D02*
X150700000Y-147883571D01*
X150652380Y-147788333D01*
X150557142Y-147740714D01*
X150366666Y-147740714D01*
X150271428Y-147788333D01*
X150700000Y-148359761D02*
X150604761Y-148407380D01*
X150366666Y-148407380D01*
X150271428Y-148359761D01*
X150223809Y-148264523D01*
X150223809Y-148169285D01*
X150271428Y-148074047D01*
X150366666Y-148026428D01*
X150604761Y-148026428D01*
X150700000Y-147978809D01*
X151319047Y-148407380D02*
X151223809Y-148359761D01*
X151176190Y-148264523D01*
X151176190Y-147407380D01*
X152461904Y-147740714D02*
X152461904Y-148740714D01*
X152461904Y-147788333D02*
X152557142Y-147740714D01*
X152747619Y-147740714D01*
X152842857Y-147788333D01*
X152890476Y-147835952D01*
X152938095Y-147931190D01*
X152938095Y-148216904D01*
X152890476Y-148312142D01*
X152842857Y-148359761D01*
X152747619Y-148407380D01*
X152557142Y-148407380D01*
X152461904Y-148359761D01*
X153509523Y-148407380D02*
X153414285Y-148359761D01*
X153366666Y-148312142D01*
X153319047Y-148216904D01*
X153319047Y-147931190D01*
X153366666Y-147835952D01*
X153414285Y-147788333D01*
X153509523Y-147740714D01*
X153652380Y-147740714D01*
X153747619Y-147788333D01*
X153795238Y-147835952D01*
X153842857Y-147931190D01*
X153842857Y-148216904D01*
X153795238Y-148312142D01*
X153747619Y-148359761D01*
X153652380Y-148407380D01*
X153509523Y-148407380D01*
X154271428Y-148407380D02*
X154271428Y-147740714D01*
X154271428Y-147931190D02*
X154319047Y-147835952D01*
X154366666Y-147788333D01*
X154461904Y-147740714D01*
X154557142Y-147740714D01*
X154747619Y-147740714D02*
X155128571Y-147740714D01*
X154890476Y-147407380D02*
X154890476Y-148264523D01*
X154938095Y-148359761D01*
X155033333Y-148407380D01*
X155128571Y-148407380D01*
%TO.C,SW1*%
X88709666Y-146962761D02*
X88852523Y-147010380D01*
X89090619Y-147010380D01*
X89185857Y-146962761D01*
X89233476Y-146915142D01*
X89281095Y-146819904D01*
X89281095Y-146724666D01*
X89233476Y-146629428D01*
X89185857Y-146581809D01*
X89090619Y-146534190D01*
X88900142Y-146486571D01*
X88804904Y-146438952D01*
X88757285Y-146391333D01*
X88709666Y-146296095D01*
X88709666Y-146200857D01*
X88757285Y-146105619D01*
X88804904Y-146058000D01*
X88900142Y-146010380D01*
X89138238Y-146010380D01*
X89281095Y-146058000D01*
X89614428Y-146010380D02*
X89852523Y-147010380D01*
X90043000Y-146296095D01*
X90233476Y-147010380D01*
X90471571Y-146010380D01*
X91376333Y-147010380D02*
X90804904Y-147010380D01*
X91090619Y-147010380D02*
X91090619Y-146010380D01*
X90995380Y-146153238D01*
X90900142Y-146248476D01*
X90804904Y-146296095D01*
%TO.C,U4*%
X111628095Y-99147380D02*
X111628095Y-99956904D01*
X111675714Y-100052142D01*
X111723333Y-100099761D01*
X111818571Y-100147380D01*
X112009047Y-100147380D01*
X112104285Y-100099761D01*
X112151904Y-100052142D01*
X112199523Y-99956904D01*
X112199523Y-99147380D01*
X113104285Y-99480714D02*
X113104285Y-100147380D01*
X112866190Y-99099761D02*
X112628095Y-99814047D01*
X113247142Y-99814047D01*
X105913809Y-149472380D02*
X105913809Y-148472380D01*
X106294761Y-148472380D01*
X106390000Y-148520000D01*
X106437619Y-148567619D01*
X106485238Y-148662857D01*
X106485238Y-148805714D01*
X106437619Y-148900952D01*
X106390000Y-148948571D01*
X106294761Y-148996190D01*
X105913809Y-148996190D01*
X106913809Y-149472380D02*
X106913809Y-148472380D01*
X107961428Y-149377142D02*
X107913809Y-149424761D01*
X107770952Y-149472380D01*
X107675714Y-149472380D01*
X107532857Y-149424761D01*
X107437619Y-149329523D01*
X107390000Y-149234285D01*
X107342380Y-149043809D01*
X107342380Y-148900952D01*
X107390000Y-148710476D01*
X107437619Y-148615238D01*
X107532857Y-148520000D01*
X107675714Y-148472380D01*
X107770952Y-148472380D01*
X107913809Y-148520000D01*
X107961428Y-148567619D01*
X108294761Y-148472380D02*
X108961428Y-148472380D01*
X108532857Y-149472380D01*
X109532857Y-148472380D02*
X109628095Y-148472380D01*
X109723333Y-148520000D01*
X109770952Y-148567619D01*
X109818571Y-148662857D01*
X109866190Y-148853333D01*
X109866190Y-149091428D01*
X109818571Y-149281904D01*
X109770952Y-149377142D01*
X109723333Y-149424761D01*
X109628095Y-149472380D01*
X109532857Y-149472380D01*
X109437619Y-149424761D01*
X109390000Y-149377142D01*
X109342380Y-149281904D01*
X109294761Y-149091428D01*
X109294761Y-148853333D01*
X109342380Y-148662857D01*
X109390000Y-148567619D01*
X109437619Y-148520000D01*
X109532857Y-148472380D01*
X110199523Y-149472380D02*
X110723333Y-148805714D01*
X110199523Y-148805714D02*
X110723333Y-149472380D01*
X111009047Y-149472380D02*
X111532857Y-148805714D01*
X111009047Y-148805714D02*
X111532857Y-149472380D01*
X112628095Y-148424761D02*
X111770952Y-149710476D01*
X112818571Y-148472380D02*
X113390000Y-148472380D01*
X113104285Y-149472380D02*
X113104285Y-148472380D01*
X113723333Y-149472380D02*
X113723333Y-148472380D01*
X114056666Y-149186666D01*
X114390000Y-148472380D01*
X114390000Y-149472380D01*
X114818571Y-149424761D02*
X114961428Y-149472380D01*
X115199523Y-149472380D01*
X115294761Y-149424761D01*
X115342380Y-149377142D01*
X115390000Y-149281904D01*
X115390000Y-149186666D01*
X115342380Y-149091428D01*
X115294761Y-149043809D01*
X115199523Y-148996190D01*
X115009047Y-148948571D01*
X114913809Y-148900952D01*
X114866190Y-148853333D01*
X114818571Y-148758095D01*
X114818571Y-148662857D01*
X114866190Y-148567619D01*
X114913809Y-148520000D01*
X115009047Y-148472380D01*
X115247142Y-148472380D01*
X115390000Y-148520000D01*
X115723333Y-148472380D02*
X116390000Y-148472380D01*
X115961428Y-149472380D01*
X116961428Y-148472380D02*
X117056666Y-148472380D01*
X117151904Y-148520000D01*
X117199523Y-148567619D01*
X117247142Y-148662857D01*
X117294761Y-148853333D01*
X117294761Y-149091428D01*
X117247142Y-149281904D01*
X117199523Y-149377142D01*
X117151904Y-149424761D01*
X117056666Y-149472380D01*
X116961428Y-149472380D01*
X116866190Y-149424761D01*
X116818571Y-149377142D01*
X116770952Y-149281904D01*
X116723333Y-149091428D01*
X116723333Y-148853333D01*
X116770952Y-148662857D01*
X116818571Y-148567619D01*
X116866190Y-148520000D01*
X116961428Y-148472380D01*
X117628095Y-149472380D02*
X118151904Y-148805714D01*
X117628095Y-148805714D02*
X118151904Y-149472380D01*
X118437619Y-149472380D02*
X118961428Y-148805714D01*
X118437619Y-148805714D02*
X118961428Y-149472380D01*
%TO.C,A1*%
X84756714Y-125007666D02*
X85232904Y-125007666D01*
X84661476Y-125293380D02*
X84994809Y-124293380D01*
X85328142Y-125293380D01*
X86185285Y-125293380D02*
X85613857Y-125293380D01*
X85899571Y-125293380D02*
X85899571Y-124293380D01*
X85804333Y-124436238D01*
X85709095Y-124531476D01*
X85613857Y-124579095D01*
%TO.C,J2*%
X97512476Y-139212142D02*
X97464857Y-139259761D01*
X97322000Y-139307380D01*
X97226761Y-139307380D01*
X97083904Y-139259761D01*
X96988666Y-139164523D01*
X96941047Y-139069285D01*
X96893428Y-138878809D01*
X96893428Y-138735952D01*
X96941047Y-138545476D01*
X96988666Y-138450238D01*
X97083904Y-138355000D01*
X97226761Y-138307380D01*
X97322000Y-138307380D01*
X97464857Y-138355000D01*
X97512476Y-138402619D01*
X98083904Y-139307380D02*
X97988666Y-139259761D01*
X97941047Y-139164523D01*
X97941047Y-138307380D01*
X98607714Y-139307380D02*
X98512476Y-139259761D01*
X98464857Y-139212142D01*
X98417238Y-139116904D01*
X98417238Y-138831190D01*
X98464857Y-138735952D01*
X98512476Y-138688333D01*
X98607714Y-138640714D01*
X98750571Y-138640714D01*
X98845809Y-138688333D01*
X98893428Y-138735952D01*
X98941047Y-138831190D01*
X98941047Y-139116904D01*
X98893428Y-139212142D01*
X98845809Y-139259761D01*
X98750571Y-139307380D01*
X98607714Y-139307380D01*
X99798190Y-139259761D02*
X99702952Y-139307380D01*
X99512476Y-139307380D01*
X99417238Y-139259761D01*
X99369619Y-139212142D01*
X99322000Y-139116904D01*
X99322000Y-138831190D01*
X99369619Y-138735952D01*
X99417238Y-138688333D01*
X99512476Y-138640714D01*
X99702952Y-138640714D01*
X99798190Y-138688333D01*
X100226761Y-139307380D02*
X100226761Y-138307380D01*
X100322000Y-138926428D02*
X100607714Y-139307380D01*
X100607714Y-138640714D02*
X100226761Y-139021666D01*
X101798190Y-139307380D02*
X101798190Y-138307380D01*
X102274380Y-138640714D02*
X102274380Y-139307380D01*
X102274380Y-138735952D02*
X102322000Y-138688333D01*
X102417238Y-138640714D01*
X102560095Y-138640714D01*
X102655333Y-138688333D01*
X102702952Y-138783571D01*
X102702952Y-139307380D01*
%TO.C,R1*%
X101052333Y-141168380D02*
X100719000Y-140692190D01*
X100480904Y-141168380D02*
X100480904Y-140168380D01*
X100861857Y-140168380D01*
X100957095Y-140216000D01*
X101004714Y-140263619D01*
X101052333Y-140358857D01*
X101052333Y-140501714D01*
X101004714Y-140596952D01*
X100957095Y-140644571D01*
X100861857Y-140692190D01*
X100480904Y-140692190D01*
X102004714Y-141168380D02*
X101433285Y-141168380D01*
X101719000Y-141168380D02*
X101719000Y-140168380D01*
X101623761Y-140311238D01*
X101528523Y-140406476D01*
X101433285Y-140454095D01*
X101607952Y-142692380D02*
X101036523Y-142692380D01*
X101322238Y-142692380D02*
X101322238Y-141692380D01*
X101227000Y-141835238D01*
X101131761Y-141930476D01*
X101036523Y-141978095D01*
X102036523Y-142692380D02*
X102036523Y-141692380D01*
X102131761Y-142311428D02*
X102417476Y-142692380D01*
X102417476Y-142025714D02*
X102036523Y-142406666D01*
%TO.C,J1*%
X98075952Y-133179761D02*
X97218809Y-134465476D01*
X98980714Y-134227380D02*
X98647380Y-133751190D01*
X98409285Y-134227380D02*
X98409285Y-133227380D01*
X98790238Y-133227380D01*
X98885476Y-133275000D01*
X98933095Y-133322619D01*
X98980714Y-133417857D01*
X98980714Y-133560714D01*
X98933095Y-133655952D01*
X98885476Y-133703571D01*
X98790238Y-133751190D01*
X98409285Y-133751190D01*
X99790238Y-134179761D02*
X99695000Y-134227380D01*
X99504523Y-134227380D01*
X99409285Y-134179761D01*
X99361666Y-134084523D01*
X99361666Y-133703571D01*
X99409285Y-133608333D01*
X99504523Y-133560714D01*
X99695000Y-133560714D01*
X99790238Y-133608333D01*
X99837857Y-133703571D01*
X99837857Y-133798809D01*
X99361666Y-133894047D01*
X100218809Y-134179761D02*
X100314047Y-134227380D01*
X100504523Y-134227380D01*
X100599761Y-134179761D01*
X100647380Y-134084523D01*
X100647380Y-134036904D01*
X100599761Y-133941666D01*
X100504523Y-133894047D01*
X100361666Y-133894047D01*
X100266428Y-133846428D01*
X100218809Y-133751190D01*
X100218809Y-133703571D01*
X100266428Y-133608333D01*
X100361666Y-133560714D01*
X100504523Y-133560714D01*
X100599761Y-133608333D01*
X101456904Y-134179761D02*
X101361666Y-134227380D01*
X101171190Y-134227380D01*
X101075952Y-134179761D01*
X101028333Y-134084523D01*
X101028333Y-133703571D01*
X101075952Y-133608333D01*
X101171190Y-133560714D01*
X101361666Y-133560714D01*
X101456904Y-133608333D01*
X101504523Y-133703571D01*
X101504523Y-133798809D01*
X101028333Y-133894047D01*
X101790238Y-133560714D02*
X102171190Y-133560714D01*
X101933095Y-133227380D02*
X101933095Y-134084523D01*
X101980714Y-134179761D01*
X102075952Y-134227380D01*
X102171190Y-134227380D01*
%TO.C,J11*%
X99075952Y-119574761D02*
X99171190Y-119622380D01*
X99361666Y-119622380D01*
X99456904Y-119574761D01*
X99504523Y-119479523D01*
X99504523Y-119431904D01*
X99456904Y-119336666D01*
X99361666Y-119289047D01*
X99218809Y-119289047D01*
X99123571Y-119241428D01*
X99075952Y-119146190D01*
X99075952Y-119098571D01*
X99123571Y-119003333D01*
X99218809Y-118955714D01*
X99361666Y-118955714D01*
X99456904Y-119003333D01*
X99885476Y-119574761D02*
X99980714Y-119622380D01*
X100171190Y-119622380D01*
X100266428Y-119574761D01*
X100314047Y-119479523D01*
X100314047Y-119431904D01*
X100266428Y-119336666D01*
X100171190Y-119289047D01*
X100028333Y-119289047D01*
X99933095Y-119241428D01*
X99885476Y-119146190D01*
X99885476Y-119098571D01*
X99933095Y-119003333D01*
X100028333Y-118955714D01*
X100171190Y-118955714D01*
X100266428Y-119003333D01*
%TO.C,U2*%
X149723095Y-120102380D02*
X149723095Y-120911904D01*
X149770714Y-121007142D01*
X149818333Y-121054761D01*
X149913571Y-121102380D01*
X150104047Y-121102380D01*
X150199285Y-121054761D01*
X150246904Y-121007142D01*
X150294523Y-120911904D01*
X150294523Y-120102380D01*
X150723095Y-120197619D02*
X150770714Y-120150000D01*
X150865952Y-120102380D01*
X151104047Y-120102380D01*
X151199285Y-120150000D01*
X151246904Y-120197619D01*
X151294523Y-120292857D01*
X151294523Y-120388095D01*
X151246904Y-120530952D01*
X150675476Y-121102380D01*
X151294523Y-121102380D01*
X133453571Y-133802380D02*
X133453571Y-132802380D01*
X133691666Y-132802380D01*
X133834523Y-132850000D01*
X133929761Y-132945238D01*
X133977380Y-133040476D01*
X134025000Y-133230952D01*
X134025000Y-133373809D01*
X133977380Y-133564285D01*
X133929761Y-133659523D01*
X133834523Y-133754761D01*
X133691666Y-133802380D01*
X133453571Y-133802380D01*
X134405952Y-133754761D02*
X134548809Y-133802380D01*
X134786904Y-133802380D01*
X134882142Y-133754761D01*
X134929761Y-133707142D01*
X134977380Y-133611904D01*
X134977380Y-133516666D01*
X134929761Y-133421428D01*
X134882142Y-133373809D01*
X134786904Y-133326190D01*
X134596428Y-133278571D01*
X134501190Y-133230952D01*
X134453571Y-133183333D01*
X134405952Y-133088095D01*
X134405952Y-132992857D01*
X134453571Y-132897619D01*
X134501190Y-132850000D01*
X134596428Y-132802380D01*
X134834523Y-132802380D01*
X134977380Y-132850000D01*
X135929761Y-133802380D02*
X135358333Y-133802380D01*
X135644047Y-133802380D02*
X135644047Y-132802380D01*
X135548809Y-132945238D01*
X135453571Y-133040476D01*
X135358333Y-133088095D01*
X136310714Y-132897619D02*
X136358333Y-132850000D01*
X136453571Y-132802380D01*
X136691666Y-132802380D01*
X136786904Y-132850000D01*
X136834523Y-132897619D01*
X136882142Y-132992857D01*
X136882142Y-133088095D01*
X136834523Y-133230952D01*
X136263095Y-133802380D01*
X136882142Y-133802380D01*
X137263095Y-132897619D02*
X137310714Y-132850000D01*
X137405952Y-132802380D01*
X137644047Y-132802380D01*
X137739285Y-132850000D01*
X137786904Y-132897619D01*
X137834523Y-132992857D01*
X137834523Y-133088095D01*
X137786904Y-133230952D01*
X137215476Y-133802380D01*
X137834523Y-133802380D01*
X138739285Y-132802380D02*
X138263095Y-132802380D01*
X138215476Y-133278571D01*
X138263095Y-133230952D01*
X138358333Y-133183333D01*
X138596428Y-133183333D01*
X138691666Y-133230952D01*
X138739285Y-133278571D01*
X138786904Y-133373809D01*
X138786904Y-133611904D01*
X138739285Y-133707142D01*
X138691666Y-133754761D01*
X138596428Y-133802380D01*
X138358333Y-133802380D01*
X138263095Y-133754761D01*
X138215476Y-133707142D01*
X139405952Y-133326190D02*
X139405952Y-133802380D01*
X139072619Y-132802380D02*
X139405952Y-133326190D01*
X139739285Y-132802380D01*
%TO.C,J4*%
X98385476Y-113859761D02*
X98290238Y-113907380D01*
X98099761Y-113907380D01*
X98004523Y-113859761D01*
X97956904Y-113812142D01*
X97909285Y-113716904D01*
X97909285Y-113431190D01*
X97956904Y-113335952D01*
X98004523Y-113288333D01*
X98099761Y-113240714D01*
X98290238Y-113240714D01*
X98385476Y-113288333D01*
X98956904Y-113907380D02*
X98861666Y-113859761D01*
X98814047Y-113764523D01*
X98814047Y-112907380D01*
X99480714Y-113907380D02*
X99385476Y-113859761D01*
X99337857Y-113812142D01*
X99290238Y-113716904D01*
X99290238Y-113431190D01*
X99337857Y-113335952D01*
X99385476Y-113288333D01*
X99480714Y-113240714D01*
X99623571Y-113240714D01*
X99718809Y-113288333D01*
X99766428Y-113335952D01*
X99814047Y-113431190D01*
X99814047Y-113716904D01*
X99766428Y-113812142D01*
X99718809Y-113859761D01*
X99623571Y-113907380D01*
X99480714Y-113907380D01*
X100671190Y-113859761D02*
X100575952Y-113907380D01*
X100385476Y-113907380D01*
X100290238Y-113859761D01*
X100242619Y-113812142D01*
X100195000Y-113716904D01*
X100195000Y-113431190D01*
X100242619Y-113335952D01*
X100290238Y-113288333D01*
X100385476Y-113240714D01*
X100575952Y-113240714D01*
X100671190Y-113288333D01*
X101099761Y-113907380D02*
X101099761Y-112907380D01*
X101195000Y-113526428D02*
X101480714Y-113907380D01*
X101480714Y-113240714D02*
X101099761Y-113621666D01*
%TO.C,C1*%
X125452142Y-140441666D02*
X125499761Y-140489285D01*
X125547380Y-140632142D01*
X125547380Y-140727380D01*
X125499761Y-140870238D01*
X125404523Y-140965476D01*
X125309285Y-141013095D01*
X125118809Y-141060714D01*
X124975952Y-141060714D01*
X124785476Y-141013095D01*
X124690238Y-140965476D01*
X124595000Y-140870238D01*
X124547380Y-140727380D01*
X124547380Y-140632142D01*
X124595000Y-140489285D01*
X124642619Y-140441666D01*
X125547380Y-139489285D02*
X125547380Y-140060714D01*
X125547380Y-139775000D02*
X124547380Y-139775000D01*
X124690238Y-139870238D01*
X124785476Y-139965476D01*
X124833095Y-140060714D01*
X127087380Y-141917857D02*
X127087380Y-141822619D01*
X127135000Y-141727380D01*
X127182619Y-141679761D01*
X127277857Y-141632142D01*
X127468333Y-141584523D01*
X127706428Y-141584523D01*
X127896904Y-141632142D01*
X127992142Y-141679761D01*
X128039761Y-141727380D01*
X128087380Y-141822619D01*
X128087380Y-141917857D01*
X128039761Y-142013095D01*
X127992142Y-142060714D01*
X127896904Y-142108333D01*
X127706428Y-142155952D01*
X127468333Y-142155952D01*
X127277857Y-142108333D01*
X127182619Y-142060714D01*
X127135000Y-142013095D01*
X127087380Y-141917857D01*
X127992142Y-141155952D02*
X128039761Y-141108333D01*
X128087380Y-141155952D01*
X128039761Y-141203571D01*
X127992142Y-141155952D01*
X128087380Y-141155952D01*
X128087380Y-140155952D02*
X128087380Y-140727380D01*
X128087380Y-140441666D02*
X127087380Y-140441666D01*
X127230238Y-140536904D01*
X127325476Y-140632142D01*
X127373095Y-140727380D01*
X127420714Y-139298809D02*
X128087380Y-139298809D01*
X127420714Y-139727380D02*
X127944523Y-139727380D01*
X128039761Y-139679761D01*
X128087380Y-139584523D01*
X128087380Y-139441666D01*
X128039761Y-139346428D01*
X127992142Y-139298809D01*
X127563571Y-138489285D02*
X127563571Y-138822619D01*
X128087380Y-138822619D02*
X127087380Y-138822619D01*
X127087380Y-138346428D01*
%TO.C,U3*%
X128778095Y-116922380D02*
X128778095Y-117731904D01*
X128825714Y-117827142D01*
X128873333Y-117874761D01*
X128968571Y-117922380D01*
X129159047Y-117922380D01*
X129254285Y-117874761D01*
X129301904Y-117827142D01*
X129349523Y-117731904D01*
X129349523Y-116922380D01*
X129730476Y-116922380D02*
X130349523Y-116922380D01*
X130016190Y-117303333D01*
X130159047Y-117303333D01*
X130254285Y-117350952D01*
X130301904Y-117398571D01*
X130349523Y-117493809D01*
X130349523Y-117731904D01*
X130301904Y-117827142D01*
X130254285Y-117874761D01*
X130159047Y-117922380D01*
X129873333Y-117922380D01*
X129778095Y-117874761D01*
X129730476Y-117827142D01*
X125897142Y-130687380D02*
X126563809Y-130687380D01*
X126135238Y-131687380D01*
X127373333Y-131020714D02*
X127373333Y-131687380D01*
X127135238Y-130639761D02*
X126897142Y-131354047D01*
X127516190Y-131354047D01*
X127897142Y-131687380D02*
X127897142Y-130687380D01*
X127897142Y-131163571D02*
X128468571Y-131163571D01*
X128468571Y-131687380D02*
X128468571Y-130687380D01*
X129516190Y-131592142D02*
X129468571Y-131639761D01*
X129325714Y-131687380D01*
X129230476Y-131687380D01*
X129087619Y-131639761D01*
X128992380Y-131544523D01*
X128944761Y-131449285D01*
X128897142Y-131258809D01*
X128897142Y-131115952D01*
X128944761Y-130925476D01*
X128992380Y-130830238D01*
X129087619Y-130735000D01*
X129230476Y-130687380D01*
X129325714Y-130687380D01*
X129468571Y-130735000D01*
X129516190Y-130782619D01*
X129801904Y-130687380D02*
X130373333Y-130687380D01*
X130087619Y-131687380D02*
X130087619Y-130687380D01*
X130611428Y-130687380D02*
X131230476Y-130687380D01*
X130897142Y-131068333D01*
X131040000Y-131068333D01*
X131135238Y-131115952D01*
X131182857Y-131163571D01*
X131230476Y-131258809D01*
X131230476Y-131496904D01*
X131182857Y-131592142D01*
X131135238Y-131639761D01*
X131040000Y-131687380D01*
X130754285Y-131687380D01*
X130659047Y-131639761D01*
X130611428Y-131592142D01*
X131563809Y-130687380D02*
X132230476Y-130687380D01*
X131801904Y-131687380D01*
X132516190Y-130687380D02*
X133135238Y-130687380D01*
X132801904Y-131068333D01*
X132944761Y-131068333D01*
X133040000Y-131115952D01*
X133087619Y-131163571D01*
X133135238Y-131258809D01*
X133135238Y-131496904D01*
X133087619Y-131592142D01*
X133040000Y-131639761D01*
X132944761Y-131687380D01*
X132659047Y-131687380D01*
X132563809Y-131639761D01*
X132516190Y-131592142D01*
%TO.C,J3*%
X98718809Y-108827380D02*
X98718809Y-107827380D01*
X98718809Y-108779761D02*
X98623571Y-108827380D01*
X98433095Y-108827380D01*
X98337857Y-108779761D01*
X98290238Y-108732142D01*
X98242619Y-108636904D01*
X98242619Y-108351190D01*
X98290238Y-108255952D01*
X98337857Y-108208333D01*
X98433095Y-108160714D01*
X98623571Y-108160714D01*
X98718809Y-108208333D01*
X99623571Y-108827380D02*
X99623571Y-108303571D01*
X99575952Y-108208333D01*
X99480714Y-108160714D01*
X99290238Y-108160714D01*
X99195000Y-108208333D01*
X99623571Y-108779761D02*
X99528333Y-108827380D01*
X99290238Y-108827380D01*
X99195000Y-108779761D01*
X99147380Y-108684523D01*
X99147380Y-108589285D01*
X99195000Y-108494047D01*
X99290238Y-108446428D01*
X99528333Y-108446428D01*
X99623571Y-108398809D01*
X99956904Y-108160714D02*
X100337857Y-108160714D01*
X100099761Y-107827380D02*
X100099761Y-108684523D01*
X100147380Y-108779761D01*
X100242619Y-108827380D01*
X100337857Y-108827380D01*
X101099761Y-108827380D02*
X101099761Y-108303571D01*
X101052142Y-108208333D01*
X100956904Y-108160714D01*
X100766428Y-108160714D01*
X100671190Y-108208333D01*
X101099761Y-108779761D02*
X101004523Y-108827380D01*
X100766428Y-108827380D01*
X100671190Y-108779761D01*
X100623571Y-108684523D01*
X100623571Y-108589285D01*
X100671190Y-108494047D01*
X100766428Y-108446428D01*
X101004523Y-108446428D01*
X101099761Y-108398809D01*
%TO.C,J5*%
X160946666Y-111422380D02*
X160946666Y-112136666D01*
X160899047Y-112279523D01*
X160803809Y-112374761D01*
X160660952Y-112422380D01*
X160565714Y-112422380D01*
X161899047Y-111422380D02*
X161422857Y-111422380D01*
X161375238Y-111898571D01*
X161422857Y-111850952D01*
X161518095Y-111803333D01*
X161756190Y-111803333D01*
X161851428Y-111850952D01*
X161899047Y-111898571D01*
X161946666Y-111993809D01*
X161946666Y-112231904D01*
X161899047Y-112327142D01*
X161851428Y-112374761D01*
X161756190Y-112422380D01*
X161518095Y-112422380D01*
X161422857Y-112374761D01*
X161375238Y-112327142D01*
%TO.C,R2*%
X124277380Y-102176666D02*
X123801190Y-102510000D01*
X124277380Y-102748095D02*
X123277380Y-102748095D01*
X123277380Y-102367142D01*
X123325000Y-102271904D01*
X123372619Y-102224285D01*
X123467857Y-102176666D01*
X123610714Y-102176666D01*
X123705952Y-102224285D01*
X123753571Y-102271904D01*
X123801190Y-102367142D01*
X123801190Y-102748095D01*
X123372619Y-101795714D02*
X123325000Y-101748095D01*
X123277380Y-101652857D01*
X123277380Y-101414761D01*
X123325000Y-101319523D01*
X123372619Y-101271904D01*
X123467857Y-101224285D01*
X123563095Y-101224285D01*
X123705952Y-101271904D01*
X124277380Y-101843333D01*
X124277380Y-101224285D01*
X121705714Y-102303571D02*
X122372380Y-102303571D01*
X121324761Y-102541666D02*
X122039047Y-102779761D01*
X122039047Y-102160714D01*
X122277142Y-101779761D02*
X122324761Y-101732142D01*
X122372380Y-101779761D01*
X122324761Y-101827380D01*
X122277142Y-101779761D01*
X122372380Y-101779761D01*
X121372380Y-101398809D02*
X121372380Y-100732142D01*
X122372380Y-101160714D01*
X122372380Y-100351190D02*
X121372380Y-100351190D01*
X121991428Y-100255952D02*
X122372380Y-99970238D01*
X121705714Y-99970238D02*
X122086666Y-100351190D01*
%TO.C,C2*%
X84304142Y-145200666D02*
X84351761Y-145248285D01*
X84399380Y-145391142D01*
X84399380Y-145486380D01*
X84351761Y-145629238D01*
X84256523Y-145724476D01*
X84161285Y-145772095D01*
X83970809Y-145819714D01*
X83827952Y-145819714D01*
X83637476Y-145772095D01*
X83542238Y-145724476D01*
X83447000Y-145629238D01*
X83399380Y-145486380D01*
X83399380Y-145391142D01*
X83447000Y-145248285D01*
X83494619Y-145200666D01*
X83494619Y-144819714D02*
X83447000Y-144772095D01*
X83399380Y-144676857D01*
X83399380Y-144438761D01*
X83447000Y-144343523D01*
X83494619Y-144295904D01*
X83589857Y-144248285D01*
X83685095Y-144248285D01*
X83827952Y-144295904D01*
X84399380Y-144867333D01*
X84399380Y-144248285D01*
X82113380Y-146645238D02*
X82113380Y-147216666D01*
X82113380Y-146930952D02*
X81113380Y-146930952D01*
X81256238Y-147026190D01*
X81351476Y-147121428D01*
X81399095Y-147216666D01*
X81446714Y-146216666D02*
X82113380Y-146216666D01*
X81541952Y-146216666D02*
X81494333Y-146169047D01*
X81446714Y-146073809D01*
X81446714Y-145930952D01*
X81494333Y-145835714D01*
X81589571Y-145788095D01*
X82113380Y-145788095D01*
X81589571Y-144978571D02*
X81589571Y-145311904D01*
X82113380Y-145311904D02*
X81113380Y-145311904D01*
X81113380Y-144835714D01*
D11*
%TO.C,SW1*%
X93013000Y-143438000D02*
X87073000Y-143438000D01*
X93163000Y-145218000D02*
X93163000Y-147898000D01*
X93013000Y-149678000D02*
X87073000Y-149678000D01*
X86923000Y-147898000D02*
X86923000Y-145218000D01*
X91457214Y-146558000D02*
G75*
G03*
X91457214Y-146558000I-1414214J0D01*
G01*
%TO.C,U4*%
X118850000Y-97100000D02*
X113390000Y-97100000D01*
X105930000Y-148020000D02*
X118850000Y-148020000D01*
X118850000Y-148020000D02*
X118850000Y-97100000D01*
X105930000Y-97100000D02*
X105930000Y-148020000D01*
X111390000Y-97100000D02*
X105930000Y-97100000D01*
X111390000Y-97100000D02*
G75*
G03*
X113390000Y-97100000I1000000J0D01*
G01*
%TO.C,G\u002A\u002A\u002A*%
G36*
X100023295Y-101033486D02*
G01*
X100060683Y-101041594D01*
X100088158Y-101054421D01*
X100108720Y-101067129D01*
X100096520Y-101083784D01*
X100085374Y-101098055D01*
X100070083Y-101116505D01*
X100060309Y-101127863D01*
X100036297Y-101155286D01*
X100016512Y-101145054D01*
X99991575Y-101137096D01*
X99962885Y-101135181D01*
X99935775Y-101139232D01*
X99919180Y-101146468D01*
X99908270Y-101153898D01*
X99899622Y-101161178D01*
X99892943Y-101169801D01*
X99887940Y-101181263D01*
X99884320Y-101197055D01*
X99881791Y-101218674D01*
X99880058Y-101247612D01*
X99878830Y-101285364D01*
X99877813Y-101333424D01*
X99877326Y-101359878D01*
X99874200Y-101531796D01*
X99822625Y-101533611D01*
X99771050Y-101535427D01*
X99771050Y-101034293D01*
X99822625Y-101036108D01*
X99874200Y-101037924D01*
X99877326Y-101062400D01*
X99879804Y-101077413D01*
X99882912Y-101081819D01*
X99888185Y-101077481D01*
X99888969Y-101076542D01*
X99914175Y-101055131D01*
X99946995Y-101040593D01*
X99984384Y-101033265D01*
X100023295Y-101033486D01*
G37*
G36*
X97930604Y-101826084D02*
G01*
X97944038Y-101831643D01*
X97961721Y-101840697D01*
X97973637Y-101848371D01*
X97976859Y-101852103D01*
X97973110Y-101858956D01*
X97963104Y-101872800D01*
X97948699Y-101891116D01*
X97942211Y-101899025D01*
X97907564Y-101940766D01*
X97887510Y-101928539D01*
X97858073Y-101917323D01*
X97827339Y-101917030D01*
X97798211Y-101926808D01*
X97773596Y-101945807D01*
X97759618Y-101966039D01*
X97755326Y-101975062D01*
X97752009Y-101984136D01*
X97749541Y-101994943D01*
X97747797Y-102009165D01*
X97746651Y-102028483D01*
X97745980Y-102054579D01*
X97745657Y-102089135D01*
X97745557Y-102133833D01*
X97745552Y-102155148D01*
X97745552Y-102316364D01*
X97645527Y-102316364D01*
X97645527Y-101822492D01*
X97745552Y-101822492D01*
X97745552Y-101873479D01*
X97770510Y-101852115D01*
X97805677Y-101829909D01*
X97845812Y-101817965D01*
X97888320Y-101816588D01*
X97930604Y-101826084D01*
G37*
G36*
X98874897Y-101991002D02*
G01*
X98889066Y-102034228D01*
X98902158Y-102073047D01*
X98913658Y-102106018D01*
X98923048Y-102131696D01*
X98929813Y-102148638D01*
X98933434Y-102155400D01*
X98933744Y-102155395D01*
X98936441Y-102148314D01*
X98941879Y-102130806D01*
X98949581Y-102104524D01*
X98959070Y-102071124D01*
X98969867Y-102032260D01*
X98980192Y-101994409D01*
X98991730Y-101951880D01*
X99002300Y-101913149D01*
X99011434Y-101879913D01*
X99018664Y-101853867D01*
X99023522Y-101836707D01*
X99025463Y-101830306D01*
X99032500Y-101825953D01*
X99050142Y-101823390D01*
X99079263Y-101822495D01*
X99081593Y-101822492D01*
X99108597Y-101822977D01*
X99124722Y-101824595D01*
X99131557Y-101827595D01*
X99131810Y-101830306D01*
X99129068Y-101838505D01*
X99123194Y-101856612D01*
X99114836Y-101882618D01*
X99104638Y-101914513D01*
X99093248Y-101950288D01*
X99093133Y-101950649D01*
X99079173Y-101994526D01*
X99062840Y-102045767D01*
X99045585Y-102099832D01*
X99028855Y-102152180D01*
X99016824Y-102189770D01*
X98976272Y-102316364D01*
X98886124Y-102316364D01*
X98836625Y-102150315D01*
X98823580Y-102106932D01*
X98811537Y-102067601D01*
X98800992Y-102033880D01*
X98792436Y-102007325D01*
X98786366Y-101989492D01*
X98783274Y-101981938D01*
X98783145Y-101981806D01*
X98780412Y-101986899D01*
X98774679Y-102002504D01*
X98766431Y-102027128D01*
X98756155Y-102059276D01*
X98744337Y-102097454D01*
X98731463Y-102140166D01*
X98729643Y-102146291D01*
X98680123Y-102313238D01*
X98634726Y-102315076D01*
X98608579Y-102315366D01*
X98593095Y-102313492D01*
X98586583Y-102309237D01*
X98586413Y-102308825D01*
X98583099Y-102298944D01*
X98576681Y-102279200D01*
X98567648Y-102251135D01*
X98556488Y-102216289D01*
X98543692Y-102176204D01*
X98529747Y-102132421D01*
X98515143Y-102086480D01*
X98500369Y-102039923D01*
X98485913Y-101994290D01*
X98472265Y-101951123D01*
X98459914Y-101911962D01*
X98449348Y-101878349D01*
X98441056Y-101851824D01*
X98435528Y-101833929D01*
X98433252Y-101826205D01*
X98433221Y-101826029D01*
X98438992Y-101824426D01*
X98454387Y-101823203D01*
X98476526Y-101822550D01*
X98486065Y-101822492D01*
X98538909Y-101822492D01*
X98544448Y-101842810D01*
X98547600Y-101854430D01*
X98553486Y-101876182D01*
X98561582Y-101906124D01*
X98571362Y-101942316D01*
X98582303Y-101982819D01*
X98590065Y-102011565D01*
X98601233Y-102052475D01*
X98611456Y-102089062D01*
X98620258Y-102119694D01*
X98627165Y-102142741D01*
X98631701Y-102156573D01*
X98633270Y-102159917D01*
X98635908Y-102154185D01*
X98641805Y-102138040D01*
X98650449Y-102112989D01*
X98661330Y-102080542D01*
X98673936Y-102042207D01*
X98687757Y-101999491D01*
X98689927Y-101992724D01*
X98743459Y-101825618D01*
X98781839Y-101823764D01*
X98820219Y-101821911D01*
X98874897Y-101991002D01*
G37*
G36*
X98540993Y-101032866D02*
G01*
X98576637Y-101038275D01*
X98609668Y-101045958D01*
X98632464Y-101053902D01*
X98656117Y-101065462D01*
X98677322Y-101077807D01*
X98693357Y-101089151D01*
X98701498Y-101097712D01*
X98701994Y-101099442D01*
X98698224Y-101106483D01*
X98688270Y-101120032D01*
X98674238Y-101137233D01*
X98673362Y-101138261D01*
X98644687Y-101171826D01*
X98609984Y-101152241D01*
X98579154Y-101139083D01*
X98544288Y-101130912D01*
X98509299Y-101128109D01*
X98478099Y-101131058D01*
X98459074Y-101137511D01*
X98439593Y-101152755D01*
X98429470Y-101171678D01*
X98428969Y-101191409D01*
X98438354Y-101209077D01*
X98451585Y-101219017D01*
X98466993Y-101224231D01*
X98489941Y-101228876D01*
X98515470Y-101231950D01*
X98515572Y-101231958D01*
X98567511Y-101237225D01*
X98608705Y-101244565D01*
X98640838Y-101254699D01*
X98665596Y-101268351D01*
X98684663Y-101286241D01*
X98699725Y-101309092D01*
X98700924Y-101311383D01*
X98712066Y-101343406D01*
X98716401Y-101379819D01*
X98713763Y-101415604D01*
X98705302Y-101443098D01*
X98683979Y-101474060D01*
X98652943Y-101499812D01*
X98614152Y-101519634D01*
X98569563Y-101532800D01*
X98521133Y-101538589D01*
X98470821Y-101536276D01*
X98458227Y-101534356D01*
X98433655Y-101528252D01*
X98405134Y-101518572D01*
X98384164Y-101509800D01*
X98361295Y-101497956D01*
X98338422Y-101484200D01*
X98318168Y-101470355D01*
X98303159Y-101458242D01*
X98296020Y-101449685D01*
X98295766Y-101448437D01*
X98300172Y-101442578D01*
X98311719Y-101430995D01*
X98328020Y-101416063D01*
X98330092Y-101414239D01*
X98364338Y-101384204D01*
X98392459Y-101403552D01*
X98430532Y-101425264D01*
X98469364Y-101437304D01*
X98513777Y-101441144D01*
X98515478Y-101441148D01*
X98556015Y-101438206D01*
X98585687Y-101429297D01*
X98604679Y-101414300D01*
X98613179Y-101393094D01*
X98613327Y-101377399D01*
X98609565Y-101362105D01*
X98600649Y-101350542D01*
X98584918Y-101341940D01*
X98560711Y-101335525D01*
X98526366Y-101330527D01*
X98508439Y-101328656D01*
X98457491Y-101321892D01*
X98417236Y-101312022D01*
X98386083Y-101298253D01*
X98362437Y-101279793D01*
X98344707Y-101255849D01*
X98338760Y-101244225D01*
X98331509Y-101221819D01*
X98327411Y-101196215D01*
X98327082Y-101188686D01*
X98332006Y-101144007D01*
X98347189Y-101106461D01*
X98372596Y-101076083D01*
X98408194Y-101052908D01*
X98453948Y-101036969D01*
X98480966Y-101031672D01*
X98507511Y-101030432D01*
X98540993Y-101032866D01*
G37*
G36*
X98617147Y-97321406D02*
G01*
X98667844Y-97321508D01*
X98708396Y-97321748D01*
X98739982Y-97322181D01*
X98763781Y-97322864D01*
X98780972Y-97323854D01*
X98792734Y-97325207D01*
X98800246Y-97326980D01*
X98804686Y-97329228D01*
X98807235Y-97332010D01*
X98808108Y-97333505D01*
X98810678Y-97342210D01*
X98815204Y-97361795D01*
X98821398Y-97390839D01*
X98828971Y-97427921D01*
X98837633Y-97471621D01*
X98847095Y-97520520D01*
X98857068Y-97573196D01*
X98858715Y-97582004D01*
X98868763Y-97634967D01*
X98878416Y-97684209D01*
X98887379Y-97728339D01*
X98895355Y-97765968D01*
X98902050Y-97795705D01*
X98907165Y-97816161D01*
X98910407Y-97825946D01*
X98910759Y-97826457D01*
X98919050Y-97831406D01*
X98937149Y-97840103D01*
X98963202Y-97851788D01*
X98995352Y-97865700D01*
X99031746Y-97881079D01*
X99070530Y-97897166D01*
X99109848Y-97913200D01*
X99147846Y-97928422D01*
X99182669Y-97942071D01*
X99212463Y-97953387D01*
X99235374Y-97961611D01*
X99249546Y-97965981D01*
X99252449Y-97966485D01*
X99261327Y-97963783D01*
X99278018Y-97955093D01*
X99302931Y-97940158D01*
X99336477Y-97918719D01*
X99379064Y-97890517D01*
X99431103Y-97855294D01*
X99461329Y-97834601D01*
X99513697Y-97798641D01*
X99556738Y-97769134D01*
X99591437Y-97745465D01*
X99618782Y-97727019D01*
X99639759Y-97713181D01*
X99655353Y-97703336D01*
X99666552Y-97696870D01*
X99674342Y-97693169D01*
X99679709Y-97691616D01*
X99683639Y-97691597D01*
X99687120Y-97692499D01*
X99688570Y-97692967D01*
X99696560Y-97698500D01*
X99711784Y-97711775D01*
X99733068Y-97731596D01*
X99759237Y-97756767D01*
X99789115Y-97786092D01*
X99821527Y-97818373D01*
X99855298Y-97852415D01*
X99889254Y-97887023D01*
X99922218Y-97920999D01*
X99953015Y-97953147D01*
X99980472Y-97982271D01*
X100003411Y-98007176D01*
X100020659Y-98026664D01*
X100031040Y-98039539D01*
X100033615Y-98044199D01*
X100030175Y-98052076D01*
X100020375Y-98069008D01*
X100004993Y-98093784D01*
X99984809Y-98125195D01*
X99960600Y-98162031D01*
X99933147Y-98203082D01*
X99903227Y-98247138D01*
X99899207Y-98253009D01*
X99858854Y-98312317D01*
X99825586Y-98362165D01*
X99799476Y-98402440D01*
X99780595Y-98433026D01*
X99769018Y-98453809D01*
X99764815Y-98464674D01*
X99764798Y-98465039D01*
X99767265Y-98476109D01*
X99774147Y-98496451D01*
X99784667Y-98524271D01*
X99798049Y-98557776D01*
X99813517Y-98595174D01*
X99830294Y-98634672D01*
X99847604Y-98674476D01*
X99864669Y-98712794D01*
X99880714Y-98747833D01*
X99894962Y-98777799D01*
X99906636Y-98800900D01*
X99914960Y-98815343D01*
X99918200Y-98819235D01*
X99927142Y-98822301D01*
X99946912Y-98827253D01*
X99976031Y-98833780D01*
X100013017Y-98841570D01*
X100056392Y-98850311D01*
X100104676Y-98859689D01*
X100152633Y-98868699D01*
X100204208Y-98878325D01*
X100252311Y-98887474D01*
X100295453Y-98895851D01*
X100332144Y-98903158D01*
X100360892Y-98909099D01*
X100380209Y-98913378D01*
X100388389Y-98915600D01*
X100402455Y-98921510D01*
X100402455Y-99171037D01*
X100402424Y-99233644D01*
X100402298Y-99284903D01*
X100402026Y-99325969D01*
X100401559Y-99357997D01*
X100400848Y-99382144D01*
X100399842Y-99399563D01*
X100398492Y-99411409D01*
X100396748Y-99418839D01*
X100394561Y-99423007D01*
X100391881Y-99425069D01*
X100391515Y-99425233D01*
X100383027Y-99427428D01*
X100363696Y-99431615D01*
X100334973Y-99437504D01*
X100298310Y-99444806D01*
X100255156Y-99453233D01*
X100206964Y-99462496D01*
X100155886Y-99472173D01*
X100093302Y-99484073D01*
X100042124Y-99494106D01*
X100001429Y-99502480D01*
X99970294Y-99509406D01*
X99947796Y-99515095D01*
X99933011Y-99519757D01*
X99925017Y-99523601D01*
X99923399Y-99525108D01*
X99919171Y-99533448D01*
X99910987Y-99551875D01*
X99899493Y-99578850D01*
X99885333Y-99612836D01*
X99869154Y-99652294D01*
X99851600Y-99695684D01*
X99845757Y-99710250D01*
X99822766Y-99768390D01*
X99804743Y-99815565D01*
X99791535Y-99852215D01*
X99782988Y-99878780D01*
X99778947Y-99895701D01*
X99778675Y-99901813D01*
X99782784Y-99910820D01*
X99793228Y-99928777D01*
X99809175Y-99954391D01*
X99829791Y-99986366D01*
X99854245Y-100023409D01*
X99881704Y-100064226D01*
X99907526Y-100102001D01*
X99936757Y-100144746D01*
X99963592Y-100184557D01*
X99987223Y-100220192D01*
X100006844Y-100250411D01*
X100021648Y-100273972D01*
X100030828Y-100289635D01*
X100033615Y-100295948D01*
X100029317Y-100302628D01*
X100017062Y-100317065D01*
X99997804Y-100338246D01*
X99972498Y-100365158D01*
X99942098Y-100396790D01*
X99907561Y-100432130D01*
X99869840Y-100470165D01*
X99859656Y-100480343D01*
X99814398Y-100525362D01*
X99777083Y-100562140D01*
X99746928Y-100591390D01*
X99723149Y-100613827D01*
X99704962Y-100630161D01*
X99691583Y-100641106D01*
X99682229Y-100647376D01*
X99676115Y-100649681D01*
X99673673Y-100649458D01*
X99665838Y-100644975D01*
X99648983Y-100634229D01*
X99624375Y-100618066D01*
X99593281Y-100597330D01*
X99556970Y-100572865D01*
X99516708Y-100545514D01*
X99480985Y-100521082D01*
X99438442Y-100492128D01*
X99398776Y-100465574D01*
X99363250Y-100442232D01*
X99333128Y-100422915D01*
X99309673Y-100408434D01*
X99294149Y-100399601D01*
X99288152Y-100397141D01*
X99278529Y-100399990D01*
X99260245Y-100407827D01*
X99235579Y-100419591D01*
X99206814Y-100434219D01*
X99193747Y-100441128D01*
X99164011Y-100456520D01*
X99137454Y-100469313D01*
X99116329Y-100478494D01*
X99102887Y-100483047D01*
X99099996Y-100483325D01*
X99096606Y-100480452D01*
X99091281Y-100472185D01*
X99083738Y-100457879D01*
X99073691Y-100436888D01*
X99060857Y-100408569D01*
X99044951Y-100372276D01*
X99025691Y-100327365D01*
X99002790Y-100273190D01*
X98975967Y-100209107D01*
X98944935Y-100134472D01*
X98923390Y-100082449D01*
X98895701Y-100015343D01*
X98869469Y-99951434D01*
X98845081Y-99891689D01*
X98822927Y-99837076D01*
X98803393Y-99788561D01*
X98786869Y-99747111D01*
X98773743Y-99713694D01*
X98764403Y-99689276D01*
X98759237Y-99674824D01*
X98758301Y-99671273D01*
X98763759Y-99659847D01*
X98778657Y-99646321D01*
X98784870Y-99642067D01*
X98802656Y-99630132D01*
X98826060Y-99613793D01*
X98850684Y-99596131D01*
X98856392Y-99591960D01*
X98917133Y-99539961D01*
X98968184Y-99480842D01*
X99009213Y-99415777D01*
X99039886Y-99345939D01*
X99059874Y-99272501D01*
X99068842Y-99196636D01*
X99066458Y-99119516D01*
X99052391Y-99042314D01*
X99030669Y-98976684D01*
X99011103Y-98933811D01*
X98988112Y-98895186D01*
X98959393Y-98857485D01*
X98922644Y-98817386D01*
X98914589Y-98809248D01*
X98859189Y-98759993D01*
X98801487Y-98721533D01*
X98738639Y-98692173D01*
X98692660Y-98676870D01*
X98647965Y-98667565D01*
X98595790Y-98662421D01*
X98540444Y-98661439D01*
X98486236Y-98664619D01*
X98437475Y-98671961D01*
X98417592Y-98676870D01*
X98343943Y-98704327D01*
X98275930Y-98742104D01*
X98214567Y-98789119D01*
X98160869Y-98844286D01*
X98115850Y-98906523D01*
X98080525Y-98974745D01*
X98055907Y-99047870D01*
X98051233Y-99068288D01*
X98041205Y-99146841D01*
X98043194Y-99224763D01*
X98056726Y-99300831D01*
X98081328Y-99373825D01*
X98116528Y-99442520D01*
X98161853Y-99505696D01*
X98216829Y-99562131D01*
X98253860Y-99591960D01*
X98278114Y-99609478D01*
X98302222Y-99626425D01*
X98321788Y-99639721D01*
X98325382Y-99642067D01*
X98342766Y-99655750D01*
X98351398Y-99668090D01*
X98351951Y-99671273D01*
X98349612Y-99678954D01*
X98342855Y-99697210D01*
X98332067Y-99725075D01*
X98317637Y-99761580D01*
X98299953Y-99805760D01*
X98279403Y-99856647D01*
X98256376Y-99913273D01*
X98231260Y-99974673D01*
X98204443Y-100039880D01*
X98186862Y-100082449D01*
X98153071Y-100163973D01*
X98123664Y-100234543D01*
X98098357Y-100294804D01*
X98076866Y-100345400D01*
X98058907Y-100386977D01*
X98044197Y-100420179D01*
X98032450Y-100445651D01*
X98023383Y-100464039D01*
X98016712Y-100475986D01*
X98012152Y-100482138D01*
X98010256Y-100483325D01*
X98000888Y-100481117D01*
X97982850Y-100473838D01*
X97958394Y-100462502D01*
X97929773Y-100448123D01*
X97916504Y-100441128D01*
X97886676Y-100425594D01*
X97859967Y-100412468D01*
X97838659Y-100402812D01*
X97825031Y-100397687D01*
X97822100Y-100397141D01*
X97814246Y-100400579D01*
X97797396Y-100410350D01*
X97772813Y-100425642D01*
X97741761Y-100445644D01*
X97705503Y-100469542D01*
X97665302Y-100496526D01*
X97629267Y-100521082D01*
X97586677Y-100550193D01*
X97546980Y-100577125D01*
X97511443Y-100601033D01*
X97481333Y-100621073D01*
X97457918Y-100636400D01*
X97442464Y-100646169D01*
X97436578Y-100649458D01*
X97432034Y-100649190D01*
X97424720Y-100645387D01*
X97413852Y-100637336D01*
X97398647Y-100624324D01*
X97378321Y-100605638D01*
X97352090Y-100580566D01*
X97319169Y-100548395D01*
X97278776Y-100508412D01*
X97250595Y-100480343D01*
X97212205Y-100441775D01*
X97176750Y-100405639D01*
X97145186Y-100372948D01*
X97118468Y-100344715D01*
X97097549Y-100321950D01*
X97083386Y-100305668D01*
X97076934Y-100296879D01*
X97076637Y-100295948D01*
X97080080Y-100288434D01*
X97089871Y-100271907D01*
X97105204Y-100247609D01*
X97125271Y-100216781D01*
X97149266Y-100180662D01*
X97176383Y-100140495D01*
X97202726Y-100102001D01*
X97232129Y-100058944D01*
X97259256Y-100018529D01*
X97283274Y-99982050D01*
X97303351Y-99950802D01*
X97318653Y-99926078D01*
X97328348Y-99909173D01*
X97331576Y-99901813D01*
X97330435Y-99891039D01*
X97324889Y-99870911D01*
X97314786Y-99840990D01*
X97299969Y-99800836D01*
X97280286Y-99750008D01*
X97264495Y-99710250D01*
X97246635Y-99665920D01*
X97229942Y-99625027D01*
X97215062Y-99589110D01*
X97202638Y-99559708D01*
X97193317Y-99538358D01*
X97187744Y-99526600D01*
X97186853Y-99525108D01*
X97181591Y-99521560D01*
X97169950Y-99517289D01*
X97151007Y-99512085D01*
X97123839Y-99505736D01*
X97087523Y-99498034D01*
X97041136Y-99488767D01*
X96983755Y-99477726D01*
X96954366Y-99472173D01*
X96902623Y-99462369D01*
X96854488Y-99453116D01*
X96811411Y-99444702D01*
X96774843Y-99437416D01*
X96746235Y-99431547D01*
X96727039Y-99427385D01*
X96718736Y-99425233D01*
X96715992Y-99423351D01*
X96713747Y-99419504D01*
X96711952Y-99412537D01*
X96710556Y-99401295D01*
X96709511Y-99384623D01*
X96708766Y-99361366D01*
X96708272Y-99330368D01*
X96707979Y-99290474D01*
X96707837Y-99240530D01*
X96707797Y-99179380D01*
X96707796Y-99171037D01*
X96707796Y-98921510D01*
X96721862Y-98915600D01*
X96731116Y-98913125D01*
X96751181Y-98908713D01*
X96780568Y-98902660D01*
X96817787Y-98895264D01*
X96861347Y-98886820D01*
X96909759Y-98877626D01*
X96957618Y-98868699D01*
X97009136Y-98859008D01*
X97057120Y-98849665D01*
X97100090Y-98840982D01*
X97136567Y-98833271D01*
X97165070Y-98826846D01*
X97184119Y-98822017D01*
X97192051Y-98819235D01*
X97197787Y-98811366D01*
X97207377Y-98793676D01*
X97220044Y-98767958D01*
X97235012Y-98736004D01*
X97251504Y-98699609D01*
X97268744Y-98660564D01*
X97285955Y-98620663D01*
X97302360Y-98581699D01*
X97317183Y-98545465D01*
X97329648Y-98513753D01*
X97338978Y-98488357D01*
X97344397Y-98471070D01*
X97345453Y-98465039D01*
X97341739Y-98454831D01*
X97330645Y-98434699D01*
X97312244Y-98404756D01*
X97286608Y-98365116D01*
X97253810Y-98315896D01*
X97213922Y-98257208D01*
X97211045Y-98253009D01*
X97180863Y-98208652D01*
X97153045Y-98167143D01*
X97128372Y-98129693D01*
X97107622Y-98097510D01*
X97091573Y-98071805D01*
X97081005Y-98053787D01*
X97076697Y-98044667D01*
X97076637Y-98044199D01*
X97080916Y-98037244D01*
X97092968Y-98022754D01*
X97111619Y-98001924D01*
X97135693Y-97975950D01*
X97164016Y-97946030D01*
X97195412Y-97913359D01*
X97228706Y-97879134D01*
X97262722Y-97844550D01*
X97296287Y-97810804D01*
X97328224Y-97779093D01*
X97357359Y-97750611D01*
X97382516Y-97726557D01*
X97402520Y-97708125D01*
X97416196Y-97696512D01*
X97421682Y-97692967D01*
X97425344Y-97691885D01*
X97429143Y-97691541D01*
X97434065Y-97692549D01*
X97441096Y-97695523D01*
X97451224Y-97701079D01*
X97465434Y-97709831D01*
X97484712Y-97722393D01*
X97510047Y-97739381D01*
X97542424Y-97761409D01*
X97582830Y-97789091D01*
X97632252Y-97823042D01*
X97649606Y-97834970D01*
X97706558Y-97873858D01*
X97753848Y-97905582D01*
X97791878Y-97930396D01*
X97821052Y-97948554D01*
X97841772Y-97960311D01*
X97854440Y-97965922D01*
X97857797Y-97966505D01*
X97867764Y-97963986D01*
X97887254Y-97957293D01*
X97914412Y-97947186D01*
X97947379Y-97934425D01*
X97984298Y-97919772D01*
X98023311Y-97903987D01*
X98062561Y-97887832D01*
X98100190Y-97872066D01*
X98134340Y-97857451D01*
X98163153Y-97844748D01*
X98184773Y-97834716D01*
X98197342Y-97828118D01*
X98199437Y-97826591D01*
X98202367Y-97818782D01*
X98207213Y-97800058D01*
X98213680Y-97771812D01*
X98221470Y-97735436D01*
X98230288Y-97692320D01*
X98239836Y-97643856D01*
X98249818Y-97591436D01*
X98251559Y-97582108D01*
X98261562Y-97528957D01*
X98271106Y-97479349D01*
X98279901Y-97434706D01*
X98287659Y-97396450D01*
X98294091Y-97366002D01*
X98298906Y-97344783D01*
X98301818Y-97334217D01*
X98302087Y-97333610D01*
X98304149Y-97330535D01*
X98307509Y-97328024D01*
X98313345Y-97326019D01*
X98322837Y-97324464D01*
X98337166Y-97323302D01*
X98357510Y-97322476D01*
X98385048Y-97321928D01*
X98420962Y-97321603D01*
X98466430Y-97321442D01*
X98522631Y-97321388D01*
X98555126Y-97321385D01*
X98617147Y-97321406D01*
G37*
G36*
X100337509Y-101030847D02*
G01*
X100361168Y-101034973D01*
X100371236Y-101037443D01*
X100411930Y-101051886D01*
X100450014Y-101072751D01*
X100480813Y-101097425D01*
X100483551Y-101100254D01*
X100493071Y-101111261D01*
X100494440Y-101118479D01*
X100488160Y-101127144D01*
X100486316Y-101129195D01*
X100473847Y-101141426D01*
X100457083Y-101156039D01*
X100451342Y-101160697D01*
X100428336Y-101178942D01*
X100399527Y-101158636D01*
X100380529Y-101146754D01*
X100362578Y-101140086D01*
X100340017Y-101136829D01*
X100328761Y-101136096D01*
X100288789Y-101137986D01*
X100256968Y-101148800D01*
X100232104Y-101169155D01*
X100215468Y-101194574D01*
X100207785Y-101211631D01*
X100203075Y-101228228D01*
X100200651Y-101248334D01*
X100199823Y-101275915D01*
X100199784Y-101284860D01*
X100200284Y-101315618D01*
X100202301Y-101337822D01*
X100206469Y-101355391D01*
X100213424Y-101372244D01*
X100214192Y-101373825D01*
X100234541Y-101402264D01*
X100262235Y-101422349D01*
X100294967Y-101433672D01*
X100330431Y-101435831D01*
X100366322Y-101428417D01*
X100400332Y-101411027D01*
X100405273Y-101407423D01*
X100427728Y-101390296D01*
X100451038Y-101408782D01*
X100468005Y-101423044D01*
X100482622Y-101436658D01*
X100486257Y-101440459D01*
X100494232Y-101450513D01*
X100493684Y-101457808D01*
X100486257Y-101466882D01*
X100461455Y-101488747D01*
X100429092Y-101509273D01*
X100394013Y-101525538D01*
X100382201Y-101529619D01*
X100353901Y-101537074D01*
X100328670Y-101539908D01*
X100300978Y-101538394D01*
X100276997Y-101534867D01*
X100239084Y-101523771D01*
X100200798Y-101504577D01*
X100167687Y-101480200D01*
X100161283Y-101474062D01*
X100134355Y-101438354D01*
X100114320Y-101394106D01*
X100101743Y-101343558D01*
X100097187Y-101288952D01*
X100100978Y-101234132D01*
X100114010Y-101177468D01*
X100135298Y-101130168D01*
X100164973Y-101092091D01*
X100203166Y-101063097D01*
X100250008Y-101043047D01*
X100288129Y-101034238D01*
X100315430Y-101030690D01*
X100337509Y-101030847D01*
G37*
G36*
X97886442Y-101034882D02*
G01*
X97922102Y-101045112D01*
X97929972Y-101048819D01*
X97964855Y-101071184D01*
X97990806Y-101099025D01*
X98009344Y-101131697D01*
X98013470Y-101141130D01*
X98016745Y-101150541D01*
X98019289Y-101161486D01*
X98021218Y-101175524D01*
X98022651Y-101194211D01*
X98023704Y-101219104D01*
X98024497Y-101251759D01*
X98025146Y-101293735D01*
X98025770Y-101346587D01*
X98025799Y-101349199D01*
X98027853Y-101535443D01*
X97975787Y-101533619D01*
X97923720Y-101531796D01*
X97920595Y-101363004D01*
X97919575Y-101311895D01*
X97918549Y-101271741D01*
X97917394Y-101240997D01*
X97915989Y-101218116D01*
X97914209Y-101201551D01*
X97911933Y-101189755D01*
X97909038Y-101181182D01*
X97905681Y-101174742D01*
X97885871Y-101151841D01*
X97859501Y-101138765D01*
X97827109Y-101134823D01*
X97793441Y-101138614D01*
X97767657Y-101150786D01*
X97747404Y-101172537D01*
X97744592Y-101176869D01*
X97740193Y-101184343D01*
X97736752Y-101191994D01*
X97734127Y-101201420D01*
X97732179Y-101214222D01*
X97730768Y-101232000D01*
X97729755Y-101256355D01*
X97728999Y-101288886D01*
X97728361Y-101331193D01*
X97727906Y-101367693D01*
X97725890Y-101534921D01*
X97626772Y-101534921D01*
X97626772Y-101034798D01*
X97726797Y-101034798D01*
X97726797Y-101059804D01*
X97728096Y-101077629D01*
X97732851Y-101083696D01*
X97742349Y-101078500D01*
X97751655Y-101069339D01*
X97777534Y-101050183D01*
X97810838Y-101037800D01*
X97848247Y-101032572D01*
X97886442Y-101034882D01*
G37*
G36*
X96183924Y-101187908D02*
G01*
X96194378Y-101152103D01*
X96210249Y-101121849D01*
X96232248Y-101094975D01*
X96241719Y-101085789D01*
X96281089Y-101057134D01*
X96324116Y-101039034D01*
X96369003Y-101031129D01*
X96413955Y-101033056D01*
X96457176Y-101044456D01*
X96496871Y-101064967D01*
X96531243Y-101094228D01*
X96558497Y-101131878D01*
X96567926Y-101151377D01*
X96575106Y-101176811D01*
X96580084Y-101211300D01*
X96582863Y-101251595D01*
X96583445Y-101294443D01*
X96581834Y-101336595D01*
X96578031Y-101374798D01*
X96572041Y-101405802D01*
X96567695Y-101418896D01*
X96545178Y-101458289D01*
X96514097Y-101491732D01*
X96477070Y-101516783D01*
X96451483Y-101527277D01*
X96414255Y-101535121D01*
X96373686Y-101537788D01*
X96338458Y-101535036D01*
X96293470Y-101520863D01*
X96252457Y-101495032D01*
X96236899Y-101481091D01*
X96213617Y-101453840D01*
X96196568Y-101423065D01*
X96185113Y-101386692D01*
X96178611Y-101342644D01*
X96176424Y-101288846D01*
X96176416Y-101284860D01*
X96279566Y-101284860D01*
X96280347Y-101325214D01*
X96283187Y-101355524D01*
X96288830Y-101378180D01*
X96298023Y-101395574D01*
X96311509Y-101410094D01*
X96320969Y-101417678D01*
X96348617Y-101431083D01*
X96381090Y-101435697D01*
X96414301Y-101431496D01*
X96444158Y-101418454D01*
X96444193Y-101418431D01*
X96459929Y-101403791D01*
X96471182Y-101382494D01*
X96478390Y-101353015D01*
X96481991Y-101313827D01*
X96482604Y-101284622D01*
X96482359Y-101251832D01*
X96481189Y-101228421D01*
X96478657Y-101211273D01*
X96474328Y-101197271D01*
X96468675Y-101185059D01*
X96449162Y-101159171D01*
X96423431Y-101142271D01*
X96393961Y-101134361D01*
X96363228Y-101135446D01*
X96333709Y-101145528D01*
X96307882Y-101164609D01*
X96292407Y-101184856D01*
X96286893Y-101195818D01*
X96283198Y-101208236D01*
X96280976Y-101224807D01*
X96279882Y-101248228D01*
X96279568Y-101281198D01*
X96279566Y-101284860D01*
X96176416Y-101284860D01*
X96178174Y-101231437D01*
X96183924Y-101187908D01*
G37*
G36*
X100532994Y-101203537D02*
G01*
X100550106Y-101150495D01*
X100575239Y-101106780D01*
X100608169Y-101072633D01*
X100648671Y-101048291D01*
X100691267Y-101034995D01*
X100740392Y-101031200D01*
X100788096Y-101039477D01*
X100832916Y-101059394D01*
X100870516Y-101087789D01*
X100894249Y-101113071D01*
X100911270Y-101139451D01*
X100922639Y-101169731D01*
X100929417Y-101206718D01*
X100932622Y-101252039D01*
X100935186Y-101322369D01*
X100627511Y-101322369D01*
X100627511Y-101339799D01*
X100631703Y-101361144D01*
X100642490Y-101385823D01*
X100657184Y-101408790D01*
X100672750Y-101424748D01*
X100692254Y-101433555D01*
X100719149Y-101438956D01*
X100748681Y-101440513D01*
X100776095Y-101437786D01*
X100785955Y-101435217D01*
X100806103Y-101426624D01*
X100827265Y-101414850D01*
X100830816Y-101412524D01*
X100853443Y-101397169D01*
X100887388Y-101426170D01*
X100904093Y-101441098D01*
X100916211Y-101453179D01*
X100921302Y-101459966D01*
X100921333Y-101460207D01*
X100916910Y-101466868D01*
X100905731Y-101477882D01*
X100899250Y-101483447D01*
X100853918Y-101512941D01*
X100803452Y-101531787D01*
X100750105Y-101539426D01*
X100696130Y-101535295D01*
X100693152Y-101534708D01*
X100644788Y-101519074D01*
X100604048Y-101493624D01*
X100571298Y-101458724D01*
X100546903Y-101414741D01*
X100534300Y-101375969D01*
X100530012Y-101349379D01*
X100527549Y-101315025D01*
X100526946Y-101277519D01*
X100528238Y-101241472D01*
X100528278Y-101241099D01*
X100627511Y-101241099D01*
X100835203Y-101241099D01*
X100830909Y-101217656D01*
X100819114Y-101181713D01*
X100799028Y-101154311D01*
X100771667Y-101136359D01*
X100738051Y-101128768D01*
X100731202Y-101128571D01*
X100702697Y-101131620D01*
X100678480Y-101139698D01*
X100677581Y-101140170D01*
X100658437Y-101155933D01*
X100641765Y-101179124D01*
X100630550Y-101204786D01*
X100627511Y-101223328D01*
X100627511Y-101241099D01*
X100528278Y-101241099D01*
X100531460Y-101211494D01*
X100532994Y-101203537D01*
G37*
G36*
X100020023Y-101917243D02*
G01*
X100047117Y-101877736D01*
X100081701Y-101847773D01*
X100123421Y-101827742D01*
X100171924Y-101818027D01*
X100178192Y-101817572D01*
X100230552Y-101819762D01*
X100276924Y-101832766D01*
X100316865Y-101856336D01*
X100349934Y-101890225D01*
X100371860Y-101926040D01*
X100380994Y-101945609D01*
X100387105Y-101962495D01*
X100390949Y-101980369D01*
X100393280Y-102002901D01*
X100394853Y-102033763D01*
X100395051Y-102038836D01*
X100397777Y-102110063D01*
X100088232Y-102110063D01*
X100091723Y-102136091D01*
X100101956Y-102167845D01*
X100122246Y-102194784D01*
X100150449Y-102214814D01*
X100183567Y-102225702D01*
X100211311Y-102225929D01*
X100243054Y-102219553D01*
X100273300Y-102208108D01*
X100294837Y-102194629D01*
X100313080Y-102179278D01*
X100346828Y-102207952D01*
X100363777Y-102222762D01*
X100376471Y-102234625D01*
X100382301Y-102241097D01*
X100382374Y-102241256D01*
X100379209Y-102248774D01*
X100367698Y-102260394D01*
X100350413Y-102274124D01*
X100329925Y-102287974D01*
X100308807Y-102299955D01*
X100302716Y-102302895D01*
X100271620Y-102313135D01*
X100234094Y-102319480D01*
X100194902Y-102321604D01*
X100158808Y-102319181D01*
X100136765Y-102314229D01*
X100096568Y-102297912D01*
X100065273Y-102277475D01*
X100039364Y-102250242D01*
X100024506Y-102228842D01*
X100005988Y-102189828D01*
X99993521Y-102142463D01*
X99987588Y-102089588D01*
X99988669Y-102034044D01*
X99989715Y-102023349D01*
X99989871Y-102022541D01*
X100088232Y-102022541D01*
X100295867Y-102022541D01*
X100291995Y-102002224D01*
X100279943Y-101965287D01*
X100260100Y-101937292D01*
X100233408Y-101919018D01*
X100200808Y-101911240D01*
X100182083Y-101911577D01*
X100147879Y-101920467D01*
X100120280Y-101939012D01*
X100100919Y-101965679D01*
X100091723Y-101996513D01*
X100088232Y-102022541D01*
X99989871Y-102022541D01*
X100000771Y-101965909D01*
X100020023Y-101917243D01*
G37*
G36*
X99940657Y-101827579D02*
G01*
X99976685Y-101846426D01*
X99979377Y-101851283D01*
X99976490Y-101859879D01*
X99967049Y-101873992D01*
X99950080Y-101895397D01*
X99949301Y-101896346D01*
X99913206Y-101940221D01*
X99888728Y-101927462D01*
X99857401Y-101917525D01*
X99825879Y-101918753D01*
X99796887Y-101930292D01*
X99773153Y-101951290D01*
X99763245Y-101966722D01*
X99759882Y-101974595D01*
X99757277Y-101984474D01*
X99755335Y-101997944D01*
X99753964Y-102016591D01*
X99753070Y-102042000D01*
X99752559Y-102075757D01*
X99752338Y-102119446D01*
X99752305Y-102152261D01*
X99752295Y-102316364D01*
X99652271Y-102316364D01*
X99652271Y-101822492D01*
X99752295Y-101822492D01*
X99752295Y-101866889D01*
X99774163Y-101850210D01*
X99812140Y-101828756D01*
X99854323Y-101817800D01*
X99898050Y-101817391D01*
X99940657Y-101827579D01*
G37*
G36*
X99372230Y-101206023D02*
G01*
X99372826Y-101257054D01*
X99373463Y-101297104D01*
X99374263Y-101327694D01*
X99375342Y-101350346D01*
X99376819Y-101366580D01*
X99378814Y-101377918D01*
X99381445Y-101385882D01*
X99384831Y-101391993D01*
X99386967Y-101394994D01*
X99408121Y-101418186D01*
X99430753Y-101431097D01*
X99458631Y-101435738D01*
X99463515Y-101435845D01*
X99498195Y-101431554D01*
X99525314Y-101417627D01*
X99546032Y-101393387D01*
X99550683Y-101384980D01*
X99554974Y-101376003D01*
X99558291Y-101366969D01*
X99560759Y-101356197D01*
X99562504Y-101342008D01*
X99563649Y-101322721D01*
X99564321Y-101296655D01*
X99564644Y-101262131D01*
X99564744Y-101217468D01*
X99564749Y-101196014D01*
X99564749Y-101034798D01*
X99664774Y-101034798D01*
X99664774Y-101534921D01*
X99564749Y-101534921D01*
X99564749Y-101485754D01*
X99533699Y-101506650D01*
X99492748Y-101527917D01*
X99450322Y-101538291D01*
X99408687Y-101537289D01*
X99399083Y-101535307D01*
X99355802Y-101518638D01*
X99319647Y-101491845D01*
X99291395Y-101455573D01*
X99282235Y-101438022D01*
X99278111Y-101428638D01*
X99274862Y-101419436D01*
X99272383Y-101408855D01*
X99270569Y-101395328D01*
X99269318Y-101377292D01*
X99268523Y-101353183D01*
X99268080Y-101321436D01*
X99267886Y-101280487D01*
X99267835Y-101228771D01*
X99267833Y-101222344D01*
X99267801Y-101037924D01*
X99319092Y-101036113D01*
X99370384Y-101034302D01*
X99372230Y-101206023D01*
G37*
G36*
X97986236Y-102072554D02*
G01*
X97986534Y-102021432D01*
X97987735Y-101980955D01*
X97990295Y-101949270D01*
X97994671Y-101924528D01*
X98001322Y-101904877D01*
X98010704Y-101888465D01*
X98023274Y-101873443D01*
X98039188Y-101858230D01*
X98070730Y-101834925D01*
X98104105Y-101821481D01*
X98143283Y-101816433D01*
X98152627Y-101816302D01*
X98180083Y-101819443D01*
X98209133Y-101827674D01*
X98235405Y-101839342D01*
X98254526Y-101852796D01*
X98257380Y-101855881D01*
X98266540Y-101864273D01*
X98271314Y-101866253D01*
X98273033Y-101860315D01*
X98274695Y-101843758D01*
X98276193Y-101818464D01*
X98277420Y-101786317D01*
X98278268Y-101749201D01*
X98278363Y-101742785D01*
X98280058Y-101619317D01*
X98328508Y-101617491D01*
X98376957Y-101615665D01*
X98376957Y-102316364D01*
X98276932Y-102316364D01*
X98276932Y-102294483D01*
X98275274Y-102278086D01*
X98269775Y-102273470D01*
X98259648Y-102280290D01*
X98255171Y-102284975D01*
X98238795Y-102297019D01*
X98214305Y-102308148D01*
X98186078Y-102316859D01*
X98158487Y-102321651D01*
X98146978Y-102322122D01*
X98122154Y-102319683D01*
X98097202Y-102314243D01*
X98091795Y-102312505D01*
X98058657Y-102295135D01*
X98028302Y-102269005D01*
X98004805Y-102237791D01*
X98000851Y-102230388D01*
X97995907Y-102219724D01*
X97992223Y-102209291D01*
X97989615Y-102197095D01*
X97987897Y-102181143D01*
X97986886Y-102159442D01*
X97986396Y-102129999D01*
X97986278Y-102099486D01*
X98084056Y-102099486D01*
X98088603Y-102141552D01*
X98098300Y-102173685D01*
X98113431Y-102196740D01*
X98134281Y-102211566D01*
X98140451Y-102214097D01*
X98173227Y-102221449D01*
X98204004Y-102217832D01*
X98224365Y-102209811D01*
X98242363Y-102199296D01*
X98255519Y-102186413D01*
X98264537Y-102169164D01*
X98270121Y-102145550D01*
X98272976Y-102113573D01*
X98273804Y-102071233D01*
X98273805Y-102069428D01*
X98273546Y-102034439D01*
X98272547Y-102009222D01*
X98270476Y-101991052D01*
X98267003Y-101977206D01*
X98261794Y-101964958D01*
X98260875Y-101963152D01*
X98242249Y-101939231D01*
X98217259Y-101923665D01*
X98188662Y-101916486D01*
X98159212Y-101917724D01*
X98131665Y-101927411D01*
X98108776Y-101945578D01*
X98098028Y-101961312D01*
X98091445Y-101980902D01*
X98086862Y-102011000D01*
X98084372Y-102046638D01*
X98084056Y-102099486D01*
X97986278Y-102099486D01*
X97986244Y-102090820D01*
X97986236Y-102072554D01*
G37*
G36*
X97151497Y-102109197D02*
G01*
X97169051Y-102077966D01*
X97180538Y-102065071D01*
X97197312Y-102051137D01*
X97215137Y-102040814D01*
X97236320Y-102033508D01*
X97263170Y-102028623D01*
X97297996Y-102025565D01*
X97340765Y-102023805D01*
X97432975Y-102021179D01*
X97432975Y-101987065D01*
X97431762Y-101965354D01*
X97428660Y-101947205D01*
X97426220Y-101940331D01*
X97412268Y-101926349D01*
X97388852Y-101916125D01*
X97358706Y-101910657D01*
X97343310Y-101910014D01*
X97308413Y-101911474D01*
X97282847Y-101916342D01*
X97263730Y-101925351D01*
X97254723Y-101932518D01*
X97238834Y-101947244D01*
X97201496Y-101918248D01*
X97183604Y-101903767D01*
X97170389Y-101891955D01*
X97164307Y-101885031D01*
X97164159Y-101884491D01*
X97168539Y-101878123D01*
X97179830Y-101866729D01*
X97190560Y-101857132D01*
X97216909Y-101838543D01*
X97246575Y-101826034D01*
X97281985Y-101819008D01*
X97325568Y-101816870D01*
X97351980Y-101817479D01*
X97384514Y-101819268D01*
X97408330Y-101821986D01*
X97427213Y-101826373D01*
X97444947Y-101833171D01*
X97454099Y-101837477D01*
X97488718Y-101859763D01*
X97513557Y-101888681D01*
X97527002Y-101916265D01*
X97529708Y-101927811D01*
X97531988Y-101947444D01*
X97533887Y-101976040D01*
X97535452Y-102014473D01*
X97536725Y-102063620D01*
X97537753Y-102124355D01*
X97537792Y-102127255D01*
X97540349Y-102316364D01*
X97432975Y-102316364D01*
X97432975Y-102277743D01*
X97414026Y-102293687D01*
X97394683Y-102306380D01*
X97373309Y-102315657D01*
X97371828Y-102316088D01*
X97342599Y-102320875D01*
X97307582Y-102321812D01*
X97272842Y-102319020D01*
X97247455Y-102313616D01*
X97207089Y-102295586D01*
X97174420Y-102269802D01*
X97151078Y-102237757D01*
X97142723Y-102217740D01*
X97137322Y-102183167D01*
X97138501Y-102169599D01*
X97233257Y-102169599D01*
X97240156Y-102190733D01*
X97255535Y-102208711D01*
X97278359Y-102220911D01*
X97286418Y-102223036D01*
X97305672Y-102225214D01*
X97331293Y-102225796D01*
X97358829Y-102224946D01*
X97383831Y-102222827D01*
X97401845Y-102219600D01*
X97404549Y-102218712D01*
X97417665Y-102207439D01*
X97427275Y-102186494D01*
X97432396Y-102158452D01*
X97432975Y-102144272D01*
X97432975Y-102109094D01*
X97349063Y-102111141D01*
X97314897Y-102112111D01*
X97290852Y-102113340D01*
X97274551Y-102115238D01*
X97263613Y-102118213D01*
X97255659Y-102122676D01*
X97249039Y-102128344D01*
X97235873Y-102147929D01*
X97233257Y-102169599D01*
X97138501Y-102169599D01*
X97140583Y-102145625D01*
X97151497Y-102109197D01*
G37*
G36*
X99148160Y-102127731D02*
G01*
X99165204Y-102090661D01*
X99192470Y-102060461D01*
X99227166Y-102038873D01*
X99240641Y-102033518D01*
X99255849Y-102029665D01*
X99275330Y-102026992D01*
X99301625Y-102025178D01*
X99337272Y-102023901D01*
X99347508Y-102023639D01*
X99439718Y-102021395D01*
X99439718Y-101985151D01*
X99437906Y-101958354D01*
X99432080Y-101940986D01*
X99428778Y-101936416D01*
X99409483Y-101922661D01*
X99382317Y-101913843D01*
X99350722Y-101909950D01*
X99318142Y-101910970D01*
X99288017Y-101916890D01*
X99263791Y-101927698D01*
X99253083Y-101937041D01*
X99247803Y-101941568D01*
X99241094Y-101941431D01*
X99230425Y-101935615D01*
X99213263Y-101923106D01*
X99207759Y-101918889D01*
X99189957Y-101904545D01*
X99176878Y-101892775D01*
X99171007Y-101885840D01*
X99170902Y-101885369D01*
X99176034Y-101875735D01*
X99189395Y-101862921D01*
X99207931Y-101849137D01*
X99228592Y-101836593D01*
X99248323Y-101827500D01*
X99252934Y-101825971D01*
X99286419Y-101819434D01*
X99326894Y-101816642D01*
X99369431Y-101817574D01*
X99409099Y-101822206D01*
X99429603Y-101826788D01*
X99462910Y-101840802D01*
X99492988Y-101862037D01*
X99516895Y-101887853D01*
X99531686Y-101915610D01*
X99532832Y-101919391D01*
X99534948Y-101933792D01*
X99536719Y-101959654D01*
X99538110Y-101995939D01*
X99539087Y-102041609D01*
X99539618Y-102095627D01*
X99539708Y-102130380D01*
X99539743Y-102316364D01*
X99439718Y-102316364D01*
X99439718Y-102277743D01*
X99420770Y-102293687D01*
X99401426Y-102306380D01*
X99380052Y-102315657D01*
X99378572Y-102316088D01*
X99347789Y-102321122D01*
X99311335Y-102321914D01*
X99275050Y-102318670D01*
X99244775Y-102311592D01*
X99244277Y-102311415D01*
X99204546Y-102291309D01*
X99173830Y-102263522D01*
X99152896Y-102229519D01*
X99142511Y-102190767D01*
X99143018Y-102167890D01*
X99239868Y-102167890D01*
X99244943Y-102192406D01*
X99259430Y-102210436D01*
X99278582Y-102219062D01*
X99296019Y-102222948D01*
X99305310Y-102225129D01*
X99323551Y-102226973D01*
X99347875Y-102226227D01*
X99373737Y-102223400D01*
X99396592Y-102219004D01*
X99411897Y-102213552D01*
X99412727Y-102213041D01*
X99428007Y-102197765D01*
X99436746Y-102175220D01*
X99439708Y-102143370D01*
X99439718Y-102140914D01*
X99439718Y-102110063D01*
X99361163Y-102110063D01*
X99318674Y-102110933D01*
X99287100Y-102114020D01*
X99264942Y-102120037D01*
X99250704Y-102129699D01*
X99242887Y-102143719D01*
X99239994Y-102162813D01*
X99239868Y-102167890D01*
X99143018Y-102167890D01*
X99143442Y-102148733D01*
X99148160Y-102127731D01*
G37*
G36*
X98777506Y-101226460D02*
G01*
X98782502Y-101187000D01*
X98790405Y-101155404D01*
X98792555Y-101149796D01*
X98815754Y-101109152D01*
X98846843Y-101076667D01*
X98884002Y-101052621D01*
X98925414Y-101037294D01*
X98969257Y-101030968D01*
X99013715Y-101033922D01*
X99056966Y-101046438D01*
X99097192Y-101068796D01*
X99129529Y-101097813D01*
X99147421Y-101119655D01*
X99160676Y-101141350D01*
X99169932Y-101165289D01*
X99175824Y-101193867D01*
X99178988Y-101229476D01*
X99180061Y-101274509D01*
X99180076Y-101287986D01*
X99179784Y-101325881D01*
X99178898Y-101353993D01*
X99177118Y-101375039D01*
X99174143Y-101391735D01*
X99169674Y-101406799D01*
X99165811Y-101417035D01*
X99147370Y-101450013D01*
X99120392Y-101481539D01*
X99088615Y-101507797D01*
X99062858Y-101522182D01*
X99028214Y-101532546D01*
X98987970Y-101537441D01*
X98948045Y-101536265D01*
X98938256Y-101534858D01*
X98892169Y-101520832D01*
X98851489Y-101496331D01*
X98818048Y-101462762D01*
X98795063Y-101424669D01*
X98785981Y-101396055D01*
X98779654Y-101358582D01*
X98776112Y-101315596D01*
X98775614Y-101284622D01*
X98877217Y-101284622D01*
X98878648Y-101330243D01*
X98883290Y-101365237D01*
X98891962Y-101391248D01*
X98905484Y-101409919D01*
X98924675Y-101422895D01*
X98950355Y-101431820D01*
X98950593Y-101431881D01*
X98987133Y-101435735D01*
X99020176Y-101428316D01*
X99039136Y-101417466D01*
X99055187Y-101403558D01*
X99066564Y-101388017D01*
X99074008Y-101368462D01*
X99078256Y-101342510D01*
X99080048Y-101307778D01*
X99080255Y-101284860D01*
X99079996Y-101250861D01*
X99078989Y-101226662D01*
X99076888Y-101209566D01*
X99073345Y-101196874D01*
X99068015Y-101185891D01*
X99067414Y-101184856D01*
X99044888Y-101157289D01*
X99016170Y-101140568D01*
X98981487Y-101134825D01*
X98980771Y-101134823D01*
X98944643Y-101139473D01*
X98916344Y-101153670D01*
X98895209Y-101177788D01*
X98891146Y-101185059D01*
X98884871Y-101198870D01*
X98880778Y-101213081D01*
X98878430Y-101230809D01*
X98877393Y-101255170D01*
X98877217Y-101284622D01*
X98775614Y-101284622D01*
X98775386Y-101270440D01*
X98777506Y-101226460D01*
G37*
G36*
X96770312Y-101034798D02*
G01*
X96770312Y-101083965D01*
X96801362Y-101063070D01*
X96841543Y-101042547D01*
X96883145Y-101032892D01*
X96924346Y-101033514D01*
X96963328Y-101043821D01*
X96998270Y-101063222D01*
X97027352Y-101091125D01*
X97048756Y-101126939D01*
X97055452Y-101145668D01*
X97059827Y-101168517D01*
X97062986Y-101200754D01*
X97064928Y-101239334D01*
X97065651Y-101281209D01*
X97065156Y-101323333D01*
X97063441Y-101362661D01*
X97060505Y-101396146D01*
X97056348Y-101420742D01*
X97055536Y-101423763D01*
X97038086Y-101462746D01*
X97011496Y-101494870D01*
X96977758Y-101518972D01*
X96938864Y-101533887D01*
X96896806Y-101538451D01*
X96865771Y-101534693D01*
X96843560Y-101527327D01*
X96818338Y-101515433D01*
X96803132Y-101506443D01*
X96770312Y-101484781D01*
X96770312Y-101675886D01*
X96770410Y-101731612D01*
X96770734Y-101775893D01*
X96771329Y-101809785D01*
X96772239Y-101834346D01*
X96773508Y-101850631D01*
X96775180Y-101859698D01*
X96777299Y-101862602D01*
X96778126Y-101862376D01*
X96788225Y-101855746D01*
X96802666Y-101845586D01*
X96804695Y-101844116D01*
X96840462Y-101825430D01*
X96880609Y-101816657D01*
X96922208Y-101817566D01*
X96962329Y-101827927D01*
X96998044Y-101847508D01*
X97013206Y-101860557D01*
X97025897Y-101873460D01*
X97036116Y-101885126D01*
X97044145Y-101897054D01*
X97050265Y-101910744D01*
X97054760Y-101927694D01*
X97057912Y-101949404D01*
X97060002Y-101977373D01*
X97061314Y-102013100D01*
X97062129Y-102058085D01*
X97062729Y-102113827D01*
X97062827Y-102124129D01*
X97064646Y-102316364D01*
X96964109Y-102316364D01*
X96964100Y-102152261D01*
X96963966Y-102097995D01*
X96963397Y-102054721D01*
X96962127Y-102020927D01*
X96959893Y-101995103D01*
X96956429Y-101975738D01*
X96951472Y-101961322D01*
X96944756Y-101950344D01*
X96936018Y-101941294D01*
X96925751Y-101933214D01*
X96898380Y-101920325D01*
X96867479Y-101917062D01*
X96836488Y-101922771D01*
X96808851Y-101936799D01*
X96788008Y-101958494D01*
X96787397Y-101959461D01*
X96783203Y-101966706D01*
X96779920Y-101974412D01*
X96777413Y-101984172D01*
X96775549Y-101997577D01*
X96774195Y-102016222D01*
X96773217Y-102041697D01*
X96772481Y-102075597D01*
X96771855Y-102119512D01*
X96771502Y-102149135D01*
X96769566Y-102316364D01*
X96670287Y-102316364D01*
X96670287Y-101297623D01*
X96769912Y-101297623D01*
X96773243Y-101337414D01*
X96781033Y-101373046D01*
X96793301Y-101401379D01*
X96799296Y-101409764D01*
X96819881Y-101425372D01*
X96847349Y-101434293D01*
X96877777Y-101436127D01*
X96907244Y-101430480D01*
X96924309Y-101422429D01*
X96937924Y-101412073D01*
X96947790Y-101399347D01*
X96954468Y-101382193D01*
X96958518Y-101358556D01*
X96960502Y-101326380D01*
X96960984Y-101287986D01*
X96960699Y-101250724D01*
X96959677Y-101223514D01*
X96957669Y-101203916D01*
X96954425Y-101189489D01*
X96949714Y-101177828D01*
X96933298Y-101154914D01*
X96910605Y-101141064D01*
X96880142Y-101135596D01*
X96857847Y-101136032D01*
X96835125Y-101138336D01*
X96820522Y-101142372D01*
X96809655Y-101149959D01*
X96800800Y-101159694D01*
X96786484Y-101184709D01*
X96776551Y-101218130D01*
X96771021Y-101256815D01*
X96769912Y-101297623D01*
X96670287Y-101297623D01*
X96670287Y-101034798D01*
X96770312Y-101034798D01*
G37*
G36*
X97159894Y-101151101D02*
G01*
X97181798Y-101110073D01*
X97202152Y-101085288D01*
X97238052Y-101057782D01*
X97279372Y-101040143D01*
X97323907Y-101032332D01*
X97369448Y-101034312D01*
X97413787Y-101046044D01*
X97454717Y-101067489D01*
X97482090Y-101090165D01*
X97508648Y-101122759D01*
X97527600Y-101160594D01*
X97539514Y-101205407D01*
X97544960Y-101258930D01*
X97545455Y-101283297D01*
X97545502Y-101322369D01*
X97232359Y-101322369D01*
X97236532Y-101345812D01*
X97247862Y-101381670D01*
X97267116Y-101410031D01*
X97292314Y-101428645D01*
X97328809Y-101439639D01*
X97368307Y-101439834D01*
X97408179Y-101429592D01*
X97445796Y-101409275D01*
X97448864Y-101407052D01*
X97456121Y-101402788D01*
X97463438Y-101402842D01*
X97473584Y-101408362D01*
X97489330Y-101420494D01*
X97497488Y-101427185D01*
X97533349Y-101456777D01*
X97504857Y-101482966D01*
X97482872Y-101500007D01*
X97457673Y-101515062D01*
X97443701Y-101521376D01*
X97408580Y-101531114D01*
X97368941Y-101536766D01*
X97330307Y-101537811D01*
X97302516Y-101534715D01*
X97259452Y-101520874D01*
X97220373Y-101498949D01*
X97197209Y-101479443D01*
X97171244Y-101444730D01*
X97152207Y-101402000D01*
X97140068Y-101353625D01*
X97134797Y-101301975D01*
X97136364Y-101249424D01*
X97137729Y-101241099D01*
X97233238Y-101241099D01*
X97439226Y-101241099D01*
X97439226Y-101223328D01*
X97434339Y-101199179D01*
X97421667Y-101173635D01*
X97404195Y-101151653D01*
X97389156Y-101140170D01*
X97360414Y-101130494D01*
X97328499Y-101128741D01*
X97298371Y-101134794D01*
X97282299Y-101142720D01*
X97260016Y-101164597D01*
X97243796Y-101195361D01*
X97236906Y-101220781D01*
X97233238Y-101241099D01*
X97137729Y-101241099D01*
X97144740Y-101198342D01*
X97159894Y-101151101D01*
G37*
%TO.C,A1*%
X79375000Y-102235000D02*
X76705000Y-102235000D01*
X92075000Y-137795000D02*
X94745000Y-137795000D01*
X79375000Y-140335000D02*
X79375000Y-102235000D01*
X92075000Y-137795000D02*
X92075000Y-102235000D01*
X92075000Y-137795000D02*
X92075000Y-140335000D01*
X94745000Y-137795000D02*
X94745000Y-99565000D01*
X79375000Y-140335000D02*
X76705000Y-140335000D01*
X76705000Y-143005000D02*
X94745000Y-143005000D01*
X92075000Y-140335000D02*
X94745000Y-140335000D01*
X92075000Y-102235000D02*
X94745000Y-102235000D01*
X94745000Y-99565000D02*
X76705000Y-99565000D01*
X76705000Y-99565000D02*
X76705000Y-143005000D01*
X94745000Y-143005000D02*
X94745000Y-140335000D01*
%TO.C,J6*%
X95825000Y-112395000D02*
X98485000Y-112395000D01*
X98485000Y-112395000D02*
X98485000Y-112455000D01*
X95825000Y-111125000D02*
X95825000Y-109795000D01*
X95825000Y-112395000D02*
X95825000Y-112455000D01*
X95825000Y-109795000D02*
X97155000Y-109795000D01*
X95825000Y-112455000D02*
X98485000Y-112455000D01*
%TO.C,G\u002A\u002A\u002A*%
G36*
X129496039Y-140989436D02*
G01*
X129517745Y-141006380D01*
X129549924Y-141031852D01*
X129589637Y-141063493D01*
X129633947Y-141098943D01*
X129679915Y-141135845D01*
X129724603Y-141171837D01*
X129765074Y-141204561D01*
X129798389Y-141231657D01*
X129821609Y-141250766D01*
X129824660Y-141253318D01*
X129841377Y-141266992D01*
X129865250Y-141286099D01*
X129880881Y-141298454D01*
X129919670Y-141328942D01*
X129980710Y-141295960D01*
X130020563Y-141275444D01*
X130066624Y-141253224D01*
X130108994Y-141234075D01*
X130109406Y-141233898D01*
X130177062Y-141204817D01*
X130432765Y-141460411D01*
X130487525Y-141515287D01*
X130538271Y-141566411D01*
X130583723Y-141612474D01*
X130622603Y-141652168D01*
X130653632Y-141684185D01*
X130675533Y-141707216D01*
X130687025Y-141719953D01*
X130688469Y-141722038D01*
X130680716Y-141726601D01*
X130660983Y-141731453D01*
X130647235Y-141733664D01*
X130611307Y-141740141D01*
X130564734Y-141750772D01*
X130513279Y-141764030D01*
X130462702Y-141778387D01*
X130418765Y-141792316D01*
X130398640Y-141799578D01*
X130346897Y-141821823D01*
X130289151Y-141850198D01*
X130233039Y-141880761D01*
X130188425Y-141908083D01*
X130144123Y-141937475D01*
X129223412Y-141937475D01*
X129209990Y-141916991D01*
X129195597Y-141897040D01*
X129184957Y-141884438D01*
X129175649Y-141873665D01*
X129157724Y-141852006D01*
X129133383Y-141822155D01*
X129104828Y-141786803D01*
X129089895Y-141768199D01*
X129056581Y-141726657D01*
X129023064Y-141684937D01*
X128992702Y-141647214D01*
X128968853Y-141617662D01*
X128963627Y-141611208D01*
X128940144Y-141581827D01*
X128918527Y-141554078D01*
X128903185Y-141533627D01*
X128902374Y-141532494D01*
X128883937Y-141506602D01*
X129442775Y-140948540D01*
X129496039Y-140989436D01*
G37*
G36*
X131948051Y-143812937D02*
G01*
X132394245Y-143813347D01*
X132433309Y-143862643D01*
X132454961Y-143889886D01*
X132474167Y-143913910D01*
X132486763Y-143929508D01*
X132497877Y-143943210D01*
X132517148Y-143967100D01*
X132542640Y-143998769D01*
X132572418Y-144035806D01*
X132604547Y-144075801D01*
X132637093Y-144116344D01*
X132668121Y-144155025D01*
X132695696Y-144189434D01*
X132717883Y-144217160D01*
X132732746Y-144235794D01*
X132738157Y-144242656D01*
X132733764Y-144250835D01*
X132717643Y-144270309D01*
X132690534Y-144300294D01*
X132653179Y-144340004D01*
X132606320Y-144388655D01*
X132550697Y-144445463D01*
X132487053Y-144509643D01*
X132465386Y-144531337D01*
X132185717Y-144810908D01*
X132033898Y-144688599D01*
X131988922Y-144652347D01*
X131947653Y-144619046D01*
X131912306Y-144590486D01*
X131885094Y-144568456D01*
X131868231Y-144554745D01*
X131864686Y-144551832D01*
X131850508Y-144540249D01*
X131826712Y-144521016D01*
X131797248Y-144497318D01*
X131779647Y-144483208D01*
X131712000Y-144429045D01*
X131636444Y-144467326D01*
X131596514Y-144487184D01*
X131555580Y-144506928D01*
X131520601Y-144523220D01*
X131510820Y-144527591D01*
X131460751Y-144549575D01*
X131204007Y-144293269D01*
X131149277Y-144238448D01*
X131098722Y-144187451D01*
X131053595Y-144141568D01*
X131015146Y-144102090D01*
X130984630Y-144070304D01*
X130963297Y-144047503D01*
X130952402Y-144034976D01*
X130951269Y-144032957D01*
X130961287Y-144029624D01*
X130983511Y-144024860D01*
X131010679Y-144020102D01*
X131139993Y-143990751D01*
X131267178Y-143944530D01*
X131391033Y-143881905D01*
X131435885Y-143854601D01*
X131501858Y-143812526D01*
X131948051Y-143812937D01*
G37*
G36*
X130295479Y-142552170D02*
G01*
X130340915Y-142473627D01*
X130400703Y-142399349D01*
X130419365Y-142379742D01*
X130492627Y-142314793D01*
X130570991Y-142264972D01*
X130658082Y-142228108D01*
X130688393Y-142218691D01*
X130726888Y-142208276D01*
X130758279Y-142201919D01*
X130788898Y-142198961D01*
X130825080Y-142198736D01*
X130865094Y-142200209D01*
X130941080Y-142207002D01*
X131006180Y-142220862D01*
X131066005Y-142243449D01*
X131126167Y-142276419D01*
X131129036Y-142278214D01*
X131194465Y-142329327D01*
X131250304Y-142393467D01*
X131294966Y-142468253D01*
X131326860Y-142551304D01*
X131336162Y-142588534D01*
X131342673Y-142631089D01*
X131346166Y-142679630D01*
X131346775Y-142729999D01*
X131344633Y-142778038D01*
X131339876Y-142819590D01*
X131332636Y-142850497D01*
X131327355Y-142861905D01*
X131313086Y-142883681D01*
X130514853Y-142883681D01*
X130515158Y-142920575D01*
X130523673Y-143003333D01*
X130547001Y-143080712D01*
X130583917Y-143150660D01*
X130633197Y-143211123D01*
X130693617Y-143260049D01*
X130729920Y-143280690D01*
X130758396Y-143294478D01*
X130780778Y-143303715D01*
X130801826Y-143309312D01*
X130826302Y-143312181D01*
X130858966Y-143313233D01*
X130900685Y-143313380D01*
X130946502Y-143313056D01*
X130979514Y-143311620D01*
X131004274Y-143308375D01*
X131025332Y-143302626D01*
X131047242Y-143293676D01*
X131056023Y-143289626D01*
X131092029Y-143269771D01*
X131133747Y-143242265D01*
X131175452Y-143211290D01*
X131211418Y-143181027D01*
X131230194Y-143162417D01*
X131247853Y-143148128D01*
X131266374Y-143146219D01*
X131289019Y-143157277D01*
X131314209Y-143177542D01*
X131351888Y-143210979D01*
X131321836Y-143260656D01*
X131263496Y-143341246D01*
X131194021Y-143409289D01*
X131114735Y-143463702D01*
X131026965Y-143503405D01*
X131022349Y-143504994D01*
X130986336Y-143516109D01*
X130952676Y-143523480D01*
X130915496Y-143527992D01*
X130868925Y-143530533D01*
X130849064Y-143531126D01*
X130803101Y-143531519D01*
X130758701Y-143530520D01*
X130721441Y-143528331D01*
X130699948Y-143525755D01*
X130628983Y-143507088D01*
X130555402Y-143477187D01*
X130486505Y-143439074D01*
X130479732Y-143434647D01*
X130410831Y-143378628D01*
X130352071Y-143309762D01*
X130304009Y-143229683D01*
X130267204Y-143140020D01*
X130242215Y-143042408D01*
X130229601Y-142938477D01*
X130229920Y-142829859D01*
X130240605Y-142736108D01*
X130242564Y-142727427D01*
X130514523Y-142727427D01*
X130751240Y-142727378D01*
X130817461Y-142727044D01*
X130878483Y-142726122D01*
X130931809Y-142724695D01*
X130974943Y-142722846D01*
X131005387Y-142720656D01*
X131019617Y-142718536D01*
X131051190Y-142703391D01*
X131071398Y-142677702D01*
X131081229Y-142639768D01*
X131082557Y-142610236D01*
X131073583Y-142548517D01*
X131048921Y-142491158D01*
X131010132Y-142440575D01*
X130958782Y-142399184D01*
X130938402Y-142387458D01*
X130893130Y-142371932D01*
X130839764Y-142366305D01*
X130784386Y-142370451D01*
X130733078Y-142384245D01*
X130715764Y-142392067D01*
X130658567Y-142430970D01*
X130608713Y-142483330D01*
X130568478Y-142545999D01*
X130540141Y-142615827D01*
X130532611Y-142645233D01*
X130526280Y-142674636D01*
X130520773Y-142699802D01*
X130518962Y-142707895D01*
X130514523Y-142727427D01*
X130242564Y-142727427D01*
X130262630Y-142638491D01*
X130295479Y-142552170D01*
G37*
G36*
X129662335Y-143021527D02*
G01*
X129667414Y-143040466D01*
X129668458Y-143046446D01*
X129696590Y-143178415D01*
X129738231Y-143304660D01*
X129792255Y-143422138D01*
X129834190Y-143493462D01*
X129872475Y-143552644D01*
X129872475Y-144461787D01*
X129843834Y-144486558D01*
X129818552Y-144507902D01*
X129789804Y-144531459D01*
X129780898Y-144538595D01*
X129763701Y-144552331D01*
X129735625Y-144574827D01*
X129699317Y-144603961D01*
X129657424Y-144637607D01*
X129612593Y-144673643D01*
X129603370Y-144681060D01*
X129560303Y-144715679D01*
X129521548Y-144746793D01*
X129489245Y-144772690D01*
X129465529Y-144791657D01*
X129452539Y-144801981D01*
X129451026Y-144803157D01*
X129442847Y-144798764D01*
X129423372Y-144782643D01*
X129393388Y-144755534D01*
X129353678Y-144718179D01*
X129305026Y-144671320D01*
X129248218Y-144615697D01*
X129184038Y-144552053D01*
X129162344Y-144530386D01*
X128882774Y-144250717D01*
X129005082Y-144098898D01*
X129041335Y-144053922D01*
X129074636Y-144012653D01*
X129103196Y-143977306D01*
X129125226Y-143950094D01*
X129138936Y-143933231D01*
X129141850Y-143929686D01*
X129153433Y-143915508D01*
X129172666Y-143891712D01*
X129196363Y-143862248D01*
X129210473Y-143844647D01*
X129264637Y-143777000D01*
X129226355Y-143701444D01*
X129206361Y-143661217D01*
X129186356Y-143619696D01*
X129169746Y-143583989D01*
X129165364Y-143574176D01*
X129142653Y-143522463D01*
X129396829Y-143268178D01*
X129451554Y-143213573D01*
X129502531Y-143162987D01*
X129548445Y-143117702D01*
X129587985Y-143078999D01*
X129619836Y-143048163D01*
X129642687Y-143026474D01*
X129655224Y-143015216D01*
X129657177Y-143013893D01*
X129662335Y-143021527D01*
G37*
G36*
X132638143Y-142427576D02*
G01*
X132667968Y-142430882D01*
X132709141Y-142435542D01*
X132755770Y-142440885D01*
X132793562Y-142445261D01*
X132847268Y-142451358D01*
X132907055Y-142457902D01*
X132963969Y-142463922D01*
X132993220Y-142466900D01*
X133035885Y-142471287D01*
X133075518Y-142475603D01*
X133106867Y-142479265D01*
X133121261Y-142481152D01*
X133153814Y-142485891D01*
X133153814Y-143272791D01*
X133121261Y-143277529D01*
X133099030Y-143280364D01*
X133064768Y-143284266D01*
X133023727Y-143288654D01*
X132993220Y-143291757D01*
X132941312Y-143297149D01*
X132881664Y-143303705D01*
X132823753Y-143310369D01*
X132797902Y-143313475D01*
X132747843Y-143319273D01*
X132694369Y-143324928D01*
X132645404Y-143329622D01*
X132621362Y-143331648D01*
X132585411Y-143335436D01*
X132558259Y-143340262D01*
X132543536Y-143345413D01*
X132541983Y-143347188D01*
X132532236Y-143379643D01*
X132518543Y-143421966D01*
X132503054Y-143467770D01*
X132487917Y-143510666D01*
X132478156Y-143536911D01*
X132455603Y-143595506D01*
X132092884Y-143595506D01*
X132015427Y-143595415D01*
X131943625Y-143595156D01*
X131879278Y-143594748D01*
X131824183Y-143594211D01*
X131780137Y-143593563D01*
X131748940Y-143592825D01*
X131732387Y-143592016D01*
X131730164Y-143591582D01*
X131734786Y-143583113D01*
X131747032Y-143564212D01*
X131764474Y-143538602D01*
X131768742Y-143532471D01*
X131814905Y-143459605D01*
X131857866Y-143379100D01*
X131893020Y-143299711D01*
X131897745Y-143287338D01*
X131911314Y-143248143D01*
X131924879Y-143204289D01*
X131937274Y-143160114D01*
X131947337Y-143119955D01*
X131953903Y-143088149D01*
X131955865Y-143070809D01*
X131962001Y-143059983D01*
X131980443Y-143037569D01*
X132011242Y-143003513D01*
X132054450Y-142957761D01*
X132110118Y-142900258D01*
X132178298Y-142830950D01*
X132259041Y-142749783D01*
X132271379Y-142737442D01*
X132586894Y-142422016D01*
X132638143Y-142427576D01*
G37*
G36*
X130112492Y-143800189D02*
G01*
X130134321Y-143815119D01*
X130161311Y-143833838D01*
X130163796Y-143835574D01*
X130232943Y-143879323D01*
X130310439Y-143920821D01*
X130387436Y-143955426D01*
X130406343Y-143962745D01*
X130442061Y-143975119D01*
X130483303Y-143987990D01*
X130525759Y-144000177D01*
X130565119Y-144010502D01*
X130597073Y-144017782D01*
X130617311Y-144020837D01*
X130618532Y-144020865D01*
X130627124Y-144026842D01*
X130646736Y-144044008D01*
X130676174Y-144071216D01*
X130714240Y-144107318D01*
X130759740Y-144151168D01*
X130811477Y-144201618D01*
X130868255Y-144257520D01*
X130928880Y-144317728D01*
X130951620Y-144340441D01*
X131271108Y-144660016D01*
X131265761Y-144707204D01*
X131262565Y-144735214D01*
X131258018Y-144774812D01*
X131252772Y-144820338D01*
X131248354Y-144858562D01*
X131242285Y-144912271D01*
X131235764Y-144972060D01*
X131229756Y-145028977D01*
X131226782Y-145058220D01*
X131222394Y-145100885D01*
X131218078Y-145140518D01*
X131214417Y-145171867D01*
X131212529Y-145186261D01*
X131207791Y-145218814D01*
X130420891Y-145218814D01*
X130416152Y-145186261D01*
X130413318Y-145164030D01*
X130409415Y-145129768D01*
X130405027Y-145088727D01*
X130401925Y-145058220D01*
X130396532Y-145006312D01*
X130389977Y-144946664D01*
X130383313Y-144888753D01*
X130380207Y-144862902D01*
X130374408Y-144812843D01*
X130368754Y-144759369D01*
X130364060Y-144710404D01*
X130362034Y-144686362D01*
X130358244Y-144650393D01*
X130353417Y-144623247D01*
X130348264Y-144608545D01*
X130346493Y-144607004D01*
X130320768Y-144599254D01*
X130284974Y-144587632D01*
X130243887Y-144573787D01*
X130202284Y-144559363D01*
X130164942Y-144546008D01*
X130136637Y-144535367D01*
X130126388Y-144531151D01*
X130089495Y-144514858D01*
X130089495Y-144150158D01*
X130089591Y-144058036D01*
X130089906Y-143982002D01*
X130090478Y-143920781D01*
X130091346Y-143873100D01*
X130092548Y-143837686D01*
X130094123Y-143813265D01*
X130096110Y-143798565D01*
X130098546Y-143792310D01*
X130100346Y-143792143D01*
X130112492Y-143800189D01*
G37*
G36*
X131212529Y-140572420D02*
G01*
X131215364Y-140594651D01*
X131219266Y-140628914D01*
X131223654Y-140669954D01*
X131226757Y-140700462D01*
X131232149Y-140752369D01*
X131238705Y-140812018D01*
X131245369Y-140869929D01*
X131248475Y-140895780D01*
X131254273Y-140945838D01*
X131259928Y-140999312D01*
X131264622Y-141048277D01*
X131266648Y-141072320D01*
X131270438Y-141108289D01*
X131275264Y-141135435D01*
X131280418Y-141150136D01*
X131282188Y-141151677D01*
X131307913Y-141159428D01*
X131343708Y-141171049D01*
X131384794Y-141184895D01*
X131426397Y-141199318D01*
X131463739Y-141212674D01*
X131492044Y-141223315D01*
X131502294Y-141227531D01*
X131539187Y-141243824D01*
X131539187Y-141608011D01*
X131539137Y-141685622D01*
X131538994Y-141757574D01*
X131538770Y-141822074D01*
X131538473Y-141877329D01*
X131538117Y-141921546D01*
X131537710Y-141952930D01*
X131537264Y-141969690D01*
X131537017Y-141972030D01*
X131529435Y-141967347D01*
X131510792Y-141954881D01*
X131484270Y-141936776D01*
X131465400Y-141923755D01*
X131349310Y-141853675D01*
X131223706Y-141797275D01*
X131090993Y-141755608D01*
X131070424Y-141750648D01*
X131005318Y-141735563D01*
X130681944Y-141413359D01*
X130358569Y-141091154D01*
X130363419Y-141047722D01*
X130366397Y-141021377D01*
X130370754Y-140983232D01*
X130375868Y-140938732D01*
X130380327Y-140900120D01*
X130386396Y-140846411D01*
X130392918Y-140786621D01*
X130398925Y-140729705D01*
X130401900Y-140700462D01*
X130406287Y-140657796D01*
X130410603Y-140618163D01*
X130414265Y-140586815D01*
X130416152Y-140572420D01*
X130420891Y-140539867D01*
X131207791Y-140539867D01*
X131212529Y-140572420D01*
G37*
G36*
X129635645Y-142154591D02*
G01*
X129711680Y-142154906D01*
X129772901Y-142155478D01*
X129820582Y-142156346D01*
X129855996Y-142157548D01*
X129880416Y-142159123D01*
X129895117Y-142161110D01*
X129901371Y-142163546D01*
X129901538Y-142165346D01*
X129893493Y-142177492D01*
X129878563Y-142199321D01*
X129859843Y-142226311D01*
X129858108Y-142228796D01*
X129814358Y-142297943D01*
X129772861Y-142375439D01*
X129738255Y-142452436D01*
X129730936Y-142471343D01*
X129718563Y-142507061D01*
X129705692Y-142548303D01*
X129693504Y-142590759D01*
X129683180Y-142630119D01*
X129675900Y-142662073D01*
X129672844Y-142682311D01*
X129672816Y-142683532D01*
X129666796Y-142693052D01*
X129649674Y-142713154D01*
X129622862Y-142742439D01*
X129587772Y-142779505D01*
X129545813Y-142822954D01*
X129498396Y-142871385D01*
X129446934Y-142923400D01*
X129392836Y-142977597D01*
X129337513Y-143032578D01*
X129282377Y-143086943D01*
X129228838Y-143139292D01*
X129178307Y-143188225D01*
X129132196Y-143232343D01*
X129091914Y-143270246D01*
X129058874Y-143300534D01*
X129034485Y-143321807D01*
X129020159Y-143332666D01*
X129017373Y-143333782D01*
X128995774Y-143331805D01*
X128974013Y-143329464D01*
X128896079Y-143320458D01*
X128832492Y-143313164D01*
X128780357Y-143307261D01*
X128736779Y-143302427D01*
X128698864Y-143298340D01*
X128663716Y-143294678D01*
X128635462Y-143291820D01*
X128592797Y-143287417D01*
X128553165Y-143283088D01*
X128521816Y-143279419D01*
X128507420Y-143277529D01*
X128474867Y-143272791D01*
X128474867Y-142485891D01*
X128507420Y-142481152D01*
X128529651Y-142478318D01*
X128563914Y-142474415D01*
X128604954Y-142470027D01*
X128635462Y-142466925D01*
X128687369Y-142461532D01*
X128747018Y-142454977D01*
X128804929Y-142448313D01*
X128830780Y-142445207D01*
X128880838Y-142439408D01*
X128934312Y-142433754D01*
X128983277Y-142429060D01*
X129007320Y-142427034D01*
X129043289Y-142423244D01*
X129070435Y-142418417D01*
X129085136Y-142413264D01*
X129086677Y-142411493D01*
X129094428Y-142385768D01*
X129106049Y-142349974D01*
X129119895Y-142308887D01*
X129134318Y-142267284D01*
X129147674Y-142229942D01*
X129158315Y-142201637D01*
X129162531Y-142191388D01*
X129178824Y-142154495D01*
X129543523Y-142154495D01*
X129635645Y-142154591D01*
G37*
G36*
X132465386Y-141227344D02*
G01*
X132531412Y-141293691D01*
X132589650Y-141352914D01*
X132639359Y-141404228D01*
X132679798Y-141446850D01*
X132710226Y-141479993D01*
X132729901Y-141502875D01*
X132738081Y-141514709D01*
X132738157Y-141516026D01*
X132730559Y-141525655D01*
X132714029Y-141546371D01*
X132690523Y-141575735D01*
X132661999Y-141611313D01*
X132630413Y-141650668D01*
X132597723Y-141691363D01*
X132565885Y-141730962D01*
X132536857Y-141767029D01*
X132512595Y-141797128D01*
X132495056Y-141818821D01*
X132486763Y-141828995D01*
X132475205Y-141843179D01*
X132455996Y-141866974D01*
X132432322Y-141896426D01*
X132418303Y-141913917D01*
X132364234Y-141981447D01*
X132410728Y-142074481D01*
X132430311Y-142114476D01*
X132448017Y-142152103D01*
X132461741Y-142182804D01*
X132468810Y-142200341D01*
X132480397Y-142233166D01*
X132229038Y-142484637D01*
X132174643Y-142538923D01*
X132124023Y-142589185D01*
X132078496Y-142634133D01*
X132039381Y-142672478D01*
X132007993Y-142702931D01*
X131985652Y-142724202D01*
X131973674Y-142735003D01*
X131972041Y-142736108D01*
X131964518Y-142729224D01*
X131961134Y-142722376D01*
X131956758Y-142702365D01*
X131955865Y-142689288D01*
X131953187Y-142667138D01*
X131945934Y-142632975D01*
X131935275Y-142591170D01*
X131922381Y-142546092D01*
X131908420Y-142502113D01*
X131897529Y-142471343D01*
X131867099Y-142397207D01*
X131833524Y-142330571D01*
X131793988Y-142264904D01*
X131756207Y-142206038D01*
X131756207Y-141296895D01*
X131784847Y-141272123D01*
X131810112Y-141250779D01*
X131838846Y-141227197D01*
X131847783Y-141220018D01*
X131864658Y-141206504D01*
X131892517Y-141184119D01*
X131928834Y-141154896D01*
X131971081Y-141120870D01*
X132016733Y-141084073D01*
X132033898Y-141070230D01*
X132185717Y-140947774D01*
X132465386Y-141227344D01*
G37*
%TO.C,J2*%
X99762000Y-137795000D02*
X102422000Y-137795000D01*
X99762000Y-137795000D02*
X99762000Y-137855000D01*
X99762000Y-136525000D02*
X99762000Y-135195000D01*
X99762000Y-137855000D02*
X102422000Y-137855000D01*
X102422000Y-137795000D02*
X102422000Y-137855000D01*
X99762000Y-135195000D02*
X101092000Y-135195000D01*
%TO.C,J8*%
X97222000Y-136525000D02*
X97222000Y-135195000D01*
X97222000Y-137795000D02*
X99882000Y-137795000D01*
X97222000Y-135195000D02*
X98552000Y-135195000D01*
X99882000Y-137795000D02*
X99882000Y-137855000D01*
X97222000Y-137855000D02*
X99882000Y-137855000D01*
X97222000Y-137795000D02*
X97222000Y-137855000D01*
%TO.C,J10*%
X95825000Y-118110000D02*
X95825000Y-118170000D01*
X95825000Y-118170000D02*
X98485000Y-118170000D01*
X95825000Y-118110000D02*
X98485000Y-118110000D01*
X95825000Y-116840000D02*
X95825000Y-115510000D01*
X95825000Y-115510000D02*
X97155000Y-115510000D01*
X98485000Y-118110000D02*
X98485000Y-118170000D01*
%TO.C,R1*%
X97988000Y-141605000D02*
X98058000Y-141605000D01*
X97988000Y-141605000D02*
G75*
G03*
X97988000Y-141605000I-1370000J0D01*
G01*
%TO.C,J1*%
X99635000Y-132715000D02*
X102295000Y-132715000D01*
X102295000Y-132715000D02*
X102295000Y-132775000D01*
X99635000Y-130115000D02*
X100965000Y-130115000D01*
X99635000Y-131445000D02*
X99635000Y-130115000D01*
X99635000Y-132775000D02*
X102295000Y-132775000D01*
X99635000Y-132715000D02*
X99635000Y-132775000D01*
%TO.C,J11*%
X98365000Y-116840000D02*
X98365000Y-115510000D01*
X98365000Y-118110000D02*
X98365000Y-118170000D01*
X98365000Y-118110000D02*
X101025000Y-118110000D01*
X101025000Y-118110000D02*
X101025000Y-118170000D01*
X98365000Y-118170000D02*
X101025000Y-118170000D01*
X98365000Y-115510000D02*
X99695000Y-115510000D01*
D12*
%TO.C,U2*%
X159375000Y-100838000D02*
X140325000Y-100838000D01*
X140325000Y-140462000D02*
X159375000Y-140462000D01*
X159375000Y-140462000D02*
X159375000Y-100838000D01*
X140325000Y-100838000D02*
X140325000Y-140462000D01*
D11*
%TO.C,J4*%
X98365000Y-109795000D02*
X99695000Y-109795000D01*
X98365000Y-111125000D02*
X98365000Y-109795000D01*
X101025000Y-112395000D02*
X101025000Y-112455000D01*
X98365000Y-112395000D02*
X98365000Y-112455000D01*
X98365000Y-112455000D02*
X101025000Y-112455000D01*
X98365000Y-112395000D02*
X101025000Y-112395000D01*
%TO.C,J7*%
X98485000Y-107315000D02*
X98485000Y-107375000D01*
X95825000Y-107315000D02*
X98485000Y-107315000D01*
X95825000Y-107315000D02*
X95825000Y-107375000D01*
X95825000Y-107375000D02*
X98485000Y-107375000D01*
X95825000Y-106045000D02*
X95825000Y-104715000D01*
X95825000Y-104715000D02*
X97155000Y-104715000D01*
%TO.C,C1*%
X123675000Y-142295000D02*
X126515000Y-142295000D01*
X123675000Y-138255000D02*
X123675000Y-142295000D01*
X126515000Y-138255000D02*
X123675000Y-138255000D01*
X126515000Y-142295000D02*
X126515000Y-138255000D01*
X125095000Y-137565000D02*
X125095000Y-138255000D01*
X125095000Y-142985000D02*
X125095000Y-142295000D01*
%TO.C,U3*%
X126890000Y-130235000D02*
X132190000Y-130235000D01*
X128540000Y-104715000D02*
X126890000Y-104715000D01*
X132190000Y-130235000D02*
X132190000Y-104715000D01*
X132190000Y-104715000D02*
X130540000Y-104715000D01*
X126890000Y-104715000D02*
X126890000Y-130235000D01*
X128540000Y-104715000D02*
G75*
G03*
X130540000Y-104715000I1000000J0D01*
G01*
%TO.C,J3*%
X98365000Y-107375000D02*
X101025000Y-107375000D01*
X98365000Y-106045000D02*
X98365000Y-104715000D01*
X98365000Y-104715000D02*
X99695000Y-104715000D01*
X98365000Y-107315000D02*
X98365000Y-107375000D01*
X101025000Y-107315000D02*
X101025000Y-107375000D01*
X98365000Y-107315000D02*
X101025000Y-107315000D01*
%TO.C,J5*%
X159950000Y-120710000D02*
X162610000Y-120710000D01*
X159950000Y-115570000D02*
X162610000Y-115570000D01*
X159950000Y-112970000D02*
X161280000Y-112970000D01*
X159950000Y-114300000D02*
X159950000Y-112970000D01*
X159950000Y-115570000D02*
X159950000Y-120710000D01*
X162610000Y-115570000D02*
X162610000Y-120710000D01*
%TO.C,D1*%
X95225000Y-145140000D02*
X95225000Y-148230000D01*
X100775000Y-146685462D02*
G75*
G03*
X95225000Y-145140170I-2990000J462D01*
G01*
X95225000Y-148229830D02*
G75*
G03*
X100775000Y-146684538I2560000J1544830D01*
G01*
X100285000Y-146685000D02*
G75*
G03*
X100285000Y-146685000I-2500000J0D01*
G01*
%TO.C,R2*%
X122555000Y-106145000D02*
X122555000Y-106215000D01*
X123925000Y-104775000D02*
G75*
G03*
X123925000Y-104775000I-1370000J0D01*
G01*
%TO.C,C2*%
X82527000Y-147181000D02*
X85367000Y-147181000D01*
X83947000Y-142451000D02*
X83947000Y-143141000D01*
X82527000Y-143141000D02*
X82527000Y-147181000D01*
X83947000Y-147871000D02*
X83947000Y-147181000D01*
X85367000Y-143141000D02*
X82527000Y-143141000D01*
X85367000Y-147181000D02*
X85367000Y-143141000D01*
%TO.C,J9*%
X97095000Y-131445000D02*
X97095000Y-130115000D01*
X97095000Y-130115000D02*
X98425000Y-130115000D01*
X99755000Y-132715000D02*
X99755000Y-132775000D01*
X97095000Y-132775000D02*
X99755000Y-132775000D01*
X97095000Y-132715000D02*
X99755000Y-132715000D01*
X97095000Y-132715000D02*
X97095000Y-132775000D01*
%TD*%
%LPC*%
D13*
%TO.C,SW1*%
X93293000Y-148808000D03*
X86793000Y-148808000D03*
X93293000Y-144308000D03*
X86793000Y-144308000D03*
%TD*%
D14*
%TO.C,U4*%
X104770000Y-98430000D03*
D15*
X104770000Y-100970000D03*
X104770000Y-103510000D03*
X104770000Y-106050000D03*
X104770000Y-108590000D03*
X104770000Y-111130000D03*
X104770000Y-113670000D03*
X104770000Y-116210000D03*
X104770000Y-118750000D03*
X104770000Y-121290000D03*
X104770000Y-123830000D03*
X104770000Y-126370000D03*
X104770000Y-128910000D03*
X104770000Y-131450000D03*
X104770000Y-133990000D03*
X104770000Y-136530000D03*
X104770000Y-139070000D03*
X104770000Y-141610000D03*
X104770000Y-144150000D03*
X104770000Y-146690000D03*
X120010000Y-146690000D03*
X120010000Y-144150000D03*
X120010000Y-141610000D03*
X120010000Y-139070000D03*
X120010000Y-136530000D03*
X120010000Y-133990000D03*
X120010000Y-131450000D03*
X120010000Y-128910000D03*
X120010000Y-126370000D03*
X120010000Y-123830000D03*
X120010000Y-121290000D03*
X120010000Y-118750000D03*
X120010000Y-116210000D03*
X120010000Y-113670000D03*
X120010000Y-111130000D03*
X120010000Y-108590000D03*
X120010000Y-106050000D03*
X120010000Y-103510000D03*
X120010000Y-100970000D03*
X120010000Y-98430000D03*
%TD*%
D14*
%TO.C,A1*%
X93345000Y-139065000D03*
D15*
X93345000Y-136525000D03*
X93345000Y-133985000D03*
X93345000Y-131445000D03*
X93345000Y-128905000D03*
X93345000Y-126365000D03*
X93345000Y-123825000D03*
X93345000Y-121285000D03*
X93345000Y-118745000D03*
X93345000Y-116205000D03*
X93345000Y-113665000D03*
X93345000Y-111125000D03*
X93345000Y-108585000D03*
X93345000Y-106045000D03*
X93345000Y-103505000D03*
X78105000Y-103505000D03*
X78105000Y-106045000D03*
X78105000Y-108585000D03*
X78105000Y-111125000D03*
X78105000Y-113665000D03*
X78105000Y-116205000D03*
X78105000Y-118745000D03*
X78105000Y-121285000D03*
X78105000Y-123825000D03*
X78105000Y-126365000D03*
X78105000Y-128905000D03*
X78105000Y-131445000D03*
X78105000Y-133985000D03*
X78105000Y-136525000D03*
X78105000Y-139065000D03*
%TD*%
D16*
%TO.C,J6*%
X97155000Y-111125000D03*
%TD*%
%TO.C,J2*%
X101092000Y-136525000D03*
%TD*%
%TO.C,J8*%
X98552000Y-136525000D03*
%TD*%
%TO.C,J10*%
X97155000Y-116840000D03*
%TD*%
D17*
%TO.C,R1*%
X96618000Y-141605000D03*
D15*
X99158000Y-141605000D03*
%TD*%
D16*
%TO.C,J1*%
X100965000Y-131445000D03*
%TD*%
%TO.C,J11*%
X99695000Y-116840000D03*
%TD*%
D18*
%TO.C,U2*%
X142230000Y-104140000D03*
D19*
X142230000Y-106680000D03*
X142230000Y-109220000D03*
X142230000Y-111760000D03*
X142230000Y-114300000D03*
X142230000Y-116840000D03*
X142230000Y-119380000D03*
X142230000Y-121920000D03*
X142230000Y-124460000D03*
X142230000Y-127000000D03*
X142230000Y-129540000D03*
X142230000Y-132080000D03*
X142230000Y-134620000D03*
X142230000Y-137160000D03*
X157470000Y-137160000D03*
X157470000Y-134620000D03*
X157470000Y-132080000D03*
X157470000Y-129540000D03*
X157470000Y-127000000D03*
X157470000Y-124460000D03*
X157470000Y-121920000D03*
X157470000Y-119380000D03*
X157470000Y-116840000D03*
X157470000Y-114300000D03*
X157470000Y-111760000D03*
X157470000Y-109220000D03*
X157470000Y-106680000D03*
X157470000Y-104140000D03*
%TD*%
D16*
%TO.C,J4*%
X99695000Y-111125000D03*
%TD*%
%TO.C,J7*%
X97155000Y-106045000D03*
%TD*%
D20*
%TO.C,REF\u002A\u002A*%
X78105000Y-98425000D03*
%TD*%
D17*
%TO.C,C1*%
X125095000Y-136525000D03*
D15*
X125095000Y-144025000D03*
%TD*%
D20*
%TO.C,REF\u002A\u002A*%
X160645000Y-146685000D03*
%TD*%
D14*
%TO.C,U3*%
X125730000Y-106045000D03*
D15*
X125730000Y-108585000D03*
X125730000Y-111125000D03*
X125730000Y-113665000D03*
X125730000Y-116205000D03*
X125730000Y-118745000D03*
X125730000Y-121285000D03*
X125730000Y-123825000D03*
X125730000Y-126365000D03*
X125730000Y-128905000D03*
X133350000Y-128905000D03*
X133350000Y-126365000D03*
X133350000Y-123825000D03*
X133350000Y-121285000D03*
X133350000Y-118745000D03*
X133350000Y-116205000D03*
X133350000Y-113665000D03*
X133350000Y-111125000D03*
X133350000Y-108585000D03*
X133350000Y-106045000D03*
%TD*%
D16*
%TO.C,J3*%
X99695000Y-106045000D03*
%TD*%
%TO.C,J5*%
X161280000Y-114300000D03*
D21*
X161280000Y-116840000D03*
X161280000Y-119380000D03*
%TD*%
D22*
%TO.C,D1*%
X96515000Y-146685000D03*
D23*
X99055000Y-146685000D03*
%TD*%
D17*
%TO.C,R2*%
X122555000Y-104775000D03*
D15*
X122555000Y-107315000D03*
%TD*%
D17*
%TO.C,C2*%
X83947000Y-148911000D03*
D15*
X83947000Y-141411000D03*
%TD*%
D20*
%TO.C,REF\u002A\u002A*%
X160645000Y-98425000D03*
%TD*%
%TO.C,REF\u002A\u002A*%
X78105000Y-146685000D03*
%TD*%
D16*
%TO.C,J9*%
X98425000Y-131445000D03*
%TD*%
M02*
