%TF.GenerationSoftware,KiCad,Pcbnew,(6.0.0)*%
%TF.CreationDate,2023-01-31T14:46:14-05:00*%
%TF.ProjectId,dumper,64756d70-6572-42e6-9b69-6361645f7063,rev?*%
%TF.SameCoordinates,Original*%
%TF.FileFunction,Soldermask,Bot*%
%TF.FilePolarity,Negative*%
%FSLAX46Y46*%
G04 Gerber Fmt 4.6, Leading zero omitted, Abs format (unit mm)*
G04 Created by KiCad (PCBNEW (6.0.0)) date 2023-01-31 14:46:14*
%MOMM*%
%LPD*%
G01*
G04 APERTURE LIST*
%ADD10C,1.700000*%
%ADD11R,1.600000X1.600000*%
%ADD12O,1.600000X1.600000*%
%ADD13R,1.700000X1.700000*%
%ADD14C,1.600000*%
%ADD15R,1.295400X1.295400*%
%ADD16C,1.295400*%
%ADD17C,3.200000*%
%ADD18O,1.700000X1.700000*%
%ADD19R,1.800000X1.800000*%
%ADD20C,1.800000*%
G04 APERTURE END LIST*
D10*
%TO.C,SW1*%
X93293000Y-148808000D03*
X86793000Y-148808000D03*
X93293000Y-144308000D03*
X86793000Y-144308000D03*
%TD*%
D11*
%TO.C,U4*%
X104770000Y-98430000D03*
D12*
X104770000Y-100970000D03*
X104770000Y-103510000D03*
X104770000Y-106050000D03*
X104770000Y-108590000D03*
X104770000Y-111130000D03*
X104770000Y-113670000D03*
X104770000Y-116210000D03*
X104770000Y-118750000D03*
X104770000Y-121290000D03*
X104770000Y-123830000D03*
X104770000Y-126370000D03*
X104770000Y-128910000D03*
X104770000Y-131450000D03*
X104770000Y-133990000D03*
X104770000Y-136530000D03*
X104770000Y-139070000D03*
X104770000Y-141610000D03*
X104770000Y-144150000D03*
X104770000Y-146690000D03*
X120010000Y-146690000D03*
X120010000Y-144150000D03*
X120010000Y-141610000D03*
X120010000Y-139070000D03*
X120010000Y-136530000D03*
X120010000Y-133990000D03*
X120010000Y-131450000D03*
X120010000Y-128910000D03*
X120010000Y-126370000D03*
X120010000Y-123830000D03*
X120010000Y-121290000D03*
X120010000Y-118750000D03*
X120010000Y-116210000D03*
X120010000Y-113670000D03*
X120010000Y-111130000D03*
X120010000Y-108590000D03*
X120010000Y-106050000D03*
X120010000Y-103510000D03*
X120010000Y-100970000D03*
X120010000Y-98430000D03*
%TD*%
D11*
%TO.C,A1*%
X93345000Y-139065000D03*
D12*
X93345000Y-136525000D03*
X93345000Y-133985000D03*
X93345000Y-131445000D03*
X93345000Y-128905000D03*
X93345000Y-126365000D03*
X93345000Y-123825000D03*
X93345000Y-121285000D03*
X93345000Y-118745000D03*
X93345000Y-116205000D03*
X93345000Y-113665000D03*
X93345000Y-111125000D03*
X93345000Y-108585000D03*
X93345000Y-106045000D03*
X93345000Y-103505000D03*
X78105000Y-103505000D03*
X78105000Y-106045000D03*
X78105000Y-108585000D03*
X78105000Y-111125000D03*
X78105000Y-113665000D03*
X78105000Y-116205000D03*
X78105000Y-118745000D03*
X78105000Y-121285000D03*
X78105000Y-123825000D03*
X78105000Y-126365000D03*
X78105000Y-128905000D03*
X78105000Y-131445000D03*
X78105000Y-133985000D03*
X78105000Y-136525000D03*
X78105000Y-139065000D03*
%TD*%
D13*
%TO.C,J6*%
X97155000Y-111125000D03*
%TD*%
%TO.C,J2*%
X101092000Y-136525000D03*
%TD*%
%TO.C,J8*%
X98552000Y-136525000D03*
%TD*%
%TO.C,J10*%
X97155000Y-116840000D03*
%TD*%
D14*
%TO.C,R1*%
X96618000Y-141605000D03*
D12*
X99158000Y-141605000D03*
%TD*%
D13*
%TO.C,J1*%
X100965000Y-131445000D03*
%TD*%
%TO.C,J11*%
X99695000Y-116840000D03*
%TD*%
D15*
%TO.C,U2*%
X142230000Y-104140000D03*
D16*
X142230000Y-106680000D03*
X142230000Y-109220000D03*
X142230000Y-111760000D03*
X142230000Y-114300000D03*
X142230000Y-116840000D03*
X142230000Y-119380000D03*
X142230000Y-121920000D03*
X142230000Y-124460000D03*
X142230000Y-127000000D03*
X142230000Y-129540000D03*
X142230000Y-132080000D03*
X142230000Y-134620000D03*
X142230000Y-137160000D03*
X157470000Y-137160000D03*
X157470000Y-134620000D03*
X157470000Y-132080000D03*
X157470000Y-129540000D03*
X157470000Y-127000000D03*
X157470000Y-124460000D03*
X157470000Y-121920000D03*
X157470000Y-119380000D03*
X157470000Y-116840000D03*
X157470000Y-114300000D03*
X157470000Y-111760000D03*
X157470000Y-109220000D03*
X157470000Y-106680000D03*
X157470000Y-104140000D03*
%TD*%
D13*
%TO.C,J4*%
X99695000Y-111125000D03*
%TD*%
%TO.C,J7*%
X97155000Y-106045000D03*
%TD*%
D17*
%TO.C,REF\u002A\u002A*%
X78105000Y-98425000D03*
%TD*%
D14*
%TO.C,C1*%
X125095000Y-136525000D03*
D12*
X125095000Y-144025000D03*
%TD*%
D17*
%TO.C,REF\u002A\u002A*%
X160645000Y-146685000D03*
%TD*%
D11*
%TO.C,U3*%
X125730000Y-106045000D03*
D12*
X125730000Y-108585000D03*
X125730000Y-111125000D03*
X125730000Y-113665000D03*
X125730000Y-116205000D03*
X125730000Y-118745000D03*
X125730000Y-121285000D03*
X125730000Y-123825000D03*
X125730000Y-126365000D03*
X125730000Y-128905000D03*
X133350000Y-128905000D03*
X133350000Y-126365000D03*
X133350000Y-123825000D03*
X133350000Y-121285000D03*
X133350000Y-118745000D03*
X133350000Y-116205000D03*
X133350000Y-113665000D03*
X133350000Y-111125000D03*
X133350000Y-108585000D03*
X133350000Y-106045000D03*
%TD*%
D13*
%TO.C,J3*%
X99695000Y-106045000D03*
%TD*%
%TO.C,J5*%
X161280000Y-114300000D03*
D18*
X161280000Y-116840000D03*
X161280000Y-119380000D03*
%TD*%
D19*
%TO.C,D1*%
X96515000Y-146685000D03*
D20*
X99055000Y-146685000D03*
%TD*%
D14*
%TO.C,R2*%
X122555000Y-104775000D03*
D12*
X122555000Y-107315000D03*
%TD*%
D14*
%TO.C,C2*%
X83947000Y-148911000D03*
D12*
X83947000Y-141411000D03*
%TD*%
D17*
%TO.C,REF\u002A\u002A*%
X160645000Y-98425000D03*
%TD*%
%TO.C,REF\u002A\u002A*%
X78105000Y-146685000D03*
%TD*%
D13*
%TO.C,J9*%
X98425000Y-131445000D03*
%TD*%
M02*
