M48
; DRILL file {KiCad (6.0.4)} date Fri Dec 30 23:39:38 2022
; FORMAT={-:-/ absolute / metric / decimal}
; #@! TF.CreationDate,2022-12-30T23:39:38-05:00
; #@! TF.GenerationSoftware,Kicad,Pcbnew,(6.0.4)
; #@! TF.FileFunction,Plated,1,2,PTH
FMAT,2
METRIC
; #@! TA.AperFunction,Plated,PTH,ComponentDrill
T1C0.800
%
G90
G05
T1
X118.851Y-64.897
X118.851Y-67.437
X118.851Y-69.977
X118.851Y-72.517
X118.851Y-75.057
X118.851Y-77.597
X120.116Y-48.532
X120.116Y-51.072
X120.116Y-53.611
X120.116Y-56.151
X120.116Y-58.691
X120.116Y-61.231
X120.116Y-63.771
X120.116Y-66.311
X120.116Y-68.852
X120.116Y-71.391
X120.116Y-73.931
X120.116Y-76.471
X120.116Y-79.011
X120.116Y-81.551
X120.116Y-84.091
X120.116Y-86.632
X120.116Y-89.171
X120.116Y-91.712
X120.116Y-94.251
X120.116Y-96.791
X121.391Y-62.357
X121.391Y-64.897
X121.391Y-67.437
X121.391Y-69.977
X121.391Y-72.517
X121.391Y-75.057
X121.391Y-77.597
X121.391Y-80.137
X123.931Y-62.357
X123.931Y-64.897
X123.931Y-77.597
X123.931Y-80.137
X126.471Y-62.357
X126.471Y-64.897
X126.471Y-77.597
X126.471Y-80.137
X129.011Y-62.357
X129.011Y-64.897
X129.011Y-77.597
X129.011Y-80.137
X131.551Y-62.357
X131.551Y-64.897
X131.551Y-77.597
X131.551Y-80.137
X134.091Y-62.357
X134.091Y-64.897
X134.091Y-67.437
X134.091Y-69.977
X134.091Y-72.517
X134.091Y-75.057
X134.091Y-77.597
X134.091Y-80.137
X135.356Y-48.532
X135.356Y-51.072
X135.356Y-53.611
X135.356Y-56.151
X135.356Y-58.691
X135.356Y-61.231
X135.356Y-63.771
X135.356Y-66.311
X135.356Y-68.852
X135.356Y-71.391
X135.356Y-73.931
X135.356Y-76.471
X135.356Y-79.011
X135.356Y-81.551
X135.356Y-84.091
X135.356Y-86.632
X135.356Y-89.171
X135.356Y-91.712
X135.356Y-94.251
X135.356Y-96.791
X136.631Y-64.897
X136.631Y-67.437
X136.631Y-69.977
X136.631Y-72.517
X136.631Y-75.057
X136.631Y-77.597
T0
M30
