%FSLAX45Y45*%
G04 Gerber Fmt 4.5, Leading zero omitted, Abs format (unit mm)*
G04 Created by KiCad (PCBNEW (6.0.0)) date 2023-01-29 20:39:41*
%MOMM*%
%LPD*%
G01*
G04 APERTURE LIST*
%TA.AperFunction,Profile*%
%ADD10C,0.100000*%
%TD*%
%ADD11C,0.200000*%
%ADD12C,0.040000*%
%ADD13C,0.080000*%
G04 APERTURE END LIST*
D10*
X14655800Y-3733800D02*
X14655800Y-11963400D01*
X12115800Y-3733800D02*
X14655800Y-3733800D01*
X12115800Y-11963400D02*
X11430000Y-10287000D01*
X11430000Y-5105400D02*
X12115800Y-3733800D01*
X11430000Y-10287000D02*
X11430000Y-5105400D01*
X14655800Y-11963400D02*
X12115800Y-11963400D01*
D11*
D12*
X12502200Y-5415600D02*
X12542200Y-5455600D01*
X12542200Y-5415600D02*
X12502200Y-5455600D01*
X13975400Y-9479600D02*
X14015400Y-9519600D01*
X14015400Y-9479600D02*
X13975400Y-9519600D01*
X14000800Y-9733600D02*
X14040800Y-9773600D01*
X14040800Y-9733600D02*
X14000800Y-9773600D01*
X14026200Y-9225600D02*
X14066200Y-9265600D01*
X14066200Y-9225600D02*
X14026200Y-9265600D01*
X14204000Y-8641400D02*
X14244000Y-8681400D01*
X14244000Y-8641400D02*
X14204000Y-8681400D01*
X14305600Y-5161600D02*
X14345600Y-5201600D01*
X14345600Y-5161600D02*
X14305600Y-5201600D01*
D13*
X11596500Y-5283700D02*
G75*
G03*
X11596500Y-5283700I-40000J0D01*
G01*
X11596500Y-5537700D02*
G75*
G03*
X11596500Y-5537700I-40000J0D01*
G01*
X11596500Y-5791700D02*
G75*
G03*
X11596500Y-5791700I-40000J0D01*
G01*
X11596500Y-6045700D02*
G75*
G03*
X11596500Y-6045700I-40000J0D01*
G01*
X11596500Y-6299700D02*
G75*
G03*
X11596500Y-6299700I-40000J0D01*
G01*
X11596500Y-6553700D02*
G75*
G03*
X11596500Y-6553700I-40000J0D01*
G01*
X11596500Y-6807700D02*
G75*
G03*
X11596500Y-6807700I-40000J0D01*
G01*
X11596500Y-7061700D02*
G75*
G03*
X11596500Y-7061700I-40000J0D01*
G01*
X11596500Y-7315700D02*
G75*
G03*
X11596500Y-7315700I-40000J0D01*
G01*
X11596500Y-7569700D02*
G75*
G03*
X11596500Y-7569700I-40000J0D01*
G01*
X11596500Y-7823700D02*
G75*
G03*
X11596500Y-7823700I-40000J0D01*
G01*
X11596500Y-8077700D02*
G75*
G03*
X11596500Y-8077700I-40000J0D01*
G01*
X11596500Y-8331700D02*
G75*
G03*
X11596500Y-8331700I-40000J0D01*
G01*
X11596500Y-8585700D02*
G75*
G03*
X11596500Y-8585700I-40000J0D01*
G01*
X11596500Y-8839700D02*
G75*
G03*
X11596500Y-8839700I-40000J0D01*
G01*
X11596500Y-9093700D02*
G75*
G03*
X11596500Y-9093700I-40000J0D01*
G01*
X11596500Y-9347700D02*
G75*
G03*
X11596500Y-9347700I-40000J0D01*
G01*
X11596500Y-9601700D02*
G75*
G03*
X11596500Y-9601700I-40000J0D01*
G01*
X11596500Y-9855700D02*
G75*
G03*
X11596500Y-9855700I-40000J0D01*
G01*
X11596500Y-10109700D02*
G75*
G03*
X11596500Y-10109700I-40000J0D01*
G01*
X12282800Y-3911600D02*
G75*
G03*
X12282800Y-3911600I-40000J0D01*
G01*
X12282800Y-4165600D02*
G75*
G03*
X12282800Y-4165600I-40000J0D01*
G01*
X12282800Y-4419600D02*
G75*
G03*
X12282800Y-4419600I-40000J0D01*
G01*
X12282800Y-4673600D02*
G75*
G03*
X12282800Y-4673600I-40000J0D01*
G01*
X12282800Y-4927600D02*
G75*
G03*
X12282800Y-4927600I-40000J0D01*
G01*
X12282800Y-5181600D02*
G75*
G03*
X12282800Y-5181600I-40000J0D01*
G01*
X12282800Y-5435600D02*
G75*
G03*
X12282800Y-5435600I-40000J0D01*
G01*
X12282800Y-5689600D02*
G75*
G03*
X12282800Y-5689600I-40000J0D01*
G01*
X12282800Y-5943600D02*
G75*
G03*
X12282800Y-5943600I-40000J0D01*
G01*
X12282800Y-6197600D02*
G75*
G03*
X12282800Y-6197600I-40000J0D01*
G01*
X12282800Y-6451600D02*
G75*
G03*
X12282800Y-6451600I-40000J0D01*
G01*
X12282800Y-6705600D02*
G75*
G03*
X12282800Y-6705600I-40000J0D01*
G01*
X12282800Y-6959600D02*
G75*
G03*
X12282800Y-6959600I-40000J0D01*
G01*
X12282800Y-7213600D02*
G75*
G03*
X12282800Y-7213600I-40000J0D01*
G01*
X12282800Y-7467600D02*
G75*
G03*
X12282800Y-7467600I-40000J0D01*
G01*
X12282800Y-7721600D02*
G75*
G03*
X12282800Y-7721600I-40000J0D01*
G01*
X12282800Y-7975600D02*
G75*
G03*
X12282800Y-7975600I-40000J0D01*
G01*
X12282800Y-8229600D02*
G75*
G03*
X12282800Y-8229600I-40000J0D01*
G01*
X12282800Y-8483600D02*
G75*
G03*
X12282800Y-8483600I-40000J0D01*
G01*
X12282800Y-8737600D02*
G75*
G03*
X12282800Y-8737600I-40000J0D01*
G01*
X12282800Y-8991600D02*
G75*
G03*
X12282800Y-8991600I-40000J0D01*
G01*
X12282800Y-9245600D02*
G75*
G03*
X12282800Y-9245600I-40000J0D01*
G01*
X12282800Y-9499600D02*
G75*
G03*
X12282800Y-9499600I-40000J0D01*
G01*
X12282800Y-9753600D02*
G75*
G03*
X12282800Y-9753600I-40000J0D01*
G01*
X12282800Y-10007600D02*
G75*
G03*
X12282800Y-10007600I-40000J0D01*
G01*
X12282800Y-10261600D02*
G75*
G03*
X12282800Y-10261600I-40000J0D01*
G01*
X12282800Y-10515600D02*
G75*
G03*
X12282800Y-10515600I-40000J0D01*
G01*
X12282800Y-10769600D02*
G75*
G03*
X12282800Y-10769600I-40000J0D01*
G01*
X12282800Y-11023600D02*
G75*
G03*
X12282800Y-11023600I-40000J0D01*
G01*
X12282800Y-11277600D02*
G75*
G03*
X12282800Y-11277600I-40000J0D01*
G01*
X12282800Y-11531600D02*
G75*
G03*
X12282800Y-11531600I-40000J0D01*
G01*
X12282800Y-11785600D02*
G75*
G03*
X12282800Y-11785600I-40000J0D01*
G01*
X13120500Y-5283700D02*
G75*
G03*
X13120500Y-5283700I-40000J0D01*
G01*
X13120500Y-5537700D02*
G75*
G03*
X13120500Y-5537700I-40000J0D01*
G01*
X13120500Y-5791700D02*
G75*
G03*
X13120500Y-5791700I-40000J0D01*
G01*
X13120500Y-6045700D02*
G75*
G03*
X13120500Y-6045700I-40000J0D01*
G01*
X13120500Y-6299700D02*
G75*
G03*
X13120500Y-6299700I-40000J0D01*
G01*
X13120500Y-6553700D02*
G75*
G03*
X13120500Y-6553700I-40000J0D01*
G01*
X13120500Y-6807700D02*
G75*
G03*
X13120500Y-6807700I-40000J0D01*
G01*
X13120500Y-7061700D02*
G75*
G03*
X13120500Y-7061700I-40000J0D01*
G01*
X13120500Y-7315700D02*
G75*
G03*
X13120500Y-7315700I-40000J0D01*
G01*
X13120500Y-7569700D02*
G75*
G03*
X13120500Y-7569700I-40000J0D01*
G01*
X13120500Y-7823700D02*
G75*
G03*
X13120500Y-7823700I-40000J0D01*
G01*
X13120500Y-8077700D02*
G75*
G03*
X13120500Y-8077700I-40000J0D01*
G01*
X13120500Y-8331700D02*
G75*
G03*
X13120500Y-8331700I-40000J0D01*
G01*
X13120500Y-8585700D02*
G75*
G03*
X13120500Y-8585700I-40000J0D01*
G01*
X13120500Y-8839700D02*
G75*
G03*
X13120500Y-8839700I-40000J0D01*
G01*
X13120500Y-9093700D02*
G75*
G03*
X13120500Y-9093700I-40000J0D01*
G01*
X13120500Y-9347700D02*
G75*
G03*
X13120500Y-9347700I-40000J0D01*
G01*
X13120500Y-9601700D02*
G75*
G03*
X13120500Y-9601700I-40000J0D01*
G01*
X13120500Y-9855700D02*
G75*
G03*
X13120500Y-9855700I-40000J0D01*
G01*
X13120500Y-10109700D02*
G75*
G03*
X13120500Y-10109700I-40000J0D01*
G01*
X14568800Y-3911600D02*
G75*
G03*
X14568800Y-3911600I-40000J0D01*
G01*
X14568800Y-4165600D02*
G75*
G03*
X14568800Y-4165600I-40000J0D01*
G01*
X14568800Y-4419600D02*
G75*
G03*
X14568800Y-4419600I-40000J0D01*
G01*
X14568800Y-4673600D02*
G75*
G03*
X14568800Y-4673600I-40000J0D01*
G01*
X14568800Y-4927600D02*
G75*
G03*
X14568800Y-4927600I-40000J0D01*
G01*
X14568800Y-5181600D02*
G75*
G03*
X14568800Y-5181600I-40000J0D01*
G01*
X14568800Y-5435600D02*
G75*
G03*
X14568800Y-5435600I-40000J0D01*
G01*
X14568800Y-5689600D02*
G75*
G03*
X14568800Y-5689600I-40000J0D01*
G01*
X14568800Y-5943600D02*
G75*
G03*
X14568800Y-5943600I-40000J0D01*
G01*
X14568800Y-6197600D02*
G75*
G03*
X14568800Y-6197600I-40000J0D01*
G01*
X14568800Y-6451600D02*
G75*
G03*
X14568800Y-6451600I-40000J0D01*
G01*
X14568800Y-6705600D02*
G75*
G03*
X14568800Y-6705600I-40000J0D01*
G01*
X14568800Y-6959600D02*
G75*
G03*
X14568800Y-6959600I-40000J0D01*
G01*
X14568800Y-7213600D02*
G75*
G03*
X14568800Y-7213600I-40000J0D01*
G01*
X14568800Y-7467600D02*
G75*
G03*
X14568800Y-7467600I-40000J0D01*
G01*
X14568800Y-7721600D02*
G75*
G03*
X14568800Y-7721600I-40000J0D01*
G01*
X14568800Y-7975600D02*
G75*
G03*
X14568800Y-7975600I-40000J0D01*
G01*
X14568800Y-8229600D02*
G75*
G03*
X14568800Y-8229600I-40000J0D01*
G01*
X14568800Y-8483600D02*
G75*
G03*
X14568800Y-8483600I-40000J0D01*
G01*
X14568800Y-8737600D02*
G75*
G03*
X14568800Y-8737600I-40000J0D01*
G01*
X14568800Y-8991600D02*
G75*
G03*
X14568800Y-8991600I-40000J0D01*
G01*
X14568800Y-9245600D02*
G75*
G03*
X14568800Y-9245600I-40000J0D01*
G01*
X14568800Y-9499600D02*
G75*
G03*
X14568800Y-9499600I-40000J0D01*
G01*
X14568800Y-9753600D02*
G75*
G03*
X14568800Y-9753600I-40000J0D01*
G01*
X14568800Y-10007600D02*
G75*
G03*
X14568800Y-10007600I-40000J0D01*
G01*
X14568800Y-10261600D02*
G75*
G03*
X14568800Y-10261600I-40000J0D01*
G01*
X14568800Y-10515600D02*
G75*
G03*
X14568800Y-10515600I-40000J0D01*
G01*
X14568800Y-10769600D02*
G75*
G03*
X14568800Y-10769600I-40000J0D01*
G01*
X14568800Y-11023600D02*
G75*
G03*
X14568800Y-11023600I-40000J0D01*
G01*
X14568800Y-11277600D02*
G75*
G03*
X14568800Y-11277600I-40000J0D01*
G01*
X14568800Y-11531600D02*
G75*
G03*
X14568800Y-11531600I-40000J0D01*
G01*
X14568800Y-11785600D02*
G75*
G03*
X14568800Y-11785600I-40000J0D01*
G01*
D11*
X11682619Y-12278876D02*
X11682619Y-12078876D01*
X11730238Y-12078876D01*
X11758809Y-12088400D01*
X11777857Y-12107448D01*
X11787381Y-12126495D01*
X11796905Y-12164590D01*
X11796905Y-12193162D01*
X11787381Y-12231257D01*
X11777857Y-12250305D01*
X11758809Y-12269352D01*
X11730238Y-12278876D01*
X11682619Y-12278876D01*
X11882619Y-12278876D02*
X11882619Y-12145543D01*
X11882619Y-12183638D02*
X11892143Y-12164590D01*
X11901667Y-12155067D01*
X11920714Y-12145543D01*
X11939762Y-12145543D01*
X12006428Y-12278876D02*
X12006428Y-12145543D01*
X12006428Y-12078876D02*
X11996905Y-12088400D01*
X12006428Y-12097924D01*
X12015952Y-12088400D01*
X12006428Y-12078876D01*
X12006428Y-12097924D01*
X12130238Y-12278876D02*
X12111190Y-12269352D01*
X12101667Y-12250305D01*
X12101667Y-12078876D01*
X12235000Y-12278876D02*
X12215952Y-12269352D01*
X12206428Y-12250305D01*
X12206428Y-12078876D01*
X12463571Y-12278876D02*
X12463571Y-12078876D01*
X12530238Y-12221733D01*
X12596905Y-12078876D01*
X12596905Y-12278876D01*
X12777857Y-12278876D02*
X12777857Y-12174114D01*
X12768333Y-12155067D01*
X12749286Y-12145543D01*
X12711190Y-12145543D01*
X12692143Y-12155067D01*
X12777857Y-12269352D02*
X12758809Y-12278876D01*
X12711190Y-12278876D01*
X12692143Y-12269352D01*
X12682619Y-12250305D01*
X12682619Y-12231257D01*
X12692143Y-12212209D01*
X12711190Y-12202686D01*
X12758809Y-12202686D01*
X12777857Y-12193162D01*
X12873095Y-12145543D02*
X12873095Y-12345543D01*
X12873095Y-12155067D02*
X12892143Y-12145543D01*
X12930238Y-12145543D01*
X12949286Y-12155067D01*
X12958809Y-12164590D01*
X12968333Y-12183638D01*
X12968333Y-12240781D01*
X12958809Y-12259828D01*
X12949286Y-12269352D01*
X12930238Y-12278876D01*
X12892143Y-12278876D01*
X12873095Y-12269352D01*
X13054048Y-12259828D02*
X13063571Y-12269352D01*
X13054048Y-12278876D01*
X13044524Y-12269352D01*
X13054048Y-12259828D01*
X13054048Y-12278876D01*
X13054048Y-12155067D02*
X13063571Y-12164590D01*
X13054048Y-12174114D01*
X13044524Y-12164590D01*
X13054048Y-12155067D01*
X13054048Y-12174114D01*
D12*
X11385000Y-12588400D02*
X11425000Y-12628400D01*
X11425000Y-12588400D02*
X11385000Y-12628400D01*
D11*
X11720714Y-12498876D02*
X11739762Y-12498876D01*
X11758809Y-12508400D01*
X11768333Y-12517924D01*
X11777857Y-12536971D01*
X11787381Y-12575067D01*
X11787381Y-12622686D01*
X11777857Y-12660781D01*
X11768333Y-12679828D01*
X11758809Y-12689352D01*
X11739762Y-12698876D01*
X11720714Y-12698876D01*
X11701667Y-12689352D01*
X11692143Y-12679828D01*
X11682619Y-12660781D01*
X11673095Y-12622686D01*
X11673095Y-12575067D01*
X11682619Y-12536971D01*
X11692143Y-12517924D01*
X11701667Y-12508400D01*
X11720714Y-12498876D01*
X11873095Y-12679828D02*
X11882619Y-12689352D01*
X11873095Y-12698876D01*
X11863571Y-12689352D01*
X11873095Y-12679828D01*
X11873095Y-12698876D01*
X12054048Y-12565543D02*
X12054048Y-12698876D01*
X12006428Y-12489352D02*
X11958809Y-12632209D01*
X12082619Y-12632209D01*
X12196905Y-12498876D02*
X12215952Y-12498876D01*
X12235000Y-12508400D01*
X12244524Y-12517924D01*
X12254048Y-12536971D01*
X12263571Y-12575067D01*
X12263571Y-12622686D01*
X12254048Y-12660781D01*
X12244524Y-12679828D01*
X12235000Y-12689352D01*
X12215952Y-12698876D01*
X12196905Y-12698876D01*
X12177857Y-12689352D01*
X12168333Y-12679828D01*
X12158809Y-12660781D01*
X12149286Y-12622686D01*
X12149286Y-12575067D01*
X12158809Y-12536971D01*
X12168333Y-12517924D01*
X12177857Y-12508400D01*
X12196905Y-12498876D01*
X12387381Y-12498876D02*
X12406428Y-12498876D01*
X12425476Y-12508400D01*
X12435000Y-12517924D01*
X12444524Y-12536971D01*
X12454048Y-12575067D01*
X12454048Y-12622686D01*
X12444524Y-12660781D01*
X12435000Y-12679828D01*
X12425476Y-12689352D01*
X12406428Y-12698876D01*
X12387381Y-12698876D01*
X12368333Y-12689352D01*
X12358809Y-12679828D01*
X12349286Y-12660781D01*
X12339762Y-12622686D01*
X12339762Y-12575067D01*
X12349286Y-12536971D01*
X12358809Y-12517924D01*
X12368333Y-12508400D01*
X12387381Y-12498876D01*
X12539762Y-12698876D02*
X12539762Y-12565543D01*
X12539762Y-12584590D02*
X12549286Y-12575067D01*
X12568333Y-12565543D01*
X12596905Y-12565543D01*
X12615952Y-12575067D01*
X12625476Y-12594114D01*
X12625476Y-12698876D01*
X12625476Y-12594114D02*
X12635000Y-12575067D01*
X12654048Y-12565543D01*
X12682619Y-12565543D01*
X12701667Y-12575067D01*
X12711190Y-12594114D01*
X12711190Y-12698876D01*
X12806428Y-12698876D02*
X12806428Y-12565543D01*
X12806428Y-12584590D02*
X12815952Y-12575067D01*
X12835000Y-12565543D01*
X12863571Y-12565543D01*
X12882619Y-12575067D01*
X12892143Y-12594114D01*
X12892143Y-12698876D01*
X12892143Y-12594114D02*
X12901667Y-12575067D01*
X12920714Y-12565543D01*
X12949286Y-12565543D01*
X12968333Y-12575067D01*
X12977857Y-12594114D01*
X12977857Y-12698876D01*
X13368333Y-12489352D02*
X13196905Y-12746495D01*
X13625476Y-12498876D02*
X13644524Y-12498876D01*
X13663571Y-12508400D01*
X13673095Y-12517924D01*
X13682619Y-12536971D01*
X13692143Y-12575067D01*
X13692143Y-12622686D01*
X13682619Y-12660781D01*
X13673095Y-12679828D01*
X13663571Y-12689352D01*
X13644524Y-12698876D01*
X13625476Y-12698876D01*
X13606428Y-12689352D01*
X13596905Y-12679828D01*
X13587381Y-12660781D01*
X13577857Y-12622686D01*
X13577857Y-12575067D01*
X13587381Y-12536971D01*
X13596905Y-12517924D01*
X13606428Y-12508400D01*
X13625476Y-12498876D01*
X13777857Y-12679828D02*
X13787381Y-12689352D01*
X13777857Y-12698876D01*
X13768333Y-12689352D01*
X13777857Y-12679828D01*
X13777857Y-12698876D01*
X13911190Y-12498876D02*
X13930238Y-12498876D01*
X13949286Y-12508400D01*
X13958809Y-12517924D01*
X13968333Y-12536971D01*
X13977857Y-12575067D01*
X13977857Y-12622686D01*
X13968333Y-12660781D01*
X13958809Y-12679828D01*
X13949286Y-12689352D01*
X13930238Y-12698876D01*
X13911190Y-12698876D01*
X13892143Y-12689352D01*
X13882619Y-12679828D01*
X13873095Y-12660781D01*
X13863571Y-12622686D01*
X13863571Y-12575067D01*
X13873095Y-12536971D01*
X13882619Y-12517924D01*
X13892143Y-12508400D01*
X13911190Y-12498876D01*
X14168333Y-12698876D02*
X14054048Y-12698876D01*
X14111190Y-12698876D02*
X14111190Y-12498876D01*
X14092143Y-12527448D01*
X14073095Y-12546495D01*
X14054048Y-12556019D01*
X14349286Y-12498876D02*
X14254048Y-12498876D01*
X14244524Y-12594114D01*
X14254048Y-12584590D01*
X14273095Y-12575067D01*
X14320714Y-12575067D01*
X14339762Y-12584590D01*
X14349286Y-12594114D01*
X14358809Y-12613162D01*
X14358809Y-12660781D01*
X14349286Y-12679828D01*
X14339762Y-12689352D01*
X14320714Y-12698876D01*
X14273095Y-12698876D01*
X14254048Y-12689352D01*
X14244524Y-12679828D01*
X14425476Y-12498876D02*
X14558809Y-12498876D01*
X14473095Y-12698876D01*
X14625476Y-12498876D02*
X14625476Y-12536971D01*
X14701667Y-12498876D02*
X14701667Y-12536971D01*
X14996905Y-12775067D02*
X14987381Y-12765543D01*
X14968333Y-12736971D01*
X14958809Y-12717924D01*
X14949286Y-12689352D01*
X14939762Y-12641733D01*
X14939762Y-12603638D01*
X14949286Y-12556019D01*
X14958809Y-12527448D01*
X14968333Y-12508400D01*
X14987381Y-12479828D01*
X14996905Y-12470305D01*
X15158809Y-12498876D02*
X15120714Y-12498876D01*
X15101667Y-12508400D01*
X15092143Y-12517924D01*
X15073095Y-12546495D01*
X15063571Y-12584590D01*
X15063571Y-12660781D01*
X15073095Y-12679828D01*
X15082619Y-12689352D01*
X15101667Y-12698876D01*
X15139762Y-12698876D01*
X15158809Y-12689352D01*
X15168333Y-12679828D01*
X15177857Y-12660781D01*
X15177857Y-12613162D01*
X15168333Y-12594114D01*
X15158809Y-12584590D01*
X15139762Y-12575067D01*
X15101667Y-12575067D01*
X15082619Y-12584590D01*
X15073095Y-12594114D01*
X15063571Y-12613162D01*
X15415952Y-12698876D02*
X15415952Y-12498876D01*
X15501667Y-12698876D02*
X15501667Y-12594114D01*
X15492143Y-12575067D01*
X15473095Y-12565543D01*
X15444524Y-12565543D01*
X15425476Y-12575067D01*
X15415952Y-12584590D01*
X15625476Y-12698876D02*
X15606428Y-12689352D01*
X15596905Y-12679828D01*
X15587381Y-12660781D01*
X15587381Y-12603638D01*
X15596905Y-12584590D01*
X15606428Y-12575067D01*
X15625476Y-12565543D01*
X15654048Y-12565543D01*
X15673095Y-12575067D01*
X15682619Y-12584590D01*
X15692143Y-12603638D01*
X15692143Y-12660781D01*
X15682619Y-12679828D01*
X15673095Y-12689352D01*
X15654048Y-12698876D01*
X15625476Y-12698876D01*
X15806428Y-12698876D02*
X15787381Y-12689352D01*
X15777857Y-12670305D01*
X15777857Y-12498876D01*
X15958809Y-12689352D02*
X15939762Y-12698876D01*
X15901667Y-12698876D01*
X15882619Y-12689352D01*
X15873095Y-12670305D01*
X15873095Y-12594114D01*
X15882619Y-12575067D01*
X15901667Y-12565543D01*
X15939762Y-12565543D01*
X15958809Y-12575067D01*
X15968333Y-12594114D01*
X15968333Y-12613162D01*
X15873095Y-12632209D01*
X16044524Y-12689352D02*
X16063571Y-12698876D01*
X16101667Y-12698876D01*
X16120714Y-12689352D01*
X16130238Y-12670305D01*
X16130238Y-12660781D01*
X16120714Y-12641733D01*
X16101667Y-12632209D01*
X16073095Y-12632209D01*
X16054048Y-12622686D01*
X16044524Y-12603638D01*
X16044524Y-12594114D01*
X16054048Y-12575067D01*
X16073095Y-12565543D01*
X16101667Y-12565543D01*
X16120714Y-12575067D01*
X16196905Y-12775067D02*
X16206428Y-12765543D01*
X16225476Y-12736971D01*
X16235000Y-12717924D01*
X16244524Y-12689352D01*
X16254048Y-12641733D01*
X16254048Y-12603638D01*
X16244524Y-12556019D01*
X16235000Y-12527448D01*
X16225476Y-12508400D01*
X16206428Y-12479828D01*
X16196905Y-12470305D01*
D13*
X11425000Y-12872400D02*
G75*
G03*
X11425000Y-12872400I-40000J0D01*
G01*
D11*
X11720714Y-12762876D02*
X11739762Y-12762876D01*
X11758809Y-12772400D01*
X11768333Y-12781924D01*
X11777857Y-12800971D01*
X11787381Y-12839067D01*
X11787381Y-12886686D01*
X11777857Y-12924781D01*
X11768333Y-12943828D01*
X11758809Y-12953352D01*
X11739762Y-12962876D01*
X11720714Y-12962876D01*
X11701667Y-12953352D01*
X11692143Y-12943828D01*
X11682619Y-12924781D01*
X11673095Y-12886686D01*
X11673095Y-12839067D01*
X11682619Y-12800971D01*
X11692143Y-12781924D01*
X11701667Y-12772400D01*
X11720714Y-12762876D01*
X11873095Y-12943828D02*
X11882619Y-12953352D01*
X11873095Y-12962876D01*
X11863571Y-12953352D01*
X11873095Y-12943828D01*
X11873095Y-12962876D01*
X11996905Y-12848590D02*
X11977857Y-12839067D01*
X11968333Y-12829543D01*
X11958809Y-12810495D01*
X11958809Y-12800971D01*
X11968333Y-12781924D01*
X11977857Y-12772400D01*
X11996905Y-12762876D01*
X12035000Y-12762876D01*
X12054048Y-12772400D01*
X12063571Y-12781924D01*
X12073095Y-12800971D01*
X12073095Y-12810495D01*
X12063571Y-12829543D01*
X12054048Y-12839067D01*
X12035000Y-12848590D01*
X11996905Y-12848590D01*
X11977857Y-12858114D01*
X11968333Y-12867638D01*
X11958809Y-12886686D01*
X11958809Y-12924781D01*
X11968333Y-12943828D01*
X11977857Y-12953352D01*
X11996905Y-12962876D01*
X12035000Y-12962876D01*
X12054048Y-12953352D01*
X12063571Y-12943828D01*
X12073095Y-12924781D01*
X12073095Y-12886686D01*
X12063571Y-12867638D01*
X12054048Y-12858114D01*
X12035000Y-12848590D01*
X12196905Y-12762876D02*
X12215952Y-12762876D01*
X12235000Y-12772400D01*
X12244524Y-12781924D01*
X12254048Y-12800971D01*
X12263571Y-12839067D01*
X12263571Y-12886686D01*
X12254048Y-12924781D01*
X12244524Y-12943828D01*
X12235000Y-12953352D01*
X12215952Y-12962876D01*
X12196905Y-12962876D01*
X12177857Y-12953352D01*
X12168333Y-12943828D01*
X12158809Y-12924781D01*
X12149286Y-12886686D01*
X12149286Y-12839067D01*
X12158809Y-12800971D01*
X12168333Y-12781924D01*
X12177857Y-12772400D01*
X12196905Y-12762876D01*
X12387381Y-12762876D02*
X12406428Y-12762876D01*
X12425476Y-12772400D01*
X12435000Y-12781924D01*
X12444524Y-12800971D01*
X12454048Y-12839067D01*
X12454048Y-12886686D01*
X12444524Y-12924781D01*
X12435000Y-12943828D01*
X12425476Y-12953352D01*
X12406428Y-12962876D01*
X12387381Y-12962876D01*
X12368333Y-12953352D01*
X12358809Y-12943828D01*
X12349286Y-12924781D01*
X12339762Y-12886686D01*
X12339762Y-12839067D01*
X12349286Y-12800971D01*
X12358809Y-12781924D01*
X12368333Y-12772400D01*
X12387381Y-12762876D01*
X12539762Y-12962876D02*
X12539762Y-12829543D01*
X12539762Y-12848590D02*
X12549286Y-12839067D01*
X12568333Y-12829543D01*
X12596905Y-12829543D01*
X12615952Y-12839067D01*
X12625476Y-12858114D01*
X12625476Y-12962876D01*
X12625476Y-12858114D02*
X12635000Y-12839067D01*
X12654048Y-12829543D01*
X12682619Y-12829543D01*
X12701667Y-12839067D01*
X12711190Y-12858114D01*
X12711190Y-12962876D01*
X12806428Y-12962876D02*
X12806428Y-12829543D01*
X12806428Y-12848590D02*
X12815952Y-12839067D01*
X12835000Y-12829543D01*
X12863571Y-12829543D01*
X12882619Y-12839067D01*
X12892143Y-12858114D01*
X12892143Y-12962876D01*
X12892143Y-12858114D02*
X12901667Y-12839067D01*
X12920714Y-12829543D01*
X12949286Y-12829543D01*
X12968333Y-12839067D01*
X12977857Y-12858114D01*
X12977857Y-12962876D01*
X13368333Y-12753352D02*
X13196905Y-13010495D01*
X13625476Y-12762876D02*
X13644524Y-12762876D01*
X13663571Y-12772400D01*
X13673095Y-12781924D01*
X13682619Y-12800971D01*
X13692143Y-12839067D01*
X13692143Y-12886686D01*
X13682619Y-12924781D01*
X13673095Y-12943828D01*
X13663571Y-12953352D01*
X13644524Y-12962876D01*
X13625476Y-12962876D01*
X13606428Y-12953352D01*
X13596905Y-12943828D01*
X13587381Y-12924781D01*
X13577857Y-12886686D01*
X13577857Y-12839067D01*
X13587381Y-12800971D01*
X13596905Y-12781924D01*
X13606428Y-12772400D01*
X13625476Y-12762876D01*
X13777857Y-12943828D02*
X13787381Y-12953352D01*
X13777857Y-12962876D01*
X13768333Y-12953352D01*
X13777857Y-12943828D01*
X13777857Y-12962876D01*
X13911190Y-12762876D02*
X13930238Y-12762876D01*
X13949286Y-12772400D01*
X13958809Y-12781924D01*
X13968333Y-12800971D01*
X13977857Y-12839067D01*
X13977857Y-12886686D01*
X13968333Y-12924781D01*
X13958809Y-12943828D01*
X13949286Y-12953352D01*
X13930238Y-12962876D01*
X13911190Y-12962876D01*
X13892143Y-12953352D01*
X13882619Y-12943828D01*
X13873095Y-12924781D01*
X13863571Y-12886686D01*
X13863571Y-12839067D01*
X13873095Y-12800971D01*
X13882619Y-12781924D01*
X13892143Y-12772400D01*
X13911190Y-12762876D01*
X14044524Y-12762876D02*
X14168333Y-12762876D01*
X14101667Y-12839067D01*
X14130238Y-12839067D01*
X14149286Y-12848590D01*
X14158809Y-12858114D01*
X14168333Y-12877162D01*
X14168333Y-12924781D01*
X14158809Y-12943828D01*
X14149286Y-12953352D01*
X14130238Y-12962876D01*
X14073095Y-12962876D01*
X14054048Y-12953352D01*
X14044524Y-12943828D01*
X14358809Y-12962876D02*
X14244524Y-12962876D01*
X14301667Y-12962876D02*
X14301667Y-12762876D01*
X14282619Y-12791448D01*
X14263571Y-12810495D01*
X14244524Y-12820019D01*
X14539762Y-12762876D02*
X14444524Y-12762876D01*
X14435000Y-12858114D01*
X14444524Y-12848590D01*
X14463571Y-12839067D01*
X14511190Y-12839067D01*
X14530238Y-12848590D01*
X14539762Y-12858114D01*
X14549286Y-12877162D01*
X14549286Y-12924781D01*
X14539762Y-12943828D01*
X14530238Y-12953352D01*
X14511190Y-12962876D01*
X14463571Y-12962876D01*
X14444524Y-12953352D01*
X14435000Y-12943828D01*
X14625476Y-12762876D02*
X14625476Y-12800971D01*
X14701667Y-12762876D02*
X14701667Y-12800971D01*
X14996905Y-13039067D02*
X14987381Y-13029543D01*
X14968333Y-13000971D01*
X14958809Y-12981924D01*
X14949286Y-12953352D01*
X14939762Y-12905733D01*
X14939762Y-12867638D01*
X14949286Y-12820019D01*
X14958809Y-12791448D01*
X14968333Y-12772400D01*
X14987381Y-12743828D01*
X14996905Y-12734305D01*
X15177857Y-12962876D02*
X15063571Y-12962876D01*
X15120714Y-12962876D02*
X15120714Y-12762876D01*
X15101667Y-12791448D01*
X15082619Y-12810495D01*
X15063571Y-12820019D01*
X15301667Y-12762876D02*
X15320714Y-12762876D01*
X15339762Y-12772400D01*
X15349286Y-12781924D01*
X15358809Y-12800971D01*
X15368333Y-12839067D01*
X15368333Y-12886686D01*
X15358809Y-12924781D01*
X15349286Y-12943828D01*
X15339762Y-12953352D01*
X15320714Y-12962876D01*
X15301667Y-12962876D01*
X15282619Y-12953352D01*
X15273095Y-12943828D01*
X15263571Y-12924781D01*
X15254048Y-12886686D01*
X15254048Y-12839067D01*
X15263571Y-12800971D01*
X15273095Y-12781924D01*
X15282619Y-12772400D01*
X15301667Y-12762876D01*
X15539762Y-12829543D02*
X15539762Y-12962876D01*
X15492143Y-12753352D02*
X15444524Y-12896209D01*
X15568333Y-12896209D01*
X15796905Y-12962876D02*
X15796905Y-12762876D01*
X15882619Y-12962876D02*
X15882619Y-12858114D01*
X15873095Y-12839067D01*
X15854048Y-12829543D01*
X15825476Y-12829543D01*
X15806428Y-12839067D01*
X15796905Y-12848590D01*
X16006428Y-12962876D02*
X15987381Y-12953352D01*
X15977857Y-12943828D01*
X15968333Y-12924781D01*
X15968333Y-12867638D01*
X15977857Y-12848590D01*
X15987381Y-12839067D01*
X16006428Y-12829543D01*
X16035000Y-12829543D01*
X16054048Y-12839067D01*
X16063571Y-12848590D01*
X16073095Y-12867638D01*
X16073095Y-12924781D01*
X16063571Y-12943828D01*
X16054048Y-12953352D01*
X16035000Y-12962876D01*
X16006428Y-12962876D01*
X16187381Y-12962876D02*
X16168333Y-12953352D01*
X16158809Y-12934305D01*
X16158809Y-12762876D01*
X16339762Y-12953352D02*
X16320714Y-12962876D01*
X16282619Y-12962876D01*
X16263571Y-12953352D01*
X16254048Y-12934305D01*
X16254048Y-12858114D01*
X16263571Y-12839067D01*
X16282619Y-12829543D01*
X16320714Y-12829543D01*
X16339762Y-12839067D01*
X16349286Y-12858114D01*
X16349286Y-12877162D01*
X16254048Y-12896209D01*
X16425476Y-12953352D02*
X16444524Y-12962876D01*
X16482619Y-12962876D01*
X16501667Y-12953352D01*
X16511190Y-12934305D01*
X16511190Y-12924781D01*
X16501667Y-12905733D01*
X16482619Y-12896209D01*
X16454048Y-12896209D01*
X16435000Y-12886686D01*
X16425476Y-12867638D01*
X16425476Y-12858114D01*
X16435000Y-12839067D01*
X16454048Y-12829543D01*
X16482619Y-12829543D01*
X16501667Y-12839067D01*
X16577857Y-13039067D02*
X16587381Y-13029543D01*
X16606428Y-13000971D01*
X16615952Y-12981924D01*
X16625476Y-12953352D01*
X16635000Y-12905733D01*
X16635000Y-12867638D01*
X16625476Y-12820019D01*
X16615952Y-12791448D01*
X16606428Y-12772400D01*
X16587381Y-12743828D01*
X16577857Y-12734305D01*
M02*
