G04 #@! TF.GenerationSoftware,KiCad,Pcbnew,(6.0.0)*
G04 #@! TF.CreationDate,2023-01-29T20:39:39-05:00*
G04 #@! TF.ProjectId,tms7000 64 pin adapter,746d7337-3030-4302-9036-342070696e20,rev?*
G04 #@! TF.SameCoordinates,Original*
G04 #@! TF.FileFunction,Copper,L2,Bot*
G04 #@! TF.FilePolarity,Positive*
%FSLAX46Y46*%
G04 Gerber Fmt 4.6, Leading zero omitted, Abs format (unit mm)*
G04 Created by KiCad (PCBNEW (6.0.0)) date 2023-01-29 20:39:39*
%MOMM*%
%LPD*%
G01*
G04 APERTURE LIST*
G04 #@! TA.AperFunction,ComponentPad*
%ADD10R,1.600000X1.600000*%
G04 #@! TD*
G04 #@! TA.AperFunction,ComponentPad*
%ADD11O,1.600000X1.600000*%
G04 #@! TD*
G04 #@! TA.AperFunction,ViaPad*
%ADD12C,0.800000*%
G04 #@! TD*
G04 #@! TA.AperFunction,Conductor*
%ADD13C,0.250000*%
G04 #@! TD*
G04 APERTURE END LIST*
D10*
X115565000Y-52837000D03*
D11*
X115565000Y-55377000D03*
X115565000Y-57917000D03*
X115565000Y-60457000D03*
X115565000Y-62997000D03*
X115565000Y-65537000D03*
X115565000Y-68077000D03*
X115565000Y-70617000D03*
X115565000Y-73157000D03*
X115565000Y-75697000D03*
X115565000Y-78237000D03*
X115565000Y-80777000D03*
X115565000Y-83317000D03*
X115565000Y-85857000D03*
X115565000Y-88397000D03*
X115565000Y-90937000D03*
X115565000Y-93477000D03*
X115565000Y-96017000D03*
X115565000Y-98557000D03*
X115565000Y-101097000D03*
X130805000Y-101097000D03*
X130805000Y-98557000D03*
X130805000Y-96017000D03*
X130805000Y-93477000D03*
X130805000Y-90937000D03*
X130805000Y-88397000D03*
X130805000Y-85857000D03*
X130805000Y-83317000D03*
X130805000Y-80777000D03*
X130805000Y-78237000D03*
X130805000Y-75697000D03*
X130805000Y-73157000D03*
X130805000Y-70617000D03*
X130805000Y-68077000D03*
X130805000Y-65537000D03*
X130805000Y-62997000D03*
X130805000Y-60457000D03*
X130805000Y-57917000D03*
X130805000Y-55377000D03*
X130805000Y-52837000D03*
D10*
X122428000Y-39116000D03*
D11*
X122428000Y-41656000D03*
X122428000Y-44196000D03*
X122428000Y-46736000D03*
X122428000Y-49276000D03*
X122428000Y-51816000D03*
X122428000Y-54356000D03*
X122428000Y-56896000D03*
X122428000Y-59436000D03*
X122428000Y-61976000D03*
X122428000Y-64516000D03*
X122428000Y-67056000D03*
X122428000Y-69596000D03*
X122428000Y-72136000D03*
X122428000Y-74676000D03*
X122428000Y-77216000D03*
X122428000Y-79756000D03*
X122428000Y-82296000D03*
X122428000Y-84836000D03*
X122428000Y-87376000D03*
X122428000Y-89916000D03*
X122428000Y-92456000D03*
X122428000Y-94996000D03*
X122428000Y-97536000D03*
X122428000Y-100076000D03*
X122428000Y-102616000D03*
X122428000Y-105156000D03*
X122428000Y-107696000D03*
X122428000Y-110236000D03*
X122428000Y-112776000D03*
X122428000Y-115316000D03*
X122428000Y-117856000D03*
X145288000Y-117856000D03*
X145288000Y-115316000D03*
X145288000Y-112776000D03*
X145288000Y-110236000D03*
X145288000Y-107696000D03*
X145288000Y-105156000D03*
X145288000Y-102616000D03*
X145288000Y-100076000D03*
X145288000Y-97536000D03*
X145288000Y-94996000D03*
X145288000Y-92456000D03*
X145288000Y-89916000D03*
X145288000Y-87376000D03*
X145288000Y-84836000D03*
X145288000Y-82296000D03*
X145288000Y-79756000D03*
X145288000Y-77216000D03*
X145288000Y-74676000D03*
X145288000Y-72136000D03*
X145288000Y-69596000D03*
X145288000Y-67056000D03*
X145288000Y-64516000D03*
X145288000Y-61976000D03*
X145288000Y-59436000D03*
X145288000Y-56896000D03*
X145288000Y-54356000D03*
X145288000Y-51816000D03*
X145288000Y-49276000D03*
X145288000Y-46736000D03*
X145288000Y-44196000D03*
X145288000Y-41656000D03*
X145288000Y-39116000D03*
D12*
X142240000Y-86614000D03*
X140462000Y-92456000D03*
X139954000Y-94996000D03*
X140208000Y-97536000D03*
X143256000Y-51816000D03*
X125222000Y-54356000D03*
D13*
X145288000Y-51816000D02*
X143142489Y-53961511D01*
X130339211Y-53961511D02*
X127069189Y-50691489D01*
X143142489Y-53961511D02*
X130339211Y-53961511D01*
X127069189Y-50691489D02*
X117710511Y-50691489D01*
X117710511Y-50691489D02*
X115565000Y-52837000D01*
X115565000Y-55377000D02*
X117856000Y-53086000D01*
X145288000Y-56896000D02*
X145184489Y-56792489D01*
X125937022Y-53086000D02*
X129643511Y-56792489D01*
X145184489Y-56792489D02*
X129643511Y-56792489D01*
X117856000Y-53086000D02*
X125937022Y-53086000D01*
X115565000Y-88397000D02*
X118364000Y-85598000D01*
X118364000Y-85598000D02*
X118364000Y-81280000D01*
X118364000Y-81280000D02*
X122428000Y-77216000D01*
X123698000Y-75946000D02*
X123698000Y-77536300D01*
X123698000Y-77536300D02*
X122748300Y-78486000D01*
X122748300Y-78486000D02*
X122107700Y-78486000D01*
X119888000Y-80705700D02*
X119888000Y-86614000D01*
X122428000Y-74676000D02*
X123698000Y-75946000D01*
X122107700Y-78486000D02*
X119888000Y-80705700D01*
X119888000Y-86614000D02*
X115565000Y-90937000D01*
X141473000Y-101097000D02*
X130805000Y-101097000D01*
X142240000Y-86614000D02*
X142240000Y-100330000D01*
X142240000Y-100330000D02*
X141473000Y-101097000D01*
X140462000Y-92456000D02*
X139441000Y-93477000D01*
X139441000Y-93477000D02*
X130805000Y-93477000D01*
X139954000Y-94996000D02*
X141186511Y-93763489D01*
X141186511Y-93763489D02*
X141186511Y-91910511D01*
X137673000Y-88397000D02*
X130805000Y-88397000D01*
X141186511Y-91910511D02*
X137673000Y-88397000D01*
X141636031Y-96107969D02*
X141636031Y-91598031D01*
X140208000Y-97536000D02*
X141636031Y-96107969D01*
X135895000Y-85857000D02*
X130805000Y-85857000D01*
X141636031Y-91598031D02*
X135895000Y-85857000D01*
X125984000Y-67818000D02*
X125984000Y-114300000D01*
X130805000Y-62997000D02*
X125984000Y-67818000D01*
X125984000Y-114300000D02*
X122428000Y-117856000D01*
X143256000Y-48768000D02*
X145288000Y-46736000D01*
X143256000Y-51816000D02*
X143256000Y-48768000D01*
X144267000Y-55377000D02*
X145288000Y-54356000D01*
X130805000Y-55377000D02*
X144267000Y-55377000D01*
X130805000Y-47493000D02*
X122428000Y-39116000D01*
X130805000Y-52837000D02*
X130805000Y-47493000D01*
X122428000Y-92456000D02*
X122428000Y-89916000D01*
X125222000Y-54356000D02*
X125222000Y-87122000D01*
X125222000Y-87122000D02*
X122428000Y-89916000D01*
M02*
