G04 #@! TF.GenerationSoftware,KiCad,Pcbnew,(6.0.0)*
G04 #@! TF.CreationDate,2023-01-29T20:39:39-05:00*
G04 #@! TF.ProjectId,tms7000 64 pin adapter,746d7337-3030-4302-9036-342070696e20,rev?*
G04 #@! TF.SameCoordinates,Original*
G04 #@! TF.FileFunction,Soldermask,Bot*
G04 #@! TF.FilePolarity,Negative*
%FSLAX46Y46*%
G04 Gerber Fmt 4.6, Leading zero omitted, Abs format (unit mm)*
G04 Created by KiCad (PCBNEW (6.0.0)) date 2023-01-29 20:39:39*
%MOMM*%
%LPD*%
G01*
G04 APERTURE LIST*
%ADD10R,1.600000X1.600000*%
%ADD11O,1.600000X1.600000*%
G04 APERTURE END LIST*
D10*
X115565000Y-52837000D03*
D11*
X115565000Y-55377000D03*
X115565000Y-57917000D03*
X115565000Y-60457000D03*
X115565000Y-62997000D03*
X115565000Y-65537000D03*
X115565000Y-68077000D03*
X115565000Y-70617000D03*
X115565000Y-73157000D03*
X115565000Y-75697000D03*
X115565000Y-78237000D03*
X115565000Y-80777000D03*
X115565000Y-83317000D03*
X115565000Y-85857000D03*
X115565000Y-88397000D03*
X115565000Y-90937000D03*
X115565000Y-93477000D03*
X115565000Y-96017000D03*
X115565000Y-98557000D03*
X115565000Y-101097000D03*
X130805000Y-101097000D03*
X130805000Y-98557000D03*
X130805000Y-96017000D03*
X130805000Y-93477000D03*
X130805000Y-90937000D03*
X130805000Y-88397000D03*
X130805000Y-85857000D03*
X130805000Y-83317000D03*
X130805000Y-80777000D03*
X130805000Y-78237000D03*
X130805000Y-75697000D03*
X130805000Y-73157000D03*
X130805000Y-70617000D03*
X130805000Y-68077000D03*
X130805000Y-65537000D03*
X130805000Y-62997000D03*
X130805000Y-60457000D03*
X130805000Y-57917000D03*
X130805000Y-55377000D03*
X130805000Y-52837000D03*
D10*
X122428000Y-39116000D03*
D11*
X122428000Y-41656000D03*
X122428000Y-44196000D03*
X122428000Y-46736000D03*
X122428000Y-49276000D03*
X122428000Y-51816000D03*
X122428000Y-54356000D03*
X122428000Y-56896000D03*
X122428000Y-59436000D03*
X122428000Y-61976000D03*
X122428000Y-64516000D03*
X122428000Y-67056000D03*
X122428000Y-69596000D03*
X122428000Y-72136000D03*
X122428000Y-74676000D03*
X122428000Y-77216000D03*
X122428000Y-79756000D03*
X122428000Y-82296000D03*
X122428000Y-84836000D03*
X122428000Y-87376000D03*
X122428000Y-89916000D03*
X122428000Y-92456000D03*
X122428000Y-94996000D03*
X122428000Y-97536000D03*
X122428000Y-100076000D03*
X122428000Y-102616000D03*
X122428000Y-105156000D03*
X122428000Y-107696000D03*
X122428000Y-110236000D03*
X122428000Y-112776000D03*
X122428000Y-115316000D03*
X122428000Y-117856000D03*
X145288000Y-117856000D03*
X145288000Y-115316000D03*
X145288000Y-112776000D03*
X145288000Y-110236000D03*
X145288000Y-107696000D03*
X145288000Y-105156000D03*
X145288000Y-102616000D03*
X145288000Y-100076000D03*
X145288000Y-97536000D03*
X145288000Y-94996000D03*
X145288000Y-92456000D03*
X145288000Y-89916000D03*
X145288000Y-87376000D03*
X145288000Y-84836000D03*
X145288000Y-82296000D03*
X145288000Y-79756000D03*
X145288000Y-77216000D03*
X145288000Y-74676000D03*
X145288000Y-72136000D03*
X145288000Y-69596000D03*
X145288000Y-67056000D03*
X145288000Y-64516000D03*
X145288000Y-61976000D03*
X145288000Y-59436000D03*
X145288000Y-56896000D03*
X145288000Y-54356000D03*
X145288000Y-51816000D03*
X145288000Y-49276000D03*
X145288000Y-46736000D03*
X145288000Y-44196000D03*
X145288000Y-41656000D03*
X145288000Y-39116000D03*
M02*
