M48
; DRILL file {KiCad (6.0.0)} date Sun Jan 29 20:39:41 2023
; FORMAT={-:-/ absolute / metric / decimal}
; #@! TF.CreationDate,2023-01-29T20:39:41-05:00
; #@! TF.GenerationSoftware,Kicad,Pcbnew,(6.0.0)
; #@! TF.FileFunction,Plated,1,2,PTH
FMAT,2
METRIC
; #@! TA.AperFunction,Plated,PTH,ViaDrill
T1C0.400
; #@! TA.AperFunction,Plated,PTH,ComponentDrill
T2C0.800
%
G90
G05
T1
X125.222Y-54.356
X139.954Y-94.996
X140.208Y-97.536
X140.462Y-92.456
X142.24Y-86.614
X143.256Y-51.816
T2
X115.565Y-52.837
X115.565Y-55.377
X115.565Y-57.917
X115.565Y-60.457
X115.565Y-62.997
X115.565Y-65.537
X115.565Y-68.077
X115.565Y-70.617
X115.565Y-73.157
X115.565Y-75.697
X115.565Y-78.237
X115.565Y-80.777
X115.565Y-83.317
X115.565Y-85.857
X115.565Y-88.397
X115.565Y-90.937
X115.565Y-93.477
X115.565Y-96.017
X115.565Y-98.557
X115.565Y-101.097
X122.428Y-39.116
X122.428Y-41.656
X122.428Y-44.196
X122.428Y-46.736
X122.428Y-49.276
X122.428Y-51.816
X122.428Y-54.356
X122.428Y-56.896
X122.428Y-59.436
X122.428Y-61.976
X122.428Y-64.516
X122.428Y-67.056
X122.428Y-69.596
X122.428Y-72.136
X122.428Y-74.676
X122.428Y-77.216
X122.428Y-79.756
X122.428Y-82.296
X122.428Y-84.836
X122.428Y-87.376
X122.428Y-89.916
X122.428Y-92.456
X122.428Y-94.996
X122.428Y-97.536
X122.428Y-100.076
X122.428Y-102.616
X122.428Y-105.156
X122.428Y-107.696
X122.428Y-110.236
X122.428Y-112.776
X122.428Y-115.316
X122.428Y-117.856
X130.805Y-52.837
X130.805Y-55.377
X130.805Y-57.917
X130.805Y-60.457
X130.805Y-62.997
X130.805Y-65.537
X130.805Y-68.077
X130.805Y-70.617
X130.805Y-73.157
X130.805Y-75.697
X130.805Y-78.237
X130.805Y-80.777
X130.805Y-83.317
X130.805Y-85.857
X130.805Y-88.397
X130.805Y-90.937
X130.805Y-93.477
X130.805Y-96.017
X130.805Y-98.557
X130.805Y-101.097
X145.288Y-39.116
X145.288Y-41.656
X145.288Y-44.196
X145.288Y-46.736
X145.288Y-49.276
X145.288Y-51.816
X145.288Y-54.356
X145.288Y-56.896
X145.288Y-59.436
X145.288Y-61.976
X145.288Y-64.516
X145.288Y-67.056
X145.288Y-69.596
X145.288Y-72.136
X145.288Y-74.676
X145.288Y-77.216
X145.288Y-79.756
X145.288Y-82.296
X145.288Y-84.836
X145.288Y-87.376
X145.288Y-89.916
X145.288Y-92.456
X145.288Y-94.996
X145.288Y-97.536
X145.288Y-100.076
X145.288Y-102.616
X145.288Y-105.156
X145.288Y-107.696
X145.288Y-110.236
X145.288Y-112.776
X145.288Y-115.316
X145.288Y-117.856
T0
M30
