G04 #@! TF.GenerationSoftware,KiCad,Pcbnew,(6.0.0)*
G04 #@! TF.CreationDate,2023-01-29T20:39:39-05:00*
G04 #@! TF.ProjectId,tms7000 64 pin adapter,746d7337-3030-4302-9036-342070696e20,rev?*
G04 #@! TF.SameCoordinates,Original*
G04 #@! TF.FileFunction,Legend,Top*
G04 #@! TF.FilePolarity,Positive*
%FSLAX46Y46*%
G04 Gerber Fmt 4.6, Leading zero omitted, Abs format (unit mm)*
G04 Created by KiCad (PCBNEW (6.0.0)) date 2023-01-29 20:39:39*
%MOMM*%
%LPD*%
G01*
G04 APERTURE LIST*
%ADD10C,0.150000*%
%ADD11C,0.130000*%
%ADD12C,0.120000*%
%ADD13R,1.600000X1.600000*%
%ADD14O,1.600000X1.600000*%
G04 APERTURE END LIST*
D10*
X117519380Y-74866095D02*
X117519380Y-74294666D01*
X118519380Y-74580380D02*
X117519380Y-74580380D01*
X118519380Y-73961333D02*
X117519380Y-73961333D01*
X118233666Y-73628000D01*
X117519380Y-73294666D01*
X118519380Y-73294666D01*
X118471761Y-72866095D02*
X118519380Y-72723238D01*
X118519380Y-72485142D01*
X118471761Y-72389904D01*
X118424142Y-72342285D01*
X118328904Y-72294666D01*
X118233666Y-72294666D01*
X118138428Y-72342285D01*
X118090809Y-72389904D01*
X118043190Y-72485142D01*
X117995571Y-72675619D01*
X117947952Y-72770857D01*
X117900333Y-72818476D01*
X117805095Y-72866095D01*
X117709857Y-72866095D01*
X117614619Y-72818476D01*
X117567000Y-72770857D01*
X117519380Y-72675619D01*
X117519380Y-72437523D01*
X117567000Y-72294666D01*
X117519380Y-71961333D02*
X117519380Y-71294666D01*
X118519380Y-71723238D01*
X117519380Y-70723238D02*
X117519380Y-70628000D01*
X117567000Y-70532761D01*
X117614619Y-70485142D01*
X117709857Y-70437523D01*
X117900333Y-70389904D01*
X118138428Y-70389904D01*
X118328904Y-70437523D01*
X118424142Y-70485142D01*
X118471761Y-70532761D01*
X118519380Y-70628000D01*
X118519380Y-70723238D01*
X118471761Y-70818476D01*
X118424142Y-70866095D01*
X118328904Y-70913714D01*
X118138428Y-70961333D01*
X117900333Y-70961333D01*
X117709857Y-70913714D01*
X117614619Y-70866095D01*
X117567000Y-70818476D01*
X117519380Y-70723238D01*
X117519380Y-69770857D02*
X117519380Y-69675619D01*
X117567000Y-69580380D01*
X117614619Y-69532761D01*
X117709857Y-69485142D01*
X117900333Y-69437523D01*
X118138428Y-69437523D01*
X118328904Y-69485142D01*
X118424142Y-69532761D01*
X118471761Y-69580380D01*
X118519380Y-69675619D01*
X118519380Y-69770857D01*
X118471761Y-69866095D01*
X118424142Y-69913714D01*
X118328904Y-69961333D01*
X118138428Y-70008952D01*
X117900333Y-70008952D01*
X117709857Y-69961333D01*
X117614619Y-69913714D01*
X117567000Y-69866095D01*
X117519380Y-69770857D01*
X117519380Y-68818476D02*
X117519380Y-68723238D01*
X117567000Y-68628000D01*
X117614619Y-68580380D01*
X117709857Y-68532761D01*
X117900333Y-68485142D01*
X118138428Y-68485142D01*
X118328904Y-68532761D01*
X118424142Y-68580380D01*
X118471761Y-68628000D01*
X118519380Y-68723238D01*
X118519380Y-68818476D01*
X118471761Y-68913714D01*
X118424142Y-68961333D01*
X118328904Y-69008952D01*
X118138428Y-69056571D01*
X117900333Y-69056571D01*
X117709857Y-69008952D01*
X117614619Y-68961333D01*
X117567000Y-68913714D01*
X117519380Y-68818476D01*
X119462714Y-73889904D02*
X119462714Y-73508952D01*
X119129380Y-73747047D02*
X119986523Y-73747047D01*
X120081761Y-73699428D01*
X120129380Y-73604190D01*
X120129380Y-73508952D01*
X120129380Y-73032761D02*
X120081761Y-73128000D01*
X120034142Y-73175619D01*
X119938904Y-73223238D01*
X119653190Y-73223238D01*
X119557952Y-73175619D01*
X119510333Y-73128000D01*
X119462714Y-73032761D01*
X119462714Y-72889904D01*
X119510333Y-72794666D01*
X119557952Y-72747047D01*
X119653190Y-72699428D01*
X119938904Y-72699428D01*
X120034142Y-72747047D01*
X120081761Y-72794666D01*
X120129380Y-72889904D01*
X120129380Y-73032761D01*
X120129380Y-71508952D02*
X119129380Y-71508952D01*
X119129380Y-71270857D01*
X119177000Y-71128000D01*
X119272238Y-71032761D01*
X119367476Y-70985142D01*
X119557952Y-70937523D01*
X119700809Y-70937523D01*
X119891285Y-70985142D01*
X119986523Y-71032761D01*
X120081761Y-71128000D01*
X120129380Y-71270857D01*
X120129380Y-71508952D01*
X120129380Y-70508952D02*
X119129380Y-70508952D01*
X120129380Y-70032761D02*
X119129380Y-70032761D01*
X119129380Y-69651809D01*
X119177000Y-69556571D01*
X119224619Y-69508952D01*
X119319857Y-69461333D01*
X119462714Y-69461333D01*
X119557952Y-69508952D01*
X119605571Y-69556571D01*
X119653190Y-69651809D01*
X119653190Y-70032761D01*
D11*
X116860857Y-47726142D02*
X116860857Y-46826142D01*
X117075142Y-46826142D01*
X117203714Y-46869000D01*
X117289428Y-46954714D01*
X117332285Y-47040428D01*
X117375142Y-47211857D01*
X117375142Y-47340428D01*
X117332285Y-47511857D01*
X117289428Y-47597571D01*
X117203714Y-47683285D01*
X117075142Y-47726142D01*
X116860857Y-47726142D01*
X117760857Y-47726142D02*
X117760857Y-46826142D01*
X118189428Y-47726142D02*
X118189428Y-46826142D01*
X118532285Y-46826142D01*
X118618000Y-46869000D01*
X118660857Y-46911857D01*
X118703714Y-46997571D01*
X118703714Y-47126142D01*
X118660857Y-47211857D01*
X118618000Y-47254714D01*
X118532285Y-47297571D01*
X118189428Y-47297571D01*
X119475142Y-46826142D02*
X119303714Y-46826142D01*
X119218000Y-46869000D01*
X119175142Y-46911857D01*
X119089428Y-47040428D01*
X119046571Y-47211857D01*
X119046571Y-47554714D01*
X119089428Y-47640428D01*
X119132285Y-47683285D01*
X119218000Y-47726142D01*
X119389428Y-47726142D01*
X119475142Y-47683285D01*
X119518000Y-47640428D01*
X119560857Y-47554714D01*
X119560857Y-47340428D01*
X119518000Y-47254714D01*
X119475142Y-47211857D01*
X119389428Y-47169000D01*
X119218000Y-47169000D01*
X119132285Y-47211857D01*
X119089428Y-47254714D01*
X119046571Y-47340428D01*
X120332285Y-47126142D02*
X120332285Y-47726142D01*
X120118000Y-46783285D02*
X119903714Y-47426142D01*
X120460857Y-47426142D01*
X116625142Y-49132285D02*
X116710857Y-49175142D01*
X116882285Y-49175142D01*
X116968000Y-49132285D01*
X117010857Y-49046571D01*
X117010857Y-49003714D01*
X116968000Y-48918000D01*
X116882285Y-48875142D01*
X116753714Y-48875142D01*
X116668000Y-48832285D01*
X116625142Y-48746571D01*
X116625142Y-48703714D01*
X116668000Y-48618000D01*
X116753714Y-48575142D01*
X116882285Y-48575142D01*
X116968000Y-48618000D01*
X117525142Y-49175142D02*
X117439428Y-49132285D01*
X117396571Y-49089428D01*
X117353714Y-49003714D01*
X117353714Y-48746571D01*
X117396571Y-48660857D01*
X117439428Y-48618000D01*
X117525142Y-48575142D01*
X117653714Y-48575142D01*
X117739428Y-48618000D01*
X117782285Y-48660857D01*
X117825142Y-48746571D01*
X117825142Y-49003714D01*
X117782285Y-49089428D01*
X117739428Y-49132285D01*
X117653714Y-49175142D01*
X117525142Y-49175142D01*
X118596571Y-49132285D02*
X118510857Y-49175142D01*
X118339428Y-49175142D01*
X118253714Y-49132285D01*
X118210857Y-49089428D01*
X118168000Y-49003714D01*
X118168000Y-48746571D01*
X118210857Y-48660857D01*
X118253714Y-48618000D01*
X118339428Y-48575142D01*
X118510857Y-48575142D01*
X118596571Y-48618000D01*
X118982285Y-49175142D02*
X118982285Y-48275142D01*
X119068000Y-48832285D02*
X119325142Y-49175142D01*
X119325142Y-48575142D02*
X118982285Y-48918000D01*
X120053714Y-49132285D02*
X119968000Y-49175142D01*
X119796571Y-49175142D01*
X119710857Y-49132285D01*
X119668000Y-49046571D01*
X119668000Y-48703714D01*
X119710857Y-48618000D01*
X119796571Y-48575142D01*
X119968000Y-48575142D01*
X120053714Y-48618000D01*
X120096571Y-48703714D01*
X120096571Y-48789428D01*
X119668000Y-48875142D01*
X120353714Y-48575142D02*
X120696571Y-48575142D01*
X120482285Y-48275142D02*
X120482285Y-49046571D01*
X120525142Y-49132285D01*
X120610857Y-49175142D01*
X120696571Y-49175142D01*
X116732285Y-50624142D02*
X116646571Y-50581285D01*
X116603714Y-50538428D01*
X116560857Y-50452714D01*
X116560857Y-50195571D01*
X116603714Y-50109857D01*
X116646571Y-50067000D01*
X116732285Y-50024142D01*
X116860857Y-50024142D01*
X116946571Y-50067000D01*
X116989428Y-50109857D01*
X117032285Y-50195571D01*
X117032285Y-50452714D01*
X116989428Y-50538428D01*
X116946571Y-50581285D01*
X116860857Y-50624142D01*
X116732285Y-50624142D01*
X117418000Y-50024142D02*
X117418000Y-50624142D01*
X117418000Y-50109857D02*
X117460857Y-50067000D01*
X117546571Y-50024142D01*
X117675142Y-50024142D01*
X117760857Y-50067000D01*
X117803714Y-50152714D01*
X117803714Y-50624142D01*
X118789428Y-50024142D02*
X119132285Y-50024142D01*
X118918000Y-49724142D02*
X118918000Y-50495571D01*
X118960857Y-50581285D01*
X119046571Y-50624142D01*
X119132285Y-50624142D01*
X119560857Y-50624142D02*
X119475142Y-50581285D01*
X119432285Y-50538428D01*
X119389428Y-50452714D01*
X119389428Y-50195571D01*
X119432285Y-50109857D01*
X119475142Y-50067000D01*
X119560857Y-50024142D01*
X119689428Y-50024142D01*
X119775142Y-50067000D01*
X119818000Y-50109857D01*
X119860857Y-50195571D01*
X119860857Y-50452714D01*
X119818000Y-50538428D01*
X119775142Y-50581285D01*
X119689428Y-50624142D01*
X119560857Y-50624142D01*
X120246571Y-50024142D02*
X120246571Y-50924142D01*
X120246571Y-50067000D02*
X120332285Y-50024142D01*
X120503714Y-50024142D01*
X120589428Y-50067000D01*
X120632285Y-50109857D01*
X120675142Y-50195571D01*
X120675142Y-50452714D01*
X120632285Y-50538428D01*
X120589428Y-50581285D01*
X120503714Y-50624142D01*
X120332285Y-50624142D01*
X120246571Y-50581285D01*
D10*
X117633714Y-53284380D02*
X117062285Y-53284380D01*
X117348000Y-53284380D02*
X117348000Y-52284380D01*
X117252761Y-52427238D01*
X117157523Y-52522476D01*
X117062285Y-52570095D01*
D12*
X129645000Y-51507000D02*
X124185000Y-51507000D01*
X122185000Y-51507000D02*
X116725000Y-51507000D01*
X116725000Y-51507000D02*
X116725000Y-102427000D01*
X116725000Y-102427000D02*
X129645000Y-102427000D01*
X129645000Y-102427000D02*
X129645000Y-51507000D01*
X122185000Y-51507000D02*
G75*
G03*
X124185000Y-51507000I1000000J0D01*
G01*
G36*
X117412492Y-106081189D02*
G01*
X117434321Y-106096119D01*
X117461311Y-106114838D01*
X117463796Y-106116574D01*
X117532943Y-106160323D01*
X117610439Y-106201821D01*
X117687436Y-106236426D01*
X117706343Y-106243745D01*
X117742061Y-106256119D01*
X117783303Y-106268990D01*
X117825759Y-106281177D01*
X117865119Y-106291502D01*
X117897073Y-106298782D01*
X117917311Y-106301837D01*
X117918532Y-106301865D01*
X117927124Y-106307842D01*
X117946736Y-106325008D01*
X117976174Y-106352216D01*
X118014240Y-106388318D01*
X118059740Y-106432168D01*
X118111477Y-106482618D01*
X118168255Y-106538520D01*
X118228880Y-106598728D01*
X118251620Y-106621441D01*
X118571108Y-106941016D01*
X118565761Y-106988204D01*
X118562565Y-107016214D01*
X118558018Y-107055812D01*
X118552772Y-107101338D01*
X118548354Y-107139562D01*
X118542285Y-107193271D01*
X118535764Y-107253060D01*
X118529756Y-107309977D01*
X118526782Y-107339220D01*
X118522394Y-107381885D01*
X118518078Y-107421518D01*
X118514417Y-107452867D01*
X118512529Y-107467261D01*
X118507791Y-107499814D01*
X117720891Y-107499814D01*
X117716152Y-107467261D01*
X117713318Y-107445030D01*
X117709415Y-107410768D01*
X117705027Y-107369727D01*
X117701925Y-107339220D01*
X117696532Y-107287312D01*
X117689977Y-107227664D01*
X117683313Y-107169753D01*
X117680207Y-107143902D01*
X117674408Y-107093843D01*
X117668754Y-107040369D01*
X117664060Y-106991404D01*
X117662034Y-106967362D01*
X117658244Y-106931393D01*
X117653417Y-106904247D01*
X117648264Y-106889545D01*
X117646493Y-106888004D01*
X117620768Y-106880254D01*
X117584974Y-106868632D01*
X117543887Y-106854787D01*
X117502284Y-106840363D01*
X117464942Y-106827008D01*
X117436637Y-106816367D01*
X117426388Y-106812151D01*
X117389495Y-106795858D01*
X117389495Y-106431158D01*
X117389591Y-106339036D01*
X117389906Y-106263002D01*
X117390478Y-106201781D01*
X117391346Y-106154100D01*
X117392548Y-106118686D01*
X117394123Y-106094265D01*
X117396110Y-106079565D01*
X117398546Y-106073310D01*
X117400346Y-106073143D01*
X117412492Y-106081189D01*
G37*
G36*
X119938143Y-104708576D02*
G01*
X119967968Y-104711882D01*
X120009141Y-104716542D01*
X120055770Y-104721885D01*
X120093562Y-104726261D01*
X120147268Y-104732358D01*
X120207055Y-104738902D01*
X120263969Y-104744922D01*
X120293220Y-104747900D01*
X120335885Y-104752287D01*
X120375518Y-104756603D01*
X120406867Y-104760265D01*
X120421261Y-104762152D01*
X120453814Y-104766891D01*
X120453814Y-105553791D01*
X120421261Y-105558529D01*
X120399030Y-105561364D01*
X120364768Y-105565266D01*
X120323727Y-105569654D01*
X120293220Y-105572757D01*
X120241312Y-105578149D01*
X120181664Y-105584705D01*
X120123753Y-105591369D01*
X120097902Y-105594475D01*
X120047843Y-105600273D01*
X119994369Y-105605928D01*
X119945404Y-105610622D01*
X119921362Y-105612648D01*
X119885411Y-105616436D01*
X119858259Y-105621262D01*
X119843536Y-105626413D01*
X119841983Y-105628188D01*
X119832236Y-105660643D01*
X119818543Y-105702966D01*
X119803054Y-105748770D01*
X119787917Y-105791666D01*
X119778156Y-105817911D01*
X119755603Y-105876506D01*
X119392884Y-105876506D01*
X119315427Y-105876415D01*
X119243625Y-105876156D01*
X119179278Y-105875748D01*
X119124183Y-105875211D01*
X119080137Y-105874563D01*
X119048940Y-105873825D01*
X119032387Y-105873016D01*
X119030164Y-105872582D01*
X119034786Y-105864113D01*
X119047032Y-105845212D01*
X119064474Y-105819602D01*
X119068742Y-105813471D01*
X119114905Y-105740605D01*
X119157866Y-105660100D01*
X119193020Y-105580711D01*
X119197745Y-105568338D01*
X119211314Y-105529143D01*
X119224879Y-105485289D01*
X119237274Y-105441114D01*
X119247337Y-105400955D01*
X119253903Y-105369149D01*
X119255865Y-105351809D01*
X119262001Y-105340983D01*
X119280443Y-105318569D01*
X119311242Y-105284513D01*
X119354450Y-105238761D01*
X119410118Y-105181258D01*
X119478298Y-105111950D01*
X119559041Y-105030783D01*
X119571379Y-105018442D01*
X119886894Y-104703016D01*
X119938143Y-104708576D01*
G37*
G36*
X116796039Y-103270436D02*
G01*
X116817745Y-103287380D01*
X116849924Y-103312852D01*
X116889637Y-103344493D01*
X116933947Y-103379943D01*
X116979915Y-103416845D01*
X117024603Y-103452837D01*
X117065074Y-103485561D01*
X117098389Y-103512657D01*
X117121609Y-103531766D01*
X117124660Y-103534318D01*
X117141377Y-103547992D01*
X117165250Y-103567099D01*
X117180881Y-103579454D01*
X117219670Y-103609942D01*
X117280710Y-103576960D01*
X117320563Y-103556444D01*
X117366624Y-103534224D01*
X117408994Y-103515075D01*
X117409406Y-103514898D01*
X117477062Y-103485817D01*
X117732765Y-103741411D01*
X117787525Y-103796287D01*
X117838271Y-103847411D01*
X117883723Y-103893474D01*
X117922603Y-103933168D01*
X117953632Y-103965185D01*
X117975533Y-103988216D01*
X117987025Y-104000953D01*
X117988469Y-104003038D01*
X117980716Y-104007601D01*
X117960983Y-104012453D01*
X117947235Y-104014664D01*
X117911307Y-104021141D01*
X117864734Y-104031772D01*
X117813279Y-104045030D01*
X117762702Y-104059387D01*
X117718765Y-104073316D01*
X117698640Y-104080578D01*
X117646897Y-104102823D01*
X117589151Y-104131198D01*
X117533039Y-104161761D01*
X117488425Y-104189083D01*
X117444123Y-104218475D01*
X116523412Y-104218475D01*
X116509990Y-104197991D01*
X116495597Y-104178040D01*
X116484957Y-104165438D01*
X116475649Y-104154665D01*
X116457724Y-104133006D01*
X116433383Y-104103155D01*
X116404828Y-104067803D01*
X116389895Y-104049199D01*
X116356581Y-104007657D01*
X116323064Y-103965937D01*
X116292702Y-103928214D01*
X116268853Y-103898662D01*
X116263627Y-103892208D01*
X116240144Y-103862827D01*
X116218527Y-103835078D01*
X116203185Y-103814627D01*
X116202374Y-103813494D01*
X116183937Y-103787602D01*
X116742775Y-103229540D01*
X116796039Y-103270436D01*
G37*
G36*
X118512529Y-102853420D02*
G01*
X118515364Y-102875651D01*
X118519266Y-102909914D01*
X118523654Y-102950954D01*
X118526757Y-102981462D01*
X118532149Y-103033369D01*
X118538705Y-103093018D01*
X118545369Y-103150929D01*
X118548475Y-103176780D01*
X118554273Y-103226838D01*
X118559928Y-103280312D01*
X118564622Y-103329277D01*
X118566648Y-103353320D01*
X118570438Y-103389289D01*
X118575264Y-103416435D01*
X118580418Y-103431136D01*
X118582188Y-103432677D01*
X118607913Y-103440428D01*
X118643708Y-103452049D01*
X118684794Y-103465895D01*
X118726397Y-103480318D01*
X118763739Y-103493674D01*
X118792044Y-103504315D01*
X118802294Y-103508531D01*
X118839187Y-103524824D01*
X118839187Y-103889011D01*
X118839137Y-103966622D01*
X118838994Y-104038574D01*
X118838770Y-104103074D01*
X118838473Y-104158329D01*
X118838117Y-104202546D01*
X118837710Y-104233930D01*
X118837264Y-104250690D01*
X118837017Y-104253030D01*
X118829435Y-104248347D01*
X118810792Y-104235881D01*
X118784270Y-104217776D01*
X118765400Y-104204755D01*
X118649310Y-104134675D01*
X118523706Y-104078275D01*
X118390993Y-104036608D01*
X118370424Y-104031648D01*
X118305318Y-104016563D01*
X117981944Y-103694359D01*
X117658569Y-103372154D01*
X117663419Y-103328722D01*
X117666397Y-103302377D01*
X117670754Y-103264232D01*
X117675868Y-103219732D01*
X117680327Y-103181120D01*
X117686396Y-103127411D01*
X117692918Y-103067621D01*
X117698925Y-103010705D01*
X117701900Y-102981462D01*
X117706287Y-102938796D01*
X117710603Y-102899163D01*
X117714265Y-102867815D01*
X117716152Y-102853420D01*
X117720891Y-102820867D01*
X118507791Y-102820867D01*
X118512529Y-102853420D01*
G37*
G36*
X119248051Y-106093937D02*
G01*
X119694245Y-106094347D01*
X119733309Y-106143643D01*
X119754961Y-106170886D01*
X119774167Y-106194910D01*
X119786763Y-106210508D01*
X119797877Y-106224210D01*
X119817148Y-106248100D01*
X119842640Y-106279769D01*
X119872418Y-106316806D01*
X119904547Y-106356801D01*
X119937093Y-106397344D01*
X119968121Y-106436025D01*
X119995696Y-106470434D01*
X120017883Y-106498160D01*
X120032746Y-106516794D01*
X120038157Y-106523656D01*
X120033764Y-106531835D01*
X120017643Y-106551309D01*
X119990534Y-106581294D01*
X119953179Y-106621004D01*
X119906320Y-106669655D01*
X119850697Y-106726463D01*
X119787053Y-106790643D01*
X119765386Y-106812337D01*
X119485717Y-107091908D01*
X119333898Y-106969599D01*
X119288922Y-106933347D01*
X119247653Y-106900046D01*
X119212306Y-106871486D01*
X119185094Y-106849456D01*
X119168231Y-106835745D01*
X119164686Y-106832832D01*
X119150508Y-106821249D01*
X119126712Y-106802016D01*
X119097248Y-106778318D01*
X119079647Y-106764208D01*
X119012000Y-106710045D01*
X118936444Y-106748326D01*
X118896514Y-106768184D01*
X118855580Y-106787928D01*
X118820601Y-106804220D01*
X118810820Y-106808591D01*
X118760751Y-106830575D01*
X118504007Y-106574269D01*
X118449277Y-106519448D01*
X118398722Y-106468451D01*
X118353595Y-106422568D01*
X118315146Y-106383090D01*
X118284630Y-106351304D01*
X118263297Y-106328503D01*
X118252402Y-106315976D01*
X118251269Y-106313957D01*
X118261287Y-106310624D01*
X118283511Y-106305860D01*
X118310679Y-106301102D01*
X118439993Y-106271751D01*
X118567178Y-106225530D01*
X118691033Y-106162905D01*
X118735885Y-106135601D01*
X118801858Y-106093526D01*
X119248051Y-106093937D01*
G37*
G36*
X116962335Y-105302527D02*
G01*
X116967414Y-105321466D01*
X116968458Y-105327446D01*
X116996590Y-105459415D01*
X117038231Y-105585660D01*
X117092255Y-105703138D01*
X117134190Y-105774462D01*
X117172475Y-105833644D01*
X117172475Y-106742787D01*
X117143834Y-106767558D01*
X117118552Y-106788902D01*
X117089804Y-106812459D01*
X117080898Y-106819595D01*
X117063701Y-106833331D01*
X117035625Y-106855827D01*
X116999317Y-106884961D01*
X116957424Y-106918607D01*
X116912593Y-106954643D01*
X116903370Y-106962060D01*
X116860303Y-106996679D01*
X116821548Y-107027793D01*
X116789245Y-107053690D01*
X116765529Y-107072657D01*
X116752539Y-107082981D01*
X116751026Y-107084157D01*
X116742847Y-107079764D01*
X116723372Y-107063643D01*
X116693388Y-107036534D01*
X116653678Y-106999179D01*
X116605026Y-106952320D01*
X116548218Y-106896697D01*
X116484038Y-106833053D01*
X116462344Y-106811386D01*
X116182774Y-106531717D01*
X116305082Y-106379898D01*
X116341335Y-106334922D01*
X116374636Y-106293653D01*
X116403196Y-106258306D01*
X116425226Y-106231094D01*
X116438936Y-106214231D01*
X116441850Y-106210686D01*
X116453433Y-106196508D01*
X116472666Y-106172712D01*
X116496363Y-106143248D01*
X116510473Y-106125647D01*
X116564637Y-106058000D01*
X116526355Y-105982444D01*
X116506361Y-105942217D01*
X116486356Y-105900696D01*
X116469746Y-105864989D01*
X116465364Y-105855176D01*
X116442653Y-105803463D01*
X116696829Y-105549178D01*
X116751554Y-105494573D01*
X116802531Y-105443987D01*
X116848445Y-105398702D01*
X116887985Y-105359999D01*
X116919836Y-105329163D01*
X116942687Y-105307474D01*
X116955224Y-105296216D01*
X116957177Y-105294893D01*
X116962335Y-105302527D01*
G37*
G36*
X117595479Y-104833170D02*
G01*
X117640915Y-104754627D01*
X117700703Y-104680349D01*
X117719365Y-104660742D01*
X117792627Y-104595793D01*
X117870991Y-104545972D01*
X117958082Y-104509108D01*
X117988393Y-104499691D01*
X118026888Y-104489276D01*
X118058279Y-104482919D01*
X118088898Y-104479961D01*
X118125080Y-104479736D01*
X118165094Y-104481209D01*
X118241080Y-104488002D01*
X118306180Y-104501862D01*
X118366005Y-104524449D01*
X118426167Y-104557419D01*
X118429036Y-104559214D01*
X118494465Y-104610327D01*
X118550304Y-104674467D01*
X118594966Y-104749253D01*
X118626860Y-104832304D01*
X118636162Y-104869534D01*
X118642673Y-104912089D01*
X118646166Y-104960630D01*
X118646775Y-105010999D01*
X118644633Y-105059038D01*
X118639876Y-105100590D01*
X118632636Y-105131497D01*
X118627355Y-105142905D01*
X118613086Y-105164681D01*
X117814853Y-105164681D01*
X117815158Y-105201575D01*
X117823673Y-105284333D01*
X117847001Y-105361712D01*
X117883917Y-105431660D01*
X117933197Y-105492123D01*
X117993617Y-105541049D01*
X118029920Y-105561690D01*
X118058396Y-105575478D01*
X118080778Y-105584715D01*
X118101826Y-105590312D01*
X118126302Y-105593181D01*
X118158966Y-105594233D01*
X118200685Y-105594380D01*
X118246502Y-105594056D01*
X118279514Y-105592620D01*
X118304274Y-105589375D01*
X118325332Y-105583626D01*
X118347242Y-105574676D01*
X118356023Y-105570626D01*
X118392029Y-105550771D01*
X118433747Y-105523265D01*
X118475452Y-105492290D01*
X118511418Y-105462027D01*
X118530194Y-105443417D01*
X118547853Y-105429128D01*
X118566374Y-105427219D01*
X118589019Y-105438277D01*
X118614209Y-105458542D01*
X118651888Y-105491979D01*
X118621836Y-105541656D01*
X118563496Y-105622246D01*
X118494021Y-105690289D01*
X118414735Y-105744702D01*
X118326965Y-105784405D01*
X118322349Y-105785994D01*
X118286336Y-105797109D01*
X118252676Y-105804480D01*
X118215496Y-105808992D01*
X118168925Y-105811533D01*
X118149064Y-105812126D01*
X118103101Y-105812519D01*
X118058701Y-105811520D01*
X118021441Y-105809331D01*
X117999948Y-105806755D01*
X117928983Y-105788088D01*
X117855402Y-105758187D01*
X117786505Y-105720074D01*
X117779732Y-105715647D01*
X117710831Y-105659628D01*
X117652071Y-105590762D01*
X117604009Y-105510683D01*
X117567204Y-105421020D01*
X117542215Y-105323408D01*
X117529601Y-105219477D01*
X117529920Y-105110859D01*
X117540605Y-105017108D01*
X117542564Y-105008427D01*
X117814523Y-105008427D01*
X118051240Y-105008378D01*
X118117461Y-105008044D01*
X118178483Y-105007122D01*
X118231809Y-105005695D01*
X118274943Y-105003846D01*
X118305387Y-105001656D01*
X118319617Y-104999536D01*
X118351190Y-104984391D01*
X118371398Y-104958702D01*
X118381229Y-104920768D01*
X118382557Y-104891236D01*
X118373583Y-104829517D01*
X118348921Y-104772158D01*
X118310132Y-104721575D01*
X118258782Y-104680184D01*
X118238402Y-104668458D01*
X118193130Y-104652932D01*
X118139764Y-104647305D01*
X118084386Y-104651451D01*
X118033078Y-104665245D01*
X118015764Y-104673067D01*
X117958567Y-104711970D01*
X117908713Y-104764330D01*
X117868478Y-104826999D01*
X117840141Y-104896827D01*
X117832611Y-104926233D01*
X117826280Y-104955636D01*
X117820773Y-104980802D01*
X117818962Y-104988895D01*
X117814523Y-105008427D01*
X117542564Y-105008427D01*
X117562630Y-104919491D01*
X117595479Y-104833170D01*
G37*
G36*
X116935645Y-104435591D02*
G01*
X117011680Y-104435906D01*
X117072901Y-104436478D01*
X117120582Y-104437346D01*
X117155996Y-104438548D01*
X117180416Y-104440123D01*
X117195117Y-104442110D01*
X117201371Y-104444546D01*
X117201538Y-104446346D01*
X117193493Y-104458492D01*
X117178563Y-104480321D01*
X117159843Y-104507311D01*
X117158108Y-104509796D01*
X117114358Y-104578943D01*
X117072861Y-104656439D01*
X117038255Y-104733436D01*
X117030936Y-104752343D01*
X117018563Y-104788061D01*
X117005692Y-104829303D01*
X116993504Y-104871759D01*
X116983180Y-104911119D01*
X116975900Y-104943073D01*
X116972844Y-104963311D01*
X116972816Y-104964532D01*
X116966796Y-104974052D01*
X116949674Y-104994154D01*
X116922862Y-105023439D01*
X116887772Y-105060505D01*
X116845813Y-105103954D01*
X116798396Y-105152385D01*
X116746934Y-105204400D01*
X116692836Y-105258597D01*
X116637513Y-105313578D01*
X116582377Y-105367943D01*
X116528838Y-105420292D01*
X116478307Y-105469225D01*
X116432196Y-105513343D01*
X116391914Y-105551246D01*
X116358874Y-105581534D01*
X116334485Y-105602807D01*
X116320159Y-105613666D01*
X116317373Y-105614782D01*
X116295774Y-105612805D01*
X116274013Y-105610464D01*
X116196079Y-105601458D01*
X116132492Y-105594164D01*
X116080357Y-105588261D01*
X116036779Y-105583427D01*
X115998864Y-105579340D01*
X115963716Y-105575678D01*
X115935462Y-105572820D01*
X115892797Y-105568417D01*
X115853165Y-105564088D01*
X115821816Y-105560419D01*
X115807420Y-105558529D01*
X115774867Y-105553791D01*
X115774867Y-104766891D01*
X115807420Y-104762152D01*
X115829651Y-104759318D01*
X115863914Y-104755415D01*
X115904954Y-104751027D01*
X115935462Y-104747925D01*
X115987369Y-104742532D01*
X116047018Y-104735977D01*
X116104929Y-104729313D01*
X116130780Y-104726207D01*
X116180838Y-104720408D01*
X116234312Y-104714754D01*
X116283277Y-104710060D01*
X116307320Y-104708034D01*
X116343289Y-104704244D01*
X116370435Y-104699417D01*
X116385136Y-104694264D01*
X116386677Y-104692493D01*
X116394428Y-104666768D01*
X116406049Y-104630974D01*
X116419895Y-104589887D01*
X116434318Y-104548284D01*
X116447674Y-104510942D01*
X116458315Y-104482637D01*
X116462531Y-104472388D01*
X116478824Y-104435495D01*
X116843523Y-104435495D01*
X116935645Y-104435591D01*
G37*
G36*
X119765386Y-103508344D02*
G01*
X119831412Y-103574691D01*
X119889650Y-103633914D01*
X119939359Y-103685228D01*
X119979798Y-103727850D01*
X120010226Y-103760993D01*
X120029901Y-103783875D01*
X120038081Y-103795709D01*
X120038157Y-103797026D01*
X120030559Y-103806655D01*
X120014029Y-103827371D01*
X119990523Y-103856735D01*
X119961999Y-103892313D01*
X119930413Y-103931668D01*
X119897723Y-103972363D01*
X119865885Y-104011962D01*
X119836857Y-104048029D01*
X119812595Y-104078128D01*
X119795056Y-104099821D01*
X119786763Y-104109995D01*
X119775205Y-104124179D01*
X119755996Y-104147974D01*
X119732322Y-104177426D01*
X119718303Y-104194917D01*
X119664234Y-104262447D01*
X119710728Y-104355481D01*
X119730311Y-104395476D01*
X119748017Y-104433103D01*
X119761741Y-104463804D01*
X119768810Y-104481341D01*
X119780397Y-104514166D01*
X119529038Y-104765637D01*
X119474643Y-104819923D01*
X119424023Y-104870185D01*
X119378496Y-104915133D01*
X119339381Y-104953478D01*
X119307993Y-104983931D01*
X119285652Y-105005202D01*
X119273674Y-105016003D01*
X119272041Y-105017108D01*
X119264518Y-105010224D01*
X119261134Y-105003376D01*
X119256758Y-104983365D01*
X119255865Y-104970288D01*
X119253187Y-104948138D01*
X119245934Y-104913975D01*
X119235275Y-104872170D01*
X119222381Y-104827092D01*
X119208420Y-104783113D01*
X119197529Y-104752343D01*
X119167099Y-104678207D01*
X119133524Y-104611571D01*
X119093988Y-104545904D01*
X119056207Y-104487038D01*
X119056207Y-103577895D01*
X119084847Y-103553123D01*
X119110112Y-103531779D01*
X119138846Y-103508197D01*
X119147783Y-103501018D01*
X119164658Y-103487504D01*
X119192517Y-103465119D01*
X119228834Y-103435896D01*
X119271081Y-103401870D01*
X119316733Y-103365073D01*
X119333898Y-103351230D01*
X119485717Y-103228774D01*
X119765386Y-103508344D01*
G37*
X132858000Y-37786000D02*
X123588000Y-37786000D01*
X123588000Y-37786000D02*
X123588000Y-119186000D01*
X144128000Y-37786000D02*
X134858000Y-37786000D01*
X123588000Y-119186000D02*
X144128000Y-119186000D01*
X144128000Y-119186000D02*
X144128000Y-37786000D01*
X132858000Y-37786000D02*
G75*
G03*
X134858000Y-37786000I1000000J0D01*
G01*
%LPC*%
D13*
X115565000Y-52837000D03*
D14*
X115565000Y-55377000D03*
X115565000Y-57917000D03*
X115565000Y-60457000D03*
X115565000Y-62997000D03*
X115565000Y-65537000D03*
X115565000Y-68077000D03*
X115565000Y-70617000D03*
X115565000Y-73157000D03*
X115565000Y-75697000D03*
X115565000Y-78237000D03*
X115565000Y-80777000D03*
X115565000Y-83317000D03*
X115565000Y-85857000D03*
X115565000Y-88397000D03*
X115565000Y-90937000D03*
X115565000Y-93477000D03*
X115565000Y-96017000D03*
X115565000Y-98557000D03*
X115565000Y-101097000D03*
X130805000Y-101097000D03*
X130805000Y-98557000D03*
X130805000Y-96017000D03*
X130805000Y-93477000D03*
X130805000Y-90937000D03*
X130805000Y-88397000D03*
X130805000Y-85857000D03*
X130805000Y-83317000D03*
X130805000Y-80777000D03*
X130805000Y-78237000D03*
X130805000Y-75697000D03*
X130805000Y-73157000D03*
X130805000Y-70617000D03*
X130805000Y-68077000D03*
X130805000Y-65537000D03*
X130805000Y-62997000D03*
X130805000Y-60457000D03*
X130805000Y-57917000D03*
X130805000Y-55377000D03*
X130805000Y-52837000D03*
D13*
X122428000Y-39116000D03*
D14*
X122428000Y-41656000D03*
X122428000Y-44196000D03*
X122428000Y-46736000D03*
X122428000Y-49276000D03*
X122428000Y-51816000D03*
X122428000Y-54356000D03*
X122428000Y-56896000D03*
X122428000Y-59436000D03*
X122428000Y-61976000D03*
X122428000Y-64516000D03*
X122428000Y-67056000D03*
X122428000Y-69596000D03*
X122428000Y-72136000D03*
X122428000Y-74676000D03*
X122428000Y-77216000D03*
X122428000Y-79756000D03*
X122428000Y-82296000D03*
X122428000Y-84836000D03*
X122428000Y-87376000D03*
X122428000Y-89916000D03*
X122428000Y-92456000D03*
X122428000Y-94996000D03*
X122428000Y-97536000D03*
X122428000Y-100076000D03*
X122428000Y-102616000D03*
X122428000Y-105156000D03*
X122428000Y-107696000D03*
X122428000Y-110236000D03*
X122428000Y-112776000D03*
X122428000Y-115316000D03*
X122428000Y-117856000D03*
X145288000Y-117856000D03*
X145288000Y-115316000D03*
X145288000Y-112776000D03*
X145288000Y-110236000D03*
X145288000Y-107696000D03*
X145288000Y-105156000D03*
X145288000Y-102616000D03*
X145288000Y-100076000D03*
X145288000Y-97536000D03*
X145288000Y-94996000D03*
X145288000Y-92456000D03*
X145288000Y-89916000D03*
X145288000Y-87376000D03*
X145288000Y-84836000D03*
X145288000Y-82296000D03*
X145288000Y-79756000D03*
X145288000Y-77216000D03*
X145288000Y-74676000D03*
X145288000Y-72136000D03*
X145288000Y-69596000D03*
X145288000Y-67056000D03*
X145288000Y-64516000D03*
X145288000Y-61976000D03*
X145288000Y-59436000D03*
X145288000Y-56896000D03*
X145288000Y-54356000D03*
X145288000Y-51816000D03*
X145288000Y-49276000D03*
X145288000Y-46736000D03*
X145288000Y-44196000D03*
X145288000Y-41656000D03*
X145288000Y-39116000D03*
M02*
