G04 #@! TF.GenerationSoftware,KiCad,Pcbnew,(6.0.0)*
G04 #@! TF.CreationDate,2023-01-29T20:39:39-05:00*
G04 #@! TF.ProjectId,tms7000 64 pin adapter,746d7337-3030-4302-9036-342070696e20,rev?*
G04 #@! TF.SameCoordinates,Original*
G04 #@! TF.FileFunction,Legend,Bot*
G04 #@! TF.FilePolarity,Positive*
%FSLAX46Y46*%
G04 Gerber Fmt 4.6, Leading zero omitted, Abs format (unit mm)*
G04 Created by KiCad (PCBNEW (6.0.0)) date 2023-01-29 20:39:39*
%MOMM*%
%LPD*%
G01*
G04 APERTURE LIST*
%ADD10C,0.100000*%
%ADD11C,0.150000*%
%ADD12R,1.600000X1.600000*%
%ADD13O,1.600000X1.600000*%
G04 APERTURE END LIST*
D10*
X141161333Y-117198000D02*
X141528000Y-117198000D01*
X141594666Y-117231333D01*
X141628000Y-117298000D01*
X141628000Y-117431333D01*
X141594666Y-117498000D01*
X141194666Y-117198000D02*
X141161333Y-117264666D01*
X141161333Y-117431333D01*
X141194666Y-117498000D01*
X141261333Y-117531333D01*
X141328000Y-117531333D01*
X141394666Y-117498000D01*
X141428000Y-117431333D01*
X141428000Y-117264666D01*
X141461333Y-117198000D01*
X141161333Y-116864666D02*
X141861333Y-116864666D01*
X141594666Y-116864666D02*
X141628000Y-116798000D01*
X141628000Y-116664666D01*
X141594666Y-116598000D01*
X141561333Y-116564666D01*
X141494666Y-116531333D01*
X141294666Y-116531333D01*
X141228000Y-116564666D01*
X141194666Y-116598000D01*
X141161333Y-116664666D01*
X141161333Y-116798000D01*
X141194666Y-116864666D01*
X141628000Y-116298000D02*
X141628000Y-115931333D01*
X141161333Y-116298000D01*
X141161333Y-115931333D01*
X141161333Y-115664666D02*
X141628000Y-115664666D01*
X141561333Y-115664666D02*
X141594666Y-115631333D01*
X141628000Y-115564666D01*
X141628000Y-115464666D01*
X141594666Y-115398000D01*
X141528000Y-115364666D01*
X141161333Y-115364666D01*
X141528000Y-115364666D02*
X141594666Y-115331333D01*
X141628000Y-115264666D01*
X141628000Y-115164666D01*
X141594666Y-115098000D01*
X141528000Y-115064666D01*
X141161333Y-115064666D01*
X141161333Y-114431333D02*
X141528000Y-114431333D01*
X141594666Y-114464666D01*
X141628000Y-114531333D01*
X141628000Y-114664666D01*
X141594666Y-114731333D01*
X141194666Y-114431333D02*
X141161333Y-114498000D01*
X141161333Y-114664666D01*
X141194666Y-114731333D01*
X141261333Y-114764666D01*
X141328000Y-114764666D01*
X141394666Y-114731333D01*
X141428000Y-114664666D01*
X141428000Y-114498000D01*
X141461333Y-114431333D01*
X141628000Y-114098000D02*
X141161333Y-114098000D01*
X141561333Y-114098000D02*
X141594666Y-114064666D01*
X141628000Y-113998000D01*
X141628000Y-113898000D01*
X141594666Y-113831333D01*
X141528000Y-113798000D01*
X141161333Y-113798000D01*
X141794666Y-113498000D02*
X141828000Y-113464666D01*
X141861333Y-113398000D01*
X141861333Y-113231333D01*
X141828000Y-113164666D01*
X141794666Y-113131333D01*
X141728000Y-113098000D01*
X141661333Y-113098000D01*
X141561333Y-113131333D01*
X141161333Y-113531333D01*
X141161333Y-113098000D01*
X141161333Y-112798000D02*
X141861333Y-112798000D01*
X141428000Y-112731333D02*
X141161333Y-112531333D01*
X141628000Y-112531333D02*
X141361333Y-112798000D01*
X141228000Y-112231333D02*
X141194666Y-112198000D01*
X141161333Y-112231333D01*
X141194666Y-112264666D01*
X141228000Y-112231333D01*
X141161333Y-112231333D01*
X141628000Y-111964666D02*
X141161333Y-111831333D01*
X141494666Y-111698000D01*
X141161333Y-111564666D01*
X141628000Y-111431333D01*
X141161333Y-111064666D02*
X141194666Y-111131333D01*
X141228000Y-111164666D01*
X141294666Y-111198000D01*
X141494666Y-111198000D01*
X141561333Y-111164666D01*
X141594666Y-111131333D01*
X141628000Y-111064666D01*
X141628000Y-110964666D01*
X141594666Y-110898000D01*
X141561333Y-110864666D01*
X141494666Y-110831333D01*
X141294666Y-110831333D01*
X141228000Y-110864666D01*
X141194666Y-110898000D01*
X141161333Y-110964666D01*
X141161333Y-111064666D01*
X141161333Y-110531333D02*
X141628000Y-110531333D01*
X141494666Y-110531333D02*
X141561333Y-110498000D01*
X141594666Y-110464666D01*
X141628000Y-110398000D01*
X141628000Y-110331333D01*
X141161333Y-109798000D02*
X141861333Y-109798000D01*
X141194666Y-109798000D02*
X141161333Y-109864666D01*
X141161333Y-109998000D01*
X141194666Y-110064666D01*
X141228000Y-110098000D01*
X141294666Y-110131333D01*
X141494666Y-110131333D01*
X141561333Y-110098000D01*
X141594666Y-110064666D01*
X141628000Y-109998000D01*
X141628000Y-109864666D01*
X141594666Y-109798000D01*
X141628000Y-109464666D02*
X140928000Y-109464666D01*
X141594666Y-109464666D02*
X141628000Y-109398000D01*
X141628000Y-109264666D01*
X141594666Y-109198000D01*
X141561333Y-109164666D01*
X141494666Y-109131333D01*
X141294666Y-109131333D01*
X141228000Y-109164666D01*
X141194666Y-109198000D01*
X141161333Y-109264666D01*
X141161333Y-109398000D01*
X141194666Y-109464666D01*
X141161333Y-108831333D02*
X141628000Y-108831333D01*
X141494666Y-108831333D02*
X141561333Y-108798000D01*
X141594666Y-108764666D01*
X141628000Y-108698000D01*
X141628000Y-108631333D01*
X141194666Y-108131333D02*
X141161333Y-108198000D01*
X141161333Y-108331333D01*
X141194666Y-108398000D01*
X141261333Y-108431333D01*
X141528000Y-108431333D01*
X141594666Y-108398000D01*
X141628000Y-108331333D01*
X141628000Y-108198000D01*
X141594666Y-108131333D01*
X141528000Y-108098000D01*
X141461333Y-108098000D01*
X141394666Y-108431333D01*
X141194666Y-107831333D02*
X141161333Y-107764666D01*
X141161333Y-107631333D01*
X141194666Y-107564666D01*
X141261333Y-107531333D01*
X141294666Y-107531333D01*
X141361333Y-107564666D01*
X141394666Y-107631333D01*
X141394666Y-107731333D01*
X141428000Y-107798000D01*
X141494666Y-107831333D01*
X141528000Y-107831333D01*
X141594666Y-107798000D01*
X141628000Y-107731333D01*
X141628000Y-107631333D01*
X141594666Y-107564666D01*
X141194666Y-107264666D02*
X141161333Y-107198000D01*
X141161333Y-107064666D01*
X141194666Y-106998000D01*
X141261333Y-106964666D01*
X141294666Y-106964666D01*
X141361333Y-106998000D01*
X141394666Y-107064666D01*
X141394666Y-107164666D01*
X141428000Y-107231333D01*
X141494666Y-107264666D01*
X141528000Y-107264666D01*
X141594666Y-107231333D01*
X141628000Y-107164666D01*
X141628000Y-107064666D01*
X141594666Y-106998000D01*
X141228000Y-106664666D02*
X141194666Y-106631333D01*
X141161333Y-106664666D01*
X141194666Y-106698000D01*
X141228000Y-106664666D01*
X141161333Y-106664666D01*
X141194666Y-106031333D02*
X141161333Y-106098000D01*
X141161333Y-106231333D01*
X141194666Y-106298000D01*
X141228000Y-106331333D01*
X141294666Y-106364666D01*
X141494666Y-106364666D01*
X141561333Y-106331333D01*
X141594666Y-106298000D01*
X141628000Y-106231333D01*
X141628000Y-106098000D01*
X141594666Y-106031333D01*
X141161333Y-105631333D02*
X141194666Y-105698000D01*
X141228000Y-105731333D01*
X141294666Y-105764666D01*
X141494666Y-105764666D01*
X141561333Y-105731333D01*
X141594666Y-105698000D01*
X141628000Y-105631333D01*
X141628000Y-105531333D01*
X141594666Y-105464666D01*
X141561333Y-105431333D01*
X141494666Y-105398000D01*
X141294666Y-105398000D01*
X141228000Y-105431333D01*
X141194666Y-105464666D01*
X141161333Y-105531333D01*
X141161333Y-105631333D01*
X141161333Y-105098000D02*
X141628000Y-105098000D01*
X141561333Y-105098000D02*
X141594666Y-105064666D01*
X141628000Y-104998000D01*
X141628000Y-104898000D01*
X141594666Y-104831333D01*
X141528000Y-104798000D01*
X141161333Y-104798000D01*
X141528000Y-104798000D02*
X141594666Y-104764666D01*
X141628000Y-104698000D01*
X141628000Y-104598000D01*
X141594666Y-104531333D01*
X141528000Y-104498000D01*
X141161333Y-104498000D01*
D11*
X133492285Y-48669380D02*
X133492285Y-47669380D01*
X133158952Y-48383666D01*
X132825619Y-47669380D01*
X132825619Y-48669380D01*
X131920857Y-48669380D02*
X131920857Y-48145571D01*
X131968476Y-48050333D01*
X132063714Y-48002714D01*
X132254190Y-48002714D01*
X132349428Y-48050333D01*
X131920857Y-48621761D02*
X132016095Y-48669380D01*
X132254190Y-48669380D01*
X132349428Y-48621761D01*
X132397047Y-48526523D01*
X132397047Y-48431285D01*
X132349428Y-48336047D01*
X132254190Y-48288428D01*
X132016095Y-48288428D01*
X131920857Y-48240809D01*
X131016095Y-48621761D02*
X131111333Y-48669380D01*
X131301809Y-48669380D01*
X131397047Y-48621761D01*
X131444666Y-48574142D01*
X131492285Y-48478904D01*
X131492285Y-48193190D01*
X131444666Y-48097952D01*
X131397047Y-48050333D01*
X131301809Y-48002714D01*
X131111333Y-48002714D01*
X131016095Y-48050333D01*
X130587523Y-48669380D02*
X130587523Y-47669380D01*
X130158952Y-48669380D02*
X130158952Y-48145571D01*
X130206571Y-48050333D01*
X130301809Y-48002714D01*
X130444666Y-48002714D01*
X130539904Y-48050333D01*
X130587523Y-48097952D01*
X129682761Y-48669380D02*
X129682761Y-48002714D01*
X129682761Y-47669380D02*
X129730380Y-47717000D01*
X129682761Y-47764619D01*
X129635142Y-47717000D01*
X129682761Y-47669380D01*
X129682761Y-47764619D01*
X129206571Y-48002714D02*
X129206571Y-48669380D01*
X129206571Y-48097952D02*
X129158952Y-48050333D01*
X129063714Y-48002714D01*
X128920857Y-48002714D01*
X128825619Y-48050333D01*
X128778000Y-48145571D01*
X128778000Y-48669380D01*
X127920857Y-48621761D02*
X128016095Y-48669380D01*
X128206571Y-48669380D01*
X128301809Y-48621761D01*
X128349428Y-48526523D01*
X128349428Y-48145571D01*
X128301809Y-48050333D01*
X128206571Y-48002714D01*
X128016095Y-48002714D01*
X127920857Y-48050333D01*
X127873238Y-48145571D01*
X127873238Y-48240809D01*
X128349428Y-48336047D01*
X126682761Y-48002714D02*
X126682761Y-49002714D01*
X126682761Y-48050333D02*
X126587523Y-48002714D01*
X126397047Y-48002714D01*
X126301809Y-48050333D01*
X126254190Y-48097952D01*
X126206571Y-48193190D01*
X126206571Y-48478904D01*
X126254190Y-48574142D01*
X126301809Y-48621761D01*
X126397047Y-48669380D01*
X126587523Y-48669380D01*
X126682761Y-48621761D01*
X125778000Y-48669380D02*
X125778000Y-48002714D01*
X125778000Y-47669380D02*
X125825619Y-47717000D01*
X125778000Y-47764619D01*
X125730380Y-47717000D01*
X125778000Y-47669380D01*
X125778000Y-47764619D01*
X125301809Y-48002714D02*
X125301809Y-48669380D01*
X125301809Y-48097952D02*
X125254190Y-48050333D01*
X125158952Y-48002714D01*
X125016095Y-48002714D01*
X124920857Y-48050333D01*
X124873238Y-48145571D01*
X124873238Y-48669380D01*
X124444666Y-48621761D02*
X124349428Y-48669380D01*
X124158952Y-48669380D01*
X124063714Y-48621761D01*
X124016095Y-48526523D01*
X124016095Y-48478904D01*
X124063714Y-48383666D01*
X124158952Y-48336047D01*
X124301809Y-48336047D01*
X124397047Y-48288428D01*
X124444666Y-48193190D01*
X124444666Y-48145571D01*
X124397047Y-48050333D01*
X124301809Y-48002714D01*
X124158952Y-48002714D01*
X124063714Y-48050333D01*
X132278000Y-50279380D02*
X132373238Y-50231761D01*
X132420857Y-50184142D01*
X132468476Y-50088904D01*
X132468476Y-49803190D01*
X132420857Y-49707952D01*
X132373238Y-49660333D01*
X132278000Y-49612714D01*
X132135142Y-49612714D01*
X132039904Y-49660333D01*
X131992285Y-49707952D01*
X131944666Y-49803190D01*
X131944666Y-50088904D01*
X131992285Y-50184142D01*
X132039904Y-50231761D01*
X132135142Y-50279380D01*
X132278000Y-50279380D01*
X131516095Y-49612714D02*
X131516095Y-50279380D01*
X131516095Y-49707952D02*
X131468476Y-49660333D01*
X131373238Y-49612714D01*
X131230380Y-49612714D01*
X131135142Y-49660333D01*
X131087523Y-49755571D01*
X131087523Y-50279380D01*
X129849428Y-50279380D02*
X129849428Y-49279380D01*
X129849428Y-49660333D02*
X129754190Y-49612714D01*
X129563714Y-49612714D01*
X129468476Y-49660333D01*
X129420857Y-49707952D01*
X129373238Y-49803190D01*
X129373238Y-50088904D01*
X129420857Y-50184142D01*
X129468476Y-50231761D01*
X129563714Y-50279380D01*
X129754190Y-50279380D01*
X129849428Y-50231761D01*
X128801809Y-50279380D02*
X128897047Y-50231761D01*
X128944666Y-50184142D01*
X128992285Y-50088904D01*
X128992285Y-49803190D01*
X128944666Y-49707952D01*
X128897047Y-49660333D01*
X128801809Y-49612714D01*
X128658952Y-49612714D01*
X128563714Y-49660333D01*
X128516095Y-49707952D01*
X128468476Y-49803190D01*
X128468476Y-50088904D01*
X128516095Y-50184142D01*
X128563714Y-50231761D01*
X128658952Y-50279380D01*
X128801809Y-50279380D01*
X128182761Y-49612714D02*
X127801809Y-49612714D01*
X128039904Y-49279380D02*
X128039904Y-50136523D01*
X127992285Y-50231761D01*
X127897047Y-50279380D01*
X127801809Y-50279380D01*
X127611333Y-49612714D02*
X127230380Y-49612714D01*
X127468476Y-49279380D02*
X127468476Y-50136523D01*
X127420857Y-50231761D01*
X127325619Y-50279380D01*
X127230380Y-50279380D01*
X126754190Y-50279380D02*
X126849428Y-50231761D01*
X126897047Y-50184142D01*
X126944666Y-50088904D01*
X126944666Y-49803190D01*
X126897047Y-49707952D01*
X126849428Y-49660333D01*
X126754190Y-49612714D01*
X126611333Y-49612714D01*
X126516095Y-49660333D01*
X126468476Y-49707952D01*
X126420857Y-49803190D01*
X126420857Y-50088904D01*
X126468476Y-50184142D01*
X126516095Y-50231761D01*
X126611333Y-50279380D01*
X126754190Y-50279380D01*
X125992285Y-50279380D02*
X125992285Y-49612714D01*
X125992285Y-49707952D02*
X125944666Y-49660333D01*
X125849428Y-49612714D01*
X125706571Y-49612714D01*
X125611333Y-49660333D01*
X125563714Y-49755571D01*
X125563714Y-50279380D01*
X125563714Y-49755571D02*
X125516095Y-49660333D01*
X125420857Y-49612714D01*
X125278000Y-49612714D01*
X125182761Y-49660333D01*
X125135142Y-49755571D01*
X125135142Y-50279380D01*
G36*
X120737389Y-106422644D02*
G01*
X120730887Y-106466692D01*
X120719432Y-106503065D01*
X120702383Y-106533840D01*
X120679101Y-106561091D01*
X120663543Y-106575032D01*
X120622530Y-106600863D01*
X120577542Y-106615036D01*
X120542314Y-106617788D01*
X120501745Y-106615121D01*
X120464517Y-106607277D01*
X120438930Y-106596783D01*
X120401903Y-106571732D01*
X120370822Y-106538289D01*
X120348305Y-106498896D01*
X120343959Y-106485802D01*
X120337969Y-106454798D01*
X120334166Y-106416595D01*
X120332555Y-106374443D01*
X120332688Y-106364622D01*
X120433396Y-106364622D01*
X120434009Y-106393827D01*
X120437610Y-106433015D01*
X120444818Y-106462494D01*
X120456071Y-106483791D01*
X120471807Y-106498431D01*
X120471842Y-106498454D01*
X120501699Y-106511496D01*
X120534910Y-106515697D01*
X120567383Y-106511083D01*
X120595031Y-106497678D01*
X120604491Y-106490094D01*
X120617977Y-106475574D01*
X120627170Y-106458180D01*
X120632813Y-106435524D01*
X120635653Y-106405214D01*
X120636434Y-106364860D01*
X120636432Y-106361198D01*
X120636118Y-106328228D01*
X120635024Y-106304807D01*
X120632802Y-106288236D01*
X120629107Y-106275818D01*
X120623593Y-106264856D01*
X120608118Y-106244609D01*
X120582291Y-106225528D01*
X120552772Y-106215446D01*
X120522039Y-106214361D01*
X120492569Y-106222271D01*
X120466838Y-106239171D01*
X120447325Y-106265059D01*
X120441672Y-106277271D01*
X120437343Y-106291273D01*
X120434811Y-106308421D01*
X120433641Y-106331832D01*
X120433396Y-106364622D01*
X120332688Y-106364622D01*
X120333137Y-106331595D01*
X120335916Y-106291300D01*
X120340894Y-106256811D01*
X120348074Y-106231377D01*
X120357503Y-106211878D01*
X120384757Y-106174228D01*
X120419129Y-106144967D01*
X120458824Y-106124456D01*
X120502045Y-106113056D01*
X120546997Y-106111129D01*
X120591884Y-106119034D01*
X120634911Y-106137134D01*
X120674281Y-106165789D01*
X120683752Y-106174975D01*
X120705751Y-106201849D01*
X120721622Y-106232103D01*
X120732076Y-106267908D01*
X120737826Y-106311437D01*
X120739584Y-106364860D01*
X120739576Y-106368846D01*
X120737389Y-106422644D01*
G37*
G36*
X116627871Y-106114238D02*
G01*
X116665992Y-106123047D01*
X116712834Y-106143097D01*
X116751027Y-106172091D01*
X116780702Y-106210168D01*
X116801990Y-106257468D01*
X116815022Y-106314132D01*
X116818813Y-106368952D01*
X116814257Y-106423558D01*
X116801680Y-106474106D01*
X116781645Y-106518354D01*
X116754717Y-106554062D01*
X116748313Y-106560200D01*
X116715202Y-106584577D01*
X116676916Y-106603771D01*
X116639003Y-106614867D01*
X116615022Y-106618394D01*
X116587330Y-106619908D01*
X116562099Y-106617074D01*
X116533799Y-106609619D01*
X116521987Y-106605538D01*
X116486908Y-106589273D01*
X116454545Y-106568747D01*
X116429743Y-106546882D01*
X116422316Y-106537808D01*
X116421768Y-106530513D01*
X116429743Y-106520459D01*
X116433378Y-106516658D01*
X116447995Y-106503044D01*
X116464962Y-106488782D01*
X116488272Y-106470296D01*
X116510727Y-106487423D01*
X116515668Y-106491027D01*
X116549678Y-106508417D01*
X116585569Y-106515831D01*
X116621033Y-106513672D01*
X116653765Y-106502349D01*
X116681459Y-106482264D01*
X116701808Y-106453825D01*
X116702576Y-106452244D01*
X116709531Y-106435391D01*
X116713699Y-106417822D01*
X116715716Y-106395618D01*
X116716216Y-106364860D01*
X116716177Y-106355915D01*
X116715349Y-106328334D01*
X116712925Y-106308228D01*
X116708215Y-106291631D01*
X116700532Y-106274574D01*
X116683896Y-106249155D01*
X116659032Y-106228800D01*
X116627211Y-106217986D01*
X116587239Y-106216096D01*
X116575983Y-106216829D01*
X116553422Y-106220086D01*
X116535471Y-106226754D01*
X116516473Y-106238636D01*
X116487664Y-106258942D01*
X116464658Y-106240697D01*
X116458917Y-106236039D01*
X116442153Y-106221426D01*
X116429684Y-106209195D01*
X116427840Y-106207144D01*
X116421560Y-106198479D01*
X116422929Y-106191261D01*
X116432449Y-106180254D01*
X116435187Y-106177425D01*
X116465986Y-106152751D01*
X116504070Y-106131886D01*
X116544764Y-106117443D01*
X116554832Y-106114973D01*
X116578491Y-106110847D01*
X116600570Y-106110690D01*
X116627871Y-106114238D01*
G37*
G36*
X117061677Y-106897800D02*
G01*
X117103860Y-106908756D01*
X117141837Y-106930210D01*
X117163705Y-106946889D01*
X117163705Y-106902492D01*
X117263729Y-106902492D01*
X117263729Y-107396364D01*
X117163705Y-107396364D01*
X117163695Y-107232261D01*
X117163662Y-107199446D01*
X117163441Y-107155757D01*
X117162930Y-107122000D01*
X117162036Y-107096591D01*
X117160665Y-107077944D01*
X117158723Y-107064474D01*
X117156118Y-107054595D01*
X117152755Y-107046722D01*
X117142847Y-107031290D01*
X117119113Y-107010292D01*
X117090121Y-106998753D01*
X117058599Y-106997525D01*
X117027272Y-107007462D01*
X117002794Y-107020221D01*
X116966699Y-106976346D01*
X116965920Y-106975397D01*
X116948951Y-106953992D01*
X116939510Y-106939879D01*
X116936623Y-106931283D01*
X116939315Y-106926426D01*
X116975343Y-106907579D01*
X117017950Y-106897391D01*
X117061677Y-106897800D01*
G37*
G36*
X119773277Y-107297740D02*
G01*
X119764922Y-107317757D01*
X119741580Y-107349802D01*
X119708911Y-107375586D01*
X119668545Y-107393616D01*
X119643158Y-107399020D01*
X119608418Y-107401812D01*
X119573401Y-107400875D01*
X119544172Y-107396088D01*
X119542691Y-107395657D01*
X119521317Y-107386380D01*
X119501974Y-107373687D01*
X119483025Y-107357743D01*
X119483025Y-107396364D01*
X119375651Y-107396364D01*
X119377978Y-107224272D01*
X119483025Y-107224272D01*
X119483604Y-107238452D01*
X119488725Y-107266494D01*
X119498335Y-107287439D01*
X119511451Y-107298712D01*
X119514155Y-107299600D01*
X119532169Y-107302827D01*
X119557171Y-107304946D01*
X119584707Y-107305796D01*
X119610328Y-107305214D01*
X119629582Y-107303036D01*
X119637641Y-107300911D01*
X119660465Y-107288711D01*
X119675844Y-107270733D01*
X119682743Y-107249599D01*
X119680127Y-107227929D01*
X119666961Y-107208344D01*
X119660341Y-107202676D01*
X119652387Y-107198213D01*
X119641449Y-107195238D01*
X119625148Y-107193340D01*
X119601103Y-107192111D01*
X119566937Y-107191141D01*
X119483025Y-107189094D01*
X119483025Y-107224272D01*
X119377978Y-107224272D01*
X119378208Y-107207255D01*
X119378247Y-107204355D01*
X119379275Y-107143620D01*
X119380548Y-107094473D01*
X119382113Y-107056040D01*
X119384012Y-107027444D01*
X119386292Y-107007811D01*
X119388998Y-106996265D01*
X119402443Y-106968681D01*
X119427282Y-106939763D01*
X119461901Y-106917477D01*
X119471053Y-106913171D01*
X119488787Y-106906373D01*
X119507670Y-106901986D01*
X119531486Y-106899268D01*
X119564020Y-106897479D01*
X119590432Y-106896870D01*
X119634015Y-106899008D01*
X119669425Y-106906034D01*
X119699091Y-106918543D01*
X119725440Y-106937132D01*
X119736170Y-106946729D01*
X119747461Y-106958123D01*
X119751841Y-106964491D01*
X119751693Y-106965031D01*
X119745611Y-106971955D01*
X119732396Y-106983767D01*
X119714504Y-106998248D01*
X119677166Y-107027244D01*
X119661277Y-107012518D01*
X119652270Y-107005351D01*
X119633153Y-106996342D01*
X119607587Y-106991474D01*
X119572690Y-106990014D01*
X119557294Y-106990657D01*
X119527148Y-106996125D01*
X119503732Y-107006349D01*
X119489780Y-107020331D01*
X119487340Y-107027205D01*
X119484238Y-107045354D01*
X119483025Y-107067065D01*
X119483025Y-107101179D01*
X119575235Y-107103805D01*
X119618004Y-107105565D01*
X119652830Y-107108623D01*
X119679680Y-107113508D01*
X119700863Y-107120814D01*
X119718688Y-107131137D01*
X119735462Y-107145071D01*
X119746949Y-107157966D01*
X119764503Y-107189197D01*
X119775417Y-107225625D01*
X119777499Y-107249599D01*
X119778678Y-107263167D01*
X119773277Y-107297740D01*
G37*
G36*
X120146434Y-107396364D02*
G01*
X120144498Y-107229135D01*
X120144145Y-107199512D01*
X120143519Y-107155597D01*
X120142783Y-107121697D01*
X120141805Y-107096222D01*
X120140451Y-107077577D01*
X120138587Y-107064172D01*
X120136080Y-107054412D01*
X120132797Y-107046706D01*
X120128603Y-107039461D01*
X120127992Y-107038494D01*
X120107149Y-107016799D01*
X120079512Y-107002771D01*
X120048521Y-106997062D01*
X120017620Y-107000325D01*
X119990249Y-107013214D01*
X119979982Y-107021294D01*
X119971244Y-107030344D01*
X119964528Y-107041322D01*
X119959571Y-107055738D01*
X119956107Y-107075103D01*
X119953873Y-107100927D01*
X119952603Y-107134721D01*
X119952034Y-107177995D01*
X119951900Y-107232261D01*
X119951891Y-107396364D01*
X119851354Y-107396364D01*
X119853173Y-107204129D01*
X119853271Y-107193827D01*
X119853871Y-107138085D01*
X119854686Y-107093100D01*
X119855998Y-107057373D01*
X119858088Y-107029404D01*
X119861240Y-107007694D01*
X119865735Y-106990744D01*
X119871855Y-106977054D01*
X119879884Y-106965126D01*
X119890103Y-106953460D01*
X119902794Y-106940557D01*
X119917956Y-106927508D01*
X119953671Y-106907927D01*
X119993792Y-106897566D01*
X120035391Y-106896657D01*
X120075538Y-106905430D01*
X120111305Y-106924116D01*
X120113334Y-106925586D01*
X120127775Y-106935746D01*
X120137874Y-106942376D01*
X120138701Y-106942602D01*
X120140820Y-106939698D01*
X120142492Y-106930631D01*
X120143761Y-106914346D01*
X120144671Y-106889785D01*
X120145266Y-106855893D01*
X120145590Y-106811612D01*
X120145688Y-106755886D01*
X120145688Y-106564781D01*
X120112868Y-106586443D01*
X120097662Y-106595433D01*
X120072440Y-106607327D01*
X120050229Y-106614693D01*
X120019194Y-106618451D01*
X119977136Y-106613887D01*
X119938242Y-106598972D01*
X119904504Y-106574870D01*
X119877914Y-106542746D01*
X119860464Y-106503763D01*
X119859652Y-106500742D01*
X119855495Y-106476146D01*
X119852559Y-106442661D01*
X119850844Y-106403333D01*
X119850429Y-106367986D01*
X119955016Y-106367986D01*
X119955498Y-106406380D01*
X119957482Y-106438556D01*
X119961532Y-106462193D01*
X119968210Y-106479347D01*
X119978076Y-106492073D01*
X119991691Y-106502429D01*
X120008756Y-106510480D01*
X120038223Y-106516127D01*
X120068651Y-106514293D01*
X120096119Y-106505372D01*
X120116704Y-106489764D01*
X120122699Y-106481379D01*
X120134967Y-106453046D01*
X120142757Y-106417414D01*
X120146088Y-106377623D01*
X120144979Y-106336815D01*
X120139449Y-106298130D01*
X120129516Y-106264709D01*
X120115200Y-106239694D01*
X120106345Y-106229959D01*
X120095478Y-106222372D01*
X120080875Y-106218336D01*
X120058153Y-106216032D01*
X120035858Y-106215596D01*
X120005395Y-106221064D01*
X119982702Y-106234914D01*
X119966286Y-106257828D01*
X119961575Y-106269489D01*
X119958331Y-106283916D01*
X119956323Y-106303514D01*
X119955301Y-106330724D01*
X119955016Y-106367986D01*
X119850429Y-106367986D01*
X119850349Y-106361209D01*
X119851072Y-106319334D01*
X119853014Y-106280754D01*
X119856173Y-106248517D01*
X119860548Y-106225668D01*
X119867244Y-106206939D01*
X119888648Y-106171125D01*
X119917730Y-106143222D01*
X119952672Y-106123821D01*
X119991654Y-106113514D01*
X120032855Y-106112892D01*
X120074457Y-106122547D01*
X120114638Y-106143070D01*
X120145688Y-106163965D01*
X120145688Y-106114798D01*
X120245713Y-106114798D01*
X120245713Y-107396364D01*
X120146434Y-107396364D01*
G37*
G36*
X116389054Y-106357519D02*
G01*
X116388451Y-106395025D01*
X116385988Y-106429379D01*
X116381700Y-106455969D01*
X116369097Y-106494741D01*
X116344702Y-106538724D01*
X116311952Y-106573624D01*
X116271212Y-106599074D01*
X116222848Y-106614708D01*
X116219870Y-106615295D01*
X116165895Y-106619426D01*
X116112548Y-106611787D01*
X116062082Y-106592941D01*
X116016750Y-106563447D01*
X116010269Y-106557882D01*
X115999090Y-106546868D01*
X115994667Y-106540207D01*
X115994698Y-106539966D01*
X115999789Y-106533179D01*
X116011907Y-106521098D01*
X116028612Y-106506170D01*
X116062557Y-106477169D01*
X116085184Y-106492524D01*
X116088735Y-106494850D01*
X116109897Y-106506624D01*
X116130045Y-106515217D01*
X116139905Y-106517786D01*
X116167319Y-106520513D01*
X116196851Y-106518956D01*
X116223746Y-106513555D01*
X116243250Y-106504748D01*
X116258816Y-106488790D01*
X116273510Y-106465823D01*
X116284297Y-106441144D01*
X116288489Y-106419799D01*
X116288489Y-106402369D01*
X115980814Y-106402369D01*
X115983378Y-106332039D01*
X115984152Y-106321099D01*
X116080797Y-106321099D01*
X116288489Y-106321099D01*
X116288489Y-106303328D01*
X116285450Y-106284786D01*
X116274235Y-106259124D01*
X116257563Y-106235933D01*
X116238419Y-106220170D01*
X116237520Y-106219698D01*
X116213303Y-106211620D01*
X116184798Y-106208571D01*
X116177949Y-106208768D01*
X116144333Y-106216359D01*
X116116972Y-106234311D01*
X116096886Y-106261713D01*
X116085091Y-106297656D01*
X116080797Y-106321099D01*
X115984152Y-106321099D01*
X115986583Y-106286718D01*
X115993361Y-106249731D01*
X116004730Y-106219451D01*
X116021751Y-106193071D01*
X116045484Y-106167789D01*
X116083084Y-106139394D01*
X116127904Y-106119477D01*
X116175608Y-106111200D01*
X116224733Y-106114995D01*
X116267329Y-106128291D01*
X116307831Y-106152633D01*
X116340761Y-106186780D01*
X116365894Y-106230495D01*
X116383006Y-106283537D01*
X116384540Y-106291494D01*
X116387722Y-106321099D01*
X116387762Y-106321472D01*
X116389054Y-106357519D01*
G37*
G36*
X118393369Y-102401388D02*
G01*
X118449570Y-102401442D01*
X118495038Y-102401603D01*
X118530952Y-102401928D01*
X118558490Y-102402476D01*
X118578834Y-102403302D01*
X118593163Y-102404464D01*
X118602655Y-102406019D01*
X118608491Y-102408024D01*
X118611851Y-102410535D01*
X118613913Y-102413610D01*
X118614182Y-102414217D01*
X118617094Y-102424783D01*
X118621909Y-102446002D01*
X118628341Y-102476450D01*
X118636099Y-102514706D01*
X118644894Y-102559349D01*
X118654438Y-102608957D01*
X118664441Y-102662108D01*
X118666182Y-102671436D01*
X118676164Y-102723856D01*
X118685712Y-102772320D01*
X118694530Y-102815436D01*
X118702320Y-102851812D01*
X118708787Y-102880058D01*
X118713633Y-102898782D01*
X118716563Y-102906591D01*
X118718658Y-102908118D01*
X118731227Y-102914716D01*
X118752847Y-102924748D01*
X118781660Y-102937451D01*
X118815810Y-102952066D01*
X118853439Y-102967832D01*
X118892689Y-102983987D01*
X118931702Y-102999772D01*
X118968621Y-103014425D01*
X119001588Y-103027186D01*
X119028746Y-103037293D01*
X119048236Y-103043986D01*
X119058203Y-103046505D01*
X119061560Y-103045922D01*
X119074228Y-103040311D01*
X119094948Y-103028554D01*
X119124122Y-103010396D01*
X119162152Y-102985582D01*
X119209442Y-102953858D01*
X119266394Y-102914970D01*
X119283748Y-102903042D01*
X119333170Y-102869091D01*
X119373576Y-102841409D01*
X119405953Y-102819381D01*
X119431288Y-102802393D01*
X119450566Y-102789831D01*
X119464776Y-102781079D01*
X119474904Y-102775523D01*
X119481935Y-102772549D01*
X119486857Y-102771541D01*
X119490656Y-102771885D01*
X119494318Y-102772967D01*
X119499804Y-102776512D01*
X119513480Y-102788125D01*
X119533484Y-102806557D01*
X119558641Y-102830611D01*
X119587776Y-102859093D01*
X119619713Y-102890804D01*
X119653278Y-102924550D01*
X119687294Y-102959134D01*
X119720588Y-102993359D01*
X119751984Y-103026030D01*
X119780307Y-103055950D01*
X119804381Y-103081924D01*
X119823032Y-103102754D01*
X119835084Y-103117244D01*
X119839363Y-103124199D01*
X119839303Y-103124667D01*
X119834995Y-103133787D01*
X119824427Y-103151805D01*
X119808378Y-103177510D01*
X119787628Y-103209693D01*
X119762955Y-103247143D01*
X119735137Y-103288652D01*
X119704955Y-103333009D01*
X119702078Y-103337208D01*
X119662190Y-103395896D01*
X119629392Y-103445116D01*
X119603756Y-103484756D01*
X119585355Y-103514699D01*
X119574261Y-103534831D01*
X119570547Y-103545039D01*
X119571603Y-103551070D01*
X119577022Y-103568357D01*
X119586352Y-103593753D01*
X119598817Y-103625465D01*
X119613640Y-103661699D01*
X119630045Y-103700663D01*
X119647256Y-103740564D01*
X119664496Y-103779609D01*
X119680988Y-103816004D01*
X119695956Y-103847958D01*
X119708623Y-103873676D01*
X119718213Y-103891366D01*
X119723949Y-103899235D01*
X119731881Y-103902017D01*
X119750930Y-103906846D01*
X119779433Y-103913271D01*
X119815910Y-103920982D01*
X119858880Y-103929665D01*
X119906864Y-103939008D01*
X119958382Y-103948699D01*
X120006241Y-103957626D01*
X120054653Y-103966820D01*
X120098213Y-103975264D01*
X120135432Y-103982660D01*
X120164819Y-103988713D01*
X120184884Y-103993125D01*
X120194138Y-103995600D01*
X120208204Y-104001510D01*
X120208204Y-104251037D01*
X120208203Y-104259380D01*
X120208163Y-104320530D01*
X120208021Y-104370474D01*
X120207728Y-104410368D01*
X120207234Y-104441366D01*
X120206489Y-104464623D01*
X120205444Y-104481295D01*
X120204048Y-104492537D01*
X120202253Y-104499504D01*
X120200008Y-104503351D01*
X120197264Y-104505233D01*
X120188961Y-104507385D01*
X120169765Y-104511547D01*
X120141157Y-104517416D01*
X120104589Y-104524702D01*
X120061512Y-104533116D01*
X120013377Y-104542369D01*
X119961634Y-104552173D01*
X119932245Y-104557726D01*
X119874864Y-104568767D01*
X119828477Y-104578034D01*
X119792161Y-104585736D01*
X119764993Y-104592085D01*
X119746050Y-104597289D01*
X119734409Y-104601560D01*
X119729147Y-104605108D01*
X119728256Y-104606600D01*
X119722683Y-104618358D01*
X119713362Y-104639708D01*
X119700938Y-104669110D01*
X119686058Y-104705027D01*
X119669365Y-104745920D01*
X119651505Y-104790250D01*
X119635714Y-104830008D01*
X119616031Y-104880836D01*
X119601214Y-104920990D01*
X119591111Y-104950911D01*
X119585565Y-104971039D01*
X119584424Y-104981813D01*
X119587652Y-104989173D01*
X119597347Y-105006078D01*
X119612649Y-105030802D01*
X119632726Y-105062050D01*
X119656744Y-105098529D01*
X119683871Y-105138944D01*
X119713274Y-105182001D01*
X119739617Y-105220495D01*
X119766734Y-105260662D01*
X119790729Y-105296781D01*
X119810796Y-105327609D01*
X119826129Y-105351907D01*
X119835920Y-105368434D01*
X119839363Y-105375948D01*
X119839066Y-105376879D01*
X119832614Y-105385668D01*
X119818451Y-105401950D01*
X119797532Y-105424715D01*
X119770814Y-105452948D01*
X119739250Y-105485639D01*
X119703795Y-105521775D01*
X119665405Y-105560343D01*
X119637224Y-105588412D01*
X119596831Y-105628395D01*
X119563910Y-105660566D01*
X119537679Y-105685638D01*
X119517353Y-105704324D01*
X119502148Y-105717336D01*
X119491280Y-105725387D01*
X119483966Y-105729190D01*
X119479422Y-105729458D01*
X119473536Y-105726169D01*
X119458082Y-105716400D01*
X119434667Y-105701073D01*
X119404557Y-105681033D01*
X119369020Y-105657125D01*
X119329323Y-105630193D01*
X119286733Y-105601082D01*
X119250698Y-105576526D01*
X119210497Y-105549542D01*
X119174239Y-105525644D01*
X119143187Y-105505642D01*
X119118604Y-105490350D01*
X119101754Y-105480579D01*
X119093900Y-105477141D01*
X119090969Y-105477687D01*
X119077341Y-105482812D01*
X119056033Y-105492468D01*
X119029324Y-105505594D01*
X118999496Y-105521128D01*
X118986227Y-105528123D01*
X118957606Y-105542502D01*
X118933150Y-105553838D01*
X118915112Y-105561117D01*
X118905744Y-105563325D01*
X118903848Y-105562138D01*
X118899288Y-105555986D01*
X118892617Y-105544039D01*
X118883550Y-105525651D01*
X118871803Y-105500179D01*
X118857093Y-105466977D01*
X118839134Y-105425400D01*
X118817643Y-105374804D01*
X118792336Y-105314543D01*
X118762929Y-105243973D01*
X118729138Y-105162449D01*
X118711557Y-105119880D01*
X118684740Y-105054673D01*
X118659624Y-104993273D01*
X118636597Y-104936647D01*
X118616047Y-104885760D01*
X118598363Y-104841580D01*
X118583933Y-104805075D01*
X118573145Y-104777210D01*
X118566388Y-104758954D01*
X118564049Y-104751273D01*
X118564602Y-104748090D01*
X118573234Y-104735750D01*
X118590618Y-104722067D01*
X118594212Y-104719721D01*
X118613778Y-104706425D01*
X118637886Y-104689478D01*
X118662140Y-104671960D01*
X118699171Y-104642131D01*
X118754147Y-104585696D01*
X118799472Y-104522520D01*
X118834672Y-104453825D01*
X118859274Y-104380831D01*
X118872806Y-104304763D01*
X118874795Y-104226841D01*
X118864767Y-104148288D01*
X118860093Y-104127870D01*
X118835475Y-104054745D01*
X118800150Y-103986523D01*
X118755131Y-103924286D01*
X118701433Y-103869119D01*
X118640070Y-103822104D01*
X118572057Y-103784327D01*
X118498408Y-103756870D01*
X118478525Y-103751961D01*
X118429764Y-103744619D01*
X118375556Y-103741439D01*
X118320210Y-103742421D01*
X118268035Y-103747565D01*
X118223340Y-103756870D01*
X118177361Y-103772173D01*
X118114513Y-103801533D01*
X118056811Y-103839993D01*
X118001411Y-103889248D01*
X117993356Y-103897386D01*
X117956607Y-103937485D01*
X117927888Y-103975186D01*
X117904897Y-104013811D01*
X117885331Y-104056684D01*
X117863609Y-104122314D01*
X117849542Y-104199516D01*
X117847158Y-104276636D01*
X117856126Y-104352501D01*
X117876114Y-104425939D01*
X117906787Y-104495777D01*
X117947816Y-104560842D01*
X117998867Y-104619961D01*
X118059608Y-104671960D01*
X118065316Y-104676131D01*
X118089940Y-104693793D01*
X118113344Y-104710132D01*
X118131130Y-104722067D01*
X118137343Y-104726321D01*
X118152241Y-104739847D01*
X118157699Y-104751273D01*
X118156763Y-104754824D01*
X118151597Y-104769276D01*
X118142257Y-104793694D01*
X118129131Y-104827111D01*
X118112607Y-104868561D01*
X118093073Y-104917076D01*
X118070919Y-104971689D01*
X118046531Y-105031434D01*
X118020299Y-105095343D01*
X117992610Y-105162449D01*
X117971065Y-105214472D01*
X117940033Y-105289107D01*
X117913210Y-105353190D01*
X117890309Y-105407365D01*
X117871049Y-105452276D01*
X117855143Y-105488569D01*
X117842309Y-105516888D01*
X117832262Y-105537879D01*
X117824719Y-105552185D01*
X117819394Y-105560452D01*
X117816004Y-105563325D01*
X117813113Y-105563047D01*
X117799671Y-105558494D01*
X117778546Y-105549313D01*
X117751989Y-105536520D01*
X117722253Y-105521128D01*
X117709186Y-105514219D01*
X117680421Y-105499591D01*
X117655755Y-105487827D01*
X117637471Y-105479990D01*
X117627848Y-105477141D01*
X117621851Y-105479601D01*
X117606327Y-105488434D01*
X117582872Y-105502915D01*
X117552750Y-105522232D01*
X117517224Y-105545574D01*
X117477558Y-105572128D01*
X117435015Y-105601082D01*
X117399292Y-105625514D01*
X117359030Y-105652865D01*
X117322719Y-105677330D01*
X117291625Y-105698066D01*
X117267017Y-105714229D01*
X117250162Y-105724975D01*
X117242327Y-105729458D01*
X117239885Y-105729681D01*
X117233771Y-105727376D01*
X117224417Y-105721106D01*
X117211038Y-105710161D01*
X117192851Y-105693827D01*
X117169072Y-105671390D01*
X117138917Y-105642140D01*
X117101602Y-105605362D01*
X117056344Y-105560343D01*
X117046160Y-105550165D01*
X117008439Y-105512130D01*
X116973902Y-105476790D01*
X116943502Y-105445158D01*
X116918196Y-105418246D01*
X116898938Y-105397065D01*
X116886683Y-105382628D01*
X116882385Y-105375948D01*
X116885172Y-105369635D01*
X116894352Y-105353972D01*
X116909156Y-105330411D01*
X116928777Y-105300192D01*
X116952408Y-105264557D01*
X116979243Y-105224746D01*
X117008474Y-105182001D01*
X117034296Y-105144226D01*
X117061755Y-105103409D01*
X117086209Y-105066366D01*
X117106825Y-105034391D01*
X117122772Y-105008777D01*
X117133216Y-104990820D01*
X117137325Y-104981813D01*
X117137053Y-104975701D01*
X117133012Y-104958780D01*
X117124465Y-104932215D01*
X117111257Y-104895565D01*
X117093234Y-104848390D01*
X117070243Y-104790250D01*
X117064400Y-104775684D01*
X117046846Y-104732294D01*
X117030667Y-104692836D01*
X117016507Y-104658850D01*
X117005013Y-104631875D01*
X116996829Y-104613448D01*
X116992601Y-104605108D01*
X116990983Y-104603601D01*
X116982989Y-104599757D01*
X116968204Y-104595095D01*
X116945706Y-104589406D01*
X116914571Y-104582480D01*
X116873876Y-104574106D01*
X116822698Y-104564073D01*
X116760114Y-104552173D01*
X116709036Y-104542496D01*
X116660844Y-104533233D01*
X116617690Y-104524806D01*
X116581027Y-104517504D01*
X116552304Y-104511615D01*
X116532973Y-104507428D01*
X116524485Y-104505233D01*
X116524119Y-104505069D01*
X116521439Y-104503007D01*
X116519252Y-104498839D01*
X116517508Y-104491409D01*
X116516158Y-104479563D01*
X116515152Y-104462144D01*
X116514441Y-104437997D01*
X116513974Y-104405969D01*
X116513702Y-104364903D01*
X116513576Y-104313644D01*
X116513545Y-104251037D01*
X116513545Y-104001510D01*
X116527611Y-103995600D01*
X116535791Y-103993378D01*
X116555108Y-103989099D01*
X116583856Y-103983158D01*
X116620547Y-103975851D01*
X116663689Y-103967474D01*
X116711792Y-103958325D01*
X116763367Y-103948699D01*
X116811324Y-103939689D01*
X116859608Y-103930311D01*
X116902983Y-103921570D01*
X116939969Y-103913780D01*
X116969088Y-103907253D01*
X116988858Y-103902301D01*
X116997800Y-103899235D01*
X117001040Y-103895343D01*
X117009364Y-103880900D01*
X117021038Y-103857799D01*
X117035286Y-103827833D01*
X117051331Y-103792794D01*
X117068396Y-103754476D01*
X117085706Y-103714672D01*
X117102483Y-103675174D01*
X117117951Y-103637776D01*
X117131333Y-103604271D01*
X117141853Y-103576451D01*
X117148735Y-103556109D01*
X117151202Y-103545039D01*
X117151185Y-103544674D01*
X117146982Y-103533809D01*
X117135405Y-103513026D01*
X117116524Y-103482440D01*
X117090414Y-103442165D01*
X117057146Y-103392317D01*
X117016793Y-103333009D01*
X117012773Y-103327138D01*
X116982853Y-103283082D01*
X116955400Y-103242031D01*
X116931191Y-103205195D01*
X116911007Y-103173784D01*
X116895625Y-103149008D01*
X116885825Y-103132076D01*
X116882385Y-103124199D01*
X116884960Y-103119539D01*
X116895341Y-103106664D01*
X116912589Y-103087176D01*
X116935528Y-103062271D01*
X116962985Y-103033147D01*
X116993782Y-103000999D01*
X117026746Y-102967023D01*
X117060702Y-102932415D01*
X117094473Y-102898373D01*
X117126885Y-102866092D01*
X117156763Y-102836767D01*
X117182932Y-102811596D01*
X117204216Y-102791775D01*
X117219440Y-102778500D01*
X117227430Y-102772967D01*
X117228880Y-102772499D01*
X117232361Y-102771597D01*
X117236291Y-102771616D01*
X117241658Y-102773169D01*
X117249448Y-102776870D01*
X117260647Y-102783336D01*
X117276241Y-102793181D01*
X117297218Y-102807019D01*
X117324563Y-102825465D01*
X117359262Y-102849134D01*
X117402303Y-102878641D01*
X117454671Y-102914601D01*
X117484897Y-102935294D01*
X117536936Y-102970517D01*
X117579523Y-102998719D01*
X117613069Y-103020158D01*
X117637982Y-103035093D01*
X117654673Y-103043783D01*
X117663551Y-103046485D01*
X117666454Y-103045981D01*
X117680626Y-103041611D01*
X117703537Y-103033387D01*
X117733331Y-103022071D01*
X117768154Y-103008422D01*
X117806152Y-102993200D01*
X117845470Y-102977166D01*
X117884254Y-102961079D01*
X117920648Y-102945700D01*
X117952798Y-102931788D01*
X117978851Y-102920103D01*
X117996950Y-102911406D01*
X118005241Y-102906457D01*
X118005593Y-102905946D01*
X118008835Y-102896161D01*
X118013950Y-102875705D01*
X118020645Y-102845968D01*
X118028621Y-102808339D01*
X118037584Y-102764209D01*
X118047237Y-102714967D01*
X118057285Y-102662004D01*
X118058932Y-102653196D01*
X118068905Y-102600520D01*
X118078367Y-102551621D01*
X118087029Y-102507921D01*
X118094602Y-102470839D01*
X118100796Y-102441795D01*
X118105322Y-102422210D01*
X118107892Y-102413505D01*
X118108765Y-102412010D01*
X118111314Y-102409228D01*
X118115754Y-102406980D01*
X118123266Y-102405207D01*
X118135028Y-102403854D01*
X118152219Y-102402864D01*
X118176018Y-102402181D01*
X118207604Y-102401748D01*
X118248156Y-102401508D01*
X118298853Y-102401406D01*
X118360874Y-102401385D01*
X118393369Y-102401388D01*
G37*
G36*
X117763104Y-107309519D02*
G01*
X117742170Y-107343522D01*
X117711454Y-107371309D01*
X117671723Y-107391415D01*
X117671225Y-107391592D01*
X117640950Y-107398670D01*
X117604665Y-107401914D01*
X117568211Y-107401122D01*
X117537428Y-107396088D01*
X117535948Y-107395657D01*
X117514574Y-107386380D01*
X117495230Y-107373687D01*
X117476282Y-107357743D01*
X117476282Y-107396364D01*
X117376257Y-107396364D01*
X117376290Y-107220914D01*
X117476282Y-107220914D01*
X117476292Y-107223370D01*
X117479254Y-107255220D01*
X117487993Y-107277765D01*
X117503273Y-107293041D01*
X117504103Y-107293552D01*
X117519408Y-107299004D01*
X117542263Y-107303400D01*
X117568125Y-107306227D01*
X117592449Y-107306973D01*
X117610690Y-107305129D01*
X117619981Y-107302948D01*
X117637418Y-107299062D01*
X117656570Y-107290436D01*
X117671057Y-107272406D01*
X117676132Y-107247890D01*
X117676006Y-107242813D01*
X117673113Y-107223719D01*
X117665296Y-107209699D01*
X117651058Y-107200037D01*
X117628900Y-107194020D01*
X117597326Y-107190933D01*
X117554837Y-107190063D01*
X117476282Y-107190063D01*
X117476282Y-107220914D01*
X117376290Y-107220914D01*
X117376292Y-107210380D01*
X117376382Y-107175627D01*
X117376913Y-107121609D01*
X117377890Y-107075939D01*
X117379281Y-107039654D01*
X117381052Y-107013792D01*
X117383168Y-106999391D01*
X117384314Y-106995610D01*
X117399105Y-106967853D01*
X117423012Y-106942037D01*
X117453090Y-106920802D01*
X117486397Y-106906788D01*
X117506901Y-106902206D01*
X117546569Y-106897574D01*
X117589106Y-106896642D01*
X117629581Y-106899434D01*
X117663066Y-106905971D01*
X117667677Y-106907500D01*
X117687408Y-106916593D01*
X117708069Y-106929137D01*
X117726605Y-106942921D01*
X117739966Y-106955735D01*
X117745098Y-106965369D01*
X117744993Y-106965840D01*
X117739122Y-106972775D01*
X117726043Y-106984545D01*
X117708241Y-106998889D01*
X117702737Y-107003106D01*
X117685575Y-107015615D01*
X117674906Y-107021431D01*
X117668197Y-107021568D01*
X117662917Y-107017041D01*
X117652209Y-107007698D01*
X117627983Y-106996890D01*
X117597858Y-106990970D01*
X117565278Y-106989950D01*
X117533683Y-106993843D01*
X117506517Y-107002661D01*
X117487222Y-107016416D01*
X117483920Y-107020986D01*
X117478094Y-107038354D01*
X117476282Y-107065151D01*
X117476282Y-107101395D01*
X117568492Y-107103639D01*
X117578728Y-107103901D01*
X117614375Y-107105178D01*
X117640670Y-107106992D01*
X117660151Y-107109665D01*
X117675359Y-107113518D01*
X117688834Y-107118873D01*
X117723530Y-107140461D01*
X117750796Y-107170661D01*
X117767840Y-107207731D01*
X117772558Y-107228733D01*
X117772982Y-107247890D01*
X117773489Y-107270767D01*
X117763104Y-107309519D01*
G37*
G36*
X116969005Y-106120593D02*
G01*
X117001825Y-106135131D01*
X117027031Y-106156542D01*
X117027815Y-106157481D01*
X117033088Y-106161819D01*
X117036196Y-106157413D01*
X117038674Y-106142400D01*
X117041800Y-106117924D01*
X117093375Y-106116108D01*
X117144950Y-106114293D01*
X117144950Y-106615427D01*
X117093375Y-106613611D01*
X117041800Y-106611796D01*
X117038674Y-106439878D01*
X117038187Y-106413424D01*
X117037170Y-106365364D01*
X117035942Y-106327612D01*
X117034209Y-106298674D01*
X117031680Y-106277055D01*
X117028060Y-106261263D01*
X117023057Y-106249801D01*
X117016378Y-106241178D01*
X117007730Y-106233898D01*
X116996820Y-106226468D01*
X116980225Y-106219232D01*
X116953115Y-106215181D01*
X116924425Y-106217096D01*
X116899488Y-106225054D01*
X116879703Y-106235286D01*
X116855691Y-106207863D01*
X116845917Y-106196505D01*
X116830626Y-106178055D01*
X116819480Y-106163784D01*
X116807280Y-106147129D01*
X116827842Y-106134421D01*
X116855317Y-106121594D01*
X116892705Y-106113486D01*
X116931616Y-106113265D01*
X116969005Y-106120593D01*
G37*
G36*
X118136346Y-106438582D02*
G01*
X118130019Y-106476055D01*
X118120937Y-106504669D01*
X118097952Y-106542762D01*
X118064511Y-106576331D01*
X118023831Y-106600832D01*
X117977744Y-106614858D01*
X117967955Y-106616265D01*
X117928030Y-106617441D01*
X117887786Y-106612546D01*
X117853142Y-106602182D01*
X117827385Y-106587797D01*
X117795608Y-106561539D01*
X117768630Y-106530013D01*
X117750189Y-106497035D01*
X117746326Y-106486799D01*
X117741857Y-106471735D01*
X117738882Y-106455039D01*
X117737102Y-106433993D01*
X117736216Y-106405881D01*
X117735924Y-106367986D01*
X117735927Y-106364860D01*
X117835745Y-106364860D01*
X117835952Y-106387778D01*
X117837744Y-106422510D01*
X117841992Y-106448462D01*
X117849436Y-106468017D01*
X117860813Y-106483558D01*
X117876864Y-106497466D01*
X117895824Y-106508316D01*
X117928867Y-106515735D01*
X117965407Y-106511881D01*
X117965645Y-106511820D01*
X117991325Y-106502895D01*
X118010516Y-106489919D01*
X118024038Y-106471248D01*
X118032710Y-106445237D01*
X118037352Y-106410243D01*
X118038783Y-106364622D01*
X118038607Y-106335170D01*
X118037570Y-106310809D01*
X118035222Y-106293081D01*
X118031129Y-106278870D01*
X118024854Y-106265059D01*
X118020791Y-106257788D01*
X117999656Y-106233670D01*
X117971357Y-106219473D01*
X117935229Y-106214823D01*
X117934513Y-106214825D01*
X117899830Y-106220568D01*
X117871112Y-106237289D01*
X117848586Y-106264856D01*
X117847985Y-106265891D01*
X117842655Y-106276874D01*
X117839112Y-106289566D01*
X117837011Y-106306662D01*
X117836004Y-106330861D01*
X117835745Y-106364860D01*
X117735927Y-106364860D01*
X117735939Y-106354509D01*
X117737012Y-106309476D01*
X117740176Y-106273867D01*
X117746068Y-106245289D01*
X117755324Y-106221350D01*
X117768579Y-106199655D01*
X117786471Y-106177813D01*
X117818808Y-106148796D01*
X117859034Y-106126438D01*
X117902285Y-106113922D01*
X117946743Y-106110968D01*
X117990586Y-106117294D01*
X118031998Y-106132621D01*
X118069157Y-106156667D01*
X118100246Y-106189152D01*
X118123445Y-106229796D01*
X118125595Y-106235404D01*
X118133498Y-106267000D01*
X118138494Y-106306460D01*
X118140614Y-106350440D01*
X118140386Y-106364622D01*
X118139888Y-106395596D01*
X118136346Y-106438582D01*
G37*
G36*
X118929114Y-107239442D02*
G01*
X118928103Y-107261143D01*
X118926385Y-107277095D01*
X118923777Y-107289291D01*
X118920093Y-107299724D01*
X118915149Y-107310388D01*
X118911195Y-107317791D01*
X118887698Y-107349005D01*
X118857343Y-107375135D01*
X118824205Y-107392505D01*
X118818798Y-107394243D01*
X118793846Y-107399683D01*
X118769022Y-107402122D01*
X118757513Y-107401651D01*
X118729922Y-107396859D01*
X118701695Y-107388148D01*
X118677205Y-107377019D01*
X118660829Y-107364975D01*
X118656352Y-107360290D01*
X118646225Y-107353470D01*
X118640726Y-107358086D01*
X118639068Y-107374483D01*
X118639068Y-107396364D01*
X118539043Y-107396364D01*
X118539043Y-107149428D01*
X118642195Y-107149428D01*
X118642196Y-107151233D01*
X118643024Y-107193573D01*
X118645879Y-107225550D01*
X118651463Y-107249164D01*
X118660481Y-107266413D01*
X118673637Y-107279296D01*
X118691635Y-107289811D01*
X118711996Y-107297832D01*
X118742773Y-107301449D01*
X118775549Y-107294097D01*
X118781719Y-107291566D01*
X118802569Y-107276740D01*
X118817700Y-107253685D01*
X118827397Y-107221552D01*
X118831944Y-107179486D01*
X118831628Y-107126638D01*
X118829138Y-107091000D01*
X118824555Y-107060902D01*
X118817972Y-107041312D01*
X118807224Y-107025578D01*
X118784335Y-107007411D01*
X118756788Y-106997724D01*
X118727338Y-106996486D01*
X118698741Y-107003665D01*
X118673751Y-107019231D01*
X118655125Y-107043152D01*
X118654206Y-107044958D01*
X118648997Y-107057206D01*
X118645524Y-107071052D01*
X118643453Y-107089222D01*
X118642454Y-107114439D01*
X118642195Y-107149428D01*
X118539043Y-107149428D01*
X118539043Y-106695665D01*
X118587492Y-106697491D01*
X118635942Y-106699317D01*
X118637637Y-106822785D01*
X118637732Y-106829201D01*
X118638580Y-106866317D01*
X118639807Y-106898464D01*
X118641305Y-106923758D01*
X118642967Y-106940315D01*
X118644686Y-106946253D01*
X118649460Y-106944273D01*
X118658620Y-106935881D01*
X118661474Y-106932796D01*
X118680595Y-106919342D01*
X118706867Y-106907674D01*
X118735917Y-106899443D01*
X118763373Y-106896302D01*
X118772717Y-106896433D01*
X118811895Y-106901481D01*
X118845270Y-106914925D01*
X118876812Y-106938230D01*
X118892726Y-106953443D01*
X118905296Y-106968465D01*
X118914678Y-106984877D01*
X118921329Y-107004528D01*
X118925705Y-107029270D01*
X118928265Y-107060955D01*
X118929466Y-107101432D01*
X118929764Y-107152554D01*
X118929756Y-107170820D01*
X118929722Y-107179486D01*
X118929604Y-107209999D01*
X118929114Y-107239442D01*
G37*
G36*
X118435034Y-106111672D02*
G01*
X118462052Y-106116969D01*
X118507806Y-106132908D01*
X118543404Y-106156083D01*
X118568811Y-106186461D01*
X118583994Y-106224007D01*
X118588918Y-106268686D01*
X118588589Y-106276215D01*
X118584491Y-106301819D01*
X118577240Y-106324225D01*
X118571293Y-106335849D01*
X118553563Y-106359793D01*
X118529917Y-106378253D01*
X118498764Y-106392022D01*
X118458509Y-106401892D01*
X118407561Y-106408656D01*
X118389634Y-106410527D01*
X118355289Y-106415525D01*
X118331082Y-106421940D01*
X118315351Y-106430542D01*
X118306435Y-106442105D01*
X118302673Y-106457399D01*
X118302821Y-106473094D01*
X118311321Y-106494300D01*
X118330313Y-106509297D01*
X118359985Y-106518206D01*
X118400522Y-106521148D01*
X118402223Y-106521144D01*
X118446636Y-106517304D01*
X118485468Y-106505264D01*
X118523541Y-106483552D01*
X118551662Y-106464204D01*
X118585908Y-106494239D01*
X118587980Y-106496063D01*
X118604281Y-106510995D01*
X118615828Y-106522578D01*
X118620234Y-106528437D01*
X118619980Y-106529685D01*
X118612841Y-106538242D01*
X118597832Y-106550355D01*
X118577578Y-106564200D01*
X118554705Y-106577956D01*
X118531836Y-106589800D01*
X118510866Y-106598572D01*
X118482345Y-106608252D01*
X118457773Y-106614356D01*
X118445179Y-106616276D01*
X118394867Y-106618589D01*
X118346437Y-106612800D01*
X118301848Y-106599634D01*
X118263057Y-106579812D01*
X118232021Y-106554060D01*
X118210698Y-106523098D01*
X118202237Y-106495604D01*
X118199599Y-106459819D01*
X118203934Y-106423406D01*
X118215076Y-106391383D01*
X118216275Y-106389092D01*
X118231337Y-106366241D01*
X118250404Y-106348351D01*
X118275162Y-106334699D01*
X118307295Y-106324565D01*
X118348489Y-106317225D01*
X118400428Y-106311958D01*
X118400530Y-106311950D01*
X118426059Y-106308876D01*
X118449007Y-106304231D01*
X118464415Y-106299017D01*
X118477646Y-106289077D01*
X118487031Y-106271409D01*
X118486530Y-106251678D01*
X118476407Y-106232755D01*
X118456926Y-106217511D01*
X118437901Y-106211058D01*
X118406701Y-106208109D01*
X118371712Y-106210912D01*
X118336846Y-106219083D01*
X118306016Y-106232241D01*
X118271313Y-106251826D01*
X118242638Y-106218261D01*
X118241762Y-106217233D01*
X118227730Y-106200032D01*
X118217776Y-106186483D01*
X118214006Y-106179442D01*
X118214502Y-106177712D01*
X118222643Y-106169151D01*
X118238678Y-106157807D01*
X118259883Y-106145462D01*
X118283536Y-106133902D01*
X118306332Y-106125958D01*
X118339363Y-106118275D01*
X118375007Y-106112866D01*
X118408489Y-106110432D01*
X118435034Y-106111672D01*
G37*
G36*
X117596908Y-106116113D02*
G01*
X117648199Y-106117924D01*
X117648167Y-106302344D01*
X117648165Y-106308771D01*
X117648114Y-106360487D01*
X117647920Y-106401436D01*
X117647477Y-106433183D01*
X117646682Y-106457292D01*
X117645431Y-106475328D01*
X117643617Y-106488855D01*
X117641138Y-106499436D01*
X117637889Y-106508638D01*
X117633765Y-106518022D01*
X117624605Y-106535573D01*
X117596353Y-106571845D01*
X117560198Y-106598638D01*
X117516917Y-106615307D01*
X117507313Y-106617289D01*
X117465678Y-106618291D01*
X117423252Y-106607917D01*
X117382301Y-106586650D01*
X117351251Y-106565754D01*
X117351251Y-106614921D01*
X117251226Y-106614921D01*
X117251226Y-106114798D01*
X117351251Y-106114798D01*
X117351251Y-106276014D01*
X117351256Y-106297468D01*
X117351356Y-106342131D01*
X117351679Y-106376655D01*
X117352351Y-106402721D01*
X117353496Y-106422008D01*
X117355241Y-106436197D01*
X117357709Y-106446969D01*
X117361026Y-106456003D01*
X117365317Y-106464980D01*
X117369968Y-106473387D01*
X117390686Y-106497627D01*
X117417805Y-106511554D01*
X117452485Y-106515845D01*
X117457369Y-106515738D01*
X117485247Y-106511097D01*
X117507879Y-106498186D01*
X117529033Y-106474994D01*
X117531169Y-106471993D01*
X117534555Y-106465882D01*
X117537186Y-106457918D01*
X117539181Y-106446580D01*
X117540658Y-106430346D01*
X117541737Y-106407694D01*
X117542537Y-106377104D01*
X117543174Y-106337054D01*
X117543770Y-106286023D01*
X117545616Y-106114302D01*
X117596908Y-106116113D01*
G37*
G36*
X118134161Y-106903764D02*
G01*
X118172541Y-106905618D01*
X118226073Y-107072724D01*
X118228243Y-107079491D01*
X118242064Y-107122207D01*
X118254670Y-107160542D01*
X118265551Y-107192989D01*
X118274195Y-107218040D01*
X118280092Y-107234185D01*
X118282730Y-107239917D01*
X118284299Y-107236573D01*
X118288835Y-107222741D01*
X118295742Y-107199694D01*
X118304544Y-107169062D01*
X118314767Y-107132475D01*
X118325935Y-107091565D01*
X118333697Y-107062819D01*
X118344638Y-107022316D01*
X118354418Y-106986124D01*
X118362514Y-106956182D01*
X118368400Y-106934430D01*
X118371552Y-106922810D01*
X118377091Y-106902492D01*
X118429935Y-106902492D01*
X118439474Y-106902550D01*
X118461613Y-106903203D01*
X118477008Y-106904426D01*
X118482779Y-106906029D01*
X118482748Y-106906205D01*
X118480472Y-106913929D01*
X118474944Y-106931824D01*
X118466652Y-106958349D01*
X118456086Y-106991962D01*
X118443735Y-107031123D01*
X118430087Y-107074290D01*
X118415631Y-107119923D01*
X118400857Y-107166480D01*
X118386253Y-107212421D01*
X118372308Y-107256204D01*
X118359512Y-107296289D01*
X118348352Y-107331135D01*
X118339319Y-107359200D01*
X118332901Y-107378944D01*
X118329587Y-107388825D01*
X118329417Y-107389237D01*
X118322905Y-107393492D01*
X118307421Y-107395366D01*
X118281274Y-107395076D01*
X118235877Y-107393238D01*
X118186357Y-107226291D01*
X118184537Y-107220166D01*
X118171663Y-107177454D01*
X118159845Y-107139276D01*
X118149569Y-107107128D01*
X118141321Y-107082504D01*
X118135588Y-107066899D01*
X118132855Y-107061806D01*
X118132726Y-107061938D01*
X118129634Y-107069492D01*
X118123564Y-107087325D01*
X118115008Y-107113880D01*
X118104463Y-107147601D01*
X118092420Y-107186932D01*
X118079375Y-107230315D01*
X118029876Y-107396364D01*
X117939728Y-107396364D01*
X117899176Y-107269770D01*
X117887145Y-107232180D01*
X117870415Y-107179832D01*
X117853160Y-107125767D01*
X117836827Y-107074526D01*
X117822867Y-107030649D01*
X117822752Y-107030288D01*
X117811362Y-106994513D01*
X117801164Y-106962618D01*
X117792806Y-106936612D01*
X117786932Y-106918505D01*
X117784190Y-106910306D01*
X117784443Y-106907595D01*
X117791278Y-106904595D01*
X117807403Y-106902977D01*
X117834407Y-106902492D01*
X117836737Y-106902495D01*
X117865858Y-106903390D01*
X117883500Y-106905953D01*
X117890537Y-106910306D01*
X117892478Y-106916707D01*
X117897336Y-106933867D01*
X117904566Y-106959913D01*
X117913700Y-106993149D01*
X117924270Y-107031880D01*
X117935808Y-107074409D01*
X117946133Y-107112260D01*
X117956930Y-107151124D01*
X117966419Y-107184524D01*
X117974121Y-107210806D01*
X117979559Y-107228314D01*
X117982256Y-107235395D01*
X117982566Y-107235400D01*
X117986187Y-107228638D01*
X117992952Y-107211696D01*
X118002342Y-107186018D01*
X118013842Y-107153047D01*
X118026934Y-107114228D01*
X118041103Y-107071002D01*
X118095781Y-106901911D01*
X118134161Y-106903764D01*
G37*
G36*
X119105162Y-106117800D02*
G01*
X119138466Y-106130183D01*
X119164345Y-106149339D01*
X119173651Y-106158500D01*
X119183149Y-106163696D01*
X119187904Y-106157629D01*
X119189203Y-106139804D01*
X119189203Y-106114798D01*
X119289228Y-106114798D01*
X119289228Y-106614921D01*
X119190110Y-106614921D01*
X119188094Y-106447693D01*
X119187639Y-106411193D01*
X119187001Y-106368886D01*
X119186245Y-106336355D01*
X119185232Y-106312000D01*
X119183821Y-106294222D01*
X119181873Y-106281420D01*
X119179248Y-106271994D01*
X119175807Y-106264343D01*
X119171408Y-106256869D01*
X119168596Y-106252537D01*
X119148343Y-106230786D01*
X119122559Y-106218614D01*
X119088891Y-106214823D01*
X119056499Y-106218765D01*
X119030129Y-106231841D01*
X119010319Y-106254742D01*
X119006962Y-106261182D01*
X119004067Y-106269755D01*
X119001791Y-106281551D01*
X119000011Y-106298116D01*
X118998606Y-106320997D01*
X118997451Y-106351741D01*
X118996425Y-106391895D01*
X118995405Y-106443004D01*
X118992280Y-106611796D01*
X118940213Y-106613619D01*
X118888147Y-106615443D01*
X118890201Y-106429199D01*
X118890230Y-106426587D01*
X118890854Y-106373735D01*
X118891503Y-106331759D01*
X118892296Y-106299104D01*
X118893349Y-106274211D01*
X118894782Y-106255524D01*
X118896711Y-106241486D01*
X118899255Y-106230541D01*
X118902530Y-106221130D01*
X118906656Y-106211697D01*
X118925194Y-106179025D01*
X118951145Y-106151184D01*
X118986028Y-106128819D01*
X118993898Y-106125112D01*
X119029558Y-106114882D01*
X119067753Y-106112572D01*
X119105162Y-106117800D01*
G37*
G36*
X116927331Y-107114044D02*
G01*
X116928412Y-107169588D01*
X116922479Y-107222463D01*
X116910012Y-107269828D01*
X116891494Y-107308842D01*
X116876636Y-107330242D01*
X116850727Y-107357475D01*
X116819432Y-107377912D01*
X116779235Y-107394229D01*
X116757192Y-107399181D01*
X116721098Y-107401604D01*
X116681906Y-107399480D01*
X116644380Y-107393135D01*
X116613284Y-107382895D01*
X116607193Y-107379955D01*
X116586075Y-107367974D01*
X116565587Y-107354124D01*
X116548302Y-107340394D01*
X116536791Y-107328774D01*
X116533626Y-107321256D01*
X116533699Y-107321097D01*
X116539529Y-107314625D01*
X116552223Y-107302762D01*
X116569172Y-107287952D01*
X116602920Y-107259278D01*
X116621163Y-107274629D01*
X116642700Y-107288108D01*
X116672946Y-107299553D01*
X116704689Y-107305929D01*
X116732433Y-107305702D01*
X116765551Y-107294814D01*
X116793754Y-107274784D01*
X116814044Y-107247845D01*
X116824277Y-107216091D01*
X116827768Y-107190063D01*
X116518223Y-107190063D01*
X116520949Y-107118836D01*
X116521147Y-107113763D01*
X116521719Y-107102541D01*
X116620133Y-107102541D01*
X116827768Y-107102541D01*
X116824277Y-107076513D01*
X116815081Y-107045679D01*
X116795720Y-107019012D01*
X116768121Y-107000467D01*
X116733917Y-106991577D01*
X116715192Y-106991240D01*
X116682592Y-106999018D01*
X116655900Y-107017292D01*
X116636057Y-107045287D01*
X116624005Y-107082224D01*
X116620133Y-107102541D01*
X116521719Y-107102541D01*
X116522720Y-107082901D01*
X116525051Y-107060369D01*
X116528895Y-107042495D01*
X116535006Y-107025609D01*
X116544140Y-107006040D01*
X116566066Y-106970225D01*
X116599135Y-106936336D01*
X116639076Y-106912766D01*
X116685448Y-106899762D01*
X116737808Y-106897572D01*
X116744076Y-106898027D01*
X116792579Y-106907742D01*
X116834299Y-106927773D01*
X116868883Y-106957736D01*
X116895977Y-106997243D01*
X116915229Y-107045909D01*
X116926129Y-107102541D01*
X116926285Y-107103349D01*
X116927331Y-107114044D01*
G37*
G36*
X119781203Y-106381975D02*
G01*
X119775932Y-106433625D01*
X119763793Y-106482000D01*
X119744756Y-106524730D01*
X119718791Y-106559443D01*
X119695627Y-106578949D01*
X119656548Y-106600874D01*
X119613484Y-106614715D01*
X119585693Y-106617811D01*
X119547059Y-106616766D01*
X119507420Y-106611114D01*
X119472299Y-106601376D01*
X119458327Y-106595062D01*
X119433128Y-106580007D01*
X119411143Y-106562966D01*
X119382651Y-106536777D01*
X119418512Y-106507185D01*
X119426670Y-106500494D01*
X119442416Y-106488362D01*
X119452562Y-106482842D01*
X119459879Y-106482788D01*
X119467136Y-106487052D01*
X119470204Y-106489275D01*
X119507821Y-106509592D01*
X119547693Y-106519834D01*
X119587191Y-106519639D01*
X119623686Y-106508645D01*
X119648884Y-106490031D01*
X119668138Y-106461670D01*
X119679468Y-106425812D01*
X119683641Y-106402369D01*
X119370498Y-106402369D01*
X119370545Y-106363297D01*
X119371040Y-106338930D01*
X119372854Y-106321099D01*
X119476774Y-106321099D01*
X119682762Y-106321099D01*
X119679094Y-106300781D01*
X119672204Y-106275361D01*
X119655984Y-106244597D01*
X119633701Y-106222720D01*
X119617629Y-106214794D01*
X119587501Y-106208741D01*
X119555586Y-106210494D01*
X119526844Y-106220170D01*
X119511805Y-106231653D01*
X119494333Y-106253635D01*
X119481661Y-106279179D01*
X119476774Y-106303328D01*
X119476774Y-106321099D01*
X119372854Y-106321099D01*
X119376486Y-106285407D01*
X119388400Y-106240594D01*
X119407352Y-106202759D01*
X119433910Y-106170165D01*
X119461283Y-106147489D01*
X119502213Y-106126044D01*
X119546552Y-106114312D01*
X119592093Y-106112332D01*
X119636628Y-106120143D01*
X119677948Y-106137782D01*
X119713848Y-106165288D01*
X119734202Y-106190073D01*
X119756106Y-106231101D01*
X119771260Y-106278342D01*
X119778271Y-106321099D01*
X119779636Y-106329424D01*
X119781203Y-106381975D01*
G37*
G36*
X119070188Y-106897965D02*
G01*
X119110323Y-106909909D01*
X119145490Y-106932115D01*
X119170448Y-106953479D01*
X119170448Y-106902492D01*
X119270473Y-106902492D01*
X119270473Y-107396364D01*
X119170448Y-107396364D01*
X119170448Y-107235148D01*
X119170443Y-107213833D01*
X119170343Y-107169135D01*
X119170020Y-107134579D01*
X119169349Y-107108483D01*
X119168203Y-107089165D01*
X119166459Y-107074943D01*
X119163991Y-107064136D01*
X119160674Y-107055062D01*
X119156382Y-107046039D01*
X119142404Y-107025807D01*
X119117789Y-107006808D01*
X119088661Y-106997030D01*
X119057927Y-106997323D01*
X119028490Y-107008539D01*
X119008436Y-107020766D01*
X118973789Y-106979025D01*
X118967301Y-106971116D01*
X118952896Y-106952800D01*
X118942890Y-106938956D01*
X118939141Y-106932103D01*
X118942363Y-106928371D01*
X118954279Y-106920697D01*
X118971962Y-106911643D01*
X118985396Y-106906084D01*
X119027680Y-106896588D01*
X119070188Y-106897965D01*
G37*
%LPC*%
D12*
X115565000Y-52837000D03*
D13*
X115565000Y-55377000D03*
X115565000Y-57917000D03*
X115565000Y-60457000D03*
X115565000Y-62997000D03*
X115565000Y-65537000D03*
X115565000Y-68077000D03*
X115565000Y-70617000D03*
X115565000Y-73157000D03*
X115565000Y-75697000D03*
X115565000Y-78237000D03*
X115565000Y-80777000D03*
X115565000Y-83317000D03*
X115565000Y-85857000D03*
X115565000Y-88397000D03*
X115565000Y-90937000D03*
X115565000Y-93477000D03*
X115565000Y-96017000D03*
X115565000Y-98557000D03*
X115565000Y-101097000D03*
X130805000Y-101097000D03*
X130805000Y-98557000D03*
X130805000Y-96017000D03*
X130805000Y-93477000D03*
X130805000Y-90937000D03*
X130805000Y-88397000D03*
X130805000Y-85857000D03*
X130805000Y-83317000D03*
X130805000Y-80777000D03*
X130805000Y-78237000D03*
X130805000Y-75697000D03*
X130805000Y-73157000D03*
X130805000Y-70617000D03*
X130805000Y-68077000D03*
X130805000Y-65537000D03*
X130805000Y-62997000D03*
X130805000Y-60457000D03*
X130805000Y-57917000D03*
X130805000Y-55377000D03*
X130805000Y-52837000D03*
D12*
X122428000Y-39116000D03*
D13*
X122428000Y-41656000D03*
X122428000Y-44196000D03*
X122428000Y-46736000D03*
X122428000Y-49276000D03*
X122428000Y-51816000D03*
X122428000Y-54356000D03*
X122428000Y-56896000D03*
X122428000Y-59436000D03*
X122428000Y-61976000D03*
X122428000Y-64516000D03*
X122428000Y-67056000D03*
X122428000Y-69596000D03*
X122428000Y-72136000D03*
X122428000Y-74676000D03*
X122428000Y-77216000D03*
X122428000Y-79756000D03*
X122428000Y-82296000D03*
X122428000Y-84836000D03*
X122428000Y-87376000D03*
X122428000Y-89916000D03*
X122428000Y-92456000D03*
X122428000Y-94996000D03*
X122428000Y-97536000D03*
X122428000Y-100076000D03*
X122428000Y-102616000D03*
X122428000Y-105156000D03*
X122428000Y-107696000D03*
X122428000Y-110236000D03*
X122428000Y-112776000D03*
X122428000Y-115316000D03*
X122428000Y-117856000D03*
X145288000Y-117856000D03*
X145288000Y-115316000D03*
X145288000Y-112776000D03*
X145288000Y-110236000D03*
X145288000Y-107696000D03*
X145288000Y-105156000D03*
X145288000Y-102616000D03*
X145288000Y-100076000D03*
X145288000Y-97536000D03*
X145288000Y-94996000D03*
X145288000Y-92456000D03*
X145288000Y-89916000D03*
X145288000Y-87376000D03*
X145288000Y-84836000D03*
X145288000Y-82296000D03*
X145288000Y-79756000D03*
X145288000Y-77216000D03*
X145288000Y-74676000D03*
X145288000Y-72136000D03*
X145288000Y-69596000D03*
X145288000Y-67056000D03*
X145288000Y-64516000D03*
X145288000Y-61976000D03*
X145288000Y-59436000D03*
X145288000Y-56896000D03*
X145288000Y-54356000D03*
X145288000Y-51816000D03*
X145288000Y-49276000D03*
X145288000Y-46736000D03*
X145288000Y-44196000D03*
X145288000Y-41656000D03*
X145288000Y-39116000D03*
M02*
