G04 #@! TF.GenerationSoftware,KiCad,Pcbnew,(6.0.0)*
G04 #@! TF.CreationDate,2023-01-29T20:36:38-05:00*
G04 #@! TF.ProjectId,tms7000 28 pin adapter,746d7337-3030-4302-9032-382070696e20,rev?*
G04 #@! TF.SameCoordinates,Original*
G04 #@! TF.FileFunction,Soldermask,Top*
G04 #@! TF.FilePolarity,Negative*
%FSLAX46Y46*%
G04 Gerber Fmt 4.6, Leading zero omitted, Abs format (unit mm)*
G04 Created by KiCad (PCBNEW (6.0.0)) date 2023-01-29 20:36:38*
%MOMM*%
%LPD*%
G01*
G04 APERTURE LIST*
%ADD10R,1.600000X1.600000*%
%ADD11O,1.600000X1.600000*%
%ADD12R,1.100000X1.100000*%
%ADD13C,1.100000*%
G04 APERTURE END LIST*
D10*
X115565000Y-52837000D03*
D11*
X115565000Y-55377000D03*
X115565000Y-57917000D03*
X115565000Y-60457000D03*
X115565000Y-62997000D03*
X115565000Y-65537000D03*
X115565000Y-68077000D03*
X115565000Y-70617000D03*
X115565000Y-73157000D03*
X115565000Y-75697000D03*
X115565000Y-78237000D03*
X115565000Y-80777000D03*
X115565000Y-83317000D03*
X115565000Y-85857000D03*
X115565000Y-88397000D03*
X115565000Y-90937000D03*
X115565000Y-93477000D03*
X115565000Y-96017000D03*
X115565000Y-98557000D03*
X115565000Y-101097000D03*
X130805000Y-101097000D03*
X130805000Y-98557000D03*
X130805000Y-96017000D03*
X130805000Y-93477000D03*
X130805000Y-90937000D03*
X130805000Y-88397000D03*
X130805000Y-85857000D03*
X130805000Y-83317000D03*
X130805000Y-80777000D03*
X130805000Y-78237000D03*
X130805000Y-75697000D03*
X130805000Y-73157000D03*
X130805000Y-70617000D03*
X130805000Y-68077000D03*
X130805000Y-65537000D03*
X130805000Y-62997000D03*
X130805000Y-60457000D03*
X130805000Y-57917000D03*
X130805000Y-55377000D03*
X130805000Y-52837000D03*
D12*
X118110000Y-63500000D03*
D13*
X118110000Y-65278000D03*
X118110000Y-67056000D03*
X118110000Y-68834000D03*
X118110000Y-70612000D03*
X118110000Y-72390000D03*
X118110000Y-74168000D03*
X118110000Y-75946000D03*
X118110000Y-77724000D03*
X118110000Y-79502000D03*
X118110000Y-81280000D03*
X118110000Y-83058000D03*
X118110000Y-84836000D03*
X118110000Y-86614000D03*
X128270000Y-86614000D03*
X128270000Y-84836000D03*
X128270000Y-83058000D03*
X128270000Y-81280000D03*
X128270000Y-79502000D03*
X128270000Y-77724000D03*
X128270000Y-75946000D03*
X128270000Y-74168000D03*
X128270000Y-72390000D03*
X128270000Y-70612000D03*
X128270000Y-68834000D03*
X128270000Y-67056000D03*
X128270000Y-65278000D03*
X128270000Y-63500000D03*
M02*
