G04 #@! TF.GenerationSoftware,KiCad,Pcbnew,(6.0.0)*
G04 #@! TF.CreationDate,2023-01-29T20:36:38-05:00*
G04 #@! TF.ProjectId,tms7000 28 pin adapter,746d7337-3030-4302-9032-382070696e20,rev?*
G04 #@! TF.SameCoordinates,Original*
G04 #@! TF.FileFunction,Legend,Bot*
G04 #@! TF.FilePolarity,Positive*
%FSLAX46Y46*%
G04 Gerber Fmt 4.6, Leading zero omitted, Abs format (unit mm)*
G04 Created by KiCad (PCBNEW (6.0.0)) date 2023-01-29 20:36:38*
%MOMM*%
%LPD*%
G01*
G04 APERTURE LIST*
%ADD10C,0.100000*%
%ADD11C,0.150000*%
%ADD12R,1.600000X1.600000*%
%ADD13O,1.600000X1.600000*%
%ADD14R,1.100000X1.100000*%
%ADD15C,1.100000*%
G04 APERTURE END LIST*
D10*
X127191333Y-101196000D02*
X127558000Y-101196000D01*
X127624666Y-101229333D01*
X127658000Y-101296000D01*
X127658000Y-101429333D01*
X127624666Y-101496000D01*
X127224666Y-101196000D02*
X127191333Y-101262666D01*
X127191333Y-101429333D01*
X127224666Y-101496000D01*
X127291333Y-101529333D01*
X127358000Y-101529333D01*
X127424666Y-101496000D01*
X127458000Y-101429333D01*
X127458000Y-101262666D01*
X127491333Y-101196000D01*
X127191333Y-100862666D02*
X127891333Y-100862666D01*
X127624666Y-100862666D02*
X127658000Y-100796000D01*
X127658000Y-100662666D01*
X127624666Y-100596000D01*
X127591333Y-100562666D01*
X127524666Y-100529333D01*
X127324666Y-100529333D01*
X127258000Y-100562666D01*
X127224666Y-100596000D01*
X127191333Y-100662666D01*
X127191333Y-100796000D01*
X127224666Y-100862666D01*
X127658000Y-100296000D02*
X127658000Y-99929333D01*
X127191333Y-100296000D01*
X127191333Y-99929333D01*
X127191333Y-99662666D02*
X127658000Y-99662666D01*
X127591333Y-99662666D02*
X127624666Y-99629333D01*
X127658000Y-99562666D01*
X127658000Y-99462666D01*
X127624666Y-99396000D01*
X127558000Y-99362666D01*
X127191333Y-99362666D01*
X127558000Y-99362666D02*
X127624666Y-99329333D01*
X127658000Y-99262666D01*
X127658000Y-99162666D01*
X127624666Y-99096000D01*
X127558000Y-99062666D01*
X127191333Y-99062666D01*
X127191333Y-98429333D02*
X127558000Y-98429333D01*
X127624666Y-98462666D01*
X127658000Y-98529333D01*
X127658000Y-98662666D01*
X127624666Y-98729333D01*
X127224666Y-98429333D02*
X127191333Y-98496000D01*
X127191333Y-98662666D01*
X127224666Y-98729333D01*
X127291333Y-98762666D01*
X127358000Y-98762666D01*
X127424666Y-98729333D01*
X127458000Y-98662666D01*
X127458000Y-98496000D01*
X127491333Y-98429333D01*
X127658000Y-98096000D02*
X127191333Y-98096000D01*
X127591333Y-98096000D02*
X127624666Y-98062666D01*
X127658000Y-97996000D01*
X127658000Y-97896000D01*
X127624666Y-97829333D01*
X127558000Y-97796000D01*
X127191333Y-97796000D01*
X127824666Y-97496000D02*
X127858000Y-97462666D01*
X127891333Y-97396000D01*
X127891333Y-97229333D01*
X127858000Y-97162666D01*
X127824666Y-97129333D01*
X127758000Y-97096000D01*
X127691333Y-97096000D01*
X127591333Y-97129333D01*
X127191333Y-97529333D01*
X127191333Y-97096000D01*
X127191333Y-96796000D02*
X127891333Y-96796000D01*
X127458000Y-96729333D02*
X127191333Y-96529333D01*
X127658000Y-96529333D02*
X127391333Y-96796000D01*
X127258000Y-96229333D02*
X127224666Y-96196000D01*
X127191333Y-96229333D01*
X127224666Y-96262666D01*
X127258000Y-96229333D01*
X127191333Y-96229333D01*
X127658000Y-95962666D02*
X127191333Y-95829333D01*
X127524666Y-95696000D01*
X127191333Y-95562666D01*
X127658000Y-95429333D01*
X127191333Y-95062666D02*
X127224666Y-95129333D01*
X127258000Y-95162666D01*
X127324666Y-95196000D01*
X127524666Y-95196000D01*
X127591333Y-95162666D01*
X127624666Y-95129333D01*
X127658000Y-95062666D01*
X127658000Y-94962666D01*
X127624666Y-94896000D01*
X127591333Y-94862666D01*
X127524666Y-94829333D01*
X127324666Y-94829333D01*
X127258000Y-94862666D01*
X127224666Y-94896000D01*
X127191333Y-94962666D01*
X127191333Y-95062666D01*
X127191333Y-94529333D02*
X127658000Y-94529333D01*
X127524666Y-94529333D02*
X127591333Y-94496000D01*
X127624666Y-94462666D01*
X127658000Y-94396000D01*
X127658000Y-94329333D01*
X127191333Y-93796000D02*
X127891333Y-93796000D01*
X127224666Y-93796000D02*
X127191333Y-93862666D01*
X127191333Y-93996000D01*
X127224666Y-94062666D01*
X127258000Y-94096000D01*
X127324666Y-94129333D01*
X127524666Y-94129333D01*
X127591333Y-94096000D01*
X127624666Y-94062666D01*
X127658000Y-93996000D01*
X127658000Y-93862666D01*
X127624666Y-93796000D01*
X127658000Y-93462666D02*
X126958000Y-93462666D01*
X127624666Y-93462666D02*
X127658000Y-93396000D01*
X127658000Y-93262666D01*
X127624666Y-93196000D01*
X127591333Y-93162666D01*
X127524666Y-93129333D01*
X127324666Y-93129333D01*
X127258000Y-93162666D01*
X127224666Y-93196000D01*
X127191333Y-93262666D01*
X127191333Y-93396000D01*
X127224666Y-93462666D01*
X127191333Y-92829333D02*
X127658000Y-92829333D01*
X127524666Y-92829333D02*
X127591333Y-92796000D01*
X127624666Y-92762666D01*
X127658000Y-92696000D01*
X127658000Y-92629333D01*
X127224666Y-92129333D02*
X127191333Y-92196000D01*
X127191333Y-92329333D01*
X127224666Y-92396000D01*
X127291333Y-92429333D01*
X127558000Y-92429333D01*
X127624666Y-92396000D01*
X127658000Y-92329333D01*
X127658000Y-92196000D01*
X127624666Y-92129333D01*
X127558000Y-92096000D01*
X127491333Y-92096000D01*
X127424666Y-92429333D01*
X127224666Y-91829333D02*
X127191333Y-91762666D01*
X127191333Y-91629333D01*
X127224666Y-91562666D01*
X127291333Y-91529333D01*
X127324666Y-91529333D01*
X127391333Y-91562666D01*
X127424666Y-91629333D01*
X127424666Y-91729333D01*
X127458000Y-91796000D01*
X127524666Y-91829333D01*
X127558000Y-91829333D01*
X127624666Y-91796000D01*
X127658000Y-91729333D01*
X127658000Y-91629333D01*
X127624666Y-91562666D01*
X127224666Y-91262666D02*
X127191333Y-91196000D01*
X127191333Y-91062666D01*
X127224666Y-90996000D01*
X127291333Y-90962666D01*
X127324666Y-90962666D01*
X127391333Y-90996000D01*
X127424666Y-91062666D01*
X127424666Y-91162666D01*
X127458000Y-91229333D01*
X127524666Y-91262666D01*
X127558000Y-91262666D01*
X127624666Y-91229333D01*
X127658000Y-91162666D01*
X127658000Y-91062666D01*
X127624666Y-90996000D01*
X127258000Y-90662666D02*
X127224666Y-90629333D01*
X127191333Y-90662666D01*
X127224666Y-90696000D01*
X127258000Y-90662666D01*
X127191333Y-90662666D01*
X127224666Y-90029333D02*
X127191333Y-90096000D01*
X127191333Y-90229333D01*
X127224666Y-90296000D01*
X127258000Y-90329333D01*
X127324666Y-90362666D01*
X127524666Y-90362666D01*
X127591333Y-90329333D01*
X127624666Y-90296000D01*
X127658000Y-90229333D01*
X127658000Y-90096000D01*
X127624666Y-90029333D01*
X127191333Y-89629333D02*
X127224666Y-89696000D01*
X127258000Y-89729333D01*
X127324666Y-89762666D01*
X127524666Y-89762666D01*
X127591333Y-89729333D01*
X127624666Y-89696000D01*
X127658000Y-89629333D01*
X127658000Y-89529333D01*
X127624666Y-89462666D01*
X127591333Y-89429333D01*
X127524666Y-89396000D01*
X127324666Y-89396000D01*
X127258000Y-89429333D01*
X127224666Y-89462666D01*
X127191333Y-89529333D01*
X127191333Y-89629333D01*
X127191333Y-89096000D02*
X127658000Y-89096000D01*
X127591333Y-89096000D02*
X127624666Y-89062666D01*
X127658000Y-88996000D01*
X127658000Y-88896000D01*
X127624666Y-88829333D01*
X127558000Y-88796000D01*
X127191333Y-88796000D01*
X127558000Y-88796000D02*
X127624666Y-88762666D01*
X127658000Y-88696000D01*
X127658000Y-88596000D01*
X127624666Y-88529333D01*
X127558000Y-88496000D01*
X127191333Y-88496000D01*
D11*
X128158285Y-56797380D02*
X128158285Y-55797380D01*
X127824952Y-56511666D01*
X127491619Y-55797380D01*
X127491619Y-56797380D01*
X126586857Y-56797380D02*
X126586857Y-56273571D01*
X126634476Y-56178333D01*
X126729714Y-56130714D01*
X126920190Y-56130714D01*
X127015428Y-56178333D01*
X126586857Y-56749761D02*
X126682095Y-56797380D01*
X126920190Y-56797380D01*
X127015428Y-56749761D01*
X127063047Y-56654523D01*
X127063047Y-56559285D01*
X127015428Y-56464047D01*
X126920190Y-56416428D01*
X126682095Y-56416428D01*
X126586857Y-56368809D01*
X125682095Y-56749761D02*
X125777333Y-56797380D01*
X125967809Y-56797380D01*
X126063047Y-56749761D01*
X126110666Y-56702142D01*
X126158285Y-56606904D01*
X126158285Y-56321190D01*
X126110666Y-56225952D01*
X126063047Y-56178333D01*
X125967809Y-56130714D01*
X125777333Y-56130714D01*
X125682095Y-56178333D01*
X125253523Y-56797380D02*
X125253523Y-55797380D01*
X124824952Y-56797380D02*
X124824952Y-56273571D01*
X124872571Y-56178333D01*
X124967809Y-56130714D01*
X125110666Y-56130714D01*
X125205904Y-56178333D01*
X125253523Y-56225952D01*
X124348761Y-56797380D02*
X124348761Y-56130714D01*
X124348761Y-55797380D02*
X124396380Y-55845000D01*
X124348761Y-55892619D01*
X124301142Y-55845000D01*
X124348761Y-55797380D01*
X124348761Y-55892619D01*
X123872571Y-56130714D02*
X123872571Y-56797380D01*
X123872571Y-56225952D02*
X123824952Y-56178333D01*
X123729714Y-56130714D01*
X123586857Y-56130714D01*
X123491619Y-56178333D01*
X123444000Y-56273571D01*
X123444000Y-56797380D01*
X122586857Y-56749761D02*
X122682095Y-56797380D01*
X122872571Y-56797380D01*
X122967809Y-56749761D01*
X123015428Y-56654523D01*
X123015428Y-56273571D01*
X122967809Y-56178333D01*
X122872571Y-56130714D01*
X122682095Y-56130714D01*
X122586857Y-56178333D01*
X122539238Y-56273571D01*
X122539238Y-56368809D01*
X123015428Y-56464047D01*
X121348761Y-56130714D02*
X121348761Y-57130714D01*
X121348761Y-56178333D02*
X121253523Y-56130714D01*
X121063047Y-56130714D01*
X120967809Y-56178333D01*
X120920190Y-56225952D01*
X120872571Y-56321190D01*
X120872571Y-56606904D01*
X120920190Y-56702142D01*
X120967809Y-56749761D01*
X121063047Y-56797380D01*
X121253523Y-56797380D01*
X121348761Y-56749761D01*
X120444000Y-56797380D02*
X120444000Y-56130714D01*
X120444000Y-55797380D02*
X120491619Y-55845000D01*
X120444000Y-55892619D01*
X120396380Y-55845000D01*
X120444000Y-55797380D01*
X120444000Y-55892619D01*
X119967809Y-56130714D02*
X119967809Y-56797380D01*
X119967809Y-56225952D02*
X119920190Y-56178333D01*
X119824952Y-56130714D01*
X119682095Y-56130714D01*
X119586857Y-56178333D01*
X119539238Y-56273571D01*
X119539238Y-56797380D01*
X119110666Y-56749761D02*
X119015428Y-56797380D01*
X118824952Y-56797380D01*
X118729714Y-56749761D01*
X118682095Y-56654523D01*
X118682095Y-56606904D01*
X118729714Y-56511666D01*
X118824952Y-56464047D01*
X118967809Y-56464047D01*
X119063047Y-56416428D01*
X119110666Y-56321190D01*
X119110666Y-56273571D01*
X119063047Y-56178333D01*
X118967809Y-56130714D01*
X118824952Y-56130714D01*
X118729714Y-56178333D01*
X126944000Y-58407380D02*
X127039238Y-58359761D01*
X127086857Y-58312142D01*
X127134476Y-58216904D01*
X127134476Y-57931190D01*
X127086857Y-57835952D01*
X127039238Y-57788333D01*
X126944000Y-57740714D01*
X126801142Y-57740714D01*
X126705904Y-57788333D01*
X126658285Y-57835952D01*
X126610666Y-57931190D01*
X126610666Y-58216904D01*
X126658285Y-58312142D01*
X126705904Y-58359761D01*
X126801142Y-58407380D01*
X126944000Y-58407380D01*
X126182095Y-57740714D02*
X126182095Y-58407380D01*
X126182095Y-57835952D02*
X126134476Y-57788333D01*
X126039238Y-57740714D01*
X125896380Y-57740714D01*
X125801142Y-57788333D01*
X125753523Y-57883571D01*
X125753523Y-58407380D01*
X124515428Y-58407380D02*
X124515428Y-57407380D01*
X124515428Y-57788333D02*
X124420190Y-57740714D01*
X124229714Y-57740714D01*
X124134476Y-57788333D01*
X124086857Y-57835952D01*
X124039238Y-57931190D01*
X124039238Y-58216904D01*
X124086857Y-58312142D01*
X124134476Y-58359761D01*
X124229714Y-58407380D01*
X124420190Y-58407380D01*
X124515428Y-58359761D01*
X123467809Y-58407380D02*
X123563047Y-58359761D01*
X123610666Y-58312142D01*
X123658285Y-58216904D01*
X123658285Y-57931190D01*
X123610666Y-57835952D01*
X123563047Y-57788333D01*
X123467809Y-57740714D01*
X123324952Y-57740714D01*
X123229714Y-57788333D01*
X123182095Y-57835952D01*
X123134476Y-57931190D01*
X123134476Y-58216904D01*
X123182095Y-58312142D01*
X123229714Y-58359761D01*
X123324952Y-58407380D01*
X123467809Y-58407380D01*
X122848761Y-57740714D02*
X122467809Y-57740714D01*
X122705904Y-57407380D02*
X122705904Y-58264523D01*
X122658285Y-58359761D01*
X122563047Y-58407380D01*
X122467809Y-58407380D01*
X122277333Y-57740714D02*
X121896380Y-57740714D01*
X122134476Y-57407380D02*
X122134476Y-58264523D01*
X122086857Y-58359761D01*
X121991619Y-58407380D01*
X121896380Y-58407380D01*
X121420190Y-58407380D02*
X121515428Y-58359761D01*
X121563047Y-58312142D01*
X121610666Y-58216904D01*
X121610666Y-57931190D01*
X121563047Y-57835952D01*
X121515428Y-57788333D01*
X121420190Y-57740714D01*
X121277333Y-57740714D01*
X121182095Y-57788333D01*
X121134476Y-57835952D01*
X121086857Y-57931190D01*
X121086857Y-58216904D01*
X121134476Y-58312142D01*
X121182095Y-58359761D01*
X121277333Y-58407380D01*
X121420190Y-58407380D01*
X120658285Y-58407380D02*
X120658285Y-57740714D01*
X120658285Y-57835952D02*
X120610666Y-57788333D01*
X120515428Y-57740714D01*
X120372571Y-57740714D01*
X120277333Y-57788333D01*
X120229714Y-57883571D01*
X120229714Y-58407380D01*
X120229714Y-57883571D02*
X120182095Y-57788333D01*
X120086857Y-57740714D01*
X119944000Y-57740714D01*
X119848761Y-57788333D01*
X119801142Y-57883571D01*
X119801142Y-58407380D01*
G36*
X125817389Y-100072644D02*
G01*
X125810887Y-100116692D01*
X125799432Y-100153065D01*
X125782383Y-100183840D01*
X125759101Y-100211091D01*
X125743543Y-100225032D01*
X125702530Y-100250863D01*
X125657542Y-100265036D01*
X125622314Y-100267788D01*
X125581745Y-100265121D01*
X125544517Y-100257277D01*
X125518930Y-100246783D01*
X125481903Y-100221732D01*
X125450822Y-100188289D01*
X125428305Y-100148896D01*
X125423959Y-100135802D01*
X125417969Y-100104798D01*
X125414166Y-100066595D01*
X125412555Y-100024443D01*
X125412688Y-100014622D01*
X125513396Y-100014622D01*
X125514009Y-100043827D01*
X125517610Y-100083015D01*
X125524818Y-100112494D01*
X125536071Y-100133791D01*
X125551807Y-100148431D01*
X125551842Y-100148454D01*
X125581699Y-100161496D01*
X125614910Y-100165697D01*
X125647383Y-100161083D01*
X125675031Y-100147678D01*
X125684491Y-100140094D01*
X125697977Y-100125574D01*
X125707170Y-100108180D01*
X125712813Y-100085524D01*
X125715653Y-100055214D01*
X125716434Y-100014860D01*
X125716432Y-100011198D01*
X125716118Y-99978228D01*
X125715024Y-99954807D01*
X125712802Y-99938236D01*
X125709107Y-99925818D01*
X125703593Y-99914856D01*
X125688118Y-99894609D01*
X125662291Y-99875528D01*
X125632772Y-99865446D01*
X125602039Y-99864361D01*
X125572569Y-99872271D01*
X125546838Y-99889171D01*
X125527325Y-99915059D01*
X125521672Y-99927271D01*
X125517343Y-99941273D01*
X125514811Y-99958421D01*
X125513641Y-99981832D01*
X125513396Y-100014622D01*
X125412688Y-100014622D01*
X125413137Y-99981595D01*
X125415916Y-99941300D01*
X125420894Y-99906811D01*
X125428074Y-99881377D01*
X125437503Y-99861878D01*
X125464757Y-99824228D01*
X125499129Y-99794967D01*
X125538824Y-99774456D01*
X125582045Y-99763056D01*
X125626997Y-99761129D01*
X125671884Y-99769034D01*
X125714911Y-99787134D01*
X125754281Y-99815789D01*
X125763752Y-99824975D01*
X125785751Y-99851849D01*
X125801622Y-99882103D01*
X125812076Y-99917908D01*
X125817826Y-99961437D01*
X125819584Y-100014860D01*
X125819576Y-100018846D01*
X125817389Y-100072644D01*
G37*
G36*
X121707871Y-99764238D02*
G01*
X121745992Y-99773047D01*
X121792834Y-99793097D01*
X121831027Y-99822091D01*
X121860702Y-99860168D01*
X121881990Y-99907468D01*
X121895022Y-99964132D01*
X121898813Y-100018952D01*
X121894257Y-100073558D01*
X121881680Y-100124106D01*
X121861645Y-100168354D01*
X121834717Y-100204062D01*
X121828313Y-100210200D01*
X121795202Y-100234577D01*
X121756916Y-100253771D01*
X121719003Y-100264867D01*
X121695022Y-100268394D01*
X121667330Y-100269908D01*
X121642099Y-100267074D01*
X121613799Y-100259619D01*
X121601987Y-100255538D01*
X121566908Y-100239273D01*
X121534545Y-100218747D01*
X121509743Y-100196882D01*
X121502316Y-100187808D01*
X121501768Y-100180513D01*
X121509743Y-100170459D01*
X121513378Y-100166658D01*
X121527995Y-100153044D01*
X121544962Y-100138782D01*
X121568272Y-100120296D01*
X121590727Y-100137423D01*
X121595668Y-100141027D01*
X121629678Y-100158417D01*
X121665569Y-100165831D01*
X121701033Y-100163672D01*
X121733765Y-100152349D01*
X121761459Y-100132264D01*
X121781808Y-100103825D01*
X121782576Y-100102244D01*
X121789531Y-100085391D01*
X121793699Y-100067822D01*
X121795716Y-100045618D01*
X121796216Y-100014860D01*
X121796177Y-100005915D01*
X121795349Y-99978334D01*
X121792925Y-99958228D01*
X121788215Y-99941631D01*
X121780532Y-99924574D01*
X121763896Y-99899155D01*
X121739032Y-99878800D01*
X121707211Y-99867986D01*
X121667239Y-99866096D01*
X121655983Y-99866829D01*
X121633422Y-99870086D01*
X121615471Y-99876754D01*
X121596473Y-99888636D01*
X121567664Y-99908942D01*
X121544658Y-99890697D01*
X121538917Y-99886039D01*
X121522153Y-99871426D01*
X121509684Y-99859195D01*
X121507840Y-99857144D01*
X121501560Y-99848479D01*
X121502929Y-99841261D01*
X121512449Y-99830254D01*
X121515187Y-99827425D01*
X121545986Y-99802751D01*
X121584070Y-99781886D01*
X121624764Y-99767443D01*
X121634832Y-99764973D01*
X121658491Y-99760847D01*
X121680570Y-99760690D01*
X121707871Y-99764238D01*
G37*
G36*
X122141677Y-100547800D02*
G01*
X122183860Y-100558756D01*
X122221837Y-100580210D01*
X122243705Y-100596889D01*
X122243705Y-100552492D01*
X122343729Y-100552492D01*
X122343729Y-101046364D01*
X122243705Y-101046364D01*
X122243695Y-100882261D01*
X122243662Y-100849446D01*
X122243441Y-100805757D01*
X122242930Y-100772000D01*
X122242036Y-100746591D01*
X122240665Y-100727944D01*
X122238723Y-100714474D01*
X122236118Y-100704595D01*
X122232755Y-100696722D01*
X122222847Y-100681290D01*
X122199113Y-100660292D01*
X122170121Y-100648753D01*
X122138599Y-100647525D01*
X122107272Y-100657462D01*
X122082794Y-100670221D01*
X122046699Y-100626346D01*
X122045920Y-100625397D01*
X122028951Y-100603992D01*
X122019510Y-100589879D01*
X122016623Y-100581283D01*
X122019315Y-100576426D01*
X122055343Y-100557579D01*
X122097950Y-100547391D01*
X122141677Y-100547800D01*
G37*
G36*
X124853277Y-100947740D02*
G01*
X124844922Y-100967757D01*
X124821580Y-100999802D01*
X124788911Y-101025586D01*
X124748545Y-101043616D01*
X124723158Y-101049020D01*
X124688418Y-101051812D01*
X124653401Y-101050875D01*
X124624172Y-101046088D01*
X124622691Y-101045657D01*
X124601317Y-101036380D01*
X124581974Y-101023687D01*
X124563025Y-101007743D01*
X124563025Y-101046364D01*
X124455651Y-101046364D01*
X124457978Y-100874272D01*
X124563025Y-100874272D01*
X124563604Y-100888452D01*
X124568725Y-100916494D01*
X124578335Y-100937439D01*
X124591451Y-100948712D01*
X124594155Y-100949600D01*
X124612169Y-100952827D01*
X124637171Y-100954946D01*
X124664707Y-100955796D01*
X124690328Y-100955214D01*
X124709582Y-100953036D01*
X124717641Y-100950911D01*
X124740465Y-100938711D01*
X124755844Y-100920733D01*
X124762743Y-100899599D01*
X124760127Y-100877929D01*
X124746961Y-100858344D01*
X124740341Y-100852676D01*
X124732387Y-100848213D01*
X124721449Y-100845238D01*
X124705148Y-100843340D01*
X124681103Y-100842111D01*
X124646937Y-100841141D01*
X124563025Y-100839094D01*
X124563025Y-100874272D01*
X124457978Y-100874272D01*
X124458208Y-100857255D01*
X124458247Y-100854355D01*
X124459275Y-100793620D01*
X124460548Y-100744473D01*
X124462113Y-100706040D01*
X124464012Y-100677444D01*
X124466292Y-100657811D01*
X124468998Y-100646265D01*
X124482443Y-100618681D01*
X124507282Y-100589763D01*
X124541901Y-100567477D01*
X124551053Y-100563171D01*
X124568787Y-100556373D01*
X124587670Y-100551986D01*
X124611486Y-100549268D01*
X124644020Y-100547479D01*
X124670432Y-100546870D01*
X124714015Y-100549008D01*
X124749425Y-100556034D01*
X124779091Y-100568543D01*
X124805440Y-100587132D01*
X124816170Y-100596729D01*
X124827461Y-100608123D01*
X124831841Y-100614491D01*
X124831693Y-100615031D01*
X124825611Y-100621955D01*
X124812396Y-100633767D01*
X124794504Y-100648248D01*
X124757166Y-100677244D01*
X124741277Y-100662518D01*
X124732270Y-100655351D01*
X124713153Y-100646342D01*
X124687587Y-100641474D01*
X124652690Y-100640014D01*
X124637294Y-100640657D01*
X124607148Y-100646125D01*
X124583732Y-100656349D01*
X124569780Y-100670331D01*
X124567340Y-100677205D01*
X124564238Y-100695354D01*
X124563025Y-100717065D01*
X124563025Y-100751179D01*
X124655235Y-100753805D01*
X124698004Y-100755565D01*
X124732830Y-100758623D01*
X124759680Y-100763508D01*
X124780863Y-100770814D01*
X124798688Y-100781137D01*
X124815462Y-100795071D01*
X124826949Y-100807966D01*
X124844503Y-100839197D01*
X124855417Y-100875625D01*
X124857499Y-100899599D01*
X124858678Y-100913167D01*
X124853277Y-100947740D01*
G37*
G36*
X125226434Y-101046364D02*
G01*
X125224498Y-100879135D01*
X125224145Y-100849512D01*
X125223519Y-100805597D01*
X125222783Y-100771697D01*
X125221805Y-100746222D01*
X125220451Y-100727577D01*
X125218587Y-100714172D01*
X125216080Y-100704412D01*
X125212797Y-100696706D01*
X125208603Y-100689461D01*
X125207992Y-100688494D01*
X125187149Y-100666799D01*
X125159512Y-100652771D01*
X125128521Y-100647062D01*
X125097620Y-100650325D01*
X125070249Y-100663214D01*
X125059982Y-100671294D01*
X125051244Y-100680344D01*
X125044528Y-100691322D01*
X125039571Y-100705738D01*
X125036107Y-100725103D01*
X125033873Y-100750927D01*
X125032603Y-100784721D01*
X125032034Y-100827995D01*
X125031900Y-100882261D01*
X125031891Y-101046364D01*
X124931354Y-101046364D01*
X124933173Y-100854129D01*
X124933271Y-100843827D01*
X124933871Y-100788085D01*
X124934686Y-100743100D01*
X124935998Y-100707373D01*
X124938088Y-100679404D01*
X124941240Y-100657694D01*
X124945735Y-100640744D01*
X124951855Y-100627054D01*
X124959884Y-100615126D01*
X124970103Y-100603460D01*
X124982794Y-100590557D01*
X124997956Y-100577508D01*
X125033671Y-100557927D01*
X125073792Y-100547566D01*
X125115391Y-100546657D01*
X125155538Y-100555430D01*
X125191305Y-100574116D01*
X125193334Y-100575586D01*
X125207775Y-100585746D01*
X125217874Y-100592376D01*
X125218701Y-100592602D01*
X125220820Y-100589698D01*
X125222492Y-100580631D01*
X125223761Y-100564346D01*
X125224671Y-100539785D01*
X125225266Y-100505893D01*
X125225590Y-100461612D01*
X125225688Y-100405886D01*
X125225688Y-100214781D01*
X125192868Y-100236443D01*
X125177662Y-100245433D01*
X125152440Y-100257327D01*
X125130229Y-100264693D01*
X125099194Y-100268451D01*
X125057136Y-100263887D01*
X125018242Y-100248972D01*
X124984504Y-100224870D01*
X124957914Y-100192746D01*
X124940464Y-100153763D01*
X124939652Y-100150742D01*
X124935495Y-100126146D01*
X124932559Y-100092661D01*
X124930844Y-100053333D01*
X124930429Y-100017986D01*
X125035016Y-100017986D01*
X125035498Y-100056380D01*
X125037482Y-100088556D01*
X125041532Y-100112193D01*
X125048210Y-100129347D01*
X125058076Y-100142073D01*
X125071691Y-100152429D01*
X125088756Y-100160480D01*
X125118223Y-100166127D01*
X125148651Y-100164293D01*
X125176119Y-100155372D01*
X125196704Y-100139764D01*
X125202699Y-100131379D01*
X125214967Y-100103046D01*
X125222757Y-100067414D01*
X125226088Y-100027623D01*
X125224979Y-99986815D01*
X125219449Y-99948130D01*
X125209516Y-99914709D01*
X125195200Y-99889694D01*
X125186345Y-99879959D01*
X125175478Y-99872372D01*
X125160875Y-99868336D01*
X125138153Y-99866032D01*
X125115858Y-99865596D01*
X125085395Y-99871064D01*
X125062702Y-99884914D01*
X125046286Y-99907828D01*
X125041575Y-99919489D01*
X125038331Y-99933916D01*
X125036323Y-99953514D01*
X125035301Y-99980724D01*
X125035016Y-100017986D01*
X124930429Y-100017986D01*
X124930349Y-100011209D01*
X124931072Y-99969334D01*
X124933014Y-99930754D01*
X124936173Y-99898517D01*
X124940548Y-99875668D01*
X124947244Y-99856939D01*
X124968648Y-99821125D01*
X124997730Y-99793222D01*
X125032672Y-99773821D01*
X125071654Y-99763514D01*
X125112855Y-99762892D01*
X125154457Y-99772547D01*
X125194638Y-99793070D01*
X125225688Y-99813965D01*
X125225688Y-99764798D01*
X125325713Y-99764798D01*
X125325713Y-101046364D01*
X125226434Y-101046364D01*
G37*
G36*
X121469054Y-100007519D02*
G01*
X121468451Y-100045025D01*
X121465988Y-100079379D01*
X121461700Y-100105969D01*
X121449097Y-100144741D01*
X121424702Y-100188724D01*
X121391952Y-100223624D01*
X121351212Y-100249074D01*
X121302848Y-100264708D01*
X121299870Y-100265295D01*
X121245895Y-100269426D01*
X121192548Y-100261787D01*
X121142082Y-100242941D01*
X121096750Y-100213447D01*
X121090269Y-100207882D01*
X121079090Y-100196868D01*
X121074667Y-100190207D01*
X121074698Y-100189966D01*
X121079789Y-100183179D01*
X121091907Y-100171098D01*
X121108612Y-100156170D01*
X121142557Y-100127169D01*
X121165184Y-100142524D01*
X121168735Y-100144850D01*
X121189897Y-100156624D01*
X121210045Y-100165217D01*
X121219905Y-100167786D01*
X121247319Y-100170513D01*
X121276851Y-100168956D01*
X121303746Y-100163555D01*
X121323250Y-100154748D01*
X121338816Y-100138790D01*
X121353510Y-100115823D01*
X121364297Y-100091144D01*
X121368489Y-100069799D01*
X121368489Y-100052369D01*
X121060814Y-100052369D01*
X121063378Y-99982039D01*
X121064152Y-99971099D01*
X121160797Y-99971099D01*
X121368489Y-99971099D01*
X121368489Y-99953328D01*
X121365450Y-99934786D01*
X121354235Y-99909124D01*
X121337563Y-99885933D01*
X121318419Y-99870170D01*
X121317520Y-99869698D01*
X121293303Y-99861620D01*
X121264798Y-99858571D01*
X121257949Y-99858768D01*
X121224333Y-99866359D01*
X121196972Y-99884311D01*
X121176886Y-99911713D01*
X121165091Y-99947656D01*
X121160797Y-99971099D01*
X121064152Y-99971099D01*
X121066583Y-99936718D01*
X121073361Y-99899731D01*
X121084730Y-99869451D01*
X121101751Y-99843071D01*
X121125484Y-99817789D01*
X121163084Y-99789394D01*
X121207904Y-99769477D01*
X121255608Y-99761200D01*
X121304733Y-99764995D01*
X121347329Y-99778291D01*
X121387831Y-99802633D01*
X121420761Y-99836780D01*
X121445894Y-99880495D01*
X121463006Y-99933537D01*
X121464540Y-99941494D01*
X121467722Y-99971099D01*
X121467762Y-99971472D01*
X121469054Y-100007519D01*
G37*
G36*
X123473369Y-96051388D02*
G01*
X123529570Y-96051442D01*
X123575038Y-96051603D01*
X123610952Y-96051928D01*
X123638490Y-96052476D01*
X123658834Y-96053302D01*
X123673163Y-96054464D01*
X123682655Y-96056019D01*
X123688491Y-96058024D01*
X123691851Y-96060535D01*
X123693913Y-96063610D01*
X123694182Y-96064217D01*
X123697094Y-96074783D01*
X123701909Y-96096002D01*
X123708341Y-96126450D01*
X123716099Y-96164706D01*
X123724894Y-96209349D01*
X123734438Y-96258957D01*
X123744441Y-96312108D01*
X123746182Y-96321436D01*
X123756164Y-96373856D01*
X123765712Y-96422320D01*
X123774530Y-96465436D01*
X123782320Y-96501812D01*
X123788787Y-96530058D01*
X123793633Y-96548782D01*
X123796563Y-96556591D01*
X123798658Y-96558118D01*
X123811227Y-96564716D01*
X123832847Y-96574748D01*
X123861660Y-96587451D01*
X123895810Y-96602066D01*
X123933439Y-96617832D01*
X123972689Y-96633987D01*
X124011702Y-96649772D01*
X124048621Y-96664425D01*
X124081588Y-96677186D01*
X124108746Y-96687293D01*
X124128236Y-96693986D01*
X124138203Y-96696505D01*
X124141560Y-96695922D01*
X124154228Y-96690311D01*
X124174948Y-96678554D01*
X124204122Y-96660396D01*
X124242152Y-96635582D01*
X124289442Y-96603858D01*
X124346394Y-96564970D01*
X124363748Y-96553042D01*
X124413170Y-96519091D01*
X124453576Y-96491409D01*
X124485953Y-96469381D01*
X124511288Y-96452393D01*
X124530566Y-96439831D01*
X124544776Y-96431079D01*
X124554904Y-96425523D01*
X124561935Y-96422549D01*
X124566857Y-96421541D01*
X124570656Y-96421885D01*
X124574318Y-96422967D01*
X124579804Y-96426512D01*
X124593480Y-96438125D01*
X124613484Y-96456557D01*
X124638641Y-96480611D01*
X124667776Y-96509093D01*
X124699713Y-96540804D01*
X124733278Y-96574550D01*
X124767294Y-96609134D01*
X124800588Y-96643359D01*
X124831984Y-96676030D01*
X124860307Y-96705950D01*
X124884381Y-96731924D01*
X124903032Y-96752754D01*
X124915084Y-96767244D01*
X124919363Y-96774199D01*
X124919303Y-96774667D01*
X124914995Y-96783787D01*
X124904427Y-96801805D01*
X124888378Y-96827510D01*
X124867628Y-96859693D01*
X124842955Y-96897143D01*
X124815137Y-96938652D01*
X124784955Y-96983009D01*
X124782078Y-96987208D01*
X124742190Y-97045896D01*
X124709392Y-97095116D01*
X124683756Y-97134756D01*
X124665355Y-97164699D01*
X124654261Y-97184831D01*
X124650547Y-97195039D01*
X124651603Y-97201070D01*
X124657022Y-97218357D01*
X124666352Y-97243753D01*
X124678817Y-97275465D01*
X124693640Y-97311699D01*
X124710045Y-97350663D01*
X124727256Y-97390564D01*
X124744496Y-97429609D01*
X124760988Y-97466004D01*
X124775956Y-97497958D01*
X124788623Y-97523676D01*
X124798213Y-97541366D01*
X124803949Y-97549235D01*
X124811881Y-97552017D01*
X124830930Y-97556846D01*
X124859433Y-97563271D01*
X124895910Y-97570982D01*
X124938880Y-97579665D01*
X124986864Y-97589008D01*
X125038382Y-97598699D01*
X125086241Y-97607626D01*
X125134653Y-97616820D01*
X125178213Y-97625264D01*
X125215432Y-97632660D01*
X125244819Y-97638713D01*
X125264884Y-97643125D01*
X125274138Y-97645600D01*
X125288204Y-97651510D01*
X125288204Y-97901037D01*
X125288203Y-97909380D01*
X125288163Y-97970530D01*
X125288021Y-98020474D01*
X125287728Y-98060368D01*
X125287234Y-98091366D01*
X125286489Y-98114623D01*
X125285444Y-98131295D01*
X125284048Y-98142537D01*
X125282253Y-98149504D01*
X125280008Y-98153351D01*
X125277264Y-98155233D01*
X125268961Y-98157385D01*
X125249765Y-98161547D01*
X125221157Y-98167416D01*
X125184589Y-98174702D01*
X125141512Y-98183116D01*
X125093377Y-98192369D01*
X125041634Y-98202173D01*
X125012245Y-98207726D01*
X124954864Y-98218767D01*
X124908477Y-98228034D01*
X124872161Y-98235736D01*
X124844993Y-98242085D01*
X124826050Y-98247289D01*
X124814409Y-98251560D01*
X124809147Y-98255108D01*
X124808256Y-98256600D01*
X124802683Y-98268358D01*
X124793362Y-98289708D01*
X124780938Y-98319110D01*
X124766058Y-98355027D01*
X124749365Y-98395920D01*
X124731505Y-98440250D01*
X124715714Y-98480008D01*
X124696031Y-98530836D01*
X124681214Y-98570990D01*
X124671111Y-98600911D01*
X124665565Y-98621039D01*
X124664424Y-98631813D01*
X124667652Y-98639173D01*
X124677347Y-98656078D01*
X124692649Y-98680802D01*
X124712726Y-98712050D01*
X124736744Y-98748529D01*
X124763871Y-98788944D01*
X124793274Y-98832001D01*
X124819617Y-98870495D01*
X124846734Y-98910662D01*
X124870729Y-98946781D01*
X124890796Y-98977609D01*
X124906129Y-99001907D01*
X124915920Y-99018434D01*
X124919363Y-99025948D01*
X124919066Y-99026879D01*
X124912614Y-99035668D01*
X124898451Y-99051950D01*
X124877532Y-99074715D01*
X124850814Y-99102948D01*
X124819250Y-99135639D01*
X124783795Y-99171775D01*
X124745405Y-99210343D01*
X124717224Y-99238412D01*
X124676831Y-99278395D01*
X124643910Y-99310566D01*
X124617679Y-99335638D01*
X124597353Y-99354324D01*
X124582148Y-99367336D01*
X124571280Y-99375387D01*
X124563966Y-99379190D01*
X124559422Y-99379458D01*
X124553536Y-99376169D01*
X124538082Y-99366400D01*
X124514667Y-99351073D01*
X124484557Y-99331033D01*
X124449020Y-99307125D01*
X124409323Y-99280193D01*
X124366733Y-99251082D01*
X124330698Y-99226526D01*
X124290497Y-99199542D01*
X124254239Y-99175644D01*
X124223187Y-99155642D01*
X124198604Y-99140350D01*
X124181754Y-99130579D01*
X124173900Y-99127141D01*
X124170969Y-99127687D01*
X124157341Y-99132812D01*
X124136033Y-99142468D01*
X124109324Y-99155594D01*
X124079496Y-99171128D01*
X124066227Y-99178123D01*
X124037606Y-99192502D01*
X124013150Y-99203838D01*
X123995112Y-99211117D01*
X123985744Y-99213325D01*
X123983848Y-99212138D01*
X123979288Y-99205986D01*
X123972617Y-99194039D01*
X123963550Y-99175651D01*
X123951803Y-99150179D01*
X123937093Y-99116977D01*
X123919134Y-99075400D01*
X123897643Y-99024804D01*
X123872336Y-98964543D01*
X123842929Y-98893973D01*
X123809138Y-98812449D01*
X123791557Y-98769880D01*
X123764740Y-98704673D01*
X123739624Y-98643273D01*
X123716597Y-98586647D01*
X123696047Y-98535760D01*
X123678363Y-98491580D01*
X123663933Y-98455075D01*
X123653145Y-98427210D01*
X123646388Y-98408954D01*
X123644049Y-98401273D01*
X123644602Y-98398090D01*
X123653234Y-98385750D01*
X123670618Y-98372067D01*
X123674212Y-98369721D01*
X123693778Y-98356425D01*
X123717886Y-98339478D01*
X123742140Y-98321960D01*
X123779171Y-98292131D01*
X123834147Y-98235696D01*
X123879472Y-98172520D01*
X123914672Y-98103825D01*
X123939274Y-98030831D01*
X123952806Y-97954763D01*
X123954795Y-97876841D01*
X123944767Y-97798288D01*
X123940093Y-97777870D01*
X123915475Y-97704745D01*
X123880150Y-97636523D01*
X123835131Y-97574286D01*
X123781433Y-97519119D01*
X123720070Y-97472104D01*
X123652057Y-97434327D01*
X123578408Y-97406870D01*
X123558525Y-97401961D01*
X123509764Y-97394619D01*
X123455556Y-97391439D01*
X123400210Y-97392421D01*
X123348035Y-97397565D01*
X123303340Y-97406870D01*
X123257361Y-97422173D01*
X123194513Y-97451533D01*
X123136811Y-97489993D01*
X123081411Y-97539248D01*
X123073356Y-97547386D01*
X123036607Y-97587485D01*
X123007888Y-97625186D01*
X122984897Y-97663811D01*
X122965331Y-97706684D01*
X122943609Y-97772314D01*
X122929542Y-97849516D01*
X122927158Y-97926636D01*
X122936126Y-98002501D01*
X122956114Y-98075939D01*
X122986787Y-98145777D01*
X123027816Y-98210842D01*
X123078867Y-98269961D01*
X123139608Y-98321960D01*
X123145316Y-98326131D01*
X123169940Y-98343793D01*
X123193344Y-98360132D01*
X123211130Y-98372067D01*
X123217343Y-98376321D01*
X123232241Y-98389847D01*
X123237699Y-98401273D01*
X123236763Y-98404824D01*
X123231597Y-98419276D01*
X123222257Y-98443694D01*
X123209131Y-98477111D01*
X123192607Y-98518561D01*
X123173073Y-98567076D01*
X123150919Y-98621689D01*
X123126531Y-98681434D01*
X123100299Y-98745343D01*
X123072610Y-98812449D01*
X123051065Y-98864472D01*
X123020033Y-98939107D01*
X122993210Y-99003190D01*
X122970309Y-99057365D01*
X122951049Y-99102276D01*
X122935143Y-99138569D01*
X122922309Y-99166888D01*
X122912262Y-99187879D01*
X122904719Y-99202185D01*
X122899394Y-99210452D01*
X122896004Y-99213325D01*
X122893113Y-99213047D01*
X122879671Y-99208494D01*
X122858546Y-99199313D01*
X122831989Y-99186520D01*
X122802253Y-99171128D01*
X122789186Y-99164219D01*
X122760421Y-99149591D01*
X122735755Y-99137827D01*
X122717471Y-99129990D01*
X122707848Y-99127141D01*
X122701851Y-99129601D01*
X122686327Y-99138434D01*
X122662872Y-99152915D01*
X122632750Y-99172232D01*
X122597224Y-99195574D01*
X122557558Y-99222128D01*
X122515015Y-99251082D01*
X122479292Y-99275514D01*
X122439030Y-99302865D01*
X122402719Y-99327330D01*
X122371625Y-99348066D01*
X122347017Y-99364229D01*
X122330162Y-99374975D01*
X122322327Y-99379458D01*
X122319885Y-99379681D01*
X122313771Y-99377376D01*
X122304417Y-99371106D01*
X122291038Y-99360161D01*
X122272851Y-99343827D01*
X122249072Y-99321390D01*
X122218917Y-99292140D01*
X122181602Y-99255362D01*
X122136344Y-99210343D01*
X122126160Y-99200165D01*
X122088439Y-99162130D01*
X122053902Y-99126790D01*
X122023502Y-99095158D01*
X121998196Y-99068246D01*
X121978938Y-99047065D01*
X121966683Y-99032628D01*
X121962385Y-99025948D01*
X121965172Y-99019635D01*
X121974352Y-99003972D01*
X121989156Y-98980411D01*
X122008777Y-98950192D01*
X122032408Y-98914557D01*
X122059243Y-98874746D01*
X122088474Y-98832001D01*
X122114296Y-98794226D01*
X122141755Y-98753409D01*
X122166209Y-98716366D01*
X122186825Y-98684391D01*
X122202772Y-98658777D01*
X122213216Y-98640820D01*
X122217325Y-98631813D01*
X122217053Y-98625701D01*
X122213012Y-98608780D01*
X122204465Y-98582215D01*
X122191257Y-98545565D01*
X122173234Y-98498390D01*
X122150243Y-98440250D01*
X122144400Y-98425684D01*
X122126846Y-98382294D01*
X122110667Y-98342836D01*
X122096507Y-98308850D01*
X122085013Y-98281875D01*
X122076829Y-98263448D01*
X122072601Y-98255108D01*
X122070983Y-98253601D01*
X122062989Y-98249757D01*
X122048204Y-98245095D01*
X122025706Y-98239406D01*
X121994571Y-98232480D01*
X121953876Y-98224106D01*
X121902698Y-98214073D01*
X121840114Y-98202173D01*
X121789036Y-98192496D01*
X121740844Y-98183233D01*
X121697690Y-98174806D01*
X121661027Y-98167504D01*
X121632304Y-98161615D01*
X121612973Y-98157428D01*
X121604485Y-98155233D01*
X121604119Y-98155069D01*
X121601439Y-98153007D01*
X121599252Y-98148839D01*
X121597508Y-98141409D01*
X121596158Y-98129563D01*
X121595152Y-98112144D01*
X121594441Y-98087997D01*
X121593974Y-98055969D01*
X121593702Y-98014903D01*
X121593576Y-97963644D01*
X121593545Y-97901037D01*
X121593545Y-97651510D01*
X121607611Y-97645600D01*
X121615791Y-97643378D01*
X121635108Y-97639099D01*
X121663856Y-97633158D01*
X121700547Y-97625851D01*
X121743689Y-97617474D01*
X121791792Y-97608325D01*
X121843367Y-97598699D01*
X121891324Y-97589689D01*
X121939608Y-97580311D01*
X121982983Y-97571570D01*
X122019969Y-97563780D01*
X122049088Y-97557253D01*
X122068858Y-97552301D01*
X122077800Y-97549235D01*
X122081040Y-97545343D01*
X122089364Y-97530900D01*
X122101038Y-97507799D01*
X122115286Y-97477833D01*
X122131331Y-97442794D01*
X122148396Y-97404476D01*
X122165706Y-97364672D01*
X122182483Y-97325174D01*
X122197951Y-97287776D01*
X122211333Y-97254271D01*
X122221853Y-97226451D01*
X122228735Y-97206109D01*
X122231202Y-97195039D01*
X122231185Y-97194674D01*
X122226982Y-97183809D01*
X122215405Y-97163026D01*
X122196524Y-97132440D01*
X122170414Y-97092165D01*
X122137146Y-97042317D01*
X122096793Y-96983009D01*
X122092773Y-96977138D01*
X122062853Y-96933082D01*
X122035400Y-96892031D01*
X122011191Y-96855195D01*
X121991007Y-96823784D01*
X121975625Y-96799008D01*
X121965825Y-96782076D01*
X121962385Y-96774199D01*
X121964960Y-96769539D01*
X121975341Y-96756664D01*
X121992589Y-96737176D01*
X122015528Y-96712271D01*
X122042985Y-96683147D01*
X122073782Y-96650999D01*
X122106746Y-96617023D01*
X122140702Y-96582415D01*
X122174473Y-96548373D01*
X122206885Y-96516092D01*
X122236763Y-96486767D01*
X122262932Y-96461596D01*
X122284216Y-96441775D01*
X122299440Y-96428500D01*
X122307430Y-96422967D01*
X122308880Y-96422499D01*
X122312361Y-96421597D01*
X122316291Y-96421616D01*
X122321658Y-96423169D01*
X122329448Y-96426870D01*
X122340647Y-96433336D01*
X122356241Y-96443181D01*
X122377218Y-96457019D01*
X122404563Y-96475465D01*
X122439262Y-96499134D01*
X122482303Y-96528641D01*
X122534671Y-96564601D01*
X122564897Y-96585294D01*
X122616936Y-96620517D01*
X122659523Y-96648719D01*
X122693069Y-96670158D01*
X122717982Y-96685093D01*
X122734673Y-96693783D01*
X122743551Y-96696485D01*
X122746454Y-96695981D01*
X122760626Y-96691611D01*
X122783537Y-96683387D01*
X122813331Y-96672071D01*
X122848154Y-96658422D01*
X122886152Y-96643200D01*
X122925470Y-96627166D01*
X122964254Y-96611079D01*
X123000648Y-96595700D01*
X123032798Y-96581788D01*
X123058851Y-96570103D01*
X123076950Y-96561406D01*
X123085241Y-96556457D01*
X123085593Y-96555946D01*
X123088835Y-96546161D01*
X123093950Y-96525705D01*
X123100645Y-96495968D01*
X123108621Y-96458339D01*
X123117584Y-96414209D01*
X123127237Y-96364967D01*
X123137285Y-96312004D01*
X123138932Y-96303196D01*
X123148905Y-96250520D01*
X123158367Y-96201621D01*
X123167029Y-96157921D01*
X123174602Y-96120839D01*
X123180796Y-96091795D01*
X123185322Y-96072210D01*
X123187892Y-96063505D01*
X123188765Y-96062010D01*
X123191314Y-96059228D01*
X123195754Y-96056980D01*
X123203266Y-96055207D01*
X123215028Y-96053854D01*
X123232219Y-96052864D01*
X123256018Y-96052181D01*
X123287604Y-96051748D01*
X123328156Y-96051508D01*
X123378853Y-96051406D01*
X123440874Y-96051385D01*
X123473369Y-96051388D01*
G37*
G36*
X122843104Y-100959519D02*
G01*
X122822170Y-100993522D01*
X122791454Y-101021309D01*
X122751723Y-101041415D01*
X122751225Y-101041592D01*
X122720950Y-101048670D01*
X122684665Y-101051914D01*
X122648211Y-101051122D01*
X122617428Y-101046088D01*
X122615948Y-101045657D01*
X122594574Y-101036380D01*
X122575230Y-101023687D01*
X122556282Y-101007743D01*
X122556282Y-101046364D01*
X122456257Y-101046364D01*
X122456290Y-100870914D01*
X122556282Y-100870914D01*
X122556292Y-100873370D01*
X122559254Y-100905220D01*
X122567993Y-100927765D01*
X122583273Y-100943041D01*
X122584103Y-100943552D01*
X122599408Y-100949004D01*
X122622263Y-100953400D01*
X122648125Y-100956227D01*
X122672449Y-100956973D01*
X122690690Y-100955129D01*
X122699981Y-100952948D01*
X122717418Y-100949062D01*
X122736570Y-100940436D01*
X122751057Y-100922406D01*
X122756132Y-100897890D01*
X122756006Y-100892813D01*
X122753113Y-100873719D01*
X122745296Y-100859699D01*
X122731058Y-100850037D01*
X122708900Y-100844020D01*
X122677326Y-100840933D01*
X122634837Y-100840063D01*
X122556282Y-100840063D01*
X122556282Y-100870914D01*
X122456290Y-100870914D01*
X122456292Y-100860380D01*
X122456382Y-100825627D01*
X122456913Y-100771609D01*
X122457890Y-100725939D01*
X122459281Y-100689654D01*
X122461052Y-100663792D01*
X122463168Y-100649391D01*
X122464314Y-100645610D01*
X122479105Y-100617853D01*
X122503012Y-100592037D01*
X122533090Y-100570802D01*
X122566397Y-100556788D01*
X122586901Y-100552206D01*
X122626569Y-100547574D01*
X122669106Y-100546642D01*
X122709581Y-100549434D01*
X122743066Y-100555971D01*
X122747677Y-100557500D01*
X122767408Y-100566593D01*
X122788069Y-100579137D01*
X122806605Y-100592921D01*
X122819966Y-100605735D01*
X122825098Y-100615369D01*
X122824993Y-100615840D01*
X122819122Y-100622775D01*
X122806043Y-100634545D01*
X122788241Y-100648889D01*
X122782737Y-100653106D01*
X122765575Y-100665615D01*
X122754906Y-100671431D01*
X122748197Y-100671568D01*
X122742917Y-100667041D01*
X122732209Y-100657698D01*
X122707983Y-100646890D01*
X122677858Y-100640970D01*
X122645278Y-100639950D01*
X122613683Y-100643843D01*
X122586517Y-100652661D01*
X122567222Y-100666416D01*
X122563920Y-100670986D01*
X122558094Y-100688354D01*
X122556282Y-100715151D01*
X122556282Y-100751395D01*
X122648492Y-100753639D01*
X122658728Y-100753901D01*
X122694375Y-100755178D01*
X122720670Y-100756992D01*
X122740151Y-100759665D01*
X122755359Y-100763518D01*
X122768834Y-100768873D01*
X122803530Y-100790461D01*
X122830796Y-100820661D01*
X122847840Y-100857731D01*
X122852558Y-100878733D01*
X122852982Y-100897890D01*
X122853489Y-100920767D01*
X122843104Y-100959519D01*
G37*
G36*
X122049005Y-99770593D02*
G01*
X122081825Y-99785131D01*
X122107031Y-99806542D01*
X122107815Y-99807481D01*
X122113088Y-99811819D01*
X122116196Y-99807413D01*
X122118674Y-99792400D01*
X122121800Y-99767924D01*
X122173375Y-99766108D01*
X122224950Y-99764293D01*
X122224950Y-100265427D01*
X122173375Y-100263611D01*
X122121800Y-100261796D01*
X122118674Y-100089878D01*
X122118187Y-100063424D01*
X122117170Y-100015364D01*
X122115942Y-99977612D01*
X122114209Y-99948674D01*
X122111680Y-99927055D01*
X122108060Y-99911263D01*
X122103057Y-99899801D01*
X122096378Y-99891178D01*
X122087730Y-99883898D01*
X122076820Y-99876468D01*
X122060225Y-99869232D01*
X122033115Y-99865181D01*
X122004425Y-99867096D01*
X121979488Y-99875054D01*
X121959703Y-99885286D01*
X121935691Y-99857863D01*
X121925917Y-99846505D01*
X121910626Y-99828055D01*
X121899480Y-99813784D01*
X121887280Y-99797129D01*
X121907842Y-99784421D01*
X121935317Y-99771594D01*
X121972705Y-99763486D01*
X122011616Y-99763265D01*
X122049005Y-99770593D01*
G37*
G36*
X123216346Y-100088582D02*
G01*
X123210019Y-100126055D01*
X123200937Y-100154669D01*
X123177952Y-100192762D01*
X123144511Y-100226331D01*
X123103831Y-100250832D01*
X123057744Y-100264858D01*
X123047955Y-100266265D01*
X123008030Y-100267441D01*
X122967786Y-100262546D01*
X122933142Y-100252182D01*
X122907385Y-100237797D01*
X122875608Y-100211539D01*
X122848630Y-100180013D01*
X122830189Y-100147035D01*
X122826326Y-100136799D01*
X122821857Y-100121735D01*
X122818882Y-100105039D01*
X122817102Y-100083993D01*
X122816216Y-100055881D01*
X122815924Y-100017986D01*
X122815927Y-100014860D01*
X122915745Y-100014860D01*
X122915952Y-100037778D01*
X122917744Y-100072510D01*
X122921992Y-100098462D01*
X122929436Y-100118017D01*
X122940813Y-100133558D01*
X122956864Y-100147466D01*
X122975824Y-100158316D01*
X123008867Y-100165735D01*
X123045407Y-100161881D01*
X123045645Y-100161820D01*
X123071325Y-100152895D01*
X123090516Y-100139919D01*
X123104038Y-100121248D01*
X123112710Y-100095237D01*
X123117352Y-100060243D01*
X123118783Y-100014622D01*
X123118607Y-99985170D01*
X123117570Y-99960809D01*
X123115222Y-99943081D01*
X123111129Y-99928870D01*
X123104854Y-99915059D01*
X123100791Y-99907788D01*
X123079656Y-99883670D01*
X123051357Y-99869473D01*
X123015229Y-99864823D01*
X123014513Y-99864825D01*
X122979830Y-99870568D01*
X122951112Y-99887289D01*
X122928586Y-99914856D01*
X122927985Y-99915891D01*
X122922655Y-99926874D01*
X122919112Y-99939566D01*
X122917011Y-99956662D01*
X122916004Y-99980861D01*
X122915745Y-100014860D01*
X122815927Y-100014860D01*
X122815939Y-100004509D01*
X122817012Y-99959476D01*
X122820176Y-99923867D01*
X122826068Y-99895289D01*
X122835324Y-99871350D01*
X122848579Y-99849655D01*
X122866471Y-99827813D01*
X122898808Y-99798796D01*
X122939034Y-99776438D01*
X122982285Y-99763922D01*
X123026743Y-99760968D01*
X123070586Y-99767294D01*
X123111998Y-99782621D01*
X123149157Y-99806667D01*
X123180246Y-99839152D01*
X123203445Y-99879796D01*
X123205595Y-99885404D01*
X123213498Y-99917000D01*
X123218494Y-99956460D01*
X123220614Y-100000440D01*
X123220386Y-100014622D01*
X123219888Y-100045596D01*
X123216346Y-100088582D01*
G37*
G36*
X124009114Y-100889442D02*
G01*
X124008103Y-100911143D01*
X124006385Y-100927095D01*
X124003777Y-100939291D01*
X124000093Y-100949724D01*
X123995149Y-100960388D01*
X123991195Y-100967791D01*
X123967698Y-100999005D01*
X123937343Y-101025135D01*
X123904205Y-101042505D01*
X123898798Y-101044243D01*
X123873846Y-101049683D01*
X123849022Y-101052122D01*
X123837513Y-101051651D01*
X123809922Y-101046859D01*
X123781695Y-101038148D01*
X123757205Y-101027019D01*
X123740829Y-101014975D01*
X123736352Y-101010290D01*
X123726225Y-101003470D01*
X123720726Y-101008086D01*
X123719068Y-101024483D01*
X123719068Y-101046364D01*
X123619043Y-101046364D01*
X123619043Y-100799428D01*
X123722195Y-100799428D01*
X123722196Y-100801233D01*
X123723024Y-100843573D01*
X123725879Y-100875550D01*
X123731463Y-100899164D01*
X123740481Y-100916413D01*
X123753637Y-100929296D01*
X123771635Y-100939811D01*
X123791996Y-100947832D01*
X123822773Y-100951449D01*
X123855549Y-100944097D01*
X123861719Y-100941566D01*
X123882569Y-100926740D01*
X123897700Y-100903685D01*
X123907397Y-100871552D01*
X123911944Y-100829486D01*
X123911628Y-100776638D01*
X123909138Y-100741000D01*
X123904555Y-100710902D01*
X123897972Y-100691312D01*
X123887224Y-100675578D01*
X123864335Y-100657411D01*
X123836788Y-100647724D01*
X123807338Y-100646486D01*
X123778741Y-100653665D01*
X123753751Y-100669231D01*
X123735125Y-100693152D01*
X123734206Y-100694958D01*
X123728997Y-100707206D01*
X123725524Y-100721052D01*
X123723453Y-100739222D01*
X123722454Y-100764439D01*
X123722195Y-100799428D01*
X123619043Y-100799428D01*
X123619043Y-100345665D01*
X123667492Y-100347491D01*
X123715942Y-100349317D01*
X123717637Y-100472785D01*
X123717732Y-100479201D01*
X123718580Y-100516317D01*
X123719807Y-100548464D01*
X123721305Y-100573758D01*
X123722967Y-100590315D01*
X123724686Y-100596253D01*
X123729460Y-100594273D01*
X123738620Y-100585881D01*
X123741474Y-100582796D01*
X123760595Y-100569342D01*
X123786867Y-100557674D01*
X123815917Y-100549443D01*
X123843373Y-100546302D01*
X123852717Y-100546433D01*
X123891895Y-100551481D01*
X123925270Y-100564925D01*
X123956812Y-100588230D01*
X123972726Y-100603443D01*
X123985296Y-100618465D01*
X123994678Y-100634877D01*
X124001329Y-100654528D01*
X124005705Y-100679270D01*
X124008265Y-100710955D01*
X124009466Y-100751432D01*
X124009764Y-100802554D01*
X124009756Y-100820820D01*
X124009722Y-100829486D01*
X124009604Y-100859999D01*
X124009114Y-100889442D01*
G37*
G36*
X123515034Y-99761672D02*
G01*
X123542052Y-99766969D01*
X123587806Y-99782908D01*
X123623404Y-99806083D01*
X123648811Y-99836461D01*
X123663994Y-99874007D01*
X123668918Y-99918686D01*
X123668589Y-99926215D01*
X123664491Y-99951819D01*
X123657240Y-99974225D01*
X123651293Y-99985849D01*
X123633563Y-100009793D01*
X123609917Y-100028253D01*
X123578764Y-100042022D01*
X123538509Y-100051892D01*
X123487561Y-100058656D01*
X123469634Y-100060527D01*
X123435289Y-100065525D01*
X123411082Y-100071940D01*
X123395351Y-100080542D01*
X123386435Y-100092105D01*
X123382673Y-100107399D01*
X123382821Y-100123094D01*
X123391321Y-100144300D01*
X123410313Y-100159297D01*
X123439985Y-100168206D01*
X123480522Y-100171148D01*
X123482223Y-100171144D01*
X123526636Y-100167304D01*
X123565468Y-100155264D01*
X123603541Y-100133552D01*
X123631662Y-100114204D01*
X123665908Y-100144239D01*
X123667980Y-100146063D01*
X123684281Y-100160995D01*
X123695828Y-100172578D01*
X123700234Y-100178437D01*
X123699980Y-100179685D01*
X123692841Y-100188242D01*
X123677832Y-100200355D01*
X123657578Y-100214200D01*
X123634705Y-100227956D01*
X123611836Y-100239800D01*
X123590866Y-100248572D01*
X123562345Y-100258252D01*
X123537773Y-100264356D01*
X123525179Y-100266276D01*
X123474867Y-100268589D01*
X123426437Y-100262800D01*
X123381848Y-100249634D01*
X123343057Y-100229812D01*
X123312021Y-100204060D01*
X123290698Y-100173098D01*
X123282237Y-100145604D01*
X123279599Y-100109819D01*
X123283934Y-100073406D01*
X123295076Y-100041383D01*
X123296275Y-100039092D01*
X123311337Y-100016241D01*
X123330404Y-99998351D01*
X123355162Y-99984699D01*
X123387295Y-99974565D01*
X123428489Y-99967225D01*
X123480428Y-99961958D01*
X123480530Y-99961950D01*
X123506059Y-99958876D01*
X123529007Y-99954231D01*
X123544415Y-99949017D01*
X123557646Y-99939077D01*
X123567031Y-99921409D01*
X123566530Y-99901678D01*
X123556407Y-99882755D01*
X123536926Y-99867511D01*
X123517901Y-99861058D01*
X123486701Y-99858109D01*
X123451712Y-99860912D01*
X123416846Y-99869083D01*
X123386016Y-99882241D01*
X123351313Y-99901826D01*
X123322638Y-99868261D01*
X123321762Y-99867233D01*
X123307730Y-99850032D01*
X123297776Y-99836483D01*
X123294006Y-99829442D01*
X123294502Y-99827712D01*
X123302643Y-99819151D01*
X123318678Y-99807807D01*
X123339883Y-99795462D01*
X123363536Y-99783902D01*
X123386332Y-99775958D01*
X123419363Y-99768275D01*
X123455007Y-99762866D01*
X123488489Y-99760432D01*
X123515034Y-99761672D01*
G37*
G36*
X122676908Y-99766113D02*
G01*
X122728199Y-99767924D01*
X122728167Y-99952344D01*
X122728165Y-99958771D01*
X122728114Y-100010487D01*
X122727920Y-100051436D01*
X122727477Y-100083183D01*
X122726682Y-100107292D01*
X122725431Y-100125328D01*
X122723617Y-100138855D01*
X122721138Y-100149436D01*
X122717889Y-100158638D01*
X122713765Y-100168022D01*
X122704605Y-100185573D01*
X122676353Y-100221845D01*
X122640198Y-100248638D01*
X122596917Y-100265307D01*
X122587313Y-100267289D01*
X122545678Y-100268291D01*
X122503252Y-100257917D01*
X122462301Y-100236650D01*
X122431251Y-100215754D01*
X122431251Y-100264921D01*
X122331226Y-100264921D01*
X122331226Y-99764798D01*
X122431251Y-99764798D01*
X122431251Y-99926014D01*
X122431256Y-99947468D01*
X122431356Y-99992131D01*
X122431679Y-100026655D01*
X122432351Y-100052721D01*
X122433496Y-100072008D01*
X122435241Y-100086197D01*
X122437709Y-100096969D01*
X122441026Y-100106003D01*
X122445317Y-100114980D01*
X122449968Y-100123387D01*
X122470686Y-100147627D01*
X122497805Y-100161554D01*
X122532485Y-100165845D01*
X122537369Y-100165738D01*
X122565247Y-100161097D01*
X122587879Y-100148186D01*
X122609033Y-100124994D01*
X122611169Y-100121993D01*
X122614555Y-100115882D01*
X122617186Y-100107918D01*
X122619181Y-100096580D01*
X122620658Y-100080346D01*
X122621737Y-100057694D01*
X122622537Y-100027104D01*
X122623174Y-99987054D01*
X122623770Y-99936023D01*
X122625616Y-99764302D01*
X122676908Y-99766113D01*
G37*
G36*
X123214161Y-100553764D02*
G01*
X123252541Y-100555618D01*
X123306073Y-100722724D01*
X123308243Y-100729491D01*
X123322064Y-100772207D01*
X123334670Y-100810542D01*
X123345551Y-100842989D01*
X123354195Y-100868040D01*
X123360092Y-100884185D01*
X123362730Y-100889917D01*
X123364299Y-100886573D01*
X123368835Y-100872741D01*
X123375742Y-100849694D01*
X123384544Y-100819062D01*
X123394767Y-100782475D01*
X123405935Y-100741565D01*
X123413697Y-100712819D01*
X123424638Y-100672316D01*
X123434418Y-100636124D01*
X123442514Y-100606182D01*
X123448400Y-100584430D01*
X123451552Y-100572810D01*
X123457091Y-100552492D01*
X123509935Y-100552492D01*
X123519474Y-100552550D01*
X123541613Y-100553203D01*
X123557008Y-100554426D01*
X123562779Y-100556029D01*
X123562748Y-100556205D01*
X123560472Y-100563929D01*
X123554944Y-100581824D01*
X123546652Y-100608349D01*
X123536086Y-100641962D01*
X123523735Y-100681123D01*
X123510087Y-100724290D01*
X123495631Y-100769923D01*
X123480857Y-100816480D01*
X123466253Y-100862421D01*
X123452308Y-100906204D01*
X123439512Y-100946289D01*
X123428352Y-100981135D01*
X123419319Y-101009200D01*
X123412901Y-101028944D01*
X123409587Y-101038825D01*
X123409417Y-101039237D01*
X123402905Y-101043492D01*
X123387421Y-101045366D01*
X123361274Y-101045076D01*
X123315877Y-101043238D01*
X123266357Y-100876291D01*
X123264537Y-100870166D01*
X123251663Y-100827454D01*
X123239845Y-100789276D01*
X123229569Y-100757128D01*
X123221321Y-100732504D01*
X123215588Y-100716899D01*
X123212855Y-100711806D01*
X123212726Y-100711938D01*
X123209634Y-100719492D01*
X123203564Y-100737325D01*
X123195008Y-100763880D01*
X123184463Y-100797601D01*
X123172420Y-100836932D01*
X123159375Y-100880315D01*
X123109876Y-101046364D01*
X123019728Y-101046364D01*
X122979176Y-100919770D01*
X122967145Y-100882180D01*
X122950415Y-100829832D01*
X122933160Y-100775767D01*
X122916827Y-100724526D01*
X122902867Y-100680649D01*
X122902752Y-100680288D01*
X122891362Y-100644513D01*
X122881164Y-100612618D01*
X122872806Y-100586612D01*
X122866932Y-100568505D01*
X122864190Y-100560306D01*
X122864443Y-100557595D01*
X122871278Y-100554595D01*
X122887403Y-100552977D01*
X122914407Y-100552492D01*
X122916737Y-100552495D01*
X122945858Y-100553390D01*
X122963500Y-100555953D01*
X122970537Y-100560306D01*
X122972478Y-100566707D01*
X122977336Y-100583867D01*
X122984566Y-100609913D01*
X122993700Y-100643149D01*
X123004270Y-100681880D01*
X123015808Y-100724409D01*
X123026133Y-100762260D01*
X123036930Y-100801124D01*
X123046419Y-100834524D01*
X123054121Y-100860806D01*
X123059559Y-100878314D01*
X123062256Y-100885395D01*
X123062566Y-100885400D01*
X123066187Y-100878638D01*
X123072952Y-100861696D01*
X123082342Y-100836018D01*
X123093842Y-100803047D01*
X123106934Y-100764228D01*
X123121103Y-100721002D01*
X123175781Y-100551911D01*
X123214161Y-100553764D01*
G37*
G36*
X124185162Y-99767800D02*
G01*
X124218466Y-99780183D01*
X124244345Y-99799339D01*
X124253651Y-99808500D01*
X124263149Y-99813696D01*
X124267904Y-99807629D01*
X124269203Y-99789804D01*
X124269203Y-99764798D01*
X124369228Y-99764798D01*
X124369228Y-100264921D01*
X124270110Y-100264921D01*
X124268094Y-100097693D01*
X124267639Y-100061193D01*
X124267001Y-100018886D01*
X124266245Y-99986355D01*
X124265232Y-99962000D01*
X124263821Y-99944222D01*
X124261873Y-99931420D01*
X124259248Y-99921994D01*
X124255807Y-99914343D01*
X124251408Y-99906869D01*
X124248596Y-99902537D01*
X124228343Y-99880786D01*
X124202559Y-99868614D01*
X124168891Y-99864823D01*
X124136499Y-99868765D01*
X124110129Y-99881841D01*
X124090319Y-99904742D01*
X124086962Y-99911182D01*
X124084067Y-99919755D01*
X124081791Y-99931551D01*
X124080011Y-99948116D01*
X124078606Y-99970997D01*
X124077451Y-100001741D01*
X124076425Y-100041895D01*
X124075405Y-100093004D01*
X124072280Y-100261796D01*
X124020213Y-100263619D01*
X123968147Y-100265443D01*
X123970201Y-100079199D01*
X123970230Y-100076587D01*
X123970854Y-100023735D01*
X123971503Y-99981759D01*
X123972296Y-99949104D01*
X123973349Y-99924211D01*
X123974782Y-99905524D01*
X123976711Y-99891486D01*
X123979255Y-99880541D01*
X123982530Y-99871130D01*
X123986656Y-99861697D01*
X124005194Y-99829025D01*
X124031145Y-99801184D01*
X124066028Y-99778819D01*
X124073898Y-99775112D01*
X124109558Y-99764882D01*
X124147753Y-99762572D01*
X124185162Y-99767800D01*
G37*
G36*
X122007331Y-100764044D02*
G01*
X122008412Y-100819588D01*
X122002479Y-100872463D01*
X121990012Y-100919828D01*
X121971494Y-100958842D01*
X121956636Y-100980242D01*
X121930727Y-101007475D01*
X121899432Y-101027912D01*
X121859235Y-101044229D01*
X121837192Y-101049181D01*
X121801098Y-101051604D01*
X121761906Y-101049480D01*
X121724380Y-101043135D01*
X121693284Y-101032895D01*
X121687193Y-101029955D01*
X121666075Y-101017974D01*
X121645587Y-101004124D01*
X121628302Y-100990394D01*
X121616791Y-100978774D01*
X121613626Y-100971256D01*
X121613699Y-100971097D01*
X121619529Y-100964625D01*
X121632223Y-100952762D01*
X121649172Y-100937952D01*
X121682920Y-100909278D01*
X121701163Y-100924629D01*
X121722700Y-100938108D01*
X121752946Y-100949553D01*
X121784689Y-100955929D01*
X121812433Y-100955702D01*
X121845551Y-100944814D01*
X121873754Y-100924784D01*
X121894044Y-100897845D01*
X121904277Y-100866091D01*
X121907768Y-100840063D01*
X121598223Y-100840063D01*
X121600949Y-100768836D01*
X121601147Y-100763763D01*
X121601719Y-100752541D01*
X121700133Y-100752541D01*
X121907768Y-100752541D01*
X121904277Y-100726513D01*
X121895081Y-100695679D01*
X121875720Y-100669012D01*
X121848121Y-100650467D01*
X121813917Y-100641577D01*
X121795192Y-100641240D01*
X121762592Y-100649018D01*
X121735900Y-100667292D01*
X121716057Y-100695287D01*
X121704005Y-100732224D01*
X121700133Y-100752541D01*
X121601719Y-100752541D01*
X121602720Y-100732901D01*
X121605051Y-100710369D01*
X121608895Y-100692495D01*
X121615006Y-100675609D01*
X121624140Y-100656040D01*
X121646066Y-100620225D01*
X121679135Y-100586336D01*
X121719076Y-100562766D01*
X121765448Y-100549762D01*
X121817808Y-100547572D01*
X121824076Y-100548027D01*
X121872579Y-100557742D01*
X121914299Y-100577773D01*
X121948883Y-100607736D01*
X121975977Y-100647243D01*
X121995229Y-100695909D01*
X122006129Y-100752541D01*
X122006285Y-100753349D01*
X122007331Y-100764044D01*
G37*
G36*
X124861203Y-100031975D02*
G01*
X124855932Y-100083625D01*
X124843793Y-100132000D01*
X124824756Y-100174730D01*
X124798791Y-100209443D01*
X124775627Y-100228949D01*
X124736548Y-100250874D01*
X124693484Y-100264715D01*
X124665693Y-100267811D01*
X124627059Y-100266766D01*
X124587420Y-100261114D01*
X124552299Y-100251376D01*
X124538327Y-100245062D01*
X124513128Y-100230007D01*
X124491143Y-100212966D01*
X124462651Y-100186777D01*
X124498512Y-100157185D01*
X124506670Y-100150494D01*
X124522416Y-100138362D01*
X124532562Y-100132842D01*
X124539879Y-100132788D01*
X124547136Y-100137052D01*
X124550204Y-100139275D01*
X124587821Y-100159592D01*
X124627693Y-100169834D01*
X124667191Y-100169639D01*
X124703686Y-100158645D01*
X124728884Y-100140031D01*
X124748138Y-100111670D01*
X124759468Y-100075812D01*
X124763641Y-100052369D01*
X124450498Y-100052369D01*
X124450545Y-100013297D01*
X124451040Y-99988930D01*
X124452854Y-99971099D01*
X124556774Y-99971099D01*
X124762762Y-99971099D01*
X124759094Y-99950781D01*
X124752204Y-99925361D01*
X124735984Y-99894597D01*
X124713701Y-99872720D01*
X124697629Y-99864794D01*
X124667501Y-99858741D01*
X124635586Y-99860494D01*
X124606844Y-99870170D01*
X124591805Y-99881653D01*
X124574333Y-99903635D01*
X124561661Y-99929179D01*
X124556774Y-99953328D01*
X124556774Y-99971099D01*
X124452854Y-99971099D01*
X124456486Y-99935407D01*
X124468400Y-99890594D01*
X124487352Y-99852759D01*
X124513910Y-99820165D01*
X124541283Y-99797489D01*
X124582213Y-99776044D01*
X124626552Y-99764312D01*
X124672093Y-99762332D01*
X124716628Y-99770143D01*
X124757948Y-99787782D01*
X124793848Y-99815288D01*
X124814202Y-99840073D01*
X124836106Y-99881101D01*
X124851260Y-99928342D01*
X124858271Y-99971099D01*
X124859636Y-99979424D01*
X124861203Y-100031975D01*
G37*
G36*
X124150188Y-100547965D02*
G01*
X124190323Y-100559909D01*
X124225490Y-100582115D01*
X124250448Y-100603479D01*
X124250448Y-100552492D01*
X124350473Y-100552492D01*
X124350473Y-101046364D01*
X124250448Y-101046364D01*
X124250448Y-100885148D01*
X124250443Y-100863833D01*
X124250343Y-100819135D01*
X124250020Y-100784579D01*
X124249349Y-100758483D01*
X124248203Y-100739165D01*
X124246459Y-100724943D01*
X124243991Y-100714136D01*
X124240674Y-100705062D01*
X124236382Y-100696039D01*
X124222404Y-100675807D01*
X124197789Y-100656808D01*
X124168661Y-100647030D01*
X124137927Y-100647323D01*
X124108490Y-100658539D01*
X124088436Y-100670766D01*
X124053789Y-100629025D01*
X124047301Y-100621116D01*
X124032896Y-100602800D01*
X124022890Y-100588956D01*
X124019141Y-100582103D01*
X124022363Y-100578371D01*
X124034279Y-100570697D01*
X124051962Y-100561643D01*
X124065396Y-100556084D01*
X124107680Y-100546588D01*
X124150188Y-100547965D01*
G37*
%LPC*%
D12*
X115565000Y-52837000D03*
D13*
X115565000Y-55377000D03*
X115565000Y-57917000D03*
X115565000Y-60457000D03*
X115565000Y-62997000D03*
X115565000Y-65537000D03*
X115565000Y-68077000D03*
X115565000Y-70617000D03*
X115565000Y-73157000D03*
X115565000Y-75697000D03*
X115565000Y-78237000D03*
X115565000Y-80777000D03*
X115565000Y-83317000D03*
X115565000Y-85857000D03*
X115565000Y-88397000D03*
X115565000Y-90937000D03*
X115565000Y-93477000D03*
X115565000Y-96017000D03*
X115565000Y-98557000D03*
X115565000Y-101097000D03*
X130805000Y-101097000D03*
X130805000Y-98557000D03*
X130805000Y-96017000D03*
X130805000Y-93477000D03*
X130805000Y-90937000D03*
X130805000Y-88397000D03*
X130805000Y-85857000D03*
X130805000Y-83317000D03*
X130805000Y-80777000D03*
X130805000Y-78237000D03*
X130805000Y-75697000D03*
X130805000Y-73157000D03*
X130805000Y-70617000D03*
X130805000Y-68077000D03*
X130805000Y-65537000D03*
X130805000Y-62997000D03*
X130805000Y-60457000D03*
X130805000Y-57917000D03*
X130805000Y-55377000D03*
X130805000Y-52837000D03*
D14*
X118110000Y-63500000D03*
D15*
X118110000Y-65278000D03*
X118110000Y-67056000D03*
X118110000Y-68834000D03*
X118110000Y-70612000D03*
X118110000Y-72390000D03*
X118110000Y-74168000D03*
X118110000Y-75946000D03*
X118110000Y-77724000D03*
X118110000Y-79502000D03*
X118110000Y-81280000D03*
X118110000Y-83058000D03*
X118110000Y-84836000D03*
X118110000Y-86614000D03*
X128270000Y-86614000D03*
X128270000Y-84836000D03*
X128270000Y-83058000D03*
X128270000Y-81280000D03*
X128270000Y-79502000D03*
X128270000Y-77724000D03*
X128270000Y-75946000D03*
X128270000Y-74168000D03*
X128270000Y-72390000D03*
X128270000Y-70612000D03*
X128270000Y-68834000D03*
X128270000Y-67056000D03*
X128270000Y-65278000D03*
X128270000Y-63500000D03*
M02*
