M48
; DRILL file {KiCad (6.0.0)} date Sun Jan 29 20:36:41 2023
; FORMAT={-:-/ absolute / metric / decimal}
; #@! TF.CreationDate,2023-01-29T20:36:41-05:00
; #@! TF.GenerationSoftware,Kicad,Pcbnew,(6.0.0)
; #@! TF.FileFunction,Plated,1,2,PTH
FMAT,2
METRIC
; #@! TA.AperFunction,Plated,PTH,ComponentDrill
T1C0.700
; #@! TA.AperFunction,Plated,PTH,ComponentDrill
T2C0.800
%
G90
G05
T1
X118.11Y-63.5
X118.11Y-65.278
X118.11Y-67.056
X118.11Y-68.834
X118.11Y-70.612
X118.11Y-72.39
X118.11Y-74.168
X118.11Y-75.946
X118.11Y-77.724
X118.11Y-79.502
X118.11Y-81.28
X118.11Y-83.058
X118.11Y-84.836
X118.11Y-86.614
X128.27Y-63.5
X128.27Y-65.278
X128.27Y-67.056
X128.27Y-68.834
X128.27Y-70.612
X128.27Y-72.39
X128.27Y-74.168
X128.27Y-75.946
X128.27Y-77.724
X128.27Y-79.502
X128.27Y-81.28
X128.27Y-83.058
X128.27Y-84.836
X128.27Y-86.614
T2
X115.565Y-52.837
X115.565Y-55.377
X115.565Y-57.917
X115.565Y-60.457
X115.565Y-62.997
X115.565Y-65.537
X115.565Y-68.077
X115.565Y-70.617
X115.565Y-73.157
X115.565Y-75.697
X115.565Y-78.237
X115.565Y-80.777
X115.565Y-83.317
X115.565Y-85.857
X115.565Y-88.397
X115.565Y-90.937
X115.565Y-93.477
X115.565Y-96.017
X115.565Y-98.557
X115.565Y-101.097
X130.805Y-52.837
X130.805Y-55.377
X130.805Y-57.917
X130.805Y-60.457
X130.805Y-62.997
X130.805Y-65.537
X130.805Y-68.077
X130.805Y-70.617
X130.805Y-73.157
X130.805Y-75.697
X130.805Y-78.237
X130.805Y-80.777
X130.805Y-83.317
X130.805Y-85.857
X130.805Y-88.397
X130.805Y-90.937
X130.805Y-93.477
X130.805Y-96.017
X130.805Y-98.557
X130.805Y-101.097
T0
M30
