M48
; DRILL file {KiCad (6.0.4)} date Fri Dec 30 23:34:50 2022
; FORMAT={-:-/ absolute / metric / decimal}
; #@! TF.CreationDate,2022-12-30T23:34:50-05:00
; #@! TF.GenerationSoftware,Kicad,Pcbnew,(6.0.4)
; #@! TF.FileFunction,Plated,1,2,PTH
FMAT,2
METRIC
; #@! TA.AperFunction,Plated,PTH,ComponentDrill
T1C0.700
; #@! TA.AperFunction,Plated,PTH,ComponentDrill
T2C0.800
%
G90
G05
T1
X118.872Y-60.071
X118.872Y-61.849
X118.872Y-63.627
X118.872Y-65.405
X118.872Y-67.183
X118.872Y-68.961
X118.872Y-70.739
X118.872Y-72.517
X118.872Y-74.295
X118.872Y-76.073
X118.872Y-77.851
X118.872Y-79.629
X118.872Y-81.407
X118.872Y-83.185
X118.872Y-84.963
X118.872Y-86.741
X118.872Y-88.519
X118.872Y-90.297
X118.872Y-92.075
X118.872Y-93.853
X134.112Y-60.071
X134.112Y-61.849
X134.112Y-63.627
X134.112Y-65.405
X134.112Y-67.183
X134.112Y-68.961
X134.112Y-70.739
X134.112Y-72.517
X134.112Y-74.295
X134.112Y-76.073
X134.112Y-77.851
X134.112Y-79.629
X134.112Y-81.407
X134.112Y-83.185
X134.112Y-84.963
X134.112Y-86.741
X134.112Y-88.519
X134.112Y-90.297
X134.112Y-92.075
X134.112Y-93.853
T2
X115.565Y-52.837
X115.565Y-55.377
X115.565Y-57.917
X115.565Y-60.457
X115.565Y-62.997
X115.565Y-65.537
X115.565Y-68.077
X115.565Y-70.617
X115.565Y-73.157
X115.565Y-75.697
X115.565Y-78.237
X115.565Y-80.777
X115.565Y-83.317
X115.565Y-85.857
X115.565Y-88.397
X115.565Y-90.937
X115.565Y-93.477
X115.565Y-96.017
X115.565Y-98.557
X115.565Y-101.097
X130.805Y-52.837
X130.805Y-55.377
X130.805Y-57.917
X130.805Y-60.457
X130.805Y-62.997
X130.805Y-65.537
X130.805Y-68.077
X130.805Y-70.617
X130.805Y-73.157
X130.805Y-75.697
X130.805Y-78.237
X130.805Y-80.777
X130.805Y-83.317
X130.805Y-85.857
X130.805Y-88.397
X130.805Y-90.937
X130.805Y-93.477
X130.805Y-96.017
X130.805Y-98.557
X130.805Y-101.097
T0
M30
