%FSLAX45Y45*%
G04 Gerber Fmt 4.5, Leading zero omitted, Abs format (unit mm)*
G04 Created by KiCad (PCBNEW (6.0.4)) date 2022-12-30 23:34:51*
%MOMM*%
%LPD*%
G01*
G04 APERTURE LIST*
%TA.AperFunction,Profile*%
%ADD10C,0.100000*%
%TD*%
%ADD11C,0.200000*%
%ADD12C,0.070000*%
%ADD13C,0.080000*%
G04 APERTURE END LIST*
D10*
X13563600Y-9525000D02*
X13563600Y-9652000D01*
X11430000Y-10287000D02*
X11430000Y-5105400D01*
X13563600Y-9880600D02*
X13182600Y-10287000D01*
X11430000Y-5105400D02*
X13208000Y-5105400D01*
X13182600Y-10287000D02*
X11430000Y-10287000D01*
X13563600Y-6019800D02*
X13563600Y-9525000D01*
X13563600Y-5740400D02*
X13563600Y-6019800D01*
X13563600Y-9652000D02*
X13563600Y-9880600D01*
X13208000Y-5105400D02*
X13563600Y-5740400D01*
D11*
D12*
X11852200Y-5972100D02*
X11922200Y-6042100D01*
X11922200Y-5972100D02*
X11852200Y-6042100D01*
X11852200Y-6149900D02*
X11922200Y-6219900D01*
X11922200Y-6149900D02*
X11852200Y-6219900D01*
X11852200Y-6327700D02*
X11922200Y-6397700D01*
X11922200Y-6327700D02*
X11852200Y-6397700D01*
X11852200Y-6505500D02*
X11922200Y-6575500D01*
X11922200Y-6505500D02*
X11852200Y-6575500D01*
X11852200Y-6683300D02*
X11922200Y-6753300D01*
X11922200Y-6683300D02*
X11852200Y-6753300D01*
X11852200Y-6861100D02*
X11922200Y-6931100D01*
X11922200Y-6861100D02*
X11852200Y-6931100D01*
X11852200Y-7038900D02*
X11922200Y-7108900D01*
X11922200Y-7038900D02*
X11852200Y-7108900D01*
X11852200Y-7216700D02*
X11922200Y-7286700D01*
X11922200Y-7216700D02*
X11852200Y-7286700D01*
X11852200Y-7394500D02*
X11922200Y-7464500D01*
X11922200Y-7394500D02*
X11852200Y-7464500D01*
X11852200Y-7572300D02*
X11922200Y-7642300D01*
X11922200Y-7572300D02*
X11852200Y-7642300D01*
X11852200Y-7750100D02*
X11922200Y-7820100D01*
X11922200Y-7750100D02*
X11852200Y-7820100D01*
X11852200Y-7927900D02*
X11922200Y-7997900D01*
X11922200Y-7927900D02*
X11852200Y-7997900D01*
X11852200Y-8105700D02*
X11922200Y-8175700D01*
X11922200Y-8105700D02*
X11852200Y-8175700D01*
X11852200Y-8283500D02*
X11922200Y-8353500D01*
X11922200Y-8283500D02*
X11852200Y-8353500D01*
X11852200Y-8461300D02*
X11922200Y-8531300D01*
X11922200Y-8461300D02*
X11852200Y-8531300D01*
X11852200Y-8639100D02*
X11922200Y-8709100D01*
X11922200Y-8639100D02*
X11852200Y-8709100D01*
X11852200Y-8816900D02*
X11922200Y-8886900D01*
X11922200Y-8816900D02*
X11852200Y-8886900D01*
X11852200Y-8994700D02*
X11922200Y-9064700D01*
X11922200Y-8994700D02*
X11852200Y-9064700D01*
X11852200Y-9172500D02*
X11922200Y-9242500D01*
X11922200Y-9172500D02*
X11852200Y-9242500D01*
X11852200Y-9350300D02*
X11922200Y-9420300D01*
X11922200Y-9350300D02*
X11852200Y-9420300D01*
X13376200Y-5972100D02*
X13446200Y-6042100D01*
X13446200Y-5972100D02*
X13376200Y-6042100D01*
X13376200Y-6149900D02*
X13446200Y-6219900D01*
X13446200Y-6149900D02*
X13376200Y-6219900D01*
X13376200Y-6327700D02*
X13446200Y-6397700D01*
X13446200Y-6327700D02*
X13376200Y-6397700D01*
X13376200Y-6505500D02*
X13446200Y-6575500D01*
X13446200Y-6505500D02*
X13376200Y-6575500D01*
X13376200Y-6683300D02*
X13446200Y-6753300D01*
X13446200Y-6683300D02*
X13376200Y-6753300D01*
X13376200Y-6861100D02*
X13446200Y-6931100D01*
X13446200Y-6861100D02*
X13376200Y-6931100D01*
X13376200Y-7038900D02*
X13446200Y-7108900D01*
X13446200Y-7038900D02*
X13376200Y-7108900D01*
X13376200Y-7216700D02*
X13446200Y-7286700D01*
X13446200Y-7216700D02*
X13376200Y-7286700D01*
X13376200Y-7394500D02*
X13446200Y-7464500D01*
X13446200Y-7394500D02*
X13376200Y-7464500D01*
X13376200Y-7572300D02*
X13446200Y-7642300D01*
X13446200Y-7572300D02*
X13376200Y-7642300D01*
X13376200Y-7750100D02*
X13446200Y-7820100D01*
X13446200Y-7750100D02*
X13376200Y-7820100D01*
X13376200Y-7927900D02*
X13446200Y-7997900D01*
X13446200Y-7927900D02*
X13376200Y-7997900D01*
X13376200Y-8105700D02*
X13446200Y-8175700D01*
X13446200Y-8105700D02*
X13376200Y-8175700D01*
X13376200Y-8283500D02*
X13446200Y-8353500D01*
X13446200Y-8283500D02*
X13376200Y-8353500D01*
X13376200Y-8461300D02*
X13446200Y-8531300D01*
X13446200Y-8461300D02*
X13376200Y-8531300D01*
X13376200Y-8639100D02*
X13446200Y-8709100D01*
X13446200Y-8639100D02*
X13376200Y-8709100D01*
X13376200Y-8816900D02*
X13446200Y-8886900D01*
X13446200Y-8816900D02*
X13376200Y-8886900D01*
X13376200Y-8994700D02*
X13446200Y-9064700D01*
X13446200Y-8994700D02*
X13376200Y-9064700D01*
X13376200Y-9172500D02*
X13446200Y-9242500D01*
X13446200Y-9172500D02*
X13376200Y-9242500D01*
X13376200Y-9350300D02*
X13446200Y-9420300D01*
X13446200Y-9350300D02*
X13376200Y-9420300D01*
D13*
X11596500Y-5283700D02*
G75*
G03*
X11596500Y-5283700I-40000J0D01*
G01*
X11596500Y-5537700D02*
G75*
G03*
X11596500Y-5537700I-40000J0D01*
G01*
X11596500Y-5791700D02*
G75*
G03*
X11596500Y-5791700I-40000J0D01*
G01*
X11596500Y-6045700D02*
G75*
G03*
X11596500Y-6045700I-40000J0D01*
G01*
X11596500Y-6299700D02*
G75*
G03*
X11596500Y-6299700I-40000J0D01*
G01*
X11596500Y-6553700D02*
G75*
G03*
X11596500Y-6553700I-40000J0D01*
G01*
X11596500Y-6807700D02*
G75*
G03*
X11596500Y-6807700I-40000J0D01*
G01*
X11596500Y-7061700D02*
G75*
G03*
X11596500Y-7061700I-40000J0D01*
G01*
X11596500Y-7315700D02*
G75*
G03*
X11596500Y-7315700I-40000J0D01*
G01*
X11596500Y-7569700D02*
G75*
G03*
X11596500Y-7569700I-40000J0D01*
G01*
X11596500Y-7823700D02*
G75*
G03*
X11596500Y-7823700I-40000J0D01*
G01*
X11596500Y-8077700D02*
G75*
G03*
X11596500Y-8077700I-40000J0D01*
G01*
X11596500Y-8331700D02*
G75*
G03*
X11596500Y-8331700I-40000J0D01*
G01*
X11596500Y-8585700D02*
G75*
G03*
X11596500Y-8585700I-40000J0D01*
G01*
X11596500Y-8839700D02*
G75*
G03*
X11596500Y-8839700I-40000J0D01*
G01*
X11596500Y-9093700D02*
G75*
G03*
X11596500Y-9093700I-40000J0D01*
G01*
X11596500Y-9347700D02*
G75*
G03*
X11596500Y-9347700I-40000J0D01*
G01*
X11596500Y-9601700D02*
G75*
G03*
X11596500Y-9601700I-40000J0D01*
G01*
X11596500Y-9855700D02*
G75*
G03*
X11596500Y-9855700I-40000J0D01*
G01*
X11596500Y-10109700D02*
G75*
G03*
X11596500Y-10109700I-40000J0D01*
G01*
X13120500Y-5283700D02*
G75*
G03*
X13120500Y-5283700I-40000J0D01*
G01*
X13120500Y-5537700D02*
G75*
G03*
X13120500Y-5537700I-40000J0D01*
G01*
X13120500Y-5791700D02*
G75*
G03*
X13120500Y-5791700I-40000J0D01*
G01*
X13120500Y-6045700D02*
G75*
G03*
X13120500Y-6045700I-40000J0D01*
G01*
X13120500Y-6299700D02*
G75*
G03*
X13120500Y-6299700I-40000J0D01*
G01*
X13120500Y-6553700D02*
G75*
G03*
X13120500Y-6553700I-40000J0D01*
G01*
X13120500Y-6807700D02*
G75*
G03*
X13120500Y-6807700I-40000J0D01*
G01*
X13120500Y-7061700D02*
G75*
G03*
X13120500Y-7061700I-40000J0D01*
G01*
X13120500Y-7315700D02*
G75*
G03*
X13120500Y-7315700I-40000J0D01*
G01*
X13120500Y-7569700D02*
G75*
G03*
X13120500Y-7569700I-40000J0D01*
G01*
X13120500Y-7823700D02*
G75*
G03*
X13120500Y-7823700I-40000J0D01*
G01*
X13120500Y-8077700D02*
G75*
G03*
X13120500Y-8077700I-40000J0D01*
G01*
X13120500Y-8331700D02*
G75*
G03*
X13120500Y-8331700I-40000J0D01*
G01*
X13120500Y-8585700D02*
G75*
G03*
X13120500Y-8585700I-40000J0D01*
G01*
X13120500Y-8839700D02*
G75*
G03*
X13120500Y-8839700I-40000J0D01*
G01*
X13120500Y-9093700D02*
G75*
G03*
X13120500Y-9093700I-40000J0D01*
G01*
X13120500Y-9347700D02*
G75*
G03*
X13120500Y-9347700I-40000J0D01*
G01*
X13120500Y-9601700D02*
G75*
G03*
X13120500Y-9601700I-40000J0D01*
G01*
X13120500Y-9855700D02*
G75*
G03*
X13120500Y-9855700I-40000J0D01*
G01*
X13120500Y-10109700D02*
G75*
G03*
X13120500Y-10109700I-40000J0D01*
G01*
D11*
X11682619Y-10602476D02*
X11682619Y-10402476D01*
X11730238Y-10402476D01*
X11758809Y-10412000D01*
X11777857Y-10431048D01*
X11787381Y-10450095D01*
X11796905Y-10488190D01*
X11796905Y-10516762D01*
X11787381Y-10554857D01*
X11777857Y-10573905D01*
X11758809Y-10592952D01*
X11730238Y-10602476D01*
X11682619Y-10602476D01*
X11882619Y-10602476D02*
X11882619Y-10469143D01*
X11882619Y-10507238D02*
X11892143Y-10488190D01*
X11901667Y-10478667D01*
X11920714Y-10469143D01*
X11939762Y-10469143D01*
X12006428Y-10602476D02*
X12006428Y-10469143D01*
X12006428Y-10402476D02*
X11996905Y-10412000D01*
X12006428Y-10421524D01*
X12015952Y-10412000D01*
X12006428Y-10402476D01*
X12006428Y-10421524D01*
X12130238Y-10602476D02*
X12111190Y-10592952D01*
X12101667Y-10573905D01*
X12101667Y-10402476D01*
X12235000Y-10602476D02*
X12215952Y-10592952D01*
X12206428Y-10573905D01*
X12206428Y-10402476D01*
X12463571Y-10602476D02*
X12463571Y-10402476D01*
X12530238Y-10545333D01*
X12596905Y-10402476D01*
X12596905Y-10602476D01*
X12777857Y-10602476D02*
X12777857Y-10497714D01*
X12768333Y-10478667D01*
X12749286Y-10469143D01*
X12711190Y-10469143D01*
X12692143Y-10478667D01*
X12777857Y-10592952D02*
X12758809Y-10602476D01*
X12711190Y-10602476D01*
X12692143Y-10592952D01*
X12682619Y-10573905D01*
X12682619Y-10554857D01*
X12692143Y-10535810D01*
X12711190Y-10526286D01*
X12758809Y-10526286D01*
X12777857Y-10516762D01*
X12873095Y-10469143D02*
X12873095Y-10669143D01*
X12873095Y-10478667D02*
X12892143Y-10469143D01*
X12930238Y-10469143D01*
X12949286Y-10478667D01*
X12958809Y-10488190D01*
X12968333Y-10507238D01*
X12968333Y-10564381D01*
X12958809Y-10583429D01*
X12949286Y-10592952D01*
X12930238Y-10602476D01*
X12892143Y-10602476D01*
X12873095Y-10592952D01*
X13054048Y-10583429D02*
X13063571Y-10592952D01*
X13054048Y-10602476D01*
X13044524Y-10592952D01*
X13054048Y-10583429D01*
X13054048Y-10602476D01*
X13054048Y-10478667D02*
X13063571Y-10488190D01*
X13054048Y-10497714D01*
X13044524Y-10488190D01*
X13054048Y-10478667D01*
X13054048Y-10497714D01*
D12*
X11355000Y-10897000D02*
X11425000Y-10967000D01*
X11425000Y-10897000D02*
X11355000Y-10967000D01*
D11*
X11720714Y-10822476D02*
X11739762Y-10822476D01*
X11758809Y-10832000D01*
X11768333Y-10841524D01*
X11777857Y-10860571D01*
X11787381Y-10898667D01*
X11787381Y-10946286D01*
X11777857Y-10984381D01*
X11768333Y-11003429D01*
X11758809Y-11012952D01*
X11739762Y-11022476D01*
X11720714Y-11022476D01*
X11701667Y-11012952D01*
X11692143Y-11003429D01*
X11682619Y-10984381D01*
X11673095Y-10946286D01*
X11673095Y-10898667D01*
X11682619Y-10860571D01*
X11692143Y-10841524D01*
X11701667Y-10832000D01*
X11720714Y-10822476D01*
X11873095Y-11003429D02*
X11882619Y-11012952D01*
X11873095Y-11022476D01*
X11863571Y-11012952D01*
X11873095Y-11003429D01*
X11873095Y-11022476D01*
X11949286Y-10822476D02*
X12082619Y-10822476D01*
X11996905Y-11022476D01*
X12196905Y-10822476D02*
X12215952Y-10822476D01*
X12235000Y-10832000D01*
X12244524Y-10841524D01*
X12254048Y-10860571D01*
X12263571Y-10898667D01*
X12263571Y-10946286D01*
X12254048Y-10984381D01*
X12244524Y-11003429D01*
X12235000Y-11012952D01*
X12215952Y-11022476D01*
X12196905Y-11022476D01*
X12177857Y-11012952D01*
X12168333Y-11003429D01*
X12158809Y-10984381D01*
X12149286Y-10946286D01*
X12149286Y-10898667D01*
X12158809Y-10860571D01*
X12168333Y-10841524D01*
X12177857Y-10832000D01*
X12196905Y-10822476D01*
X12387381Y-10822476D02*
X12406428Y-10822476D01*
X12425476Y-10832000D01*
X12435000Y-10841524D01*
X12444524Y-10860571D01*
X12454048Y-10898667D01*
X12454048Y-10946286D01*
X12444524Y-10984381D01*
X12435000Y-11003429D01*
X12425476Y-11012952D01*
X12406428Y-11022476D01*
X12387381Y-11022476D01*
X12368333Y-11012952D01*
X12358809Y-11003429D01*
X12349286Y-10984381D01*
X12339762Y-10946286D01*
X12339762Y-10898667D01*
X12349286Y-10860571D01*
X12358809Y-10841524D01*
X12368333Y-10832000D01*
X12387381Y-10822476D01*
X12539762Y-11022476D02*
X12539762Y-10889143D01*
X12539762Y-10908190D02*
X12549286Y-10898667D01*
X12568333Y-10889143D01*
X12596905Y-10889143D01*
X12615952Y-10898667D01*
X12625476Y-10917714D01*
X12625476Y-11022476D01*
X12625476Y-10917714D02*
X12635000Y-10898667D01*
X12654048Y-10889143D01*
X12682619Y-10889143D01*
X12701667Y-10898667D01*
X12711190Y-10917714D01*
X12711190Y-11022476D01*
X12806428Y-11022476D02*
X12806428Y-10889143D01*
X12806428Y-10908190D02*
X12815952Y-10898667D01*
X12835000Y-10889143D01*
X12863571Y-10889143D01*
X12882619Y-10898667D01*
X12892143Y-10917714D01*
X12892143Y-11022476D01*
X12892143Y-10917714D02*
X12901667Y-10898667D01*
X12920714Y-10889143D01*
X12949286Y-10889143D01*
X12968333Y-10898667D01*
X12977857Y-10917714D01*
X12977857Y-11022476D01*
X13368333Y-10812952D02*
X13196905Y-11070095D01*
X13625476Y-10822476D02*
X13644524Y-10822476D01*
X13663571Y-10832000D01*
X13673095Y-10841524D01*
X13682619Y-10860571D01*
X13692143Y-10898667D01*
X13692143Y-10946286D01*
X13682619Y-10984381D01*
X13673095Y-11003429D01*
X13663571Y-11012952D01*
X13644524Y-11022476D01*
X13625476Y-11022476D01*
X13606428Y-11012952D01*
X13596905Y-11003429D01*
X13587381Y-10984381D01*
X13577857Y-10946286D01*
X13577857Y-10898667D01*
X13587381Y-10860571D01*
X13596905Y-10841524D01*
X13606428Y-10832000D01*
X13625476Y-10822476D01*
X13777857Y-11003429D02*
X13787381Y-11012952D01*
X13777857Y-11022476D01*
X13768333Y-11012952D01*
X13777857Y-11003429D01*
X13777857Y-11022476D01*
X13911190Y-10822476D02*
X13930238Y-10822476D01*
X13949286Y-10832000D01*
X13958809Y-10841524D01*
X13968333Y-10860571D01*
X13977857Y-10898667D01*
X13977857Y-10946286D01*
X13968333Y-10984381D01*
X13958809Y-11003429D01*
X13949286Y-11012952D01*
X13930238Y-11022476D01*
X13911190Y-11022476D01*
X13892143Y-11012952D01*
X13882619Y-11003429D01*
X13873095Y-10984381D01*
X13863571Y-10946286D01*
X13863571Y-10898667D01*
X13873095Y-10860571D01*
X13882619Y-10841524D01*
X13892143Y-10832000D01*
X13911190Y-10822476D01*
X14054048Y-10841524D02*
X14063571Y-10832000D01*
X14082619Y-10822476D01*
X14130238Y-10822476D01*
X14149286Y-10832000D01*
X14158809Y-10841524D01*
X14168333Y-10860571D01*
X14168333Y-10879619D01*
X14158809Y-10908190D01*
X14044524Y-11022476D01*
X14168333Y-11022476D01*
X14235000Y-10822476D02*
X14368333Y-10822476D01*
X14282619Y-11022476D01*
X14530238Y-10822476D02*
X14492143Y-10822476D01*
X14473095Y-10832000D01*
X14463571Y-10841524D01*
X14444524Y-10870095D01*
X14435000Y-10908190D01*
X14435000Y-10984381D01*
X14444524Y-11003429D01*
X14454048Y-11012952D01*
X14473095Y-11022476D01*
X14511190Y-11022476D01*
X14530238Y-11012952D01*
X14539762Y-11003429D01*
X14549286Y-10984381D01*
X14549286Y-10936762D01*
X14539762Y-10917714D01*
X14530238Y-10908190D01*
X14511190Y-10898667D01*
X14473095Y-10898667D01*
X14454048Y-10908190D01*
X14444524Y-10917714D01*
X14435000Y-10936762D01*
X14625476Y-10822476D02*
X14625476Y-10860571D01*
X14701667Y-10822476D02*
X14701667Y-10860571D01*
X14996905Y-11098667D02*
X14987381Y-11089143D01*
X14968333Y-11060571D01*
X14958809Y-11041524D01*
X14949286Y-11012952D01*
X14939762Y-10965333D01*
X14939762Y-10927238D01*
X14949286Y-10879619D01*
X14958809Y-10851048D01*
X14968333Y-10832000D01*
X14987381Y-10803429D01*
X14996905Y-10793905D01*
X15158809Y-10889143D02*
X15158809Y-11022476D01*
X15111190Y-10812952D02*
X15063571Y-10955810D01*
X15187381Y-10955810D01*
X15301667Y-10822476D02*
X15320714Y-10822476D01*
X15339762Y-10832000D01*
X15349286Y-10841524D01*
X15358809Y-10860571D01*
X15368333Y-10898667D01*
X15368333Y-10946286D01*
X15358809Y-10984381D01*
X15349286Y-11003429D01*
X15339762Y-11012952D01*
X15320714Y-11022476D01*
X15301667Y-11022476D01*
X15282619Y-11012952D01*
X15273095Y-11003429D01*
X15263571Y-10984381D01*
X15254048Y-10946286D01*
X15254048Y-10898667D01*
X15263571Y-10860571D01*
X15273095Y-10841524D01*
X15282619Y-10832000D01*
X15301667Y-10822476D01*
X15606428Y-11022476D02*
X15606428Y-10822476D01*
X15692143Y-11022476D02*
X15692143Y-10917714D01*
X15682619Y-10898667D01*
X15663571Y-10889143D01*
X15635000Y-10889143D01*
X15615952Y-10898667D01*
X15606428Y-10908190D01*
X15815952Y-11022476D02*
X15796905Y-11012952D01*
X15787381Y-11003429D01*
X15777857Y-10984381D01*
X15777857Y-10927238D01*
X15787381Y-10908190D01*
X15796905Y-10898667D01*
X15815952Y-10889143D01*
X15844524Y-10889143D01*
X15863571Y-10898667D01*
X15873095Y-10908190D01*
X15882619Y-10927238D01*
X15882619Y-10984381D01*
X15873095Y-11003429D01*
X15863571Y-11012952D01*
X15844524Y-11022476D01*
X15815952Y-11022476D01*
X15996905Y-11022476D02*
X15977857Y-11012952D01*
X15968333Y-10993905D01*
X15968333Y-10822476D01*
X16149286Y-11012952D02*
X16130238Y-11022476D01*
X16092143Y-11022476D01*
X16073095Y-11012952D01*
X16063571Y-10993905D01*
X16063571Y-10917714D01*
X16073095Y-10898667D01*
X16092143Y-10889143D01*
X16130238Y-10889143D01*
X16149286Y-10898667D01*
X16158809Y-10917714D01*
X16158809Y-10936762D01*
X16063571Y-10955810D01*
X16235000Y-11012952D02*
X16254048Y-11022476D01*
X16292143Y-11022476D01*
X16311190Y-11012952D01*
X16320714Y-10993905D01*
X16320714Y-10984381D01*
X16311190Y-10965333D01*
X16292143Y-10955810D01*
X16263571Y-10955810D01*
X16244524Y-10946286D01*
X16235000Y-10927238D01*
X16235000Y-10917714D01*
X16244524Y-10898667D01*
X16263571Y-10889143D01*
X16292143Y-10889143D01*
X16311190Y-10898667D01*
X16387381Y-11098667D02*
X16396905Y-11089143D01*
X16415952Y-11060571D01*
X16425476Y-11041524D01*
X16435000Y-11012952D01*
X16444524Y-10965333D01*
X16444524Y-10927238D01*
X16435000Y-10879619D01*
X16425476Y-10851048D01*
X16415952Y-10832000D01*
X16396905Y-10803429D01*
X16387381Y-10793905D01*
D13*
X11425000Y-11196000D02*
G75*
G03*
X11425000Y-11196000I-40000J0D01*
G01*
D11*
X11720714Y-11086476D02*
X11739762Y-11086476D01*
X11758809Y-11096000D01*
X11768333Y-11105524D01*
X11777857Y-11124571D01*
X11787381Y-11162667D01*
X11787381Y-11210286D01*
X11777857Y-11248381D01*
X11768333Y-11267428D01*
X11758809Y-11276952D01*
X11739762Y-11286476D01*
X11720714Y-11286476D01*
X11701667Y-11276952D01*
X11692143Y-11267428D01*
X11682619Y-11248381D01*
X11673095Y-11210286D01*
X11673095Y-11162667D01*
X11682619Y-11124571D01*
X11692143Y-11105524D01*
X11701667Y-11096000D01*
X11720714Y-11086476D01*
X11873095Y-11267428D02*
X11882619Y-11276952D01*
X11873095Y-11286476D01*
X11863571Y-11276952D01*
X11873095Y-11267428D01*
X11873095Y-11286476D01*
X11996905Y-11172190D02*
X11977857Y-11162667D01*
X11968333Y-11153143D01*
X11958809Y-11134095D01*
X11958809Y-11124571D01*
X11968333Y-11105524D01*
X11977857Y-11096000D01*
X11996905Y-11086476D01*
X12035000Y-11086476D01*
X12054048Y-11096000D01*
X12063571Y-11105524D01*
X12073095Y-11124571D01*
X12073095Y-11134095D01*
X12063571Y-11153143D01*
X12054048Y-11162667D01*
X12035000Y-11172190D01*
X11996905Y-11172190D01*
X11977857Y-11181714D01*
X11968333Y-11191238D01*
X11958809Y-11210286D01*
X11958809Y-11248381D01*
X11968333Y-11267428D01*
X11977857Y-11276952D01*
X11996905Y-11286476D01*
X12035000Y-11286476D01*
X12054048Y-11276952D01*
X12063571Y-11267428D01*
X12073095Y-11248381D01*
X12073095Y-11210286D01*
X12063571Y-11191238D01*
X12054048Y-11181714D01*
X12035000Y-11172190D01*
X12196905Y-11086476D02*
X12215952Y-11086476D01*
X12235000Y-11096000D01*
X12244524Y-11105524D01*
X12254048Y-11124571D01*
X12263571Y-11162667D01*
X12263571Y-11210286D01*
X12254048Y-11248381D01*
X12244524Y-11267428D01*
X12235000Y-11276952D01*
X12215952Y-11286476D01*
X12196905Y-11286476D01*
X12177857Y-11276952D01*
X12168333Y-11267428D01*
X12158809Y-11248381D01*
X12149286Y-11210286D01*
X12149286Y-11162667D01*
X12158809Y-11124571D01*
X12168333Y-11105524D01*
X12177857Y-11096000D01*
X12196905Y-11086476D01*
X12387381Y-11086476D02*
X12406428Y-11086476D01*
X12425476Y-11096000D01*
X12435000Y-11105524D01*
X12444524Y-11124571D01*
X12454048Y-11162667D01*
X12454048Y-11210286D01*
X12444524Y-11248381D01*
X12435000Y-11267428D01*
X12425476Y-11276952D01*
X12406428Y-11286476D01*
X12387381Y-11286476D01*
X12368333Y-11276952D01*
X12358809Y-11267428D01*
X12349286Y-11248381D01*
X12339762Y-11210286D01*
X12339762Y-11162667D01*
X12349286Y-11124571D01*
X12358809Y-11105524D01*
X12368333Y-11096000D01*
X12387381Y-11086476D01*
X12539762Y-11286476D02*
X12539762Y-11153143D01*
X12539762Y-11172190D02*
X12549286Y-11162667D01*
X12568333Y-11153143D01*
X12596905Y-11153143D01*
X12615952Y-11162667D01*
X12625476Y-11181714D01*
X12625476Y-11286476D01*
X12625476Y-11181714D02*
X12635000Y-11162667D01*
X12654048Y-11153143D01*
X12682619Y-11153143D01*
X12701667Y-11162667D01*
X12711190Y-11181714D01*
X12711190Y-11286476D01*
X12806428Y-11286476D02*
X12806428Y-11153143D01*
X12806428Y-11172190D02*
X12815952Y-11162667D01*
X12835000Y-11153143D01*
X12863571Y-11153143D01*
X12882619Y-11162667D01*
X12892143Y-11181714D01*
X12892143Y-11286476D01*
X12892143Y-11181714D02*
X12901667Y-11162667D01*
X12920714Y-11153143D01*
X12949286Y-11153143D01*
X12968333Y-11162667D01*
X12977857Y-11181714D01*
X12977857Y-11286476D01*
X13368333Y-11076952D02*
X13196905Y-11334095D01*
X13625476Y-11086476D02*
X13644524Y-11086476D01*
X13663571Y-11096000D01*
X13673095Y-11105524D01*
X13682619Y-11124571D01*
X13692143Y-11162667D01*
X13692143Y-11210286D01*
X13682619Y-11248381D01*
X13673095Y-11267428D01*
X13663571Y-11276952D01*
X13644524Y-11286476D01*
X13625476Y-11286476D01*
X13606428Y-11276952D01*
X13596905Y-11267428D01*
X13587381Y-11248381D01*
X13577857Y-11210286D01*
X13577857Y-11162667D01*
X13587381Y-11124571D01*
X13596905Y-11105524D01*
X13606428Y-11096000D01*
X13625476Y-11086476D01*
X13777857Y-11267428D02*
X13787381Y-11276952D01*
X13777857Y-11286476D01*
X13768333Y-11276952D01*
X13777857Y-11267428D01*
X13777857Y-11286476D01*
X13911190Y-11086476D02*
X13930238Y-11086476D01*
X13949286Y-11096000D01*
X13958809Y-11105524D01*
X13968333Y-11124571D01*
X13977857Y-11162667D01*
X13977857Y-11210286D01*
X13968333Y-11248381D01*
X13958809Y-11267428D01*
X13949286Y-11276952D01*
X13930238Y-11286476D01*
X13911190Y-11286476D01*
X13892143Y-11276952D01*
X13882619Y-11267428D01*
X13873095Y-11248381D01*
X13863571Y-11210286D01*
X13863571Y-11162667D01*
X13873095Y-11124571D01*
X13882619Y-11105524D01*
X13892143Y-11096000D01*
X13911190Y-11086476D01*
X14044524Y-11086476D02*
X14168333Y-11086476D01*
X14101667Y-11162667D01*
X14130238Y-11162667D01*
X14149286Y-11172190D01*
X14158809Y-11181714D01*
X14168333Y-11200762D01*
X14168333Y-11248381D01*
X14158809Y-11267428D01*
X14149286Y-11276952D01*
X14130238Y-11286476D01*
X14073095Y-11286476D01*
X14054048Y-11276952D01*
X14044524Y-11267428D01*
X14358809Y-11286476D02*
X14244524Y-11286476D01*
X14301667Y-11286476D02*
X14301667Y-11086476D01*
X14282619Y-11115048D01*
X14263571Y-11134095D01*
X14244524Y-11143619D01*
X14539762Y-11086476D02*
X14444524Y-11086476D01*
X14435000Y-11181714D01*
X14444524Y-11172190D01*
X14463571Y-11162667D01*
X14511190Y-11162667D01*
X14530238Y-11172190D01*
X14539762Y-11181714D01*
X14549286Y-11200762D01*
X14549286Y-11248381D01*
X14539762Y-11267428D01*
X14530238Y-11276952D01*
X14511190Y-11286476D01*
X14463571Y-11286476D01*
X14444524Y-11276952D01*
X14435000Y-11267428D01*
X14625476Y-11086476D02*
X14625476Y-11124571D01*
X14701667Y-11086476D02*
X14701667Y-11124571D01*
X14996905Y-11362667D02*
X14987381Y-11353143D01*
X14968333Y-11324571D01*
X14958809Y-11305524D01*
X14949286Y-11276952D01*
X14939762Y-11229333D01*
X14939762Y-11191238D01*
X14949286Y-11143619D01*
X14958809Y-11115048D01*
X14968333Y-11096000D01*
X14987381Y-11067429D01*
X14996905Y-11057905D01*
X15158809Y-11153143D02*
X15158809Y-11286476D01*
X15111190Y-11076952D02*
X15063571Y-11219809D01*
X15187381Y-11219809D01*
X15301667Y-11086476D02*
X15320714Y-11086476D01*
X15339762Y-11096000D01*
X15349286Y-11105524D01*
X15358809Y-11124571D01*
X15368333Y-11162667D01*
X15368333Y-11210286D01*
X15358809Y-11248381D01*
X15349286Y-11267428D01*
X15339762Y-11276952D01*
X15320714Y-11286476D01*
X15301667Y-11286476D01*
X15282619Y-11276952D01*
X15273095Y-11267428D01*
X15263571Y-11248381D01*
X15254048Y-11210286D01*
X15254048Y-11162667D01*
X15263571Y-11124571D01*
X15273095Y-11105524D01*
X15282619Y-11096000D01*
X15301667Y-11086476D01*
X15606428Y-11286476D02*
X15606428Y-11086476D01*
X15692143Y-11286476D02*
X15692143Y-11181714D01*
X15682619Y-11162667D01*
X15663571Y-11153143D01*
X15635000Y-11153143D01*
X15615952Y-11162667D01*
X15606428Y-11172190D01*
X15815952Y-11286476D02*
X15796905Y-11276952D01*
X15787381Y-11267428D01*
X15777857Y-11248381D01*
X15777857Y-11191238D01*
X15787381Y-11172190D01*
X15796905Y-11162667D01*
X15815952Y-11153143D01*
X15844524Y-11153143D01*
X15863571Y-11162667D01*
X15873095Y-11172190D01*
X15882619Y-11191238D01*
X15882619Y-11248381D01*
X15873095Y-11267428D01*
X15863571Y-11276952D01*
X15844524Y-11286476D01*
X15815952Y-11286476D01*
X15996905Y-11286476D02*
X15977857Y-11276952D01*
X15968333Y-11257905D01*
X15968333Y-11086476D01*
X16149286Y-11276952D02*
X16130238Y-11286476D01*
X16092143Y-11286476D01*
X16073095Y-11276952D01*
X16063571Y-11257905D01*
X16063571Y-11181714D01*
X16073095Y-11162667D01*
X16092143Y-11153143D01*
X16130238Y-11153143D01*
X16149286Y-11162667D01*
X16158809Y-11181714D01*
X16158809Y-11200762D01*
X16063571Y-11219809D01*
X16235000Y-11276952D02*
X16254048Y-11286476D01*
X16292143Y-11286476D01*
X16311190Y-11276952D01*
X16320714Y-11257905D01*
X16320714Y-11248381D01*
X16311190Y-11229333D01*
X16292143Y-11219809D01*
X16263571Y-11219809D01*
X16244524Y-11210286D01*
X16235000Y-11191238D01*
X16235000Y-11181714D01*
X16244524Y-11162667D01*
X16263571Y-11153143D01*
X16292143Y-11153143D01*
X16311190Y-11162667D01*
X16387381Y-11362667D02*
X16396905Y-11353143D01*
X16415952Y-11324571D01*
X16425476Y-11305524D01*
X16435000Y-11276952D01*
X16444524Y-11229333D01*
X16444524Y-11191238D01*
X16435000Y-11143619D01*
X16425476Y-11115048D01*
X16415952Y-11096000D01*
X16396905Y-11067429D01*
X16387381Y-11057905D01*
M02*
