%FSLAX45Y45*%
G04 Gerber Fmt 4.5, Leading zero omitted, Abs format (unit mm)*
G04 Created by KiCad (PCBNEW (6.0.0)) date 2023-01-29 20:41:41*
%MOMM*%
%LPD*%
G01*
G04 APERTURE LIST*
%TA.AperFunction,Profile*%
%ADD10C,0.100000*%
%TD*%
%ADD11C,0.200000*%
%ADD12C,0.080000*%
G04 APERTURE END LIST*
D10*
X11722100Y-9855200D02*
X13817600Y-9855200D01*
X11722100Y-4648200D02*
X11722100Y-8140700D01*
X13817600Y-9855200D02*
X13817600Y-4648200D01*
X13817600Y-4648200D02*
X11722100Y-4648200D01*
X11722100Y-8140700D02*
X11722100Y-9855200D01*
D11*
D12*
X11845100Y-6449700D02*
X11925100Y-6529700D01*
X11925100Y-6449700D02*
X11845100Y-6529700D01*
X11845100Y-6703700D02*
X11925100Y-6783700D01*
X11925100Y-6703700D02*
X11845100Y-6783700D01*
X11845100Y-6957700D02*
X11925100Y-7037700D01*
X11925100Y-6957700D02*
X11845100Y-7037700D01*
X11845100Y-7211700D02*
X11925100Y-7291700D01*
X11925100Y-7211700D02*
X11845100Y-7291700D01*
X11845100Y-7465700D02*
X11925100Y-7545700D01*
X11925100Y-7465700D02*
X11845100Y-7545700D01*
X11845100Y-7719700D02*
X11925100Y-7799700D01*
X11925100Y-7719700D02*
X11845100Y-7799700D01*
X11971600Y-4813150D02*
X12051600Y-4893150D01*
X12051600Y-4813150D02*
X11971600Y-4893150D01*
X11971600Y-5067150D02*
X12051600Y-5147150D01*
X12051600Y-5067150D02*
X11971600Y-5147150D01*
X11971600Y-5321150D02*
X12051600Y-5401150D01*
X12051600Y-5321150D02*
X11971600Y-5401150D01*
X11971600Y-5575150D02*
X12051600Y-5655150D01*
X12051600Y-5575150D02*
X11971600Y-5655150D01*
X11971600Y-5829150D02*
X12051600Y-5909150D01*
X12051600Y-5829150D02*
X11971600Y-5909150D01*
X11971600Y-6083150D02*
X12051600Y-6163150D01*
X12051600Y-6083150D02*
X11971600Y-6163150D01*
X11971600Y-6337150D02*
X12051600Y-6417150D01*
X12051600Y-6337150D02*
X11971600Y-6417150D01*
X11971600Y-6591150D02*
X12051600Y-6671150D01*
X12051600Y-6591150D02*
X11971600Y-6671150D01*
X11971600Y-6845150D02*
X12051600Y-6925150D01*
X12051600Y-6845150D02*
X11971600Y-6925150D01*
X11971600Y-7099150D02*
X12051600Y-7179150D01*
X12051600Y-7099150D02*
X11971600Y-7179150D01*
X11971600Y-7353150D02*
X12051600Y-7433150D01*
X12051600Y-7353150D02*
X11971600Y-7433150D01*
X11971600Y-7607150D02*
X12051600Y-7687150D01*
X12051600Y-7607150D02*
X11971600Y-7687150D01*
X11971600Y-7861150D02*
X12051600Y-7941150D01*
X12051600Y-7861150D02*
X11971600Y-7941150D01*
X11971600Y-8115150D02*
X12051600Y-8195150D01*
X12051600Y-8115150D02*
X11971600Y-8195150D01*
X11971600Y-8369150D02*
X12051600Y-8449150D01*
X12051600Y-8369150D02*
X11971600Y-8449150D01*
X11971600Y-8623150D02*
X12051600Y-8703150D01*
X12051600Y-8623150D02*
X11971600Y-8703150D01*
X11971600Y-8877150D02*
X12051600Y-8957150D01*
X12051600Y-8877150D02*
X11971600Y-8957150D01*
X11971600Y-9131150D02*
X12051600Y-9211150D01*
X12051600Y-9131150D02*
X11971600Y-9211150D01*
X11971600Y-9385150D02*
X12051600Y-9465150D01*
X12051600Y-9385150D02*
X11971600Y-9465150D01*
X11971600Y-9639150D02*
X12051600Y-9719150D01*
X12051600Y-9639150D02*
X11971600Y-9719150D01*
X12099100Y-6195700D02*
X12179100Y-6275700D01*
X12179100Y-6195700D02*
X12099100Y-6275700D01*
X12099100Y-6449700D02*
X12179100Y-6529700D01*
X12179100Y-6449700D02*
X12099100Y-6529700D01*
X12099100Y-6703700D02*
X12179100Y-6783700D01*
X12179100Y-6703700D02*
X12099100Y-6783700D01*
X12099100Y-6957700D02*
X12179100Y-7037700D01*
X12179100Y-6957700D02*
X12099100Y-7037700D01*
X12099100Y-7211700D02*
X12179100Y-7291700D01*
X12179100Y-7211700D02*
X12099100Y-7291700D01*
X12099100Y-7465700D02*
X12179100Y-7545700D01*
X12179100Y-7465700D02*
X12099100Y-7545700D01*
X12099100Y-7719700D02*
X12179100Y-7799700D01*
X12179100Y-7719700D02*
X12099100Y-7799700D01*
X12099100Y-7973700D02*
X12179100Y-8053700D01*
X12179100Y-7973700D02*
X12099100Y-8053700D01*
X12353100Y-6195700D02*
X12433100Y-6275700D01*
X12433100Y-6195700D02*
X12353100Y-6275700D01*
X12353100Y-6449700D02*
X12433100Y-6529700D01*
X12433100Y-6449700D02*
X12353100Y-6529700D01*
X12353100Y-7719700D02*
X12433100Y-7799700D01*
X12433100Y-7719700D02*
X12353100Y-7799700D01*
X12353100Y-7973700D02*
X12433100Y-8053700D01*
X12433100Y-7973700D02*
X12353100Y-8053700D01*
X12607100Y-6195700D02*
X12687100Y-6275700D01*
X12687100Y-6195700D02*
X12607100Y-6275700D01*
X12607100Y-6449700D02*
X12687100Y-6529700D01*
X12687100Y-6449700D02*
X12607100Y-6529700D01*
X12607100Y-7719700D02*
X12687100Y-7799700D01*
X12687100Y-7719700D02*
X12607100Y-7799700D01*
X12607100Y-7973700D02*
X12687100Y-8053700D01*
X12687100Y-7973700D02*
X12607100Y-8053700D01*
X12861100Y-6195700D02*
X12941100Y-6275700D01*
X12941100Y-6195700D02*
X12861100Y-6275700D01*
X12861100Y-6449700D02*
X12941100Y-6529700D01*
X12941100Y-6449700D02*
X12861100Y-6529700D01*
X12861100Y-7719700D02*
X12941100Y-7799700D01*
X12941100Y-7719700D02*
X12861100Y-7799700D01*
X12861100Y-7973700D02*
X12941100Y-8053700D01*
X12941100Y-7973700D02*
X12861100Y-8053700D01*
X13115100Y-6195700D02*
X13195100Y-6275700D01*
X13195100Y-6195700D02*
X13115100Y-6275700D01*
X13115100Y-6449700D02*
X13195100Y-6529700D01*
X13195100Y-6449700D02*
X13115100Y-6529700D01*
X13115100Y-7719700D02*
X13195100Y-7799700D01*
X13195100Y-7719700D02*
X13115100Y-7799700D01*
X13115100Y-7973700D02*
X13195100Y-8053700D01*
X13195100Y-7973700D02*
X13115100Y-8053700D01*
X13369100Y-6195700D02*
X13449100Y-6275700D01*
X13449100Y-6195700D02*
X13369100Y-6275700D01*
X13369100Y-6449700D02*
X13449100Y-6529700D01*
X13449100Y-6449700D02*
X13369100Y-6529700D01*
X13369100Y-6703700D02*
X13449100Y-6783700D01*
X13449100Y-6703700D02*
X13369100Y-6783700D01*
X13369100Y-6957700D02*
X13449100Y-7037700D01*
X13449100Y-6957700D02*
X13369100Y-7037700D01*
X13369100Y-7211700D02*
X13449100Y-7291700D01*
X13449100Y-7211700D02*
X13369100Y-7291700D01*
X13369100Y-7465700D02*
X13449100Y-7545700D01*
X13449100Y-7465700D02*
X13369100Y-7545700D01*
X13369100Y-7719700D02*
X13449100Y-7799700D01*
X13449100Y-7719700D02*
X13369100Y-7799700D01*
X13369100Y-7973700D02*
X13449100Y-8053700D01*
X13449100Y-7973700D02*
X13369100Y-8053700D01*
X13495600Y-4813150D02*
X13575600Y-4893150D01*
X13575600Y-4813150D02*
X13495600Y-4893150D01*
X13495600Y-5067150D02*
X13575600Y-5147150D01*
X13575600Y-5067150D02*
X13495600Y-5147150D01*
X13495600Y-5321150D02*
X13575600Y-5401150D01*
X13575600Y-5321150D02*
X13495600Y-5401150D01*
X13495600Y-5575150D02*
X13575600Y-5655150D01*
X13575600Y-5575150D02*
X13495600Y-5655150D01*
X13495600Y-5829150D02*
X13575600Y-5909150D01*
X13575600Y-5829150D02*
X13495600Y-5909150D01*
X13495600Y-6083150D02*
X13575600Y-6163150D01*
X13575600Y-6083150D02*
X13495600Y-6163150D01*
X13495600Y-6337150D02*
X13575600Y-6417150D01*
X13575600Y-6337150D02*
X13495600Y-6417150D01*
X13495600Y-6591150D02*
X13575600Y-6671150D01*
X13575600Y-6591150D02*
X13495600Y-6671150D01*
X13495600Y-6845150D02*
X13575600Y-6925150D01*
X13575600Y-6845150D02*
X13495600Y-6925150D01*
X13495600Y-7099150D02*
X13575600Y-7179150D01*
X13575600Y-7099150D02*
X13495600Y-7179150D01*
X13495600Y-7353150D02*
X13575600Y-7433150D01*
X13575600Y-7353150D02*
X13495600Y-7433150D01*
X13495600Y-7607150D02*
X13575600Y-7687150D01*
X13575600Y-7607150D02*
X13495600Y-7687150D01*
X13495600Y-7861150D02*
X13575600Y-7941150D01*
X13575600Y-7861150D02*
X13495600Y-7941150D01*
X13495600Y-8115150D02*
X13575600Y-8195150D01*
X13575600Y-8115150D02*
X13495600Y-8195150D01*
X13495600Y-8369150D02*
X13575600Y-8449150D01*
X13575600Y-8369150D02*
X13495600Y-8449150D01*
X13495600Y-8623150D02*
X13575600Y-8703150D01*
X13575600Y-8623150D02*
X13495600Y-8703150D01*
X13495600Y-8877150D02*
X13575600Y-8957150D01*
X13575600Y-8877150D02*
X13495600Y-8957150D01*
X13495600Y-9131150D02*
X13575600Y-9211150D01*
X13575600Y-9131150D02*
X13495600Y-9211150D01*
X13495600Y-9385150D02*
X13575600Y-9465150D01*
X13575600Y-9385150D02*
X13495600Y-9465150D01*
X13495600Y-9639150D02*
X13575600Y-9719150D01*
X13575600Y-9639150D02*
X13495600Y-9719150D01*
X13623100Y-6449700D02*
X13703100Y-6529700D01*
X13703100Y-6449700D02*
X13623100Y-6529700D01*
X13623100Y-6703700D02*
X13703100Y-6783700D01*
X13703100Y-6703700D02*
X13623100Y-6783700D01*
X13623100Y-6957700D02*
X13703100Y-7037700D01*
X13703100Y-6957700D02*
X13623100Y-7037700D01*
X13623100Y-7211700D02*
X13703100Y-7291700D01*
X13703100Y-7211700D02*
X13623100Y-7291700D01*
X13623100Y-7465700D02*
X13703100Y-7545700D01*
X13703100Y-7465700D02*
X13623100Y-7545700D01*
X13623100Y-7719700D02*
X13703100Y-7799700D01*
X13703100Y-7719700D02*
X13623100Y-7799700D01*
D11*
X11974719Y-10170676D02*
X11974719Y-9970676D01*
X12022338Y-9970676D01*
X12050909Y-9980200D01*
X12069957Y-9999248D01*
X12079481Y-10018295D01*
X12089005Y-10056390D01*
X12089005Y-10084962D01*
X12079481Y-10123057D01*
X12069957Y-10142105D01*
X12050909Y-10161152D01*
X12022338Y-10170676D01*
X11974719Y-10170676D01*
X12174719Y-10170676D02*
X12174719Y-10037343D01*
X12174719Y-10075438D02*
X12184243Y-10056390D01*
X12193767Y-10046867D01*
X12212814Y-10037343D01*
X12231862Y-10037343D01*
X12298528Y-10170676D02*
X12298528Y-10037343D01*
X12298528Y-9970676D02*
X12289005Y-9980200D01*
X12298528Y-9989724D01*
X12308052Y-9980200D01*
X12298528Y-9970676D01*
X12298528Y-9989724D01*
X12422338Y-10170676D02*
X12403290Y-10161152D01*
X12393767Y-10142105D01*
X12393767Y-9970676D01*
X12527100Y-10170676D02*
X12508052Y-10161152D01*
X12498528Y-10142105D01*
X12498528Y-9970676D01*
X12755671Y-10170676D02*
X12755671Y-9970676D01*
X12822338Y-10113533D01*
X12889005Y-9970676D01*
X12889005Y-10170676D01*
X13069957Y-10170676D02*
X13069957Y-10065914D01*
X13060433Y-10046867D01*
X13041386Y-10037343D01*
X13003290Y-10037343D01*
X12984243Y-10046867D01*
X13069957Y-10161152D02*
X13050909Y-10170676D01*
X13003290Y-10170676D01*
X12984243Y-10161152D01*
X12974719Y-10142105D01*
X12974719Y-10123057D01*
X12984243Y-10104010D01*
X13003290Y-10094486D01*
X13050909Y-10094486D01*
X13069957Y-10084962D01*
X13165195Y-10037343D02*
X13165195Y-10237343D01*
X13165195Y-10046867D02*
X13184243Y-10037343D01*
X13222338Y-10037343D01*
X13241386Y-10046867D01*
X13250909Y-10056390D01*
X13260433Y-10075438D01*
X13260433Y-10132581D01*
X13250909Y-10151629D01*
X13241386Y-10161152D01*
X13222338Y-10170676D01*
X13184243Y-10170676D01*
X13165195Y-10161152D01*
X13346148Y-10151629D02*
X13355671Y-10161152D01*
X13346148Y-10170676D01*
X13336624Y-10161152D01*
X13346148Y-10151629D01*
X13346148Y-10170676D01*
X13346148Y-10046867D02*
X13355671Y-10056390D01*
X13346148Y-10065914D01*
X13336624Y-10056390D01*
X13346148Y-10046867D01*
X13346148Y-10065914D01*
D12*
X11637100Y-10460200D02*
X11717100Y-10540200D01*
X11717100Y-10460200D02*
X11637100Y-10540200D01*
D11*
X12012814Y-10390676D02*
X12031862Y-10390676D01*
X12050909Y-10400200D01*
X12060433Y-10409724D01*
X12069957Y-10428771D01*
X12079481Y-10466867D01*
X12079481Y-10514486D01*
X12069957Y-10552581D01*
X12060433Y-10571629D01*
X12050909Y-10581152D01*
X12031862Y-10590676D01*
X12012814Y-10590676D01*
X11993767Y-10581152D01*
X11984243Y-10571629D01*
X11974719Y-10552581D01*
X11965195Y-10514486D01*
X11965195Y-10466867D01*
X11974719Y-10428771D01*
X11984243Y-10409724D01*
X11993767Y-10400200D01*
X12012814Y-10390676D01*
X12165195Y-10571629D02*
X12174719Y-10581152D01*
X12165195Y-10590676D01*
X12155671Y-10581152D01*
X12165195Y-10571629D01*
X12165195Y-10590676D01*
X12289005Y-10476390D02*
X12269957Y-10466867D01*
X12260433Y-10457343D01*
X12250909Y-10438295D01*
X12250909Y-10428771D01*
X12260433Y-10409724D01*
X12269957Y-10400200D01*
X12289005Y-10390676D01*
X12327100Y-10390676D01*
X12346148Y-10400200D01*
X12355671Y-10409724D01*
X12365195Y-10428771D01*
X12365195Y-10438295D01*
X12355671Y-10457343D01*
X12346148Y-10466867D01*
X12327100Y-10476390D01*
X12289005Y-10476390D01*
X12269957Y-10485914D01*
X12260433Y-10495438D01*
X12250909Y-10514486D01*
X12250909Y-10552581D01*
X12260433Y-10571629D01*
X12269957Y-10581152D01*
X12289005Y-10590676D01*
X12327100Y-10590676D01*
X12346148Y-10581152D01*
X12355671Y-10571629D01*
X12365195Y-10552581D01*
X12365195Y-10514486D01*
X12355671Y-10495438D01*
X12346148Y-10485914D01*
X12327100Y-10476390D01*
X12489005Y-10390676D02*
X12508052Y-10390676D01*
X12527100Y-10400200D01*
X12536624Y-10409724D01*
X12546148Y-10428771D01*
X12555671Y-10466867D01*
X12555671Y-10514486D01*
X12546148Y-10552581D01*
X12536624Y-10571629D01*
X12527100Y-10581152D01*
X12508052Y-10590676D01*
X12489005Y-10590676D01*
X12469957Y-10581152D01*
X12460433Y-10571629D01*
X12450909Y-10552581D01*
X12441386Y-10514486D01*
X12441386Y-10466867D01*
X12450909Y-10428771D01*
X12460433Y-10409724D01*
X12469957Y-10400200D01*
X12489005Y-10390676D01*
X12679481Y-10390676D02*
X12698528Y-10390676D01*
X12717576Y-10400200D01*
X12727100Y-10409724D01*
X12736624Y-10428771D01*
X12746148Y-10466867D01*
X12746148Y-10514486D01*
X12736624Y-10552581D01*
X12727100Y-10571629D01*
X12717576Y-10581152D01*
X12698528Y-10590676D01*
X12679481Y-10590676D01*
X12660433Y-10581152D01*
X12650909Y-10571629D01*
X12641386Y-10552581D01*
X12631862Y-10514486D01*
X12631862Y-10466867D01*
X12641386Y-10428771D01*
X12650909Y-10409724D01*
X12660433Y-10400200D01*
X12679481Y-10390676D01*
X12831862Y-10590676D02*
X12831862Y-10457343D01*
X12831862Y-10476390D02*
X12841386Y-10466867D01*
X12860433Y-10457343D01*
X12889005Y-10457343D01*
X12908052Y-10466867D01*
X12917576Y-10485914D01*
X12917576Y-10590676D01*
X12917576Y-10485914D02*
X12927100Y-10466867D01*
X12946148Y-10457343D01*
X12974719Y-10457343D01*
X12993767Y-10466867D01*
X13003290Y-10485914D01*
X13003290Y-10590676D01*
X13098528Y-10590676D02*
X13098528Y-10457343D01*
X13098528Y-10476390D02*
X13108052Y-10466867D01*
X13127100Y-10457343D01*
X13155671Y-10457343D01*
X13174719Y-10466867D01*
X13184243Y-10485914D01*
X13184243Y-10590676D01*
X13184243Y-10485914D02*
X13193767Y-10466867D01*
X13212814Y-10457343D01*
X13241386Y-10457343D01*
X13260433Y-10466867D01*
X13269957Y-10485914D01*
X13269957Y-10590676D01*
X13660433Y-10381152D02*
X13489005Y-10638295D01*
X13917576Y-10390676D02*
X13936624Y-10390676D01*
X13955671Y-10400200D01*
X13965195Y-10409724D01*
X13974719Y-10428771D01*
X13984243Y-10466867D01*
X13984243Y-10514486D01*
X13974719Y-10552581D01*
X13965195Y-10571629D01*
X13955671Y-10581152D01*
X13936624Y-10590676D01*
X13917576Y-10590676D01*
X13898528Y-10581152D01*
X13889005Y-10571629D01*
X13879481Y-10552581D01*
X13869957Y-10514486D01*
X13869957Y-10466867D01*
X13879481Y-10428771D01*
X13889005Y-10409724D01*
X13898528Y-10400200D01*
X13917576Y-10390676D01*
X14069957Y-10571629D02*
X14079481Y-10581152D01*
X14069957Y-10590676D01*
X14060433Y-10581152D01*
X14069957Y-10571629D01*
X14069957Y-10590676D01*
X14203290Y-10390676D02*
X14222338Y-10390676D01*
X14241386Y-10400200D01*
X14250909Y-10409724D01*
X14260433Y-10428771D01*
X14269957Y-10466867D01*
X14269957Y-10514486D01*
X14260433Y-10552581D01*
X14250909Y-10571629D01*
X14241386Y-10581152D01*
X14222338Y-10590676D01*
X14203290Y-10590676D01*
X14184243Y-10581152D01*
X14174719Y-10571629D01*
X14165195Y-10552581D01*
X14155671Y-10514486D01*
X14155671Y-10466867D01*
X14165195Y-10428771D01*
X14174719Y-10409724D01*
X14184243Y-10400200D01*
X14203290Y-10390676D01*
X14336624Y-10390676D02*
X14460433Y-10390676D01*
X14393767Y-10466867D01*
X14422338Y-10466867D01*
X14441386Y-10476390D01*
X14450909Y-10485914D01*
X14460433Y-10504962D01*
X14460433Y-10552581D01*
X14450909Y-10571629D01*
X14441386Y-10581152D01*
X14422338Y-10590676D01*
X14365195Y-10590676D01*
X14346148Y-10581152D01*
X14336624Y-10571629D01*
X14650909Y-10590676D02*
X14536624Y-10590676D01*
X14593767Y-10590676D02*
X14593767Y-10390676D01*
X14574719Y-10419248D01*
X14555671Y-10438295D01*
X14536624Y-10447819D01*
X14831862Y-10390676D02*
X14736624Y-10390676D01*
X14727100Y-10485914D01*
X14736624Y-10476390D01*
X14755671Y-10466867D01*
X14803290Y-10466867D01*
X14822338Y-10476390D01*
X14831862Y-10485914D01*
X14841386Y-10504962D01*
X14841386Y-10552581D01*
X14831862Y-10571629D01*
X14822338Y-10581152D01*
X14803290Y-10590676D01*
X14755671Y-10590676D01*
X14736624Y-10581152D01*
X14727100Y-10571629D01*
X14917576Y-10390676D02*
X14917576Y-10428771D01*
X14993767Y-10390676D02*
X14993767Y-10428771D01*
X15289005Y-10666867D02*
X15279481Y-10657343D01*
X15260433Y-10628771D01*
X15250909Y-10609724D01*
X15241386Y-10581152D01*
X15231862Y-10533533D01*
X15231862Y-10495438D01*
X15241386Y-10447819D01*
X15250909Y-10419248D01*
X15260433Y-10400200D01*
X15279481Y-10371629D01*
X15289005Y-10362105D01*
X15393767Y-10476390D02*
X15374719Y-10466867D01*
X15365195Y-10457343D01*
X15355671Y-10438295D01*
X15355671Y-10428771D01*
X15365195Y-10409724D01*
X15374719Y-10400200D01*
X15393767Y-10390676D01*
X15431862Y-10390676D01*
X15450909Y-10400200D01*
X15460433Y-10409724D01*
X15469957Y-10428771D01*
X15469957Y-10438295D01*
X15460433Y-10457343D01*
X15450909Y-10466867D01*
X15431862Y-10476390D01*
X15393767Y-10476390D01*
X15374719Y-10485914D01*
X15365195Y-10495438D01*
X15355671Y-10514486D01*
X15355671Y-10552581D01*
X15365195Y-10571629D01*
X15374719Y-10581152D01*
X15393767Y-10590676D01*
X15431862Y-10590676D01*
X15450909Y-10581152D01*
X15460433Y-10571629D01*
X15469957Y-10552581D01*
X15469957Y-10514486D01*
X15460433Y-10495438D01*
X15450909Y-10485914D01*
X15431862Y-10476390D01*
X15641386Y-10457343D02*
X15641386Y-10590676D01*
X15593767Y-10381152D02*
X15546148Y-10524010D01*
X15669957Y-10524010D01*
X15898528Y-10590676D02*
X15898528Y-10390676D01*
X15984243Y-10590676D02*
X15984243Y-10485914D01*
X15974719Y-10466867D01*
X15955671Y-10457343D01*
X15927100Y-10457343D01*
X15908052Y-10466867D01*
X15898528Y-10476390D01*
X16108052Y-10590676D02*
X16089005Y-10581152D01*
X16079481Y-10571629D01*
X16069957Y-10552581D01*
X16069957Y-10495438D01*
X16079481Y-10476390D01*
X16089005Y-10466867D01*
X16108052Y-10457343D01*
X16136624Y-10457343D01*
X16155671Y-10466867D01*
X16165195Y-10476390D01*
X16174719Y-10495438D01*
X16174719Y-10552581D01*
X16165195Y-10571629D01*
X16155671Y-10581152D01*
X16136624Y-10590676D01*
X16108052Y-10590676D01*
X16289005Y-10590676D02*
X16269957Y-10581152D01*
X16260433Y-10562105D01*
X16260433Y-10390676D01*
X16441386Y-10581152D02*
X16422338Y-10590676D01*
X16384243Y-10590676D01*
X16365195Y-10581152D01*
X16355671Y-10562105D01*
X16355671Y-10485914D01*
X16365195Y-10466867D01*
X16384243Y-10457343D01*
X16422338Y-10457343D01*
X16441386Y-10466867D01*
X16450909Y-10485914D01*
X16450909Y-10504962D01*
X16355671Y-10524010D01*
X16527100Y-10581152D02*
X16546148Y-10590676D01*
X16584243Y-10590676D01*
X16603290Y-10581152D01*
X16612814Y-10562105D01*
X16612814Y-10552581D01*
X16603290Y-10533533D01*
X16584243Y-10524010D01*
X16555671Y-10524010D01*
X16536624Y-10514486D01*
X16527100Y-10495438D01*
X16527100Y-10485914D01*
X16536624Y-10466867D01*
X16555671Y-10457343D01*
X16584243Y-10457343D01*
X16603290Y-10466867D01*
X16679481Y-10666867D02*
X16689005Y-10657343D01*
X16708052Y-10628771D01*
X16717576Y-10609724D01*
X16727100Y-10581152D01*
X16736624Y-10533533D01*
X16736624Y-10495438D01*
X16727100Y-10447819D01*
X16717576Y-10419248D01*
X16708052Y-10400200D01*
X16689005Y-10371629D01*
X16679481Y-10362105D01*
M02*
