G04 #@! TF.GenerationSoftware,KiCad,Pcbnew,(6.0.4)*
G04 #@! TF.CreationDate,2022-12-30T23:39:26-05:00*
G04 #@! TF.ProjectId,tms7000 plcc adapter,746d7337-3030-4302-9070-6c6363206164,rev?*
G04 #@! TF.SameCoordinates,Original*
G04 #@! TF.FileFunction,Copper,L2,Bot*
G04 #@! TF.FilePolarity,Positive*
%FSLAX46Y46*%
G04 Gerber Fmt 4.6, Leading zero omitted, Abs format (unit mm)*
G04 Created by KiCad (PCBNEW (6.0.4)) date 2022-12-30 23:39:26*
%MOMM*%
%LPD*%
G01*
G04 APERTURE LIST*
G04 #@! TA.AperFunction,ComponentPad*
%ADD10R,1.600000X1.600000*%
G04 #@! TD*
G04 #@! TA.AperFunction,ComponentPad*
%ADD11O,1.600000X1.600000*%
G04 #@! TD*
G04 #@! TA.AperFunction,ComponentPad*
%ADD12R,1.422400X1.422400*%
G04 #@! TD*
G04 #@! TA.AperFunction,ComponentPad*
%ADD13C,1.422400*%
G04 #@! TD*
G04 #@! TA.AperFunction,Conductor*
%ADD14C,0.400000*%
G04 #@! TD*
G04 #@! TA.AperFunction,Conductor*
%ADD15C,0.250000*%
G04 #@! TD*
G04 APERTURE END LIST*
D10*
X120116000Y-48531500D03*
D11*
X120116000Y-51071500D03*
X120116000Y-53611500D03*
X120116000Y-56151500D03*
X120116000Y-58691500D03*
X120116000Y-61231500D03*
X120116000Y-63771500D03*
X120116000Y-66311500D03*
X120116000Y-68851500D03*
X120116000Y-71391500D03*
X120116000Y-73931500D03*
X120116000Y-76471500D03*
X120116000Y-79011500D03*
X120116000Y-81551500D03*
X120116000Y-84091500D03*
X120116000Y-86631500D03*
X120116000Y-89171500D03*
X120116000Y-91711500D03*
X120116000Y-94251500D03*
X120116000Y-96791500D03*
X135356000Y-96791500D03*
X135356000Y-94251500D03*
X135356000Y-91711500D03*
X135356000Y-89171500D03*
X135356000Y-86631500D03*
X135356000Y-84091500D03*
X135356000Y-81551500D03*
X135356000Y-79011500D03*
X135356000Y-76471500D03*
X135356000Y-73931500D03*
X135356000Y-71391500D03*
X135356000Y-68851500D03*
X135356000Y-66311500D03*
X135356000Y-63771500D03*
X135356000Y-61231500D03*
X135356000Y-58691500D03*
X135356000Y-56151500D03*
X135356000Y-53611500D03*
X135356000Y-51071500D03*
X135356000Y-48531500D03*
D12*
X129011000Y-64897000D03*
D13*
X126471000Y-62357000D03*
X126471000Y-64897000D03*
X123931000Y-62357000D03*
X123931000Y-64897000D03*
X121391000Y-62357000D03*
X118851000Y-64897000D03*
X121391000Y-64897000D03*
X118851000Y-67437000D03*
X121391000Y-67437000D03*
X118851000Y-69977000D03*
X121391000Y-69977000D03*
X118851000Y-72517000D03*
X121391000Y-72517000D03*
X118851000Y-75057000D03*
X121391000Y-75057000D03*
X118851000Y-77597000D03*
X121391000Y-80137000D03*
X121391000Y-77597000D03*
X123931000Y-80137000D03*
X123931000Y-77597000D03*
X126471000Y-80137000D03*
X126471000Y-77597000D03*
X129011000Y-80137000D03*
X129011000Y-77597000D03*
X131551000Y-80137000D03*
X131551000Y-77597000D03*
X134091000Y-80137000D03*
X136631000Y-77597000D03*
X134091000Y-77597000D03*
X136631000Y-75057000D03*
X134091000Y-75057000D03*
X136631000Y-72517000D03*
X134091000Y-72517000D03*
X136631000Y-69977000D03*
X134091000Y-69977000D03*
X136631000Y-67437000D03*
X134091000Y-67437000D03*
X136631000Y-64897000D03*
X134091000Y-62357000D03*
X134091000Y-64897000D03*
X131551000Y-62357000D03*
X131551000Y-64897000D03*
X129011000Y-62357000D03*
D14*
X137160000Y-50335500D02*
X137160000Y-64368000D01*
X135356000Y-48531500D02*
X137160000Y-50335500D01*
X137160000Y-64368000D02*
X136631000Y-64897000D01*
D15*
X122426711Y-78026007D02*
X121441218Y-79011500D01*
X122426711Y-73552711D02*
X122426711Y-78026007D01*
X121441218Y-79011500D02*
X120116000Y-79011500D01*
X121391000Y-72517000D02*
X122426711Y-73552711D01*
X118635500Y-76471500D02*
X120116000Y-76471500D01*
X118851000Y-72517000D02*
X117815289Y-73552711D01*
X117815289Y-73552711D02*
X117815289Y-75651289D01*
X117815289Y-75651289D02*
X118635500Y-76471500D01*
X134040782Y-81551500D02*
X135356000Y-81551500D01*
X134091000Y-77597000D02*
X133055289Y-78632711D01*
X133055289Y-80566007D02*
X134040782Y-81551500D01*
X133055289Y-78632711D02*
X133055289Y-80566007D01*
X133055289Y-61927993D02*
X133751782Y-61231500D01*
X133751782Y-61231500D02*
X135356000Y-61231500D01*
X133055289Y-66401289D02*
X133055289Y-61927993D01*
X134091000Y-67437000D02*
X133055289Y-66401289D01*
X136888500Y-79011500D02*
X135356000Y-79011500D01*
X136631000Y-75057000D02*
X137666711Y-76092711D01*
X137666711Y-78233289D02*
X136888500Y-79011500D01*
X137666711Y-76092711D02*
X137666711Y-78233289D01*
M02*
