%FSLAX45Y45*%
G04 Gerber Fmt 4.5, Leading zero omitted, Abs format (unit mm)*
G04 Created by KiCad (PCBNEW (6.0.0)) date 2023-01-29 20:40:08*
%MOMM*%
%LPD*%
G01*
G04 APERTURE LIST*
%TA.AperFunction,Profile*%
%ADD10C,0.100000*%
%TD*%
%ADD11C,0.200000*%
G04 APERTURE END LIST*
D10*
X12192000Y-4902200D02*
X14401800Y-4902200D01*
X11430000Y-10287000D02*
X11430000Y-5105400D01*
X14401800Y-10668000D02*
X12192000Y-10668000D01*
X11430000Y-5105400D02*
X12192000Y-4902200D01*
X12192000Y-10668000D02*
X11430000Y-10287000D01*
X14401800Y-4902200D02*
X14401800Y-10668000D01*
D11*
X11682619Y-10983476D02*
X11682619Y-10783476D01*
X11730238Y-10783476D01*
X11758809Y-10793000D01*
X11777857Y-10812048D01*
X11787381Y-10831095D01*
X11796905Y-10869190D01*
X11796905Y-10897762D01*
X11787381Y-10935857D01*
X11777857Y-10954905D01*
X11758809Y-10973952D01*
X11730238Y-10983476D01*
X11682619Y-10983476D01*
X11882619Y-10983476D02*
X11882619Y-10850143D01*
X11882619Y-10888238D02*
X11892143Y-10869190D01*
X11901667Y-10859667D01*
X11920714Y-10850143D01*
X11939762Y-10850143D01*
X12006428Y-10983476D02*
X12006428Y-10850143D01*
X12006428Y-10783476D02*
X11996905Y-10793000D01*
X12006428Y-10802524D01*
X12015952Y-10793000D01*
X12006428Y-10783476D01*
X12006428Y-10802524D01*
X12130238Y-10983476D02*
X12111190Y-10973952D01*
X12101667Y-10954905D01*
X12101667Y-10783476D01*
X12235000Y-10983476D02*
X12215952Y-10973952D01*
X12206428Y-10954905D01*
X12206428Y-10783476D01*
X12463571Y-10983476D02*
X12463571Y-10783476D01*
X12530238Y-10926333D01*
X12596905Y-10783476D01*
X12596905Y-10983476D01*
X12777857Y-10983476D02*
X12777857Y-10878714D01*
X12768333Y-10859667D01*
X12749286Y-10850143D01*
X12711190Y-10850143D01*
X12692143Y-10859667D01*
X12777857Y-10973952D02*
X12758809Y-10983476D01*
X12711190Y-10983476D01*
X12692143Y-10973952D01*
X12682619Y-10954905D01*
X12682619Y-10935857D01*
X12692143Y-10916810D01*
X12711190Y-10907286D01*
X12758809Y-10907286D01*
X12777857Y-10897762D01*
X12873095Y-10850143D02*
X12873095Y-11050143D01*
X12873095Y-10859667D02*
X12892143Y-10850143D01*
X12930238Y-10850143D01*
X12949286Y-10859667D01*
X12958809Y-10869190D01*
X12968333Y-10888238D01*
X12968333Y-10945381D01*
X12958809Y-10964429D01*
X12949286Y-10973952D01*
X12930238Y-10983476D01*
X12892143Y-10983476D01*
X12873095Y-10973952D01*
X13054048Y-10964429D02*
X13063571Y-10973952D01*
X13054048Y-10983476D01*
X13044524Y-10973952D01*
X13054048Y-10964429D01*
X13054048Y-10983476D01*
X13054048Y-10859667D02*
X13063571Y-10869190D01*
X13054048Y-10878714D01*
X13044524Y-10869190D01*
X13054048Y-10859667D01*
X13054048Y-10878714D01*
M02*
