%FSLAX45Y45*%
G04 Gerber Fmt 4.5, Leading zero omitted, Abs format (unit mm)*
G04 Created by KiCad (PCBNEW (6.0.0)) date 2023-01-29 20:40:08*
%MOMM*%
%LPD*%
G01*
G04 APERTURE LIST*
%TA.AperFunction,Profile*%
%ADD10C,0.100000*%
%TD*%
%ADD11C,0.200000*%
%ADD12C,0.040000*%
%ADD13C,0.070000*%
%ADD14C,0.080000*%
G04 APERTURE END LIST*
D10*
X12192000Y-4902200D02*
X14401800Y-4902200D01*
X11430000Y-10287000D02*
X11430000Y-5105400D01*
X14401800Y-10668000D02*
X12192000Y-10668000D01*
X11430000Y-5105400D02*
X12192000Y-4902200D01*
X12192000Y-10668000D02*
X11430000Y-10287000D01*
X14401800Y-4902200D02*
X14401800Y-10668000D01*
D11*
D12*
X11816400Y-6177600D02*
X11856400Y-6217600D01*
X11856400Y-6177600D02*
X11816400Y-6217600D01*
X13950000Y-5060000D02*
X13990000Y-5100000D01*
X13990000Y-5060000D02*
X13950000Y-5100000D01*
X14000800Y-9835200D02*
X14040800Y-9875200D01*
X14040800Y-9835200D02*
X14000800Y-9875200D01*
X14051600Y-9581200D02*
X14091600Y-9621200D01*
X14091600Y-9581200D02*
X14051600Y-9621200D01*
X14077000Y-9327200D02*
X14117000Y-9367200D01*
X14117000Y-9327200D02*
X14077000Y-9367200D01*
X14102400Y-9174800D02*
X14142400Y-9214800D01*
X14142400Y-9174800D02*
X14102400Y-9214800D01*
D13*
X12379400Y-5029200D02*
G75*
G03*
X12379400Y-5029200I-35000J0D01*
G01*
X12379400Y-5207000D02*
G75*
G03*
X12379400Y-5207000I-35000J0D01*
G01*
X12379400Y-5384800D02*
G75*
G03*
X12379400Y-5384800I-35000J0D01*
G01*
X12379400Y-5562600D02*
G75*
G03*
X12379400Y-5562600I-35000J0D01*
G01*
X12379400Y-5740400D02*
G75*
G03*
X12379400Y-5740400I-35000J0D01*
G01*
X12379400Y-5918200D02*
G75*
G03*
X12379400Y-5918200I-35000J0D01*
G01*
X12379400Y-6096000D02*
G75*
G03*
X12379400Y-6096000I-35000J0D01*
G01*
X12379400Y-6273800D02*
G75*
G03*
X12379400Y-6273800I-35000J0D01*
G01*
X12379400Y-6451600D02*
G75*
G03*
X12379400Y-6451600I-35000J0D01*
G01*
X12379400Y-6629400D02*
G75*
G03*
X12379400Y-6629400I-35000J0D01*
G01*
X12379400Y-6807200D02*
G75*
G03*
X12379400Y-6807200I-35000J0D01*
G01*
X12379400Y-6985000D02*
G75*
G03*
X12379400Y-6985000I-35000J0D01*
G01*
X12379400Y-7162800D02*
G75*
G03*
X12379400Y-7162800I-35000J0D01*
G01*
X12379400Y-7340600D02*
G75*
G03*
X12379400Y-7340600I-35000J0D01*
G01*
X12379400Y-7518400D02*
G75*
G03*
X12379400Y-7518400I-35000J0D01*
G01*
X12379400Y-7696200D02*
G75*
G03*
X12379400Y-7696200I-35000J0D01*
G01*
X12379400Y-7874000D02*
G75*
G03*
X12379400Y-7874000I-35000J0D01*
G01*
X12379400Y-8051800D02*
G75*
G03*
X12379400Y-8051800I-35000J0D01*
G01*
X12379400Y-8229600D02*
G75*
G03*
X12379400Y-8229600I-35000J0D01*
G01*
X12379400Y-8407400D02*
G75*
G03*
X12379400Y-8407400I-35000J0D01*
G01*
X12379400Y-8585200D02*
G75*
G03*
X12379400Y-8585200I-35000J0D01*
G01*
X12379400Y-8763000D02*
G75*
G03*
X12379400Y-8763000I-35000J0D01*
G01*
X12379400Y-8940800D02*
G75*
G03*
X12379400Y-8940800I-35000J0D01*
G01*
X12379400Y-9118600D02*
G75*
G03*
X12379400Y-9118600I-35000J0D01*
G01*
X12379400Y-9296400D02*
G75*
G03*
X12379400Y-9296400I-35000J0D01*
G01*
X12379400Y-9474200D02*
G75*
G03*
X12379400Y-9474200I-35000J0D01*
G01*
X12379400Y-9652000D02*
G75*
G03*
X12379400Y-9652000I-35000J0D01*
G01*
X12379400Y-9829800D02*
G75*
G03*
X12379400Y-9829800I-35000J0D01*
G01*
X12379400Y-10007600D02*
G75*
G03*
X12379400Y-10007600I-35000J0D01*
G01*
X12379400Y-10185400D02*
G75*
G03*
X12379400Y-10185400I-35000J0D01*
G01*
X12379400Y-10363200D02*
G75*
G03*
X12379400Y-10363200I-35000J0D01*
G01*
X12379400Y-10541000D02*
G75*
G03*
X12379400Y-10541000I-35000J0D01*
G01*
X14284400Y-5029200D02*
G75*
G03*
X14284400Y-5029200I-35000J0D01*
G01*
X14284400Y-5207000D02*
G75*
G03*
X14284400Y-5207000I-35000J0D01*
G01*
X14284400Y-5384800D02*
G75*
G03*
X14284400Y-5384800I-35000J0D01*
G01*
X14284400Y-5562600D02*
G75*
G03*
X14284400Y-5562600I-35000J0D01*
G01*
X14284400Y-5740400D02*
G75*
G03*
X14284400Y-5740400I-35000J0D01*
G01*
X14284400Y-5918200D02*
G75*
G03*
X14284400Y-5918200I-35000J0D01*
G01*
X14284400Y-6096000D02*
G75*
G03*
X14284400Y-6096000I-35000J0D01*
G01*
X14284400Y-6273800D02*
G75*
G03*
X14284400Y-6273800I-35000J0D01*
G01*
X14284400Y-6451600D02*
G75*
G03*
X14284400Y-6451600I-35000J0D01*
G01*
X14284400Y-6629400D02*
G75*
G03*
X14284400Y-6629400I-35000J0D01*
G01*
X14284400Y-6807200D02*
G75*
G03*
X14284400Y-6807200I-35000J0D01*
G01*
X14284400Y-6985000D02*
G75*
G03*
X14284400Y-6985000I-35000J0D01*
G01*
X14284400Y-7162800D02*
G75*
G03*
X14284400Y-7162800I-35000J0D01*
G01*
X14284400Y-7340600D02*
G75*
G03*
X14284400Y-7340600I-35000J0D01*
G01*
X14284400Y-7518400D02*
G75*
G03*
X14284400Y-7518400I-35000J0D01*
G01*
X14284400Y-7696200D02*
G75*
G03*
X14284400Y-7696200I-35000J0D01*
G01*
X14284400Y-7874000D02*
G75*
G03*
X14284400Y-7874000I-35000J0D01*
G01*
X14284400Y-8051800D02*
G75*
G03*
X14284400Y-8051800I-35000J0D01*
G01*
X14284400Y-8229600D02*
G75*
G03*
X14284400Y-8229600I-35000J0D01*
G01*
X14284400Y-8407400D02*
G75*
G03*
X14284400Y-8407400I-35000J0D01*
G01*
X14284400Y-8585200D02*
G75*
G03*
X14284400Y-8585200I-35000J0D01*
G01*
X14284400Y-8763000D02*
G75*
G03*
X14284400Y-8763000I-35000J0D01*
G01*
X14284400Y-8940800D02*
G75*
G03*
X14284400Y-8940800I-35000J0D01*
G01*
X14284400Y-9118600D02*
G75*
G03*
X14284400Y-9118600I-35000J0D01*
G01*
X14284400Y-9296400D02*
G75*
G03*
X14284400Y-9296400I-35000J0D01*
G01*
X14284400Y-9474200D02*
G75*
G03*
X14284400Y-9474200I-35000J0D01*
G01*
X14284400Y-9652000D02*
G75*
G03*
X14284400Y-9652000I-35000J0D01*
G01*
X14284400Y-9829800D02*
G75*
G03*
X14284400Y-9829800I-35000J0D01*
G01*
X14284400Y-10007600D02*
G75*
G03*
X14284400Y-10007600I-35000J0D01*
G01*
X14284400Y-10185400D02*
G75*
G03*
X14284400Y-10185400I-35000J0D01*
G01*
X14284400Y-10363200D02*
G75*
G03*
X14284400Y-10363200I-35000J0D01*
G01*
X14284400Y-10541000D02*
G75*
G03*
X14284400Y-10541000I-35000J0D01*
G01*
D14*
X11556500Y-5243700D02*
X11556500Y-5323700D01*
X11516500Y-5283700D02*
X11596500Y-5283700D01*
X11556500Y-5497700D02*
X11556500Y-5577700D01*
X11516500Y-5537700D02*
X11596500Y-5537700D01*
X11556500Y-5751700D02*
X11556500Y-5831700D01*
X11516500Y-5791700D02*
X11596500Y-5791700D01*
X11556500Y-6005700D02*
X11556500Y-6085700D01*
X11516500Y-6045700D02*
X11596500Y-6045700D01*
X11556500Y-6259700D02*
X11556500Y-6339700D01*
X11516500Y-6299700D02*
X11596500Y-6299700D01*
X11556500Y-6513700D02*
X11556500Y-6593700D01*
X11516500Y-6553700D02*
X11596500Y-6553700D01*
X11556500Y-6767700D02*
X11556500Y-6847700D01*
X11516500Y-6807700D02*
X11596500Y-6807700D01*
X11556500Y-7021700D02*
X11556500Y-7101700D01*
X11516500Y-7061700D02*
X11596500Y-7061700D01*
X11556500Y-7275700D02*
X11556500Y-7355700D01*
X11516500Y-7315700D02*
X11596500Y-7315700D01*
X11556500Y-7529700D02*
X11556500Y-7609700D01*
X11516500Y-7569700D02*
X11596500Y-7569700D01*
X11556500Y-7783700D02*
X11556500Y-7863700D01*
X11516500Y-7823700D02*
X11596500Y-7823700D01*
X11556500Y-8037700D02*
X11556500Y-8117700D01*
X11516500Y-8077700D02*
X11596500Y-8077700D01*
X11556500Y-8291700D02*
X11556500Y-8371700D01*
X11516500Y-8331700D02*
X11596500Y-8331700D01*
X11556500Y-8545700D02*
X11556500Y-8625700D01*
X11516500Y-8585700D02*
X11596500Y-8585700D01*
X11556500Y-8799700D02*
X11556500Y-8879700D01*
X11516500Y-8839700D02*
X11596500Y-8839700D01*
X11556500Y-9053700D02*
X11556500Y-9133700D01*
X11516500Y-9093700D02*
X11596500Y-9093700D01*
X11556500Y-9307700D02*
X11556500Y-9387700D01*
X11516500Y-9347700D02*
X11596500Y-9347700D01*
X11556500Y-9561700D02*
X11556500Y-9641700D01*
X11516500Y-9601700D02*
X11596500Y-9601700D01*
X11556500Y-9815700D02*
X11556500Y-9895700D01*
X11516500Y-9855700D02*
X11596500Y-9855700D01*
X11556500Y-10069700D02*
X11556500Y-10149700D01*
X11516500Y-10109700D02*
X11596500Y-10109700D01*
X13080500Y-5243700D02*
X13080500Y-5323700D01*
X13040500Y-5283700D02*
X13120500Y-5283700D01*
X13080500Y-5497700D02*
X13080500Y-5577700D01*
X13040500Y-5537700D02*
X13120500Y-5537700D01*
X13080500Y-5751700D02*
X13080500Y-5831700D01*
X13040500Y-5791700D02*
X13120500Y-5791700D01*
X13080500Y-6005700D02*
X13080500Y-6085700D01*
X13040500Y-6045700D02*
X13120500Y-6045700D01*
X13080500Y-6259700D02*
X13080500Y-6339700D01*
X13040500Y-6299700D02*
X13120500Y-6299700D01*
X13080500Y-6513700D02*
X13080500Y-6593700D01*
X13040500Y-6553700D02*
X13120500Y-6553700D01*
X13080500Y-6767700D02*
X13080500Y-6847700D01*
X13040500Y-6807700D02*
X13120500Y-6807700D01*
X13080500Y-7021700D02*
X13080500Y-7101700D01*
X13040500Y-7061700D02*
X13120500Y-7061700D01*
X13080500Y-7275700D02*
X13080500Y-7355700D01*
X13040500Y-7315700D02*
X13120500Y-7315700D01*
X13080500Y-7529700D02*
X13080500Y-7609700D01*
X13040500Y-7569700D02*
X13120500Y-7569700D01*
X13080500Y-7783700D02*
X13080500Y-7863700D01*
X13040500Y-7823700D02*
X13120500Y-7823700D01*
X13080500Y-8037700D02*
X13080500Y-8117700D01*
X13040500Y-8077700D02*
X13120500Y-8077700D01*
X13080500Y-8291700D02*
X13080500Y-8371700D01*
X13040500Y-8331700D02*
X13120500Y-8331700D01*
X13080500Y-8545700D02*
X13080500Y-8625700D01*
X13040500Y-8585700D02*
X13120500Y-8585700D01*
X13080500Y-8799700D02*
X13080500Y-8879700D01*
X13040500Y-8839700D02*
X13120500Y-8839700D01*
X13080500Y-9053700D02*
X13080500Y-9133700D01*
X13040500Y-9093700D02*
X13120500Y-9093700D01*
X13080500Y-9307700D02*
X13080500Y-9387700D01*
X13040500Y-9347700D02*
X13120500Y-9347700D01*
X13080500Y-9561700D02*
X13080500Y-9641700D01*
X13040500Y-9601700D02*
X13120500Y-9601700D01*
X13080500Y-9815700D02*
X13080500Y-9895700D01*
X13040500Y-9855700D02*
X13120500Y-9855700D01*
X13080500Y-10069700D02*
X13080500Y-10149700D01*
X13040500Y-10109700D02*
X13120500Y-10109700D01*
D11*
X11682619Y-10983476D02*
X11682619Y-10783476D01*
X11730238Y-10783476D01*
X11758809Y-10793000D01*
X11777857Y-10812048D01*
X11787381Y-10831095D01*
X11796905Y-10869190D01*
X11796905Y-10897762D01*
X11787381Y-10935857D01*
X11777857Y-10954905D01*
X11758809Y-10973952D01*
X11730238Y-10983476D01*
X11682619Y-10983476D01*
X11882619Y-10983476D02*
X11882619Y-10850143D01*
X11882619Y-10888238D02*
X11892143Y-10869190D01*
X11901667Y-10859667D01*
X11920714Y-10850143D01*
X11939762Y-10850143D01*
X12006428Y-10983476D02*
X12006428Y-10850143D01*
X12006428Y-10783476D02*
X11996905Y-10793000D01*
X12006428Y-10802524D01*
X12015952Y-10793000D01*
X12006428Y-10783476D01*
X12006428Y-10802524D01*
X12130238Y-10983476D02*
X12111190Y-10973952D01*
X12101667Y-10954905D01*
X12101667Y-10783476D01*
X12235000Y-10983476D02*
X12215952Y-10973952D01*
X12206428Y-10954905D01*
X12206428Y-10783476D01*
X12463571Y-10983476D02*
X12463571Y-10783476D01*
X12530238Y-10926333D01*
X12596905Y-10783476D01*
X12596905Y-10983476D01*
X12777857Y-10983476D02*
X12777857Y-10878714D01*
X12768333Y-10859667D01*
X12749286Y-10850143D01*
X12711190Y-10850143D01*
X12692143Y-10859667D01*
X12777857Y-10973952D02*
X12758809Y-10983476D01*
X12711190Y-10983476D01*
X12692143Y-10973952D01*
X12682619Y-10954905D01*
X12682619Y-10935857D01*
X12692143Y-10916810D01*
X12711190Y-10907286D01*
X12758809Y-10907286D01*
X12777857Y-10897762D01*
X12873095Y-10850143D02*
X12873095Y-11050143D01*
X12873095Y-10859667D02*
X12892143Y-10850143D01*
X12930238Y-10850143D01*
X12949286Y-10859667D01*
X12958809Y-10869190D01*
X12968333Y-10888238D01*
X12968333Y-10945381D01*
X12958809Y-10964429D01*
X12949286Y-10973952D01*
X12930238Y-10983476D01*
X12892143Y-10983476D01*
X12873095Y-10973952D01*
X13054048Y-10964429D02*
X13063571Y-10973952D01*
X13054048Y-10983476D01*
X13044524Y-10973952D01*
X13054048Y-10964429D01*
X13054048Y-10983476D01*
X13054048Y-10859667D02*
X13063571Y-10869190D01*
X13054048Y-10878714D01*
X13044524Y-10869190D01*
X13054048Y-10859667D01*
X13054048Y-10878714D01*
D12*
X11385000Y-11293000D02*
X11425000Y-11333000D01*
X11425000Y-11293000D02*
X11385000Y-11333000D01*
D11*
X11720714Y-11203476D02*
X11739762Y-11203476D01*
X11758809Y-11213000D01*
X11768333Y-11222524D01*
X11777857Y-11241571D01*
X11787381Y-11279667D01*
X11787381Y-11327286D01*
X11777857Y-11365381D01*
X11768333Y-11384428D01*
X11758809Y-11393952D01*
X11739762Y-11403476D01*
X11720714Y-11403476D01*
X11701667Y-11393952D01*
X11692143Y-11384428D01*
X11682619Y-11365381D01*
X11673095Y-11327286D01*
X11673095Y-11279667D01*
X11682619Y-11241571D01*
X11692143Y-11222524D01*
X11701667Y-11213000D01*
X11720714Y-11203476D01*
X11873095Y-11384428D02*
X11882619Y-11393952D01*
X11873095Y-11403476D01*
X11863571Y-11393952D01*
X11873095Y-11384428D01*
X11873095Y-11403476D01*
X12054048Y-11270143D02*
X12054048Y-11403476D01*
X12006428Y-11193952D02*
X11958809Y-11336809D01*
X12082619Y-11336809D01*
X12196905Y-11203476D02*
X12215952Y-11203476D01*
X12235000Y-11213000D01*
X12244524Y-11222524D01*
X12254048Y-11241571D01*
X12263571Y-11279667D01*
X12263571Y-11327286D01*
X12254048Y-11365381D01*
X12244524Y-11384428D01*
X12235000Y-11393952D01*
X12215952Y-11403476D01*
X12196905Y-11403476D01*
X12177857Y-11393952D01*
X12168333Y-11384428D01*
X12158809Y-11365381D01*
X12149286Y-11327286D01*
X12149286Y-11279667D01*
X12158809Y-11241571D01*
X12168333Y-11222524D01*
X12177857Y-11213000D01*
X12196905Y-11203476D01*
X12387381Y-11203476D02*
X12406428Y-11203476D01*
X12425476Y-11213000D01*
X12435000Y-11222524D01*
X12444524Y-11241571D01*
X12454048Y-11279667D01*
X12454048Y-11327286D01*
X12444524Y-11365381D01*
X12435000Y-11384428D01*
X12425476Y-11393952D01*
X12406428Y-11403476D01*
X12387381Y-11403476D01*
X12368333Y-11393952D01*
X12358809Y-11384428D01*
X12349286Y-11365381D01*
X12339762Y-11327286D01*
X12339762Y-11279667D01*
X12349286Y-11241571D01*
X12358809Y-11222524D01*
X12368333Y-11213000D01*
X12387381Y-11203476D01*
X12539762Y-11403476D02*
X12539762Y-11270143D01*
X12539762Y-11289190D02*
X12549286Y-11279667D01*
X12568333Y-11270143D01*
X12596905Y-11270143D01*
X12615952Y-11279667D01*
X12625476Y-11298714D01*
X12625476Y-11403476D01*
X12625476Y-11298714D02*
X12635000Y-11279667D01*
X12654048Y-11270143D01*
X12682619Y-11270143D01*
X12701667Y-11279667D01*
X12711190Y-11298714D01*
X12711190Y-11403476D01*
X12806428Y-11403476D02*
X12806428Y-11270143D01*
X12806428Y-11289190D02*
X12815952Y-11279667D01*
X12835000Y-11270143D01*
X12863571Y-11270143D01*
X12882619Y-11279667D01*
X12892143Y-11298714D01*
X12892143Y-11403476D01*
X12892143Y-11298714D02*
X12901667Y-11279667D01*
X12920714Y-11270143D01*
X12949286Y-11270143D01*
X12968333Y-11279667D01*
X12977857Y-11298714D01*
X12977857Y-11403476D01*
X13368333Y-11193952D02*
X13196905Y-11451095D01*
X13625476Y-11203476D02*
X13644524Y-11203476D01*
X13663571Y-11213000D01*
X13673095Y-11222524D01*
X13682619Y-11241571D01*
X13692143Y-11279667D01*
X13692143Y-11327286D01*
X13682619Y-11365381D01*
X13673095Y-11384428D01*
X13663571Y-11393952D01*
X13644524Y-11403476D01*
X13625476Y-11403476D01*
X13606428Y-11393952D01*
X13596905Y-11384428D01*
X13587381Y-11365381D01*
X13577857Y-11327286D01*
X13577857Y-11279667D01*
X13587381Y-11241571D01*
X13596905Y-11222524D01*
X13606428Y-11213000D01*
X13625476Y-11203476D01*
X13777857Y-11384428D02*
X13787381Y-11393952D01*
X13777857Y-11403476D01*
X13768333Y-11393952D01*
X13777857Y-11384428D01*
X13777857Y-11403476D01*
X13911190Y-11203476D02*
X13930238Y-11203476D01*
X13949286Y-11213000D01*
X13958809Y-11222524D01*
X13968333Y-11241571D01*
X13977857Y-11279667D01*
X13977857Y-11327286D01*
X13968333Y-11365381D01*
X13958809Y-11384428D01*
X13949286Y-11393952D01*
X13930238Y-11403476D01*
X13911190Y-11403476D01*
X13892143Y-11393952D01*
X13882619Y-11384428D01*
X13873095Y-11365381D01*
X13863571Y-11327286D01*
X13863571Y-11279667D01*
X13873095Y-11241571D01*
X13882619Y-11222524D01*
X13892143Y-11213000D01*
X13911190Y-11203476D01*
X14168333Y-11403476D02*
X14054048Y-11403476D01*
X14111190Y-11403476D02*
X14111190Y-11203476D01*
X14092143Y-11232048D01*
X14073095Y-11251095D01*
X14054048Y-11260619D01*
X14349286Y-11203476D02*
X14254048Y-11203476D01*
X14244524Y-11298714D01*
X14254048Y-11289190D01*
X14273095Y-11279667D01*
X14320714Y-11279667D01*
X14339762Y-11289190D01*
X14349286Y-11298714D01*
X14358809Y-11317762D01*
X14358809Y-11365381D01*
X14349286Y-11384428D01*
X14339762Y-11393952D01*
X14320714Y-11403476D01*
X14273095Y-11403476D01*
X14254048Y-11393952D01*
X14244524Y-11384428D01*
X14425476Y-11203476D02*
X14558809Y-11203476D01*
X14473095Y-11403476D01*
X14625476Y-11203476D02*
X14625476Y-11241571D01*
X14701667Y-11203476D02*
X14701667Y-11241571D01*
X14996905Y-11479667D02*
X14987381Y-11470143D01*
X14968333Y-11441571D01*
X14958809Y-11422524D01*
X14949286Y-11393952D01*
X14939762Y-11346333D01*
X14939762Y-11308238D01*
X14949286Y-11260619D01*
X14958809Y-11232048D01*
X14968333Y-11213000D01*
X14987381Y-11184429D01*
X14996905Y-11174905D01*
X15158809Y-11203476D02*
X15120714Y-11203476D01*
X15101667Y-11213000D01*
X15092143Y-11222524D01*
X15073095Y-11251095D01*
X15063571Y-11289190D01*
X15063571Y-11365381D01*
X15073095Y-11384428D01*
X15082619Y-11393952D01*
X15101667Y-11403476D01*
X15139762Y-11403476D01*
X15158809Y-11393952D01*
X15168333Y-11384428D01*
X15177857Y-11365381D01*
X15177857Y-11317762D01*
X15168333Y-11298714D01*
X15158809Y-11289190D01*
X15139762Y-11279667D01*
X15101667Y-11279667D01*
X15082619Y-11289190D01*
X15073095Y-11298714D01*
X15063571Y-11317762D01*
X15415952Y-11403476D02*
X15415952Y-11203476D01*
X15501667Y-11403476D02*
X15501667Y-11298714D01*
X15492143Y-11279667D01*
X15473095Y-11270143D01*
X15444524Y-11270143D01*
X15425476Y-11279667D01*
X15415952Y-11289190D01*
X15625476Y-11403476D02*
X15606428Y-11393952D01*
X15596905Y-11384428D01*
X15587381Y-11365381D01*
X15587381Y-11308238D01*
X15596905Y-11289190D01*
X15606428Y-11279667D01*
X15625476Y-11270143D01*
X15654048Y-11270143D01*
X15673095Y-11279667D01*
X15682619Y-11289190D01*
X15692143Y-11308238D01*
X15692143Y-11365381D01*
X15682619Y-11384428D01*
X15673095Y-11393952D01*
X15654048Y-11403476D01*
X15625476Y-11403476D01*
X15806428Y-11403476D02*
X15787381Y-11393952D01*
X15777857Y-11374905D01*
X15777857Y-11203476D01*
X15958809Y-11393952D02*
X15939762Y-11403476D01*
X15901667Y-11403476D01*
X15882619Y-11393952D01*
X15873095Y-11374905D01*
X15873095Y-11298714D01*
X15882619Y-11279667D01*
X15901667Y-11270143D01*
X15939762Y-11270143D01*
X15958809Y-11279667D01*
X15968333Y-11298714D01*
X15968333Y-11317762D01*
X15873095Y-11336809D01*
X16044524Y-11393952D02*
X16063571Y-11403476D01*
X16101667Y-11403476D01*
X16120714Y-11393952D01*
X16130238Y-11374905D01*
X16130238Y-11365381D01*
X16120714Y-11346333D01*
X16101667Y-11336809D01*
X16073095Y-11336809D01*
X16054048Y-11327286D01*
X16044524Y-11308238D01*
X16044524Y-11298714D01*
X16054048Y-11279667D01*
X16073095Y-11270143D01*
X16101667Y-11270143D01*
X16120714Y-11279667D01*
X16196905Y-11479667D02*
X16206428Y-11470143D01*
X16225476Y-11441571D01*
X16235000Y-11422524D01*
X16244524Y-11393952D01*
X16254048Y-11346333D01*
X16254048Y-11308238D01*
X16244524Y-11260619D01*
X16235000Y-11232048D01*
X16225476Y-11213000D01*
X16206428Y-11184429D01*
X16196905Y-11174905D01*
D13*
X11425000Y-11577000D02*
G75*
G03*
X11425000Y-11577000I-35000J0D01*
G01*
D11*
X11720714Y-11467476D02*
X11739762Y-11467476D01*
X11758809Y-11477000D01*
X11768333Y-11486524D01*
X11777857Y-11505571D01*
X11787381Y-11543667D01*
X11787381Y-11591286D01*
X11777857Y-11629381D01*
X11768333Y-11648428D01*
X11758809Y-11657952D01*
X11739762Y-11667476D01*
X11720714Y-11667476D01*
X11701667Y-11657952D01*
X11692143Y-11648428D01*
X11682619Y-11629381D01*
X11673095Y-11591286D01*
X11673095Y-11543667D01*
X11682619Y-11505571D01*
X11692143Y-11486524D01*
X11701667Y-11477000D01*
X11720714Y-11467476D01*
X11873095Y-11648428D02*
X11882619Y-11657952D01*
X11873095Y-11667476D01*
X11863571Y-11657952D01*
X11873095Y-11648428D01*
X11873095Y-11667476D01*
X11949286Y-11467476D02*
X12082619Y-11467476D01*
X11996905Y-11667476D01*
X12196905Y-11467476D02*
X12215952Y-11467476D01*
X12235000Y-11477000D01*
X12244524Y-11486524D01*
X12254048Y-11505571D01*
X12263571Y-11543667D01*
X12263571Y-11591286D01*
X12254048Y-11629381D01*
X12244524Y-11648428D01*
X12235000Y-11657952D01*
X12215952Y-11667476D01*
X12196905Y-11667476D01*
X12177857Y-11657952D01*
X12168333Y-11648428D01*
X12158809Y-11629381D01*
X12149286Y-11591286D01*
X12149286Y-11543667D01*
X12158809Y-11505571D01*
X12168333Y-11486524D01*
X12177857Y-11477000D01*
X12196905Y-11467476D01*
X12387381Y-11467476D02*
X12406428Y-11467476D01*
X12425476Y-11477000D01*
X12435000Y-11486524D01*
X12444524Y-11505571D01*
X12454048Y-11543667D01*
X12454048Y-11591286D01*
X12444524Y-11629381D01*
X12435000Y-11648428D01*
X12425476Y-11657952D01*
X12406428Y-11667476D01*
X12387381Y-11667476D01*
X12368333Y-11657952D01*
X12358809Y-11648428D01*
X12349286Y-11629381D01*
X12339762Y-11591286D01*
X12339762Y-11543667D01*
X12349286Y-11505571D01*
X12358809Y-11486524D01*
X12368333Y-11477000D01*
X12387381Y-11467476D01*
X12539762Y-11667476D02*
X12539762Y-11534143D01*
X12539762Y-11553190D02*
X12549286Y-11543667D01*
X12568333Y-11534143D01*
X12596905Y-11534143D01*
X12615952Y-11543667D01*
X12625476Y-11562714D01*
X12625476Y-11667476D01*
X12625476Y-11562714D02*
X12635000Y-11543667D01*
X12654048Y-11534143D01*
X12682619Y-11534143D01*
X12701667Y-11543667D01*
X12711190Y-11562714D01*
X12711190Y-11667476D01*
X12806428Y-11667476D02*
X12806428Y-11534143D01*
X12806428Y-11553190D02*
X12815952Y-11543667D01*
X12835000Y-11534143D01*
X12863571Y-11534143D01*
X12882619Y-11543667D01*
X12892143Y-11562714D01*
X12892143Y-11667476D01*
X12892143Y-11562714D02*
X12901667Y-11543667D01*
X12920714Y-11534143D01*
X12949286Y-11534143D01*
X12968333Y-11543667D01*
X12977857Y-11562714D01*
X12977857Y-11667476D01*
X13368333Y-11457952D02*
X13196905Y-11715095D01*
X13625476Y-11467476D02*
X13644524Y-11467476D01*
X13663571Y-11477000D01*
X13673095Y-11486524D01*
X13682619Y-11505571D01*
X13692143Y-11543667D01*
X13692143Y-11591286D01*
X13682619Y-11629381D01*
X13673095Y-11648428D01*
X13663571Y-11657952D01*
X13644524Y-11667476D01*
X13625476Y-11667476D01*
X13606428Y-11657952D01*
X13596905Y-11648428D01*
X13587381Y-11629381D01*
X13577857Y-11591286D01*
X13577857Y-11543667D01*
X13587381Y-11505571D01*
X13596905Y-11486524D01*
X13606428Y-11477000D01*
X13625476Y-11467476D01*
X13777857Y-11648428D02*
X13787381Y-11657952D01*
X13777857Y-11667476D01*
X13768333Y-11657952D01*
X13777857Y-11648428D01*
X13777857Y-11667476D01*
X13911190Y-11467476D02*
X13930238Y-11467476D01*
X13949286Y-11477000D01*
X13958809Y-11486524D01*
X13968333Y-11505571D01*
X13977857Y-11543667D01*
X13977857Y-11591286D01*
X13968333Y-11629381D01*
X13958809Y-11648428D01*
X13949286Y-11657952D01*
X13930238Y-11667476D01*
X13911190Y-11667476D01*
X13892143Y-11657952D01*
X13882619Y-11648428D01*
X13873095Y-11629381D01*
X13863571Y-11591286D01*
X13863571Y-11543667D01*
X13873095Y-11505571D01*
X13882619Y-11486524D01*
X13892143Y-11477000D01*
X13911190Y-11467476D01*
X14054048Y-11486524D02*
X14063571Y-11477000D01*
X14082619Y-11467476D01*
X14130238Y-11467476D01*
X14149286Y-11477000D01*
X14158809Y-11486524D01*
X14168333Y-11505571D01*
X14168333Y-11524619D01*
X14158809Y-11553190D01*
X14044524Y-11667476D01*
X14168333Y-11667476D01*
X14235000Y-11467476D02*
X14368333Y-11467476D01*
X14282619Y-11667476D01*
X14530238Y-11467476D02*
X14492143Y-11467476D01*
X14473095Y-11477000D01*
X14463571Y-11486524D01*
X14444524Y-11515095D01*
X14435000Y-11553190D01*
X14435000Y-11629381D01*
X14444524Y-11648428D01*
X14454048Y-11657952D01*
X14473095Y-11667476D01*
X14511190Y-11667476D01*
X14530238Y-11657952D01*
X14539762Y-11648428D01*
X14549286Y-11629381D01*
X14549286Y-11581762D01*
X14539762Y-11562714D01*
X14530238Y-11553190D01*
X14511190Y-11543667D01*
X14473095Y-11543667D01*
X14454048Y-11553190D01*
X14444524Y-11562714D01*
X14435000Y-11581762D01*
X14625476Y-11467476D02*
X14625476Y-11505571D01*
X14701667Y-11467476D02*
X14701667Y-11505571D01*
X14996905Y-11743667D02*
X14987381Y-11734143D01*
X14968333Y-11705571D01*
X14958809Y-11686524D01*
X14949286Y-11657952D01*
X14939762Y-11610333D01*
X14939762Y-11572238D01*
X14949286Y-11524619D01*
X14958809Y-11496048D01*
X14968333Y-11477000D01*
X14987381Y-11448428D01*
X14996905Y-11438905D01*
X15158809Y-11467476D02*
X15120714Y-11467476D01*
X15101667Y-11477000D01*
X15092143Y-11486524D01*
X15073095Y-11515095D01*
X15063571Y-11553190D01*
X15063571Y-11629381D01*
X15073095Y-11648428D01*
X15082619Y-11657952D01*
X15101667Y-11667476D01*
X15139762Y-11667476D01*
X15158809Y-11657952D01*
X15168333Y-11648428D01*
X15177857Y-11629381D01*
X15177857Y-11581762D01*
X15168333Y-11562714D01*
X15158809Y-11553190D01*
X15139762Y-11543667D01*
X15101667Y-11543667D01*
X15082619Y-11553190D01*
X15073095Y-11562714D01*
X15063571Y-11581762D01*
X15349286Y-11534143D02*
X15349286Y-11667476D01*
X15301667Y-11457952D02*
X15254048Y-11600809D01*
X15377857Y-11600809D01*
X15606428Y-11667476D02*
X15606428Y-11467476D01*
X15692143Y-11667476D02*
X15692143Y-11562714D01*
X15682619Y-11543667D01*
X15663571Y-11534143D01*
X15635000Y-11534143D01*
X15615952Y-11543667D01*
X15606428Y-11553190D01*
X15815952Y-11667476D02*
X15796905Y-11657952D01*
X15787381Y-11648428D01*
X15777857Y-11629381D01*
X15777857Y-11572238D01*
X15787381Y-11553190D01*
X15796905Y-11543667D01*
X15815952Y-11534143D01*
X15844524Y-11534143D01*
X15863571Y-11543667D01*
X15873095Y-11553190D01*
X15882619Y-11572238D01*
X15882619Y-11629381D01*
X15873095Y-11648428D01*
X15863571Y-11657952D01*
X15844524Y-11667476D01*
X15815952Y-11667476D01*
X15996905Y-11667476D02*
X15977857Y-11657952D01*
X15968333Y-11638905D01*
X15968333Y-11467476D01*
X16149286Y-11657952D02*
X16130238Y-11667476D01*
X16092143Y-11667476D01*
X16073095Y-11657952D01*
X16063571Y-11638905D01*
X16063571Y-11562714D01*
X16073095Y-11543667D01*
X16092143Y-11534143D01*
X16130238Y-11534143D01*
X16149286Y-11543667D01*
X16158809Y-11562714D01*
X16158809Y-11581762D01*
X16063571Y-11600809D01*
X16235000Y-11657952D02*
X16254048Y-11667476D01*
X16292143Y-11667476D01*
X16311190Y-11657952D01*
X16320714Y-11638905D01*
X16320714Y-11629381D01*
X16311190Y-11610333D01*
X16292143Y-11600809D01*
X16263571Y-11600809D01*
X16244524Y-11591286D01*
X16235000Y-11572238D01*
X16235000Y-11562714D01*
X16244524Y-11543667D01*
X16263571Y-11534143D01*
X16292143Y-11534143D01*
X16311190Y-11543667D01*
X16387381Y-11743667D02*
X16396905Y-11734143D01*
X16415952Y-11705571D01*
X16425476Y-11686524D01*
X16435000Y-11657952D01*
X16444524Y-11610333D01*
X16444524Y-11572238D01*
X16435000Y-11524619D01*
X16425476Y-11496048D01*
X16415952Y-11477000D01*
X16396905Y-11448428D01*
X16387381Y-11438905D01*
D14*
X11385000Y-11801000D02*
X11385000Y-11881000D01*
X11345000Y-11841000D02*
X11425000Y-11841000D01*
D11*
X11720714Y-11731476D02*
X11739762Y-11731476D01*
X11758809Y-11741000D01*
X11768333Y-11750524D01*
X11777857Y-11769571D01*
X11787381Y-11807667D01*
X11787381Y-11855286D01*
X11777857Y-11893381D01*
X11768333Y-11912428D01*
X11758809Y-11921952D01*
X11739762Y-11931476D01*
X11720714Y-11931476D01*
X11701667Y-11921952D01*
X11692143Y-11912428D01*
X11682619Y-11893381D01*
X11673095Y-11855286D01*
X11673095Y-11807667D01*
X11682619Y-11769571D01*
X11692143Y-11750524D01*
X11701667Y-11741000D01*
X11720714Y-11731476D01*
X11873095Y-11912428D02*
X11882619Y-11921952D01*
X11873095Y-11931476D01*
X11863571Y-11921952D01*
X11873095Y-11912428D01*
X11873095Y-11931476D01*
X11996905Y-11817190D02*
X11977857Y-11807667D01*
X11968333Y-11798143D01*
X11958809Y-11779095D01*
X11958809Y-11769571D01*
X11968333Y-11750524D01*
X11977857Y-11741000D01*
X11996905Y-11731476D01*
X12035000Y-11731476D01*
X12054048Y-11741000D01*
X12063571Y-11750524D01*
X12073095Y-11769571D01*
X12073095Y-11779095D01*
X12063571Y-11798143D01*
X12054048Y-11807667D01*
X12035000Y-11817190D01*
X11996905Y-11817190D01*
X11977857Y-11826714D01*
X11968333Y-11836238D01*
X11958809Y-11855286D01*
X11958809Y-11893381D01*
X11968333Y-11912428D01*
X11977857Y-11921952D01*
X11996905Y-11931476D01*
X12035000Y-11931476D01*
X12054048Y-11921952D01*
X12063571Y-11912428D01*
X12073095Y-11893381D01*
X12073095Y-11855286D01*
X12063571Y-11836238D01*
X12054048Y-11826714D01*
X12035000Y-11817190D01*
X12196905Y-11731476D02*
X12215952Y-11731476D01*
X12235000Y-11741000D01*
X12244524Y-11750524D01*
X12254048Y-11769571D01*
X12263571Y-11807667D01*
X12263571Y-11855286D01*
X12254048Y-11893381D01*
X12244524Y-11912428D01*
X12235000Y-11921952D01*
X12215952Y-11931476D01*
X12196905Y-11931476D01*
X12177857Y-11921952D01*
X12168333Y-11912428D01*
X12158809Y-11893381D01*
X12149286Y-11855286D01*
X12149286Y-11807667D01*
X12158809Y-11769571D01*
X12168333Y-11750524D01*
X12177857Y-11741000D01*
X12196905Y-11731476D01*
X12387381Y-11731476D02*
X12406428Y-11731476D01*
X12425476Y-11741000D01*
X12435000Y-11750524D01*
X12444524Y-11769571D01*
X12454048Y-11807667D01*
X12454048Y-11855286D01*
X12444524Y-11893381D01*
X12435000Y-11912428D01*
X12425476Y-11921952D01*
X12406428Y-11931476D01*
X12387381Y-11931476D01*
X12368333Y-11921952D01*
X12358809Y-11912428D01*
X12349286Y-11893381D01*
X12339762Y-11855286D01*
X12339762Y-11807667D01*
X12349286Y-11769571D01*
X12358809Y-11750524D01*
X12368333Y-11741000D01*
X12387381Y-11731476D01*
X12539762Y-11931476D02*
X12539762Y-11798143D01*
X12539762Y-11817190D02*
X12549286Y-11807667D01*
X12568333Y-11798143D01*
X12596905Y-11798143D01*
X12615952Y-11807667D01*
X12625476Y-11826714D01*
X12625476Y-11931476D01*
X12625476Y-11826714D02*
X12635000Y-11807667D01*
X12654048Y-11798143D01*
X12682619Y-11798143D01*
X12701667Y-11807667D01*
X12711190Y-11826714D01*
X12711190Y-11931476D01*
X12806428Y-11931476D02*
X12806428Y-11798143D01*
X12806428Y-11817190D02*
X12815952Y-11807667D01*
X12835000Y-11798143D01*
X12863571Y-11798143D01*
X12882619Y-11807667D01*
X12892143Y-11826714D01*
X12892143Y-11931476D01*
X12892143Y-11826714D02*
X12901667Y-11807667D01*
X12920714Y-11798143D01*
X12949286Y-11798143D01*
X12968333Y-11807667D01*
X12977857Y-11826714D01*
X12977857Y-11931476D01*
X13368333Y-11721952D02*
X13196905Y-11979095D01*
X13625476Y-11731476D02*
X13644524Y-11731476D01*
X13663571Y-11741000D01*
X13673095Y-11750524D01*
X13682619Y-11769571D01*
X13692143Y-11807667D01*
X13692143Y-11855286D01*
X13682619Y-11893381D01*
X13673095Y-11912428D01*
X13663571Y-11921952D01*
X13644524Y-11931476D01*
X13625476Y-11931476D01*
X13606428Y-11921952D01*
X13596905Y-11912428D01*
X13587381Y-11893381D01*
X13577857Y-11855286D01*
X13577857Y-11807667D01*
X13587381Y-11769571D01*
X13596905Y-11750524D01*
X13606428Y-11741000D01*
X13625476Y-11731476D01*
X13777857Y-11912428D02*
X13787381Y-11921952D01*
X13777857Y-11931476D01*
X13768333Y-11921952D01*
X13777857Y-11912428D01*
X13777857Y-11931476D01*
X13911190Y-11731476D02*
X13930238Y-11731476D01*
X13949286Y-11741000D01*
X13958809Y-11750524D01*
X13968333Y-11769571D01*
X13977857Y-11807667D01*
X13977857Y-11855286D01*
X13968333Y-11893381D01*
X13958809Y-11912428D01*
X13949286Y-11921952D01*
X13930238Y-11931476D01*
X13911190Y-11931476D01*
X13892143Y-11921952D01*
X13882619Y-11912428D01*
X13873095Y-11893381D01*
X13863571Y-11855286D01*
X13863571Y-11807667D01*
X13873095Y-11769571D01*
X13882619Y-11750524D01*
X13892143Y-11741000D01*
X13911190Y-11731476D01*
X14044524Y-11731476D02*
X14168333Y-11731476D01*
X14101667Y-11807667D01*
X14130238Y-11807667D01*
X14149286Y-11817190D01*
X14158809Y-11826714D01*
X14168333Y-11845762D01*
X14168333Y-11893381D01*
X14158809Y-11912428D01*
X14149286Y-11921952D01*
X14130238Y-11931476D01*
X14073095Y-11931476D01*
X14054048Y-11921952D01*
X14044524Y-11912428D01*
X14358809Y-11931476D02*
X14244524Y-11931476D01*
X14301667Y-11931476D02*
X14301667Y-11731476D01*
X14282619Y-11760048D01*
X14263571Y-11779095D01*
X14244524Y-11788619D01*
X14539762Y-11731476D02*
X14444524Y-11731476D01*
X14435000Y-11826714D01*
X14444524Y-11817190D01*
X14463571Y-11807667D01*
X14511190Y-11807667D01*
X14530238Y-11817190D01*
X14539762Y-11826714D01*
X14549286Y-11845762D01*
X14549286Y-11893381D01*
X14539762Y-11912428D01*
X14530238Y-11921952D01*
X14511190Y-11931476D01*
X14463571Y-11931476D01*
X14444524Y-11921952D01*
X14435000Y-11912428D01*
X14625476Y-11731476D02*
X14625476Y-11769571D01*
X14701667Y-11731476D02*
X14701667Y-11769571D01*
X14996905Y-12007667D02*
X14987381Y-11998143D01*
X14968333Y-11969571D01*
X14958809Y-11950524D01*
X14949286Y-11921952D01*
X14939762Y-11874333D01*
X14939762Y-11836238D01*
X14949286Y-11788619D01*
X14958809Y-11760048D01*
X14968333Y-11741000D01*
X14987381Y-11712428D01*
X14996905Y-11702905D01*
X15158809Y-11798143D02*
X15158809Y-11931476D01*
X15111190Y-11721952D02*
X15063571Y-11864809D01*
X15187381Y-11864809D01*
X15301667Y-11731476D02*
X15320714Y-11731476D01*
X15339762Y-11741000D01*
X15349286Y-11750524D01*
X15358809Y-11769571D01*
X15368333Y-11807667D01*
X15368333Y-11855286D01*
X15358809Y-11893381D01*
X15349286Y-11912428D01*
X15339762Y-11921952D01*
X15320714Y-11931476D01*
X15301667Y-11931476D01*
X15282619Y-11921952D01*
X15273095Y-11912428D01*
X15263571Y-11893381D01*
X15254048Y-11855286D01*
X15254048Y-11807667D01*
X15263571Y-11769571D01*
X15273095Y-11750524D01*
X15282619Y-11741000D01*
X15301667Y-11731476D01*
X15606428Y-11931476D02*
X15606428Y-11731476D01*
X15692143Y-11931476D02*
X15692143Y-11826714D01*
X15682619Y-11807667D01*
X15663571Y-11798143D01*
X15635000Y-11798143D01*
X15615952Y-11807667D01*
X15606428Y-11817190D01*
X15815952Y-11931476D02*
X15796905Y-11921952D01*
X15787381Y-11912428D01*
X15777857Y-11893381D01*
X15777857Y-11836238D01*
X15787381Y-11817190D01*
X15796905Y-11807667D01*
X15815952Y-11798143D01*
X15844524Y-11798143D01*
X15863571Y-11807667D01*
X15873095Y-11817190D01*
X15882619Y-11836238D01*
X15882619Y-11893381D01*
X15873095Y-11912428D01*
X15863571Y-11921952D01*
X15844524Y-11931476D01*
X15815952Y-11931476D01*
X15996905Y-11931476D02*
X15977857Y-11921952D01*
X15968333Y-11902905D01*
X15968333Y-11731476D01*
X16149286Y-11921952D02*
X16130238Y-11931476D01*
X16092143Y-11931476D01*
X16073095Y-11921952D01*
X16063571Y-11902905D01*
X16063571Y-11826714D01*
X16073095Y-11807667D01*
X16092143Y-11798143D01*
X16130238Y-11798143D01*
X16149286Y-11807667D01*
X16158809Y-11826714D01*
X16158809Y-11845762D01*
X16063571Y-11864809D01*
X16235000Y-11921952D02*
X16254048Y-11931476D01*
X16292143Y-11931476D01*
X16311190Y-11921952D01*
X16320714Y-11902905D01*
X16320714Y-11893381D01*
X16311190Y-11874333D01*
X16292143Y-11864809D01*
X16263571Y-11864809D01*
X16244524Y-11855286D01*
X16235000Y-11836238D01*
X16235000Y-11826714D01*
X16244524Y-11807667D01*
X16263571Y-11798143D01*
X16292143Y-11798143D01*
X16311190Y-11807667D01*
X16387381Y-12007667D02*
X16396905Y-11998143D01*
X16415952Y-11969571D01*
X16425476Y-11950524D01*
X16435000Y-11921952D01*
X16444524Y-11874333D01*
X16444524Y-11836238D01*
X16435000Y-11788619D01*
X16425476Y-11760048D01*
X16415952Y-11741000D01*
X16396905Y-11712428D01*
X16387381Y-11702905D01*
M02*
