G04 #@! TF.GenerationSoftware,KiCad,Pcbnew,(6.0.0)*
G04 #@! TF.CreationDate,2023-01-29T20:40:06-05:00*
G04 #@! TF.ProjectId,tms7000 64 pin narrow adapter,746d7337-3030-4302-9036-342070696e20,rev?*
G04 #@! TF.SameCoordinates,Original*
G04 #@! TF.FileFunction,Legend,Top*
G04 #@! TF.FilePolarity,Positive*
%FSLAX46Y46*%
G04 Gerber Fmt 4.6, Leading zero omitted, Abs format (unit mm)*
G04 Created by KiCad (PCBNEW (6.0.0)) date 2023-01-29 20:40:06*
%MOMM*%
%LPD*%
G01*
G04 APERTURE LIST*
%ADD10C,0.150000*%
%ADD11C,0.130000*%
%ADD12C,0.254000*%
%ADD13C,0.120000*%
%ADD14C,0.200000*%
%ADD15R,1.600000X1.600000*%
%ADD16O,1.600000X1.600000*%
%ADD17R,1.100000X1.100000*%
%ADD18C,1.100000*%
G04 APERTURE END LIST*
D10*
X117773380Y-74104095D02*
X117773380Y-73532666D01*
X118773380Y-73818380D02*
X117773380Y-73818380D01*
X118773380Y-73199333D02*
X117773380Y-73199333D01*
X118487666Y-72866000D01*
X117773380Y-72532666D01*
X118773380Y-72532666D01*
X118725761Y-72104095D02*
X118773380Y-71961238D01*
X118773380Y-71723142D01*
X118725761Y-71627904D01*
X118678142Y-71580285D01*
X118582904Y-71532666D01*
X118487666Y-71532666D01*
X118392428Y-71580285D01*
X118344809Y-71627904D01*
X118297190Y-71723142D01*
X118249571Y-71913619D01*
X118201952Y-72008857D01*
X118154333Y-72056476D01*
X118059095Y-72104095D01*
X117963857Y-72104095D01*
X117868619Y-72056476D01*
X117821000Y-72008857D01*
X117773380Y-71913619D01*
X117773380Y-71675523D01*
X117821000Y-71532666D01*
X117773380Y-71199333D02*
X117773380Y-70532666D01*
X118773380Y-70961238D01*
X117773380Y-69961238D02*
X117773380Y-69866000D01*
X117821000Y-69770761D01*
X117868619Y-69723142D01*
X117963857Y-69675523D01*
X118154333Y-69627904D01*
X118392428Y-69627904D01*
X118582904Y-69675523D01*
X118678142Y-69723142D01*
X118725761Y-69770761D01*
X118773380Y-69866000D01*
X118773380Y-69961238D01*
X118725761Y-70056476D01*
X118678142Y-70104095D01*
X118582904Y-70151714D01*
X118392428Y-70199333D01*
X118154333Y-70199333D01*
X117963857Y-70151714D01*
X117868619Y-70104095D01*
X117821000Y-70056476D01*
X117773380Y-69961238D01*
X117773380Y-69008857D02*
X117773380Y-68913619D01*
X117821000Y-68818380D01*
X117868619Y-68770761D01*
X117963857Y-68723142D01*
X118154333Y-68675523D01*
X118392428Y-68675523D01*
X118582904Y-68723142D01*
X118678142Y-68770761D01*
X118725761Y-68818380D01*
X118773380Y-68913619D01*
X118773380Y-69008857D01*
X118725761Y-69104095D01*
X118678142Y-69151714D01*
X118582904Y-69199333D01*
X118392428Y-69246952D01*
X118154333Y-69246952D01*
X117963857Y-69199333D01*
X117868619Y-69151714D01*
X117821000Y-69104095D01*
X117773380Y-69008857D01*
X117773380Y-68056476D02*
X117773380Y-67961238D01*
X117821000Y-67866000D01*
X117868619Y-67818380D01*
X117963857Y-67770761D01*
X118154333Y-67723142D01*
X118392428Y-67723142D01*
X118582904Y-67770761D01*
X118678142Y-67818380D01*
X118725761Y-67866000D01*
X118773380Y-67961238D01*
X118773380Y-68056476D01*
X118725761Y-68151714D01*
X118678142Y-68199333D01*
X118582904Y-68246952D01*
X118392428Y-68294571D01*
X118154333Y-68294571D01*
X117963857Y-68246952D01*
X117868619Y-68199333D01*
X117821000Y-68151714D01*
X117773380Y-68056476D01*
X119716714Y-73127904D02*
X119716714Y-72746952D01*
X119383380Y-72985047D02*
X120240523Y-72985047D01*
X120335761Y-72937428D01*
X120383380Y-72842190D01*
X120383380Y-72746952D01*
X120383380Y-72270761D02*
X120335761Y-72366000D01*
X120288142Y-72413619D01*
X120192904Y-72461238D01*
X119907190Y-72461238D01*
X119811952Y-72413619D01*
X119764333Y-72366000D01*
X119716714Y-72270761D01*
X119716714Y-72127904D01*
X119764333Y-72032666D01*
X119811952Y-71985047D01*
X119907190Y-71937428D01*
X120192904Y-71937428D01*
X120288142Y-71985047D01*
X120335761Y-72032666D01*
X120383380Y-72127904D01*
X120383380Y-72270761D01*
X120383380Y-70746952D02*
X119383380Y-70746952D01*
X119383380Y-70508857D01*
X119431000Y-70366000D01*
X119526238Y-70270761D01*
X119621476Y-70223142D01*
X119811952Y-70175523D01*
X119954809Y-70175523D01*
X120145285Y-70223142D01*
X120240523Y-70270761D01*
X120335761Y-70366000D01*
X120383380Y-70508857D01*
X120383380Y-70746952D01*
X120383380Y-69746952D02*
X119383380Y-69746952D01*
X120383380Y-69270761D02*
X119383380Y-69270761D01*
X119383380Y-68889809D01*
X119431000Y-68794571D01*
X119478619Y-68746952D01*
X119573857Y-68699333D01*
X119716714Y-68699333D01*
X119811952Y-68746952D01*
X119859571Y-68794571D01*
X119907190Y-68889809D01*
X119907190Y-69270761D01*
D11*
X117908642Y-91910000D02*
X117908642Y-91824285D01*
X117951500Y-91738571D01*
X117994357Y-91695714D01*
X118080071Y-91652857D01*
X118251500Y-91610000D01*
X118465785Y-91610000D01*
X118637214Y-91652857D01*
X118722928Y-91695714D01*
X118765785Y-91738571D01*
X118808642Y-91824285D01*
X118808642Y-91910000D01*
X118765785Y-91995714D01*
X118722928Y-92038571D01*
X118637214Y-92081428D01*
X118465785Y-92124285D01*
X118251500Y-92124285D01*
X118080071Y-92081428D01*
X117994357Y-92038571D01*
X117951500Y-91995714D01*
X117908642Y-91910000D01*
X118722928Y-91224285D02*
X118765785Y-91181428D01*
X118808642Y-91224285D01*
X118765785Y-91267142D01*
X118722928Y-91224285D01*
X118808642Y-91224285D01*
X117908642Y-90881428D02*
X117908642Y-90281428D01*
X118808642Y-90667142D01*
X117908642Y-89981428D02*
X118080071Y-89981428D01*
X117908642Y-89638571D02*
X118080071Y-89638571D01*
X118208642Y-88567142D02*
X119108642Y-88567142D01*
X118251500Y-88567142D02*
X118208642Y-88481428D01*
X118208642Y-88310000D01*
X118251500Y-88224285D01*
X118294357Y-88181428D01*
X118380071Y-88138571D01*
X118637214Y-88138571D01*
X118722928Y-88181428D01*
X118765785Y-88224285D01*
X118808642Y-88310000D01*
X118808642Y-88481428D01*
X118765785Y-88567142D01*
X118808642Y-87752857D02*
X118208642Y-87752857D01*
X117908642Y-87752857D02*
X117951500Y-87795714D01*
X117994357Y-87752857D01*
X117951500Y-87710000D01*
X117908642Y-87752857D01*
X117994357Y-87752857D01*
X118208642Y-87452857D02*
X118208642Y-87110000D01*
X117908642Y-87324285D02*
X118680071Y-87324285D01*
X118765785Y-87281428D01*
X118808642Y-87195714D01*
X118808642Y-87110000D01*
X118765785Y-86424285D02*
X118808642Y-86510000D01*
X118808642Y-86681428D01*
X118765785Y-86767142D01*
X118722928Y-86810000D01*
X118637214Y-86852857D01*
X118380071Y-86852857D01*
X118294357Y-86810000D01*
X118251500Y-86767142D01*
X118208642Y-86681428D01*
X118208642Y-86510000D01*
X118251500Y-86424285D01*
X118808642Y-86038571D02*
X117908642Y-86038571D01*
X118808642Y-85652857D02*
X118337214Y-85652857D01*
X118251500Y-85695714D01*
X118208642Y-85781428D01*
X118208642Y-85910000D01*
X118251500Y-85995714D01*
X118294357Y-86038571D01*
X118765785Y-84581428D02*
X118808642Y-84495714D01*
X118808642Y-84324285D01*
X118765785Y-84238571D01*
X118680071Y-84195714D01*
X118637214Y-84195714D01*
X118551500Y-84238571D01*
X118508642Y-84324285D01*
X118508642Y-84452857D01*
X118465785Y-84538571D01*
X118380071Y-84581428D01*
X118337214Y-84581428D01*
X118251500Y-84538571D01*
X118208642Y-84452857D01*
X118208642Y-84324285D01*
X118251500Y-84238571D01*
X118808642Y-83681428D02*
X118765785Y-83767142D01*
X118722928Y-83810000D01*
X118637214Y-83852857D01*
X118380071Y-83852857D01*
X118294357Y-83810000D01*
X118251500Y-83767142D01*
X118208642Y-83681428D01*
X118208642Y-83552857D01*
X118251500Y-83467142D01*
X118294357Y-83424285D01*
X118380071Y-83381428D01*
X118637214Y-83381428D01*
X118722928Y-83424285D01*
X118765785Y-83467142D01*
X118808642Y-83552857D01*
X118808642Y-83681428D01*
X118765785Y-82610000D02*
X118808642Y-82695714D01*
X118808642Y-82867142D01*
X118765785Y-82952857D01*
X118722928Y-82995714D01*
X118637214Y-83038571D01*
X118380071Y-83038571D01*
X118294357Y-82995714D01*
X118251500Y-82952857D01*
X118208642Y-82867142D01*
X118208642Y-82695714D01*
X118251500Y-82610000D01*
X118808642Y-82224285D02*
X117908642Y-82224285D01*
X118465785Y-82138571D02*
X118808642Y-81881428D01*
X118208642Y-81881428D02*
X118551500Y-82224285D01*
X118765785Y-81152857D02*
X118808642Y-81238571D01*
X118808642Y-81410000D01*
X118765785Y-81495714D01*
X118680071Y-81538571D01*
X118337214Y-81538571D01*
X118251500Y-81495714D01*
X118208642Y-81410000D01*
X118208642Y-81238571D01*
X118251500Y-81152857D01*
X118337214Y-81110000D01*
X118422928Y-81110000D01*
X118508642Y-81538571D01*
X118208642Y-80852857D02*
X118208642Y-80510000D01*
X117908642Y-80724285D02*
X118680071Y-80724285D01*
X118765785Y-80681428D01*
X118808642Y-80595714D01*
X118808642Y-80510000D01*
X120257642Y-88245714D02*
X120214785Y-88331428D01*
X120171928Y-88374285D01*
X120086214Y-88417142D01*
X119829071Y-88417142D01*
X119743357Y-88374285D01*
X119700500Y-88331428D01*
X119657642Y-88245714D01*
X119657642Y-88117142D01*
X119700500Y-88031428D01*
X119743357Y-87988571D01*
X119829071Y-87945714D01*
X120086214Y-87945714D01*
X120171928Y-87988571D01*
X120214785Y-88031428D01*
X120257642Y-88117142D01*
X120257642Y-88245714D01*
X119657642Y-87560000D02*
X120257642Y-87560000D01*
X119743357Y-87560000D02*
X119700500Y-87517142D01*
X119657642Y-87431428D01*
X119657642Y-87302857D01*
X119700500Y-87217142D01*
X119786214Y-87174285D01*
X120257642Y-87174285D01*
X119657642Y-86188571D02*
X119657642Y-85845714D01*
X119357642Y-86060000D02*
X120129071Y-86060000D01*
X120214785Y-86017142D01*
X120257642Y-85931428D01*
X120257642Y-85845714D01*
X120257642Y-85417142D02*
X120214785Y-85502857D01*
X120171928Y-85545714D01*
X120086214Y-85588571D01*
X119829071Y-85588571D01*
X119743357Y-85545714D01*
X119700500Y-85502857D01*
X119657642Y-85417142D01*
X119657642Y-85288571D01*
X119700500Y-85202857D01*
X119743357Y-85160000D01*
X119829071Y-85117142D01*
X120086214Y-85117142D01*
X120171928Y-85160000D01*
X120214785Y-85202857D01*
X120257642Y-85288571D01*
X120257642Y-85417142D01*
X119657642Y-84731428D02*
X120557642Y-84731428D01*
X119700500Y-84731428D02*
X119657642Y-84645714D01*
X119657642Y-84474285D01*
X119700500Y-84388571D01*
X119743357Y-84345714D01*
X119829071Y-84302857D01*
X120086214Y-84302857D01*
X120171928Y-84345714D01*
X120214785Y-84388571D01*
X120257642Y-84474285D01*
X120257642Y-84645714D01*
X120214785Y-84731428D01*
D10*
X117633714Y-53284380D02*
X117062285Y-53284380D01*
X117348000Y-53284380D02*
X117348000Y-52284380D01*
X117252761Y-52427238D01*
X117157523Y-52522476D01*
X117062285Y-52570095D01*
D12*
X123020666Y-49596523D02*
X123020666Y-50503666D01*
X122960190Y-50685095D01*
X122839238Y-50806047D01*
X122657809Y-50866523D01*
X122536857Y-50866523D01*
X124290666Y-50866523D02*
X123564952Y-50866523D01*
X123927809Y-50866523D02*
X123927809Y-49596523D01*
X123806857Y-49777952D01*
X123685904Y-49898904D01*
X123564952Y-49959380D01*
D13*
X129645000Y-51507000D02*
X124185000Y-51507000D01*
X122185000Y-51507000D02*
X116725000Y-51507000D01*
X116725000Y-51507000D02*
X116725000Y-102427000D01*
X116725000Y-102427000D02*
X129645000Y-102427000D01*
X129645000Y-102427000D02*
X129645000Y-51507000D01*
X122185000Y-51507000D02*
G75*
G03*
X124185000Y-51507000I1000000J0D01*
G01*
D14*
X143764000Y-49283000D02*
X122244000Y-49283000D01*
X122244000Y-106419000D02*
X143764000Y-106426000D01*
X122244000Y-49283000D02*
X122244000Y-50292000D01*
G36*
X121212204Y-97842239D02*
G01*
X121240214Y-97845435D01*
X121279812Y-97849982D01*
X121325338Y-97855228D01*
X121363562Y-97859646D01*
X121417271Y-97865715D01*
X121477060Y-97872236D01*
X121533977Y-97878244D01*
X121563220Y-97881218D01*
X121605885Y-97885606D01*
X121645518Y-97889922D01*
X121676867Y-97893583D01*
X121691261Y-97895471D01*
X121723814Y-97900209D01*
X121723814Y-98687109D01*
X121691261Y-98691848D01*
X121669030Y-98694682D01*
X121634768Y-98698585D01*
X121593727Y-98702973D01*
X121563220Y-98706075D01*
X121511312Y-98711468D01*
X121451664Y-98718023D01*
X121393753Y-98724687D01*
X121367902Y-98727793D01*
X121317843Y-98733592D01*
X121264369Y-98739246D01*
X121215404Y-98743940D01*
X121191362Y-98745966D01*
X121155393Y-98749756D01*
X121128247Y-98754583D01*
X121113545Y-98759736D01*
X121112004Y-98761507D01*
X121104254Y-98787232D01*
X121092632Y-98823026D01*
X121078787Y-98864113D01*
X121064363Y-98905716D01*
X121051008Y-98943058D01*
X121040367Y-98971363D01*
X121036151Y-98981612D01*
X121019858Y-99018505D01*
X120655158Y-99018505D01*
X120563036Y-99018409D01*
X120487002Y-99018094D01*
X120425781Y-99017522D01*
X120378100Y-99016654D01*
X120342686Y-99015452D01*
X120318265Y-99013877D01*
X120303565Y-99011890D01*
X120297310Y-99009454D01*
X120297143Y-99007654D01*
X120305189Y-98995508D01*
X120320119Y-98973679D01*
X120338838Y-98946689D01*
X120340574Y-98944204D01*
X120384323Y-98875057D01*
X120425821Y-98797561D01*
X120460426Y-98720564D01*
X120467745Y-98701657D01*
X120480119Y-98665939D01*
X120492990Y-98624697D01*
X120505177Y-98582241D01*
X120515502Y-98542881D01*
X120522782Y-98510927D01*
X120525837Y-98490689D01*
X120525865Y-98489468D01*
X120531842Y-98480876D01*
X120549008Y-98461264D01*
X120576216Y-98431826D01*
X120612318Y-98393760D01*
X120656168Y-98348260D01*
X120706618Y-98296523D01*
X120762520Y-98239745D01*
X120822728Y-98179120D01*
X120845441Y-98156380D01*
X121165016Y-97836892D01*
X121212204Y-97842239D01*
G37*
G36*
X119782529Y-95986739D02*
G01*
X119785364Y-96008970D01*
X119789266Y-96043232D01*
X119793654Y-96084273D01*
X119796757Y-96114780D01*
X119802149Y-96166688D01*
X119808705Y-96226336D01*
X119815369Y-96284247D01*
X119818475Y-96310098D01*
X119824273Y-96360157D01*
X119829928Y-96413631D01*
X119834622Y-96462596D01*
X119836648Y-96486638D01*
X119840436Y-96522589D01*
X119845262Y-96549741D01*
X119850413Y-96564464D01*
X119852188Y-96566017D01*
X119884643Y-96575764D01*
X119926966Y-96589457D01*
X119972770Y-96604946D01*
X120015666Y-96620083D01*
X120041911Y-96629844D01*
X120100506Y-96652397D01*
X120100506Y-97015116D01*
X120100415Y-97092573D01*
X120100156Y-97164375D01*
X120099748Y-97228722D01*
X120099211Y-97283817D01*
X120098563Y-97327863D01*
X120097825Y-97359060D01*
X120097016Y-97375613D01*
X120096582Y-97377836D01*
X120088113Y-97373214D01*
X120069212Y-97360968D01*
X120043602Y-97343526D01*
X120037471Y-97339258D01*
X119964605Y-97293095D01*
X119884100Y-97250134D01*
X119804711Y-97214980D01*
X119792338Y-97210255D01*
X119753143Y-97196686D01*
X119709289Y-97183121D01*
X119665114Y-97170726D01*
X119624955Y-97160663D01*
X119593149Y-97154097D01*
X119575809Y-97152135D01*
X119564983Y-97145999D01*
X119542569Y-97127557D01*
X119508513Y-97096758D01*
X119462761Y-97053550D01*
X119405258Y-96997882D01*
X119335950Y-96929702D01*
X119254783Y-96848959D01*
X119242442Y-96836621D01*
X118927016Y-96521106D01*
X118932576Y-96469857D01*
X118935882Y-96440032D01*
X118940542Y-96398859D01*
X118945885Y-96352230D01*
X118950261Y-96314438D01*
X118956358Y-96260732D01*
X118962902Y-96200945D01*
X118968922Y-96144031D01*
X118971900Y-96114780D01*
X118976287Y-96072115D01*
X118980603Y-96032482D01*
X118984265Y-96001133D01*
X118986152Y-95986739D01*
X118990891Y-95954186D01*
X119777791Y-95954186D01*
X119782529Y-95986739D01*
G37*
G36*
X118231601Y-98427284D02*
G01*
X118236453Y-98447017D01*
X118238664Y-98460765D01*
X118245141Y-98496693D01*
X118255772Y-98543266D01*
X118269030Y-98594721D01*
X118283387Y-98645298D01*
X118297316Y-98689235D01*
X118304578Y-98709360D01*
X118326823Y-98761103D01*
X118355198Y-98818849D01*
X118385761Y-98874961D01*
X118413083Y-98919575D01*
X118442475Y-98963877D01*
X118442475Y-99884588D01*
X118421991Y-99898010D01*
X118402040Y-99912403D01*
X118389438Y-99923043D01*
X118378665Y-99932351D01*
X118357006Y-99950276D01*
X118327155Y-99974617D01*
X118291803Y-100003172D01*
X118273199Y-100018105D01*
X118231657Y-100051419D01*
X118189937Y-100084936D01*
X118152214Y-100115298D01*
X118122662Y-100139147D01*
X118116208Y-100144373D01*
X118086827Y-100167856D01*
X118059078Y-100189473D01*
X118038627Y-100204815D01*
X118037494Y-100205626D01*
X118011602Y-100224063D01*
X117453540Y-99665225D01*
X117494436Y-99611961D01*
X117511380Y-99590255D01*
X117536852Y-99558076D01*
X117568493Y-99518363D01*
X117603943Y-99474053D01*
X117640845Y-99428085D01*
X117676837Y-99383397D01*
X117709561Y-99342926D01*
X117736657Y-99309611D01*
X117755766Y-99286391D01*
X117758318Y-99283340D01*
X117771992Y-99266623D01*
X117791099Y-99242750D01*
X117803454Y-99227119D01*
X117833942Y-99188330D01*
X117800960Y-99127290D01*
X117780444Y-99087437D01*
X117758224Y-99041376D01*
X117739075Y-98999006D01*
X117738898Y-98998594D01*
X117709817Y-98930938D01*
X117965411Y-98675235D01*
X118020287Y-98620475D01*
X118071411Y-98569729D01*
X118117474Y-98524277D01*
X118157168Y-98485397D01*
X118189185Y-98454368D01*
X118212216Y-98432467D01*
X118224953Y-98420975D01*
X118227038Y-98419531D01*
X118231601Y-98427284D01*
G37*
G36*
X118190622Y-97568863D02*
G01*
X118262574Y-97569006D01*
X118327074Y-97569230D01*
X118382329Y-97569527D01*
X118426546Y-97569883D01*
X118457930Y-97570290D01*
X118474690Y-97570736D01*
X118477030Y-97570983D01*
X118472347Y-97578565D01*
X118459881Y-97597208D01*
X118441776Y-97623730D01*
X118428755Y-97642600D01*
X118358675Y-97758690D01*
X118302275Y-97884294D01*
X118260608Y-98017007D01*
X118255648Y-98037576D01*
X118240563Y-98102682D01*
X117918359Y-98426056D01*
X117596154Y-98749431D01*
X117552722Y-98744581D01*
X117526377Y-98741603D01*
X117488232Y-98737246D01*
X117443732Y-98732132D01*
X117405120Y-98727673D01*
X117351411Y-98721604D01*
X117291621Y-98715082D01*
X117234705Y-98709075D01*
X117205462Y-98706100D01*
X117162796Y-98701713D01*
X117123163Y-98697397D01*
X117091815Y-98693735D01*
X117077420Y-98691848D01*
X117044867Y-98687109D01*
X117044867Y-97900209D01*
X117077420Y-97895471D01*
X117099651Y-97892636D01*
X117133914Y-97888734D01*
X117174954Y-97884346D01*
X117205462Y-97881243D01*
X117257369Y-97875851D01*
X117317018Y-97869295D01*
X117374929Y-97862631D01*
X117400780Y-97859525D01*
X117450838Y-97853727D01*
X117504312Y-97848072D01*
X117553277Y-97843378D01*
X117577320Y-97841352D01*
X117613289Y-97837562D01*
X117640435Y-97832736D01*
X117655136Y-97827582D01*
X117656677Y-97825812D01*
X117664428Y-97800087D01*
X117676049Y-97764292D01*
X117689895Y-97723206D01*
X117704318Y-97681603D01*
X117717674Y-97644261D01*
X117728315Y-97615956D01*
X117732531Y-97605706D01*
X117748824Y-97568813D01*
X118113011Y-97568813D01*
X118190622Y-97568863D01*
G37*
G36*
X120755835Y-96374236D02*
G01*
X120775309Y-96390357D01*
X120805294Y-96417466D01*
X120845004Y-96454821D01*
X120893655Y-96501680D01*
X120950463Y-96557303D01*
X121014643Y-96620947D01*
X121036337Y-96642614D01*
X121315908Y-96922283D01*
X121193599Y-97074102D01*
X121157347Y-97119078D01*
X121124046Y-97160347D01*
X121095486Y-97195694D01*
X121073456Y-97222906D01*
X121059745Y-97239769D01*
X121056832Y-97243314D01*
X121045249Y-97257492D01*
X121026016Y-97281288D01*
X121002318Y-97310752D01*
X120988208Y-97328353D01*
X120934045Y-97396000D01*
X120972326Y-97471556D01*
X120992184Y-97511486D01*
X121011928Y-97552420D01*
X121028220Y-97587399D01*
X121032591Y-97597180D01*
X121054575Y-97647249D01*
X120798269Y-97903993D01*
X120743448Y-97958723D01*
X120692451Y-98009278D01*
X120646568Y-98054405D01*
X120607090Y-98092854D01*
X120575304Y-98123370D01*
X120552503Y-98144703D01*
X120539976Y-98155598D01*
X120537957Y-98156731D01*
X120534624Y-98146713D01*
X120529860Y-98124489D01*
X120525102Y-98097321D01*
X120495751Y-97968007D01*
X120449530Y-97840822D01*
X120386905Y-97716967D01*
X120359601Y-97672115D01*
X120317526Y-97606142D01*
X120317937Y-97159949D01*
X120318347Y-96713755D01*
X120367643Y-96674691D01*
X120394886Y-96653039D01*
X120418910Y-96633833D01*
X120434508Y-96621237D01*
X120448210Y-96610123D01*
X120472100Y-96590852D01*
X120503769Y-96565360D01*
X120540806Y-96535582D01*
X120580801Y-96503453D01*
X120621344Y-96470907D01*
X120660025Y-96439879D01*
X120694434Y-96412304D01*
X120722160Y-96390117D01*
X120740794Y-96375254D01*
X120747656Y-96369843D01*
X120755835Y-96374236D01*
G37*
G36*
X120991558Y-99264166D02*
G01*
X121012902Y-99289448D01*
X121036459Y-99318196D01*
X121043595Y-99327102D01*
X121057331Y-99344299D01*
X121079827Y-99372375D01*
X121108961Y-99408683D01*
X121142607Y-99450576D01*
X121178643Y-99495407D01*
X121186060Y-99504630D01*
X121220679Y-99547697D01*
X121251793Y-99586452D01*
X121277690Y-99618755D01*
X121296657Y-99642471D01*
X121306981Y-99655461D01*
X121308157Y-99656974D01*
X121303764Y-99665153D01*
X121287643Y-99684628D01*
X121260534Y-99714612D01*
X121223179Y-99754322D01*
X121176320Y-99802974D01*
X121120697Y-99859782D01*
X121057053Y-99923962D01*
X121035386Y-99945656D01*
X120755717Y-100225226D01*
X120603898Y-100102918D01*
X120558922Y-100066665D01*
X120517653Y-100033364D01*
X120482306Y-100004804D01*
X120455094Y-99982774D01*
X120438231Y-99969064D01*
X120434686Y-99966150D01*
X120420508Y-99954567D01*
X120396712Y-99935334D01*
X120367248Y-99911637D01*
X120349647Y-99897527D01*
X120282000Y-99843363D01*
X120206444Y-99881645D01*
X120166217Y-99901639D01*
X120124696Y-99921644D01*
X120088989Y-99938254D01*
X120079176Y-99942636D01*
X120027463Y-99965347D01*
X119773178Y-99711171D01*
X119718573Y-99656446D01*
X119667987Y-99605469D01*
X119622702Y-99559555D01*
X119583999Y-99520015D01*
X119553163Y-99488164D01*
X119531474Y-99465313D01*
X119520216Y-99452776D01*
X119518893Y-99450823D01*
X119526527Y-99445665D01*
X119545466Y-99440586D01*
X119551446Y-99439542D01*
X119683415Y-99411410D01*
X119809660Y-99369769D01*
X119927138Y-99315745D01*
X119998462Y-99273810D01*
X120057644Y-99235525D01*
X120966787Y-99235525D01*
X120991558Y-99264166D01*
G37*
G36*
X119057170Y-98812521D02*
G01*
X118978627Y-98767085D01*
X118904349Y-98707297D01*
X118884742Y-98688635D01*
X118819793Y-98615373D01*
X118769972Y-98537009D01*
X118733108Y-98449918D01*
X118723691Y-98419607D01*
X118713276Y-98381112D01*
X118706919Y-98349721D01*
X118703961Y-98319102D01*
X118703736Y-98282920D01*
X118704277Y-98268236D01*
X118871305Y-98268236D01*
X118875451Y-98323614D01*
X118889245Y-98374922D01*
X118897067Y-98392236D01*
X118935970Y-98449433D01*
X118988330Y-98499287D01*
X119050999Y-98539522D01*
X119120827Y-98567859D01*
X119150233Y-98575389D01*
X119179636Y-98581720D01*
X119204802Y-98587227D01*
X119212895Y-98589038D01*
X119232427Y-98593477D01*
X119232378Y-98356760D01*
X119232044Y-98290539D01*
X119231122Y-98229517D01*
X119229695Y-98176191D01*
X119227846Y-98133057D01*
X119225656Y-98102613D01*
X119223536Y-98088383D01*
X119208391Y-98056810D01*
X119182702Y-98036602D01*
X119144768Y-98026771D01*
X119115236Y-98025443D01*
X119053517Y-98034417D01*
X118996158Y-98059079D01*
X118945575Y-98097868D01*
X118904184Y-98149218D01*
X118892458Y-98169598D01*
X118876932Y-98214870D01*
X118871305Y-98268236D01*
X118704277Y-98268236D01*
X118705209Y-98242906D01*
X118712002Y-98166920D01*
X118725862Y-98101820D01*
X118748449Y-98041995D01*
X118781419Y-97981833D01*
X118783214Y-97978964D01*
X118834327Y-97913535D01*
X118898467Y-97857696D01*
X118973253Y-97813034D01*
X119056304Y-97781140D01*
X119093534Y-97771838D01*
X119136089Y-97765327D01*
X119184630Y-97761834D01*
X119234999Y-97761225D01*
X119283038Y-97763367D01*
X119324590Y-97768124D01*
X119355497Y-97775364D01*
X119366905Y-97780645D01*
X119388681Y-97794914D01*
X119388681Y-98593147D01*
X119425575Y-98592842D01*
X119508333Y-98584327D01*
X119585712Y-98560999D01*
X119655660Y-98524083D01*
X119716123Y-98474803D01*
X119765049Y-98414383D01*
X119785690Y-98378080D01*
X119799478Y-98349604D01*
X119808715Y-98327222D01*
X119814312Y-98306174D01*
X119817181Y-98281698D01*
X119818233Y-98249034D01*
X119818380Y-98207315D01*
X119818056Y-98161498D01*
X119816620Y-98128486D01*
X119813375Y-98103726D01*
X119807626Y-98082668D01*
X119798676Y-98060758D01*
X119794626Y-98051977D01*
X119774771Y-98015971D01*
X119747265Y-97974253D01*
X119716290Y-97932548D01*
X119686027Y-97896582D01*
X119667417Y-97877806D01*
X119653128Y-97860147D01*
X119651219Y-97841626D01*
X119662277Y-97818981D01*
X119682542Y-97793791D01*
X119715979Y-97756112D01*
X119765656Y-97786164D01*
X119846246Y-97844504D01*
X119914289Y-97913979D01*
X119968702Y-97993265D01*
X120008405Y-98081035D01*
X120009994Y-98085651D01*
X120021109Y-98121664D01*
X120028480Y-98155324D01*
X120032992Y-98192504D01*
X120035533Y-98239075D01*
X120036126Y-98258936D01*
X120036519Y-98304899D01*
X120035520Y-98349299D01*
X120033331Y-98386559D01*
X120030755Y-98408052D01*
X120012088Y-98479017D01*
X119982187Y-98552598D01*
X119944074Y-98621495D01*
X119939647Y-98628268D01*
X119883628Y-98697169D01*
X119814762Y-98755929D01*
X119734683Y-98803991D01*
X119645020Y-98840796D01*
X119547408Y-98865785D01*
X119443477Y-98878399D01*
X119334859Y-98878080D01*
X119241108Y-98867395D01*
X119232427Y-98865436D01*
X119143491Y-98845370D01*
X119057170Y-98812521D01*
G37*
G36*
X118682492Y-99214507D02*
G01*
X118704321Y-99229437D01*
X118731311Y-99248157D01*
X118733796Y-99249892D01*
X118802943Y-99293642D01*
X118880439Y-99335139D01*
X118957436Y-99369745D01*
X118976343Y-99377064D01*
X119012061Y-99389437D01*
X119053303Y-99402308D01*
X119095759Y-99414496D01*
X119135119Y-99424820D01*
X119167073Y-99432100D01*
X119187311Y-99435156D01*
X119188532Y-99435184D01*
X119198052Y-99441204D01*
X119218154Y-99458326D01*
X119247439Y-99485138D01*
X119284505Y-99520228D01*
X119327954Y-99562187D01*
X119376385Y-99609604D01*
X119428400Y-99661066D01*
X119482597Y-99715164D01*
X119537578Y-99770487D01*
X119591943Y-99825623D01*
X119644292Y-99879162D01*
X119693225Y-99929693D01*
X119737343Y-99975804D01*
X119775246Y-100016086D01*
X119805534Y-100049126D01*
X119826807Y-100073515D01*
X119837666Y-100087841D01*
X119838782Y-100090627D01*
X119836805Y-100112226D01*
X119834464Y-100133987D01*
X119825458Y-100211921D01*
X119818164Y-100275508D01*
X119812261Y-100327643D01*
X119807427Y-100371221D01*
X119803340Y-100409136D01*
X119799678Y-100444284D01*
X119796820Y-100472538D01*
X119792417Y-100515203D01*
X119788088Y-100554835D01*
X119784419Y-100586184D01*
X119782529Y-100600580D01*
X119777791Y-100633133D01*
X118990891Y-100633133D01*
X118986152Y-100600580D01*
X118983318Y-100578349D01*
X118979415Y-100544086D01*
X118975027Y-100503046D01*
X118971925Y-100472538D01*
X118966532Y-100420631D01*
X118959977Y-100360982D01*
X118953313Y-100303071D01*
X118950207Y-100277220D01*
X118944408Y-100227162D01*
X118938754Y-100173688D01*
X118934060Y-100124723D01*
X118932034Y-100100680D01*
X118928244Y-100064711D01*
X118923417Y-100037565D01*
X118918264Y-100022864D01*
X118916493Y-100021323D01*
X118890768Y-100013572D01*
X118854974Y-100001951D01*
X118813887Y-99988105D01*
X118772284Y-99973682D01*
X118734942Y-99960326D01*
X118706637Y-99949685D01*
X118696388Y-99945469D01*
X118659495Y-99929176D01*
X118659495Y-99564477D01*
X118659591Y-99472355D01*
X118659906Y-99396320D01*
X118660478Y-99335099D01*
X118661346Y-99287418D01*
X118662548Y-99252004D01*
X118664123Y-99227584D01*
X118666110Y-99212883D01*
X118668546Y-99206629D01*
X118670346Y-99206462D01*
X118682492Y-99214507D01*
G37*
G36*
X118030655Y-96377441D02*
G01*
X118051371Y-96393971D01*
X118080735Y-96417477D01*
X118116313Y-96446001D01*
X118155668Y-96477587D01*
X118196363Y-96510277D01*
X118235962Y-96542115D01*
X118272029Y-96571143D01*
X118302128Y-96595405D01*
X118323821Y-96612944D01*
X118333995Y-96621237D01*
X118348179Y-96632795D01*
X118371974Y-96652004D01*
X118401426Y-96675678D01*
X118418917Y-96689697D01*
X118486447Y-96743766D01*
X118579481Y-96697272D01*
X118619476Y-96677689D01*
X118657103Y-96659983D01*
X118687804Y-96646259D01*
X118705341Y-96639190D01*
X118738166Y-96627603D01*
X118989637Y-96878962D01*
X119043923Y-96933357D01*
X119094185Y-96983977D01*
X119139133Y-97029504D01*
X119177478Y-97068619D01*
X119207931Y-97100007D01*
X119229202Y-97122348D01*
X119240003Y-97134326D01*
X119241108Y-97135959D01*
X119234224Y-97143482D01*
X119227376Y-97146866D01*
X119207365Y-97151242D01*
X119194288Y-97152135D01*
X119172138Y-97154813D01*
X119137975Y-97162066D01*
X119096170Y-97172725D01*
X119051092Y-97185619D01*
X119007113Y-97199580D01*
X118976343Y-97210471D01*
X118902207Y-97240901D01*
X118835571Y-97274476D01*
X118769904Y-97314012D01*
X118711038Y-97351793D01*
X117801895Y-97351793D01*
X117777123Y-97323153D01*
X117755779Y-97297888D01*
X117732197Y-97269154D01*
X117725018Y-97260217D01*
X117711504Y-97243342D01*
X117689119Y-97215483D01*
X117659896Y-97179166D01*
X117625870Y-97136919D01*
X117589073Y-97091267D01*
X117575230Y-97074102D01*
X117452774Y-96922283D01*
X117732344Y-96642614D01*
X117798691Y-96576588D01*
X117857914Y-96518350D01*
X117909228Y-96468641D01*
X117951850Y-96428202D01*
X117984993Y-96397774D01*
X118007875Y-96378099D01*
X118019709Y-96369919D01*
X118021026Y-96369843D01*
X118030655Y-96377441D01*
G37*
%LPC*%
D15*
X115565000Y-52837000D03*
D16*
X115565000Y-55377000D03*
X115565000Y-57917000D03*
X115565000Y-60457000D03*
X115565000Y-62997000D03*
X115565000Y-65537000D03*
X115565000Y-68077000D03*
X115565000Y-70617000D03*
X115565000Y-73157000D03*
X115565000Y-75697000D03*
X115565000Y-78237000D03*
X115565000Y-80777000D03*
X115565000Y-83317000D03*
X115565000Y-85857000D03*
X115565000Y-88397000D03*
X115565000Y-90937000D03*
X115565000Y-93477000D03*
X115565000Y-96017000D03*
X115565000Y-98557000D03*
X115565000Y-101097000D03*
X130805000Y-101097000D03*
X130805000Y-98557000D03*
X130805000Y-96017000D03*
X130805000Y-93477000D03*
X130805000Y-90937000D03*
X130805000Y-88397000D03*
X130805000Y-85857000D03*
X130805000Y-83317000D03*
X130805000Y-80777000D03*
X130805000Y-78237000D03*
X130805000Y-75697000D03*
X130805000Y-73157000D03*
X130805000Y-70617000D03*
X130805000Y-68077000D03*
X130805000Y-65537000D03*
X130805000Y-62997000D03*
X130805000Y-60457000D03*
X130805000Y-57917000D03*
X130805000Y-55377000D03*
X130805000Y-52837000D03*
D17*
X123444000Y-50292000D03*
D18*
X123444000Y-52070000D03*
X123444000Y-53848000D03*
X123444000Y-55626000D03*
X123444000Y-57404000D03*
X123444000Y-59182000D03*
X123444000Y-60960000D03*
X123444000Y-62738000D03*
X123444000Y-64516000D03*
X123444000Y-66294000D03*
X123444000Y-68072000D03*
X123444000Y-69850000D03*
X123444000Y-71628000D03*
X123444000Y-73406000D03*
X123444000Y-75184000D03*
X123444000Y-76962000D03*
X123444000Y-78740000D03*
X123444000Y-80518000D03*
X123444000Y-82296000D03*
X123444000Y-84074000D03*
X123444000Y-85852000D03*
X123444000Y-87630000D03*
X123444000Y-89408000D03*
X123444000Y-91186000D03*
X123444000Y-92964000D03*
X123444000Y-94742000D03*
X123444000Y-96520000D03*
X123444000Y-98298000D03*
X123444000Y-100076000D03*
X123444000Y-101854000D03*
X123444000Y-103632000D03*
X123444000Y-105410000D03*
X142494000Y-105410000D03*
X142494000Y-103632000D03*
X142494000Y-101854000D03*
X142494000Y-100076000D03*
X142494000Y-98298000D03*
X142494000Y-96520000D03*
X142494000Y-94742000D03*
X142494000Y-92964000D03*
X142494000Y-91186000D03*
X142494000Y-89408000D03*
X142494000Y-87630000D03*
X142494000Y-85852000D03*
X142494000Y-84074000D03*
X142494000Y-82296000D03*
X142494000Y-80518000D03*
X142494000Y-78740000D03*
X142494000Y-76962000D03*
X142494000Y-75184000D03*
X142494000Y-73406000D03*
X142494000Y-71628000D03*
X142494000Y-69850000D03*
X142494000Y-68072000D03*
X142494000Y-66294000D03*
X142494000Y-64516000D03*
X142494000Y-62738000D03*
X142494000Y-60960000D03*
X142494000Y-59182000D03*
X142494000Y-57404000D03*
X142494000Y-55626000D03*
X142494000Y-53848000D03*
X142494000Y-52070000D03*
X142494000Y-50292000D03*
M02*
