G04 #@! TF.GenerationSoftware,KiCad,Pcbnew,(6.0.0)*
G04 #@! TF.CreationDate,2023-01-29T20:40:06-05:00*
G04 #@! TF.ProjectId,tms7000 64 pin narrow adapter,746d7337-3030-4302-9036-342070696e20,rev?*
G04 #@! TF.SameCoordinates,Original*
G04 #@! TF.FileFunction,Copper,L2,Bot*
G04 #@! TF.FilePolarity,Positive*
%FSLAX46Y46*%
G04 Gerber Fmt 4.6, Leading zero omitted, Abs format (unit mm)*
G04 Created by KiCad (PCBNEW (6.0.0)) date 2023-01-29 20:40:06*
%MOMM*%
%LPD*%
G01*
G04 APERTURE LIST*
G04 #@! TA.AperFunction,ComponentPad*
%ADD10R,1.600000X1.600000*%
G04 #@! TD*
G04 #@! TA.AperFunction,ComponentPad*
%ADD11O,1.600000X1.600000*%
G04 #@! TD*
G04 #@! TA.AperFunction,ComponentPad*
%ADD12R,1.100000X1.100000*%
G04 #@! TD*
G04 #@! TA.AperFunction,ComponentPad*
%ADD13C,1.100000*%
G04 #@! TD*
G04 #@! TA.AperFunction,ViaPad*
%ADD14C,0.800000*%
G04 #@! TD*
G04 #@! TA.AperFunction,Conductor*
%ADD15C,0.250000*%
G04 #@! TD*
G04 APERTURE END LIST*
D10*
X115565000Y-52837000D03*
D11*
X115565000Y-55377000D03*
X115565000Y-57917000D03*
X115565000Y-60457000D03*
X115565000Y-62997000D03*
X115565000Y-65537000D03*
X115565000Y-68077000D03*
X115565000Y-70617000D03*
X115565000Y-73157000D03*
X115565000Y-75697000D03*
X115565000Y-78237000D03*
X115565000Y-80777000D03*
X115565000Y-83317000D03*
X115565000Y-85857000D03*
X115565000Y-88397000D03*
X115565000Y-90937000D03*
X115565000Y-93477000D03*
X115565000Y-96017000D03*
X115565000Y-98557000D03*
X115565000Y-101097000D03*
X130805000Y-101097000D03*
X130805000Y-98557000D03*
X130805000Y-96017000D03*
X130805000Y-93477000D03*
X130805000Y-90937000D03*
X130805000Y-88397000D03*
X130805000Y-85857000D03*
X130805000Y-83317000D03*
X130805000Y-80777000D03*
X130805000Y-78237000D03*
X130805000Y-75697000D03*
X130805000Y-73157000D03*
X130805000Y-70617000D03*
X130805000Y-68077000D03*
X130805000Y-65537000D03*
X130805000Y-62997000D03*
X130805000Y-60457000D03*
X130805000Y-57917000D03*
X130805000Y-55377000D03*
X130805000Y-52837000D03*
D12*
X123444000Y-50292000D03*
D13*
X123444000Y-52070000D03*
X123444000Y-53848000D03*
X123444000Y-55626000D03*
X123444000Y-57404000D03*
X123444000Y-59182000D03*
X123444000Y-60960000D03*
X123444000Y-62738000D03*
X123444000Y-64516000D03*
X123444000Y-66294000D03*
X123444000Y-68072000D03*
X123444000Y-69850000D03*
X123444000Y-71628000D03*
X123444000Y-73406000D03*
X123444000Y-75184000D03*
X123444000Y-76962000D03*
X123444000Y-78740000D03*
X123444000Y-80518000D03*
X123444000Y-82296000D03*
X123444000Y-84074000D03*
X123444000Y-85852000D03*
X123444000Y-87630000D03*
X123444000Y-89408000D03*
X123444000Y-91186000D03*
X123444000Y-92964000D03*
X123444000Y-94742000D03*
X123444000Y-96520000D03*
X123444000Y-98298000D03*
X123444000Y-100076000D03*
X123444000Y-101854000D03*
X123444000Y-103632000D03*
X123444000Y-105410000D03*
X142494000Y-105410000D03*
X142494000Y-103632000D03*
X142494000Y-101854000D03*
X142494000Y-100076000D03*
X142494000Y-98298000D03*
X142494000Y-96520000D03*
X142494000Y-94742000D03*
X142494000Y-92964000D03*
X142494000Y-91186000D03*
X142494000Y-89408000D03*
X142494000Y-87630000D03*
X142494000Y-85852000D03*
X142494000Y-84074000D03*
X142494000Y-82296000D03*
X142494000Y-80518000D03*
X142494000Y-78740000D03*
X142494000Y-76962000D03*
X142494000Y-75184000D03*
X142494000Y-73406000D03*
X142494000Y-71628000D03*
X142494000Y-69850000D03*
X142494000Y-68072000D03*
X142494000Y-66294000D03*
X142494000Y-64516000D03*
X142494000Y-62738000D03*
X142494000Y-60960000D03*
X142494000Y-59182000D03*
X142494000Y-57404000D03*
X142494000Y-55626000D03*
X142494000Y-53848000D03*
X142494000Y-52070000D03*
X142494000Y-50292000D03*
D14*
X139700000Y-50800000D03*
X118364000Y-61976000D03*
X140208000Y-98552000D03*
X140716000Y-96012000D03*
X140970000Y-93472000D03*
X141224000Y-91948000D03*
D15*
X142098511Y-56500511D02*
X139700000Y-54102000D01*
X139700000Y-54102000D02*
X139700000Y-50800000D01*
X143368511Y-58307489D02*
X143368511Y-57012787D01*
X142494000Y-59182000D02*
X143368511Y-58307489D01*
X143368511Y-57012787D02*
X142856235Y-56500511D01*
X142856235Y-56500511D02*
X142098511Y-56500511D01*
X118364000Y-61976000D02*
X118364000Y-58176000D01*
X118364000Y-58176000D02*
X115565000Y-55377000D01*
X118110000Y-85852000D02*
X118110000Y-81518183D01*
X122666183Y-76962000D02*
X123444000Y-76962000D01*
X115565000Y-88397000D02*
X118110000Y-85852000D01*
X118110000Y-81518183D02*
X122666183Y-76962000D01*
X124035533Y-77836511D02*
X123110743Y-77836511D01*
X124318511Y-77553533D02*
X124035533Y-77836511D01*
X123444000Y-75184000D02*
X124318511Y-76058511D01*
X124318511Y-76058511D02*
X124318511Y-77553533D01*
X117089000Y-90937000D02*
X115565000Y-90937000D01*
X119126000Y-88900000D02*
X117089000Y-90937000D01*
X123110743Y-77836511D02*
X119126000Y-81821254D01*
X119126000Y-81821254D02*
X119126000Y-88900000D01*
X140208000Y-98552000D02*
X140203000Y-98557000D01*
X140203000Y-98557000D02*
X130805000Y-98557000D01*
X140716000Y-96012000D02*
X140711000Y-96017000D01*
X140711000Y-96017000D02*
X130805000Y-96017000D01*
X140965000Y-93477000D02*
X130805000Y-93477000D01*
X140970000Y-93472000D02*
X140965000Y-93477000D01*
X141224000Y-91948000D02*
X134356000Y-91948000D01*
X134356000Y-91948000D02*
X130805000Y-88397000D01*
X142494000Y-91186000D02*
X137165000Y-85857000D01*
X137165000Y-85857000D02*
X130805000Y-85857000D01*
X123444000Y-105410000D02*
X127254000Y-101600000D01*
X127254000Y-66548000D02*
X130805000Y-62997000D01*
X127254000Y-101600000D02*
X127254000Y-66548000D01*
X130805000Y-57917000D02*
X141981000Y-57917000D01*
X141981000Y-57917000D02*
X142494000Y-57404000D01*
X130805000Y-55377000D02*
X129680489Y-56501511D01*
X129680489Y-58382789D02*
X130630189Y-59332489D01*
X140866489Y-59332489D02*
X142494000Y-60960000D01*
X130630189Y-59332489D02*
X140866489Y-59332489D01*
X129680489Y-56501511D02*
X129680489Y-58382789D01*
X123444000Y-87630000D02*
X123444000Y-85852000D01*
X123444000Y-50292000D02*
X128260000Y-50292000D01*
X123444000Y-85852000D02*
X125730000Y-83566000D01*
X128260000Y-50292000D02*
X130805000Y-52837000D01*
X125730000Y-83566000D02*
X125730000Y-57912000D01*
X125730000Y-57912000D02*
X130805000Y-52837000D01*
M02*
