M48
; DRILL file {KiCad (6.0.0)} date Sun Jan 29 20:40:07 2023
; FORMAT={-:-/ absolute / metric / decimal}
; #@! TF.CreationDate,2023-01-29T20:40:07-05:00
; #@! TF.GenerationSoftware,Kicad,Pcbnew,(6.0.0)
; #@! TF.FileFunction,Plated,1,2,PTH
FMAT,2
METRIC
; #@! TA.AperFunction,Plated,PTH,ViaDrill
T1C0.400
; #@! TA.AperFunction,Plated,PTH,ComponentDrill
T2C0.700
; #@! TA.AperFunction,Plated,PTH,ComponentDrill
T3C0.800
%
G90
G05
T1
X118.364Y-61.976
X139.7Y-50.8
X140.208Y-98.552
X140.716Y-96.012
X140.97Y-93.472
X141.224Y-91.948
T2
X123.444Y-50.292
X123.444Y-52.07
X123.444Y-53.848
X123.444Y-55.626
X123.444Y-57.404
X123.444Y-59.182
X123.444Y-60.96
X123.444Y-62.738
X123.444Y-64.516
X123.444Y-66.294
X123.444Y-68.072
X123.444Y-69.85
X123.444Y-71.628
X123.444Y-73.406
X123.444Y-75.184
X123.444Y-76.962
X123.444Y-78.74
X123.444Y-80.518
X123.444Y-82.296
X123.444Y-84.074
X123.444Y-85.852
X123.444Y-87.63
X123.444Y-89.408
X123.444Y-91.186
X123.444Y-92.964
X123.444Y-94.742
X123.444Y-96.52
X123.444Y-98.298
X123.444Y-100.076
X123.444Y-101.854
X123.444Y-103.632
X123.444Y-105.41
X142.494Y-50.292
X142.494Y-52.07
X142.494Y-53.848
X142.494Y-55.626
X142.494Y-57.404
X142.494Y-59.182
X142.494Y-60.96
X142.494Y-62.738
X142.494Y-64.516
X142.494Y-66.294
X142.494Y-68.072
X142.494Y-69.85
X142.494Y-71.628
X142.494Y-73.406
X142.494Y-75.184
X142.494Y-76.962
X142.494Y-78.74
X142.494Y-80.518
X142.494Y-82.296
X142.494Y-84.074
X142.494Y-85.852
X142.494Y-87.63
X142.494Y-89.408
X142.494Y-91.186
X142.494Y-92.964
X142.494Y-94.742
X142.494Y-96.52
X142.494Y-98.298
X142.494Y-100.076
X142.494Y-101.854
X142.494Y-103.632
X142.494Y-105.41
T3
X115.565Y-52.837
X115.565Y-55.377
X115.565Y-57.917
X115.565Y-60.457
X115.565Y-62.997
X115.565Y-65.537
X115.565Y-68.077
X115.565Y-70.617
X115.565Y-73.157
X115.565Y-75.697
X115.565Y-78.237
X115.565Y-80.777
X115.565Y-83.317
X115.565Y-85.857
X115.565Y-88.397
X115.565Y-90.937
X115.565Y-93.477
X115.565Y-96.017
X115.565Y-98.557
X115.565Y-101.097
X130.805Y-52.837
X130.805Y-55.377
X130.805Y-57.917
X130.805Y-60.457
X130.805Y-62.997
X130.805Y-65.537
X130.805Y-68.077
X130.805Y-70.617
X130.805Y-73.157
X130.805Y-75.697
X130.805Y-78.237
X130.805Y-80.777
X130.805Y-83.317
X130.805Y-85.857
X130.805Y-88.397
X130.805Y-90.937
X130.805Y-93.477
X130.805Y-96.017
X130.805Y-98.557
X130.805Y-101.097
T0
M30
