G04 #@! TF.GenerationSoftware,KiCad,Pcbnew,(6.0.4)*
G04 #@! TF.CreationDate,2022-12-30T23:39:26-05:00*
G04 #@! TF.ProjectId,tms7000 plcc adapter,746d7337-3030-4302-9070-6c6363206164,rev?*
G04 #@! TF.SameCoordinates,Original*
G04 #@! TF.FileFunction,Copper,L1,Top*
G04 #@! TF.FilePolarity,Positive*
%FSLAX46Y46*%
G04 Gerber Fmt 4.6, Leading zero omitted, Abs format (unit mm)*
G04 Created by KiCad (PCBNEW (6.0.4)) date 2022-12-30 23:39:26*
%MOMM*%
%LPD*%
G01*
G04 APERTURE LIST*
G04 #@! TA.AperFunction,ComponentPad*
%ADD10R,1.600000X1.600000*%
G04 #@! TD*
G04 #@! TA.AperFunction,ComponentPad*
%ADD11O,1.600000X1.600000*%
G04 #@! TD*
G04 #@! TA.AperFunction,ComponentPad*
%ADD12R,1.422400X1.422400*%
G04 #@! TD*
G04 #@! TA.AperFunction,ComponentPad*
%ADD13C,1.422400*%
G04 #@! TD*
G04 #@! TA.AperFunction,Conductor*
%ADD14C,0.250000*%
G04 #@! TD*
G04 #@! TA.AperFunction,Conductor*
%ADD15C,0.400000*%
G04 #@! TD*
G04 APERTURE END LIST*
D10*
X120116000Y-48531500D03*
D11*
X120116000Y-51071500D03*
X120116000Y-53611500D03*
X120116000Y-56151500D03*
X120116000Y-58691500D03*
X120116000Y-61231500D03*
X120116000Y-63771500D03*
X120116000Y-66311500D03*
X120116000Y-68851500D03*
X120116000Y-71391500D03*
X120116000Y-73931500D03*
X120116000Y-76471500D03*
X120116000Y-79011500D03*
X120116000Y-81551500D03*
X120116000Y-84091500D03*
X120116000Y-86631500D03*
X120116000Y-89171500D03*
X120116000Y-91711500D03*
X120116000Y-94251500D03*
X120116000Y-96791500D03*
X135356000Y-96791500D03*
X135356000Y-94251500D03*
X135356000Y-91711500D03*
X135356000Y-89171500D03*
X135356000Y-86631500D03*
X135356000Y-84091500D03*
X135356000Y-81551500D03*
X135356000Y-79011500D03*
X135356000Y-76471500D03*
X135356000Y-73931500D03*
X135356000Y-71391500D03*
X135356000Y-68851500D03*
X135356000Y-66311500D03*
X135356000Y-63771500D03*
X135356000Y-61231500D03*
X135356000Y-58691500D03*
X135356000Y-56151500D03*
X135356000Y-53611500D03*
X135356000Y-51071500D03*
X135356000Y-48531500D03*
D12*
X129011000Y-64897000D03*
D13*
X126471000Y-62357000D03*
X126471000Y-64897000D03*
X123931000Y-62357000D03*
X123931000Y-64897000D03*
X121391000Y-62357000D03*
X118851000Y-64897000D03*
X121391000Y-64897000D03*
X118851000Y-67437000D03*
X121391000Y-67437000D03*
X118851000Y-69977000D03*
X121391000Y-69977000D03*
X118851000Y-72517000D03*
X121391000Y-72517000D03*
X118851000Y-75057000D03*
X121391000Y-75057000D03*
X118851000Y-77597000D03*
X121391000Y-80137000D03*
X121391000Y-77597000D03*
X123931000Y-80137000D03*
X123931000Y-77597000D03*
X126471000Y-80137000D03*
X126471000Y-77597000D03*
X129011000Y-80137000D03*
X129011000Y-77597000D03*
X131551000Y-80137000D03*
X131551000Y-77597000D03*
X134091000Y-80137000D03*
X136631000Y-77597000D03*
X134091000Y-77597000D03*
X136631000Y-75057000D03*
X134091000Y-75057000D03*
X136631000Y-72517000D03*
X134091000Y-72517000D03*
X136631000Y-69977000D03*
X134091000Y-69977000D03*
X136631000Y-67437000D03*
X134091000Y-67437000D03*
X136631000Y-64897000D03*
X134091000Y-62357000D03*
X134091000Y-64897000D03*
X131551000Y-62357000D03*
X131551000Y-64897000D03*
X129011000Y-62357000D03*
D14*
X127762000Y-63648000D02*
X127762000Y-56177500D01*
X129011000Y-64897000D02*
X127762000Y-63648000D01*
X127762000Y-56177500D02*
X120116000Y-48531500D01*
X125222000Y-63648000D02*
X125222000Y-58717500D01*
X126471000Y-64897000D02*
X125222000Y-63648000D01*
X125222000Y-58717500D02*
X120116000Y-53611500D01*
X122682000Y-63648000D02*
X122682000Y-61257500D01*
X123931000Y-64897000D02*
X122682000Y-63648000D01*
X122682000Y-61257500D02*
X120116000Y-58691500D01*
X130515289Y-62786007D02*
X130515289Y-55912211D01*
X131551000Y-64897000D02*
X131551000Y-63821718D01*
X131551000Y-63821718D02*
X130515289Y-62786007D01*
X130515289Y-55912211D02*
X135356000Y-51071500D01*
X132842000Y-63648000D02*
X132842000Y-58665500D01*
X134091000Y-64897000D02*
X132842000Y-63648000D01*
X132842000Y-58665500D02*
X135356000Y-56151500D01*
X126471000Y-57426500D02*
X120116000Y-51071500D01*
X126471000Y-62357000D02*
X126471000Y-57426500D01*
X123931000Y-59966500D02*
X120116000Y-56151500D01*
X123931000Y-62357000D02*
X123931000Y-59966500D01*
D15*
X129011000Y-62357000D02*
X129011000Y-54876500D01*
X129011000Y-54876500D02*
X135356000Y-48531500D01*
X130302000Y-63648000D02*
X130302000Y-73766000D01*
X129011000Y-62357000D02*
X130302000Y-63648000D01*
X130302000Y-73766000D02*
X126471000Y-77597000D01*
D14*
X131551000Y-57416500D02*
X135356000Y-53611500D01*
X131551000Y-62357000D02*
X131551000Y-57416500D01*
X121391000Y-64897000D02*
X121241500Y-64897000D01*
X121241500Y-64897000D02*
X120116000Y-63771500D01*
X120116000Y-68712000D02*
X121391000Y-67437000D01*
X120116000Y-68851500D02*
X120116000Y-68712000D01*
X123444000Y-73406000D02*
X123444000Y-72030000D01*
X120116000Y-73931500D02*
X122918500Y-73931500D01*
X123444000Y-72030000D02*
X121391000Y-69977000D01*
X122918500Y-73931500D02*
X123444000Y-73406000D01*
X121285718Y-90424000D02*
X122876231Y-88833487D01*
X120116000Y-84091500D02*
X118110000Y-86097500D01*
X122682000Y-76348000D02*
X121391000Y-75057000D01*
X119126000Y-90424000D02*
X121285718Y-90424000D01*
X122876231Y-78680231D02*
X122682000Y-78486000D01*
X118110000Y-89408000D02*
X119126000Y-90424000D01*
X122876231Y-88833487D02*
X122876231Y-78680231D01*
X122682000Y-78486000D02*
X122682000Y-76348000D01*
X118110000Y-86097500D02*
X118110000Y-89408000D01*
X118851000Y-64897000D02*
X118851000Y-62496500D01*
X118851000Y-62496500D02*
X120116000Y-61231500D01*
X118990500Y-67437000D02*
X120116000Y-66311500D01*
X118851000Y-67437000D02*
X118990500Y-67437000D01*
X118851000Y-69977000D02*
X118851000Y-70126500D01*
X118851000Y-70126500D02*
X120116000Y-71391500D01*
X117602000Y-76306000D02*
X117602000Y-79037500D01*
X118851000Y-75057000D02*
X117602000Y-76306000D01*
X117602000Y-79037500D02*
X120116000Y-81551500D01*
X122426711Y-81281289D02*
X122174000Y-81534000D01*
X122174000Y-81534000D02*
X122174000Y-88427000D01*
X121666000Y-77872000D02*
X121666000Y-78488578D01*
X121391000Y-77597000D02*
X121666000Y-77872000D01*
X121666000Y-78488578D02*
X122426711Y-79249289D01*
X121429500Y-89171500D02*
X120116000Y-89171500D01*
X122426711Y-79249289D02*
X122426711Y-81281289D01*
X122174000Y-88427000D02*
X121429500Y-89171500D01*
X125222000Y-92964000D02*
X123934500Y-94251500D01*
X123931000Y-77597000D02*
X125222000Y-78888000D01*
X125222000Y-78888000D02*
X125222000Y-92964000D01*
X123934500Y-94251500D02*
X120116000Y-94251500D01*
X130302000Y-78888000D02*
X130302000Y-92456000D01*
X129011000Y-77597000D02*
X130302000Y-78888000D01*
X132097500Y-94251500D02*
X135356000Y-94251500D01*
X130302000Y-92456000D02*
X132097500Y-94251500D01*
X131551000Y-77597000D02*
X132586711Y-78632711D01*
X132586711Y-88644711D02*
X133113500Y-89171500D01*
X133113500Y-89171500D02*
X135356000Y-89171500D01*
X132586711Y-78632711D02*
X132586711Y-88644711D01*
X137414000Y-82033500D02*
X135356000Y-84091500D01*
X136631000Y-77597000D02*
X137414000Y-78380000D01*
X137414000Y-78380000D02*
X137414000Y-82033500D01*
X121391000Y-85356500D02*
X120116000Y-86631500D01*
X121391000Y-80137000D02*
X121391000Y-85356500D01*
X121902500Y-91711500D02*
X120116000Y-91711500D01*
X123931000Y-89683000D02*
X121902500Y-91711500D01*
X123931000Y-80137000D02*
X123931000Y-89683000D01*
X126471000Y-80137000D02*
X126471000Y-94509000D01*
X126471000Y-94509000D02*
X124188500Y-96791500D01*
X124188500Y-96791500D02*
X120116000Y-96791500D01*
X129011000Y-80137000D02*
X129011000Y-94467000D01*
X129011000Y-94467000D02*
X131335500Y-96791500D01*
X131335500Y-96791500D02*
X135356000Y-96791500D01*
X131551000Y-80137000D02*
X131551000Y-90911000D01*
X131551000Y-90911000D02*
X132351500Y-91711500D01*
X132351500Y-91711500D02*
X135356000Y-91711500D01*
D15*
X133350000Y-85633000D02*
X134348500Y-86631500D01*
X134091000Y-80137000D02*
X133350000Y-80878000D01*
X133350000Y-84074000D02*
X133350000Y-85633000D01*
X134348500Y-86631500D02*
X135356000Y-86631500D01*
X133350000Y-80878000D02*
X133350000Y-84074000D01*
D14*
X134091000Y-75057000D02*
X134091000Y-75206500D01*
X134091000Y-75206500D02*
X135356000Y-76471500D01*
X134230500Y-72517000D02*
X135356000Y-71391500D01*
X134091000Y-72517000D02*
X134230500Y-72517000D01*
X133332500Y-66311500D02*
X132842000Y-66802000D01*
X132842000Y-68728000D02*
X134091000Y-69977000D01*
X132842000Y-66802000D02*
X132842000Y-68728000D01*
X135356000Y-66311500D02*
X133332500Y-66311500D01*
X134091000Y-62357000D02*
X134091000Y-59956500D01*
X134091000Y-59956500D02*
X135356000Y-58691500D01*
X135356000Y-73792000D02*
X136631000Y-72517000D01*
X135356000Y-73931500D02*
X135356000Y-73792000D01*
X135356000Y-68851500D02*
X135505500Y-68851500D01*
X135505500Y-68851500D02*
X136631000Y-69977000D01*
X136144000Y-62992000D02*
X137414000Y-62992000D01*
X137414000Y-62992000D02*
X137922000Y-63500000D01*
X135356000Y-63771500D02*
X135364500Y-63771500D01*
X137922000Y-66146000D02*
X136631000Y-67437000D01*
X137922000Y-63500000D02*
X137922000Y-66146000D01*
X135364500Y-63771500D02*
X136144000Y-62992000D01*
M02*
