M48
; DRILL file {KiCad (6.0.0)} date Wed Nov  9 00:04:34 2022
; FORMAT={-:-/ absolute / metric / decimal}
; #@! TF.CreationDate,2022-11-09T00:04:34-05:00
; #@! TF.GenerationSoftware,Kicad,Pcbnew,(6.0.0)
; #@! TF.FileFunction,Plated,1,2,PTH
FMAT,2
METRIC
; #@! TA.AperFunction,Plated,PTH,ViaDrill
T1C0.400
; #@! TA.AperFunction,Plated,PTH,ComponentDrill
T2C0.787
; #@! TA.AperFunction,Plated,PTH,ComponentDrill
T3C0.800
; #@! TA.AperFunction,Plated,PTH,ComponentDrill
T4C0.900
; #@! TA.AperFunction,Plated,PTH,ComponentDrill
T5C1.000
%
G90
G05
T1
X112.395Y-104.775
X112.4Y-128.91
X113.665Y-106.045
X113.665Y-116.84
X121.92Y-118.11
X121.92Y-135.255
X123.19Y-114.935
X123.19Y-131.445
X132.065Y-103.51
X136.515Y-119.38
X136.515Y-127.0
X137.785Y-111.76
X137.785Y-116.84
X139.055Y-109.855
X140.007Y-113.983
X140.325Y-114.935
X140.325Y-134.62
X140.96Y-118.11
X143.5Y-123.19
X151.12Y-128.27
X151.978Y-125.507
X153.025Y-120.65
X154.295Y-113.03
X154.925Y-102.885
X155.4Y-110.325
T2
X142.23Y-104.14
X142.23Y-106.68
X142.23Y-109.22
X142.23Y-111.76
X142.23Y-114.3
X142.23Y-116.84
X142.23Y-119.38
X142.23Y-121.92
X142.23Y-124.46
X142.23Y-127.0
X142.23Y-129.54
X142.23Y-132.08
X142.23Y-134.62
X142.23Y-137.16
X157.47Y-104.14
X157.47Y-106.68
X157.47Y-109.22
X157.47Y-111.76
X157.47Y-114.3
X157.47Y-116.84
X157.47Y-119.38
X157.47Y-121.92
X157.47Y-124.46
X157.47Y-127.0
X157.47Y-129.54
X157.47Y-132.08
X157.47Y-134.62
X157.47Y-137.16
T3
X83.947Y-141.411
X83.947Y-148.911
X96.618Y-141.605
X99.158Y-141.605
X104.77Y-98.43
X104.77Y-100.97
X104.77Y-103.51
X104.77Y-106.05
X104.77Y-108.59
X104.77Y-111.13
X104.77Y-113.67
X104.77Y-116.21
X104.77Y-118.75
X104.77Y-121.29
X104.77Y-123.83
X104.77Y-126.37
X104.77Y-128.91
X104.77Y-131.45
X104.77Y-133.99
X104.77Y-136.53
X104.77Y-139.07
X104.77Y-141.61
X104.77Y-144.15
X104.77Y-146.69
X120.01Y-98.43
X120.01Y-100.97
X120.01Y-103.51
X120.01Y-106.05
X120.01Y-108.59
X120.01Y-111.13
X120.01Y-113.67
X120.01Y-116.21
X120.01Y-118.75
X120.01Y-121.29
X120.01Y-123.83
X120.01Y-126.37
X120.01Y-128.91
X120.01Y-131.45
X120.01Y-133.99
X120.01Y-136.53
X120.01Y-139.07
X120.01Y-141.61
X120.01Y-144.15
X120.01Y-146.69
X122.555Y-104.775
X122.555Y-107.315
X125.095Y-136.525
X125.095Y-144.025
X125.73Y-106.045
X125.73Y-108.585
X125.73Y-111.125
X125.73Y-113.665
X125.73Y-116.205
X125.73Y-118.745
X125.73Y-121.285
X125.73Y-123.825
X125.73Y-126.365
X125.73Y-128.905
X133.35Y-106.045
X133.35Y-108.585
X133.35Y-111.125
X133.35Y-113.665
X133.35Y-116.205
X133.35Y-118.745
X133.35Y-121.285
X133.35Y-123.825
X133.35Y-126.365
X133.35Y-128.905
T4
X96.515Y-146.685
X99.055Y-146.685
T5
X78.105Y-103.505
X78.105Y-106.045
X78.105Y-108.585
X78.105Y-111.125
X78.105Y-113.665
X78.105Y-116.205
X78.105Y-118.745
X78.105Y-121.285
X78.105Y-123.825
X78.105Y-126.365
X78.105Y-128.905
X78.105Y-131.445
X78.105Y-133.985
X78.105Y-136.525
X78.105Y-139.065
X86.793Y-144.308
X86.793Y-148.808
X93.293Y-144.308
X93.293Y-148.808
X93.345Y-103.505
X93.345Y-106.045
X93.345Y-108.585
X93.345Y-111.125
X93.345Y-113.665
X93.345Y-116.205
X93.345Y-118.745
X93.345Y-121.285
X93.345Y-123.825
X93.345Y-126.365
X93.345Y-128.905
X93.345Y-131.445
X93.345Y-133.985
X93.345Y-136.525
X93.345Y-139.065
X97.155Y-106.045
X97.155Y-111.125
X97.155Y-116.84
X98.425Y-131.445
X98.552Y-136.525
X99.695Y-106.045
X99.695Y-111.125
X99.695Y-116.84
X100.965Y-131.445
X101.092Y-136.525
X161.28Y-114.3
X161.28Y-116.84
X161.28Y-119.38
T0
M30
