M48
; DRILL file {KiCad (6.0.0)} date Sun Jan 29 20:34:44 2023
; FORMAT={-:-/ absolute / metric / decimal}
; #@! TF.CreationDate,2023-01-29T20:34:44-05:00
; #@! TF.GenerationSoftware,Kicad,Pcbnew,(6.0.0)
; #@! TF.FileFunction,Plated,1,2,PTH
FMAT,2
METRIC
; #@! TA.AperFunction,Plated,PTH,ViaDrill
T1C0.400
; #@! TA.AperFunction,Plated,PTH,ComponentDrill
T2C0.787
; #@! TA.AperFunction,Plated,PTH,ComponentDrill
T3C0.800
; #@! TA.AperFunction,Plated,PTH,ComponentDrill
T4C0.900
; #@! TA.AperFunction,Plated,PTH,ComponentDrill
T5C1.000
%
G90
G05
T1
X80.645Y-102.87
X80.645Y-123.825
X81.28Y-130.175
X81.915Y-121.285
X82.055Y-104.635
X82.55Y-110.49
X82.55Y-113.03
X82.55Y-115.57
X82.55Y-118.11
X83.185Y-98.425
X83.82Y-102.235
X84.46Y-100.97
X97.16Y-128.91
X98.425Y-136.525
X99.06Y-112.395
X99.695Y-126.365
X100.965Y-111.125
X101.6Y-108.585
X102.87Y-106.045
X102.87Y-121.92
X102.87Y-124.46
X102.87Y-127.0
X102.87Y-130.175
X112.4Y-95.89
X122.555Y-139.065
X123.19Y-134.62
X123.825Y-133.35
X123.97Y-130.03
X124.315Y-127.78
X127.0Y-125.095
X130.175Y-128.905
X130.81Y-134.62
X131.445Y-103.505
X133.35Y-95.885
X134.62Y-112.395
X135.89Y-114.935
X135.89Y-117.475
X140.97Y-125.73
X140.97Y-128.27
X142.875Y-115.57
X144.145Y-107.95
X149.225Y-142.875
X150.495Y-146.685
X151.765Y-145.415
X153.035Y-111.76
X153.035Y-114.3
X153.035Y-116.84
X153.035Y-121.92
X153.035Y-147.955
X154.305Y-113.03
X155.575Y-110.49
X156.21Y-100.965
X158.115Y-102.235
T2
X142.23Y-104.14
X142.23Y-106.68
X142.23Y-109.22
X142.23Y-111.76
X142.23Y-114.3
X142.23Y-116.84
X142.23Y-119.38
X142.23Y-121.92
X142.23Y-124.46
X142.23Y-127.0
X142.23Y-129.54
X142.23Y-132.08
X142.23Y-134.62
X142.23Y-137.16
X157.47Y-104.14
X157.47Y-106.68
X157.47Y-109.22
X157.47Y-111.76
X157.47Y-114.3
X157.47Y-116.84
X157.47Y-119.38
X157.47Y-121.92
X157.47Y-124.46
X157.47Y-127.0
X157.47Y-129.54
X157.47Y-132.08
X157.47Y-134.62
X157.47Y-137.16
T3
X83.947Y-141.411
X83.947Y-148.911
X96.52Y-139.29
X96.52Y-141.83
X99.695Y-139.29
X99.695Y-141.83
X104.77Y-98.43
X104.77Y-100.97
X104.77Y-103.51
X104.77Y-106.05
X104.77Y-108.59
X104.77Y-111.13
X104.77Y-113.67
X104.77Y-116.21
X104.77Y-118.75
X104.77Y-121.29
X104.77Y-123.83
X104.77Y-126.37
X104.77Y-128.91
X104.77Y-131.45
X104.77Y-133.99
X104.77Y-136.53
X104.77Y-139.07
X104.77Y-141.61
X104.77Y-144.15
X104.77Y-146.69
X120.01Y-98.43
X120.01Y-100.97
X120.01Y-103.51
X120.01Y-106.05
X120.01Y-108.59
X120.01Y-111.13
X120.01Y-113.67
X120.01Y-116.21
X120.01Y-118.75
X120.01Y-121.29
X120.01Y-123.83
X120.01Y-126.37
X120.01Y-128.91
X120.01Y-131.45
X120.01Y-133.99
X120.01Y-136.53
X120.01Y-139.07
X120.01Y-141.61
X120.01Y-144.15
X120.01Y-146.69
X125.095Y-136.525
X125.095Y-144.025
X125.73Y-106.045
X125.73Y-108.585
X125.73Y-111.125
X125.73Y-113.665
X125.73Y-116.205
X125.73Y-118.745
X125.73Y-121.285
X125.73Y-123.825
X125.73Y-126.365
X125.73Y-128.905
X133.35Y-106.045
X133.35Y-108.585
X133.35Y-111.125
X133.35Y-113.665
X133.35Y-116.205
X133.35Y-118.745
X133.35Y-121.285
X133.35Y-123.825
X133.35Y-126.365
X133.35Y-128.905
T4
X96.515Y-146.685
X99.055Y-146.685
T5
X78.105Y-103.505
X78.105Y-106.045
X78.105Y-108.585
X78.105Y-111.125
X78.105Y-113.665
X78.105Y-116.205
X78.105Y-118.745
X78.105Y-121.285
X78.105Y-123.825
X78.105Y-126.365
X78.105Y-128.905
X78.105Y-131.445
X78.105Y-133.985
X78.105Y-136.525
X78.105Y-139.065
X86.793Y-144.308
X86.793Y-148.808
X93.293Y-144.308
X93.293Y-148.808
X93.345Y-103.505
X93.345Y-106.045
X93.345Y-108.585
X93.345Y-111.125
X93.345Y-113.665
X93.345Y-116.205
X93.345Y-118.745
X93.345Y-121.285
X93.345Y-123.825
X93.345Y-126.365
X93.345Y-128.905
X93.345Y-131.445
X93.345Y-133.985
X93.345Y-136.525
X93.345Y-139.065
T0
M30
