%TF.GenerationSoftware,KiCad,Pcbnew,(6.0.0)*%
%TF.CreationDate,2023-01-29T20:34:43-05:00*%
%TF.ProjectId,dumper,64756d70-6572-42e6-9b69-6361645f7063,rev?*%
%TF.SameCoordinates,Original*%
%TF.FileFunction,Legend,Bot*%
%TF.FilePolarity,Positive*%
%FSLAX46Y46*%
G04 Gerber Fmt 4.6, Leading zero omitted, Abs format (unit mm)*
G04 Created by KiCad (PCBNEW (6.0.0)) date 2023-01-29 20:34:43*
%MOMM*%
%LPD*%
G01*
G04 APERTURE LIST*
%ADD10C,0.150000*%
%ADD11C,1.700000*%
%ADD12R,1.600000X1.600000*%
%ADD13O,1.600000X1.600000*%
%ADD14C,1.600000*%
%ADD15R,1.295400X1.295400*%
%ADD16C,1.295400*%
%ADD17C,3.200000*%
%ADD18R,1.800000X1.800000*%
%ADD19C,1.800000*%
G04 APERTURE END LIST*
D10*
X80906904Y-121737380D02*
X80906904Y-121213571D01*
X80954523Y-121118333D01*
X81049761Y-121070714D01*
X81240238Y-121070714D01*
X81335476Y-121118333D01*
X80906904Y-121689761D02*
X81002142Y-121737380D01*
X81240238Y-121737380D01*
X81335476Y-121689761D01*
X81383095Y-121594523D01*
X81383095Y-121499285D01*
X81335476Y-121404047D01*
X81240238Y-121356428D01*
X81002142Y-121356428D01*
X80906904Y-121308809D01*
X80002142Y-121070714D02*
X80002142Y-121737380D01*
X80240238Y-120689761D02*
X80478333Y-121404047D01*
X79859285Y-121404047D01*
X81335476Y-136310714D02*
X81335476Y-137120238D01*
X81383095Y-137215476D01*
X81430714Y-137263095D01*
X81525952Y-137310714D01*
X81668809Y-137310714D01*
X81764047Y-137263095D01*
X81335476Y-136929761D02*
X81430714Y-136977380D01*
X81621190Y-136977380D01*
X81716428Y-136929761D01*
X81764047Y-136882142D01*
X81811666Y-136786904D01*
X81811666Y-136501190D01*
X81764047Y-136405952D01*
X81716428Y-136358333D01*
X81621190Y-136310714D01*
X81430714Y-136310714D01*
X81335476Y-136358333D01*
X80859285Y-136310714D02*
X80859285Y-136977380D01*
X80859285Y-136405952D02*
X80811666Y-136358333D01*
X80716428Y-136310714D01*
X80573571Y-136310714D01*
X80478333Y-136358333D01*
X80430714Y-136453571D01*
X80430714Y-136977380D01*
X79525952Y-136977380D02*
X79525952Y-135977380D01*
X79525952Y-136929761D02*
X79621190Y-136977380D01*
X79811666Y-136977380D01*
X79906904Y-136929761D01*
X79954523Y-136882142D01*
X80002142Y-136786904D01*
X80002142Y-136501190D01*
X79954523Y-136405952D01*
X79906904Y-136358333D01*
X79811666Y-136310714D01*
X79621190Y-136310714D01*
X79525952Y-136358333D01*
X81383095Y-103957380D02*
X81383095Y-102957380D01*
X81383095Y-103909761D02*
X81478333Y-103957380D01*
X81668809Y-103957380D01*
X81764047Y-103909761D01*
X81811666Y-103862142D01*
X81859285Y-103766904D01*
X81859285Y-103481190D01*
X81811666Y-103385952D01*
X81764047Y-103338333D01*
X81668809Y-103290714D01*
X81478333Y-103290714D01*
X81383095Y-103338333D01*
X80383095Y-103957380D02*
X80954523Y-103957380D01*
X80668809Y-103957380D02*
X80668809Y-102957380D01*
X80764047Y-103100238D01*
X80859285Y-103195476D01*
X80954523Y-103243095D01*
X80049761Y-102957380D02*
X79430714Y-102957380D01*
X79764047Y-103338333D01*
X79621190Y-103338333D01*
X79525952Y-103385952D01*
X79478333Y-103433571D01*
X79430714Y-103528809D01*
X79430714Y-103766904D01*
X79478333Y-103862142D01*
X79525952Y-103909761D01*
X79621190Y-103957380D01*
X79906904Y-103957380D01*
X80002142Y-103909761D01*
X80049761Y-103862142D01*
X91543095Y-106497380D02*
X91543095Y-105497380D01*
X91543095Y-106449761D02*
X91638333Y-106497380D01*
X91828809Y-106497380D01*
X91924047Y-106449761D01*
X91971666Y-106402142D01*
X92019285Y-106306904D01*
X92019285Y-106021190D01*
X91971666Y-105925952D01*
X91924047Y-105878333D01*
X91828809Y-105830714D01*
X91638333Y-105830714D01*
X91543095Y-105878333D01*
X90543095Y-106497380D02*
X91114523Y-106497380D01*
X90828809Y-106497380D02*
X90828809Y-105497380D01*
X90924047Y-105640238D01*
X91019285Y-105735476D01*
X91114523Y-105783095D01*
X89590714Y-106497380D02*
X90162142Y-106497380D01*
X89876428Y-106497380D02*
X89876428Y-105497380D01*
X89971666Y-105640238D01*
X90066904Y-105735476D01*
X90162142Y-105783095D01*
X91701904Y-126944380D02*
X91701904Y-125944380D01*
X91701904Y-126896761D02*
X91797142Y-126944380D01*
X91987619Y-126944380D01*
X92082857Y-126896761D01*
X92130476Y-126849142D01*
X92178095Y-126753904D01*
X92178095Y-126468190D01*
X92130476Y-126372952D01*
X92082857Y-126325333D01*
X91987619Y-126277714D01*
X91797142Y-126277714D01*
X91701904Y-126325333D01*
X91320952Y-125944380D02*
X90701904Y-125944380D01*
X91035238Y-126325333D01*
X90892380Y-126325333D01*
X90797142Y-126372952D01*
X90749523Y-126420571D01*
X90701904Y-126515809D01*
X90701904Y-126753904D01*
X90749523Y-126849142D01*
X90797142Y-126896761D01*
X90892380Y-126944380D01*
X91178095Y-126944380D01*
X91273333Y-126896761D01*
X91320952Y-126849142D01*
X91701904Y-119197380D02*
X91701904Y-118197380D01*
X91701904Y-119149761D02*
X91797142Y-119197380D01*
X91987619Y-119197380D01*
X92082857Y-119149761D01*
X92130476Y-119102142D01*
X92178095Y-119006904D01*
X92178095Y-118721190D01*
X92130476Y-118625952D01*
X92082857Y-118578333D01*
X91987619Y-118530714D01*
X91797142Y-118530714D01*
X91701904Y-118578333D01*
X90797142Y-118197380D02*
X90987619Y-118197380D01*
X91082857Y-118245000D01*
X91130476Y-118292619D01*
X91225714Y-118435476D01*
X91273333Y-118625952D01*
X91273333Y-119006904D01*
X91225714Y-119102142D01*
X91178095Y-119149761D01*
X91082857Y-119197380D01*
X90892380Y-119197380D01*
X90797142Y-119149761D01*
X90749523Y-119102142D01*
X90701904Y-119006904D01*
X90701904Y-118768809D01*
X90749523Y-118673571D01*
X90797142Y-118625952D01*
X90892380Y-118578333D01*
X91082857Y-118578333D01*
X91178095Y-118625952D01*
X91225714Y-118673571D01*
X91273333Y-118768809D01*
X80906904Y-119197380D02*
X80906904Y-118673571D01*
X80954523Y-118578333D01*
X81049761Y-118530714D01*
X81240238Y-118530714D01*
X81335476Y-118578333D01*
X80906904Y-119149761D02*
X81002142Y-119197380D01*
X81240238Y-119197380D01*
X81335476Y-119149761D01*
X81383095Y-119054523D01*
X81383095Y-118959285D01*
X81335476Y-118864047D01*
X81240238Y-118816428D01*
X81002142Y-118816428D01*
X80906904Y-118768809D01*
X80525952Y-118197380D02*
X79906904Y-118197380D01*
X80240238Y-118578333D01*
X80097380Y-118578333D01*
X80002142Y-118625952D01*
X79954523Y-118673571D01*
X79906904Y-118768809D01*
X79906904Y-119006904D01*
X79954523Y-119102142D01*
X80002142Y-119149761D01*
X80097380Y-119197380D01*
X80383095Y-119197380D01*
X80478333Y-119149761D01*
X80525952Y-119102142D01*
X91543095Y-109037380D02*
X91543095Y-108037380D01*
X91543095Y-108989761D02*
X91638333Y-109037380D01*
X91828809Y-109037380D01*
X91924047Y-108989761D01*
X91971666Y-108942142D01*
X92019285Y-108846904D01*
X92019285Y-108561190D01*
X91971666Y-108465952D01*
X91924047Y-108418333D01*
X91828809Y-108370714D01*
X91638333Y-108370714D01*
X91543095Y-108418333D01*
X90543095Y-109037380D02*
X91114523Y-109037380D01*
X90828809Y-109037380D02*
X90828809Y-108037380D01*
X90924047Y-108180238D01*
X91019285Y-108275476D01*
X91114523Y-108323095D01*
X89924047Y-108037380D02*
X89828809Y-108037380D01*
X89733571Y-108085000D01*
X89685952Y-108132619D01*
X89638333Y-108227857D01*
X89590714Y-108418333D01*
X89590714Y-108656428D01*
X89638333Y-108846904D01*
X89685952Y-108942142D01*
X89733571Y-108989761D01*
X89828809Y-109037380D01*
X89924047Y-109037380D01*
X90019285Y-108989761D01*
X90066904Y-108942142D01*
X90114523Y-108846904D01*
X90162142Y-108656428D01*
X90162142Y-108418333D01*
X90114523Y-108227857D01*
X90066904Y-108132619D01*
X90019285Y-108085000D01*
X89924047Y-108037380D01*
X91701904Y-121737380D02*
X91701904Y-120737380D01*
X91701904Y-121689761D02*
X91797142Y-121737380D01*
X91987619Y-121737380D01*
X92082857Y-121689761D01*
X92130476Y-121642142D01*
X92178095Y-121546904D01*
X92178095Y-121261190D01*
X92130476Y-121165952D01*
X92082857Y-121118333D01*
X91987619Y-121070714D01*
X91797142Y-121070714D01*
X91701904Y-121118333D01*
X90749523Y-120737380D02*
X91225714Y-120737380D01*
X91273333Y-121213571D01*
X91225714Y-121165952D01*
X91130476Y-121118333D01*
X90892380Y-121118333D01*
X90797142Y-121165952D01*
X90749523Y-121213571D01*
X90701904Y-121308809D01*
X90701904Y-121546904D01*
X90749523Y-121642142D01*
X90797142Y-121689761D01*
X90892380Y-121737380D01*
X91130476Y-121737380D01*
X91225714Y-121689761D01*
X91273333Y-121642142D01*
X80906904Y-116657380D02*
X80906904Y-116133571D01*
X80954523Y-116038333D01*
X81049761Y-115990714D01*
X81240238Y-115990714D01*
X81335476Y-116038333D01*
X80906904Y-116609761D02*
X81002142Y-116657380D01*
X81240238Y-116657380D01*
X81335476Y-116609761D01*
X81383095Y-116514523D01*
X81383095Y-116419285D01*
X81335476Y-116324047D01*
X81240238Y-116276428D01*
X81002142Y-116276428D01*
X80906904Y-116228809D01*
X80478333Y-115752619D02*
X80430714Y-115705000D01*
X80335476Y-115657380D01*
X80097380Y-115657380D01*
X80002142Y-115705000D01*
X79954523Y-115752619D01*
X79906904Y-115847857D01*
X79906904Y-115943095D01*
X79954523Y-116085952D01*
X80525952Y-116657380D01*
X79906904Y-116657380D01*
X91495476Y-131230714D02*
X91495476Y-132040238D01*
X91543095Y-132135476D01*
X91590714Y-132183095D01*
X91685952Y-132230714D01*
X91828809Y-132230714D01*
X91924047Y-132183095D01*
X91495476Y-131849761D02*
X91590714Y-131897380D01*
X91781190Y-131897380D01*
X91876428Y-131849761D01*
X91924047Y-131802142D01*
X91971666Y-131706904D01*
X91971666Y-131421190D01*
X91924047Y-131325952D01*
X91876428Y-131278333D01*
X91781190Y-131230714D01*
X91590714Y-131230714D01*
X91495476Y-131278333D01*
X91019285Y-131230714D02*
X91019285Y-131897380D01*
X91019285Y-131325952D02*
X90971666Y-131278333D01*
X90876428Y-131230714D01*
X90733571Y-131230714D01*
X90638333Y-131278333D01*
X90590714Y-131373571D01*
X90590714Y-131897380D01*
X89685952Y-131897380D02*
X89685952Y-130897380D01*
X89685952Y-131849761D02*
X89781190Y-131897380D01*
X89971666Y-131897380D01*
X90066904Y-131849761D01*
X90114523Y-131802142D01*
X90162142Y-131706904D01*
X90162142Y-131421190D01*
X90114523Y-131325952D01*
X90066904Y-131278333D01*
X89971666Y-131230714D01*
X89781190Y-131230714D01*
X89685952Y-131278333D01*
X91701904Y-129230380D02*
X91701904Y-128230380D01*
X91701904Y-129182761D02*
X91797142Y-129230380D01*
X91987619Y-129230380D01*
X92082857Y-129182761D01*
X92130476Y-129135142D01*
X92178095Y-129039904D01*
X92178095Y-128754190D01*
X92130476Y-128658952D01*
X92082857Y-128611333D01*
X91987619Y-128563714D01*
X91797142Y-128563714D01*
X91701904Y-128611333D01*
X91273333Y-128325619D02*
X91225714Y-128278000D01*
X91130476Y-128230380D01*
X90892380Y-128230380D01*
X90797142Y-128278000D01*
X90749523Y-128325619D01*
X90701904Y-128420857D01*
X90701904Y-128516095D01*
X90749523Y-128658952D01*
X91320952Y-129230380D01*
X90701904Y-129230380D01*
X91701904Y-124277380D02*
X91701904Y-123277380D01*
X91701904Y-124229761D02*
X91797142Y-124277380D01*
X91987619Y-124277380D01*
X92082857Y-124229761D01*
X92130476Y-124182142D01*
X92178095Y-124086904D01*
X92178095Y-123801190D01*
X92130476Y-123705952D01*
X92082857Y-123658333D01*
X91987619Y-123610714D01*
X91797142Y-123610714D01*
X91701904Y-123658333D01*
X90797142Y-123610714D02*
X90797142Y-124277380D01*
X91035238Y-123229761D02*
X91273333Y-123944047D01*
X90654285Y-123944047D01*
X80906904Y-114117380D02*
X80906904Y-113593571D01*
X80954523Y-113498333D01*
X81049761Y-113450714D01*
X81240238Y-113450714D01*
X81335476Y-113498333D01*
X80906904Y-114069761D02*
X81002142Y-114117380D01*
X81240238Y-114117380D01*
X81335476Y-114069761D01*
X81383095Y-113974523D01*
X81383095Y-113879285D01*
X81335476Y-113784047D01*
X81240238Y-113736428D01*
X81002142Y-113736428D01*
X80906904Y-113688809D01*
X79906904Y-114117380D02*
X80478333Y-114117380D01*
X80192619Y-114117380D02*
X80192619Y-113117380D01*
X80287857Y-113260238D01*
X80383095Y-113355476D01*
X80478333Y-113403095D01*
X91701904Y-116657380D02*
X91701904Y-115657380D01*
X91701904Y-116609761D02*
X91797142Y-116657380D01*
X91987619Y-116657380D01*
X92082857Y-116609761D01*
X92130476Y-116562142D01*
X92178095Y-116466904D01*
X92178095Y-116181190D01*
X92130476Y-116085952D01*
X92082857Y-116038333D01*
X91987619Y-115990714D01*
X91797142Y-115990714D01*
X91701904Y-116038333D01*
X91320952Y-115657380D02*
X90654285Y-115657380D01*
X91082857Y-116657380D01*
X80906904Y-129357380D02*
X80906904Y-128833571D01*
X80954523Y-128738333D01*
X81049761Y-128690714D01*
X81240238Y-128690714D01*
X81335476Y-128738333D01*
X80906904Y-129309761D02*
X81002142Y-129357380D01*
X81240238Y-129357380D01*
X81335476Y-129309761D01*
X81383095Y-129214523D01*
X81383095Y-129119285D01*
X81335476Y-129024047D01*
X81240238Y-128976428D01*
X81002142Y-128976428D01*
X80906904Y-128928809D01*
X80525952Y-128357380D02*
X79859285Y-128357380D01*
X80287857Y-129357380D01*
X80787857Y-130897380D02*
X81264047Y-130897380D01*
X81311666Y-131373571D01*
X81264047Y-131325952D01*
X81168809Y-131278333D01*
X80930714Y-131278333D01*
X80835476Y-131325952D01*
X80787857Y-131373571D01*
X80740238Y-131468809D01*
X80740238Y-131706904D01*
X80787857Y-131802142D01*
X80835476Y-131849761D01*
X80930714Y-131897380D01*
X81168809Y-131897380D01*
X81264047Y-131849761D01*
X81311666Y-131802142D01*
X80406904Y-131230714D02*
X80168809Y-131897380D01*
X79930714Y-131230714D01*
X91701904Y-114117380D02*
X91701904Y-113117380D01*
X91701904Y-114069761D02*
X91797142Y-114117380D01*
X91987619Y-114117380D01*
X92082857Y-114069761D01*
X92130476Y-114022142D01*
X92178095Y-113926904D01*
X92178095Y-113641190D01*
X92130476Y-113545952D01*
X92082857Y-113498333D01*
X91987619Y-113450714D01*
X91797142Y-113450714D01*
X91701904Y-113498333D01*
X91082857Y-113545952D02*
X91178095Y-113498333D01*
X91225714Y-113450714D01*
X91273333Y-113355476D01*
X91273333Y-113307857D01*
X91225714Y-113212619D01*
X91178095Y-113165000D01*
X91082857Y-113117380D01*
X90892380Y-113117380D01*
X90797142Y-113165000D01*
X90749523Y-113212619D01*
X90701904Y-113307857D01*
X90701904Y-113355476D01*
X90749523Y-113450714D01*
X90797142Y-113498333D01*
X90892380Y-113545952D01*
X91082857Y-113545952D01*
X91178095Y-113593571D01*
X91225714Y-113641190D01*
X91273333Y-113736428D01*
X91273333Y-113926904D01*
X91225714Y-114022142D01*
X91178095Y-114069761D01*
X91082857Y-114117380D01*
X90892380Y-114117380D01*
X90797142Y-114069761D01*
X90749523Y-114022142D01*
X90701904Y-113926904D01*
X90701904Y-113736428D01*
X90749523Y-113641190D01*
X90797142Y-113593571D01*
X90892380Y-113545952D01*
X80906904Y-111577380D02*
X80906904Y-111053571D01*
X80954523Y-110958333D01*
X81049761Y-110910714D01*
X81240238Y-110910714D01*
X81335476Y-110958333D01*
X80906904Y-111529761D02*
X81002142Y-111577380D01*
X81240238Y-111577380D01*
X81335476Y-111529761D01*
X81383095Y-111434523D01*
X81383095Y-111339285D01*
X81335476Y-111244047D01*
X81240238Y-111196428D01*
X81002142Y-111196428D01*
X80906904Y-111148809D01*
X80240238Y-110577380D02*
X80145000Y-110577380D01*
X80049761Y-110625000D01*
X80002142Y-110672619D01*
X79954523Y-110767857D01*
X79906904Y-110958333D01*
X79906904Y-111196428D01*
X79954523Y-111386904D01*
X80002142Y-111482142D01*
X80049761Y-111529761D01*
X80145000Y-111577380D01*
X80240238Y-111577380D01*
X80335476Y-111529761D01*
X80383095Y-111482142D01*
X80430714Y-111386904D01*
X80478333Y-111196428D01*
X80478333Y-110958333D01*
X80430714Y-110767857D01*
X80383095Y-110672619D01*
X80335476Y-110625000D01*
X80240238Y-110577380D01*
X80906904Y-124277380D02*
X80906904Y-123753571D01*
X80954523Y-123658333D01*
X81049761Y-123610714D01*
X81240238Y-123610714D01*
X81335476Y-123658333D01*
X80906904Y-124229761D02*
X81002142Y-124277380D01*
X81240238Y-124277380D01*
X81335476Y-124229761D01*
X81383095Y-124134523D01*
X81383095Y-124039285D01*
X81335476Y-123944047D01*
X81240238Y-123896428D01*
X81002142Y-123896428D01*
X80906904Y-123848809D01*
X79954523Y-123277380D02*
X80430714Y-123277380D01*
X80478333Y-123753571D01*
X80430714Y-123705952D01*
X80335476Y-123658333D01*
X80097380Y-123658333D01*
X80002142Y-123705952D01*
X79954523Y-123753571D01*
X79906904Y-123848809D01*
X79906904Y-124086904D01*
X79954523Y-124182142D01*
X80002142Y-124229761D01*
X80097380Y-124277380D01*
X80335476Y-124277380D01*
X80430714Y-124229761D01*
X80478333Y-124182142D01*
X91701904Y-111577380D02*
X91701904Y-110577380D01*
X91701904Y-111529761D02*
X91797142Y-111577380D01*
X91987619Y-111577380D01*
X92082857Y-111529761D01*
X92130476Y-111482142D01*
X92178095Y-111386904D01*
X92178095Y-111101190D01*
X92130476Y-111005952D01*
X92082857Y-110958333D01*
X91987619Y-110910714D01*
X91797142Y-110910714D01*
X91701904Y-110958333D01*
X91178095Y-111577380D02*
X90987619Y-111577380D01*
X90892380Y-111529761D01*
X90844761Y-111482142D01*
X90749523Y-111339285D01*
X90701904Y-111148809D01*
X90701904Y-110767857D01*
X90749523Y-110672619D01*
X90797142Y-110625000D01*
X90892380Y-110577380D01*
X91082857Y-110577380D01*
X91178095Y-110625000D01*
X91225714Y-110672619D01*
X91273333Y-110767857D01*
X91273333Y-111005952D01*
X91225714Y-111101190D01*
X91178095Y-111148809D01*
X91082857Y-111196428D01*
X90892380Y-111196428D01*
X90797142Y-111148809D01*
X90749523Y-111101190D01*
X90701904Y-111005952D01*
X147507142Y-111253571D02*
X147554761Y-111205952D01*
X147602380Y-111063095D01*
X147602380Y-110967857D01*
X147554761Y-110825000D01*
X147459523Y-110729761D01*
X147364285Y-110682142D01*
X147173809Y-110634523D01*
X147030952Y-110634523D01*
X146840476Y-110682142D01*
X146745238Y-110729761D01*
X146650000Y-110825000D01*
X146602380Y-110967857D01*
X146602380Y-111063095D01*
X146650000Y-111205952D01*
X146697619Y-111253571D01*
X147602380Y-111825000D02*
X147554761Y-111729761D01*
X147507142Y-111682142D01*
X147411904Y-111634523D01*
X147126190Y-111634523D01*
X147030952Y-111682142D01*
X146983333Y-111729761D01*
X146935714Y-111825000D01*
X146935714Y-111967857D01*
X146983333Y-112063095D01*
X147030952Y-112110714D01*
X147126190Y-112158333D01*
X147411904Y-112158333D01*
X147507142Y-112110714D01*
X147554761Y-112063095D01*
X147602380Y-111967857D01*
X147602380Y-111825000D01*
X147602380Y-113015476D02*
X146602380Y-113015476D01*
X147554761Y-113015476D02*
X147602380Y-112920238D01*
X147602380Y-112729761D01*
X147554761Y-112634523D01*
X147507142Y-112586904D01*
X147411904Y-112539285D01*
X147126190Y-112539285D01*
X147030952Y-112586904D01*
X146983333Y-112634523D01*
X146935714Y-112729761D01*
X146935714Y-112920238D01*
X146983333Y-113015476D01*
X147554761Y-113872619D02*
X147602380Y-113777380D01*
X147602380Y-113586904D01*
X147554761Y-113491666D01*
X147459523Y-113444047D01*
X147078571Y-113444047D01*
X146983333Y-113491666D01*
X146935714Y-113586904D01*
X146935714Y-113777380D01*
X146983333Y-113872619D01*
X147078571Y-113920238D01*
X147173809Y-113920238D01*
X147269047Y-113444047D01*
X147602380Y-115253571D02*
X147554761Y-115158333D01*
X147459523Y-115110714D01*
X146602380Y-115110714D01*
X147602380Y-115777380D02*
X147554761Y-115682142D01*
X147507142Y-115634523D01*
X147411904Y-115586904D01*
X147126190Y-115586904D01*
X147030952Y-115634523D01*
X146983333Y-115682142D01*
X146935714Y-115777380D01*
X146935714Y-115920238D01*
X146983333Y-116015476D01*
X147030952Y-116063095D01*
X147126190Y-116110714D01*
X147411904Y-116110714D01*
X147507142Y-116063095D01*
X147554761Y-116015476D01*
X147602380Y-115920238D01*
X147602380Y-115777380D01*
X147602380Y-116967857D02*
X147078571Y-116967857D01*
X146983333Y-116920238D01*
X146935714Y-116825000D01*
X146935714Y-116634523D01*
X146983333Y-116539285D01*
X147554761Y-116967857D02*
X147602380Y-116872619D01*
X147602380Y-116634523D01*
X147554761Y-116539285D01*
X147459523Y-116491666D01*
X147364285Y-116491666D01*
X147269047Y-116539285D01*
X147221428Y-116634523D01*
X147221428Y-116872619D01*
X147173809Y-116967857D01*
X147602380Y-117872619D02*
X146602380Y-117872619D01*
X147554761Y-117872619D02*
X147602380Y-117777380D01*
X147602380Y-117586904D01*
X147554761Y-117491666D01*
X147507142Y-117444047D01*
X147411904Y-117396428D01*
X147126190Y-117396428D01*
X147030952Y-117444047D01*
X146983333Y-117491666D01*
X146935714Y-117586904D01*
X146935714Y-117777380D01*
X146983333Y-117872619D01*
X147554761Y-118729761D02*
X147602380Y-118634523D01*
X147602380Y-118444047D01*
X147554761Y-118348809D01*
X147459523Y-118301190D01*
X147078571Y-118301190D01*
X146983333Y-118348809D01*
X146935714Y-118444047D01*
X146935714Y-118634523D01*
X146983333Y-118729761D01*
X147078571Y-118777380D01*
X147173809Y-118777380D01*
X147269047Y-118301190D01*
X147602380Y-119634523D02*
X146602380Y-119634523D01*
X147554761Y-119634523D02*
X147602380Y-119539285D01*
X147602380Y-119348809D01*
X147554761Y-119253571D01*
X147507142Y-119205952D01*
X147411904Y-119158333D01*
X147126190Y-119158333D01*
X147030952Y-119205952D01*
X146983333Y-119253571D01*
X146935714Y-119348809D01*
X146935714Y-119539285D01*
X146983333Y-119634523D01*
X147602380Y-120872619D02*
X146935714Y-120872619D01*
X146602380Y-120872619D02*
X146650000Y-120825000D01*
X146697619Y-120872619D01*
X146650000Y-120920238D01*
X146602380Y-120872619D01*
X146697619Y-120872619D01*
X146935714Y-121348809D02*
X147602380Y-121348809D01*
X147030952Y-121348809D02*
X146983333Y-121396428D01*
X146935714Y-121491666D01*
X146935714Y-121634523D01*
X146983333Y-121729761D01*
X147078571Y-121777380D01*
X147602380Y-121777380D01*
X146935714Y-122110714D02*
X146935714Y-122491666D01*
X146602380Y-122253571D02*
X147459523Y-122253571D01*
X147554761Y-122301190D01*
X147602380Y-122396428D01*
X147602380Y-122491666D01*
X147602380Y-122967857D02*
X147554761Y-122872619D01*
X147507142Y-122825000D01*
X147411904Y-122777380D01*
X147126190Y-122777380D01*
X147030952Y-122825000D01*
X146983333Y-122872619D01*
X146935714Y-122967857D01*
X146935714Y-123110714D01*
X146983333Y-123205952D01*
X147030952Y-123253571D01*
X147126190Y-123301190D01*
X147411904Y-123301190D01*
X147507142Y-123253571D01*
X147554761Y-123205952D01*
X147602380Y-123110714D01*
X147602380Y-122967857D01*
X146935714Y-124348809D02*
X146935714Y-124729761D01*
X146602380Y-124491666D02*
X147459523Y-124491666D01*
X147554761Y-124539285D01*
X147602380Y-124634523D01*
X147602380Y-124729761D01*
X147602380Y-125063095D02*
X146602380Y-125063095D01*
X147602380Y-125491666D02*
X147078571Y-125491666D01*
X146983333Y-125444047D01*
X146935714Y-125348809D01*
X146935714Y-125205952D01*
X146983333Y-125110714D01*
X147030952Y-125063095D01*
X147554761Y-126348809D02*
X147602380Y-126253571D01*
X147602380Y-126063095D01*
X147554761Y-125967857D01*
X147459523Y-125920238D01*
X147078571Y-125920238D01*
X146983333Y-125967857D01*
X146935714Y-126063095D01*
X146935714Y-126253571D01*
X146983333Y-126348809D01*
X147078571Y-126396428D01*
X147173809Y-126396428D01*
X147269047Y-125920238D01*
X147078571Y-127586904D02*
X147078571Y-127920238D01*
X147602380Y-128063095D02*
X147602380Y-127586904D01*
X146602380Y-127586904D01*
X146602380Y-128063095D01*
X147602380Y-128491666D02*
X146602380Y-128491666D01*
X146602380Y-128872619D01*
X146650000Y-128967857D01*
X146697619Y-129015476D01*
X146792857Y-129063095D01*
X146935714Y-129063095D01*
X147030952Y-129015476D01*
X147078571Y-128967857D01*
X147126190Y-128872619D01*
X147126190Y-128491666D01*
X147602380Y-130063095D02*
X147126190Y-129729761D01*
X147602380Y-129491666D02*
X146602380Y-129491666D01*
X146602380Y-129872619D01*
X146650000Y-129967857D01*
X146697619Y-130015476D01*
X146792857Y-130063095D01*
X146935714Y-130063095D01*
X147030952Y-130015476D01*
X147078571Y-129967857D01*
X147126190Y-129872619D01*
X147126190Y-129491666D01*
X146602380Y-130682142D02*
X146602380Y-130872619D01*
X146650000Y-130967857D01*
X146745238Y-131063095D01*
X146935714Y-131110714D01*
X147269047Y-131110714D01*
X147459523Y-131063095D01*
X147554761Y-130967857D01*
X147602380Y-130872619D01*
X147602380Y-130682142D01*
X147554761Y-130586904D01*
X147459523Y-130491666D01*
X147269047Y-130444047D01*
X146935714Y-130444047D01*
X146745238Y-130491666D01*
X146650000Y-130586904D01*
X146602380Y-130682142D01*
X147602380Y-131539285D02*
X146602380Y-131539285D01*
X147316666Y-131872619D01*
X146602380Y-132205952D01*
X147602380Y-132205952D01*
X147602380Y-133444047D02*
X146935714Y-133444047D01*
X147126190Y-133444047D02*
X147030952Y-133491666D01*
X146983333Y-133539285D01*
X146935714Y-133634523D01*
X146935714Y-133729761D01*
X146935714Y-134491666D02*
X147602380Y-134491666D01*
X146935714Y-134063095D02*
X147459523Y-134063095D01*
X147554761Y-134110714D01*
X147602380Y-134205952D01*
X147602380Y-134348809D01*
X147554761Y-134444047D01*
X147507142Y-134491666D01*
X146935714Y-134967857D02*
X147602380Y-134967857D01*
X147030952Y-134967857D02*
X146983333Y-135015476D01*
X146935714Y-135110714D01*
X146935714Y-135253571D01*
X146983333Y-135348809D01*
X147078571Y-135396428D01*
X147602380Y-135396428D01*
X147554761Y-135825000D02*
X147602380Y-135920238D01*
X147602380Y-136110714D01*
X147554761Y-136205952D01*
X147459523Y-136253571D01*
X147411904Y-136253571D01*
X147316666Y-136205952D01*
X147269047Y-136110714D01*
X147269047Y-135967857D01*
X147221428Y-135872619D01*
X147126190Y-135825000D01*
X147078571Y-135825000D01*
X146983333Y-135872619D01*
X146935714Y-135967857D01*
X146935714Y-136110714D01*
X146983333Y-136205952D01*
X149212380Y-101110714D02*
X148688571Y-101110714D01*
X148593333Y-101063095D01*
X148545714Y-100967857D01*
X148545714Y-100777380D01*
X148593333Y-100682142D01*
X149164761Y-101110714D02*
X149212380Y-101015476D01*
X149212380Y-100777380D01*
X149164761Y-100682142D01*
X149069523Y-100634523D01*
X148974285Y-100634523D01*
X148879047Y-100682142D01*
X148831428Y-100777380D01*
X148831428Y-101015476D01*
X148783809Y-101110714D01*
X148545714Y-101586904D02*
X149212380Y-101586904D01*
X148640952Y-101586904D02*
X148593333Y-101634523D01*
X148545714Y-101729761D01*
X148545714Y-101872619D01*
X148593333Y-101967857D01*
X148688571Y-102015476D01*
X149212380Y-102015476D01*
X149212380Y-102920238D02*
X148212380Y-102920238D01*
X149164761Y-102920238D02*
X149212380Y-102825000D01*
X149212380Y-102634523D01*
X149164761Y-102539285D01*
X149117142Y-102491666D01*
X149021904Y-102444047D01*
X148736190Y-102444047D01*
X148640952Y-102491666D01*
X148593333Y-102539285D01*
X148545714Y-102634523D01*
X148545714Y-102825000D01*
X148593333Y-102920238D01*
X149212380Y-104586904D02*
X148212380Y-104586904D01*
X149164761Y-104586904D02*
X149212380Y-104491666D01*
X149212380Y-104301190D01*
X149164761Y-104205952D01*
X149117142Y-104158333D01*
X149021904Y-104110714D01*
X148736190Y-104110714D01*
X148640952Y-104158333D01*
X148593333Y-104205952D01*
X148545714Y-104301190D01*
X148545714Y-104491666D01*
X148593333Y-104586904D01*
X148545714Y-105491666D02*
X149212380Y-105491666D01*
X148545714Y-105063095D02*
X149069523Y-105063095D01*
X149164761Y-105110714D01*
X149212380Y-105205952D01*
X149212380Y-105348809D01*
X149164761Y-105444047D01*
X149117142Y-105491666D01*
X149212380Y-105967857D02*
X148545714Y-105967857D01*
X148640952Y-105967857D02*
X148593333Y-106015476D01*
X148545714Y-106110714D01*
X148545714Y-106253571D01*
X148593333Y-106348809D01*
X148688571Y-106396428D01*
X149212380Y-106396428D01*
X148688571Y-106396428D02*
X148593333Y-106444047D01*
X148545714Y-106539285D01*
X148545714Y-106682142D01*
X148593333Y-106777380D01*
X148688571Y-106825000D01*
X149212380Y-106825000D01*
X148545714Y-107301190D02*
X149545714Y-107301190D01*
X148593333Y-107301190D02*
X148545714Y-107396428D01*
X148545714Y-107586904D01*
X148593333Y-107682142D01*
X148640952Y-107729761D01*
X148736190Y-107777380D01*
X149021904Y-107777380D01*
X149117142Y-107729761D01*
X149164761Y-107682142D01*
X149212380Y-107586904D01*
X149212380Y-107396428D01*
X149164761Y-107301190D01*
X149164761Y-108158333D02*
X149212380Y-108253571D01*
X149212380Y-108444047D01*
X149164761Y-108539285D01*
X149069523Y-108586904D01*
X149021904Y-108586904D01*
X148926666Y-108539285D01*
X148879047Y-108444047D01*
X148879047Y-108301190D01*
X148831428Y-108205952D01*
X148736190Y-108158333D01*
X148688571Y-108158333D01*
X148593333Y-108205952D01*
X148545714Y-108301190D01*
X148545714Y-108444047D01*
X148593333Y-108539285D01*
X148545714Y-109634523D02*
X148545714Y-110015476D01*
X148212380Y-109777380D02*
X149069523Y-109777380D01*
X149164761Y-109825000D01*
X149212380Y-109920238D01*
X149212380Y-110015476D01*
X149212380Y-110348809D02*
X148212380Y-110348809D01*
X149212380Y-110777380D02*
X148688571Y-110777380D01*
X148593333Y-110729761D01*
X148545714Y-110634523D01*
X148545714Y-110491666D01*
X148593333Y-110396428D01*
X148640952Y-110348809D01*
X149164761Y-111634523D02*
X149212380Y-111539285D01*
X149212380Y-111348809D01*
X149164761Y-111253571D01*
X149069523Y-111205952D01*
X148688571Y-111205952D01*
X148593333Y-111253571D01*
X148545714Y-111348809D01*
X148545714Y-111539285D01*
X148593333Y-111634523D01*
X148688571Y-111682142D01*
X148783809Y-111682142D01*
X148879047Y-111205952D01*
X149212380Y-112872619D02*
X148545714Y-112872619D01*
X148212380Y-112872619D02*
X148260000Y-112825000D01*
X148307619Y-112872619D01*
X148260000Y-112920238D01*
X148212380Y-112872619D01*
X148307619Y-112872619D01*
X148545714Y-113348809D02*
X149212380Y-113348809D01*
X148640952Y-113348809D02*
X148593333Y-113396428D01*
X148545714Y-113491666D01*
X148545714Y-113634523D01*
X148593333Y-113729761D01*
X148688571Y-113777380D01*
X149212380Y-113777380D01*
X148545714Y-114110714D02*
X148545714Y-114491666D01*
X148212380Y-114253571D02*
X149069523Y-114253571D01*
X149164761Y-114301190D01*
X149212380Y-114396428D01*
X149212380Y-114491666D01*
X149164761Y-115205952D02*
X149212380Y-115110714D01*
X149212380Y-114920238D01*
X149164761Y-114825000D01*
X149069523Y-114777380D01*
X148688571Y-114777380D01*
X148593333Y-114825000D01*
X148545714Y-114920238D01*
X148545714Y-115110714D01*
X148593333Y-115205952D01*
X148688571Y-115253571D01*
X148783809Y-115253571D01*
X148879047Y-114777380D01*
X149212380Y-115682142D02*
X148545714Y-115682142D01*
X148736190Y-115682142D02*
X148640952Y-115729761D01*
X148593333Y-115777380D01*
X148545714Y-115872619D01*
X148545714Y-115967857D01*
X148545714Y-116301190D02*
X149212380Y-116301190D01*
X148640952Y-116301190D02*
X148593333Y-116348809D01*
X148545714Y-116444047D01*
X148545714Y-116586904D01*
X148593333Y-116682142D01*
X148688571Y-116729761D01*
X149212380Y-116729761D01*
X149212380Y-117634523D02*
X148688571Y-117634523D01*
X148593333Y-117586904D01*
X148545714Y-117491666D01*
X148545714Y-117301190D01*
X148593333Y-117205952D01*
X149164761Y-117634523D02*
X149212380Y-117539285D01*
X149212380Y-117301190D01*
X149164761Y-117205952D01*
X149069523Y-117158333D01*
X148974285Y-117158333D01*
X148879047Y-117205952D01*
X148831428Y-117301190D01*
X148831428Y-117539285D01*
X148783809Y-117634523D01*
X149212380Y-118253571D02*
X149164761Y-118158333D01*
X149069523Y-118110714D01*
X148212380Y-118110714D01*
X149164761Y-119825000D02*
X149212380Y-119729761D01*
X149212380Y-119539285D01*
X149164761Y-119444047D01*
X149117142Y-119396428D01*
X149021904Y-119348809D01*
X148736190Y-119348809D01*
X148640952Y-119396428D01*
X148593333Y-119444047D01*
X148545714Y-119539285D01*
X148545714Y-119729761D01*
X148593333Y-119825000D01*
X149212380Y-120396428D02*
X149164761Y-120301190D01*
X149117142Y-120253571D01*
X149021904Y-120205952D01*
X148736190Y-120205952D01*
X148640952Y-120253571D01*
X148593333Y-120301190D01*
X148545714Y-120396428D01*
X148545714Y-120539285D01*
X148593333Y-120634523D01*
X148640952Y-120682142D01*
X148736190Y-120729761D01*
X149021904Y-120729761D01*
X149117142Y-120682142D01*
X149164761Y-120634523D01*
X149212380Y-120539285D01*
X149212380Y-120396428D01*
X149212380Y-121586904D02*
X148212380Y-121586904D01*
X149164761Y-121586904D02*
X149212380Y-121491666D01*
X149212380Y-121301190D01*
X149164761Y-121205952D01*
X149117142Y-121158333D01*
X149021904Y-121110714D01*
X148736190Y-121110714D01*
X148640952Y-121158333D01*
X148593333Y-121205952D01*
X148545714Y-121301190D01*
X148545714Y-121491666D01*
X148593333Y-121586904D01*
X149164761Y-122444047D02*
X149212380Y-122348809D01*
X149212380Y-122158333D01*
X149164761Y-122063095D01*
X149069523Y-122015476D01*
X148688571Y-122015476D01*
X148593333Y-122063095D01*
X148545714Y-122158333D01*
X148545714Y-122348809D01*
X148593333Y-122444047D01*
X148688571Y-122491666D01*
X148783809Y-122491666D01*
X148879047Y-122015476D01*
X149212380Y-123825000D02*
X149164761Y-123729761D01*
X149117142Y-123682142D01*
X149021904Y-123634523D01*
X148736190Y-123634523D01*
X148640952Y-123682142D01*
X148593333Y-123729761D01*
X148545714Y-123825000D01*
X148545714Y-123967857D01*
X148593333Y-124063095D01*
X148640952Y-124110714D01*
X148736190Y-124158333D01*
X149021904Y-124158333D01*
X149117142Y-124110714D01*
X149164761Y-124063095D01*
X149212380Y-123967857D01*
X149212380Y-123825000D01*
X148545714Y-124444047D02*
X148545714Y-124825000D01*
X149212380Y-124586904D02*
X148355238Y-124586904D01*
X148260000Y-124634523D01*
X148212380Y-124729761D01*
X148212380Y-124825000D01*
X148545714Y-125777380D02*
X148545714Y-126158333D01*
X148212380Y-125920238D02*
X149069523Y-125920238D01*
X149164761Y-125967857D01*
X149212380Y-126063095D01*
X149212380Y-126158333D01*
X149212380Y-126491666D02*
X148212380Y-126491666D01*
X149212380Y-126920238D02*
X148688571Y-126920238D01*
X148593333Y-126872619D01*
X148545714Y-126777380D01*
X148545714Y-126634523D01*
X148593333Y-126539285D01*
X148640952Y-126491666D01*
X149164761Y-127777380D02*
X149212380Y-127682142D01*
X149212380Y-127491666D01*
X149164761Y-127396428D01*
X149069523Y-127348809D01*
X148688571Y-127348809D01*
X148593333Y-127396428D01*
X148545714Y-127491666D01*
X148545714Y-127682142D01*
X148593333Y-127777380D01*
X148688571Y-127825000D01*
X148783809Y-127825000D01*
X148879047Y-127348809D01*
X149212380Y-129015476D02*
X148212380Y-129015476D01*
X148212380Y-129396428D01*
X148260000Y-129491666D01*
X148307619Y-129539285D01*
X148402857Y-129586904D01*
X148545714Y-129586904D01*
X148640952Y-129539285D01*
X148688571Y-129491666D01*
X148736190Y-129396428D01*
X148736190Y-129015476D01*
X149212380Y-130015476D02*
X148212380Y-130015476D01*
X149117142Y-131063095D02*
X149164761Y-131015476D01*
X149212380Y-130872619D01*
X149212380Y-130777380D01*
X149164761Y-130634523D01*
X149069523Y-130539285D01*
X148974285Y-130491666D01*
X148783809Y-130444047D01*
X148640952Y-130444047D01*
X148450476Y-130491666D01*
X148355238Y-130539285D01*
X148260000Y-130634523D01*
X148212380Y-130777380D01*
X148212380Y-130872619D01*
X148260000Y-131015476D01*
X148307619Y-131063095D01*
X148212380Y-131396428D02*
X148212380Y-132063095D01*
X149212380Y-131634523D01*
X148212380Y-132634523D02*
X148212380Y-132729761D01*
X148260000Y-132825000D01*
X148307619Y-132872619D01*
X148402857Y-132920238D01*
X148593333Y-132967857D01*
X148831428Y-132967857D01*
X149021904Y-132920238D01*
X149117142Y-132872619D01*
X149164761Y-132825000D01*
X149212380Y-132729761D01*
X149212380Y-132634523D01*
X149164761Y-132539285D01*
X149117142Y-132491666D01*
X149021904Y-132444047D01*
X148831428Y-132396428D01*
X148593333Y-132396428D01*
X148402857Y-132444047D01*
X148307619Y-132491666D01*
X148260000Y-132539285D01*
X148212380Y-132634523D01*
X148212380Y-133586904D02*
X148212380Y-133682142D01*
X148260000Y-133777380D01*
X148307619Y-133825000D01*
X148402857Y-133872619D01*
X148593333Y-133920238D01*
X148831428Y-133920238D01*
X149021904Y-133872619D01*
X149117142Y-133825000D01*
X149164761Y-133777380D01*
X149212380Y-133682142D01*
X149212380Y-133586904D01*
X149164761Y-133491666D01*
X149117142Y-133444047D01*
X149021904Y-133396428D01*
X148831428Y-133348809D01*
X148593333Y-133348809D01*
X148402857Y-133396428D01*
X148307619Y-133444047D01*
X148260000Y-133491666D01*
X148212380Y-133586904D01*
X148212380Y-134539285D02*
X148212380Y-134634523D01*
X148260000Y-134729761D01*
X148307619Y-134777380D01*
X148402857Y-134825000D01*
X148593333Y-134872619D01*
X148831428Y-134872619D01*
X149021904Y-134825000D01*
X149117142Y-134777380D01*
X149164761Y-134729761D01*
X149212380Y-134634523D01*
X149212380Y-134539285D01*
X149164761Y-134444047D01*
X149117142Y-134396428D01*
X149021904Y-134348809D01*
X148831428Y-134301190D01*
X148593333Y-134301190D01*
X148402857Y-134348809D01*
X148307619Y-134396428D01*
X148260000Y-134444047D01*
X148212380Y-134539285D01*
X148545714Y-135920238D02*
X148545714Y-136301190D01*
X148212380Y-136063095D02*
X149069523Y-136063095D01*
X149164761Y-136110714D01*
X149212380Y-136205952D01*
X149212380Y-136301190D01*
X149212380Y-136777380D02*
X149164761Y-136682142D01*
X149117142Y-136634523D01*
X149021904Y-136586904D01*
X148736190Y-136586904D01*
X148640952Y-136634523D01*
X148593333Y-136682142D01*
X148545714Y-136777380D01*
X148545714Y-136920238D01*
X148593333Y-137015476D01*
X148640952Y-137063095D01*
X148736190Y-137110714D01*
X149021904Y-137110714D01*
X149117142Y-137063095D01*
X149164761Y-137015476D01*
X149212380Y-136920238D01*
X149212380Y-136777380D01*
X148545714Y-138158333D02*
X148545714Y-138539285D01*
X148212380Y-138301190D02*
X149069523Y-138301190D01*
X149164761Y-138348809D01*
X149212380Y-138444047D01*
X149212380Y-138539285D01*
X149212380Y-138872619D02*
X148212380Y-138872619D01*
X149212380Y-139301190D02*
X148688571Y-139301190D01*
X148593333Y-139253571D01*
X148545714Y-139158333D01*
X148545714Y-139015476D01*
X148593333Y-138920238D01*
X148640952Y-138872619D01*
X149164761Y-140158333D02*
X149212380Y-140063095D01*
X149212380Y-139872619D01*
X149164761Y-139777380D01*
X149069523Y-139729761D01*
X148688571Y-139729761D01*
X148593333Y-139777380D01*
X148545714Y-139872619D01*
X148545714Y-140063095D01*
X148593333Y-140158333D01*
X148688571Y-140205952D01*
X148783809Y-140205952D01*
X148879047Y-139729761D01*
X148926666Y-141348809D02*
X148926666Y-141825000D01*
X149212380Y-141253571D02*
X148212380Y-141586904D01*
X149212380Y-141920238D01*
X149212380Y-142253571D02*
X148545714Y-142253571D01*
X148736190Y-142253571D02*
X148640952Y-142301190D01*
X148593333Y-142348809D01*
X148545714Y-142444047D01*
X148545714Y-142539285D01*
X149212380Y-143301190D02*
X148212380Y-143301190D01*
X149164761Y-143301190D02*
X149212380Y-143205952D01*
X149212380Y-143015476D01*
X149164761Y-142920238D01*
X149117142Y-142872619D01*
X149021904Y-142825000D01*
X148736190Y-142825000D01*
X148640952Y-142872619D01*
X148593333Y-142920238D01*
X148545714Y-143015476D01*
X148545714Y-143205952D01*
X148593333Y-143301190D01*
X148545714Y-144205952D02*
X149212380Y-144205952D01*
X148545714Y-143777380D02*
X149069523Y-143777380D01*
X149164761Y-143825000D01*
X149212380Y-143920238D01*
X149212380Y-144063095D01*
X149164761Y-144158333D01*
X149117142Y-144205952D01*
X149212380Y-144682142D02*
X148545714Y-144682142D01*
X148212380Y-144682142D02*
X148260000Y-144634523D01*
X148307619Y-144682142D01*
X148260000Y-144729761D01*
X148212380Y-144682142D01*
X148307619Y-144682142D01*
X148545714Y-145158333D02*
X149212380Y-145158333D01*
X148640952Y-145158333D02*
X148593333Y-145205952D01*
X148545714Y-145301190D01*
X148545714Y-145444047D01*
X148593333Y-145539285D01*
X148688571Y-145586904D01*
X149212380Y-145586904D01*
X149212380Y-146205952D02*
X149164761Y-146110714D01*
X149117142Y-146063095D01*
X149021904Y-146015476D01*
X148736190Y-146015476D01*
X148640952Y-146063095D01*
X148593333Y-146110714D01*
X148545714Y-146205952D01*
X148545714Y-146348809D01*
X148593333Y-146444047D01*
X148640952Y-146491666D01*
X148736190Y-146539285D01*
X149021904Y-146539285D01*
X149117142Y-146491666D01*
X149164761Y-146444047D01*
X149212380Y-146348809D01*
X149212380Y-146205952D01*
X149117142Y-146967857D02*
X149164761Y-147015476D01*
X149212380Y-146967857D01*
X149164761Y-146920238D01*
X149117142Y-146967857D01*
X149212380Y-146967857D01*
%LPC*%
D11*
%TO.C,SW1*%
X93293000Y-148808000D03*
X86793000Y-148808000D03*
X93293000Y-144308000D03*
X86793000Y-144308000D03*
%TD*%
D12*
%TO.C,U4*%
X104770000Y-98430000D03*
D13*
X104770000Y-100970000D03*
X104770000Y-103510000D03*
X104770000Y-106050000D03*
X104770000Y-108590000D03*
X104770000Y-111130000D03*
X104770000Y-113670000D03*
X104770000Y-116210000D03*
X104770000Y-118750000D03*
X104770000Y-121290000D03*
X104770000Y-123830000D03*
X104770000Y-126370000D03*
X104770000Y-128910000D03*
X104770000Y-131450000D03*
X104770000Y-133990000D03*
X104770000Y-136530000D03*
X104770000Y-139070000D03*
X104770000Y-141610000D03*
X104770000Y-144150000D03*
X104770000Y-146690000D03*
X120010000Y-146690000D03*
X120010000Y-144150000D03*
X120010000Y-141610000D03*
X120010000Y-139070000D03*
X120010000Y-136530000D03*
X120010000Y-133990000D03*
X120010000Y-131450000D03*
X120010000Y-128910000D03*
X120010000Y-126370000D03*
X120010000Y-123830000D03*
X120010000Y-121290000D03*
X120010000Y-118750000D03*
X120010000Y-116210000D03*
X120010000Y-113670000D03*
X120010000Y-111130000D03*
X120010000Y-108590000D03*
X120010000Y-106050000D03*
X120010000Y-103510000D03*
X120010000Y-100970000D03*
X120010000Y-98430000D03*
%TD*%
D12*
%TO.C,A1*%
X93345000Y-139065000D03*
D13*
X93345000Y-136525000D03*
X93345000Y-133985000D03*
X93345000Y-131445000D03*
X93345000Y-128905000D03*
X93345000Y-126365000D03*
X93345000Y-123825000D03*
X93345000Y-121285000D03*
X93345000Y-118745000D03*
X93345000Y-116205000D03*
X93345000Y-113665000D03*
X93345000Y-111125000D03*
X93345000Y-108585000D03*
X93345000Y-106045000D03*
X93345000Y-103505000D03*
X78105000Y-103505000D03*
X78105000Y-106045000D03*
X78105000Y-108585000D03*
X78105000Y-111125000D03*
X78105000Y-113665000D03*
X78105000Y-116205000D03*
X78105000Y-118745000D03*
X78105000Y-121285000D03*
X78105000Y-123825000D03*
X78105000Y-126365000D03*
X78105000Y-128905000D03*
X78105000Y-131445000D03*
X78105000Y-133985000D03*
X78105000Y-136525000D03*
X78105000Y-139065000D03*
%TD*%
D14*
%TO.C,R1*%
X99695000Y-139290000D03*
D13*
X99695000Y-141830000D03*
%TD*%
D15*
%TO.C,U2*%
X142230000Y-104140000D03*
D16*
X142230000Y-106680000D03*
X142230000Y-109220000D03*
X142230000Y-111760000D03*
X142230000Y-114300000D03*
X142230000Y-116840000D03*
X142230000Y-119380000D03*
X142230000Y-121920000D03*
X142230000Y-124460000D03*
X142230000Y-127000000D03*
X142230000Y-129540000D03*
X142230000Y-132080000D03*
X142230000Y-134620000D03*
X142230000Y-137160000D03*
X157470000Y-137160000D03*
X157470000Y-134620000D03*
X157470000Y-132080000D03*
X157470000Y-129540000D03*
X157470000Y-127000000D03*
X157470000Y-124460000D03*
X157470000Y-121920000D03*
X157470000Y-119380000D03*
X157470000Y-116840000D03*
X157470000Y-114300000D03*
X157470000Y-111760000D03*
X157470000Y-109220000D03*
X157470000Y-106680000D03*
X157470000Y-104140000D03*
%TD*%
D17*
%TO.C,REF\u002A\u002A*%
X78105000Y-98425000D03*
%TD*%
D14*
%TO.C,C1*%
X125095000Y-136525000D03*
D13*
X125095000Y-144025000D03*
%TD*%
D17*
%TO.C,REF\u002A\u002A*%
X160645000Y-146685000D03*
%TD*%
D12*
%TO.C,U3*%
X125730000Y-106045000D03*
D13*
X125730000Y-108585000D03*
X125730000Y-111125000D03*
X125730000Y-113665000D03*
X125730000Y-116205000D03*
X125730000Y-118745000D03*
X125730000Y-121285000D03*
X125730000Y-123825000D03*
X125730000Y-126365000D03*
X125730000Y-128905000D03*
X133350000Y-128905000D03*
X133350000Y-126365000D03*
X133350000Y-123825000D03*
X133350000Y-121285000D03*
X133350000Y-118745000D03*
X133350000Y-116205000D03*
X133350000Y-113665000D03*
X133350000Y-111125000D03*
X133350000Y-108585000D03*
X133350000Y-106045000D03*
%TD*%
D18*
%TO.C,D1*%
X96515000Y-146685000D03*
D19*
X99055000Y-146685000D03*
%TD*%
D14*
%TO.C,R2*%
X96520000Y-139290000D03*
D13*
X96520000Y-141830000D03*
%TD*%
D14*
%TO.C,C2*%
X83947000Y-148911000D03*
D13*
X83947000Y-141411000D03*
%TD*%
D17*
%TO.C,REF\u002A\u002A*%
X160645000Y-98425000D03*
%TD*%
%TO.C,REF\u002A\u002A*%
X78105000Y-146685000D03*
%TD*%
M02*
