%FSLAX45Y45*%
G04 Gerber Fmt 4.5, Leading zero omitted, Abs format (unit mm)*
G04 Created by KiCad (PCBNEW (6.0.0)) date 2023-01-29 20:34:45*
%MOMM*%
%LPD*%
G01*
G04 APERTURE LIST*
%TA.AperFunction,Profile*%
%ADD10C,0.100000*%
%TD*%
%ADD11C,0.200000*%
%ADD12C,0.040000*%
%ADD13C,0.078740*%
%ADD14C,0.080000*%
%ADD15C,0.090000*%
%ADD16C,0.100000*%
G04 APERTURE END LIST*
D10*
X7810500Y-9461500D02*
X16064500Y-9461500D01*
X16445500Y-9842500D02*
G75*
G03*
X16064500Y-9461500I-381000J0D01*
G01*
X16064500Y-15049500D02*
G75*
G03*
X16445500Y-14668500I0J381000D01*
G01*
X7429500Y-14668500D02*
X7429500Y-9842500D01*
X16064500Y-15049500D02*
X7810500Y-15049500D01*
X7429500Y-14668500D02*
G75*
G03*
X7810500Y-15049500I381000J0D01*
G01*
X16445500Y-14668500D02*
X16445500Y-9842500D01*
X7810500Y-9461500D02*
G75*
G03*
X7429500Y-9842500I0J-381000D01*
G01*
D11*
D12*
X8044500Y-10267000D02*
X8084500Y-10307000D01*
X8084500Y-10267000D02*
X8044500Y-10307000D01*
X8044500Y-12362500D02*
X8084500Y-12402500D01*
X8084500Y-12362500D02*
X8044500Y-12402500D01*
X8108000Y-12997500D02*
X8148000Y-13037500D01*
X8148000Y-12997500D02*
X8108000Y-13037500D01*
X8171500Y-12108500D02*
X8211500Y-12148500D01*
X8211500Y-12108500D02*
X8171500Y-12148500D01*
X8185549Y-10443451D02*
X8225549Y-10483451D01*
X8225549Y-10443451D02*
X8185549Y-10483451D01*
X8235000Y-11029000D02*
X8275000Y-11069000D01*
X8275000Y-11029000D02*
X8235000Y-11069000D01*
X8235000Y-11283000D02*
X8275000Y-11323000D01*
X8275000Y-11283000D02*
X8235000Y-11323000D01*
X8235000Y-11537000D02*
X8275000Y-11577000D01*
X8275000Y-11537000D02*
X8235000Y-11577000D01*
X8235000Y-11791000D02*
X8275000Y-11831000D01*
X8275000Y-11791000D02*
X8235000Y-11831000D01*
X8298500Y-9822500D02*
X8338500Y-9862500D01*
X8338500Y-9822500D02*
X8298500Y-9862500D01*
X8362000Y-10203500D02*
X8402000Y-10243500D01*
X8402000Y-10203500D02*
X8362000Y-10243500D01*
X8426000Y-10077000D02*
X8466000Y-10117000D01*
X8466000Y-10077000D02*
X8426000Y-10117000D01*
X9696000Y-12871000D02*
X9736000Y-12911000D01*
X9736000Y-12871000D02*
X9696000Y-12911000D01*
X9822500Y-13632500D02*
X9862500Y-13672500D01*
X9862500Y-13632500D02*
X9822500Y-13672500D01*
X9886000Y-11219500D02*
X9926000Y-11259500D01*
X9926000Y-11219500D02*
X9886000Y-11259500D01*
X9949500Y-12616500D02*
X9989500Y-12656500D01*
X9989500Y-12616500D02*
X9949500Y-12656500D01*
X10076500Y-11092500D02*
X10116500Y-11132500D01*
X10116500Y-11092500D02*
X10076500Y-11132500D01*
X10140000Y-10838500D02*
X10180000Y-10878500D01*
X10180000Y-10838500D02*
X10140000Y-10878500D01*
X10267000Y-10584500D02*
X10307000Y-10624500D01*
X10307000Y-10584500D02*
X10267000Y-10624500D01*
X10267000Y-12172000D02*
X10307000Y-12212000D01*
X10307000Y-12172000D02*
X10267000Y-12212000D01*
X10267000Y-12426000D02*
X10307000Y-12466000D01*
X10307000Y-12426000D02*
X10267000Y-12466000D01*
X10267000Y-12680000D02*
X10307000Y-12720000D01*
X10307000Y-12680000D02*
X10267000Y-12720000D01*
X10267000Y-12997500D02*
X10307000Y-13037500D01*
X10307000Y-12997500D02*
X10267000Y-13037500D01*
X11220000Y-9569000D02*
X11260000Y-9609000D01*
X11260000Y-9569000D02*
X11220000Y-9609000D01*
X12235500Y-13886500D02*
X12275500Y-13926500D01*
X12275500Y-13886500D02*
X12235500Y-13926500D01*
X12299000Y-13442000D02*
X12339000Y-13482000D01*
X12339000Y-13442000D02*
X12299000Y-13482000D01*
X12362500Y-13315000D02*
X12402500Y-13355000D01*
X12402500Y-13315000D02*
X12362500Y-13355000D01*
X12377049Y-12982951D02*
X12417049Y-13022951D01*
X12417049Y-12982951D02*
X12377049Y-13022951D01*
X12411451Y-12758049D02*
X12451451Y-12798049D01*
X12451451Y-12758049D02*
X12411451Y-12798049D01*
X12680000Y-12489500D02*
X12720000Y-12529500D01*
X12720000Y-12489500D02*
X12680000Y-12529500D01*
X12997500Y-12870500D02*
X13037500Y-12910500D01*
X13037500Y-12870500D02*
X12997500Y-12910500D01*
X13061000Y-13442000D02*
X13101000Y-13482000D01*
X13101000Y-13442000D02*
X13061000Y-13482000D01*
X13124500Y-10330500D02*
X13164500Y-10370500D01*
X13164500Y-10330500D02*
X13124500Y-10370500D01*
X13315000Y-9568500D02*
X13355000Y-9608500D01*
X13355000Y-9568500D02*
X13315000Y-9608500D01*
X13442000Y-11219500D02*
X13482000Y-11259500D01*
X13482000Y-11219500D02*
X13442000Y-11259500D01*
X13569000Y-11473500D02*
X13609000Y-11513500D01*
X13609000Y-11473500D02*
X13569000Y-11513500D01*
X13569000Y-11727500D02*
X13609000Y-11767500D01*
X13609000Y-11727500D02*
X13569000Y-11767500D01*
X14077000Y-12553000D02*
X14117000Y-12593000D01*
X14117000Y-12553000D02*
X14077000Y-12593000D01*
X14077000Y-12807000D02*
X14117000Y-12847000D01*
X14117000Y-12807000D02*
X14077000Y-12847000D01*
X14267500Y-11537000D02*
X14307500Y-11577000D01*
X14307500Y-11537000D02*
X14267500Y-11577000D01*
X14394500Y-10775000D02*
X14434500Y-10815000D01*
X14434500Y-10775000D02*
X14394500Y-10815000D01*
X14902500Y-14267500D02*
X14942500Y-14307500D01*
X14942500Y-14267500D02*
X14902500Y-14307500D01*
X15029500Y-14648500D02*
X15069500Y-14688500D01*
X15069500Y-14648500D02*
X15029500Y-14688500D01*
X15156500Y-14521500D02*
X15196500Y-14561500D01*
X15196500Y-14521500D02*
X15156500Y-14561500D01*
X15283500Y-11156000D02*
X15323500Y-11196000D01*
X15323500Y-11156000D02*
X15283500Y-11196000D01*
X15283500Y-11410000D02*
X15323500Y-11450000D01*
X15323500Y-11410000D02*
X15283500Y-11450000D01*
X15283500Y-11664000D02*
X15323500Y-11704000D01*
X15323500Y-11664000D02*
X15283500Y-11704000D01*
X15283500Y-12172000D02*
X15323500Y-12212000D01*
X15323500Y-12172000D02*
X15283500Y-12212000D01*
X15283500Y-14775500D02*
X15323500Y-14815500D01*
X15323500Y-14775500D02*
X15283500Y-14815500D01*
X15410500Y-11283000D02*
X15450500Y-11323000D01*
X15450500Y-11283000D02*
X15410500Y-11323000D01*
X15537500Y-11029000D02*
X15577500Y-11069000D01*
X15577500Y-11029000D02*
X15537500Y-11069000D01*
X15601000Y-10076500D02*
X15641000Y-10116500D01*
X15641000Y-10076500D02*
X15601000Y-10116500D01*
X15791500Y-10203500D02*
X15831500Y-10243500D01*
X15831500Y-10203500D02*
X15791500Y-10243500D01*
D13*
X14262370Y-10414000D02*
G75*
G03*
X14262370Y-10414000I-39370J0D01*
G01*
X14262370Y-10668000D02*
G75*
G03*
X14262370Y-10668000I-39370J0D01*
G01*
X14262370Y-10922000D02*
G75*
G03*
X14262370Y-10922000I-39370J0D01*
G01*
X14262370Y-11176000D02*
G75*
G03*
X14262370Y-11176000I-39370J0D01*
G01*
X14262370Y-11430000D02*
G75*
G03*
X14262370Y-11430000I-39370J0D01*
G01*
X14262370Y-11684000D02*
G75*
G03*
X14262370Y-11684000I-39370J0D01*
G01*
X14262370Y-11938000D02*
G75*
G03*
X14262370Y-11938000I-39370J0D01*
G01*
X14262370Y-12192000D02*
G75*
G03*
X14262370Y-12192000I-39370J0D01*
G01*
X14262370Y-12446000D02*
G75*
G03*
X14262370Y-12446000I-39370J0D01*
G01*
X14262370Y-12700000D02*
G75*
G03*
X14262370Y-12700000I-39370J0D01*
G01*
X14262370Y-12954000D02*
G75*
G03*
X14262370Y-12954000I-39370J0D01*
G01*
X14262370Y-13208000D02*
G75*
G03*
X14262370Y-13208000I-39370J0D01*
G01*
X14262370Y-13462000D02*
G75*
G03*
X14262370Y-13462000I-39370J0D01*
G01*
X14262370Y-13716000D02*
G75*
G03*
X14262370Y-13716000I-39370J0D01*
G01*
X15786370Y-10414000D02*
G75*
G03*
X15786370Y-10414000I-39370J0D01*
G01*
X15786370Y-10668000D02*
G75*
G03*
X15786370Y-10668000I-39370J0D01*
G01*
X15786370Y-10922000D02*
G75*
G03*
X15786370Y-10922000I-39370J0D01*
G01*
X15786370Y-11176000D02*
G75*
G03*
X15786370Y-11176000I-39370J0D01*
G01*
X15786370Y-11430000D02*
G75*
G03*
X15786370Y-11430000I-39370J0D01*
G01*
X15786370Y-11684000D02*
G75*
G03*
X15786370Y-11684000I-39370J0D01*
G01*
X15786370Y-11938000D02*
G75*
G03*
X15786370Y-11938000I-39370J0D01*
G01*
X15786370Y-12192000D02*
G75*
G03*
X15786370Y-12192000I-39370J0D01*
G01*
X15786370Y-12446000D02*
G75*
G03*
X15786370Y-12446000I-39370J0D01*
G01*
X15786370Y-12700000D02*
G75*
G03*
X15786370Y-12700000I-39370J0D01*
G01*
X15786370Y-12954000D02*
G75*
G03*
X15786370Y-12954000I-39370J0D01*
G01*
X15786370Y-13208000D02*
G75*
G03*
X15786370Y-13208000I-39370J0D01*
G01*
X15786370Y-13462000D02*
G75*
G03*
X15786370Y-13462000I-39370J0D01*
G01*
X15786370Y-13716000D02*
G75*
G03*
X15786370Y-13716000I-39370J0D01*
G01*
D14*
X8394700Y-14101100D02*
X8394700Y-14181100D01*
X8354700Y-14141100D02*
X8434700Y-14141100D01*
X8394700Y-14851100D02*
X8394700Y-14931100D01*
X8354700Y-14891100D02*
X8434700Y-14891100D01*
X9652000Y-13889000D02*
X9652000Y-13969000D01*
X9612000Y-13929000D02*
X9692000Y-13929000D01*
X9652000Y-14143000D02*
X9652000Y-14223000D01*
X9612000Y-14183000D02*
X9692000Y-14183000D01*
X9969500Y-13889000D02*
X9969500Y-13969000D01*
X9929500Y-13929000D02*
X10009500Y-13929000D01*
X9969500Y-14143000D02*
X9969500Y-14223000D01*
X9929500Y-14183000D02*
X10009500Y-14183000D01*
X10477000Y-9803000D02*
X10477000Y-9883000D01*
X10437000Y-9843000D02*
X10517000Y-9843000D01*
X10477000Y-10057000D02*
X10477000Y-10137000D01*
X10437000Y-10097000D02*
X10517000Y-10097000D01*
X10477000Y-10311000D02*
X10477000Y-10391000D01*
X10437000Y-10351000D02*
X10517000Y-10351000D01*
X10477000Y-10565000D02*
X10477000Y-10645000D01*
X10437000Y-10605000D02*
X10517000Y-10605000D01*
X10477000Y-10819000D02*
X10477000Y-10899000D01*
X10437000Y-10859000D02*
X10517000Y-10859000D01*
X10477000Y-11073000D02*
X10477000Y-11153000D01*
X10437000Y-11113000D02*
X10517000Y-11113000D01*
X10477000Y-11327000D02*
X10477000Y-11407000D01*
X10437000Y-11367000D02*
X10517000Y-11367000D01*
X10477000Y-11581000D02*
X10477000Y-11661000D01*
X10437000Y-11621000D02*
X10517000Y-11621000D01*
X10477000Y-11835000D02*
X10477000Y-11915000D01*
X10437000Y-11875000D02*
X10517000Y-11875000D01*
X10477000Y-12089000D02*
X10477000Y-12169000D01*
X10437000Y-12129000D02*
X10517000Y-12129000D01*
X10477000Y-12343000D02*
X10477000Y-12423000D01*
X10437000Y-12383000D02*
X10517000Y-12383000D01*
X10477000Y-12597000D02*
X10477000Y-12677000D01*
X10437000Y-12637000D02*
X10517000Y-12637000D01*
X10477000Y-12851000D02*
X10477000Y-12931000D01*
X10437000Y-12891000D02*
X10517000Y-12891000D01*
X10477000Y-13105000D02*
X10477000Y-13185000D01*
X10437000Y-13145000D02*
X10517000Y-13145000D01*
X10477000Y-13359000D02*
X10477000Y-13439000D01*
X10437000Y-13399000D02*
X10517000Y-13399000D01*
X10477000Y-13613000D02*
X10477000Y-13693000D01*
X10437000Y-13653000D02*
X10517000Y-13653000D01*
X10477000Y-13867000D02*
X10477000Y-13947000D01*
X10437000Y-13907000D02*
X10517000Y-13907000D01*
X10477000Y-14121000D02*
X10477000Y-14201000D01*
X10437000Y-14161000D02*
X10517000Y-14161000D01*
X10477000Y-14375000D02*
X10477000Y-14455000D01*
X10437000Y-14415000D02*
X10517000Y-14415000D01*
X10477000Y-14629000D02*
X10477000Y-14709000D01*
X10437000Y-14669000D02*
X10517000Y-14669000D01*
X12001000Y-9803000D02*
X12001000Y-9883000D01*
X11961000Y-9843000D02*
X12041000Y-9843000D01*
X12001000Y-10057000D02*
X12001000Y-10137000D01*
X11961000Y-10097000D02*
X12041000Y-10097000D01*
X12001000Y-10311000D02*
X12001000Y-10391000D01*
X11961000Y-10351000D02*
X12041000Y-10351000D01*
X12001000Y-10565000D02*
X12001000Y-10645000D01*
X11961000Y-10605000D02*
X12041000Y-10605000D01*
X12001000Y-10819000D02*
X12001000Y-10899000D01*
X11961000Y-10859000D02*
X12041000Y-10859000D01*
X12001000Y-11073000D02*
X12001000Y-11153000D01*
X11961000Y-11113000D02*
X12041000Y-11113000D01*
X12001000Y-11327000D02*
X12001000Y-11407000D01*
X11961000Y-11367000D02*
X12041000Y-11367000D01*
X12001000Y-11581000D02*
X12001000Y-11661000D01*
X11961000Y-11621000D02*
X12041000Y-11621000D01*
X12001000Y-11835000D02*
X12001000Y-11915000D01*
X11961000Y-11875000D02*
X12041000Y-11875000D01*
X12001000Y-12089000D02*
X12001000Y-12169000D01*
X11961000Y-12129000D02*
X12041000Y-12129000D01*
X12001000Y-12343000D02*
X12001000Y-12423000D01*
X11961000Y-12383000D02*
X12041000Y-12383000D01*
X12001000Y-12597000D02*
X12001000Y-12677000D01*
X11961000Y-12637000D02*
X12041000Y-12637000D01*
X12001000Y-12851000D02*
X12001000Y-12931000D01*
X11961000Y-12891000D02*
X12041000Y-12891000D01*
X12001000Y-13105000D02*
X12001000Y-13185000D01*
X11961000Y-13145000D02*
X12041000Y-13145000D01*
X12001000Y-13359000D02*
X12001000Y-13439000D01*
X11961000Y-13399000D02*
X12041000Y-13399000D01*
X12001000Y-13613000D02*
X12001000Y-13693000D01*
X11961000Y-13653000D02*
X12041000Y-13653000D01*
X12001000Y-13867000D02*
X12001000Y-13947000D01*
X11961000Y-13907000D02*
X12041000Y-13907000D01*
X12001000Y-14121000D02*
X12001000Y-14201000D01*
X11961000Y-14161000D02*
X12041000Y-14161000D01*
X12001000Y-14375000D02*
X12001000Y-14455000D01*
X11961000Y-14415000D02*
X12041000Y-14415000D01*
X12001000Y-14629000D02*
X12001000Y-14709000D01*
X11961000Y-14669000D02*
X12041000Y-14669000D01*
X12509500Y-13612500D02*
X12509500Y-13692500D01*
X12469500Y-13652500D02*
X12549500Y-13652500D01*
X12509500Y-14362500D02*
X12509500Y-14442500D01*
X12469500Y-14402500D02*
X12549500Y-14402500D01*
X12573000Y-10564500D02*
X12573000Y-10644500D01*
X12533000Y-10604500D02*
X12613000Y-10604500D01*
X12573000Y-10818500D02*
X12573000Y-10898500D01*
X12533000Y-10858500D02*
X12613000Y-10858500D01*
X12573000Y-11072500D02*
X12573000Y-11152500D01*
X12533000Y-11112500D02*
X12613000Y-11112500D01*
X12573000Y-11326500D02*
X12573000Y-11406500D01*
X12533000Y-11366500D02*
X12613000Y-11366500D01*
X12573000Y-11580500D02*
X12573000Y-11660500D01*
X12533000Y-11620500D02*
X12613000Y-11620500D01*
X12573000Y-11834500D02*
X12573000Y-11914500D01*
X12533000Y-11874500D02*
X12613000Y-11874500D01*
X12573000Y-12088500D02*
X12573000Y-12168500D01*
X12533000Y-12128500D02*
X12613000Y-12128500D01*
X12573000Y-12342500D02*
X12573000Y-12422500D01*
X12533000Y-12382500D02*
X12613000Y-12382500D01*
X12573000Y-12596500D02*
X12573000Y-12676500D01*
X12533000Y-12636500D02*
X12613000Y-12636500D01*
X12573000Y-12850500D02*
X12573000Y-12930500D01*
X12533000Y-12890500D02*
X12613000Y-12890500D01*
X13335000Y-10564500D02*
X13335000Y-10644500D01*
X13295000Y-10604500D02*
X13375000Y-10604500D01*
X13335000Y-10818500D02*
X13335000Y-10898500D01*
X13295000Y-10858500D02*
X13375000Y-10858500D01*
X13335000Y-11072500D02*
X13335000Y-11152500D01*
X13295000Y-11112500D02*
X13375000Y-11112500D01*
X13335000Y-11326500D02*
X13335000Y-11406500D01*
X13295000Y-11366500D02*
X13375000Y-11366500D01*
X13335000Y-11580500D02*
X13335000Y-11660500D01*
X13295000Y-11620500D02*
X13375000Y-11620500D01*
X13335000Y-11834500D02*
X13335000Y-11914500D01*
X13295000Y-11874500D02*
X13375000Y-11874500D01*
X13335000Y-12088500D02*
X13335000Y-12168500D01*
X13295000Y-12128500D02*
X13375000Y-12128500D01*
X13335000Y-12342500D02*
X13335000Y-12422500D01*
X13295000Y-12382500D02*
X13375000Y-12382500D01*
X13335000Y-12596500D02*
X13335000Y-12676500D01*
X13295000Y-12636500D02*
X13375000Y-12636500D01*
X13335000Y-12850500D02*
X13335000Y-12930500D01*
X13295000Y-12890500D02*
X13375000Y-12890500D01*
D15*
X9683320Y-14700320D02*
X9683320Y-14636680D01*
X9619680Y-14636680D01*
X9619680Y-14700320D01*
X9683320Y-14700320D01*
X9937320Y-14700320D02*
X9937320Y-14636680D01*
X9873680Y-14636680D01*
X9873680Y-14700320D01*
X9937320Y-14700320D01*
D16*
X7810500Y-10400500D02*
X7860500Y-10350500D01*
X7810500Y-10300500D01*
X7760500Y-10350500D01*
X7810500Y-10400500D01*
X7810500Y-10654500D02*
X7860500Y-10604500D01*
X7810500Y-10554500D01*
X7760500Y-10604500D01*
X7810500Y-10654500D01*
X7810500Y-10908500D02*
X7860500Y-10858500D01*
X7810500Y-10808500D01*
X7760500Y-10858500D01*
X7810500Y-10908500D01*
X7810500Y-11162500D02*
X7860500Y-11112500D01*
X7810500Y-11062500D01*
X7760500Y-11112500D01*
X7810500Y-11162500D01*
X7810500Y-11416500D02*
X7860500Y-11366500D01*
X7810500Y-11316500D01*
X7760500Y-11366500D01*
X7810500Y-11416500D01*
X7810500Y-11670500D02*
X7860500Y-11620500D01*
X7810500Y-11570500D01*
X7760500Y-11620500D01*
X7810500Y-11670500D01*
X7810500Y-11924500D02*
X7860500Y-11874500D01*
X7810500Y-11824500D01*
X7760500Y-11874500D01*
X7810500Y-11924500D01*
X7810500Y-12178500D02*
X7860500Y-12128500D01*
X7810500Y-12078500D01*
X7760500Y-12128500D01*
X7810500Y-12178500D01*
X7810500Y-12432500D02*
X7860500Y-12382500D01*
X7810500Y-12332500D01*
X7760500Y-12382500D01*
X7810500Y-12432500D01*
X7810500Y-12686500D02*
X7860500Y-12636500D01*
X7810500Y-12586500D01*
X7760500Y-12636500D01*
X7810500Y-12686500D01*
X7810500Y-12940500D02*
X7860500Y-12890500D01*
X7810500Y-12840500D01*
X7760500Y-12890500D01*
X7810500Y-12940500D01*
X7810500Y-13194500D02*
X7860500Y-13144500D01*
X7810500Y-13094500D01*
X7760500Y-13144500D01*
X7810500Y-13194500D01*
X7810500Y-13448500D02*
X7860500Y-13398500D01*
X7810500Y-13348500D01*
X7760500Y-13398500D01*
X7810500Y-13448500D01*
X7810500Y-13702500D02*
X7860500Y-13652500D01*
X7810500Y-13602500D01*
X7760500Y-13652500D01*
X7810500Y-13702500D01*
X7810500Y-13956500D02*
X7860500Y-13906500D01*
X7810500Y-13856500D01*
X7760500Y-13906500D01*
X7810500Y-13956500D01*
X8679300Y-14480800D02*
X8729300Y-14430800D01*
X8679300Y-14380800D01*
X8629300Y-14430800D01*
X8679300Y-14480800D01*
X8679300Y-14930800D02*
X8729300Y-14880800D01*
X8679300Y-14830800D01*
X8629300Y-14880800D01*
X8679300Y-14930800D01*
X9329300Y-14480800D02*
X9379300Y-14430800D01*
X9329300Y-14380800D01*
X9279300Y-14430800D01*
X9329300Y-14480800D01*
X9329300Y-14930800D02*
X9379300Y-14880800D01*
X9329300Y-14830800D01*
X9279300Y-14880800D01*
X9329300Y-14930800D01*
X9334500Y-10400500D02*
X9384500Y-10350500D01*
X9334500Y-10300500D01*
X9284500Y-10350500D01*
X9334500Y-10400500D01*
X9334500Y-10654500D02*
X9384500Y-10604500D01*
X9334500Y-10554500D01*
X9284500Y-10604500D01*
X9334500Y-10654500D01*
X9334500Y-10908500D02*
X9384500Y-10858500D01*
X9334500Y-10808500D01*
X9284500Y-10858500D01*
X9334500Y-10908500D01*
X9334500Y-11162500D02*
X9384500Y-11112500D01*
X9334500Y-11062500D01*
X9284500Y-11112500D01*
X9334500Y-11162500D01*
X9334500Y-11416500D02*
X9384500Y-11366500D01*
X9334500Y-11316500D01*
X9284500Y-11366500D01*
X9334500Y-11416500D01*
X9334500Y-11670500D02*
X9384500Y-11620500D01*
X9334500Y-11570500D01*
X9284500Y-11620500D01*
X9334500Y-11670500D01*
X9334500Y-11924500D02*
X9384500Y-11874500D01*
X9334500Y-11824500D01*
X9284500Y-11874500D01*
X9334500Y-11924500D01*
X9334500Y-12178500D02*
X9384500Y-12128500D01*
X9334500Y-12078500D01*
X9284500Y-12128500D01*
X9334500Y-12178500D01*
X9334500Y-12432500D02*
X9384500Y-12382500D01*
X9334500Y-12332500D01*
X9284500Y-12382500D01*
X9334500Y-12432500D01*
X9334500Y-12686500D02*
X9384500Y-12636500D01*
X9334500Y-12586500D01*
X9284500Y-12636500D01*
X9334500Y-12686500D01*
X9334500Y-12940500D02*
X9384500Y-12890500D01*
X9334500Y-12840500D01*
X9284500Y-12890500D01*
X9334500Y-12940500D01*
X9334500Y-13194500D02*
X9384500Y-13144500D01*
X9334500Y-13094500D01*
X9284500Y-13144500D01*
X9334500Y-13194500D01*
X9334500Y-13448500D02*
X9384500Y-13398500D01*
X9334500Y-13348500D01*
X9284500Y-13398500D01*
X9334500Y-13448500D01*
X9334500Y-13702500D02*
X9384500Y-13652500D01*
X9334500Y-13602500D01*
X9284500Y-13652500D01*
X9334500Y-13702500D01*
X9334500Y-13956500D02*
X9384500Y-13906500D01*
X9334500Y-13856500D01*
X9284500Y-13906500D01*
X9334500Y-13956500D01*
D11*
X7682119Y-15364976D02*
X7682119Y-15164976D01*
X7729738Y-15164976D01*
X7758309Y-15174500D01*
X7777357Y-15193548D01*
X7786881Y-15212595D01*
X7796405Y-15250690D01*
X7796405Y-15279262D01*
X7786881Y-15317357D01*
X7777357Y-15336405D01*
X7758309Y-15355452D01*
X7729738Y-15364976D01*
X7682119Y-15364976D01*
X7882119Y-15364976D02*
X7882119Y-15231643D01*
X7882119Y-15269738D02*
X7891643Y-15250690D01*
X7901167Y-15241167D01*
X7920214Y-15231643D01*
X7939262Y-15231643D01*
X8005928Y-15364976D02*
X8005928Y-15231643D01*
X8005928Y-15164976D02*
X7996405Y-15174500D01*
X8005928Y-15184024D01*
X8015452Y-15174500D01*
X8005928Y-15164976D01*
X8005928Y-15184024D01*
X8129738Y-15364976D02*
X8110690Y-15355452D01*
X8101167Y-15336405D01*
X8101167Y-15164976D01*
X8234500Y-15364976D02*
X8215452Y-15355452D01*
X8205928Y-15336405D01*
X8205928Y-15164976D01*
X8463071Y-15364976D02*
X8463071Y-15164976D01*
X8529738Y-15307833D01*
X8596405Y-15164976D01*
X8596405Y-15364976D01*
X8777357Y-15364976D02*
X8777357Y-15260214D01*
X8767833Y-15241167D01*
X8748786Y-15231643D01*
X8710690Y-15231643D01*
X8691643Y-15241167D01*
X8777357Y-15355452D02*
X8758310Y-15364976D01*
X8710690Y-15364976D01*
X8691643Y-15355452D01*
X8682119Y-15336405D01*
X8682119Y-15317357D01*
X8691643Y-15298309D01*
X8710690Y-15288786D01*
X8758310Y-15288786D01*
X8777357Y-15279262D01*
X8872595Y-15231643D02*
X8872595Y-15431643D01*
X8872595Y-15241167D02*
X8891643Y-15231643D01*
X8929738Y-15231643D01*
X8948786Y-15241167D01*
X8958310Y-15250690D01*
X8967833Y-15269738D01*
X8967833Y-15326881D01*
X8958310Y-15345928D01*
X8948786Y-15355452D01*
X8929738Y-15364976D01*
X8891643Y-15364976D01*
X8872595Y-15355452D01*
X9053548Y-15345928D02*
X9063071Y-15355452D01*
X9053548Y-15364976D01*
X9044024Y-15355452D01*
X9053548Y-15345928D01*
X9053548Y-15364976D01*
X9053548Y-15241167D02*
X9063071Y-15250690D01*
X9053548Y-15260214D01*
X9044024Y-15250690D01*
X9053548Y-15241167D01*
X9053548Y-15260214D01*
D12*
X7384500Y-15674500D02*
X7424500Y-15714500D01*
X7424500Y-15674500D02*
X7384500Y-15714500D01*
D11*
X7720214Y-15584976D02*
X7739262Y-15584976D01*
X7758309Y-15594500D01*
X7767833Y-15604024D01*
X7777357Y-15623071D01*
X7786881Y-15661167D01*
X7786881Y-15708786D01*
X7777357Y-15746881D01*
X7767833Y-15765928D01*
X7758309Y-15775452D01*
X7739262Y-15784976D01*
X7720214Y-15784976D01*
X7701167Y-15775452D01*
X7691643Y-15765928D01*
X7682119Y-15746881D01*
X7672595Y-15708786D01*
X7672595Y-15661167D01*
X7682119Y-15623071D01*
X7691643Y-15604024D01*
X7701167Y-15594500D01*
X7720214Y-15584976D01*
X7872595Y-15765928D02*
X7882119Y-15775452D01*
X7872595Y-15784976D01*
X7863071Y-15775452D01*
X7872595Y-15765928D01*
X7872595Y-15784976D01*
X8053548Y-15651643D02*
X8053548Y-15784976D01*
X8005928Y-15575452D02*
X7958309Y-15718309D01*
X8082119Y-15718309D01*
X8196405Y-15584976D02*
X8215452Y-15584976D01*
X8234500Y-15594500D01*
X8244024Y-15604024D01*
X8253548Y-15623071D01*
X8263071Y-15661167D01*
X8263071Y-15708786D01*
X8253548Y-15746881D01*
X8244024Y-15765928D01*
X8234500Y-15775452D01*
X8215452Y-15784976D01*
X8196405Y-15784976D01*
X8177357Y-15775452D01*
X8167833Y-15765928D01*
X8158309Y-15746881D01*
X8148786Y-15708786D01*
X8148786Y-15661167D01*
X8158309Y-15623071D01*
X8167833Y-15604024D01*
X8177357Y-15594500D01*
X8196405Y-15584976D01*
X8386881Y-15584976D02*
X8405929Y-15584976D01*
X8424976Y-15594500D01*
X8434500Y-15604024D01*
X8444024Y-15623071D01*
X8453548Y-15661167D01*
X8453548Y-15708786D01*
X8444024Y-15746881D01*
X8434500Y-15765928D01*
X8424976Y-15775452D01*
X8405929Y-15784976D01*
X8386881Y-15784976D01*
X8367833Y-15775452D01*
X8358309Y-15765928D01*
X8348786Y-15746881D01*
X8339262Y-15708786D01*
X8339262Y-15661167D01*
X8348786Y-15623071D01*
X8358309Y-15604024D01*
X8367833Y-15594500D01*
X8386881Y-15584976D01*
X8539262Y-15784976D02*
X8539262Y-15651643D01*
X8539262Y-15670690D02*
X8548786Y-15661167D01*
X8567833Y-15651643D01*
X8596405Y-15651643D01*
X8615452Y-15661167D01*
X8624976Y-15680214D01*
X8624976Y-15784976D01*
X8624976Y-15680214D02*
X8634500Y-15661167D01*
X8653548Y-15651643D01*
X8682119Y-15651643D01*
X8701167Y-15661167D01*
X8710690Y-15680214D01*
X8710690Y-15784976D01*
X8805929Y-15784976D02*
X8805929Y-15651643D01*
X8805929Y-15670690D02*
X8815452Y-15661167D01*
X8834500Y-15651643D01*
X8863071Y-15651643D01*
X8882119Y-15661167D01*
X8891643Y-15680214D01*
X8891643Y-15784976D01*
X8891643Y-15680214D02*
X8901167Y-15661167D01*
X8920214Y-15651643D01*
X8948786Y-15651643D01*
X8967833Y-15661167D01*
X8977357Y-15680214D01*
X8977357Y-15784976D01*
X9367833Y-15575452D02*
X9196405Y-15832595D01*
X9624976Y-15584976D02*
X9644024Y-15584976D01*
X9663071Y-15594500D01*
X9672595Y-15604024D01*
X9682119Y-15623071D01*
X9691643Y-15661167D01*
X9691643Y-15708786D01*
X9682119Y-15746881D01*
X9672595Y-15765928D01*
X9663071Y-15775452D01*
X9644024Y-15784976D01*
X9624976Y-15784976D01*
X9605929Y-15775452D01*
X9596405Y-15765928D01*
X9586881Y-15746881D01*
X9577357Y-15708786D01*
X9577357Y-15661167D01*
X9586881Y-15623071D01*
X9596405Y-15604024D01*
X9605929Y-15594500D01*
X9624976Y-15584976D01*
X9777357Y-15765928D02*
X9786881Y-15775452D01*
X9777357Y-15784976D01*
X9767833Y-15775452D01*
X9777357Y-15765928D01*
X9777357Y-15784976D01*
X9910690Y-15584976D02*
X9929738Y-15584976D01*
X9948786Y-15594500D01*
X9958310Y-15604024D01*
X9967833Y-15623071D01*
X9977357Y-15661167D01*
X9977357Y-15708786D01*
X9967833Y-15746881D01*
X9958310Y-15765928D01*
X9948786Y-15775452D01*
X9929738Y-15784976D01*
X9910690Y-15784976D01*
X9891643Y-15775452D01*
X9882119Y-15765928D01*
X9872595Y-15746881D01*
X9863071Y-15708786D01*
X9863071Y-15661167D01*
X9872595Y-15623071D01*
X9882119Y-15604024D01*
X9891643Y-15594500D01*
X9910690Y-15584976D01*
X10167833Y-15784976D02*
X10053548Y-15784976D01*
X10110690Y-15784976D02*
X10110690Y-15584976D01*
X10091643Y-15613548D01*
X10072595Y-15632595D01*
X10053548Y-15642119D01*
X10348786Y-15584976D02*
X10253548Y-15584976D01*
X10244024Y-15680214D01*
X10253548Y-15670690D01*
X10272595Y-15661167D01*
X10320214Y-15661167D01*
X10339262Y-15670690D01*
X10348786Y-15680214D01*
X10358310Y-15699262D01*
X10358310Y-15746881D01*
X10348786Y-15765928D01*
X10339262Y-15775452D01*
X10320214Y-15784976D01*
X10272595Y-15784976D01*
X10253548Y-15775452D01*
X10244024Y-15765928D01*
X10424976Y-15584976D02*
X10558310Y-15584976D01*
X10472595Y-15784976D01*
X10624976Y-15584976D02*
X10624976Y-15623071D01*
X10701167Y-15584976D02*
X10701167Y-15623071D01*
X10996405Y-15861167D02*
X10986881Y-15851643D01*
X10967833Y-15823071D01*
X10958310Y-15804024D01*
X10948786Y-15775452D01*
X10939262Y-15727833D01*
X10939262Y-15689738D01*
X10948786Y-15642119D01*
X10958310Y-15613548D01*
X10967833Y-15594500D01*
X10986881Y-15565928D01*
X10996405Y-15556405D01*
X11167833Y-15584976D02*
X11072595Y-15584976D01*
X11063071Y-15680214D01*
X11072595Y-15670690D01*
X11091643Y-15661167D01*
X11139262Y-15661167D01*
X11158310Y-15670690D01*
X11167833Y-15680214D01*
X11177357Y-15699262D01*
X11177357Y-15746881D01*
X11167833Y-15765928D01*
X11158310Y-15775452D01*
X11139262Y-15784976D01*
X11091643Y-15784976D01*
X11072595Y-15775452D01*
X11063071Y-15765928D01*
X11244024Y-15584976D02*
X11367833Y-15584976D01*
X11301167Y-15661167D01*
X11329738Y-15661167D01*
X11348786Y-15670690D01*
X11358309Y-15680214D01*
X11367833Y-15699262D01*
X11367833Y-15746881D01*
X11358309Y-15765928D01*
X11348786Y-15775452D01*
X11329738Y-15784976D01*
X11272595Y-15784976D01*
X11253548Y-15775452D01*
X11244024Y-15765928D01*
X11605928Y-15784976D02*
X11605928Y-15584976D01*
X11691643Y-15784976D02*
X11691643Y-15680214D01*
X11682119Y-15661167D01*
X11663071Y-15651643D01*
X11634500Y-15651643D01*
X11615452Y-15661167D01*
X11605928Y-15670690D01*
X11815452Y-15784976D02*
X11796405Y-15775452D01*
X11786881Y-15765928D01*
X11777357Y-15746881D01*
X11777357Y-15689738D01*
X11786881Y-15670690D01*
X11796405Y-15661167D01*
X11815452Y-15651643D01*
X11844024Y-15651643D01*
X11863071Y-15661167D01*
X11872595Y-15670690D01*
X11882119Y-15689738D01*
X11882119Y-15746881D01*
X11872595Y-15765928D01*
X11863071Y-15775452D01*
X11844024Y-15784976D01*
X11815452Y-15784976D01*
X11996405Y-15784976D02*
X11977357Y-15775452D01*
X11967833Y-15756405D01*
X11967833Y-15584976D01*
X12148786Y-15775452D02*
X12129738Y-15784976D01*
X12091643Y-15784976D01*
X12072595Y-15775452D01*
X12063071Y-15756405D01*
X12063071Y-15680214D01*
X12072595Y-15661167D01*
X12091643Y-15651643D01*
X12129738Y-15651643D01*
X12148786Y-15661167D01*
X12158309Y-15680214D01*
X12158309Y-15699262D01*
X12063071Y-15718309D01*
X12234500Y-15775452D02*
X12253548Y-15784976D01*
X12291643Y-15784976D01*
X12310690Y-15775452D01*
X12320214Y-15756405D01*
X12320214Y-15746881D01*
X12310690Y-15727833D01*
X12291643Y-15718309D01*
X12263071Y-15718309D01*
X12244024Y-15708786D01*
X12234500Y-15689738D01*
X12234500Y-15680214D01*
X12244024Y-15661167D01*
X12263071Y-15651643D01*
X12291643Y-15651643D01*
X12310690Y-15661167D01*
X12386881Y-15861167D02*
X12396405Y-15851643D01*
X12415452Y-15823071D01*
X12424976Y-15804024D01*
X12434500Y-15775452D01*
X12444024Y-15727833D01*
X12444024Y-15689738D01*
X12434500Y-15642119D01*
X12424976Y-15613548D01*
X12415452Y-15594500D01*
X12396405Y-15565928D01*
X12386881Y-15556405D01*
D13*
X7424500Y-15958500D02*
G75*
G03*
X7424500Y-15958500I-39370J0D01*
G01*
D11*
X7720214Y-15848976D02*
X7739262Y-15848976D01*
X7758309Y-15858500D01*
X7767833Y-15868024D01*
X7777357Y-15887071D01*
X7786881Y-15925167D01*
X7786881Y-15972786D01*
X7777357Y-16010881D01*
X7767833Y-16029928D01*
X7758309Y-16039452D01*
X7739262Y-16048976D01*
X7720214Y-16048976D01*
X7701167Y-16039452D01*
X7691643Y-16029928D01*
X7682119Y-16010881D01*
X7672595Y-15972786D01*
X7672595Y-15925167D01*
X7682119Y-15887071D01*
X7691643Y-15868024D01*
X7701167Y-15858500D01*
X7720214Y-15848976D01*
X7872595Y-16029928D02*
X7882119Y-16039452D01*
X7872595Y-16048976D01*
X7863071Y-16039452D01*
X7872595Y-16029928D01*
X7872595Y-16048976D01*
X7948786Y-15848976D02*
X8082119Y-15848976D01*
X7996405Y-16048976D01*
X8186881Y-15934690D02*
X8167833Y-15925167D01*
X8158309Y-15915643D01*
X8148786Y-15896595D01*
X8148786Y-15887071D01*
X8158309Y-15868024D01*
X8167833Y-15858500D01*
X8186881Y-15848976D01*
X8224976Y-15848976D01*
X8244024Y-15858500D01*
X8253548Y-15868024D01*
X8263071Y-15887071D01*
X8263071Y-15896595D01*
X8253548Y-15915643D01*
X8244024Y-15925167D01*
X8224976Y-15934690D01*
X8186881Y-15934690D01*
X8167833Y-15944214D01*
X8158309Y-15953738D01*
X8148786Y-15972786D01*
X8148786Y-16010881D01*
X8158309Y-16029928D01*
X8167833Y-16039452D01*
X8186881Y-16048976D01*
X8224976Y-16048976D01*
X8244024Y-16039452D01*
X8253548Y-16029928D01*
X8263071Y-16010881D01*
X8263071Y-15972786D01*
X8253548Y-15953738D01*
X8244024Y-15944214D01*
X8224976Y-15934690D01*
X8329738Y-15848976D02*
X8463071Y-15848976D01*
X8377357Y-16048976D01*
X8539262Y-16048976D02*
X8539262Y-15915643D01*
X8539262Y-15934690D02*
X8548786Y-15925167D01*
X8567833Y-15915643D01*
X8596405Y-15915643D01*
X8615452Y-15925167D01*
X8624976Y-15944214D01*
X8624976Y-16048976D01*
X8624976Y-15944214D02*
X8634500Y-15925167D01*
X8653548Y-15915643D01*
X8682119Y-15915643D01*
X8701167Y-15925167D01*
X8710690Y-15944214D01*
X8710690Y-16048976D01*
X8805929Y-16048976D02*
X8805929Y-15915643D01*
X8805929Y-15934690D02*
X8815452Y-15925167D01*
X8834500Y-15915643D01*
X8863071Y-15915643D01*
X8882119Y-15925167D01*
X8891643Y-15944214D01*
X8891643Y-16048976D01*
X8891643Y-15944214D02*
X8901167Y-15925167D01*
X8920214Y-15915643D01*
X8948786Y-15915643D01*
X8967833Y-15925167D01*
X8977357Y-15944214D01*
X8977357Y-16048976D01*
X9367833Y-15839452D02*
X9196405Y-16096595D01*
X9624976Y-15848976D02*
X9644024Y-15848976D01*
X9663071Y-15858500D01*
X9672595Y-15868024D01*
X9682119Y-15887071D01*
X9691643Y-15925167D01*
X9691643Y-15972786D01*
X9682119Y-16010881D01*
X9672595Y-16029928D01*
X9663071Y-16039452D01*
X9644024Y-16048976D01*
X9624976Y-16048976D01*
X9605929Y-16039452D01*
X9596405Y-16029928D01*
X9586881Y-16010881D01*
X9577357Y-15972786D01*
X9577357Y-15925167D01*
X9586881Y-15887071D01*
X9596405Y-15868024D01*
X9605929Y-15858500D01*
X9624976Y-15848976D01*
X9777357Y-16029928D02*
X9786881Y-16039452D01*
X9777357Y-16048976D01*
X9767833Y-16039452D01*
X9777357Y-16029928D01*
X9777357Y-16048976D01*
X9910690Y-15848976D02*
X9929738Y-15848976D01*
X9948786Y-15858500D01*
X9958310Y-15868024D01*
X9967833Y-15887071D01*
X9977357Y-15925167D01*
X9977357Y-15972786D01*
X9967833Y-16010881D01*
X9958310Y-16029928D01*
X9948786Y-16039452D01*
X9929738Y-16048976D01*
X9910690Y-16048976D01*
X9891643Y-16039452D01*
X9882119Y-16029928D01*
X9872595Y-16010881D01*
X9863071Y-15972786D01*
X9863071Y-15925167D01*
X9872595Y-15887071D01*
X9882119Y-15868024D01*
X9891643Y-15858500D01*
X9910690Y-15848976D01*
X10044024Y-15848976D02*
X10167833Y-15848976D01*
X10101167Y-15925167D01*
X10129738Y-15925167D01*
X10148786Y-15934690D01*
X10158310Y-15944214D01*
X10167833Y-15963262D01*
X10167833Y-16010881D01*
X10158310Y-16029928D01*
X10148786Y-16039452D01*
X10129738Y-16048976D01*
X10072595Y-16048976D01*
X10053548Y-16039452D01*
X10044024Y-16029928D01*
X10358310Y-16048976D02*
X10244024Y-16048976D01*
X10301167Y-16048976D02*
X10301167Y-15848976D01*
X10282119Y-15877548D01*
X10263071Y-15896595D01*
X10244024Y-15906119D01*
X10482119Y-15848976D02*
X10501167Y-15848976D01*
X10520214Y-15858500D01*
X10529738Y-15868024D01*
X10539262Y-15887071D01*
X10548786Y-15925167D01*
X10548786Y-15972786D01*
X10539262Y-16010881D01*
X10529738Y-16029928D01*
X10520214Y-16039452D01*
X10501167Y-16048976D01*
X10482119Y-16048976D01*
X10463071Y-16039452D01*
X10453548Y-16029928D01*
X10444024Y-16010881D01*
X10434500Y-15972786D01*
X10434500Y-15925167D01*
X10444024Y-15887071D01*
X10453548Y-15868024D01*
X10463071Y-15858500D01*
X10482119Y-15848976D01*
X10624976Y-15848976D02*
X10624976Y-15887071D01*
X10701167Y-15848976D02*
X10701167Y-15887071D01*
X10996405Y-16125167D02*
X10986881Y-16115643D01*
X10967833Y-16087071D01*
X10958310Y-16068024D01*
X10948786Y-16039452D01*
X10939262Y-15991833D01*
X10939262Y-15953738D01*
X10948786Y-15906119D01*
X10958310Y-15877548D01*
X10967833Y-15858500D01*
X10986881Y-15829928D01*
X10996405Y-15820405D01*
X11063071Y-15868024D02*
X11072595Y-15858500D01*
X11091643Y-15848976D01*
X11139262Y-15848976D01*
X11158310Y-15858500D01*
X11167833Y-15868024D01*
X11177357Y-15887071D01*
X11177357Y-15906119D01*
X11167833Y-15934690D01*
X11053548Y-16048976D01*
X11177357Y-16048976D01*
X11291643Y-15934690D02*
X11272595Y-15925167D01*
X11263071Y-15915643D01*
X11253548Y-15896595D01*
X11253548Y-15887071D01*
X11263071Y-15868024D01*
X11272595Y-15858500D01*
X11291643Y-15848976D01*
X11329738Y-15848976D01*
X11348786Y-15858500D01*
X11358309Y-15868024D01*
X11367833Y-15887071D01*
X11367833Y-15896595D01*
X11358309Y-15915643D01*
X11348786Y-15925167D01*
X11329738Y-15934690D01*
X11291643Y-15934690D01*
X11272595Y-15944214D01*
X11263071Y-15953738D01*
X11253548Y-15972786D01*
X11253548Y-16010881D01*
X11263071Y-16029928D01*
X11272595Y-16039452D01*
X11291643Y-16048976D01*
X11329738Y-16048976D01*
X11348786Y-16039452D01*
X11358309Y-16029928D01*
X11367833Y-16010881D01*
X11367833Y-15972786D01*
X11358309Y-15953738D01*
X11348786Y-15944214D01*
X11329738Y-15934690D01*
X11605928Y-16048976D02*
X11605928Y-15848976D01*
X11691643Y-16048976D02*
X11691643Y-15944214D01*
X11682119Y-15925167D01*
X11663071Y-15915643D01*
X11634500Y-15915643D01*
X11615452Y-15925167D01*
X11605928Y-15934690D01*
X11815452Y-16048976D02*
X11796405Y-16039452D01*
X11786881Y-16029928D01*
X11777357Y-16010881D01*
X11777357Y-15953738D01*
X11786881Y-15934690D01*
X11796405Y-15925167D01*
X11815452Y-15915643D01*
X11844024Y-15915643D01*
X11863071Y-15925167D01*
X11872595Y-15934690D01*
X11882119Y-15953738D01*
X11882119Y-16010881D01*
X11872595Y-16029928D01*
X11863071Y-16039452D01*
X11844024Y-16048976D01*
X11815452Y-16048976D01*
X11996405Y-16048976D02*
X11977357Y-16039452D01*
X11967833Y-16020405D01*
X11967833Y-15848976D01*
X12148786Y-16039452D02*
X12129738Y-16048976D01*
X12091643Y-16048976D01*
X12072595Y-16039452D01*
X12063071Y-16020405D01*
X12063071Y-15944214D01*
X12072595Y-15925167D01*
X12091643Y-15915643D01*
X12129738Y-15915643D01*
X12148786Y-15925167D01*
X12158309Y-15944214D01*
X12158309Y-15963262D01*
X12063071Y-15982309D01*
X12234500Y-16039452D02*
X12253548Y-16048976D01*
X12291643Y-16048976D01*
X12310690Y-16039452D01*
X12320214Y-16020405D01*
X12320214Y-16010881D01*
X12310690Y-15991833D01*
X12291643Y-15982309D01*
X12263071Y-15982309D01*
X12244024Y-15972786D01*
X12234500Y-15953738D01*
X12234500Y-15944214D01*
X12244024Y-15925167D01*
X12263071Y-15915643D01*
X12291643Y-15915643D01*
X12310690Y-15925167D01*
X12386881Y-16125167D02*
X12396405Y-16115643D01*
X12415452Y-16087071D01*
X12424976Y-16068024D01*
X12434500Y-16039452D01*
X12444024Y-15991833D01*
X12444024Y-15953738D01*
X12434500Y-15906119D01*
X12424976Y-15877548D01*
X12415452Y-15858500D01*
X12396405Y-15829928D01*
X12386881Y-15820405D01*
D14*
X7384500Y-16182500D02*
X7384500Y-16262500D01*
X7344500Y-16222500D02*
X7424500Y-16222500D01*
D11*
X7720214Y-16112976D02*
X7739262Y-16112976D01*
X7758309Y-16122500D01*
X7767833Y-16132024D01*
X7777357Y-16151071D01*
X7786881Y-16189167D01*
X7786881Y-16236786D01*
X7777357Y-16274881D01*
X7767833Y-16293928D01*
X7758309Y-16303452D01*
X7739262Y-16312976D01*
X7720214Y-16312976D01*
X7701167Y-16303452D01*
X7691643Y-16293928D01*
X7682119Y-16274881D01*
X7672595Y-16236786D01*
X7672595Y-16189167D01*
X7682119Y-16151071D01*
X7691643Y-16132024D01*
X7701167Y-16122500D01*
X7720214Y-16112976D01*
X7872595Y-16293928D02*
X7882119Y-16303452D01*
X7872595Y-16312976D01*
X7863071Y-16303452D01*
X7872595Y-16293928D01*
X7872595Y-16312976D01*
X7996405Y-16198690D02*
X7977357Y-16189167D01*
X7967833Y-16179643D01*
X7958309Y-16160595D01*
X7958309Y-16151071D01*
X7967833Y-16132024D01*
X7977357Y-16122500D01*
X7996405Y-16112976D01*
X8034500Y-16112976D01*
X8053548Y-16122500D01*
X8063071Y-16132024D01*
X8072595Y-16151071D01*
X8072595Y-16160595D01*
X8063071Y-16179643D01*
X8053548Y-16189167D01*
X8034500Y-16198690D01*
X7996405Y-16198690D01*
X7977357Y-16208214D01*
X7967833Y-16217738D01*
X7958309Y-16236786D01*
X7958309Y-16274881D01*
X7967833Y-16293928D01*
X7977357Y-16303452D01*
X7996405Y-16312976D01*
X8034500Y-16312976D01*
X8053548Y-16303452D01*
X8063071Y-16293928D01*
X8072595Y-16274881D01*
X8072595Y-16236786D01*
X8063071Y-16217738D01*
X8053548Y-16208214D01*
X8034500Y-16198690D01*
X8196405Y-16112976D02*
X8215452Y-16112976D01*
X8234500Y-16122500D01*
X8244024Y-16132024D01*
X8253548Y-16151071D01*
X8263071Y-16189167D01*
X8263071Y-16236786D01*
X8253548Y-16274881D01*
X8244024Y-16293928D01*
X8234500Y-16303452D01*
X8215452Y-16312976D01*
X8196405Y-16312976D01*
X8177357Y-16303452D01*
X8167833Y-16293928D01*
X8158309Y-16274881D01*
X8148786Y-16236786D01*
X8148786Y-16189167D01*
X8158309Y-16151071D01*
X8167833Y-16132024D01*
X8177357Y-16122500D01*
X8196405Y-16112976D01*
X8386881Y-16112976D02*
X8405929Y-16112976D01*
X8424976Y-16122500D01*
X8434500Y-16132024D01*
X8444024Y-16151071D01*
X8453548Y-16189167D01*
X8453548Y-16236786D01*
X8444024Y-16274881D01*
X8434500Y-16293928D01*
X8424976Y-16303452D01*
X8405929Y-16312976D01*
X8386881Y-16312976D01*
X8367833Y-16303452D01*
X8358309Y-16293928D01*
X8348786Y-16274881D01*
X8339262Y-16236786D01*
X8339262Y-16189167D01*
X8348786Y-16151071D01*
X8358309Y-16132024D01*
X8367833Y-16122500D01*
X8386881Y-16112976D01*
X8539262Y-16312976D02*
X8539262Y-16179643D01*
X8539262Y-16198690D02*
X8548786Y-16189167D01*
X8567833Y-16179643D01*
X8596405Y-16179643D01*
X8615452Y-16189167D01*
X8624976Y-16208214D01*
X8624976Y-16312976D01*
X8624976Y-16208214D02*
X8634500Y-16189167D01*
X8653548Y-16179643D01*
X8682119Y-16179643D01*
X8701167Y-16189167D01*
X8710690Y-16208214D01*
X8710690Y-16312976D01*
X8805929Y-16312976D02*
X8805929Y-16179643D01*
X8805929Y-16198690D02*
X8815452Y-16189167D01*
X8834500Y-16179643D01*
X8863071Y-16179643D01*
X8882119Y-16189167D01*
X8891643Y-16208214D01*
X8891643Y-16312976D01*
X8891643Y-16208214D02*
X8901167Y-16189167D01*
X8920214Y-16179643D01*
X8948786Y-16179643D01*
X8967833Y-16189167D01*
X8977357Y-16208214D01*
X8977357Y-16312976D01*
X9367833Y-16103452D02*
X9196405Y-16360595D01*
X9624976Y-16112976D02*
X9644024Y-16112976D01*
X9663071Y-16122500D01*
X9672595Y-16132024D01*
X9682119Y-16151071D01*
X9691643Y-16189167D01*
X9691643Y-16236786D01*
X9682119Y-16274881D01*
X9672595Y-16293928D01*
X9663071Y-16303452D01*
X9644024Y-16312976D01*
X9624976Y-16312976D01*
X9605929Y-16303452D01*
X9596405Y-16293928D01*
X9586881Y-16274881D01*
X9577357Y-16236786D01*
X9577357Y-16189167D01*
X9586881Y-16151071D01*
X9596405Y-16132024D01*
X9605929Y-16122500D01*
X9624976Y-16112976D01*
X9777357Y-16293928D02*
X9786881Y-16303452D01*
X9777357Y-16312976D01*
X9767833Y-16303452D01*
X9777357Y-16293928D01*
X9777357Y-16312976D01*
X9910690Y-16112976D02*
X9929738Y-16112976D01*
X9948786Y-16122500D01*
X9958310Y-16132024D01*
X9967833Y-16151071D01*
X9977357Y-16189167D01*
X9977357Y-16236786D01*
X9967833Y-16274881D01*
X9958310Y-16293928D01*
X9948786Y-16303452D01*
X9929738Y-16312976D01*
X9910690Y-16312976D01*
X9891643Y-16303452D01*
X9882119Y-16293928D01*
X9872595Y-16274881D01*
X9863071Y-16236786D01*
X9863071Y-16189167D01*
X9872595Y-16151071D01*
X9882119Y-16132024D01*
X9891643Y-16122500D01*
X9910690Y-16112976D01*
X10044024Y-16112976D02*
X10167833Y-16112976D01*
X10101167Y-16189167D01*
X10129738Y-16189167D01*
X10148786Y-16198690D01*
X10158310Y-16208214D01*
X10167833Y-16227262D01*
X10167833Y-16274881D01*
X10158310Y-16293928D01*
X10148786Y-16303452D01*
X10129738Y-16312976D01*
X10072595Y-16312976D01*
X10053548Y-16303452D01*
X10044024Y-16293928D01*
X10358310Y-16312976D02*
X10244024Y-16312976D01*
X10301167Y-16312976D02*
X10301167Y-16112976D01*
X10282119Y-16141548D01*
X10263071Y-16160595D01*
X10244024Y-16170119D01*
X10539262Y-16112976D02*
X10444024Y-16112976D01*
X10434500Y-16208214D01*
X10444024Y-16198690D01*
X10463071Y-16189167D01*
X10510690Y-16189167D01*
X10529738Y-16198690D01*
X10539262Y-16208214D01*
X10548786Y-16227262D01*
X10548786Y-16274881D01*
X10539262Y-16293928D01*
X10529738Y-16303452D01*
X10510690Y-16312976D01*
X10463071Y-16312976D01*
X10444024Y-16303452D01*
X10434500Y-16293928D01*
X10624976Y-16112976D02*
X10624976Y-16151071D01*
X10701167Y-16112976D02*
X10701167Y-16151071D01*
X10996405Y-16389167D02*
X10986881Y-16379643D01*
X10967833Y-16351071D01*
X10958310Y-16332024D01*
X10948786Y-16303452D01*
X10939262Y-16255833D01*
X10939262Y-16217738D01*
X10948786Y-16170119D01*
X10958310Y-16141548D01*
X10967833Y-16122500D01*
X10986881Y-16093928D01*
X10996405Y-16084405D01*
X11158310Y-16112976D02*
X11120214Y-16112976D01*
X11101167Y-16122500D01*
X11091643Y-16132024D01*
X11072595Y-16160595D01*
X11063071Y-16198690D01*
X11063071Y-16274881D01*
X11072595Y-16293928D01*
X11082119Y-16303452D01*
X11101167Y-16312976D01*
X11139262Y-16312976D01*
X11158310Y-16303452D01*
X11167833Y-16293928D01*
X11177357Y-16274881D01*
X11177357Y-16227262D01*
X11167833Y-16208214D01*
X11158310Y-16198690D01*
X11139262Y-16189167D01*
X11101167Y-16189167D01*
X11082119Y-16198690D01*
X11072595Y-16208214D01*
X11063071Y-16227262D01*
X11291643Y-16198690D02*
X11272595Y-16189167D01*
X11263071Y-16179643D01*
X11253548Y-16160595D01*
X11253548Y-16151071D01*
X11263071Y-16132024D01*
X11272595Y-16122500D01*
X11291643Y-16112976D01*
X11329738Y-16112976D01*
X11348786Y-16122500D01*
X11358309Y-16132024D01*
X11367833Y-16151071D01*
X11367833Y-16160595D01*
X11358309Y-16179643D01*
X11348786Y-16189167D01*
X11329738Y-16198690D01*
X11291643Y-16198690D01*
X11272595Y-16208214D01*
X11263071Y-16217738D01*
X11253548Y-16236786D01*
X11253548Y-16274881D01*
X11263071Y-16293928D01*
X11272595Y-16303452D01*
X11291643Y-16312976D01*
X11329738Y-16312976D01*
X11348786Y-16303452D01*
X11358309Y-16293928D01*
X11367833Y-16274881D01*
X11367833Y-16236786D01*
X11358309Y-16217738D01*
X11348786Y-16208214D01*
X11329738Y-16198690D01*
X11605928Y-16312976D02*
X11605928Y-16112976D01*
X11691643Y-16312976D02*
X11691643Y-16208214D01*
X11682119Y-16189167D01*
X11663071Y-16179643D01*
X11634500Y-16179643D01*
X11615452Y-16189167D01*
X11605928Y-16198690D01*
X11815452Y-16312976D02*
X11796405Y-16303452D01*
X11786881Y-16293928D01*
X11777357Y-16274881D01*
X11777357Y-16217738D01*
X11786881Y-16198690D01*
X11796405Y-16189167D01*
X11815452Y-16179643D01*
X11844024Y-16179643D01*
X11863071Y-16189167D01*
X11872595Y-16198690D01*
X11882119Y-16217738D01*
X11882119Y-16274881D01*
X11872595Y-16293928D01*
X11863071Y-16303452D01*
X11844024Y-16312976D01*
X11815452Y-16312976D01*
X11996405Y-16312976D02*
X11977357Y-16303452D01*
X11967833Y-16284405D01*
X11967833Y-16112976D01*
X12148786Y-16303452D02*
X12129738Y-16312976D01*
X12091643Y-16312976D01*
X12072595Y-16303452D01*
X12063071Y-16284405D01*
X12063071Y-16208214D01*
X12072595Y-16189167D01*
X12091643Y-16179643D01*
X12129738Y-16179643D01*
X12148786Y-16189167D01*
X12158309Y-16208214D01*
X12158309Y-16227262D01*
X12063071Y-16246309D01*
X12234500Y-16303452D02*
X12253548Y-16312976D01*
X12291643Y-16312976D01*
X12310690Y-16303452D01*
X12320214Y-16284405D01*
X12320214Y-16274881D01*
X12310690Y-16255833D01*
X12291643Y-16246309D01*
X12263071Y-16246309D01*
X12244024Y-16236786D01*
X12234500Y-16217738D01*
X12234500Y-16208214D01*
X12244024Y-16189167D01*
X12263071Y-16179643D01*
X12291643Y-16179643D01*
X12310690Y-16189167D01*
X12386881Y-16389167D02*
X12396405Y-16379643D01*
X12415452Y-16351071D01*
X12424976Y-16332024D01*
X12434500Y-16303452D01*
X12444024Y-16255833D01*
X12444024Y-16217738D01*
X12434500Y-16170119D01*
X12424976Y-16141548D01*
X12415452Y-16122500D01*
X12396405Y-16093928D01*
X12386881Y-16084405D01*
D15*
X7411320Y-16518320D02*
X7411320Y-16454680D01*
X7347680Y-16454680D01*
X7347680Y-16518320D01*
X7411320Y-16518320D01*
D11*
X7720214Y-16376976D02*
X7739262Y-16376976D01*
X7758309Y-16386500D01*
X7767833Y-16396024D01*
X7777357Y-16415071D01*
X7786881Y-16453167D01*
X7786881Y-16500786D01*
X7777357Y-16538881D01*
X7767833Y-16557928D01*
X7758309Y-16567452D01*
X7739262Y-16576976D01*
X7720214Y-16576976D01*
X7701167Y-16567452D01*
X7691643Y-16557928D01*
X7682119Y-16538881D01*
X7672595Y-16500786D01*
X7672595Y-16453167D01*
X7682119Y-16415071D01*
X7691643Y-16396024D01*
X7701167Y-16386500D01*
X7720214Y-16376976D01*
X7872595Y-16557928D02*
X7882119Y-16567452D01*
X7872595Y-16576976D01*
X7863071Y-16567452D01*
X7872595Y-16557928D01*
X7872595Y-16576976D01*
X7977357Y-16576976D02*
X8015452Y-16576976D01*
X8034500Y-16567452D01*
X8044024Y-16557928D01*
X8063071Y-16529357D01*
X8072595Y-16491262D01*
X8072595Y-16415071D01*
X8063071Y-16396024D01*
X8053548Y-16386500D01*
X8034500Y-16376976D01*
X7996405Y-16376976D01*
X7977357Y-16386500D01*
X7967833Y-16396024D01*
X7958309Y-16415071D01*
X7958309Y-16462690D01*
X7967833Y-16481738D01*
X7977357Y-16491262D01*
X7996405Y-16500786D01*
X8034500Y-16500786D01*
X8053548Y-16491262D01*
X8063071Y-16481738D01*
X8072595Y-16462690D01*
X8196405Y-16376976D02*
X8215452Y-16376976D01*
X8234500Y-16386500D01*
X8244024Y-16396024D01*
X8253548Y-16415071D01*
X8263071Y-16453167D01*
X8263071Y-16500786D01*
X8253548Y-16538881D01*
X8244024Y-16557928D01*
X8234500Y-16567452D01*
X8215452Y-16576976D01*
X8196405Y-16576976D01*
X8177357Y-16567452D01*
X8167833Y-16557928D01*
X8158309Y-16538881D01*
X8148786Y-16500786D01*
X8148786Y-16453167D01*
X8158309Y-16415071D01*
X8167833Y-16396024D01*
X8177357Y-16386500D01*
X8196405Y-16376976D01*
X8386881Y-16376976D02*
X8405929Y-16376976D01*
X8424976Y-16386500D01*
X8434500Y-16396024D01*
X8444024Y-16415071D01*
X8453548Y-16453167D01*
X8453548Y-16500786D01*
X8444024Y-16538881D01*
X8434500Y-16557928D01*
X8424976Y-16567452D01*
X8405929Y-16576976D01*
X8386881Y-16576976D01*
X8367833Y-16567452D01*
X8358309Y-16557928D01*
X8348786Y-16538881D01*
X8339262Y-16500786D01*
X8339262Y-16453167D01*
X8348786Y-16415071D01*
X8358309Y-16396024D01*
X8367833Y-16386500D01*
X8386881Y-16376976D01*
X8539262Y-16576976D02*
X8539262Y-16443643D01*
X8539262Y-16462690D02*
X8548786Y-16453167D01*
X8567833Y-16443643D01*
X8596405Y-16443643D01*
X8615452Y-16453167D01*
X8624976Y-16472214D01*
X8624976Y-16576976D01*
X8624976Y-16472214D02*
X8634500Y-16453167D01*
X8653548Y-16443643D01*
X8682119Y-16443643D01*
X8701167Y-16453167D01*
X8710690Y-16472214D01*
X8710690Y-16576976D01*
X8805929Y-16576976D02*
X8805929Y-16443643D01*
X8805929Y-16462690D02*
X8815452Y-16453167D01*
X8834500Y-16443643D01*
X8863071Y-16443643D01*
X8882119Y-16453167D01*
X8891643Y-16472214D01*
X8891643Y-16576976D01*
X8891643Y-16472214D02*
X8901167Y-16453167D01*
X8920214Y-16443643D01*
X8948786Y-16443643D01*
X8967833Y-16453167D01*
X8977357Y-16472214D01*
X8977357Y-16576976D01*
X9367833Y-16367452D02*
X9196405Y-16624595D01*
X9624976Y-16376976D02*
X9644024Y-16376976D01*
X9663071Y-16386500D01*
X9672595Y-16396024D01*
X9682119Y-16415071D01*
X9691643Y-16453167D01*
X9691643Y-16500786D01*
X9682119Y-16538881D01*
X9672595Y-16557928D01*
X9663071Y-16567452D01*
X9644024Y-16576976D01*
X9624976Y-16576976D01*
X9605929Y-16567452D01*
X9596405Y-16557928D01*
X9586881Y-16538881D01*
X9577357Y-16500786D01*
X9577357Y-16453167D01*
X9586881Y-16415071D01*
X9596405Y-16396024D01*
X9605929Y-16386500D01*
X9624976Y-16376976D01*
X9777357Y-16557928D02*
X9786881Y-16567452D01*
X9777357Y-16576976D01*
X9767833Y-16567452D01*
X9777357Y-16557928D01*
X9777357Y-16576976D01*
X9910690Y-16376976D02*
X9929738Y-16376976D01*
X9948786Y-16386500D01*
X9958310Y-16396024D01*
X9967833Y-16415071D01*
X9977357Y-16453167D01*
X9977357Y-16500786D01*
X9967833Y-16538881D01*
X9958310Y-16557928D01*
X9948786Y-16567452D01*
X9929738Y-16576976D01*
X9910690Y-16576976D01*
X9891643Y-16567452D01*
X9882119Y-16557928D01*
X9872595Y-16538881D01*
X9863071Y-16500786D01*
X9863071Y-16453167D01*
X9872595Y-16415071D01*
X9882119Y-16396024D01*
X9891643Y-16386500D01*
X9910690Y-16376976D01*
X10044024Y-16376976D02*
X10167833Y-16376976D01*
X10101167Y-16453167D01*
X10129738Y-16453167D01*
X10148786Y-16462690D01*
X10158310Y-16472214D01*
X10167833Y-16491262D01*
X10167833Y-16538881D01*
X10158310Y-16557928D01*
X10148786Y-16567452D01*
X10129738Y-16576976D01*
X10072595Y-16576976D01*
X10053548Y-16567452D01*
X10044024Y-16557928D01*
X10348786Y-16376976D02*
X10253548Y-16376976D01*
X10244024Y-16472214D01*
X10253548Y-16462690D01*
X10272595Y-16453167D01*
X10320214Y-16453167D01*
X10339262Y-16462690D01*
X10348786Y-16472214D01*
X10358310Y-16491262D01*
X10358310Y-16538881D01*
X10348786Y-16557928D01*
X10339262Y-16567452D01*
X10320214Y-16576976D01*
X10272595Y-16576976D01*
X10253548Y-16567452D01*
X10244024Y-16557928D01*
X10529738Y-16443643D02*
X10529738Y-16576976D01*
X10482119Y-16367452D02*
X10434500Y-16510309D01*
X10558310Y-16510309D01*
X10624976Y-16376976D02*
X10624976Y-16415071D01*
X10701167Y-16376976D02*
X10701167Y-16415071D01*
X10996405Y-16653167D02*
X10986881Y-16643643D01*
X10967833Y-16615071D01*
X10958310Y-16596024D01*
X10948786Y-16567452D01*
X10939262Y-16519833D01*
X10939262Y-16481738D01*
X10948786Y-16434119D01*
X10958310Y-16405548D01*
X10967833Y-16386500D01*
X10986881Y-16357928D01*
X10996405Y-16348405D01*
X11063071Y-16396024D02*
X11072595Y-16386500D01*
X11091643Y-16376976D01*
X11139262Y-16376976D01*
X11158310Y-16386500D01*
X11167833Y-16396024D01*
X11177357Y-16415071D01*
X11177357Y-16434119D01*
X11167833Y-16462690D01*
X11053548Y-16576976D01*
X11177357Y-16576976D01*
X11415452Y-16576976D02*
X11415452Y-16376976D01*
X11501167Y-16576976D02*
X11501167Y-16472214D01*
X11491643Y-16453167D01*
X11472595Y-16443643D01*
X11444024Y-16443643D01*
X11424976Y-16453167D01*
X11415452Y-16462690D01*
X11624976Y-16576976D02*
X11605928Y-16567452D01*
X11596405Y-16557928D01*
X11586881Y-16538881D01*
X11586881Y-16481738D01*
X11596405Y-16462690D01*
X11605928Y-16453167D01*
X11624976Y-16443643D01*
X11653548Y-16443643D01*
X11672595Y-16453167D01*
X11682119Y-16462690D01*
X11691643Y-16481738D01*
X11691643Y-16538881D01*
X11682119Y-16557928D01*
X11672595Y-16567452D01*
X11653548Y-16576976D01*
X11624976Y-16576976D01*
X11805928Y-16576976D02*
X11786881Y-16567452D01*
X11777357Y-16548405D01*
X11777357Y-16376976D01*
X11958309Y-16567452D02*
X11939262Y-16576976D01*
X11901167Y-16576976D01*
X11882119Y-16567452D01*
X11872595Y-16548405D01*
X11872595Y-16472214D01*
X11882119Y-16453167D01*
X11901167Y-16443643D01*
X11939262Y-16443643D01*
X11958309Y-16453167D01*
X11967833Y-16472214D01*
X11967833Y-16491262D01*
X11872595Y-16510309D01*
X12044024Y-16567452D02*
X12063071Y-16576976D01*
X12101167Y-16576976D01*
X12120214Y-16567452D01*
X12129738Y-16548405D01*
X12129738Y-16538881D01*
X12120214Y-16519833D01*
X12101167Y-16510309D01*
X12072595Y-16510309D01*
X12053548Y-16500786D01*
X12044024Y-16481738D01*
X12044024Y-16472214D01*
X12053548Y-16453167D01*
X12072595Y-16443643D01*
X12101167Y-16443643D01*
X12120214Y-16453167D01*
X12196405Y-16653167D02*
X12205928Y-16643643D01*
X12224976Y-16615071D01*
X12234500Y-16596024D01*
X12244024Y-16567452D01*
X12253548Y-16519833D01*
X12253548Y-16481738D01*
X12244024Y-16434119D01*
X12234500Y-16405548D01*
X12224976Y-16386500D01*
X12205928Y-16357928D01*
X12196405Y-16348405D01*
D16*
X7374500Y-16800500D02*
X7424500Y-16750500D01*
X7374500Y-16700500D01*
X7324500Y-16750500D01*
X7374500Y-16800500D01*
D11*
X7786881Y-16840976D02*
X7672595Y-16840976D01*
X7729738Y-16840976D02*
X7729738Y-16640976D01*
X7710690Y-16669548D01*
X7691643Y-16688595D01*
X7672595Y-16698119D01*
X7872595Y-16821929D02*
X7882119Y-16831452D01*
X7872595Y-16840976D01*
X7863071Y-16831452D01*
X7872595Y-16821929D01*
X7872595Y-16840976D01*
X8005928Y-16640976D02*
X8024976Y-16640976D01*
X8044024Y-16650500D01*
X8053548Y-16660024D01*
X8063071Y-16679071D01*
X8072595Y-16717167D01*
X8072595Y-16764786D01*
X8063071Y-16802881D01*
X8053548Y-16821929D01*
X8044024Y-16831452D01*
X8024976Y-16840976D01*
X8005928Y-16840976D01*
X7986881Y-16831452D01*
X7977357Y-16821929D01*
X7967833Y-16802881D01*
X7958309Y-16764786D01*
X7958309Y-16717167D01*
X7967833Y-16679071D01*
X7977357Y-16660024D01*
X7986881Y-16650500D01*
X8005928Y-16640976D01*
X8196405Y-16640976D02*
X8215452Y-16640976D01*
X8234500Y-16650500D01*
X8244024Y-16660024D01*
X8253548Y-16679071D01*
X8263071Y-16717167D01*
X8263071Y-16764786D01*
X8253548Y-16802881D01*
X8244024Y-16821929D01*
X8234500Y-16831452D01*
X8215452Y-16840976D01*
X8196405Y-16840976D01*
X8177357Y-16831452D01*
X8167833Y-16821929D01*
X8158309Y-16802881D01*
X8148786Y-16764786D01*
X8148786Y-16717167D01*
X8158309Y-16679071D01*
X8167833Y-16660024D01*
X8177357Y-16650500D01*
X8196405Y-16640976D01*
X8386881Y-16640976D02*
X8405929Y-16640976D01*
X8424976Y-16650500D01*
X8434500Y-16660024D01*
X8444024Y-16679071D01*
X8453548Y-16717167D01*
X8453548Y-16764786D01*
X8444024Y-16802881D01*
X8434500Y-16821929D01*
X8424976Y-16831452D01*
X8405929Y-16840976D01*
X8386881Y-16840976D01*
X8367833Y-16831452D01*
X8358309Y-16821929D01*
X8348786Y-16802881D01*
X8339262Y-16764786D01*
X8339262Y-16717167D01*
X8348786Y-16679071D01*
X8358309Y-16660024D01*
X8367833Y-16650500D01*
X8386881Y-16640976D01*
X8539262Y-16840976D02*
X8539262Y-16707643D01*
X8539262Y-16726690D02*
X8548786Y-16717167D01*
X8567833Y-16707643D01*
X8596405Y-16707643D01*
X8615452Y-16717167D01*
X8624976Y-16736214D01*
X8624976Y-16840976D01*
X8624976Y-16736214D02*
X8634500Y-16717167D01*
X8653548Y-16707643D01*
X8682119Y-16707643D01*
X8701167Y-16717167D01*
X8710690Y-16736214D01*
X8710690Y-16840976D01*
X8805929Y-16840976D02*
X8805929Y-16707643D01*
X8805929Y-16726690D02*
X8815452Y-16717167D01*
X8834500Y-16707643D01*
X8863071Y-16707643D01*
X8882119Y-16717167D01*
X8891643Y-16736214D01*
X8891643Y-16840976D01*
X8891643Y-16736214D02*
X8901167Y-16717167D01*
X8920214Y-16707643D01*
X8948786Y-16707643D01*
X8967833Y-16717167D01*
X8977357Y-16736214D01*
X8977357Y-16840976D01*
X9367833Y-16631452D02*
X9196405Y-16888595D01*
X9624976Y-16640976D02*
X9644024Y-16640976D01*
X9663071Y-16650500D01*
X9672595Y-16660024D01*
X9682119Y-16679071D01*
X9691643Y-16717167D01*
X9691643Y-16764786D01*
X9682119Y-16802881D01*
X9672595Y-16821929D01*
X9663071Y-16831452D01*
X9644024Y-16840976D01*
X9624976Y-16840976D01*
X9605929Y-16831452D01*
X9596405Y-16821929D01*
X9586881Y-16802881D01*
X9577357Y-16764786D01*
X9577357Y-16717167D01*
X9586881Y-16679071D01*
X9596405Y-16660024D01*
X9605929Y-16650500D01*
X9624976Y-16640976D01*
X9777357Y-16821929D02*
X9786881Y-16831452D01*
X9777357Y-16840976D01*
X9767833Y-16831452D01*
X9777357Y-16821929D01*
X9777357Y-16840976D01*
X9910690Y-16640976D02*
X9929738Y-16640976D01*
X9948786Y-16650500D01*
X9958310Y-16660024D01*
X9967833Y-16679071D01*
X9977357Y-16717167D01*
X9977357Y-16764786D01*
X9967833Y-16802881D01*
X9958310Y-16821929D01*
X9948786Y-16831452D01*
X9929738Y-16840976D01*
X9910690Y-16840976D01*
X9891643Y-16831452D01*
X9882119Y-16821929D01*
X9872595Y-16802881D01*
X9863071Y-16764786D01*
X9863071Y-16717167D01*
X9872595Y-16679071D01*
X9882119Y-16660024D01*
X9891643Y-16650500D01*
X9910690Y-16640976D01*
X10044024Y-16640976D02*
X10167833Y-16640976D01*
X10101167Y-16717167D01*
X10129738Y-16717167D01*
X10148786Y-16726690D01*
X10158310Y-16736214D01*
X10167833Y-16755262D01*
X10167833Y-16802881D01*
X10158310Y-16821929D01*
X10148786Y-16831452D01*
X10129738Y-16840976D01*
X10072595Y-16840976D01*
X10053548Y-16831452D01*
X10044024Y-16821929D01*
X10263071Y-16840976D02*
X10301167Y-16840976D01*
X10320214Y-16831452D01*
X10329738Y-16821929D01*
X10348786Y-16793357D01*
X10358310Y-16755262D01*
X10358310Y-16679071D01*
X10348786Y-16660024D01*
X10339262Y-16650500D01*
X10320214Y-16640976D01*
X10282119Y-16640976D01*
X10263071Y-16650500D01*
X10253548Y-16660024D01*
X10244024Y-16679071D01*
X10244024Y-16726690D01*
X10253548Y-16745738D01*
X10263071Y-16755262D01*
X10282119Y-16764786D01*
X10320214Y-16764786D01*
X10339262Y-16755262D01*
X10348786Y-16745738D01*
X10358310Y-16726690D01*
X10529738Y-16707643D02*
X10529738Y-16840976D01*
X10482119Y-16631452D02*
X10434500Y-16774309D01*
X10558310Y-16774309D01*
X10624976Y-16640976D02*
X10624976Y-16679071D01*
X10701167Y-16640976D02*
X10701167Y-16679071D01*
X10996405Y-16917167D02*
X10986881Y-16907643D01*
X10967833Y-16879071D01*
X10958310Y-16860024D01*
X10948786Y-16831452D01*
X10939262Y-16783833D01*
X10939262Y-16745738D01*
X10948786Y-16698119D01*
X10958310Y-16669548D01*
X10967833Y-16650500D01*
X10986881Y-16621928D01*
X10996405Y-16612405D01*
X11053548Y-16640976D02*
X11177357Y-16640976D01*
X11110690Y-16717167D01*
X11139262Y-16717167D01*
X11158310Y-16726690D01*
X11167833Y-16736214D01*
X11177357Y-16755262D01*
X11177357Y-16802881D01*
X11167833Y-16821929D01*
X11158310Y-16831452D01*
X11139262Y-16840976D01*
X11082119Y-16840976D01*
X11063071Y-16831452D01*
X11053548Y-16821929D01*
X11348786Y-16707643D02*
X11348786Y-16840976D01*
X11301167Y-16631452D02*
X11253548Y-16774309D01*
X11377357Y-16774309D01*
X11605928Y-16840976D02*
X11605928Y-16640976D01*
X11691643Y-16840976D02*
X11691643Y-16736214D01*
X11682119Y-16717167D01*
X11663071Y-16707643D01*
X11634500Y-16707643D01*
X11615452Y-16717167D01*
X11605928Y-16726690D01*
X11815452Y-16840976D02*
X11796405Y-16831452D01*
X11786881Y-16821929D01*
X11777357Y-16802881D01*
X11777357Y-16745738D01*
X11786881Y-16726690D01*
X11796405Y-16717167D01*
X11815452Y-16707643D01*
X11844024Y-16707643D01*
X11863071Y-16717167D01*
X11872595Y-16726690D01*
X11882119Y-16745738D01*
X11882119Y-16802881D01*
X11872595Y-16821929D01*
X11863071Y-16831452D01*
X11844024Y-16840976D01*
X11815452Y-16840976D01*
X11996405Y-16840976D02*
X11977357Y-16831452D01*
X11967833Y-16812405D01*
X11967833Y-16640976D01*
X12148786Y-16831452D02*
X12129738Y-16840976D01*
X12091643Y-16840976D01*
X12072595Y-16831452D01*
X12063071Y-16812405D01*
X12063071Y-16736214D01*
X12072595Y-16717167D01*
X12091643Y-16707643D01*
X12129738Y-16707643D01*
X12148786Y-16717167D01*
X12158309Y-16736214D01*
X12158309Y-16755262D01*
X12063071Y-16774309D01*
X12234500Y-16831452D02*
X12253548Y-16840976D01*
X12291643Y-16840976D01*
X12310690Y-16831452D01*
X12320214Y-16812405D01*
X12320214Y-16802881D01*
X12310690Y-16783833D01*
X12291643Y-16774309D01*
X12263071Y-16774309D01*
X12244024Y-16764786D01*
X12234500Y-16745738D01*
X12234500Y-16736214D01*
X12244024Y-16717167D01*
X12263071Y-16707643D01*
X12291643Y-16707643D01*
X12310690Y-16717167D01*
X12386881Y-16917167D02*
X12396405Y-16907643D01*
X12415452Y-16879071D01*
X12424976Y-16860024D01*
X12434500Y-16831452D01*
X12444024Y-16783833D01*
X12444024Y-16745738D01*
X12434500Y-16698119D01*
X12424976Y-16669548D01*
X12415452Y-16650500D01*
X12396405Y-16621928D01*
X12386881Y-16612405D01*
M02*
