%TF.GenerationSoftware,KiCad,Pcbnew,(6.0.0)*%
%TF.CreationDate,2023-01-29T20:34:43-05:00*%
%TF.ProjectId,dumper,64756d70-6572-42e6-9b69-6361645f7063,rev?*%
%TF.SameCoordinates,Original*%
%TF.FileFunction,Copper,L1,Top*%
%TF.FilePolarity,Positive*%
%FSLAX46Y46*%
G04 Gerber Fmt 4.6, Leading zero omitted, Abs format (unit mm)*
G04 Created by KiCad (PCBNEW (6.0.0)) date 2023-01-29 20:34:43*
%MOMM*%
%LPD*%
G01*
G04 APERTURE LIST*
%TA.AperFunction,ComponentPad*%
%ADD10C,1.700000*%
%TD*%
%TA.AperFunction,ComponentPad*%
%ADD11R,1.600000X1.600000*%
%TD*%
%TA.AperFunction,ComponentPad*%
%ADD12O,1.600000X1.600000*%
%TD*%
%TA.AperFunction,ComponentPad*%
%ADD13C,1.600000*%
%TD*%
%TA.AperFunction,ComponentPad*%
%ADD14R,1.295400X1.295400*%
%TD*%
%TA.AperFunction,ComponentPad*%
%ADD15C,1.295400*%
%TD*%
%TA.AperFunction,ComponentPad*%
%ADD16R,1.800000X1.800000*%
%TD*%
%TA.AperFunction,ComponentPad*%
%ADD17C,1.800000*%
%TD*%
%TA.AperFunction,ViaPad*%
%ADD18C,0.800000*%
%TD*%
%TA.AperFunction,Conductor*%
%ADD19C,0.250000*%
%TD*%
%TA.AperFunction,Conductor*%
%ADD20C,1.000000*%
%TD*%
G04 APERTURE END LIST*
D10*
%TO.P,SW1,1,1*%
%TO.N,GND*%
X93293000Y-148808000D03*
%TO.P,SW1,2,2*%
X86793000Y-148808000D03*
%TO.P,SW1,3,K*%
%TO.N,Net-(A1-Pad26)*%
X93293000Y-144308000D03*
%TO.P,SW1,4,A*%
X86793000Y-144308000D03*
%TD*%
D11*
%TO.P,U4,1,Pin_1*%
%TO.N,B5*%
X104770000Y-98430000D03*
D12*
%TO.P,U4,2,Pin_2*%
%TO.N,B7*%
X104770000Y-100970000D03*
%TO.P,U4,3,Pin_3*%
%TO.N,B0*%
X104770000Y-103510000D03*
%TO.P,U4,4,Pin_4*%
%TO.N,B1*%
X104770000Y-106050000D03*
%TO.P,U4,5,Pin_5*%
%TO.N,B2*%
X104770000Y-108590000D03*
%TO.P,U4,6,Pin_6*%
%TO.N,A0*%
X104770000Y-111130000D03*
%TO.P,U4,7,Pin_7*%
%TO.N,A1*%
X104770000Y-113670000D03*
%TO.P,U4,8,Pin_8*%
%TO.N,A2*%
X104770000Y-116210000D03*
%TO.P,U4,9,Pin_9*%
%TO.N,A3*%
X104770000Y-118750000D03*
%TO.P,U4,10,Pin_10*%
%TO.N,A4*%
X104770000Y-121290000D03*
%TO.P,U4,11,Pin_11*%
%TO.N,A7*%
X104770000Y-123830000D03*
%TO.P,U4,12,Pin_12*%
%TO.N,{slash}INT1*%
X104770000Y-126370000D03*
%TO.P,U4,13,Pin_13*%
X104770000Y-128910000D03*
%TO.P,U4,14,Pin_14*%
%TO.N,{slash}RESET*%
X104770000Y-131450000D03*
%TO.P,U4,15,Pin_15*%
%TO.N,A6*%
X104770000Y-133990000D03*
%TO.P,U4,16,Pin_16*%
%TO.N,A5*%
X104770000Y-136530000D03*
%TO.P,U4,17,Pin_17*%
%TO.N,XTAL2*%
X104770000Y-139070000D03*
%TO.P,U4,18,Pin_18*%
%TO.N,XTAL1*%
X104770000Y-141610000D03*
%TO.P,U4,19,Pin_19*%
%TO.N,D7*%
X104770000Y-144150000D03*
%TO.P,U4,20,Pin_20*%
%TO.N,D6*%
X104770000Y-146690000D03*
%TO.P,U4,21,Pin_21*%
%TO.N,D5*%
X120010000Y-146690000D03*
%TO.P,U4,22,Pin_22*%
%TO.N,D4*%
X120010000Y-144150000D03*
%TO.P,U4,23,Pin_23*%
%TO.N,D3*%
X120010000Y-141610000D03*
%TO.P,U4,24,Pin_24*%
%TO.N,D2*%
X120010000Y-139070000D03*
%TO.P,U4,25,Pin_25*%
%TO.N,{slash}INT1*%
X120010000Y-136530000D03*
%TO.P,U4,26,Pin_26*%
%TO.N,D1*%
X120010000Y-133990000D03*
%TO.P,U4,27,Pin_27*%
%TO.N,D0*%
X120010000Y-131450000D03*
%TO.P,U4,28,Pin_28*%
%TO.N,C0*%
X120010000Y-128910000D03*
%TO.P,U4,29,Pin_29*%
%TO.N,C1*%
X120010000Y-126370000D03*
%TO.P,U4,30,Pin_30*%
%TO.N,C2*%
X120010000Y-123830000D03*
%TO.P,U4,31,Pin_31*%
%TO.N,C3*%
X120010000Y-121290000D03*
%TO.P,U4,32,Pin_32*%
%TO.N,C4*%
X120010000Y-118750000D03*
%TO.P,U4,33,Pin_33*%
%TO.N,C5*%
X120010000Y-116210000D03*
%TO.P,U4,34,Pin_34*%
%TO.N,C6*%
X120010000Y-113670000D03*
%TO.P,U4,35,Pin_35*%
%TO.N,C7*%
X120010000Y-111130000D03*
%TO.P,U4,36,Pin_36*%
%TO.N,MC*%
X120010000Y-108590000D03*
%TO.P,U4,37,Pin_37*%
%TO.N,B3*%
X120010000Y-106050000D03*
%TO.P,U4,38,Pin_38*%
%TO.N,B4*%
X120010000Y-103510000D03*
%TO.P,U4,39,Pin_39*%
%TO.N,B6*%
X120010000Y-100970000D03*
%TO.P,U4,40,Pin_40*%
%TO.N,GND*%
X120010000Y-98430000D03*
%TD*%
D11*
%TO.P,A1,1,D1/TX*%
%TO.N,unconnected-(A1-Pad1)*%
X93345000Y-139065000D03*
D12*
%TO.P,A1,2,D0/RX*%
%TO.N,unconnected-(A1-Pad2)*%
X93345000Y-136525000D03*
%TO.P,A1,3,~{RESET}*%
%TO.N,unconnected-(A1-Pad3)*%
X93345000Y-133985000D03*
%TO.P,A1,4,GND*%
%TO.N,GND*%
X93345000Y-131445000D03*
%TO.P,A1,5,D2*%
%TO.N,XTAL2*%
X93345000Y-128905000D03*
%TO.P,A1,6,D3*%
%TO.N,Net-(A1-Pad6)*%
X93345000Y-126365000D03*
%TO.P,A1,7,D4*%
%TO.N,C4*%
X93345000Y-123825000D03*
%TO.P,A1,8,D5*%
%TO.N,C5*%
X93345000Y-121285000D03*
%TO.P,A1,9,D6*%
%TO.N,C6*%
X93345000Y-118745000D03*
%TO.P,A1,10,D7*%
%TO.N,C7*%
X93345000Y-116205000D03*
%TO.P,A1,11,D8*%
%TO.N,C0*%
X93345000Y-113665000D03*
%TO.P,A1,12,D9*%
%TO.N,C1*%
X93345000Y-111125000D03*
%TO.P,A1,13,D10*%
%TO.N,C2*%
X93345000Y-108585000D03*
%TO.P,A1,14,D11*%
%TO.N,C3*%
X93345000Y-106045000D03*
%TO.P,A1,15,D12*%
%TO.N,unconnected-(A1-Pad15)*%
X93345000Y-103505000D03*
%TO.P,A1,16,D13*%
%TO.N,MC*%
X78105000Y-103505000D03*
%TO.P,A1,17,3V3*%
%TO.N,unconnected-(A1-Pad17)*%
X78105000Y-106045000D03*
%TO.P,A1,18,AREF*%
%TO.N,unconnected-(A1-Pad18)*%
X78105000Y-108585000D03*
%TO.P,A1,19,A0*%
%TO.N,B4*%
X78105000Y-111125000D03*
%TO.P,A1,20,A1*%
%TO.N,B5*%
X78105000Y-113665000D03*
%TO.P,A1,21,A2*%
%TO.N,B6*%
X78105000Y-116205000D03*
%TO.P,A1,22,A3*%
%TO.N,B7*%
X78105000Y-118745000D03*
%TO.P,A1,23,A4*%
%TO.N,{slash}RESET*%
X78105000Y-121285000D03*
%TO.P,A1,24,A5*%
%TO.N,{slash}READ*%
X78105000Y-123825000D03*
%TO.P,A1,25,A6*%
%TO.N,unconnected-(A1-Pad25)*%
X78105000Y-126365000D03*
%TO.P,A1,26,A7*%
%TO.N,Net-(A1-Pad26)*%
X78105000Y-128905000D03*
%TO.P,A1,27,+5V*%
%TO.N,{slash}INT1*%
X78105000Y-131445000D03*
%TO.P,A1,28,~{RESET}*%
%TO.N,unconnected-(A1-Pad28)*%
X78105000Y-133985000D03*
%TO.P,A1,29,GND*%
%TO.N,GND*%
X78105000Y-136525000D03*
%TO.P,A1,30,VIN*%
%TO.N,unconnected-(A1-Pad30)*%
X78105000Y-139065000D03*
%TD*%
D13*
%TO.P,R1,1*%
%TO.N,Net-(A1-Pad6)*%
X99695000Y-139290000D03*
D12*
%TO.P,R1,2*%
%TO.N,Net-(D1-Pad2)*%
X99695000Y-141830000D03*
%TD*%
D14*
%TO.P,U2,1,NC_2*%
%TO.N,{slash}INT1*%
X142230000Y-104140000D03*
D15*
%TO.P,U2,2,A12*%
%TO.N,GND*%
X142230000Y-106680000D03*
%TO.P,U2,3,A7*%
%TO.N,Addr7*%
X142230000Y-109220000D03*
%TO.P,U2,4,A6*%
%TO.N,Addr6*%
X142230000Y-111760000D03*
%TO.P,U2,5,A5*%
%TO.N,Addr5*%
X142230000Y-114300000D03*
%TO.P,U2,6,A4*%
%TO.N,Addr4*%
X142230000Y-116840000D03*
%TO.P,U2,7,A3*%
%TO.N,Addr3*%
X142230000Y-119380000D03*
%TO.P,U2,8,A2*%
%TO.N,Addr2*%
X142230000Y-121920000D03*
%TO.P,U2,9,A1*%
%TO.N,Addr1*%
X142230000Y-124460000D03*
%TO.P,U2,10,A0*%
%TO.N,Addr0*%
X142230000Y-127000000D03*
%TO.P,U2,11,DQ0*%
%TO.N,C0*%
X142230000Y-129540000D03*
%TO.P,U2,12,DQ1*%
%TO.N,C1*%
X142230000Y-132080000D03*
%TO.P,U2,13,DQ2*%
%TO.N,C2*%
X142230000Y-134620000D03*
%TO.P,U2,14,GND*%
%TO.N,GND*%
X142230000Y-137160000D03*
%TO.P,U2,15,DQ3*%
%TO.N,C3*%
X157470000Y-137160000D03*
%TO.P,U2,16,DQ4*%
%TO.N,C4*%
X157470000Y-134620000D03*
%TO.P,U2,17,DQ5*%
%TO.N,C5*%
X157470000Y-132080000D03*
%TO.P,U2,18,DQ6*%
%TO.N,C6*%
X157470000Y-129540000D03*
%TO.P,U2,19,DQ7*%
%TO.N,C7*%
X157470000Y-127000000D03*
%TO.P,U2,20,\u002ACE*%
%TO.N,{slash}READ*%
X157470000Y-124460000D03*
%TO.P,U2,21,A10*%
%TO.N,D6*%
X157470000Y-121920000D03*
%TO.P,U2,22,\u002AOE*%
%TO.N,B6*%
X157470000Y-119380000D03*
%TO.P,U2,23,A11*%
%TO.N,D7*%
X157470000Y-116840000D03*
%TO.P,U2,24,A9*%
%TO.N,D5*%
X157470000Y-114300000D03*
%TO.P,U2,25,A8*%
%TO.N,D4*%
X157470000Y-111760000D03*
%TO.P,U2,26,NC*%
%TO.N,{slash}INT1*%
X157470000Y-109220000D03*
%TO.P,U2,27,\u002AWE*%
X157470000Y-106680000D03*
%TO.P,U2,28,VCC*%
X157470000Y-104140000D03*
%TD*%
D13*
%TO.P,C1,1*%
%TO.N,{slash}INT1*%
X125095000Y-136525000D03*
D12*
%TO.P,C1,2*%
%TO.N,GND*%
X125095000Y-144025000D03*
%TD*%
D11*
%TO.P,U3,1,OE*%
%TO.N,GND*%
X125730000Y-106045000D03*
D12*
%TO.P,U3,2,O0*%
%TO.N,Addr0*%
X125730000Y-108585000D03*
%TO.P,U3,3,D0*%
%TO.N,C0*%
X125730000Y-111125000D03*
%TO.P,U3,4,D1*%
%TO.N,C1*%
X125730000Y-113665000D03*
%TO.P,U3,5,O1*%
%TO.N,Addr1*%
X125730000Y-116205000D03*
%TO.P,U3,6,O2*%
%TO.N,Addr2*%
X125730000Y-118745000D03*
%TO.P,U3,7,D2*%
%TO.N,C2*%
X125730000Y-121285000D03*
%TO.P,U3,8,D3*%
%TO.N,C3*%
X125730000Y-123825000D03*
%TO.P,U3,9,O3*%
%TO.N,Addr3*%
X125730000Y-126365000D03*
%TO.P,U3,10,GND*%
%TO.N,GND*%
X125730000Y-128905000D03*
%TO.P,U3,11,LE*%
%TO.N,B4*%
X133350000Y-128905000D03*
%TO.P,U3,12,O4*%
%TO.N,Addr4*%
X133350000Y-126365000D03*
%TO.P,U3,13,D4*%
%TO.N,C4*%
X133350000Y-123825000D03*
%TO.P,U3,14,D5*%
%TO.N,C5*%
X133350000Y-121285000D03*
%TO.P,U3,15,O5*%
%TO.N,Addr5*%
X133350000Y-118745000D03*
%TO.P,U3,16,O6*%
%TO.N,Addr6*%
X133350000Y-116205000D03*
%TO.P,U3,17,D6*%
%TO.N,C6*%
X133350000Y-113665000D03*
%TO.P,U3,18,D7*%
%TO.N,C7*%
X133350000Y-111125000D03*
%TO.P,U3,19,O7*%
%TO.N,Addr7*%
X133350000Y-108585000D03*
%TO.P,U3,20,VCC*%
%TO.N,{slash}INT1*%
X133350000Y-106045000D03*
%TD*%
D16*
%TO.P,D1,1,K*%
%TO.N,GND*%
X96515000Y-146685000D03*
D17*
%TO.P,D1,2,A*%
%TO.N,Net-(D1-Pad2)*%
X99055000Y-146685000D03*
%TD*%
D13*
%TO.P,R2,1*%
%TO.N,{slash}INT1*%
X96520000Y-139290000D03*
D12*
%TO.P,R2,2*%
%TO.N,Net-(A1-Pad26)*%
X96520000Y-141830000D03*
%TD*%
D13*
%TO.P,C2,1*%
%TO.N,GND*%
X83947000Y-148911000D03*
D12*
%TO.P,C2,2*%
%TO.N,Net-(A1-Pad26)*%
X83947000Y-141411000D03*
%TD*%
D18*
%TO.N,GND*%
X130175000Y-128905000D03*
%TO.N,{slash}READ*%
X80645000Y-102870000D03*
X80645000Y-123825000D03*
X158115000Y-102235000D03*
%TO.N,Net-(A1-Pad6)*%
X99695000Y-126365000D03*
%TO.N,{slash}INT1*%
X133350000Y-95885000D03*
X112400000Y-95890000D03*
X97160000Y-128910000D03*
%TO.N,{slash}RESET*%
X81915000Y-121285000D03*
X81280000Y-130175000D03*
%TO.N,XTAL2*%
X98425000Y-136525000D03*
%TO.N,B5*%
X83185000Y-98425000D03*
X82550000Y-113030000D03*
%TO.N,D5*%
X150495000Y-146685000D03*
X153035000Y-114300000D03*
%TO.N,D6*%
X153035000Y-147955000D03*
X153035000Y-121920000D03*
%TO.N,B4*%
X131445000Y-103505000D03*
X82055489Y-104634511D03*
X82550000Y-110490000D03*
%TO.N,Addr0*%
X144145000Y-107950000D03*
%TO.N,Addr4*%
X135890000Y-117475000D03*
%TO.N,C0*%
X99060000Y-112395000D03*
X102870000Y-130175000D03*
X123970489Y-130029511D03*
%TO.N,C4*%
X123190000Y-134620000D03*
%TO.N,C1*%
X100965000Y-111125000D03*
X102870000Y-127000000D03*
X140970000Y-128270000D03*
X124314511Y-127780489D03*
%TO.N,C5*%
X123825000Y-133350000D03*
%TO.N,Addr1*%
X142875000Y-115570000D03*
%TO.N,Addr5*%
X135890000Y-114935000D03*
%TO.N,Addr6*%
X134620000Y-112395000D03*
%TO.N,C2*%
X101600000Y-108585000D03*
X102870000Y-124460000D03*
X127000000Y-125095000D03*
X130810000Y-134620000D03*
%TO.N,C6*%
X154305000Y-113030000D03*
%TO.N,C3*%
X102870000Y-121920000D03*
X122555000Y-139065000D03*
X102870000Y-106045000D03*
%TO.N,C7*%
X155575000Y-110490000D03*
%TO.N,Addr3*%
X140970000Y-125730000D03*
%TO.N,B7*%
X82550000Y-118110000D03*
X84460000Y-100970000D03*
%TO.N,D4*%
X149225000Y-142875000D03*
X153035000Y-111760000D03*
%TO.N,D7*%
X153035000Y-116840000D03*
X151765000Y-145415000D03*
%TO.N,B6*%
X156210000Y-100965000D03*
X83820000Y-102235000D03*
X82550000Y-115570000D03*
%TD*%
D19*
%TO.N,MC*%
X118745000Y-109855000D02*
X120010000Y-108590000D01*
X84455000Y-109855000D02*
X118745000Y-109855000D01*
X78105000Y-103505000D02*
X84455000Y-109855000D01*
%TO.N,{slash}READ*%
X80734511Y-102959511D02*
X80645000Y-102870000D01*
X84120103Y-102959511D02*
X80734511Y-102959511D01*
X84844614Y-102235000D02*
X84120103Y-102959511D01*
X158115000Y-102235000D02*
X84844614Y-102235000D01*
X80645000Y-123825000D02*
X78105000Y-123825000D01*
%TO.N,Net-(A1-Pad26)*%
X86793000Y-144308000D02*
X83947000Y-141462000D01*
X83947000Y-141462000D02*
X83947000Y-141411000D01*
X94042000Y-144308000D02*
X93293000Y-144308000D01*
X96520000Y-141830000D02*
X94042000Y-144308000D01*
X93293000Y-144308000D02*
X86793000Y-144308000D01*
%TO.N,Net-(A1-Pad6)*%
X93345000Y-126365000D02*
X99695000Y-126365000D01*
D20*
%TO.N,{slash}INT1*%
X112405000Y-95885000D02*
X133350000Y-95885000D01*
X104770000Y-128910000D02*
X97160000Y-128910000D01*
X125090000Y-136530000D02*
X125095000Y-136525000D01*
X81915000Y-131445000D02*
X78105000Y-131445000D01*
X96520000Y-139290000D02*
X94840000Y-140970000D01*
X135255000Y-104140000D02*
X142230000Y-104140000D01*
X133350000Y-106045000D02*
X135255000Y-104140000D01*
X91440000Y-140970000D02*
X81915000Y-131445000D01*
X120010000Y-136530000D02*
X125090000Y-136530000D01*
X112400000Y-95890000D02*
X112405000Y-95885000D01*
X94840000Y-140970000D02*
X91440000Y-140970000D01*
X157470000Y-104140000D02*
X142230000Y-104140000D01*
D19*
%TO.N,{slash}RESET*%
X81425489Y-130320489D02*
X81280000Y-130175000D01*
X104770000Y-131450000D02*
X95255000Y-131450000D01*
X78105000Y-121285000D02*
X81915000Y-121285000D01*
X94125489Y-130320489D02*
X81425489Y-130320489D01*
X95255000Y-131450000D02*
X94125489Y-130320489D01*
%TO.N,XTAL2*%
X104770000Y-139070000D02*
X102225000Y-136525000D01*
X102225000Y-136525000D02*
X98425000Y-136525000D01*
%TO.N,B5*%
X104770000Y-98430000D02*
X83190000Y-98430000D01*
X83190000Y-98430000D02*
X83185000Y-98425000D01*
X81915000Y-113665000D02*
X82550000Y-113030000D01*
X78105000Y-113665000D02*
X81915000Y-113665000D01*
%TO.N,D5*%
X157470000Y-114300000D02*
X153035000Y-114300000D01*
X149225000Y-146685000D02*
X150495000Y-146685000D01*
X149220000Y-146690000D02*
X149225000Y-146685000D01*
X120010000Y-146690000D02*
X149220000Y-146690000D01*
%TO.N,D6*%
X157470000Y-121920000D02*
X153035000Y-121920000D01*
X119684700Y-147955000D02*
X118419700Y-146690000D01*
X118419700Y-146690000D02*
X104770000Y-146690000D01*
X153035000Y-147955000D02*
X119684700Y-147955000D01*
%TO.N,B4*%
X120010000Y-103510000D02*
X118885489Y-104634511D01*
X120010000Y-103510000D02*
X131440000Y-103510000D01*
X118885489Y-104634511D02*
X82055489Y-104634511D01*
X81915000Y-111125000D02*
X82550000Y-110490000D01*
X78105000Y-111125000D02*
X81915000Y-111125000D01*
X131440000Y-103510000D02*
X131445000Y-103505000D01*
%TO.N,Addr0*%
X127000000Y-107315000D02*
X137795000Y-107315000D01*
X138430000Y-107950000D02*
X137795000Y-107315000D01*
X125730000Y-108585000D02*
X127000000Y-107315000D01*
X144145000Y-107950000D02*
X138430000Y-107950000D01*
%TO.N,Addr4*%
X136525000Y-116840000D02*
X135890000Y-117475000D01*
X142230000Y-116840000D02*
X136525000Y-116840000D01*
%TO.N,C0*%
X141740489Y-130029511D02*
X142230000Y-129540000D01*
X120010000Y-128910000D02*
X118594511Y-130325489D01*
X123970489Y-130029511D02*
X141740489Y-130029511D01*
X118594511Y-130325489D02*
X103020489Y-130325489D01*
X120010000Y-128910000D02*
X121129511Y-130029511D01*
X93345000Y-113665000D02*
X97790000Y-113665000D01*
X121129511Y-130029511D02*
X123970489Y-130029511D01*
X103020489Y-130325489D02*
X102870000Y-130175000D01*
X97790000Y-113665000D02*
X99060000Y-112395000D01*
%TO.N,C4*%
X132080000Y-122555000D02*
X123815000Y-122555000D01*
X156497789Y-135592211D02*
X126067211Y-135592211D01*
X123815000Y-122555000D02*
X120010000Y-118750000D01*
X95885000Y-123825000D02*
X93345000Y-123825000D01*
X118594511Y-120165489D02*
X99544511Y-120165489D01*
X120010000Y-118750000D02*
X118594511Y-120165489D01*
X157470000Y-134620000D02*
X156497789Y-135592211D01*
X125095000Y-134620000D02*
X123190000Y-134620000D01*
X99544511Y-120165489D02*
X95885000Y-123825000D01*
X126067211Y-135592211D02*
X125095000Y-134620000D01*
X133350000Y-123825000D02*
X132080000Y-122555000D01*
%TO.N,C1*%
X123044511Y-127780489D02*
X121634022Y-126370000D01*
X140480489Y-127780489D02*
X140970000Y-128270000D01*
X124314511Y-127780489D02*
X123044511Y-127780489D01*
X121634022Y-126370000D02*
X120010000Y-126370000D01*
X120010000Y-126370000D02*
X118594511Y-127785489D01*
X93345000Y-111125000D02*
X100965000Y-111125000D01*
X124314511Y-127780489D02*
X140480489Y-127780489D01*
X118594511Y-127785489D02*
X103655489Y-127785489D01*
X103655489Y-127785489D02*
X102870000Y-127000000D01*
%TO.N,C5*%
X118745000Y-117475000D02*
X100330000Y-117475000D01*
X157470000Y-132080000D02*
X156497789Y-133052211D01*
X96520000Y-121285000D02*
X93345000Y-121285000D01*
X129540000Y-120015000D02*
X123815000Y-120015000D01*
X123815000Y-120015000D02*
X120010000Y-116210000D01*
X156497789Y-133052211D02*
X124122789Y-133052211D01*
X124122789Y-133052211D02*
X123825000Y-133350000D01*
X130810000Y-121285000D02*
X129540000Y-120015000D01*
X120010000Y-116210000D02*
X118745000Y-117475000D01*
X133350000Y-121285000D02*
X130810000Y-121285000D01*
X100330000Y-117475000D02*
X96520000Y-121285000D01*
%TO.N,Addr1*%
X136525000Y-115570000D02*
X142875000Y-115570000D01*
X125730000Y-116205000D02*
X126854511Y-117329511D01*
X126854511Y-117329511D02*
X134765489Y-117329511D01*
X134765489Y-117329511D02*
X136525000Y-115570000D01*
%TO.N,Addr5*%
X136525000Y-114300000D02*
X135890000Y-114935000D01*
X137795000Y-114300000D02*
X142230000Y-114300000D01*
X137795000Y-114300000D02*
X136525000Y-114300000D01*
%TO.N,Addr2*%
X129830978Y-118745000D02*
X130955489Y-119869511D01*
X125730000Y-118745000D02*
X129830978Y-118745000D01*
X140179511Y-119869511D02*
X142230000Y-121920000D01*
X130955489Y-119869511D02*
X140179511Y-119869511D01*
%TO.N,Addr6*%
X142230000Y-111760000D02*
X135255000Y-111760000D01*
X135255000Y-111760000D02*
X134620000Y-112395000D01*
%TO.N,C2*%
X118594511Y-125245489D02*
X103655489Y-125245489D01*
X93345000Y-108585000D02*
X101600000Y-108585000D01*
X121275000Y-125095000D02*
X127000000Y-125095000D01*
X103655489Y-125245489D02*
X102870000Y-124460000D01*
X120010000Y-123830000D02*
X121275000Y-125095000D01*
X120010000Y-123830000D02*
X118594511Y-125245489D01*
X130810000Y-134620000D02*
X142230000Y-134620000D01*
%TO.N,C6*%
X135116370Y-113030000D02*
X154305000Y-113030000D01*
X132225489Y-112540489D02*
X133350000Y-113665000D01*
X133350000Y-113665000D02*
X134481370Y-113665000D01*
X120010000Y-113670000D02*
X121139511Y-112540489D01*
X93345000Y-118745000D02*
X96239022Y-118745000D01*
X121139511Y-112540489D02*
X132225489Y-112540489D01*
X134481370Y-113665000D02*
X135116370Y-113030000D01*
X120010000Y-113670000D02*
X118885489Y-114794511D01*
X118885489Y-114794511D02*
X100189511Y-114794511D01*
X96239022Y-118745000D02*
X100189511Y-114794511D01*
%TO.N,C3*%
X122545000Y-123825000D02*
X120010000Y-121290000D01*
X157470000Y-137160000D02*
X156497789Y-136187789D01*
X118885489Y-122414511D02*
X103364511Y-122414511D01*
X131782211Y-136187789D02*
X128905000Y-139065000D01*
X93345000Y-106045000D02*
X102870000Y-106045000D01*
X125730000Y-123825000D02*
X122545000Y-123825000D01*
X128905000Y-139065000D02*
X122555000Y-139065000D01*
X120010000Y-121290000D02*
X118885489Y-122414511D01*
X156497789Y-136187789D02*
X131782211Y-136187789D01*
X103364511Y-122414511D02*
X102870000Y-121920000D01*
%TO.N,C7*%
X132225489Y-110000489D02*
X133350000Y-111125000D01*
X120010000Y-111130000D02*
X121139511Y-110000489D01*
X134282789Y-110192211D02*
X155277211Y-110192211D01*
X133350000Y-111125000D02*
X134282789Y-110192211D01*
X155277211Y-110192211D02*
X155575000Y-110490000D01*
X121139511Y-110000489D02*
X132225489Y-110000489D01*
X96520000Y-116205000D02*
X93345000Y-116205000D01*
X118594511Y-112545489D02*
X100179511Y-112545489D01*
X120010000Y-111130000D02*
X118594511Y-112545489D01*
X100179511Y-112545489D02*
X96520000Y-116205000D01*
%TO.N,Addr3*%
X128614022Y-126365000D02*
X130029511Y-124949511D01*
X130029511Y-124949511D02*
X140189511Y-124949511D01*
X140189511Y-124949511D02*
X140970000Y-125730000D01*
X125730000Y-126365000D02*
X128614022Y-126365000D01*
%TO.N,Addr7*%
X133985000Y-109220000D02*
X133350000Y-108585000D01*
X142230000Y-109220000D02*
X133985000Y-109220000D01*
%TO.N,B7*%
X81915000Y-118745000D02*
X82550000Y-118110000D01*
X78105000Y-118745000D02*
X81915000Y-118745000D01*
X104770000Y-100970000D02*
X84460000Y-100970000D01*
%TO.N,D4*%
X149225000Y-142875000D02*
X121285000Y-142875000D01*
X120010000Y-144150000D02*
X121285000Y-142875000D01*
X157470000Y-111760000D02*
X153035000Y-111760000D01*
%TO.N,D7*%
X157470000Y-116840000D02*
X153035000Y-116840000D01*
X104770000Y-144150000D02*
X105894511Y-145274511D01*
X105894511Y-145274511D02*
X151624511Y-145274511D01*
X151624511Y-145274511D02*
X151765000Y-145415000D01*
%TO.N,B6*%
X84710386Y-99695000D02*
X83735489Y-100669897D01*
X156210000Y-100965000D02*
X156205000Y-100970000D01*
X156205000Y-100970000D02*
X120010000Y-100970000D01*
X81915000Y-116205000D02*
X82550000Y-115570000D01*
X78105000Y-116205000D02*
X81915000Y-116205000D01*
X118735000Y-99695000D02*
X84710386Y-99695000D01*
X83735489Y-102150489D02*
X83820000Y-102235000D01*
X83735489Y-100669897D02*
X83735489Y-102150489D01*
X120010000Y-100970000D02*
X118735000Y-99695000D01*
%TD*%
%TA.AperFunction,Conductor*%
%TO.N,GND*%
G36*
X111526836Y-95143002D02*
G01*
X111573329Y-95196658D01*
X111583433Y-95266932D01*
X111563420Y-95319091D01*
X111561806Y-95321503D01*
X111557897Y-95326261D01*
X111464438Y-95500563D01*
X111406613Y-95689698D01*
X111400736Y-95747551D01*
X111393373Y-95820044D01*
X111386626Y-95886462D01*
X111405239Y-96083362D01*
X111461741Y-96272896D01*
X111553982Y-96447846D01*
X111557858Y-96452632D01*
X111557859Y-96452634D01*
X111594795Y-96498246D01*
X111678447Y-96601547D01*
X111830396Y-96728146D01*
X112004041Y-96822822D01*
X112098404Y-96852393D01*
X112186886Y-96880122D01*
X112186889Y-96880123D01*
X112192768Y-96881965D01*
X112198891Y-96882630D01*
X112198895Y-96882631D01*
X112383263Y-96902659D01*
X112383267Y-96902659D01*
X112389388Y-96903324D01*
X112496205Y-96893979D01*
X112507186Y-96893500D01*
X119733506Y-96893500D01*
X119801627Y-96913502D01*
X119848120Y-96967158D01*
X119858224Y-97037432D01*
X119828730Y-97102012D01*
X119766117Y-97141207D01*
X119566239Y-97194764D01*
X119555947Y-97198510D01*
X119358489Y-97290586D01*
X119348993Y-97296069D01*
X119170533Y-97421028D01*
X119162125Y-97428084D01*
X119008084Y-97582125D01*
X119001028Y-97590533D01*
X118876069Y-97768993D01*
X118870586Y-97778489D01*
X118778510Y-97975947D01*
X118774764Y-97986239D01*
X118728606Y-98158503D01*
X118728942Y-98172599D01*
X118736884Y-98176000D01*
X121277967Y-98176000D01*
X121291498Y-98172027D01*
X121292727Y-98163478D01*
X121245236Y-97986239D01*
X121241490Y-97975947D01*
X121149414Y-97778489D01*
X121143931Y-97768993D01*
X121018972Y-97590533D01*
X121011916Y-97582125D01*
X120857875Y-97428084D01*
X120849467Y-97421028D01*
X120671007Y-97296069D01*
X120661511Y-97290586D01*
X120464053Y-97198510D01*
X120453761Y-97194764D01*
X120253883Y-97141207D01*
X120193260Y-97104255D01*
X120162239Y-97040395D01*
X120170667Y-96969900D01*
X120215870Y-96915153D01*
X120286494Y-96893500D01*
X133399769Y-96893500D01*
X133402825Y-96893200D01*
X133402832Y-96893200D01*
X133461340Y-96887463D01*
X133546833Y-96879080D01*
X133552734Y-96877298D01*
X133552736Y-96877298D01*
X133626053Y-96855162D01*
X133736169Y-96821916D01*
X133910796Y-96729066D01*
X134033717Y-96628814D01*
X134059287Y-96607960D01*
X134059290Y-96607957D01*
X134064062Y-96604065D01*
X134070108Y-96596757D01*
X134186201Y-96456425D01*
X134186203Y-96456421D01*
X134190130Y-96451675D01*
X134284198Y-96277701D01*
X134342682Y-96088768D01*
X134363355Y-95892075D01*
X134345430Y-95695112D01*
X134289590Y-95505381D01*
X134197960Y-95330110D01*
X134194096Y-95325305D01*
X134190727Y-95320156D01*
X134192520Y-95318982D01*
X134169128Y-95262327D01*
X134181813Y-95192473D01*
X134230250Y-95140565D01*
X134294421Y-95123000D01*
X160595672Y-95123000D01*
X160615057Y-95124500D01*
X160629858Y-95126805D01*
X160629861Y-95126805D01*
X160638730Y-95128186D01*
X160657411Y-95125743D01*
X160680342Y-95124852D01*
X160983557Y-95140743D01*
X160996665Y-95142120D01*
X161210419Y-95175975D01*
X161325002Y-95194123D01*
X161337902Y-95196865D01*
X161659000Y-95282903D01*
X161671536Y-95286977D01*
X161944358Y-95391703D01*
X161981876Y-95406105D01*
X161993924Y-95411469D01*
X162290120Y-95562388D01*
X162301536Y-95568979D01*
X162580334Y-95750033D01*
X162590992Y-95757776D01*
X162757478Y-95892593D01*
X162849344Y-95966984D01*
X162859145Y-95975810D01*
X163094190Y-96210855D01*
X163103015Y-96220655D01*
X163290091Y-96451675D01*
X163312221Y-96479004D01*
X163319967Y-96489666D01*
X163501018Y-96768459D01*
X163507612Y-96779880D01*
X163658531Y-97076076D01*
X163663895Y-97088124D01*
X163780429Y-97391703D01*
X163783021Y-97398456D01*
X163787097Y-97411000D01*
X163873135Y-97732098D01*
X163875877Y-97744998D01*
X163924730Y-98053444D01*
X163927879Y-98073329D01*
X163929257Y-98086443D01*
X163939823Y-98288049D01*
X163944764Y-98382330D01*
X163943436Y-98408312D01*
X163943195Y-98409856D01*
X163943195Y-98409860D01*
X163941814Y-98418730D01*
X163942978Y-98427632D01*
X163942978Y-98427635D01*
X163945936Y-98450251D01*
X163947000Y-98466589D01*
X163947000Y-146635672D01*
X163945500Y-146655056D01*
X163941814Y-146678730D01*
X163943493Y-146691565D01*
X163944257Y-146697410D01*
X163945148Y-146720342D01*
X163935072Y-146912607D01*
X163929257Y-147023554D01*
X163927880Y-147036665D01*
X163916638Y-147107642D01*
X163875877Y-147365002D01*
X163873135Y-147377902D01*
X163787097Y-147699000D01*
X163783023Y-147711536D01*
X163687807Y-147959584D01*
X163663895Y-148021876D01*
X163658531Y-148033924D01*
X163507612Y-148330120D01*
X163501021Y-148341536D01*
X163319967Y-148620334D01*
X163312224Y-148630992D01*
X163161129Y-148817580D01*
X163103016Y-148889344D01*
X163094190Y-148899145D01*
X162859145Y-149134190D01*
X162849345Y-149143015D01*
X162637866Y-149314267D01*
X162590996Y-149352221D01*
X162580334Y-149359967D01*
X162301536Y-149541021D01*
X162290120Y-149547612D01*
X161993924Y-149698531D01*
X161981875Y-149703895D01*
X161671536Y-149823023D01*
X161659000Y-149827097D01*
X161337902Y-149913135D01*
X161325002Y-149915877D01*
X161236285Y-149929928D01*
X160996665Y-149967880D01*
X160983557Y-149969257D01*
X160687666Y-149984764D01*
X160661688Y-149983436D01*
X160660144Y-149983195D01*
X160660140Y-149983195D01*
X160651270Y-149981814D01*
X160642368Y-149982978D01*
X160642365Y-149982978D01*
X160619749Y-149985936D01*
X160603411Y-149987000D01*
X94156124Y-149987000D01*
X94088003Y-149966998D01*
X94044849Y-149920110D01*
X94043658Y-149917868D01*
X93305812Y-149180022D01*
X93291868Y-149172408D01*
X93290035Y-149172539D01*
X93283420Y-149176790D01*
X92539736Y-149920474D01*
X92539238Y-149921386D01*
X92489036Y-149971588D01*
X92428651Y-149987000D01*
X87656124Y-149987000D01*
X87588003Y-149966998D01*
X87544849Y-149920110D01*
X87543658Y-149917868D01*
X86805812Y-149180022D01*
X86791868Y-149172408D01*
X86790035Y-149172539D01*
X86783420Y-149176790D01*
X86039736Y-149920474D01*
X86039238Y-149921386D01*
X85989036Y-149971588D01*
X85928651Y-149987000D01*
X84715980Y-149987000D01*
X84647859Y-149966998D01*
X84626885Y-149950095D01*
X83959812Y-149283022D01*
X83945868Y-149275408D01*
X83944035Y-149275539D01*
X83937420Y-149279790D01*
X83267115Y-149950095D01*
X83204803Y-149984121D01*
X83178020Y-149987000D01*
X78154328Y-149987000D01*
X78134943Y-149985500D01*
X78120142Y-149983195D01*
X78120139Y-149983195D01*
X78111270Y-149981814D01*
X78092589Y-149984257D01*
X78069658Y-149985148D01*
X77766443Y-149969257D01*
X77753335Y-149967880D01*
X77513715Y-149929928D01*
X77424998Y-149915877D01*
X77412098Y-149913135D01*
X77091000Y-149827097D01*
X77078464Y-149823023D01*
X76768125Y-149703895D01*
X76756076Y-149698531D01*
X76459880Y-149547612D01*
X76448464Y-149541021D01*
X76169666Y-149359967D01*
X76159004Y-149352221D01*
X76112135Y-149314267D01*
X75900655Y-149143015D01*
X75890855Y-149134190D01*
X75673140Y-148916475D01*
X82634483Y-148916475D01*
X82653472Y-149133519D01*
X82655375Y-149144312D01*
X82711764Y-149354761D01*
X82715510Y-149365053D01*
X82807586Y-149562511D01*
X82813069Y-149572006D01*
X82849509Y-149624048D01*
X82859988Y-149632424D01*
X82873434Y-149625356D01*
X83574978Y-148923812D01*
X83581356Y-148912132D01*
X84311408Y-148912132D01*
X84311539Y-148913965D01*
X84315790Y-148920580D01*
X85021287Y-149626077D01*
X85033062Y-149632507D01*
X85045077Y-149623211D01*
X85080931Y-149572006D01*
X85086414Y-149562511D01*
X85178490Y-149365053D01*
X85182236Y-149354761D01*
X85235647Y-149155426D01*
X85272599Y-149094803D01*
X85336459Y-149063782D01*
X85406954Y-149072210D01*
X85461701Y-149117413D01*
X85480271Y-149160335D01*
X85491565Y-149210448D01*
X85494645Y-149220275D01*
X85574770Y-149417603D01*
X85579413Y-149426794D01*
X85659460Y-149557420D01*
X85669916Y-149566880D01*
X85678694Y-149563096D01*
X86420978Y-148820812D01*
X86427356Y-148809132D01*
X87157408Y-148809132D01*
X87157539Y-148810965D01*
X87161790Y-148817580D01*
X87903474Y-149559264D01*
X87915484Y-149565823D01*
X87927223Y-149556855D01*
X87958004Y-149514019D01*
X87963315Y-149505180D01*
X88057670Y-149314267D01*
X88061469Y-149304672D01*
X88123376Y-149100915D01*
X88125555Y-149090834D01*
X88153590Y-148877887D01*
X88154109Y-148871212D01*
X88155572Y-148811364D01*
X88155378Y-148804646D01*
X88153341Y-148779863D01*
X91931050Y-148779863D01*
X91943309Y-148992477D01*
X91944745Y-149002697D01*
X91991565Y-149210446D01*
X91994645Y-149220275D01*
X92074770Y-149417603D01*
X92079413Y-149426794D01*
X92159460Y-149557420D01*
X92169916Y-149566880D01*
X92178694Y-149563096D01*
X92920978Y-148820812D01*
X92927356Y-148809132D01*
X93657408Y-148809132D01*
X93657539Y-148810965D01*
X93661790Y-148817580D01*
X94403474Y-149559264D01*
X94415484Y-149565823D01*
X94427223Y-149556855D01*
X94458004Y-149514019D01*
X94463315Y-149505180D01*
X94557670Y-149314267D01*
X94561469Y-149304672D01*
X94623376Y-149100915D01*
X94625555Y-149090834D01*
X94653590Y-148877887D01*
X94654109Y-148871212D01*
X94655572Y-148811364D01*
X94655378Y-148804646D01*
X94637781Y-148590604D01*
X94636096Y-148580424D01*
X94584214Y-148373875D01*
X94580894Y-148364124D01*
X94495972Y-148168814D01*
X94491105Y-148159739D01*
X94426063Y-148059197D01*
X94415377Y-148049995D01*
X94405812Y-148054398D01*
X93665022Y-148795188D01*
X93657408Y-148809132D01*
X92927356Y-148809132D01*
X92928592Y-148806868D01*
X92928461Y-148805035D01*
X92924210Y-148798420D01*
X92182849Y-148057059D01*
X92171313Y-148050759D01*
X92159031Y-148060382D01*
X92111089Y-148130662D01*
X92106004Y-148139613D01*
X92016338Y-148332783D01*
X92012775Y-148342470D01*
X91955864Y-148547681D01*
X91953933Y-148557800D01*
X91931302Y-148769574D01*
X91931050Y-148779863D01*
X88153341Y-148779863D01*
X88137781Y-148590604D01*
X88136096Y-148580424D01*
X88084214Y-148373875D01*
X88080894Y-148364124D01*
X87995972Y-148168814D01*
X87991105Y-148159739D01*
X87926063Y-148059197D01*
X87915377Y-148049995D01*
X87905812Y-148054398D01*
X87165022Y-148795188D01*
X87157408Y-148809132D01*
X86427356Y-148809132D01*
X86428592Y-148806868D01*
X86428461Y-148805035D01*
X86424210Y-148798420D01*
X85682849Y-148057059D01*
X85671313Y-148050759D01*
X85659031Y-148060382D01*
X85611089Y-148130662D01*
X85606004Y-148139613D01*
X85516338Y-148332783D01*
X85512775Y-148342470D01*
X85455865Y-148547677D01*
X85454123Y-148556809D01*
X85421711Y-148619975D01*
X85360293Y-148655590D01*
X85289371Y-148652346D01*
X85231460Y-148611274D01*
X85208648Y-148565810D01*
X85182235Y-148467236D01*
X85178490Y-148456947D01*
X85086414Y-148259489D01*
X85080931Y-148249994D01*
X85044491Y-148197952D01*
X85034012Y-148189576D01*
X85020566Y-148196644D01*
X84319022Y-148898188D01*
X84311408Y-148912132D01*
X83581356Y-148912132D01*
X83582592Y-148909868D01*
X83582461Y-148908035D01*
X83578210Y-148901420D01*
X82872713Y-148195923D01*
X82860938Y-148189493D01*
X82848923Y-148198789D01*
X82813069Y-148249994D01*
X82807586Y-148259489D01*
X82715510Y-148456947D01*
X82711764Y-148467239D01*
X82655375Y-148677688D01*
X82653472Y-148688481D01*
X82634483Y-148905525D01*
X82634483Y-148916475D01*
X75673140Y-148916475D01*
X75655810Y-148899145D01*
X75646984Y-148889344D01*
X75588871Y-148817580D01*
X75437776Y-148630992D01*
X75430033Y-148620334D01*
X75248979Y-148341536D01*
X75242388Y-148330120D01*
X75091469Y-148033924D01*
X75086105Y-148021876D01*
X75062193Y-147959584D01*
X74966977Y-147711536D01*
X74962903Y-147699000D01*
X74876865Y-147377902D01*
X74874123Y-147365002D01*
X74833362Y-147107642D01*
X74822120Y-147036665D01*
X74820743Y-147023554D01*
X74816546Y-146943475D01*
X74809955Y-146817703D01*
X75995743Y-146817703D01*
X75996302Y-146821947D01*
X75996302Y-146821951D01*
X76011712Y-146939000D01*
X76033268Y-147102734D01*
X76109129Y-147380036D01*
X76110813Y-147383984D01*
X76218517Y-147636490D01*
X76221923Y-147644476D01*
X76263009Y-147713126D01*
X76342138Y-147845340D01*
X76369561Y-147891161D01*
X76549313Y-148115528D01*
X76757851Y-148313423D01*
X76991317Y-148481186D01*
X76995112Y-148483195D01*
X76995113Y-148483196D01*
X77016869Y-148494715D01*
X77245392Y-148615712D01*
X77295000Y-148633866D01*
X77444243Y-148688481D01*
X77515373Y-148714511D01*
X77796264Y-148775755D01*
X77824841Y-148778004D01*
X78019282Y-148793307D01*
X78019291Y-148793307D01*
X78021739Y-148793500D01*
X78177271Y-148793500D01*
X78179407Y-148793354D01*
X78179418Y-148793354D01*
X78387548Y-148779165D01*
X78387554Y-148779164D01*
X78391825Y-148778873D01*
X78396020Y-148778004D01*
X78396022Y-148778004D01*
X78549994Y-148746118D01*
X78673342Y-148720574D01*
X78944343Y-148624607D01*
X79186244Y-148499753D01*
X79196005Y-148494715D01*
X79196006Y-148494715D01*
X79199812Y-148492750D01*
X79203313Y-148490289D01*
X79203317Y-148490287D01*
X79385825Y-148362018D01*
X79435023Y-148327441D01*
X79583383Y-148189576D01*
X79642479Y-148134661D01*
X79642481Y-148134658D01*
X79645622Y-148131740D01*
X79827713Y-147909268D01*
X79879973Y-147823988D01*
X83225576Y-147823988D01*
X83232644Y-147837434D01*
X83934188Y-148538978D01*
X83948132Y-148546592D01*
X83949965Y-148546461D01*
X83956580Y-148542210D01*
X84662077Y-147836713D01*
X84668507Y-147824938D01*
X84659211Y-147812923D01*
X84608006Y-147777069D01*
X84598511Y-147771586D01*
X84411598Y-147684427D01*
X86034223Y-147684427D01*
X86040968Y-147696758D01*
X86780188Y-148435978D01*
X86794132Y-148443592D01*
X86795965Y-148443461D01*
X86802580Y-148439210D01*
X87546389Y-147695401D01*
X87552382Y-147684427D01*
X92534223Y-147684427D01*
X92540968Y-147696758D01*
X93280188Y-148435978D01*
X93294132Y-148443592D01*
X93295965Y-148443461D01*
X93302580Y-148439210D01*
X94046389Y-147695401D01*
X94053410Y-147682544D01*
X94046611Y-147673213D01*
X94042554Y-147670518D01*
X93968556Y-147629669D01*
X95107001Y-147629669D01*
X95107371Y-147636490D01*
X95112895Y-147687352D01*
X95116521Y-147702604D01*
X95161676Y-147823054D01*
X95170214Y-147838649D01*
X95246715Y-147940724D01*
X95259276Y-147953285D01*
X95361351Y-148029786D01*
X95376946Y-148038324D01*
X95497394Y-148083478D01*
X95512649Y-148087105D01*
X95563514Y-148092631D01*
X95570328Y-148093000D01*
X96242885Y-148093000D01*
X96258124Y-148088525D01*
X96259329Y-148087135D01*
X96261000Y-148079452D01*
X96261000Y-148074884D01*
X96769000Y-148074884D01*
X96773475Y-148090123D01*
X96774865Y-148091328D01*
X96782548Y-148092999D01*
X97459669Y-148092999D01*
X97466490Y-148092629D01*
X97517352Y-148087105D01*
X97532604Y-148083479D01*
X97653054Y-148038324D01*
X97668649Y-148029786D01*
X97770724Y-147953285D01*
X97783285Y-147940724D01*
X97859786Y-147838649D01*
X97868324Y-147823054D01*
X97889773Y-147765840D01*
X97932415Y-147709075D01*
X97998977Y-147684376D01*
X98068325Y-147699584D01*
X98088240Y-147713126D01*
X98158715Y-147771635D01*
X98244349Y-147842730D01*
X98444322Y-147959584D01*
X98449147Y-147961426D01*
X98449148Y-147961427D01*
X98503335Y-147982119D01*
X98660694Y-148042209D01*
X98665760Y-148043240D01*
X98665761Y-148043240D01*
X98718846Y-148054040D01*
X98887656Y-148088385D01*
X99018324Y-148093176D01*
X99113949Y-148096683D01*
X99113953Y-148096683D01*
X99119113Y-148096872D01*
X99124233Y-148096216D01*
X99124235Y-148096216D01*
X99223668Y-148083478D01*
X99348847Y-148067442D01*
X99353795Y-148065957D01*
X99353802Y-148065956D01*
X99565747Y-148002369D01*
X99570690Y-148000886D01*
X99606092Y-147983543D01*
X99774049Y-147901262D01*
X99774052Y-147901260D01*
X99778684Y-147898991D01*
X99967243Y-147764494D01*
X100131303Y-147601005D01*
X100266458Y-147412917D01*
X100274439Y-147396770D01*
X100366784Y-147209922D01*
X100366785Y-147209920D01*
X100369078Y-147205280D01*
X100436408Y-146983671D01*
X100466640Y-146754041D01*
X100466722Y-146750691D01*
X100468245Y-146688365D01*
X100468245Y-146688361D01*
X100468327Y-146685000D01*
X100455955Y-146534512D01*
X100449773Y-146459318D01*
X100449772Y-146459312D01*
X100449349Y-146454167D01*
X100406899Y-146285166D01*
X100394184Y-146234544D01*
X100394183Y-146234540D01*
X100392925Y-146229533D01*
X100390866Y-146224797D01*
X100302630Y-146021868D01*
X100302628Y-146021865D01*
X100300570Y-146017131D01*
X100174764Y-145822665D01*
X100141908Y-145786556D01*
X100089969Y-145729476D01*
X100018887Y-145651358D01*
X100014836Y-145648159D01*
X100014832Y-145648155D01*
X99841177Y-145511011D01*
X99841172Y-145511008D01*
X99837123Y-145507810D01*
X99832607Y-145505317D01*
X99832604Y-145505315D01*
X99638879Y-145398373D01*
X99638875Y-145398371D01*
X99634355Y-145395876D01*
X99629486Y-145394152D01*
X99629482Y-145394150D01*
X99420903Y-145320288D01*
X99420899Y-145320287D01*
X99416028Y-145318562D01*
X99410935Y-145317655D01*
X99410932Y-145317654D01*
X99193095Y-145278851D01*
X99193089Y-145278850D01*
X99188006Y-145277945D01*
X99110644Y-145277000D01*
X98961581Y-145275179D01*
X98961579Y-145275179D01*
X98956411Y-145275116D01*
X98727464Y-145310150D01*
X98507314Y-145382106D01*
X98502726Y-145384494D01*
X98502722Y-145384496D01*
X98317007Y-145481173D01*
X98301872Y-145489052D01*
X98297739Y-145492155D01*
X98297736Y-145492157D01*
X98131421Y-145617030D01*
X98116655Y-145628117D01*
X98113083Y-145631855D01*
X98098787Y-145646815D01*
X98037263Y-145682245D01*
X97966351Y-145678788D01*
X97908564Y-145637543D01*
X97889711Y-145603994D01*
X97868324Y-145546946D01*
X97859786Y-145531351D01*
X97783285Y-145429276D01*
X97770724Y-145416715D01*
X97668649Y-145340214D01*
X97653054Y-145331676D01*
X97532606Y-145286522D01*
X97517351Y-145282895D01*
X97466486Y-145277369D01*
X97459672Y-145277000D01*
X96787115Y-145277000D01*
X96771876Y-145281475D01*
X96770671Y-145282865D01*
X96769000Y-145290548D01*
X96769000Y-148074884D01*
X96261000Y-148074884D01*
X96261000Y-146957115D01*
X96256525Y-146941876D01*
X96255135Y-146940671D01*
X96247452Y-146939000D01*
X95125116Y-146939000D01*
X95109877Y-146943475D01*
X95108672Y-146944865D01*
X95107001Y-146952548D01*
X95107001Y-147629669D01*
X93968556Y-147629669D01*
X93856117Y-147567599D01*
X93846705Y-147563369D01*
X93645959Y-147492280D01*
X93635989Y-147489646D01*
X93426327Y-147452301D01*
X93416073Y-147451331D01*
X93203116Y-147448728D01*
X93192832Y-147449448D01*
X92982321Y-147481661D01*
X92972293Y-147484050D01*
X92769868Y-147550212D01*
X92760359Y-147554209D01*
X92571466Y-147652540D01*
X92562734Y-147658039D01*
X92542677Y-147673099D01*
X92534223Y-147684427D01*
X87552382Y-147684427D01*
X87553410Y-147682544D01*
X87546611Y-147673213D01*
X87542554Y-147670518D01*
X87356117Y-147567599D01*
X87346705Y-147563369D01*
X87145959Y-147492280D01*
X87135989Y-147489646D01*
X86926327Y-147452301D01*
X86916073Y-147451331D01*
X86703116Y-147448728D01*
X86692832Y-147449448D01*
X86482321Y-147481661D01*
X86472293Y-147484050D01*
X86269868Y-147550212D01*
X86260359Y-147554209D01*
X86071466Y-147652540D01*
X86062734Y-147658039D01*
X86042677Y-147673099D01*
X86034223Y-147684427D01*
X84411598Y-147684427D01*
X84401053Y-147679510D01*
X84390761Y-147675764D01*
X84180312Y-147619375D01*
X84169519Y-147617472D01*
X83952475Y-147598483D01*
X83941525Y-147598483D01*
X83724481Y-147617472D01*
X83713688Y-147619375D01*
X83503239Y-147675764D01*
X83492947Y-147679510D01*
X83295489Y-147771586D01*
X83285994Y-147777069D01*
X83233952Y-147813509D01*
X83225576Y-147823988D01*
X79879973Y-147823988D01*
X79977927Y-147664142D01*
X80071345Y-147451331D01*
X80091757Y-147404830D01*
X80093483Y-147400898D01*
X80112853Y-147332901D01*
X80137082Y-147247842D01*
X80172244Y-147124406D01*
X80212751Y-146839784D01*
X80212845Y-146821951D01*
X80214235Y-146556583D01*
X80214235Y-146556576D01*
X80214257Y-146552297D01*
X80195903Y-146412885D01*
X95107000Y-146412885D01*
X95111475Y-146428124D01*
X95112865Y-146429329D01*
X95120548Y-146431000D01*
X96242885Y-146431000D01*
X96258124Y-146426525D01*
X96259329Y-146425135D01*
X96261000Y-146417452D01*
X96261000Y-145295116D01*
X96256525Y-145279877D01*
X96255135Y-145278672D01*
X96247452Y-145277001D01*
X95570331Y-145277001D01*
X95563510Y-145277371D01*
X95512648Y-145282895D01*
X95497396Y-145286521D01*
X95376946Y-145331676D01*
X95361351Y-145340214D01*
X95259276Y-145416715D01*
X95246715Y-145429276D01*
X95170214Y-145531351D01*
X95161676Y-145546946D01*
X95116522Y-145667394D01*
X95112895Y-145682649D01*
X95107369Y-145733514D01*
X95107000Y-145740328D01*
X95107000Y-146412885D01*
X80195903Y-146412885D01*
X80176732Y-146267266D01*
X80166410Y-146229533D01*
X80136572Y-146120467D01*
X80100871Y-145989964D01*
X80037675Y-145841803D01*
X79989763Y-145729476D01*
X79989761Y-145729472D01*
X79988077Y-145725524D01*
X79886400Y-145555634D01*
X79842643Y-145482521D01*
X79842640Y-145482517D01*
X79840439Y-145478839D01*
X79660687Y-145254472D01*
X79452149Y-145056577D01*
X79218683Y-144888814D01*
X79196843Y-144877250D01*
X79173654Y-144864972D01*
X78964608Y-144754288D01*
X78694627Y-144655489D01*
X78413736Y-144594245D01*
X78382685Y-144591801D01*
X78190718Y-144576693D01*
X78190709Y-144576693D01*
X78188261Y-144576500D01*
X78032729Y-144576500D01*
X78030593Y-144576646D01*
X78030582Y-144576646D01*
X77822452Y-144590835D01*
X77822446Y-144590836D01*
X77818175Y-144591127D01*
X77813980Y-144591996D01*
X77813978Y-144591996D01*
X77752121Y-144604806D01*
X77536658Y-144649426D01*
X77265657Y-144745393D01*
X77261848Y-144747359D01*
X77018136Y-144873148D01*
X77010188Y-144877250D01*
X77006687Y-144879711D01*
X77006683Y-144879713D01*
X76939372Y-144927020D01*
X76774977Y-145042559D01*
X76759892Y-145056577D01*
X76614710Y-145191489D01*
X76564378Y-145238260D01*
X76382287Y-145460732D01*
X76232073Y-145705858D01*
X76116517Y-145969102D01*
X76115342Y-145973229D01*
X76115341Y-145973230D01*
X76093045Y-146051500D01*
X76037756Y-146245594D01*
X75997249Y-146530216D01*
X75997227Y-146534505D01*
X75997226Y-146534512D01*
X75996094Y-146750691D01*
X75995743Y-146817703D01*
X74809955Y-146817703D01*
X74805236Y-146727666D01*
X74806564Y-146701688D01*
X74806805Y-146700144D01*
X74806805Y-146700140D01*
X74808186Y-146691270D01*
X74806928Y-146681646D01*
X74804064Y-146659749D01*
X74803000Y-146643411D01*
X74803000Y-139065000D01*
X76791502Y-139065000D01*
X76811457Y-139293087D01*
X76812881Y-139298400D01*
X76812881Y-139298402D01*
X76865934Y-139496395D01*
X76870716Y-139514243D01*
X76873039Y-139519224D01*
X76873039Y-139519225D01*
X76965151Y-139716762D01*
X76965154Y-139716767D01*
X76967477Y-139721749D01*
X77040902Y-139826611D01*
X77094826Y-139903621D01*
X77098802Y-139909300D01*
X77260700Y-140071198D01*
X77265208Y-140074355D01*
X77265211Y-140074357D01*
X77328798Y-140118881D01*
X77448251Y-140202523D01*
X77453233Y-140204846D01*
X77453238Y-140204849D01*
X77649139Y-140296198D01*
X77655757Y-140299284D01*
X77661065Y-140300706D01*
X77661067Y-140300707D01*
X77871598Y-140357119D01*
X77871600Y-140357119D01*
X77876913Y-140358543D01*
X78105000Y-140378498D01*
X78333087Y-140358543D01*
X78338400Y-140357119D01*
X78338402Y-140357119D01*
X78548933Y-140300707D01*
X78548935Y-140300706D01*
X78554243Y-140299284D01*
X78560861Y-140296198D01*
X78756762Y-140204849D01*
X78756767Y-140204846D01*
X78761749Y-140202523D01*
X78881202Y-140118881D01*
X78944789Y-140074357D01*
X78944792Y-140074355D01*
X78949300Y-140071198D01*
X79111198Y-139909300D01*
X79115175Y-139903621D01*
X79169098Y-139826611D01*
X79242523Y-139721749D01*
X79244846Y-139716767D01*
X79244849Y-139716762D01*
X79336961Y-139519225D01*
X79336961Y-139519224D01*
X79339284Y-139514243D01*
X79344067Y-139496395D01*
X79397119Y-139298402D01*
X79397119Y-139298400D01*
X79398543Y-139293087D01*
X79418498Y-139065000D01*
X79398543Y-138836913D01*
X79364052Y-138708192D01*
X79340707Y-138621067D01*
X79340706Y-138621065D01*
X79339284Y-138615757D01*
X79296100Y-138523148D01*
X79244849Y-138413238D01*
X79244846Y-138413233D01*
X79242523Y-138408251D01*
X79148437Y-138273882D01*
X79114357Y-138225211D01*
X79114355Y-138225208D01*
X79111198Y-138220700D01*
X78949300Y-138058802D01*
X78944792Y-138055645D01*
X78944789Y-138055643D01*
X78832448Y-137976981D01*
X78761749Y-137927477D01*
X78756767Y-137925154D01*
X78756762Y-137925151D01*
X78721951Y-137908919D01*
X78668666Y-137862002D01*
X78649205Y-137793725D01*
X78669747Y-137725765D01*
X78721951Y-137680529D01*
X78756511Y-137664414D01*
X78766007Y-137658931D01*
X78944467Y-137533972D01*
X78952875Y-137526916D01*
X79106916Y-137372875D01*
X79113972Y-137364467D01*
X79238931Y-137186007D01*
X79244414Y-137176511D01*
X79336490Y-136979053D01*
X79340236Y-136968761D01*
X79386394Y-136796497D01*
X79386058Y-136782401D01*
X79378116Y-136779000D01*
X76837033Y-136779000D01*
X76823502Y-136782973D01*
X76822273Y-136791522D01*
X76869764Y-136968761D01*
X76873510Y-136979053D01*
X76965586Y-137176511D01*
X76971069Y-137186007D01*
X77096028Y-137364467D01*
X77103084Y-137372875D01*
X77257125Y-137526916D01*
X77265533Y-137533972D01*
X77443993Y-137658931D01*
X77453489Y-137664414D01*
X77488049Y-137680529D01*
X77541334Y-137727446D01*
X77560795Y-137795723D01*
X77540253Y-137863683D01*
X77488049Y-137908919D01*
X77453238Y-137925151D01*
X77453233Y-137925154D01*
X77448251Y-137927477D01*
X77377552Y-137976981D01*
X77265211Y-138055643D01*
X77265208Y-138055645D01*
X77260700Y-138058802D01*
X77098802Y-138220700D01*
X77095645Y-138225208D01*
X77095643Y-138225211D01*
X77061563Y-138273882D01*
X76967477Y-138408251D01*
X76965154Y-138413233D01*
X76965151Y-138413238D01*
X76913900Y-138523148D01*
X76870716Y-138615757D01*
X76869294Y-138621065D01*
X76869293Y-138621067D01*
X76845948Y-138708192D01*
X76811457Y-138836913D01*
X76791502Y-139065000D01*
X74803000Y-139065000D01*
X74803000Y-133985000D01*
X76791502Y-133985000D01*
X76811457Y-134213087D01*
X76812881Y-134218400D01*
X76812881Y-134218402D01*
X76863791Y-134408397D01*
X76870716Y-134434243D01*
X76873039Y-134439224D01*
X76873039Y-134439225D01*
X76965151Y-134636762D01*
X76965154Y-134636767D01*
X76967477Y-134641749D01*
X77040902Y-134746611D01*
X77088531Y-134814631D01*
X77098802Y-134829300D01*
X77260700Y-134991198D01*
X77265208Y-134994355D01*
X77265211Y-134994357D01*
X77272352Y-134999357D01*
X77448251Y-135122523D01*
X77453233Y-135124846D01*
X77453238Y-135124849D01*
X77488049Y-135141081D01*
X77541334Y-135187998D01*
X77560795Y-135256275D01*
X77540253Y-135324235D01*
X77488049Y-135369471D01*
X77453489Y-135385586D01*
X77443993Y-135391069D01*
X77265533Y-135516028D01*
X77257125Y-135523084D01*
X77103084Y-135677125D01*
X77096028Y-135685533D01*
X76971069Y-135863993D01*
X76965586Y-135873489D01*
X76873510Y-136070947D01*
X76869764Y-136081239D01*
X76823606Y-136253503D01*
X76823942Y-136267599D01*
X76831884Y-136271000D01*
X79372967Y-136271000D01*
X79386498Y-136267027D01*
X79387727Y-136258478D01*
X79340236Y-136081239D01*
X79336490Y-136070947D01*
X79244414Y-135873489D01*
X79238931Y-135863993D01*
X79113972Y-135685533D01*
X79106916Y-135677125D01*
X78952875Y-135523084D01*
X78944467Y-135516028D01*
X78766007Y-135391069D01*
X78756511Y-135385586D01*
X78721951Y-135369471D01*
X78668666Y-135322554D01*
X78649205Y-135254277D01*
X78669747Y-135186317D01*
X78721951Y-135141081D01*
X78756762Y-135124849D01*
X78756767Y-135124846D01*
X78761749Y-135122523D01*
X78937648Y-134999357D01*
X78944789Y-134994357D01*
X78944792Y-134994355D01*
X78949300Y-134991198D01*
X79111198Y-134829300D01*
X79121470Y-134814631D01*
X79169098Y-134746611D01*
X79242523Y-134641749D01*
X79244846Y-134636767D01*
X79244849Y-134636762D01*
X79336961Y-134439225D01*
X79336961Y-134439224D01*
X79339284Y-134434243D01*
X79346210Y-134408397D01*
X79397119Y-134218402D01*
X79397119Y-134218400D01*
X79398543Y-134213087D01*
X79418498Y-133985000D01*
X79398543Y-133756913D01*
X79382970Y-133698795D01*
X79340707Y-133541067D01*
X79340706Y-133541065D01*
X79339284Y-133535757D01*
X79312028Y-133477306D01*
X79244849Y-133333238D01*
X79244846Y-133333233D01*
X79242523Y-133328251D01*
X79129358Y-133166635D01*
X79114357Y-133145211D01*
X79114355Y-133145208D01*
X79111198Y-133140700D01*
X78949300Y-132978802D01*
X78944792Y-132975645D01*
X78944789Y-132975643D01*
X78838272Y-132901059D01*
X78761749Y-132847477D01*
X78756767Y-132845154D01*
X78756762Y-132845151D01*
X78722543Y-132829195D01*
X78669258Y-132782278D01*
X78649797Y-132714001D01*
X78670339Y-132646041D01*
X78722543Y-132600805D01*
X78756762Y-132584849D01*
X78756767Y-132584846D01*
X78761749Y-132582523D01*
X78913469Y-132476287D01*
X78985740Y-132453500D01*
X81445075Y-132453500D01*
X81513196Y-132473502D01*
X81534170Y-132490405D01*
X90683145Y-141639379D01*
X90692247Y-141649522D01*
X90715968Y-141679025D01*
X90720696Y-141682992D01*
X90754421Y-141711291D01*
X90758069Y-141714472D01*
X90759881Y-141716115D01*
X90762075Y-141718309D01*
X90795349Y-141745642D01*
X90796147Y-141746304D01*
X90867474Y-141806154D01*
X90872144Y-141808722D01*
X90876261Y-141812103D01*
X90934145Y-141843140D01*
X90958086Y-141855977D01*
X90959245Y-141856606D01*
X91035381Y-141898462D01*
X91035389Y-141898465D01*
X91040787Y-141901433D01*
X91045869Y-141903045D01*
X91050563Y-141905562D01*
X91139531Y-141932762D01*
X91140559Y-141933082D01*
X91229306Y-141961235D01*
X91234602Y-141961829D01*
X91239698Y-141963387D01*
X91332257Y-141972790D01*
X91333393Y-141972911D01*
X91367008Y-141976681D01*
X91379730Y-141978108D01*
X91379734Y-141978108D01*
X91383227Y-141978500D01*
X91386754Y-141978500D01*
X91387739Y-141978555D01*
X91393419Y-141979002D01*
X91422825Y-141981989D01*
X91430337Y-141982752D01*
X91430339Y-141982752D01*
X91436462Y-141983374D01*
X91482108Y-141979059D01*
X91493967Y-141978500D01*
X94778157Y-141978500D01*
X94791764Y-141979237D01*
X94823262Y-141982659D01*
X94823267Y-141982659D01*
X94829388Y-141983324D01*
X94855638Y-141981027D01*
X94879388Y-141978950D01*
X94884214Y-141978621D01*
X94886686Y-141978500D01*
X94889769Y-141978500D01*
X94901738Y-141977326D01*
X94932506Y-141974310D01*
X94933819Y-141974188D01*
X94978084Y-141970315D01*
X95026413Y-141966087D01*
X95031532Y-141964600D01*
X95036833Y-141964080D01*
X95065739Y-141955353D01*
X95136729Y-141954812D01*
X95196746Y-141992739D01*
X95226078Y-142053754D01*
X95226457Y-142058087D01*
X95233369Y-142083882D01*
X95243460Y-142121541D01*
X95241770Y-142192518D01*
X95210848Y-142243247D01*
X94257423Y-143196672D01*
X94195111Y-143230698D01*
X94124296Y-143225633D01*
X94090236Y-143206459D01*
X94051422Y-143175806D01*
X94051413Y-143175800D01*
X94047359Y-143172598D01*
X94042835Y-143170100D01*
X94042831Y-143170098D01*
X93925133Y-143105126D01*
X93851789Y-143064638D01*
X93846920Y-143062914D01*
X93846916Y-143062912D01*
X93646087Y-142991795D01*
X93646083Y-142991794D01*
X93641212Y-142990069D01*
X93636119Y-142989162D01*
X93636116Y-142989161D01*
X93426373Y-142951800D01*
X93426367Y-142951799D01*
X93421284Y-142950894D01*
X93347452Y-142949992D01*
X93203081Y-142948228D01*
X93203079Y-142948228D01*
X93197911Y-142948165D01*
X92977091Y-142981955D01*
X92764756Y-143051357D01*
X92694919Y-143087712D01*
X92596104Y-143139152D01*
X92566607Y-143154507D01*
X92562474Y-143157610D01*
X92562471Y-143157612D01*
X92404906Y-143275915D01*
X92387965Y-143288635D01*
X92233629Y-143450138D01*
X92230715Y-143454410D01*
X92230714Y-143454411D01*
X92118095Y-143619504D01*
X92063184Y-143664507D01*
X92014007Y-143674500D01*
X88069805Y-143674500D01*
X88001684Y-143654498D01*
X87964013Y-143616940D01*
X87875822Y-143480617D01*
X87875820Y-143480614D01*
X87873014Y-143476277D01*
X87722670Y-143311051D01*
X87718619Y-143307852D01*
X87718615Y-143307848D01*
X87551414Y-143175800D01*
X87551410Y-143175798D01*
X87547359Y-143172598D01*
X87542831Y-143170098D01*
X87459363Y-143124022D01*
X87351789Y-143064638D01*
X87346920Y-143062914D01*
X87346916Y-143062912D01*
X87146087Y-142991795D01*
X87146083Y-142991794D01*
X87141212Y-142990069D01*
X87136119Y-142989162D01*
X87136116Y-142989161D01*
X86926373Y-142951800D01*
X86926367Y-142951799D01*
X86921284Y-142950894D01*
X86847452Y-142949992D01*
X86703081Y-142948228D01*
X86703079Y-142948228D01*
X86697911Y-142948165D01*
X86477091Y-142981955D01*
X86464532Y-142986060D01*
X86393568Y-142988210D01*
X86336294Y-142955389D01*
X85245375Y-141864470D01*
X85211349Y-141802158D01*
X85212763Y-141742764D01*
X85239119Y-141644402D01*
X85239119Y-141644400D01*
X85240543Y-141639087D01*
X85260498Y-141411000D01*
X85240543Y-141182913D01*
X85234606Y-141160757D01*
X85182707Y-140967067D01*
X85182706Y-140967065D01*
X85181284Y-140961757D01*
X85175216Y-140948743D01*
X85086849Y-140759238D01*
X85086846Y-140759233D01*
X85084523Y-140754251D01*
X84976965Y-140600643D01*
X84956357Y-140571211D01*
X84956355Y-140571208D01*
X84953198Y-140566700D01*
X84791300Y-140404802D01*
X84786792Y-140401645D01*
X84786789Y-140401643D01*
X84697327Y-140339001D01*
X84603749Y-140273477D01*
X84598767Y-140271154D01*
X84598762Y-140271151D01*
X84401225Y-140179039D01*
X84401224Y-140179039D01*
X84396243Y-140176716D01*
X84390935Y-140175294D01*
X84390933Y-140175293D01*
X84180402Y-140118881D01*
X84180400Y-140118881D01*
X84175087Y-140117457D01*
X83947000Y-140097502D01*
X83718913Y-140117457D01*
X83713600Y-140118881D01*
X83713598Y-140118881D01*
X83503067Y-140175293D01*
X83503065Y-140175294D01*
X83497757Y-140176716D01*
X83492776Y-140179039D01*
X83492775Y-140179039D01*
X83295238Y-140271151D01*
X83295233Y-140271154D01*
X83290251Y-140273477D01*
X83196673Y-140339001D01*
X83107211Y-140401643D01*
X83107208Y-140401645D01*
X83102700Y-140404802D01*
X82940802Y-140566700D01*
X82937645Y-140571208D01*
X82937643Y-140571211D01*
X82917035Y-140600643D01*
X82809477Y-140754251D01*
X82807154Y-140759233D01*
X82807151Y-140759238D01*
X82718784Y-140948743D01*
X82712716Y-140961757D01*
X82711294Y-140967065D01*
X82711293Y-140967067D01*
X82659394Y-141160757D01*
X82653457Y-141182913D01*
X82633502Y-141411000D01*
X82653457Y-141639087D01*
X82654881Y-141644400D01*
X82654881Y-141644402D01*
X82699675Y-141811572D01*
X82712716Y-141860243D01*
X82715039Y-141865224D01*
X82715039Y-141865225D01*
X82807151Y-142062762D01*
X82807154Y-142062767D01*
X82809477Y-142067749D01*
X82823491Y-142087763D01*
X82933119Y-142244327D01*
X82940802Y-142255300D01*
X83102700Y-142417198D01*
X83107208Y-142420355D01*
X83107211Y-142420357D01*
X83155687Y-142454300D01*
X83290251Y-142548523D01*
X83295233Y-142550846D01*
X83295238Y-142550849D01*
X83427024Y-142612301D01*
X83497757Y-142645284D01*
X83503065Y-142646706D01*
X83503067Y-142646707D01*
X83713598Y-142703119D01*
X83713600Y-142703119D01*
X83718913Y-142704543D01*
X83947000Y-142724498D01*
X84175087Y-142704543D01*
X84181796Y-142702745D01*
X84198321Y-142698318D01*
X84269298Y-142700008D01*
X84320026Y-142730930D01*
X85442777Y-143853682D01*
X85476803Y-143915994D01*
X85475100Y-143976446D01*
X85453989Y-144052570D01*
X85430251Y-144274695D01*
X85430548Y-144279848D01*
X85430548Y-144279851D01*
X85436212Y-144378087D01*
X85443110Y-144497715D01*
X85444247Y-144502761D01*
X85444248Y-144502767D01*
X85464794Y-144593933D01*
X85492222Y-144715639D01*
X85529218Y-144806749D01*
X85563559Y-144891321D01*
X85576266Y-144922616D01*
X85578965Y-144927020D01*
X85690291Y-145108688D01*
X85692987Y-145113088D01*
X85839250Y-145281938D01*
X86011126Y-145424632D01*
X86204000Y-145537338D01*
X86412692Y-145617030D01*
X86417760Y-145618061D01*
X86417763Y-145618062D01*
X86513516Y-145637543D01*
X86631597Y-145661567D01*
X86636772Y-145661757D01*
X86636774Y-145661757D01*
X86849673Y-145669564D01*
X86849677Y-145669564D01*
X86854837Y-145669753D01*
X86859957Y-145669097D01*
X86859959Y-145669097D01*
X87071288Y-145642025D01*
X87071289Y-145642025D01*
X87076416Y-145641368D01*
X87081366Y-145639883D01*
X87285429Y-145578661D01*
X87285434Y-145578659D01*
X87290384Y-145577174D01*
X87490994Y-145478896D01*
X87672860Y-145349173D01*
X87681851Y-145340214D01*
X87764539Y-145257814D01*
X87831096Y-145191489D01*
X87890594Y-145108689D01*
X87958435Y-145014277D01*
X87961453Y-145010077D01*
X87963746Y-145005437D01*
X87965446Y-145002608D01*
X88017674Y-144954518D01*
X88073451Y-144941500D01*
X92017274Y-144941500D01*
X92085395Y-144961502D01*
X92124707Y-145001665D01*
X92192987Y-145113088D01*
X92339250Y-145281938D01*
X92511126Y-145424632D01*
X92704000Y-145537338D01*
X92912692Y-145617030D01*
X92917760Y-145618061D01*
X92917763Y-145618062D01*
X93013516Y-145637543D01*
X93131597Y-145661567D01*
X93136772Y-145661757D01*
X93136774Y-145661757D01*
X93349673Y-145669564D01*
X93349677Y-145669564D01*
X93354837Y-145669753D01*
X93359957Y-145669097D01*
X93359959Y-145669097D01*
X93571288Y-145642025D01*
X93571289Y-145642025D01*
X93576416Y-145641368D01*
X93581366Y-145639883D01*
X93785429Y-145578661D01*
X93785434Y-145578659D01*
X93790384Y-145577174D01*
X93990994Y-145478896D01*
X94172860Y-145349173D01*
X94181851Y-145340214D01*
X94264539Y-145257814D01*
X94331096Y-145191489D01*
X94390594Y-145108689D01*
X94458435Y-145014277D01*
X94461453Y-145010077D01*
X94465145Y-145002608D01*
X94558136Y-144814453D01*
X94558137Y-144814451D01*
X94560430Y-144809811D01*
X94605527Y-144661380D01*
X94636990Y-144608914D01*
X96106752Y-143139152D01*
X96169064Y-143105126D01*
X96228459Y-143106541D01*
X96286591Y-143122118D01*
X96286602Y-143122120D01*
X96291913Y-143123543D01*
X96520000Y-143143498D01*
X96748087Y-143123543D01*
X96753400Y-143122119D01*
X96753402Y-143122119D01*
X96963933Y-143065707D01*
X96963935Y-143065706D01*
X96969243Y-143064284D01*
X96974225Y-143061961D01*
X97171762Y-142969849D01*
X97171767Y-142969846D01*
X97176749Y-142967523D01*
X97284195Y-142892288D01*
X97359789Y-142839357D01*
X97359792Y-142839355D01*
X97364300Y-142836198D01*
X97526198Y-142674300D01*
X97546516Y-142645284D01*
X97584098Y-142591611D01*
X97657523Y-142486749D01*
X97659846Y-142481767D01*
X97659849Y-142481762D01*
X97751961Y-142284225D01*
X97751961Y-142284224D01*
X97754284Y-142279243D01*
X97759656Y-142259197D01*
X97812119Y-142063402D01*
X97812120Y-142063399D01*
X97813543Y-142058087D01*
X97833498Y-141830000D01*
X98381502Y-141830000D01*
X98401457Y-142058087D01*
X98402880Y-142063399D01*
X98402881Y-142063402D01*
X98455345Y-142259197D01*
X98460716Y-142279243D01*
X98463039Y-142284224D01*
X98463039Y-142284225D01*
X98555151Y-142481762D01*
X98555154Y-142481767D01*
X98557477Y-142486749D01*
X98630902Y-142591611D01*
X98668485Y-142645284D01*
X98688802Y-142674300D01*
X98850700Y-142836198D01*
X98855208Y-142839355D01*
X98855211Y-142839357D01*
X98930805Y-142892288D01*
X99038251Y-142967523D01*
X99043233Y-142969846D01*
X99043238Y-142969849D01*
X99240775Y-143061961D01*
X99245757Y-143064284D01*
X99251065Y-143065706D01*
X99251067Y-143065707D01*
X99461598Y-143122119D01*
X99461600Y-143122119D01*
X99466913Y-143123543D01*
X99695000Y-143143498D01*
X99923087Y-143123543D01*
X99928400Y-143122119D01*
X99928402Y-143122119D01*
X100138933Y-143065707D01*
X100138935Y-143065706D01*
X100144243Y-143064284D01*
X100149225Y-143061961D01*
X100346762Y-142969849D01*
X100346767Y-142969846D01*
X100351749Y-142967523D01*
X100459195Y-142892288D01*
X100534789Y-142839357D01*
X100534792Y-142839355D01*
X100539300Y-142836198D01*
X100701198Y-142674300D01*
X100721516Y-142645284D01*
X100759098Y-142591611D01*
X100832523Y-142486749D01*
X100834846Y-142481767D01*
X100834849Y-142481762D01*
X100926961Y-142284225D01*
X100926961Y-142284224D01*
X100929284Y-142279243D01*
X100934656Y-142259197D01*
X100987119Y-142063402D01*
X100987120Y-142063399D01*
X100988543Y-142058087D01*
X101008498Y-141830000D01*
X100988543Y-141601913D01*
X100929284Y-141380757D01*
X100839584Y-141188393D01*
X100834849Y-141178238D01*
X100834846Y-141178233D01*
X100832523Y-141173251D01*
X100701198Y-140985700D01*
X100539300Y-140823802D01*
X100534792Y-140820645D01*
X100534789Y-140820643D01*
X100456322Y-140765700D01*
X100351749Y-140692477D01*
X100346767Y-140690154D01*
X100346762Y-140690151D01*
X100312543Y-140674195D01*
X100259258Y-140627278D01*
X100239797Y-140559001D01*
X100260339Y-140491041D01*
X100312543Y-140445805D01*
X100346762Y-140429849D01*
X100346767Y-140429846D01*
X100351749Y-140427523D01*
X100475318Y-140340999D01*
X100534789Y-140299357D01*
X100534792Y-140299355D01*
X100539300Y-140296198D01*
X100701198Y-140134300D01*
X100726965Y-140097502D01*
X100759098Y-140051611D01*
X100832523Y-139946749D01*
X100834846Y-139941767D01*
X100834849Y-139941762D01*
X100926961Y-139744225D01*
X100926961Y-139744224D01*
X100929284Y-139739243D01*
X100931690Y-139730266D01*
X100987119Y-139523402D01*
X100987119Y-139523400D01*
X100988543Y-139518087D01*
X101008498Y-139290000D01*
X100988543Y-139061913D01*
X100929284Y-138840757D01*
X100872538Y-138719064D01*
X100834849Y-138638238D01*
X100834846Y-138638233D01*
X100832523Y-138633251D01*
X100701198Y-138445700D01*
X100539300Y-138283802D01*
X100534792Y-138280645D01*
X100534789Y-138280643D01*
X100451269Y-138222162D01*
X100351749Y-138152477D01*
X100346767Y-138150154D01*
X100346762Y-138150151D01*
X100149225Y-138058039D01*
X100149224Y-138058039D01*
X100144243Y-138055716D01*
X100138935Y-138054294D01*
X100138933Y-138054293D01*
X99928402Y-137997881D01*
X99928400Y-137997881D01*
X99923087Y-137996457D01*
X99695000Y-137976502D01*
X99466913Y-137996457D01*
X99461600Y-137997881D01*
X99461598Y-137997881D01*
X99251067Y-138054293D01*
X99251065Y-138054294D01*
X99245757Y-138055716D01*
X99240776Y-138058039D01*
X99240775Y-138058039D01*
X99043238Y-138150151D01*
X99043233Y-138150154D01*
X99038251Y-138152477D01*
X98938731Y-138222162D01*
X98855211Y-138280643D01*
X98855208Y-138280645D01*
X98850700Y-138283802D01*
X98688802Y-138445700D01*
X98557477Y-138633251D01*
X98555154Y-138638233D01*
X98555151Y-138638238D01*
X98517462Y-138719064D01*
X98460716Y-138840757D01*
X98401457Y-139061913D01*
X98381502Y-139290000D01*
X98401457Y-139518087D01*
X98402881Y-139523400D01*
X98402881Y-139523402D01*
X98458311Y-139730266D01*
X98460716Y-139739243D01*
X98463039Y-139744224D01*
X98463039Y-139744225D01*
X98555151Y-139941762D01*
X98555154Y-139941767D01*
X98557477Y-139946749D01*
X98630902Y-140051611D01*
X98663036Y-140097502D01*
X98688802Y-140134300D01*
X98850700Y-140296198D01*
X98855208Y-140299355D01*
X98855211Y-140299357D01*
X98914682Y-140340999D01*
X99038251Y-140427523D01*
X99043233Y-140429846D01*
X99043238Y-140429849D01*
X99077457Y-140445805D01*
X99130742Y-140492722D01*
X99150203Y-140560999D01*
X99129661Y-140628959D01*
X99077457Y-140674195D01*
X99043238Y-140690151D01*
X99043233Y-140690154D01*
X99038251Y-140692477D01*
X98933678Y-140765700D01*
X98855211Y-140820643D01*
X98855208Y-140820645D01*
X98850700Y-140823802D01*
X98688802Y-140985700D01*
X98557477Y-141173251D01*
X98555154Y-141178233D01*
X98555151Y-141178238D01*
X98550416Y-141188393D01*
X98460716Y-141380757D01*
X98401457Y-141601913D01*
X98381502Y-141830000D01*
X97833498Y-141830000D01*
X97813543Y-141601913D01*
X97754284Y-141380757D01*
X97664584Y-141188393D01*
X97659849Y-141178238D01*
X97659846Y-141178233D01*
X97657523Y-141173251D01*
X97526198Y-140985700D01*
X97364300Y-140823802D01*
X97359792Y-140820645D01*
X97359789Y-140820643D01*
X97281322Y-140765700D01*
X97176749Y-140692477D01*
X97171767Y-140690154D01*
X97171762Y-140690151D01*
X97137543Y-140674195D01*
X97084258Y-140627278D01*
X97064797Y-140559001D01*
X97085339Y-140491041D01*
X97137543Y-140445805D01*
X97171762Y-140429849D01*
X97171767Y-140429846D01*
X97176749Y-140427523D01*
X97300318Y-140340999D01*
X97359789Y-140299357D01*
X97359792Y-140299355D01*
X97364300Y-140296198D01*
X97526198Y-140134300D01*
X97551965Y-140097502D01*
X97584098Y-140051611D01*
X97657523Y-139946749D01*
X97659846Y-139941767D01*
X97659849Y-139941762D01*
X97751961Y-139744225D01*
X97751961Y-139744224D01*
X97754284Y-139739243D01*
X97756690Y-139730266D01*
X97812119Y-139523402D01*
X97812119Y-139523400D01*
X97813543Y-139518087D01*
X97833498Y-139290000D01*
X97813543Y-139061913D01*
X97754284Y-138840757D01*
X97697538Y-138719064D01*
X97659849Y-138638238D01*
X97659846Y-138638233D01*
X97657523Y-138633251D01*
X97526198Y-138445700D01*
X97364300Y-138283802D01*
X97359792Y-138280645D01*
X97359789Y-138280643D01*
X97276269Y-138222162D01*
X97176749Y-138152477D01*
X97171767Y-138150154D01*
X97171762Y-138150151D01*
X96974225Y-138058039D01*
X96974224Y-138058039D01*
X96969243Y-138055716D01*
X96963935Y-138054294D01*
X96963933Y-138054293D01*
X96753402Y-137997881D01*
X96753400Y-137997881D01*
X96748087Y-137996457D01*
X96520000Y-137976502D01*
X96291913Y-137996457D01*
X96286600Y-137997881D01*
X96286598Y-137997881D01*
X96076067Y-138054293D01*
X96076065Y-138054294D01*
X96070757Y-138055716D01*
X96065776Y-138058039D01*
X96065775Y-138058039D01*
X95868238Y-138150151D01*
X95868233Y-138150154D01*
X95863251Y-138152477D01*
X95763731Y-138222162D01*
X95680211Y-138280643D01*
X95680208Y-138280645D01*
X95675700Y-138283802D01*
X95513802Y-138445700D01*
X95382477Y-138633251D01*
X95380154Y-138638233D01*
X95380151Y-138638238D01*
X95342462Y-138719064D01*
X95285716Y-138840757D01*
X95226457Y-139061913D01*
X95225708Y-139070475D01*
X95221308Y-139120770D01*
X95195445Y-139186888D01*
X95184882Y-139198884D01*
X94868595Y-139515171D01*
X94806283Y-139549197D01*
X94735468Y-139544132D01*
X94678632Y-139501585D01*
X94653821Y-139435065D01*
X94653500Y-139426076D01*
X94653500Y-138216866D01*
X94646745Y-138154684D01*
X94595615Y-138018295D01*
X94508261Y-137901739D01*
X94391705Y-137814385D01*
X94255316Y-137763255D01*
X94244526Y-137762083D01*
X94242394Y-137761197D01*
X94239778Y-137760575D01*
X94239879Y-137760152D01*
X94178965Y-137734845D01*
X94138537Y-137676483D01*
X94136078Y-137605529D01*
X94172371Y-137544510D01*
X94181035Y-137537507D01*
X94184790Y-137534356D01*
X94189300Y-137531198D01*
X94351198Y-137369300D01*
X94366641Y-137347246D01*
X94409098Y-137286611D01*
X94482523Y-137181749D01*
X94484846Y-137176767D01*
X94484849Y-137176762D01*
X94576961Y-136979225D01*
X94576961Y-136979224D01*
X94579284Y-136974243D01*
X94586210Y-136948397D01*
X94637119Y-136758402D01*
X94637119Y-136758400D01*
X94638543Y-136753087D01*
X94658498Y-136525000D01*
X94638543Y-136296913D01*
X94624020Y-136242714D01*
X94580707Y-136081067D01*
X94580706Y-136081065D01*
X94579284Y-136075757D01*
X94565192Y-136045536D01*
X94484849Y-135873238D01*
X94484846Y-135873233D01*
X94482523Y-135868251D01*
X94388437Y-135733882D01*
X94354357Y-135685211D01*
X94354355Y-135685208D01*
X94351198Y-135680700D01*
X94189300Y-135518802D01*
X94184792Y-135515645D01*
X94184789Y-135515643D01*
X94078272Y-135441059D01*
X94001749Y-135387477D01*
X93996767Y-135385154D01*
X93996762Y-135385151D01*
X93962543Y-135369195D01*
X93909258Y-135322278D01*
X93889797Y-135254001D01*
X93910339Y-135186041D01*
X93962543Y-135140805D01*
X93996762Y-135124849D01*
X93996767Y-135124846D01*
X94001749Y-135122523D01*
X94177648Y-134999357D01*
X94184789Y-134994357D01*
X94184792Y-134994355D01*
X94189300Y-134991198D01*
X94351198Y-134829300D01*
X94361470Y-134814631D01*
X94409098Y-134746611D01*
X94482523Y-134641749D01*
X94484846Y-134636767D01*
X94484849Y-134636762D01*
X94576961Y-134439225D01*
X94576961Y-134439224D01*
X94579284Y-134434243D01*
X94586210Y-134408397D01*
X94637119Y-134218402D01*
X94637119Y-134218400D01*
X94638543Y-134213087D01*
X94658498Y-133985000D01*
X94638543Y-133756913D01*
X94622970Y-133698795D01*
X94580707Y-133541067D01*
X94580706Y-133541065D01*
X94579284Y-133535757D01*
X94552028Y-133477306D01*
X94484849Y-133333238D01*
X94484846Y-133333233D01*
X94482523Y-133328251D01*
X94369358Y-133166635D01*
X94354357Y-133145211D01*
X94354355Y-133145208D01*
X94351198Y-133140700D01*
X94189300Y-132978802D01*
X94184792Y-132975645D01*
X94184789Y-132975643D01*
X94078272Y-132901059D01*
X94001749Y-132847477D01*
X93996767Y-132845154D01*
X93996762Y-132845151D01*
X93961951Y-132828919D01*
X93908666Y-132782002D01*
X93889205Y-132713725D01*
X93909747Y-132645765D01*
X93961951Y-132600529D01*
X93996511Y-132584414D01*
X94006007Y-132578931D01*
X94184467Y-132453972D01*
X94192875Y-132446916D01*
X94346916Y-132292875D01*
X94353972Y-132284467D01*
X94478931Y-132106007D01*
X94484414Y-132096511D01*
X94573359Y-131905767D01*
X94620276Y-131852482D01*
X94688554Y-131833021D01*
X94756514Y-131853563D01*
X94773806Y-131867166D01*
X94812650Y-131903642D01*
X94815493Y-131906398D01*
X94835230Y-131926135D01*
X94838427Y-131928615D01*
X94847447Y-131936318D01*
X94879679Y-131966586D01*
X94886625Y-131970405D01*
X94886628Y-131970407D01*
X94897434Y-131976348D01*
X94913953Y-131987199D01*
X94929959Y-131999614D01*
X94937228Y-132002759D01*
X94937232Y-132002762D01*
X94970537Y-132017174D01*
X94981187Y-132022391D01*
X95019940Y-132043695D01*
X95027615Y-132045666D01*
X95027616Y-132045666D01*
X95039562Y-132048733D01*
X95058267Y-132055137D01*
X95076855Y-132063181D01*
X95084678Y-132064420D01*
X95084688Y-132064423D01*
X95120524Y-132070099D01*
X95132144Y-132072505D01*
X95167289Y-132081528D01*
X95174970Y-132083500D01*
X95195224Y-132083500D01*
X95214934Y-132085051D01*
X95234943Y-132088220D01*
X95242835Y-132087474D01*
X95278961Y-132084059D01*
X95290819Y-132083500D01*
X103550606Y-132083500D01*
X103618727Y-132103502D01*
X103653819Y-132137229D01*
X103757142Y-132284789D01*
X103763802Y-132294300D01*
X103925700Y-132456198D01*
X103930208Y-132459355D01*
X103930211Y-132459357D01*
X104008389Y-132514098D01*
X104113251Y-132587523D01*
X104118233Y-132589846D01*
X104118238Y-132589849D01*
X104152457Y-132605805D01*
X104205742Y-132652722D01*
X104225203Y-132720999D01*
X104204661Y-132788959D01*
X104152457Y-132834195D01*
X104118238Y-132850151D01*
X104118233Y-132850154D01*
X104113251Y-132852477D01*
X104050207Y-132896621D01*
X103930211Y-132980643D01*
X103930208Y-132980645D01*
X103925700Y-132983802D01*
X103763802Y-133145700D01*
X103760645Y-133150208D01*
X103760643Y-133150211D01*
X103749143Y-133166635D01*
X103632477Y-133333251D01*
X103630154Y-133338233D01*
X103630151Y-133338238D01*
X103538039Y-133535775D01*
X103535716Y-133540757D01*
X103534294Y-133546065D01*
X103534293Y-133546067D01*
X103491516Y-133705713D01*
X103476457Y-133761913D01*
X103456502Y-133990000D01*
X103476457Y-134218087D01*
X103477881Y-134223400D01*
X103477881Y-134223402D01*
X103533259Y-134430072D01*
X103535716Y-134439243D01*
X103538039Y-134444224D01*
X103538039Y-134444225D01*
X103630151Y-134641762D01*
X103630154Y-134641767D01*
X103632477Y-134646749D01*
X103705902Y-134751611D01*
X103750030Y-134814631D01*
X103763802Y-134834300D01*
X103925700Y-134996198D01*
X103930208Y-134999355D01*
X103930211Y-134999357D01*
X104008389Y-135054098D01*
X104113251Y-135127523D01*
X104118233Y-135129846D01*
X104118238Y-135129849D01*
X104152457Y-135145805D01*
X104205742Y-135192722D01*
X104225203Y-135260999D01*
X104204661Y-135328959D01*
X104152457Y-135374195D01*
X104118238Y-135390151D01*
X104118233Y-135390154D01*
X104113251Y-135392477D01*
X104050207Y-135436621D01*
X103930211Y-135520643D01*
X103930208Y-135520645D01*
X103925700Y-135523802D01*
X103763802Y-135685700D01*
X103760645Y-135690208D01*
X103760643Y-135690211D01*
X103727347Y-135737763D01*
X103632477Y-135873251D01*
X103630154Y-135878233D01*
X103630151Y-135878238D01*
X103538039Y-136075775D01*
X103535716Y-136080757D01*
X103534294Y-136086065D01*
X103534293Y-136086067D01*
X103488095Y-136258478D01*
X103476457Y-136301913D01*
X103456502Y-136530000D01*
X103456981Y-136535475D01*
X103456981Y-136535485D01*
X103458026Y-136547428D01*
X103444038Y-136617033D01*
X103394639Y-136668026D01*
X103325514Y-136684217D01*
X103258608Y-136660465D01*
X103243411Y-136647506D01*
X102728652Y-136132747D01*
X102721112Y-136124461D01*
X102717000Y-136117982D01*
X102667348Y-136071356D01*
X102664507Y-136068602D01*
X102644770Y-136048865D01*
X102641573Y-136046385D01*
X102632551Y-136038680D01*
X102600321Y-136008414D01*
X102593375Y-136004595D01*
X102593372Y-136004593D01*
X102582566Y-135998652D01*
X102566047Y-135987801D01*
X102557669Y-135981303D01*
X102550041Y-135975386D01*
X102542772Y-135972241D01*
X102542768Y-135972238D01*
X102509463Y-135957826D01*
X102498813Y-135952609D01*
X102460060Y-135931305D01*
X102440437Y-135926267D01*
X102421734Y-135919863D01*
X102410420Y-135914967D01*
X102410419Y-135914967D01*
X102403145Y-135911819D01*
X102395322Y-135910580D01*
X102395312Y-135910577D01*
X102359476Y-135904901D01*
X102347856Y-135902495D01*
X102312711Y-135893472D01*
X102312710Y-135893472D01*
X102305030Y-135891500D01*
X102284776Y-135891500D01*
X102265065Y-135889949D01*
X102252886Y-135888020D01*
X102245057Y-135886780D01*
X102237165Y-135887526D01*
X102201039Y-135890941D01*
X102189181Y-135891500D01*
X99133200Y-135891500D01*
X99065079Y-135871498D01*
X99045853Y-135855157D01*
X99045580Y-135855460D01*
X99040668Y-135851037D01*
X99036253Y-135846134D01*
X98929727Y-135768738D01*
X98887094Y-135737763D01*
X98887093Y-135737762D01*
X98881752Y-135733882D01*
X98875724Y-135731198D01*
X98875722Y-135731197D01*
X98713319Y-135658891D01*
X98713318Y-135658891D01*
X98707288Y-135656206D01*
X98613888Y-135636353D01*
X98526944Y-135617872D01*
X98526939Y-135617872D01*
X98520487Y-135616500D01*
X98329513Y-135616500D01*
X98323061Y-135617872D01*
X98323056Y-135617872D01*
X98236112Y-135636353D01*
X98142712Y-135656206D01*
X98136682Y-135658891D01*
X98136681Y-135658891D01*
X97974278Y-135731197D01*
X97974276Y-135731198D01*
X97968248Y-135733882D01*
X97962907Y-135737762D01*
X97962906Y-135737763D01*
X97946204Y-135749898D01*
X97813747Y-135846134D01*
X97809326Y-135851044D01*
X97809325Y-135851045D01*
X97700203Y-135972238D01*
X97685960Y-135988056D01*
X97656732Y-136038680D01*
X97604883Y-136128486D01*
X97590473Y-136153444D01*
X97531458Y-136335072D01*
X97511496Y-136525000D01*
X97531458Y-136714928D01*
X97590473Y-136896556D01*
X97685960Y-137061944D01*
X97690378Y-137066851D01*
X97690379Y-137066852D01*
X97770923Y-137156305D01*
X97813747Y-137203866D01*
X97968248Y-137316118D01*
X97974276Y-137318802D01*
X97974278Y-137318803D01*
X98107680Y-137378197D01*
X98142712Y-137393794D01*
X98236113Y-137413647D01*
X98323056Y-137432128D01*
X98323061Y-137432128D01*
X98329513Y-137433500D01*
X98520487Y-137433500D01*
X98526939Y-137432128D01*
X98526944Y-137432128D01*
X98613887Y-137413647D01*
X98707288Y-137393794D01*
X98742320Y-137378197D01*
X98875722Y-137318803D01*
X98875724Y-137318802D01*
X98881752Y-137316118D01*
X99036253Y-137203866D01*
X99040668Y-137198963D01*
X99045580Y-137194540D01*
X99046705Y-137195789D01*
X99100014Y-137162949D01*
X99133200Y-137158500D01*
X101910406Y-137158500D01*
X101978527Y-137178502D01*
X101999501Y-137195405D01*
X103460848Y-138656752D01*
X103494874Y-138719064D01*
X103493459Y-138778459D01*
X103477882Y-138836591D01*
X103477881Y-138836598D01*
X103476457Y-138841913D01*
X103456502Y-139070000D01*
X103476457Y-139298087D01*
X103477881Y-139303400D01*
X103477881Y-139303402D01*
X103530985Y-139501585D01*
X103535716Y-139519243D01*
X103538039Y-139524224D01*
X103538039Y-139524225D01*
X103630151Y-139721762D01*
X103630154Y-139721767D01*
X103632477Y-139726749D01*
X103763802Y-139914300D01*
X103925700Y-140076198D01*
X103930208Y-140079355D01*
X103930211Y-140079357D01*
X103956125Y-140097502D01*
X104113251Y-140207523D01*
X104118233Y-140209846D01*
X104118238Y-140209849D01*
X104152457Y-140225805D01*
X104205742Y-140272722D01*
X104225203Y-140340999D01*
X104204661Y-140408959D01*
X104152457Y-140454195D01*
X104118238Y-140470151D01*
X104118233Y-140470154D01*
X104113251Y-140472477D01*
X104039263Y-140524284D01*
X103930211Y-140600643D01*
X103930208Y-140600645D01*
X103925700Y-140603802D01*
X103763802Y-140765700D01*
X103632477Y-140953251D01*
X103630154Y-140958233D01*
X103630151Y-140958238D01*
X103615242Y-140990211D01*
X103535716Y-141160757D01*
X103476457Y-141381913D01*
X103456502Y-141610000D01*
X103476457Y-141838087D01*
X103477881Y-141843400D01*
X103477881Y-141843402D01*
X103515230Y-141982787D01*
X103535716Y-142059243D01*
X103538039Y-142064224D01*
X103538039Y-142064225D01*
X103630151Y-142261762D01*
X103630154Y-142261767D01*
X103632477Y-142266749D01*
X103763802Y-142454300D01*
X103925700Y-142616198D01*
X103930208Y-142619355D01*
X103930211Y-142619357D01*
X103963921Y-142642961D01*
X104113251Y-142747523D01*
X104118233Y-142749846D01*
X104118238Y-142749849D01*
X104152457Y-142765805D01*
X104205742Y-142812722D01*
X104225203Y-142880999D01*
X104204661Y-142948959D01*
X104152457Y-142994195D01*
X104118238Y-143010151D01*
X104118233Y-143010154D01*
X104113251Y-143012477D01*
X104037231Y-143065707D01*
X103930211Y-143140643D01*
X103930208Y-143140645D01*
X103925700Y-143143802D01*
X103763802Y-143305700D01*
X103632477Y-143493251D01*
X103630154Y-143498233D01*
X103630151Y-143498238D01*
X103551868Y-143666118D01*
X103535716Y-143700757D01*
X103534294Y-143706065D01*
X103534293Y-143706067D01*
X103480817Y-143905641D01*
X103476457Y-143921913D01*
X103456502Y-144150000D01*
X103476457Y-144378087D01*
X103477880Y-144383399D01*
X103477881Y-144383402D01*
X103509375Y-144500936D01*
X103535716Y-144599243D01*
X103538039Y-144604224D01*
X103538039Y-144604225D01*
X103630151Y-144801762D01*
X103630154Y-144801767D01*
X103632477Y-144806749D01*
X103682407Y-144878056D01*
X103740837Y-144961502D01*
X103763802Y-144994300D01*
X103925700Y-145156198D01*
X103930208Y-145159355D01*
X103930211Y-145159357D01*
X103981310Y-145195137D01*
X104113251Y-145287523D01*
X104118233Y-145289846D01*
X104118238Y-145289849D01*
X104152457Y-145305805D01*
X104205742Y-145352722D01*
X104225203Y-145420999D01*
X104204661Y-145488959D01*
X104152457Y-145534195D01*
X104118238Y-145550151D01*
X104118233Y-145550154D01*
X104113251Y-145552477D01*
X104029378Y-145611206D01*
X103930211Y-145680643D01*
X103930208Y-145680645D01*
X103925700Y-145683802D01*
X103763802Y-145845700D01*
X103632477Y-146033251D01*
X103630154Y-146038233D01*
X103630151Y-146038238D01*
X103582519Y-146140386D01*
X103535716Y-146240757D01*
X103534294Y-146246065D01*
X103534293Y-146246067D01*
X103478530Y-146454176D01*
X103476457Y-146461913D01*
X103456502Y-146690000D01*
X103476457Y-146918087D01*
X103477881Y-146923400D01*
X103477881Y-146923402D01*
X103532847Y-147128534D01*
X103535716Y-147139243D01*
X103538039Y-147144224D01*
X103538039Y-147144225D01*
X103630151Y-147341762D01*
X103630154Y-147341767D01*
X103632477Y-147346749D01*
X103763802Y-147534300D01*
X103925700Y-147696198D01*
X103930208Y-147699355D01*
X103930211Y-147699357D01*
X104008389Y-147754098D01*
X104113251Y-147827523D01*
X104118233Y-147829846D01*
X104118238Y-147829849D01*
X104295670Y-147912586D01*
X104320757Y-147924284D01*
X104326065Y-147925706D01*
X104326067Y-147925707D01*
X104536598Y-147982119D01*
X104536600Y-147982119D01*
X104541913Y-147983543D01*
X104770000Y-148003498D01*
X104998087Y-147983543D01*
X105003400Y-147982119D01*
X105003402Y-147982119D01*
X105213933Y-147925707D01*
X105213935Y-147925706D01*
X105219243Y-147924284D01*
X105244330Y-147912586D01*
X105421762Y-147829849D01*
X105421767Y-147829846D01*
X105426749Y-147827523D01*
X105531611Y-147754098D01*
X105609789Y-147699357D01*
X105609792Y-147699355D01*
X105614300Y-147696198D01*
X105776198Y-147534300D01*
X105805621Y-147492280D01*
X105886181Y-147377229D01*
X105941638Y-147332901D01*
X105989394Y-147323500D01*
X118105106Y-147323500D01*
X118173227Y-147343502D01*
X118194201Y-147360405D01*
X119181043Y-148347247D01*
X119188587Y-148355537D01*
X119192700Y-148362018D01*
X119198477Y-148367443D01*
X119242367Y-148408658D01*
X119245209Y-148411413D01*
X119264930Y-148431134D01*
X119268125Y-148433612D01*
X119277147Y-148441318D01*
X119309379Y-148471586D01*
X119316328Y-148475406D01*
X119327132Y-148481346D01*
X119343656Y-148492199D01*
X119359659Y-148504613D01*
X119400243Y-148522176D01*
X119410873Y-148527383D01*
X119449640Y-148548695D01*
X119457317Y-148550666D01*
X119457322Y-148550668D01*
X119469258Y-148553732D01*
X119487966Y-148560137D01*
X119506555Y-148568181D01*
X119514383Y-148569421D01*
X119514390Y-148569423D01*
X119550224Y-148575099D01*
X119561844Y-148577505D01*
X119596989Y-148586528D01*
X119604670Y-148588500D01*
X119624924Y-148588500D01*
X119644634Y-148590051D01*
X119664643Y-148593220D01*
X119672535Y-148592474D01*
X119708661Y-148589059D01*
X119720519Y-148588500D01*
X152326800Y-148588500D01*
X152394921Y-148608502D01*
X152414147Y-148624843D01*
X152414420Y-148624540D01*
X152419332Y-148628963D01*
X152423747Y-148633866D01*
X152445329Y-148649546D01*
X152541122Y-148719144D01*
X152578248Y-148746118D01*
X152584276Y-148748802D01*
X152584278Y-148748803D01*
X152738755Y-148817580D01*
X152752712Y-148823794D01*
X152846112Y-148843647D01*
X152933056Y-148862128D01*
X152933061Y-148862128D01*
X152939513Y-148863500D01*
X153130487Y-148863500D01*
X153136939Y-148862128D01*
X153136944Y-148862128D01*
X153223888Y-148843647D01*
X153317288Y-148823794D01*
X153331245Y-148817580D01*
X153485722Y-148748803D01*
X153485724Y-148748802D01*
X153491752Y-148746118D01*
X153646253Y-148633866D01*
X153656360Y-148622641D01*
X153769621Y-148496852D01*
X153769622Y-148496851D01*
X153774040Y-148491944D01*
X153849053Y-148362018D01*
X153866223Y-148332279D01*
X153866224Y-148332278D01*
X153869527Y-148326556D01*
X153928542Y-148144928D01*
X153930042Y-148130662D01*
X153947814Y-147961565D01*
X153948504Y-147955000D01*
X153939354Y-147867939D01*
X153929232Y-147771635D01*
X153929232Y-147771633D01*
X153928542Y-147765072D01*
X153869527Y-147583444D01*
X153850341Y-147550212D01*
X153816893Y-147492280D01*
X153774040Y-147418056D01*
X153743362Y-147383984D01*
X153650675Y-147281045D01*
X153650674Y-147281044D01*
X153646253Y-147276134D01*
X153491752Y-147163882D01*
X153485724Y-147161198D01*
X153485722Y-147161197D01*
X153323319Y-147088891D01*
X153323318Y-147088891D01*
X153317288Y-147086206D01*
X153204721Y-147062279D01*
X153136944Y-147047872D01*
X153136939Y-147047872D01*
X153130487Y-147046500D01*
X152939513Y-147046500D01*
X152933061Y-147047872D01*
X152933056Y-147047872D01*
X152865279Y-147062279D01*
X152752712Y-147086206D01*
X152746682Y-147088891D01*
X152746681Y-147088891D01*
X152584278Y-147161197D01*
X152584276Y-147161198D01*
X152578248Y-147163882D01*
X152572907Y-147167762D01*
X152572906Y-147167763D01*
X152498333Y-147221944D01*
X152423747Y-147276134D01*
X152419332Y-147281037D01*
X152414420Y-147285460D01*
X152413295Y-147284211D01*
X152359986Y-147317051D01*
X152326800Y-147321500D01*
X151394800Y-147321500D01*
X151326679Y-147301498D01*
X151280186Y-147247842D01*
X151270082Y-147177568D01*
X151285681Y-147132500D01*
X151326223Y-147062279D01*
X151326224Y-147062278D01*
X151329527Y-147056556D01*
X151388542Y-146874928D01*
X151394557Y-146817703D01*
X158535743Y-146817703D01*
X158536302Y-146821947D01*
X158536302Y-146821951D01*
X158551712Y-146939000D01*
X158573268Y-147102734D01*
X158649129Y-147380036D01*
X158650813Y-147383984D01*
X158758517Y-147636490D01*
X158761923Y-147644476D01*
X158803009Y-147713126D01*
X158882138Y-147845340D01*
X158909561Y-147891161D01*
X159089313Y-148115528D01*
X159297851Y-148313423D01*
X159531317Y-148481186D01*
X159535112Y-148483195D01*
X159535113Y-148483196D01*
X159556869Y-148494715D01*
X159785392Y-148615712D01*
X159835000Y-148633866D01*
X159984243Y-148688481D01*
X160055373Y-148714511D01*
X160336264Y-148775755D01*
X160364841Y-148778004D01*
X160559282Y-148793307D01*
X160559291Y-148793307D01*
X160561739Y-148793500D01*
X160717271Y-148793500D01*
X160719407Y-148793354D01*
X160719418Y-148793354D01*
X160927548Y-148779165D01*
X160927554Y-148779164D01*
X160931825Y-148778873D01*
X160936020Y-148778004D01*
X160936022Y-148778004D01*
X161089994Y-148746118D01*
X161213342Y-148720574D01*
X161484343Y-148624607D01*
X161726244Y-148499753D01*
X161736005Y-148494715D01*
X161736006Y-148494715D01*
X161739812Y-148492750D01*
X161743313Y-148490289D01*
X161743317Y-148490287D01*
X161925825Y-148362018D01*
X161975023Y-148327441D01*
X162123383Y-148189576D01*
X162182479Y-148134661D01*
X162182481Y-148134658D01*
X162185622Y-148131740D01*
X162367713Y-147909268D01*
X162517927Y-147664142D01*
X162611345Y-147451331D01*
X162631757Y-147404830D01*
X162633483Y-147400898D01*
X162652853Y-147332901D01*
X162677082Y-147247842D01*
X162712244Y-147124406D01*
X162752751Y-146839784D01*
X162752845Y-146821951D01*
X162754235Y-146556583D01*
X162754235Y-146556576D01*
X162754257Y-146552297D01*
X162716732Y-146267266D01*
X162706410Y-146229533D01*
X162676572Y-146120467D01*
X162640871Y-145989964D01*
X162577675Y-145841803D01*
X162529763Y-145729476D01*
X162529761Y-145729472D01*
X162528077Y-145725524D01*
X162426400Y-145555634D01*
X162382643Y-145482521D01*
X162382640Y-145482517D01*
X162380439Y-145478839D01*
X162200687Y-145254472D01*
X161992149Y-145056577D01*
X161758683Y-144888814D01*
X161736843Y-144877250D01*
X161713654Y-144864972D01*
X161504608Y-144754288D01*
X161234627Y-144655489D01*
X160953736Y-144594245D01*
X160922685Y-144591801D01*
X160730718Y-144576693D01*
X160730709Y-144576693D01*
X160728261Y-144576500D01*
X160572729Y-144576500D01*
X160570593Y-144576646D01*
X160570582Y-144576646D01*
X160362452Y-144590835D01*
X160362446Y-144590836D01*
X160358175Y-144591127D01*
X160353980Y-144591996D01*
X160353978Y-144591996D01*
X160292121Y-144604806D01*
X160076658Y-144649426D01*
X159805657Y-144745393D01*
X159801848Y-144747359D01*
X159558136Y-144873148D01*
X159550188Y-144877250D01*
X159546687Y-144879711D01*
X159546683Y-144879713D01*
X159479372Y-144927020D01*
X159314977Y-145042559D01*
X159299892Y-145056577D01*
X159154710Y-145191489D01*
X159104378Y-145238260D01*
X158922287Y-145460732D01*
X158772073Y-145705858D01*
X158656517Y-145969102D01*
X158655342Y-145973229D01*
X158655341Y-145973230D01*
X158633045Y-146051500D01*
X158577756Y-146245594D01*
X158537249Y-146530216D01*
X158537227Y-146534505D01*
X158537226Y-146534512D01*
X158536094Y-146750691D01*
X158535743Y-146817703D01*
X151394557Y-146817703D01*
X151408504Y-146685000D01*
X151404018Y-146642319D01*
X151389232Y-146501635D01*
X151389232Y-146501633D01*
X151388542Y-146495072D01*
X151375254Y-146454176D01*
X151373226Y-146383209D01*
X151409889Y-146322411D01*
X151473601Y-146291085D01*
X151521284Y-146291993D01*
X151663056Y-146322128D01*
X151663061Y-146322128D01*
X151669513Y-146323500D01*
X151860487Y-146323500D01*
X151866939Y-146322128D01*
X151866944Y-146322128D01*
X151953887Y-146303647D01*
X152047288Y-146283794D01*
X152053319Y-146281109D01*
X152215722Y-146208803D01*
X152215724Y-146208802D01*
X152221752Y-146206118D01*
X152376253Y-146093866D01*
X152398667Y-146068973D01*
X152499621Y-145956852D01*
X152499622Y-145956851D01*
X152504040Y-145951944D01*
X152576171Y-145827009D01*
X152596223Y-145792279D01*
X152596224Y-145792278D01*
X152599527Y-145786556D01*
X152658542Y-145604928D01*
X152678504Y-145415000D01*
X152671958Y-145352722D01*
X152659232Y-145231635D01*
X152659232Y-145231633D01*
X152658542Y-145225072D01*
X152599527Y-145043444D01*
X152582688Y-145014277D01*
X152527003Y-144917829D01*
X152504040Y-144878056D01*
X152438132Y-144804857D01*
X152380675Y-144741045D01*
X152380674Y-144741044D01*
X152376253Y-144736134D01*
X152241650Y-144638339D01*
X152227094Y-144627763D01*
X152227093Y-144627762D01*
X152221752Y-144623882D01*
X152215724Y-144621198D01*
X152215722Y-144621197D01*
X152053319Y-144548891D01*
X152053318Y-144548891D01*
X152047288Y-144546206D01*
X151953888Y-144526353D01*
X151866944Y-144507872D01*
X151866939Y-144507872D01*
X151860487Y-144506500D01*
X151669513Y-144506500D01*
X151663061Y-144507872D01*
X151663056Y-144507872D01*
X151576112Y-144526353D01*
X151482712Y-144546206D01*
X151476682Y-144548891D01*
X151476681Y-144548891D01*
X151314279Y-144621197D01*
X151308248Y-144623882D01*
X151307152Y-144624678D01*
X151246198Y-144641011D01*
X126447488Y-144641011D01*
X126379367Y-144621009D01*
X126332874Y-144567353D01*
X126322770Y-144497079D01*
X126329089Y-144471910D01*
X126330237Y-144468756D01*
X126376394Y-144296497D01*
X126376058Y-144282401D01*
X126368116Y-144279000D01*
X123827033Y-144279000D01*
X123813502Y-144282973D01*
X123812273Y-144291522D01*
X123859763Y-144468756D01*
X123860911Y-144471910D01*
X123861005Y-144473393D01*
X123861187Y-144474071D01*
X123861051Y-144474107D01*
X123865418Y-144542764D01*
X123830903Y-144604806D01*
X123768324Y-144638339D01*
X123742512Y-144641011D01*
X121397299Y-144641011D01*
X121329178Y-144621009D01*
X121282685Y-144567353D01*
X121272581Y-144497079D01*
X121275592Y-144482399D01*
X121277814Y-144474107D01*
X121303543Y-144378087D01*
X121323498Y-144150000D01*
X121303543Y-143921913D01*
X121302119Y-143916598D01*
X121302118Y-143916591D01*
X121286541Y-143858459D01*
X121288230Y-143787483D01*
X121319152Y-143736752D01*
X121510499Y-143545405D01*
X121572811Y-143511379D01*
X121599594Y-143508500D01*
X123715048Y-143508500D01*
X123783169Y-143528502D01*
X123829662Y-143582158D01*
X123839766Y-143652432D01*
X123836755Y-143667111D01*
X123813606Y-143753503D01*
X123813942Y-143767599D01*
X123821884Y-143771000D01*
X126362967Y-143771000D01*
X126376498Y-143767027D01*
X126377727Y-143758478D01*
X126353245Y-143667111D01*
X126354935Y-143596135D01*
X126394729Y-143537339D01*
X126459993Y-143509391D01*
X126474952Y-143508500D01*
X148516800Y-143508500D01*
X148584921Y-143528502D01*
X148604147Y-143544843D01*
X148604420Y-143544540D01*
X148609332Y-143548963D01*
X148613747Y-143553866D01*
X148635329Y-143569546D01*
X148752255Y-143654498D01*
X148768248Y-143666118D01*
X148774276Y-143668802D01*
X148774278Y-143668803D01*
X148857975Y-143706067D01*
X148942712Y-143743794D01*
X149036112Y-143763647D01*
X149123056Y-143782128D01*
X149123061Y-143782128D01*
X149129513Y-143783500D01*
X149320487Y-143783500D01*
X149326939Y-143782128D01*
X149326944Y-143782128D01*
X149413888Y-143763647D01*
X149507288Y-143743794D01*
X149592025Y-143706067D01*
X149675722Y-143668803D01*
X149675724Y-143668802D01*
X149681752Y-143666118D01*
X149697746Y-143654498D01*
X149778075Y-143596135D01*
X149836253Y-143553866D01*
X149859091Y-143528502D01*
X149959621Y-143416852D01*
X149959622Y-143416851D01*
X149964040Y-143411944D01*
X150027630Y-143301803D01*
X150056223Y-143252279D01*
X150056224Y-143252278D01*
X150059527Y-143246556D01*
X150118542Y-143064928D01*
X150119969Y-143051357D01*
X150137814Y-142881565D01*
X150138504Y-142875000D01*
X150122686Y-142724498D01*
X150119232Y-142691635D01*
X150119232Y-142691633D01*
X150118542Y-142685072D01*
X150059527Y-142503444D01*
X149964040Y-142338056D01*
X149915571Y-142284225D01*
X149840675Y-142201045D01*
X149840674Y-142201044D01*
X149836253Y-142196134D01*
X149681752Y-142083882D01*
X149675724Y-142081198D01*
X149675722Y-142081197D01*
X149513319Y-142008891D01*
X149513318Y-142008891D01*
X149507288Y-142006206D01*
X149413887Y-141986353D01*
X149326944Y-141967872D01*
X149326939Y-141967872D01*
X149320487Y-141966500D01*
X149129513Y-141966500D01*
X149123061Y-141967872D01*
X149123056Y-141967872D01*
X149036113Y-141986353D01*
X148942712Y-142006206D01*
X148936682Y-142008891D01*
X148936681Y-142008891D01*
X148774278Y-142081197D01*
X148774276Y-142081198D01*
X148768248Y-142083882D01*
X148613747Y-142196134D01*
X148609332Y-142201037D01*
X148604420Y-142205460D01*
X148603295Y-142204211D01*
X148549986Y-142237051D01*
X148516800Y-142241500D01*
X121363767Y-142241500D01*
X121352579Y-142240972D01*
X121345091Y-142239298D01*
X121343061Y-142239362D01*
X121279561Y-142214008D01*
X121238326Y-142156213D01*
X121234884Y-142085300D01*
X121240409Y-142069518D01*
X121240078Y-142069398D01*
X121241961Y-142064225D01*
X121244284Y-142059243D01*
X121264771Y-141982787D01*
X121302119Y-141843402D01*
X121302119Y-141843400D01*
X121303543Y-141838087D01*
X121323498Y-141610000D01*
X121303543Y-141381913D01*
X121244284Y-141160757D01*
X121164758Y-140990211D01*
X121149849Y-140958238D01*
X121149846Y-140958233D01*
X121147523Y-140953251D01*
X121016198Y-140765700D01*
X120854300Y-140603802D01*
X120849792Y-140600645D01*
X120849789Y-140600643D01*
X120740737Y-140524284D01*
X120666749Y-140472477D01*
X120661767Y-140470154D01*
X120661762Y-140470151D01*
X120627543Y-140454195D01*
X120574258Y-140407278D01*
X120554797Y-140339001D01*
X120575339Y-140271041D01*
X120627543Y-140225805D01*
X120661762Y-140209849D01*
X120661767Y-140209846D01*
X120666749Y-140207523D01*
X120823875Y-140097502D01*
X120849789Y-140079357D01*
X120849792Y-140079355D01*
X120854300Y-140076198D01*
X121016198Y-139914300D01*
X121147523Y-139726749D01*
X121149846Y-139721767D01*
X121149849Y-139721762D01*
X121241961Y-139524225D01*
X121241961Y-139524224D01*
X121244284Y-139519243D01*
X121249016Y-139501585D01*
X121302119Y-139303402D01*
X121302119Y-139303400D01*
X121303543Y-139298087D01*
X121323498Y-139070000D01*
X121303543Y-138841913D01*
X121300779Y-138831598D01*
X121245707Y-138626067D01*
X121245706Y-138626065D01*
X121244284Y-138620757D01*
X121241961Y-138615775D01*
X121149849Y-138418238D01*
X121149846Y-138418233D01*
X121147523Y-138413251D01*
X121052653Y-138277763D01*
X121019357Y-138230211D01*
X121019355Y-138230208D01*
X121016198Y-138225700D01*
X120854300Y-138063802D01*
X120849792Y-138060645D01*
X120849789Y-138060643D01*
X120758122Y-137996457D01*
X120666749Y-137932477D01*
X120661767Y-137930154D01*
X120661762Y-137930151D01*
X120627543Y-137914195D01*
X120574258Y-137867278D01*
X120554797Y-137799001D01*
X120575339Y-137731041D01*
X120627543Y-137685805D01*
X120661762Y-137669849D01*
X120661767Y-137669846D01*
X120666749Y-137667523D01*
X120818469Y-137561287D01*
X120890740Y-137538500D01*
X124221400Y-137538500D01*
X124293671Y-137561287D01*
X124402255Y-137637318D01*
X124438251Y-137662523D01*
X124443233Y-137664846D01*
X124443238Y-137664849D01*
X124640775Y-137756961D01*
X124645757Y-137759284D01*
X124651065Y-137760706D01*
X124651067Y-137760707D01*
X124861598Y-137817119D01*
X124861600Y-137817119D01*
X124866913Y-137818543D01*
X125095000Y-137838498D01*
X125323087Y-137818543D01*
X125328400Y-137817119D01*
X125328402Y-137817119D01*
X125538933Y-137760707D01*
X125538935Y-137760706D01*
X125544243Y-137759284D01*
X125549225Y-137756961D01*
X125746762Y-137664849D01*
X125746767Y-137664846D01*
X125751749Y-137662523D01*
X125908622Y-137552679D01*
X125934789Y-137534357D01*
X125934792Y-137534355D01*
X125939300Y-137531198D01*
X126101198Y-137369300D01*
X126116641Y-137347246D01*
X126159098Y-137286611D01*
X126232523Y-137181749D01*
X126234846Y-137176767D01*
X126234849Y-137176762D01*
X126326961Y-136979225D01*
X126326961Y-136979224D01*
X126329284Y-136974243D01*
X126336210Y-136948397D01*
X126387119Y-136758402D01*
X126387119Y-136758400D01*
X126388543Y-136753087D01*
X126408498Y-136525000D01*
X126394298Y-136362693D01*
X126408287Y-136293088D01*
X126457687Y-136242095D01*
X126519819Y-136225711D01*
X130544195Y-136225711D01*
X130612316Y-136245713D01*
X130658809Y-136299369D01*
X130668913Y-136369643D01*
X130639419Y-136434223D01*
X130633291Y-136440805D01*
X129648868Y-137425227D01*
X128679500Y-138394595D01*
X128617188Y-138428621D01*
X128590405Y-138431500D01*
X123263200Y-138431500D01*
X123195079Y-138411498D01*
X123175853Y-138395157D01*
X123175580Y-138395460D01*
X123170668Y-138391037D01*
X123166253Y-138386134D01*
X123074625Y-138319562D01*
X123017094Y-138277763D01*
X123017093Y-138277762D01*
X123011752Y-138273882D01*
X123005724Y-138271198D01*
X123005722Y-138271197D01*
X122843319Y-138198891D01*
X122843318Y-138198891D01*
X122837288Y-138196206D01*
X122743887Y-138176353D01*
X122656944Y-138157872D01*
X122656939Y-138157872D01*
X122650487Y-138156500D01*
X122459513Y-138156500D01*
X122453061Y-138157872D01*
X122453056Y-138157872D01*
X122366113Y-138176353D01*
X122272712Y-138196206D01*
X122266682Y-138198891D01*
X122266681Y-138198891D01*
X122104278Y-138271197D01*
X122104276Y-138271198D01*
X122098248Y-138273882D01*
X122092907Y-138277762D01*
X122092906Y-138277763D01*
X122049300Y-138309445D01*
X121943747Y-138386134D01*
X121939326Y-138391044D01*
X121939325Y-138391045D01*
X121890114Y-138445700D01*
X121815960Y-138528056D01*
X121720473Y-138693444D01*
X121661458Y-138875072D01*
X121641496Y-139065000D01*
X121642186Y-139071565D01*
X121655568Y-139198884D01*
X121661458Y-139254928D01*
X121720473Y-139436556D01*
X121815960Y-139601944D01*
X121820378Y-139606851D01*
X121820379Y-139606852D01*
X121932394Y-139731257D01*
X121943747Y-139743866D01*
X122098248Y-139856118D01*
X122104276Y-139858802D01*
X122104278Y-139858803D01*
X122266681Y-139931109D01*
X122272712Y-139933794D01*
X122366112Y-139953647D01*
X122453056Y-139972128D01*
X122453061Y-139972128D01*
X122459513Y-139973500D01*
X122650487Y-139973500D01*
X122656939Y-139972128D01*
X122656944Y-139972128D01*
X122743888Y-139953647D01*
X122837288Y-139933794D01*
X122843319Y-139931109D01*
X123005722Y-139858803D01*
X123005724Y-139858802D01*
X123011752Y-139856118D01*
X123166253Y-139743866D01*
X123170668Y-139738963D01*
X123175580Y-139734540D01*
X123176705Y-139735789D01*
X123230014Y-139702949D01*
X123263200Y-139698500D01*
X128826233Y-139698500D01*
X128837416Y-139699027D01*
X128844909Y-139700702D01*
X128852835Y-139700453D01*
X128852836Y-139700453D01*
X128912986Y-139698562D01*
X128916945Y-139698500D01*
X128944856Y-139698500D01*
X128948791Y-139698003D01*
X128948856Y-139697995D01*
X128960693Y-139697062D01*
X128992951Y-139696048D01*
X128996970Y-139695922D01*
X129004889Y-139695673D01*
X129024343Y-139690021D01*
X129043700Y-139686013D01*
X129055930Y-139684468D01*
X129055931Y-139684468D01*
X129063797Y-139683474D01*
X129071168Y-139680555D01*
X129071170Y-139680555D01*
X129104912Y-139667196D01*
X129116142Y-139663351D01*
X129150983Y-139653229D01*
X129150984Y-139653229D01*
X129158593Y-139651018D01*
X129165412Y-139646985D01*
X129165417Y-139646983D01*
X129176028Y-139640707D01*
X129193776Y-139632012D01*
X129212617Y-139624552D01*
X129248387Y-139598564D01*
X129258307Y-139592048D01*
X129289535Y-139573580D01*
X129289538Y-139573578D01*
X129296362Y-139569542D01*
X129310683Y-139555221D01*
X129325717Y-139542380D01*
X129335694Y-139535131D01*
X129342107Y-139530472D01*
X129370298Y-139496395D01*
X129378288Y-139487616D01*
X130730219Y-138135686D01*
X141618674Y-138135686D01*
X141628556Y-138148175D01*
X141671381Y-138176790D01*
X141681491Y-138182280D01*
X141866038Y-138261567D01*
X141876970Y-138265119D01*
X142072866Y-138309445D01*
X142084280Y-138310948D01*
X142284976Y-138318833D01*
X142296458Y-138318231D01*
X142495227Y-138289412D01*
X142506423Y-138286724D01*
X142696615Y-138222162D01*
X142707112Y-138217488D01*
X142833079Y-138146944D01*
X142842941Y-138136869D01*
X142839986Y-138129197D01*
X142242811Y-137532021D01*
X142228868Y-137524408D01*
X142227034Y-137524539D01*
X142220420Y-137528790D01*
X141624867Y-138124344D01*
X141618674Y-138135686D01*
X130730219Y-138135686D01*
X132007711Y-136858194D01*
X132070023Y-136824168D01*
X132096806Y-136821289D01*
X140964447Y-136821289D01*
X141032568Y-136841291D01*
X141079061Y-136894947D01*
X141089574Y-136962099D01*
X141070426Y-137123883D01*
X141070125Y-137135384D01*
X141083261Y-137335798D01*
X141085062Y-137347168D01*
X141134500Y-137541833D01*
X141138341Y-137552679D01*
X141222429Y-137735080D01*
X141228180Y-137745041D01*
X141241562Y-137763976D01*
X141252152Y-137772365D01*
X141265451Y-137765338D01*
X142140905Y-136889885D01*
X142203217Y-136855860D01*
X142274033Y-136860925D01*
X142319095Y-136889885D01*
X143195286Y-137766075D01*
X143207661Y-137772832D01*
X143214241Y-137767906D01*
X143287488Y-137637112D01*
X143292162Y-137626615D01*
X143356724Y-137436423D01*
X143359412Y-137425227D01*
X143388527Y-137224418D01*
X143389157Y-137217035D01*
X143390554Y-137163704D01*
X143390311Y-137156305D01*
X143372165Y-136958818D01*
X143385850Y-136889153D01*
X143435026Y-136837946D01*
X143497636Y-136821289D01*
X156183195Y-136821289D01*
X156251316Y-136841291D01*
X156272290Y-136858194D01*
X156290843Y-136876747D01*
X156324869Y-136939059D01*
X156326875Y-136980651D01*
X156309245Y-137129605D01*
X156323143Y-137341644D01*
X156375449Y-137547601D01*
X156464412Y-137740576D01*
X156467745Y-137745292D01*
X156522043Y-137822122D01*
X156587052Y-137914109D01*
X156591194Y-137918144D01*
X156655779Y-137981059D01*
X156739263Y-138062385D01*
X156915946Y-138180441D01*
X156921249Y-138182719D01*
X156921252Y-138182721D01*
X157105877Y-138262042D01*
X157111184Y-138264322D01*
X157187720Y-138281640D01*
X157312802Y-138309944D01*
X157312808Y-138309945D01*
X157318439Y-138311219D01*
X157324210Y-138311446D01*
X157324212Y-138311446D01*
X157387118Y-138313918D01*
X157530770Y-138319562D01*
X157635918Y-138304316D01*
X157735352Y-138289899D01*
X157735357Y-138289898D01*
X157741066Y-138289070D01*
X157746530Y-138287215D01*
X157746535Y-138287214D01*
X157936815Y-138222622D01*
X157942283Y-138220766D01*
X158127684Y-138116937D01*
X158291059Y-137981059D01*
X158426937Y-137817684D01*
X158530766Y-137632283D01*
X158562601Y-137538500D01*
X158597214Y-137436535D01*
X158597215Y-137436530D01*
X158599070Y-137431066D01*
X158604276Y-137395166D01*
X158629029Y-137224444D01*
X158629562Y-137220770D01*
X158631153Y-137160000D01*
X158611709Y-136948397D01*
X158609076Y-136939059D01*
X158559536Y-136763402D01*
X158554030Y-136743880D01*
X158460046Y-136553299D01*
X158443817Y-136531565D01*
X158336358Y-136387661D01*
X158336357Y-136387660D01*
X158332905Y-136383037D01*
X158176865Y-136238795D01*
X158128541Y-136208305D01*
X158002036Y-136128486D01*
X158002031Y-136128484D01*
X157997152Y-136125405D01*
X157799785Y-136046664D01*
X157794120Y-136045537D01*
X157794116Y-136045536D01*
X157644698Y-136015815D01*
X157628882Y-136012669D01*
X157565972Y-135979761D01*
X157530840Y-135918066D01*
X157534640Y-135847172D01*
X157576166Y-135789586D01*
X157635382Y-135764394D01*
X157679324Y-135758022D01*
X157741066Y-135749070D01*
X157746530Y-135747215D01*
X157746535Y-135747214D01*
X157936815Y-135682622D01*
X157942283Y-135680766D01*
X158127684Y-135576937D01*
X158291059Y-135441059D01*
X158426937Y-135277684D01*
X158530766Y-135092283D01*
X158563016Y-134997279D01*
X158597214Y-134896535D01*
X158597215Y-134896530D01*
X158599070Y-134891066D01*
X158609925Y-134816206D01*
X158629029Y-134684444D01*
X158629562Y-134680770D01*
X158631153Y-134620000D01*
X158611709Y-134408397D01*
X158604917Y-134384312D01*
X158558284Y-134218964D01*
X158554030Y-134203880D01*
X158460046Y-134013299D01*
X158443003Y-133990475D01*
X158336358Y-133847661D01*
X158336357Y-133847660D01*
X158332905Y-133843037D01*
X158201488Y-133721556D01*
X158181105Y-133702714D01*
X158181102Y-133702712D01*
X158176865Y-133698795D01*
X158128541Y-133668305D01*
X158002036Y-133588486D01*
X158002031Y-133588484D01*
X157997152Y-133585405D01*
X157840590Y-133522944D01*
X157805154Y-133508806D01*
X157799785Y-133506664D01*
X157794120Y-133505537D01*
X157794116Y-133505536D01*
X157644683Y-133475812D01*
X157628882Y-133472669D01*
X157565972Y-133439761D01*
X157530840Y-133378066D01*
X157534640Y-133307172D01*
X157576166Y-133249586D01*
X157635382Y-133224394D01*
X157679324Y-133218022D01*
X157741066Y-133209070D01*
X157746530Y-133207215D01*
X157746535Y-133207214D01*
X157936815Y-133142622D01*
X157942283Y-133140766D01*
X158127684Y-133036937D01*
X158291059Y-132901059D01*
X158426937Y-132737684D01*
X158530766Y-132552283D01*
X158562310Y-132459357D01*
X158597214Y-132356535D01*
X158597215Y-132356530D01*
X158599070Y-132351066D01*
X158601677Y-132333090D01*
X158629029Y-132144444D01*
X158629562Y-132140770D01*
X158631153Y-132080000D01*
X158611709Y-131868397D01*
X158607526Y-131853563D01*
X158563935Y-131699000D01*
X158554030Y-131663880D01*
X158460046Y-131473299D01*
X158443003Y-131450475D01*
X158336358Y-131307661D01*
X158336357Y-131307660D01*
X158332905Y-131303037D01*
X158176865Y-131158795D01*
X158080385Y-131097921D01*
X158002036Y-131048486D01*
X158002031Y-131048484D01*
X157997152Y-131045405D01*
X157799785Y-130966664D01*
X157794120Y-130965537D01*
X157794116Y-130965536D01*
X157644678Y-130935811D01*
X157628882Y-130932669D01*
X157565972Y-130899761D01*
X157530840Y-130838066D01*
X157534640Y-130767172D01*
X157576166Y-130709586D01*
X157635382Y-130684394D01*
X157679324Y-130678022D01*
X157741066Y-130669070D01*
X157746530Y-130667215D01*
X157746535Y-130667214D01*
X157936815Y-130602622D01*
X157942283Y-130600766D01*
X158127684Y-130496937D01*
X158291059Y-130361059D01*
X158426937Y-130197684D01*
X158530766Y-130012283D01*
X158562601Y-129918500D01*
X158597214Y-129816535D01*
X158597215Y-129816530D01*
X158599070Y-129811066D01*
X158600176Y-129803444D01*
X158619961Y-129666987D01*
X158629562Y-129600770D01*
X158631153Y-129540000D01*
X158611709Y-129328397D01*
X158610005Y-129322353D01*
X158558236Y-129138794D01*
X158554030Y-129123880D01*
X158460046Y-128933299D01*
X158443003Y-128910475D01*
X158336358Y-128767661D01*
X158336357Y-128767660D01*
X158332905Y-128763037D01*
X158233987Y-128671598D01*
X158181105Y-128622714D01*
X158181102Y-128622712D01*
X158176865Y-128618795D01*
X158080385Y-128557921D01*
X158002036Y-128508486D01*
X158002031Y-128508484D01*
X157997152Y-128505405D01*
X157799785Y-128426664D01*
X157794120Y-128425537D01*
X157794116Y-128425536D01*
X157644678Y-128395811D01*
X157628882Y-128392669D01*
X157565972Y-128359761D01*
X157530840Y-128298066D01*
X157534640Y-128227172D01*
X157576166Y-128169586D01*
X157635382Y-128144394D01*
X157679324Y-128138022D01*
X157741066Y-128129070D01*
X157746530Y-128127215D01*
X157746535Y-128127214D01*
X157915581Y-128069830D01*
X157942283Y-128060766D01*
X158127684Y-127956937D01*
X158291059Y-127821059D01*
X158426937Y-127657684D01*
X158530766Y-127472283D01*
X158563016Y-127377279D01*
X158597214Y-127276535D01*
X158597215Y-127276530D01*
X158599070Y-127271066D01*
X158601525Y-127254141D01*
X158619961Y-127126987D01*
X158629562Y-127060770D01*
X158631153Y-127000000D01*
X158611709Y-126788397D01*
X158604917Y-126764312D01*
X158558236Y-126598794D01*
X158554030Y-126583880D01*
X158460046Y-126393299D01*
X158443817Y-126371565D01*
X158336358Y-126227661D01*
X158336357Y-126227660D01*
X158332905Y-126223037D01*
X158194689Y-126095271D01*
X158181105Y-126082714D01*
X158181102Y-126082712D01*
X158176865Y-126078795D01*
X158088310Y-126022921D01*
X158002036Y-125968486D01*
X158002031Y-125968484D01*
X157997152Y-125965405D01*
X157799785Y-125886664D01*
X157794120Y-125885537D01*
X157794116Y-125885536D01*
X157644678Y-125855811D01*
X157628882Y-125852669D01*
X157565972Y-125819761D01*
X157530840Y-125758066D01*
X157534640Y-125687172D01*
X157576166Y-125629586D01*
X157635382Y-125604394D01*
X157679324Y-125598022D01*
X157741066Y-125589070D01*
X157746530Y-125587215D01*
X157746535Y-125587214D01*
X157936815Y-125522622D01*
X157942283Y-125520766D01*
X158127684Y-125416937D01*
X158291059Y-125281059D01*
X158426937Y-125117684D01*
X158530766Y-124932283D01*
X158563541Y-124835730D01*
X158597214Y-124736535D01*
X158597215Y-124736530D01*
X158599070Y-124731066D01*
X158600176Y-124723444D01*
X158619236Y-124591987D01*
X158629562Y-124520770D01*
X158631153Y-124460000D01*
X158611709Y-124248397D01*
X158610005Y-124242353D01*
X158559536Y-124063402D01*
X158554030Y-124043880D01*
X158460046Y-123853299D01*
X158443817Y-123831565D01*
X158336358Y-123687661D01*
X158336357Y-123687660D01*
X158332905Y-123683037D01*
X158220135Y-123578793D01*
X158181105Y-123542714D01*
X158181102Y-123542712D01*
X158176865Y-123538795D01*
X158128541Y-123508305D01*
X158002036Y-123428486D01*
X158002031Y-123428484D01*
X157997152Y-123425405D01*
X157799785Y-123346664D01*
X157794120Y-123345537D01*
X157794116Y-123345536D01*
X157644678Y-123315811D01*
X157628882Y-123312669D01*
X157565972Y-123279761D01*
X157530840Y-123218066D01*
X157534640Y-123147172D01*
X157576166Y-123089586D01*
X157635382Y-123064394D01*
X157679324Y-123058022D01*
X157741066Y-123049070D01*
X157746530Y-123047215D01*
X157746535Y-123047214D01*
X157936815Y-122982622D01*
X157942283Y-122980766D01*
X158127684Y-122876937D01*
X158291059Y-122741059D01*
X158426937Y-122577684D01*
X158530766Y-122392283D01*
X158563016Y-122297279D01*
X158597214Y-122196535D01*
X158597215Y-122196530D01*
X158599070Y-122191066D01*
X158604276Y-122155166D01*
X158629029Y-121984444D01*
X158629562Y-121980770D01*
X158631153Y-121920000D01*
X158611709Y-121708397D01*
X158609076Y-121699059D01*
X158559535Y-121523399D01*
X158554030Y-121503880D01*
X158460046Y-121313299D01*
X158443817Y-121291565D01*
X158336358Y-121147661D01*
X158336357Y-121147660D01*
X158332905Y-121143037D01*
X158220135Y-121038793D01*
X158181105Y-121002714D01*
X158181102Y-121002712D01*
X158176865Y-120998795D01*
X158088310Y-120942921D01*
X158002036Y-120888486D01*
X158002031Y-120888484D01*
X157997152Y-120885405D01*
X157799785Y-120806664D01*
X157794120Y-120805537D01*
X157794116Y-120805536D01*
X157644678Y-120775811D01*
X157628882Y-120772669D01*
X157565972Y-120739761D01*
X157530840Y-120678066D01*
X157534640Y-120607172D01*
X157576166Y-120549586D01*
X157635382Y-120524394D01*
X157679324Y-120518022D01*
X157741066Y-120509070D01*
X157746530Y-120507215D01*
X157746535Y-120507214D01*
X157936815Y-120442622D01*
X157942283Y-120440766D01*
X158127684Y-120336937D01*
X158291059Y-120201059D01*
X158426937Y-120037684D01*
X158530766Y-119852283D01*
X158561413Y-119762001D01*
X158597214Y-119656535D01*
X158597215Y-119656530D01*
X158599070Y-119651066D01*
X158601340Y-119635416D01*
X158619236Y-119511987D01*
X158629562Y-119440770D01*
X158631153Y-119380000D01*
X158611709Y-119168397D01*
X158610005Y-119162353D01*
X158558236Y-118978794D01*
X158554030Y-118963880D01*
X158460046Y-118773299D01*
X158443003Y-118750475D01*
X158336358Y-118607661D01*
X158336357Y-118607660D01*
X158332905Y-118603037D01*
X158176865Y-118458795D01*
X158128541Y-118428305D01*
X158002036Y-118348486D01*
X158002031Y-118348484D01*
X157997152Y-118345405D01*
X157799785Y-118266664D01*
X157794120Y-118265537D01*
X157794116Y-118265536D01*
X157644678Y-118235811D01*
X157628882Y-118232669D01*
X157565972Y-118199761D01*
X157530840Y-118138066D01*
X157534640Y-118067172D01*
X157576166Y-118009586D01*
X157635382Y-117984394D01*
X157679324Y-117978022D01*
X157741066Y-117969070D01*
X157746530Y-117967215D01*
X157746535Y-117967214D01*
X157936815Y-117902622D01*
X157942283Y-117900766D01*
X158127684Y-117796937D01*
X158291059Y-117661059D01*
X158426937Y-117497684D01*
X158530766Y-117312283D01*
X158563016Y-117217279D01*
X158597214Y-117116535D01*
X158597215Y-117116530D01*
X158599070Y-117111066D01*
X158609925Y-117036206D01*
X158622721Y-116947953D01*
X158629562Y-116900770D01*
X158631153Y-116840000D01*
X158611709Y-116628397D01*
X158595750Y-116571808D01*
X158559536Y-116443402D01*
X158554030Y-116423880D01*
X158460046Y-116233299D01*
X158443003Y-116210475D01*
X158336358Y-116067661D01*
X158336357Y-116067660D01*
X158332905Y-116063037D01*
X158194689Y-115935271D01*
X158181105Y-115922714D01*
X158181102Y-115922712D01*
X158176865Y-115918795D01*
X158063319Y-115847153D01*
X158002036Y-115808486D01*
X158002031Y-115808484D01*
X157997152Y-115805405D01*
X157799785Y-115726664D01*
X157794120Y-115725537D01*
X157794116Y-115725536D01*
X157644678Y-115695811D01*
X157628882Y-115692669D01*
X157565972Y-115659761D01*
X157530840Y-115598066D01*
X157534640Y-115527172D01*
X157576166Y-115469586D01*
X157635382Y-115444394D01*
X157679324Y-115438022D01*
X157741066Y-115429070D01*
X157746530Y-115427215D01*
X157746535Y-115427214D01*
X157936815Y-115362622D01*
X157942283Y-115360766D01*
X158127684Y-115256937D01*
X158291059Y-115121059D01*
X158426937Y-114957684D01*
X158530766Y-114772283D01*
X158563016Y-114677279D01*
X158597214Y-114576535D01*
X158597215Y-114576530D01*
X158599070Y-114571066D01*
X158600176Y-114563444D01*
X158618360Y-114438028D01*
X158629562Y-114360770D01*
X158631153Y-114300000D01*
X158611709Y-114088397D01*
X158595750Y-114031808D01*
X158558236Y-113898794D01*
X158554030Y-113883880D01*
X158460046Y-113693299D01*
X158443003Y-113670475D01*
X158336358Y-113527661D01*
X158336357Y-113527660D01*
X158332905Y-113523037D01*
X158176865Y-113378795D01*
X158080385Y-113317921D01*
X158002036Y-113268486D01*
X158002031Y-113268484D01*
X157997152Y-113265405D01*
X157799785Y-113186664D01*
X157794120Y-113185537D01*
X157794116Y-113185536D01*
X157644678Y-113155811D01*
X157628882Y-113152669D01*
X157565972Y-113119761D01*
X157530840Y-113058066D01*
X157534640Y-112987172D01*
X157576166Y-112929586D01*
X157635382Y-112904394D01*
X157679324Y-112898022D01*
X157741066Y-112889070D01*
X157746530Y-112887215D01*
X157746535Y-112887214D01*
X157936815Y-112822622D01*
X157942283Y-112820766D01*
X158127684Y-112716937D01*
X158291059Y-112581059D01*
X158426937Y-112417684D01*
X158530766Y-112232283D01*
X158563016Y-112137279D01*
X158597214Y-112036535D01*
X158597215Y-112036530D01*
X158599070Y-112031066D01*
X158600176Y-112023444D01*
X158619961Y-111886987D01*
X158629562Y-111820770D01*
X158631153Y-111760000D01*
X158611709Y-111548397D01*
X158595750Y-111491808D01*
X158558236Y-111358794D01*
X158554030Y-111343880D01*
X158460046Y-111153299D01*
X158449360Y-111138988D01*
X158336358Y-110987661D01*
X158336357Y-110987660D01*
X158332905Y-110983037D01*
X158194689Y-110855271D01*
X158181105Y-110842714D01*
X158181102Y-110842712D01*
X158176865Y-110838795D01*
X158080385Y-110777921D01*
X158002036Y-110728486D01*
X158002031Y-110728484D01*
X157997152Y-110725405D01*
X157799785Y-110646664D01*
X157794120Y-110645537D01*
X157794116Y-110645536D01*
X157644678Y-110615811D01*
X157628882Y-110612669D01*
X157565972Y-110579761D01*
X157530840Y-110518066D01*
X157534640Y-110447172D01*
X157576166Y-110389586D01*
X157635382Y-110364394D01*
X157679324Y-110358022D01*
X157741066Y-110349070D01*
X157746530Y-110347215D01*
X157746535Y-110347214D01*
X157936815Y-110282622D01*
X157942283Y-110280766D01*
X158127684Y-110176937D01*
X158291059Y-110041059D01*
X158426937Y-109877684D01*
X158530766Y-109692283D01*
X158561413Y-109602001D01*
X158597214Y-109496535D01*
X158597215Y-109496530D01*
X158599070Y-109491066D01*
X158629562Y-109280770D01*
X158631153Y-109220000D01*
X158611709Y-109008397D01*
X158604917Y-108984312D01*
X158559536Y-108823402D01*
X158554030Y-108803880D01*
X158460046Y-108613299D01*
X158443817Y-108591565D01*
X158336358Y-108447661D01*
X158336357Y-108447660D01*
X158332905Y-108443037D01*
X158176865Y-108298795D01*
X158128541Y-108268305D01*
X158002036Y-108188486D01*
X158002031Y-108188484D01*
X157997152Y-108185405D01*
X157799785Y-108106664D01*
X157794120Y-108105537D01*
X157794116Y-108105536D01*
X157644678Y-108075811D01*
X157628882Y-108072669D01*
X157565972Y-108039761D01*
X157530840Y-107978066D01*
X157534640Y-107907172D01*
X157576166Y-107849586D01*
X157635382Y-107824394D01*
X157679324Y-107818022D01*
X157741066Y-107809070D01*
X157746530Y-107807215D01*
X157746535Y-107807214D01*
X157936815Y-107742622D01*
X157942283Y-107740766D01*
X158127684Y-107636937D01*
X158291059Y-107501059D01*
X158426937Y-107337684D01*
X158530766Y-107152283D01*
X158562310Y-107059357D01*
X158597214Y-106956535D01*
X158597215Y-106956530D01*
X158599070Y-106951066D01*
X158604276Y-106915166D01*
X158629029Y-106744444D01*
X158629562Y-106740770D01*
X158631153Y-106680000D01*
X158611709Y-106468397D01*
X158604917Y-106444312D01*
X158559536Y-106283402D01*
X158554030Y-106263880D01*
X158460046Y-106073299D01*
X158454352Y-106065673D01*
X158336358Y-105907661D01*
X158336357Y-105907660D01*
X158332905Y-105903037D01*
X158211704Y-105791000D01*
X158181105Y-105762714D01*
X158181102Y-105762712D01*
X158176865Y-105758795D01*
X158073440Y-105693539D01*
X158002036Y-105648486D01*
X158002031Y-105648484D01*
X157997152Y-105645405D01*
X157799785Y-105566664D01*
X157794120Y-105565537D01*
X157794116Y-105565536D01*
X157644678Y-105535811D01*
X157628882Y-105532669D01*
X157565972Y-105499761D01*
X157530840Y-105438066D01*
X157534640Y-105367172D01*
X157576166Y-105309586D01*
X157635382Y-105284394D01*
X157679324Y-105278022D01*
X157741066Y-105269070D01*
X157746530Y-105267215D01*
X157746535Y-105267214D01*
X157936815Y-105202622D01*
X157942283Y-105200766D01*
X158127684Y-105096937D01*
X158291059Y-104961059D01*
X158426937Y-104797684D01*
X158530766Y-104612283D01*
X158562310Y-104519357D01*
X158597214Y-104416535D01*
X158597215Y-104416530D01*
X158599070Y-104411066D01*
X158604276Y-104375166D01*
X158629029Y-104204444D01*
X158629562Y-104200770D01*
X158631153Y-104140000D01*
X158611709Y-103928397D01*
X158595750Y-103871808D01*
X158558236Y-103738794D01*
X158554030Y-103723880D01*
X158460046Y-103533299D01*
X158449416Y-103519063D01*
X158336358Y-103367661D01*
X158336357Y-103367660D01*
X158332905Y-103363037D01*
X158324345Y-103355124D01*
X158295614Y-103328565D01*
X158259170Y-103267636D01*
X158261451Y-103196676D01*
X158301734Y-103138214D01*
X158354947Y-103112794D01*
X158361044Y-103111498D01*
X158397288Y-103103794D01*
X158457442Y-103077012D01*
X158565722Y-103028803D01*
X158565724Y-103028802D01*
X158571752Y-103026118D01*
X158582359Y-103018412D01*
X158652230Y-102967647D01*
X158726253Y-102913866D01*
X158759839Y-102876565D01*
X158849621Y-102776852D01*
X158849622Y-102776851D01*
X158854040Y-102771944D01*
X158949527Y-102606556D01*
X159008542Y-102424928D01*
X159014249Y-102370634D01*
X159027814Y-102241565D01*
X159028504Y-102235000D01*
X159023485Y-102187251D01*
X159009232Y-102051635D01*
X159009232Y-102051633D01*
X159008542Y-102045072D01*
X158949527Y-101863444D01*
X158854040Y-101698056D01*
X158726253Y-101556134D01*
X158571752Y-101443882D01*
X158565724Y-101441198D01*
X158565722Y-101441197D01*
X158403319Y-101368891D01*
X158403318Y-101368891D01*
X158397288Y-101366206D01*
X158284721Y-101342279D01*
X158216944Y-101327872D01*
X158216939Y-101327872D01*
X158210487Y-101326500D01*
X158019513Y-101326500D01*
X158013061Y-101327872D01*
X158013056Y-101327872D01*
X157945279Y-101342279D01*
X157832712Y-101366206D01*
X157826682Y-101368891D01*
X157826681Y-101368891D01*
X157664278Y-101441197D01*
X157664276Y-101441198D01*
X157658248Y-101443882D01*
X157503747Y-101556134D01*
X157499332Y-101561037D01*
X157494420Y-101565460D01*
X157493295Y-101564211D01*
X157439986Y-101597051D01*
X157406800Y-101601500D01*
X157109800Y-101601500D01*
X157041679Y-101581498D01*
X156995186Y-101527842D01*
X156985082Y-101457568D01*
X157000681Y-101412500D01*
X157041223Y-101342279D01*
X157041224Y-101342278D01*
X157044527Y-101336556D01*
X157103542Y-101154928D01*
X157123504Y-100965000D01*
X157103542Y-100775072D01*
X157044527Y-100593444D01*
X156949040Y-100428056D01*
X156874127Y-100344856D01*
X156825675Y-100291045D01*
X156825674Y-100291044D01*
X156821253Y-100286134D01*
X156666752Y-100173882D01*
X156660724Y-100171198D01*
X156660722Y-100171197D01*
X156498319Y-100098891D01*
X156498318Y-100098891D01*
X156492288Y-100096206D01*
X156368548Y-100069904D01*
X156311944Y-100057872D01*
X156311939Y-100057872D01*
X156305487Y-100056500D01*
X156114513Y-100056500D01*
X156108061Y-100057872D01*
X156108056Y-100057872D01*
X156051452Y-100069904D01*
X155927712Y-100096206D01*
X155921682Y-100098891D01*
X155921681Y-100098891D01*
X155759278Y-100171197D01*
X155759276Y-100171198D01*
X155753248Y-100173882D01*
X155747907Y-100177762D01*
X155747906Y-100177763D01*
X155648306Y-100250127D01*
X155598747Y-100286134D01*
X155594333Y-100291036D01*
X155594331Y-100291038D01*
X155590933Y-100294812D01*
X155530487Y-100332050D01*
X155497298Y-100336500D01*
X121229394Y-100336500D01*
X121161273Y-100316498D01*
X121126181Y-100282771D01*
X121019357Y-100130211D01*
X121019355Y-100130208D01*
X121016198Y-100125700D01*
X120854300Y-99963802D01*
X120849792Y-99960645D01*
X120849789Y-99960643D01*
X120718082Y-99868421D01*
X120666749Y-99832477D01*
X120661767Y-99830154D01*
X120661762Y-99830151D01*
X120626951Y-99813919D01*
X120573666Y-99767002D01*
X120554205Y-99698725D01*
X120574747Y-99630765D01*
X120626951Y-99585529D01*
X120661511Y-99569414D01*
X120671007Y-99563931D01*
X120849467Y-99438972D01*
X120857875Y-99431916D01*
X121011916Y-99277875D01*
X121018972Y-99269467D01*
X121143931Y-99091007D01*
X121149414Y-99081511D01*
X121241490Y-98884053D01*
X121245236Y-98873761D01*
X121291394Y-98701497D01*
X121291058Y-98687401D01*
X121283116Y-98684000D01*
X118742033Y-98684000D01*
X118728502Y-98687973D01*
X118727273Y-98696522D01*
X118774764Y-98873761D01*
X118780393Y-98889226D01*
X118778818Y-98889799D01*
X118788328Y-98952454D01*
X118759342Y-99017264D01*
X118699918Y-99056114D01*
X118663474Y-99061500D01*
X106204500Y-99061500D01*
X106136379Y-99041498D01*
X106089886Y-98987842D01*
X106078500Y-98935500D01*
X106078500Y-98557703D01*
X158535743Y-98557703D01*
X158573268Y-98842734D01*
X158649129Y-99120036D01*
X158650813Y-99123984D01*
X158740180Y-99333500D01*
X158761923Y-99384476D01*
X158794538Y-99438972D01*
X158869325Y-99563931D01*
X158909561Y-99631161D01*
X159089313Y-99855528D01*
X159297851Y-100053423D01*
X159531317Y-100221186D01*
X159535112Y-100223195D01*
X159535113Y-100223196D01*
X159556869Y-100234715D01*
X159785392Y-100355712D01*
X159895744Y-100396095D01*
X159969670Y-100423148D01*
X160055373Y-100454511D01*
X160336264Y-100515755D01*
X160364841Y-100518004D01*
X160559282Y-100533307D01*
X160559291Y-100533307D01*
X160561739Y-100533500D01*
X160717271Y-100533500D01*
X160719407Y-100533354D01*
X160719418Y-100533354D01*
X160927548Y-100519165D01*
X160927554Y-100519164D01*
X160931825Y-100518873D01*
X160936020Y-100518004D01*
X160936022Y-100518004D01*
X161097918Y-100484477D01*
X161213342Y-100460574D01*
X161484343Y-100364607D01*
X161585626Y-100312331D01*
X161736005Y-100234715D01*
X161736006Y-100234715D01*
X161739812Y-100232750D01*
X161743313Y-100230289D01*
X161743317Y-100230287D01*
X161892129Y-100125700D01*
X161975023Y-100067441D01*
X162185622Y-99871740D01*
X162367713Y-99649268D01*
X162517927Y-99404142D01*
X162633483Y-99140898D01*
X162635036Y-99135448D01*
X162683061Y-98966852D01*
X162712244Y-98864406D01*
X162752751Y-98579784D01*
X162752845Y-98561951D01*
X162754235Y-98296583D01*
X162754235Y-98296576D01*
X162754257Y-98292297D01*
X162716732Y-98007266D01*
X162640871Y-97729964D01*
X162598743Y-97631197D01*
X162529763Y-97469476D01*
X162529761Y-97469472D01*
X162528077Y-97465524D01*
X162380439Y-97218839D01*
X162200687Y-96994472D01*
X162020728Y-96823697D01*
X161995258Y-96799527D01*
X161995255Y-96799525D01*
X161992149Y-96796577D01*
X161758683Y-96628814D01*
X161736843Y-96617250D01*
X161698138Y-96596757D01*
X161504608Y-96494288D01*
X161234627Y-96395489D01*
X160953736Y-96334245D01*
X160922685Y-96331801D01*
X160730718Y-96316693D01*
X160730709Y-96316693D01*
X160728261Y-96316500D01*
X160572729Y-96316500D01*
X160570593Y-96316646D01*
X160570582Y-96316646D01*
X160362452Y-96330835D01*
X160362446Y-96330836D01*
X160358175Y-96331127D01*
X160353980Y-96331996D01*
X160353978Y-96331996D01*
X160217417Y-96360276D01*
X160076658Y-96389426D01*
X159805657Y-96485393D01*
X159801848Y-96487359D01*
X159575734Y-96604065D01*
X159550188Y-96617250D01*
X159546687Y-96619711D01*
X159546683Y-96619713D01*
X159536594Y-96626804D01*
X159314977Y-96782559D01*
X159299892Y-96796577D01*
X159185019Y-96903324D01*
X159104378Y-96978260D01*
X158922287Y-97200732D01*
X158772073Y-97445858D01*
X158656517Y-97709102D01*
X158655342Y-97713229D01*
X158655341Y-97713230D01*
X158634864Y-97785114D01*
X158577756Y-97985594D01*
X158537249Y-98270216D01*
X158537227Y-98274505D01*
X158537226Y-98274512D01*
X158535765Y-98553417D01*
X158535743Y-98557703D01*
X106078500Y-98557703D01*
X106078500Y-97581866D01*
X106071745Y-97519684D01*
X106020615Y-97383295D01*
X105933261Y-97266739D01*
X105816705Y-97179385D01*
X105680316Y-97128255D01*
X105618134Y-97121500D01*
X103921866Y-97121500D01*
X103859684Y-97128255D01*
X103723295Y-97179385D01*
X103606739Y-97266739D01*
X103519385Y-97383295D01*
X103468255Y-97519684D01*
X103461500Y-97581866D01*
X103461500Y-97670500D01*
X103441498Y-97738621D01*
X103387842Y-97785114D01*
X103335500Y-97796500D01*
X83897702Y-97796500D01*
X83829581Y-97776498D01*
X83804067Y-97754812D01*
X83800669Y-97751038D01*
X83800667Y-97751036D01*
X83796253Y-97746134D01*
X83641752Y-97633882D01*
X83635724Y-97631198D01*
X83635722Y-97631197D01*
X83473319Y-97558891D01*
X83473318Y-97558891D01*
X83467288Y-97556206D01*
X83373888Y-97536353D01*
X83286944Y-97517872D01*
X83286939Y-97517872D01*
X83280487Y-97516500D01*
X83089513Y-97516500D01*
X83083061Y-97517872D01*
X83083056Y-97517872D01*
X82996112Y-97536353D01*
X82902712Y-97556206D01*
X82896682Y-97558891D01*
X82896681Y-97558891D01*
X82734278Y-97631197D01*
X82734276Y-97631198D01*
X82728248Y-97633882D01*
X82573747Y-97746134D01*
X82445960Y-97888056D01*
X82350473Y-98053444D01*
X82291458Y-98235072D01*
X82271496Y-98425000D01*
X82272186Y-98431565D01*
X82276681Y-98474328D01*
X82291458Y-98614928D01*
X82350473Y-98796556D01*
X82445960Y-98961944D01*
X82450378Y-98966851D01*
X82450379Y-98966852D01*
X82546831Y-99073973D01*
X82573747Y-99103866D01*
X82728248Y-99216118D01*
X82734276Y-99218802D01*
X82734278Y-99218803D01*
X82889658Y-99287982D01*
X82902712Y-99293794D01*
X82996112Y-99313647D01*
X83083056Y-99332128D01*
X83083061Y-99332128D01*
X83089513Y-99333500D01*
X83280487Y-99333500D01*
X83286939Y-99332128D01*
X83286944Y-99332128D01*
X83373888Y-99313647D01*
X83467288Y-99293794D01*
X83480342Y-99287982D01*
X83635722Y-99218803D01*
X83635724Y-99218802D01*
X83641752Y-99216118D01*
X83712212Y-99164926D01*
X83789213Y-99108981D01*
X83796253Y-99103866D01*
X83800667Y-99098964D01*
X83804112Y-99095862D01*
X83868120Y-99065146D01*
X83888420Y-99063500D01*
X84141791Y-99063500D01*
X84209912Y-99083502D01*
X84256405Y-99137158D01*
X84266509Y-99207432D01*
X84237015Y-99272012D01*
X84230886Y-99278596D01*
X83343231Y-100166250D01*
X83334952Y-100173784D01*
X83328471Y-100177897D01*
X83287820Y-100221186D01*
X83281846Y-100227548D01*
X83279091Y-100230390D01*
X83259354Y-100250127D01*
X83256874Y-100253324D01*
X83249171Y-100262344D01*
X83218903Y-100294576D01*
X83215084Y-100301522D01*
X83215082Y-100301525D01*
X83209141Y-100312331D01*
X83198290Y-100328850D01*
X83185875Y-100344856D01*
X83182730Y-100352125D01*
X83182727Y-100352129D01*
X83168315Y-100385434D01*
X83163098Y-100396084D01*
X83141794Y-100434837D01*
X83139823Y-100442512D01*
X83139823Y-100442513D01*
X83136756Y-100454459D01*
X83130352Y-100473163D01*
X83122308Y-100491752D01*
X83121069Y-100499575D01*
X83121066Y-100499585D01*
X83115390Y-100535421D01*
X83112984Y-100547041D01*
X83101989Y-100589867D01*
X83101989Y-100610121D01*
X83100438Y-100629831D01*
X83097269Y-100649840D01*
X83098015Y-100657732D01*
X83101430Y-100693858D01*
X83101989Y-100705716D01*
X83101989Y-101629347D01*
X83082228Y-101696648D01*
X83080960Y-101698056D01*
X82985473Y-101863444D01*
X82926458Y-102045072D01*
X82925769Y-102051631D01*
X82925768Y-102051634D01*
X82908789Y-102213182D01*
X82881776Y-102278838D01*
X82823554Y-102319468D01*
X82783479Y-102326011D01*
X81433796Y-102326011D01*
X81365675Y-102306009D01*
X81340160Y-102284322D01*
X81260668Y-102196037D01*
X81260666Y-102196036D01*
X81256253Y-102191134D01*
X81101752Y-102078882D01*
X81095724Y-102076198D01*
X81095722Y-102076197D01*
X80933319Y-102003891D01*
X80933318Y-102003891D01*
X80927288Y-102001206D01*
X80833887Y-101981353D01*
X80746944Y-101962872D01*
X80746939Y-101962872D01*
X80740487Y-101961500D01*
X80549513Y-101961500D01*
X80543061Y-101962872D01*
X80543056Y-101962872D01*
X80456112Y-101981353D01*
X80362712Y-102001206D01*
X80356682Y-102003891D01*
X80356681Y-102003891D01*
X80194278Y-102076197D01*
X80194276Y-102076198D01*
X80188248Y-102078882D01*
X80033747Y-102191134D01*
X79905960Y-102333056D01*
X79810473Y-102498444D01*
X79751458Y-102680072D01*
X79731496Y-102870000D01*
X79732186Y-102876565D01*
X79749541Y-103041685D01*
X79751458Y-103059928D01*
X79810473Y-103241556D01*
X79813776Y-103247278D01*
X79813777Y-103247279D01*
X79830886Y-103276913D01*
X79905960Y-103406944D01*
X79910378Y-103411851D01*
X79910379Y-103411852D01*
X80003682Y-103515475D01*
X80033747Y-103548866D01*
X80188248Y-103661118D01*
X80194276Y-103663802D01*
X80194278Y-103663803D01*
X80356681Y-103736109D01*
X80362712Y-103738794D01*
X80456112Y-103758647D01*
X80543056Y-103777128D01*
X80543061Y-103777128D01*
X80549513Y-103778500D01*
X80740487Y-103778500D01*
X80746939Y-103777128D01*
X80746944Y-103777128D01*
X80833887Y-103758647D01*
X80927288Y-103738794D01*
X80933319Y-103736109D01*
X81095722Y-103663803D01*
X81095724Y-103663802D01*
X81101752Y-103661118D01*
X81162372Y-103617075D01*
X81236433Y-103593011D01*
X81568320Y-103593011D01*
X81636441Y-103613013D01*
X81682934Y-103666669D01*
X81693038Y-103736943D01*
X81663544Y-103801523D01*
X81619569Y-103834118D01*
X81604767Y-103840708D01*
X81604765Y-103840709D01*
X81598737Y-103843393D01*
X81444236Y-103955645D01*
X81439815Y-103960555D01*
X81439814Y-103960556D01*
X81371681Y-104036226D01*
X81316449Y-104097567D01*
X81220962Y-104262955D01*
X81161947Y-104444583D01*
X81161257Y-104451144D01*
X81161257Y-104451146D01*
X81154420Y-104516198D01*
X81141985Y-104634511D01*
X81142675Y-104641076D01*
X81160505Y-104810716D01*
X81161947Y-104824439D01*
X81220962Y-105006067D01*
X81224265Y-105011789D01*
X81224266Y-105011790D01*
X81242748Y-105043802D01*
X81316449Y-105171455D01*
X81320867Y-105176362D01*
X81320868Y-105176363D01*
X81428770Y-105296200D01*
X81444236Y-105313377D01*
X81598737Y-105425629D01*
X81604765Y-105428313D01*
X81604767Y-105428314D01*
X81765241Y-105499761D01*
X81773201Y-105503305D01*
X81863158Y-105522426D01*
X81953545Y-105541639D01*
X81953550Y-105541639D01*
X81960002Y-105543011D01*
X82150976Y-105543011D01*
X82157428Y-105541639D01*
X82157433Y-105541639D01*
X82247820Y-105522426D01*
X82337777Y-105503305D01*
X82345737Y-105499761D01*
X82506211Y-105428314D01*
X82506213Y-105428313D01*
X82512241Y-105425629D01*
X82549942Y-105398238D01*
X82653916Y-105322696D01*
X82666742Y-105313377D01*
X82671157Y-105308474D01*
X82676069Y-105304051D01*
X82677194Y-105305300D01*
X82730503Y-105272460D01*
X82763689Y-105268011D01*
X92065765Y-105268011D01*
X92133886Y-105288013D01*
X92180379Y-105341669D01*
X92190483Y-105411943D01*
X92179960Y-105447260D01*
X92113041Y-105590770D01*
X92110716Y-105595757D01*
X92109294Y-105601065D01*
X92109293Y-105601067D01*
X92059972Y-105785135D01*
X92051457Y-105816913D01*
X92031502Y-106045000D01*
X92051457Y-106273087D01*
X92052881Y-106278400D01*
X92052881Y-106278402D01*
X92103791Y-106468397D01*
X92110716Y-106494243D01*
X92113039Y-106499224D01*
X92113039Y-106499225D01*
X92205151Y-106696762D01*
X92205154Y-106696767D01*
X92207477Y-106701749D01*
X92260729Y-106777801D01*
X92323360Y-106867246D01*
X92338802Y-106889300D01*
X92500700Y-107051198D01*
X92505208Y-107054355D01*
X92505211Y-107054357D01*
X92546195Y-107083054D01*
X92688251Y-107182523D01*
X92693233Y-107184846D01*
X92693238Y-107184849D01*
X92727457Y-107200805D01*
X92780742Y-107247722D01*
X92800203Y-107315999D01*
X92779661Y-107383959D01*
X92727457Y-107429195D01*
X92693238Y-107445151D01*
X92693233Y-107445154D01*
X92688251Y-107447477D01*
X92606457Y-107504750D01*
X92505211Y-107575643D01*
X92505208Y-107575645D01*
X92500700Y-107578802D01*
X92338802Y-107740700D01*
X92335645Y-107745208D01*
X92335643Y-107745211D01*
X92301563Y-107793882D01*
X92207477Y-107928251D01*
X92205154Y-107933233D01*
X92205151Y-107933238D01*
X92128130Y-108098412D01*
X92110716Y-108135757D01*
X92109294Y-108141065D01*
X92109293Y-108141067D01*
X92053034Y-108351026D01*
X92051457Y-108356913D01*
X92031502Y-108585000D01*
X92051457Y-108813087D01*
X92052881Y-108818400D01*
X92052881Y-108818402D01*
X92103791Y-109008397D01*
X92110716Y-109034243D01*
X92113039Y-109039225D01*
X92113041Y-109039230D01*
X92114448Y-109042247D01*
X92114669Y-109043704D01*
X92114922Y-109044398D01*
X92114782Y-109044449D01*
X92125111Y-109112438D01*
X92096133Y-109177252D01*
X92036715Y-109216110D01*
X92000255Y-109221500D01*
X84769594Y-109221500D01*
X84701473Y-109201498D01*
X84680499Y-109184595D01*
X79414152Y-103918248D01*
X79380126Y-103855936D01*
X79381541Y-103796541D01*
X79397118Y-103738409D01*
X79397120Y-103738398D01*
X79398543Y-103733087D01*
X79418498Y-103505000D01*
X79398543Y-103276913D01*
X79378884Y-103203546D01*
X79340707Y-103061067D01*
X79340706Y-103061065D01*
X79339284Y-103055757D01*
X79325463Y-103026118D01*
X79244849Y-102853238D01*
X79244846Y-102853233D01*
X79242523Y-102848251D01*
X79129358Y-102686635D01*
X79114357Y-102665211D01*
X79114355Y-102665208D01*
X79111198Y-102660700D01*
X78949300Y-102498802D01*
X78944792Y-102495645D01*
X78944789Y-102495643D01*
X78834424Y-102418365D01*
X78761749Y-102367477D01*
X78756767Y-102365154D01*
X78756762Y-102365151D01*
X78559225Y-102273039D01*
X78559224Y-102273039D01*
X78554243Y-102270716D01*
X78548935Y-102269294D01*
X78548933Y-102269293D01*
X78338402Y-102212881D01*
X78338400Y-102212881D01*
X78333087Y-102211457D01*
X78105000Y-102191502D01*
X77876913Y-102211457D01*
X77871600Y-102212881D01*
X77871598Y-102212881D01*
X77661067Y-102269293D01*
X77661065Y-102269294D01*
X77655757Y-102270716D01*
X77650776Y-102273039D01*
X77650775Y-102273039D01*
X77453238Y-102365151D01*
X77453233Y-102365154D01*
X77448251Y-102367477D01*
X77375576Y-102418365D01*
X77265211Y-102495643D01*
X77265208Y-102495645D01*
X77260700Y-102498802D01*
X77098802Y-102660700D01*
X77095645Y-102665208D01*
X77095643Y-102665211D01*
X77080642Y-102686635D01*
X76967477Y-102848251D01*
X76965154Y-102853233D01*
X76965151Y-102853238D01*
X76884537Y-103026118D01*
X76870716Y-103055757D01*
X76869294Y-103061065D01*
X76869293Y-103061067D01*
X76831116Y-103203546D01*
X76811457Y-103276913D01*
X76791502Y-103505000D01*
X76811457Y-103733087D01*
X76812881Y-103738400D01*
X76812881Y-103738402D01*
X76863791Y-103928397D01*
X76870716Y-103954243D01*
X76873039Y-103959224D01*
X76873039Y-103959225D01*
X76965151Y-104156762D01*
X76965154Y-104156767D01*
X76967477Y-104161749D01*
X77034335Y-104257232D01*
X77063444Y-104298803D01*
X77098802Y-104349300D01*
X77260700Y-104511198D01*
X77265208Y-104514355D01*
X77265211Y-104514357D01*
X77272352Y-104519357D01*
X77448251Y-104642523D01*
X77453233Y-104644846D01*
X77453238Y-104644849D01*
X77487457Y-104660805D01*
X77540742Y-104707722D01*
X77560203Y-104775999D01*
X77539661Y-104843959D01*
X77487457Y-104889195D01*
X77453238Y-104905151D01*
X77453233Y-104905154D01*
X77448251Y-104907477D01*
X77371728Y-104961059D01*
X77265211Y-105035643D01*
X77265208Y-105035645D01*
X77260700Y-105038802D01*
X77098802Y-105200700D01*
X77095645Y-105205208D01*
X77095643Y-105205211D01*
X77069854Y-105242042D01*
X76967477Y-105388251D01*
X76965154Y-105393233D01*
X76965151Y-105393238D01*
X76888360Y-105557918D01*
X76870716Y-105595757D01*
X76869294Y-105601065D01*
X76869293Y-105601067D01*
X76819972Y-105785135D01*
X76811457Y-105816913D01*
X76791502Y-106045000D01*
X76811457Y-106273087D01*
X76812881Y-106278400D01*
X76812881Y-106278402D01*
X76863791Y-106468397D01*
X76870716Y-106494243D01*
X76873039Y-106499224D01*
X76873039Y-106499225D01*
X76965151Y-106696762D01*
X76965154Y-106696767D01*
X76967477Y-106701749D01*
X77020729Y-106777801D01*
X77083360Y-106867246D01*
X77098802Y-106889300D01*
X77260700Y-107051198D01*
X77265208Y-107054355D01*
X77265211Y-107054357D01*
X77306195Y-107083054D01*
X77448251Y-107182523D01*
X77453233Y-107184846D01*
X77453238Y-107184849D01*
X77487457Y-107200805D01*
X77540742Y-107247722D01*
X77560203Y-107315999D01*
X77539661Y-107383959D01*
X77487457Y-107429195D01*
X77453238Y-107445151D01*
X77453233Y-107445154D01*
X77448251Y-107447477D01*
X77366457Y-107504750D01*
X77265211Y-107575643D01*
X77265208Y-107575645D01*
X77260700Y-107578802D01*
X77098802Y-107740700D01*
X77095645Y-107745208D01*
X77095643Y-107745211D01*
X77061563Y-107793882D01*
X76967477Y-107928251D01*
X76965154Y-107933233D01*
X76965151Y-107933238D01*
X76888130Y-108098412D01*
X76870716Y-108135757D01*
X76869294Y-108141065D01*
X76869293Y-108141067D01*
X76813034Y-108351026D01*
X76811457Y-108356913D01*
X76791502Y-108585000D01*
X76811457Y-108813087D01*
X76812881Y-108818400D01*
X76812881Y-108818402D01*
X76863791Y-109008397D01*
X76870716Y-109034243D01*
X76873039Y-109039224D01*
X76873039Y-109039225D01*
X76965151Y-109236762D01*
X76965154Y-109236767D01*
X76967477Y-109241749D01*
X77040902Y-109346611D01*
X77088531Y-109414631D01*
X77098802Y-109429300D01*
X77260700Y-109591198D01*
X77265208Y-109594355D01*
X77265211Y-109594357D01*
X77307390Y-109623891D01*
X77448251Y-109722523D01*
X77453233Y-109724846D01*
X77453238Y-109724849D01*
X77487457Y-109740805D01*
X77540742Y-109787722D01*
X77560203Y-109855999D01*
X77539661Y-109923959D01*
X77487457Y-109969195D01*
X77453238Y-109985151D01*
X77453233Y-109985154D01*
X77448251Y-109987477D01*
X77371728Y-110041059D01*
X77265211Y-110115643D01*
X77265208Y-110115645D01*
X77260700Y-110118802D01*
X77098802Y-110280700D01*
X77095645Y-110285208D01*
X77095643Y-110285211D01*
X77061755Y-110333608D01*
X76967477Y-110468251D01*
X76965154Y-110473233D01*
X76965151Y-110473238D01*
X76876745Y-110662828D01*
X76870716Y-110675757D01*
X76869294Y-110681065D01*
X76869293Y-110681067D01*
X76825980Y-110842714D01*
X76811457Y-110896913D01*
X76791502Y-111125000D01*
X76811457Y-111353087D01*
X76812881Y-111358400D01*
X76812881Y-111358402D01*
X76865934Y-111556395D01*
X76870716Y-111574243D01*
X76873039Y-111579224D01*
X76873039Y-111579225D01*
X76965151Y-111776762D01*
X76965154Y-111776767D01*
X76967477Y-111781749D01*
X77027692Y-111867744D01*
X77091920Y-111959471D01*
X77098802Y-111969300D01*
X77260700Y-112131198D01*
X77265208Y-112134355D01*
X77265211Y-112134357D01*
X77307390Y-112163891D01*
X77448251Y-112262523D01*
X77453233Y-112264846D01*
X77453238Y-112264849D01*
X77487457Y-112280805D01*
X77540742Y-112327722D01*
X77560203Y-112395999D01*
X77539661Y-112463959D01*
X77487457Y-112509195D01*
X77453238Y-112525151D01*
X77453233Y-112525154D01*
X77448251Y-112527477D01*
X77371728Y-112581059D01*
X77265211Y-112655643D01*
X77265208Y-112655645D01*
X77260700Y-112658802D01*
X77098802Y-112820700D01*
X77095645Y-112825208D01*
X77095643Y-112825211D01*
X77080643Y-112846634D01*
X76967477Y-113008251D01*
X76965154Y-113013233D01*
X76965151Y-113013238D01*
X76878534Y-113198991D01*
X76870716Y-113215757D01*
X76869294Y-113221065D01*
X76869293Y-113221067D01*
X76827120Y-113378459D01*
X76811457Y-113436913D01*
X76791502Y-113665000D01*
X76811457Y-113893087D01*
X76812881Y-113898400D01*
X76812881Y-113898402D01*
X76865934Y-114096395D01*
X76870716Y-114114243D01*
X76873039Y-114119224D01*
X76873039Y-114119225D01*
X76965151Y-114316762D01*
X76965154Y-114316767D01*
X76967477Y-114321749D01*
X76999641Y-114367684D01*
X77085238Y-114489928D01*
X77098802Y-114509300D01*
X77260700Y-114671198D01*
X77265208Y-114674355D01*
X77265211Y-114674357D01*
X77307390Y-114703891D01*
X77448251Y-114802523D01*
X77453233Y-114804846D01*
X77453238Y-114804849D01*
X77487457Y-114820805D01*
X77540742Y-114867722D01*
X77560203Y-114935999D01*
X77539661Y-115003959D01*
X77487457Y-115049195D01*
X77453238Y-115065151D01*
X77453233Y-115065154D01*
X77448251Y-115067477D01*
X77375576Y-115118365D01*
X77265211Y-115195643D01*
X77265208Y-115195645D01*
X77260700Y-115198802D01*
X77098802Y-115360700D01*
X77095645Y-115365208D01*
X77095643Y-115365211D01*
X77080643Y-115386634D01*
X76967477Y-115548251D01*
X76965154Y-115553233D01*
X76965151Y-115553238D01*
X76888130Y-115718412D01*
X76870716Y-115755757D01*
X76869294Y-115761065D01*
X76869293Y-115761067D01*
X76827030Y-115918795D01*
X76811457Y-115976913D01*
X76791502Y-116205000D01*
X76811457Y-116433087D01*
X76812880Y-116438399D01*
X76812881Y-116438402D01*
X76865934Y-116636395D01*
X76870716Y-116654243D01*
X76873039Y-116659224D01*
X76873039Y-116659225D01*
X76965151Y-116856762D01*
X76965154Y-116856767D01*
X76967477Y-116861749D01*
X76999857Y-116907992D01*
X77085238Y-117029928D01*
X77098802Y-117049300D01*
X77260700Y-117211198D01*
X77265208Y-117214355D01*
X77265211Y-117214357D01*
X77307390Y-117243891D01*
X77448251Y-117342523D01*
X77453233Y-117344846D01*
X77453238Y-117344849D01*
X77487457Y-117360805D01*
X77540742Y-117407722D01*
X77560203Y-117475999D01*
X77539661Y-117543959D01*
X77487457Y-117589195D01*
X77453238Y-117605151D01*
X77453233Y-117605154D01*
X77448251Y-117607477D01*
X77375574Y-117658366D01*
X77265211Y-117735643D01*
X77265208Y-117735645D01*
X77260700Y-117738802D01*
X77098802Y-117900700D01*
X77095645Y-117905208D01*
X77095643Y-117905211D01*
X77058699Y-117957973D01*
X76967477Y-118088251D01*
X76965154Y-118093233D01*
X76965151Y-118093238D01*
X76885404Y-118264258D01*
X76870716Y-118295757D01*
X76869294Y-118301065D01*
X76869293Y-118301067D01*
X76827030Y-118458795D01*
X76811457Y-118516913D01*
X76791502Y-118745000D01*
X76811457Y-118973087D01*
X76812880Y-118978399D01*
X76812881Y-118978402D01*
X76865934Y-119176395D01*
X76870716Y-119194243D01*
X76873039Y-119199224D01*
X76873039Y-119199225D01*
X76965151Y-119396762D01*
X76965154Y-119396767D01*
X76967477Y-119401749D01*
X77006212Y-119457068D01*
X77091920Y-119579471D01*
X77098802Y-119589300D01*
X77260700Y-119751198D01*
X77265208Y-119754355D01*
X77265211Y-119754357D01*
X77291618Y-119772847D01*
X77448251Y-119882523D01*
X77453233Y-119884846D01*
X77453238Y-119884849D01*
X77487457Y-119900805D01*
X77540742Y-119947722D01*
X77560203Y-120015999D01*
X77539661Y-120083959D01*
X77487457Y-120129195D01*
X77453238Y-120145151D01*
X77453233Y-120145154D01*
X77448251Y-120147477D01*
X77371728Y-120201059D01*
X77265211Y-120275643D01*
X77265208Y-120275645D01*
X77260700Y-120278802D01*
X77098802Y-120440700D01*
X77095645Y-120445208D01*
X77095643Y-120445211D01*
X77061563Y-120493882D01*
X76967477Y-120628251D01*
X76965154Y-120633233D01*
X76965151Y-120633238D01*
X76875475Y-120825551D01*
X76870716Y-120835757D01*
X76869294Y-120841065D01*
X76869293Y-120841067D01*
X76827030Y-120998795D01*
X76811457Y-121056913D01*
X76791502Y-121285000D01*
X76811457Y-121513087D01*
X76812881Y-121518400D01*
X76812881Y-121518402D01*
X76864710Y-121711827D01*
X76870716Y-121734243D01*
X76873039Y-121739224D01*
X76873039Y-121739225D01*
X76965151Y-121936762D01*
X76965154Y-121936767D01*
X76967477Y-121941749D01*
X76998919Y-121986652D01*
X77085238Y-122109928D01*
X77098802Y-122129300D01*
X77260700Y-122291198D01*
X77265208Y-122294355D01*
X77265211Y-122294357D01*
X77291618Y-122312847D01*
X77448251Y-122422523D01*
X77453233Y-122424846D01*
X77453238Y-122424849D01*
X77487457Y-122440805D01*
X77540742Y-122487722D01*
X77560203Y-122555999D01*
X77539661Y-122623959D01*
X77487457Y-122669195D01*
X77453238Y-122685151D01*
X77453233Y-122685154D01*
X77448251Y-122687477D01*
X77371728Y-122741059D01*
X77265211Y-122815643D01*
X77265208Y-122815645D01*
X77260700Y-122818802D01*
X77098802Y-122980700D01*
X77095645Y-122985208D01*
X77095643Y-122985211D01*
X77061563Y-123033882D01*
X76967477Y-123168251D01*
X76965154Y-123173233D01*
X76965151Y-123173238D01*
X76888130Y-123338412D01*
X76870716Y-123375757D01*
X76869294Y-123381065D01*
X76869293Y-123381067D01*
X76827030Y-123538795D01*
X76811457Y-123596913D01*
X76791502Y-123825000D01*
X76811457Y-124053087D01*
X76812880Y-124058399D01*
X76812881Y-124058402D01*
X76865934Y-124256395D01*
X76870716Y-124274243D01*
X76873039Y-124279224D01*
X76873039Y-124279225D01*
X76965151Y-124476762D01*
X76965154Y-124476767D01*
X76967477Y-124481749D01*
X76999089Y-124526895D01*
X77085238Y-124649928D01*
X77098802Y-124669300D01*
X77260700Y-124831198D01*
X77265208Y-124834355D01*
X77265211Y-124834357D01*
X77291618Y-124852847D01*
X77448251Y-124962523D01*
X77453233Y-124964846D01*
X77453238Y-124964849D01*
X77487457Y-124980805D01*
X77540742Y-125027722D01*
X77560203Y-125095999D01*
X77539661Y-125163959D01*
X77487457Y-125209195D01*
X77453238Y-125225151D01*
X77453233Y-125225154D01*
X77448251Y-125227477D01*
X77375576Y-125278365D01*
X77265211Y-125355643D01*
X77265208Y-125355645D01*
X77260700Y-125358802D01*
X77098802Y-125520700D01*
X77095645Y-125525208D01*
X77095643Y-125525211D01*
X77061563Y-125573882D01*
X76967477Y-125708251D01*
X76965154Y-125713233D01*
X76965151Y-125713238D01*
X76887197Y-125880413D01*
X76870716Y-125915757D01*
X76869294Y-125921065D01*
X76869293Y-125921067D01*
X76827030Y-126078795D01*
X76811457Y-126136913D01*
X76791502Y-126365000D01*
X76811457Y-126593087D01*
X76812881Y-126598400D01*
X76812881Y-126598402D01*
X76865934Y-126796395D01*
X76870716Y-126814243D01*
X76873039Y-126819224D01*
X76873039Y-126819225D01*
X76965151Y-127016762D01*
X76965154Y-127016767D01*
X76967477Y-127021749D01*
X77029061Y-127109700D01*
X77085238Y-127189928D01*
X77098802Y-127209300D01*
X77260700Y-127371198D01*
X77265208Y-127374355D01*
X77265211Y-127374357D01*
X77291618Y-127392847D01*
X77448251Y-127502523D01*
X77453233Y-127504846D01*
X77453238Y-127504849D01*
X77487457Y-127520805D01*
X77540742Y-127567722D01*
X77560203Y-127635999D01*
X77539661Y-127703959D01*
X77487457Y-127749195D01*
X77453238Y-127765151D01*
X77453233Y-127765154D01*
X77448251Y-127767477D01*
X77371728Y-127821059D01*
X77265211Y-127895643D01*
X77265208Y-127895645D01*
X77260700Y-127898802D01*
X77098802Y-128060700D01*
X76967477Y-128248251D01*
X76965154Y-128253233D01*
X76965151Y-128253238D01*
X76878534Y-128438991D01*
X76870716Y-128455757D01*
X76869294Y-128461065D01*
X76869293Y-128461067D01*
X76827030Y-128618795D01*
X76811457Y-128676913D01*
X76791502Y-128905000D01*
X76811457Y-129133087D01*
X76812880Y-129138399D01*
X76812881Y-129138402D01*
X76868713Y-129346766D01*
X76870716Y-129354243D01*
X76873039Y-129359224D01*
X76873039Y-129359225D01*
X76965151Y-129556762D01*
X76965154Y-129556767D01*
X76967477Y-129561749D01*
X77024912Y-129643774D01*
X77083360Y-129727246D01*
X77098802Y-129749300D01*
X77260700Y-129911198D01*
X77265208Y-129914355D01*
X77265211Y-129914357D01*
X77291618Y-129932847D01*
X77448251Y-130042523D01*
X77453233Y-130044846D01*
X77453238Y-130044849D01*
X77487457Y-130060805D01*
X77540742Y-130107722D01*
X77560203Y-130175999D01*
X77539661Y-130243959D01*
X77487457Y-130289195D01*
X77453238Y-130305151D01*
X77453233Y-130305154D01*
X77448251Y-130307477D01*
X77375576Y-130358365D01*
X77265211Y-130435643D01*
X77265208Y-130435645D01*
X77260700Y-130438802D01*
X77098802Y-130600700D01*
X76967477Y-130788251D01*
X76965154Y-130793233D01*
X76965151Y-130793238D01*
X76878534Y-130978991D01*
X76870716Y-130995757D01*
X76869294Y-131001065D01*
X76869293Y-131001067D01*
X76827030Y-131158795D01*
X76811457Y-131216913D01*
X76791502Y-131445000D01*
X76811457Y-131673087D01*
X76812881Y-131678400D01*
X76812881Y-131678402D01*
X76863791Y-131868397D01*
X76870716Y-131894243D01*
X76873039Y-131899224D01*
X76873039Y-131899225D01*
X76965151Y-132096762D01*
X76965154Y-132096767D01*
X76967477Y-132101749D01*
X77040902Y-132206611D01*
X77088531Y-132274631D01*
X77098802Y-132289300D01*
X77260700Y-132451198D01*
X77265208Y-132454355D01*
X77265211Y-132454357D01*
X77307390Y-132483891D01*
X77448251Y-132582523D01*
X77453233Y-132584846D01*
X77453238Y-132584849D01*
X77487457Y-132600805D01*
X77540742Y-132647722D01*
X77560203Y-132715999D01*
X77539661Y-132783959D01*
X77487457Y-132829195D01*
X77453238Y-132845151D01*
X77453233Y-132845154D01*
X77448251Y-132847477D01*
X77371728Y-132901059D01*
X77265211Y-132975643D01*
X77265208Y-132975645D01*
X77260700Y-132978802D01*
X77098802Y-133140700D01*
X77095645Y-133145208D01*
X77095643Y-133145211D01*
X77080642Y-133166635D01*
X76967477Y-133328251D01*
X76965154Y-133333233D01*
X76965151Y-133333238D01*
X76897972Y-133477306D01*
X76870716Y-133535757D01*
X76869294Y-133541065D01*
X76869293Y-133541067D01*
X76827030Y-133698795D01*
X76811457Y-133756913D01*
X76791502Y-133985000D01*
X74803000Y-133985000D01*
X74803000Y-98557703D01*
X75995743Y-98557703D01*
X76033268Y-98842734D01*
X76109129Y-99120036D01*
X76110813Y-99123984D01*
X76200180Y-99333500D01*
X76221923Y-99384476D01*
X76254538Y-99438972D01*
X76329325Y-99563931D01*
X76369561Y-99631161D01*
X76549313Y-99855528D01*
X76757851Y-100053423D01*
X76991317Y-100221186D01*
X76995112Y-100223195D01*
X76995113Y-100223196D01*
X77016869Y-100234715D01*
X77245392Y-100355712D01*
X77355744Y-100396095D01*
X77429670Y-100423148D01*
X77515373Y-100454511D01*
X77796264Y-100515755D01*
X77824841Y-100518004D01*
X78019282Y-100533307D01*
X78019291Y-100533307D01*
X78021739Y-100533500D01*
X78177271Y-100533500D01*
X78179407Y-100533354D01*
X78179418Y-100533354D01*
X78387548Y-100519165D01*
X78387554Y-100519164D01*
X78391825Y-100518873D01*
X78396020Y-100518004D01*
X78396022Y-100518004D01*
X78557918Y-100484477D01*
X78673342Y-100460574D01*
X78944343Y-100364607D01*
X79045626Y-100312331D01*
X79196005Y-100234715D01*
X79196006Y-100234715D01*
X79199812Y-100232750D01*
X79203313Y-100230289D01*
X79203317Y-100230287D01*
X79352129Y-100125700D01*
X79435023Y-100067441D01*
X79645622Y-99871740D01*
X79827713Y-99649268D01*
X79977927Y-99404142D01*
X80093483Y-99140898D01*
X80095036Y-99135448D01*
X80143061Y-98966852D01*
X80172244Y-98864406D01*
X80212751Y-98579784D01*
X80212845Y-98561951D01*
X80214235Y-98296583D01*
X80214235Y-98296576D01*
X80214257Y-98292297D01*
X80176732Y-98007266D01*
X80100871Y-97729964D01*
X80058743Y-97631197D01*
X79989763Y-97469476D01*
X79989761Y-97469472D01*
X79988077Y-97465524D01*
X79840439Y-97218839D01*
X79660687Y-96994472D01*
X79480728Y-96823697D01*
X79455258Y-96799527D01*
X79455255Y-96799525D01*
X79452149Y-96796577D01*
X79218683Y-96628814D01*
X79196843Y-96617250D01*
X79158138Y-96596757D01*
X78964608Y-96494288D01*
X78694627Y-96395489D01*
X78413736Y-96334245D01*
X78382685Y-96331801D01*
X78190718Y-96316693D01*
X78190709Y-96316693D01*
X78188261Y-96316500D01*
X78032729Y-96316500D01*
X78030593Y-96316646D01*
X78030582Y-96316646D01*
X77822452Y-96330835D01*
X77822446Y-96330836D01*
X77818175Y-96331127D01*
X77813980Y-96331996D01*
X77813978Y-96331996D01*
X77677417Y-96360276D01*
X77536658Y-96389426D01*
X77265657Y-96485393D01*
X77261848Y-96487359D01*
X77035734Y-96604065D01*
X77010188Y-96617250D01*
X77006687Y-96619711D01*
X77006683Y-96619713D01*
X76996594Y-96626804D01*
X76774977Y-96782559D01*
X76759892Y-96796577D01*
X76645019Y-96903324D01*
X76564378Y-96978260D01*
X76382287Y-97200732D01*
X76232073Y-97445858D01*
X76116517Y-97709102D01*
X76115342Y-97713229D01*
X76115341Y-97713230D01*
X76094864Y-97785114D01*
X76037756Y-97985594D01*
X75997249Y-98270216D01*
X75997227Y-98274505D01*
X75997226Y-98274512D01*
X75995765Y-98553417D01*
X75995743Y-98557703D01*
X74803000Y-98557703D01*
X74803000Y-98474328D01*
X74804500Y-98454943D01*
X74806805Y-98440142D01*
X74806805Y-98440139D01*
X74808186Y-98431270D01*
X74805743Y-98412589D01*
X74804852Y-98389657D01*
X74820743Y-98086446D01*
X74822121Y-98073329D01*
X74825271Y-98053444D01*
X74874123Y-97744998D01*
X74876865Y-97732098D01*
X74962903Y-97411000D01*
X74966979Y-97398456D01*
X74969572Y-97391703D01*
X75086105Y-97088124D01*
X75091469Y-97076076D01*
X75242388Y-96779880D01*
X75248982Y-96768459D01*
X75430033Y-96489666D01*
X75437779Y-96479004D01*
X75459910Y-96451675D01*
X75646985Y-96220655D01*
X75655810Y-96210855D01*
X75890855Y-95975810D01*
X75900656Y-95966984D01*
X75992522Y-95892593D01*
X76159008Y-95757776D01*
X76169666Y-95750033D01*
X76448464Y-95568979D01*
X76459880Y-95562388D01*
X76756076Y-95411469D01*
X76768124Y-95406105D01*
X76805642Y-95391703D01*
X77078464Y-95286977D01*
X77091000Y-95282903D01*
X77412098Y-95196865D01*
X77424998Y-95194123D01*
X77539581Y-95175975D01*
X77753335Y-95142120D01*
X77766443Y-95140743D01*
X78062334Y-95125236D01*
X78088312Y-95126564D01*
X78089856Y-95126805D01*
X78089860Y-95126805D01*
X78098730Y-95128186D01*
X78107632Y-95127022D01*
X78107635Y-95127022D01*
X78130251Y-95124064D01*
X78146589Y-95123000D01*
X111458715Y-95123000D01*
X111526836Y-95143002D01*
G37*
%TD.AperFunction*%
%TA.AperFunction,Conductor*%
G36*
X92026339Y-130973991D02*
G01*
X92072832Y-131027647D01*
X92082936Y-131097921D01*
X92079925Y-131112600D01*
X92063606Y-131173503D01*
X92063942Y-131187599D01*
X92071884Y-131191000D01*
X93473000Y-131191000D01*
X93541121Y-131211002D01*
X93587614Y-131264658D01*
X93599000Y-131317000D01*
X93599000Y-131573000D01*
X93578998Y-131641121D01*
X93525342Y-131687614D01*
X93473000Y-131699000D01*
X92077033Y-131699000D01*
X92063502Y-131702973D01*
X92062273Y-131711522D01*
X92109764Y-131888761D01*
X92113510Y-131899053D01*
X92205586Y-132096511D01*
X92211069Y-132106007D01*
X92336028Y-132284467D01*
X92343084Y-132292875D01*
X92497125Y-132446916D01*
X92505533Y-132453972D01*
X92683993Y-132578931D01*
X92693489Y-132584414D01*
X92728049Y-132600529D01*
X92781334Y-132647446D01*
X92800795Y-132715723D01*
X92780253Y-132783683D01*
X92728049Y-132828919D01*
X92693238Y-132845151D01*
X92693233Y-132845154D01*
X92688251Y-132847477D01*
X92611728Y-132901059D01*
X92505211Y-132975643D01*
X92505208Y-132975645D01*
X92500700Y-132978802D01*
X92338802Y-133140700D01*
X92335645Y-133145208D01*
X92335643Y-133145211D01*
X92320642Y-133166635D01*
X92207477Y-133328251D01*
X92205154Y-133333233D01*
X92205151Y-133333238D01*
X92137972Y-133477306D01*
X92110716Y-133535757D01*
X92109294Y-133541065D01*
X92109293Y-133541067D01*
X92067030Y-133698795D01*
X92051457Y-133756913D01*
X92031502Y-133985000D01*
X92051457Y-134213087D01*
X92052881Y-134218400D01*
X92052881Y-134218402D01*
X92103791Y-134408397D01*
X92110716Y-134434243D01*
X92113039Y-134439224D01*
X92113039Y-134439225D01*
X92205151Y-134636762D01*
X92205154Y-134636767D01*
X92207477Y-134641749D01*
X92280902Y-134746611D01*
X92328531Y-134814631D01*
X92338802Y-134829300D01*
X92500700Y-134991198D01*
X92505208Y-134994355D01*
X92505211Y-134994357D01*
X92512352Y-134999357D01*
X92688251Y-135122523D01*
X92693233Y-135124846D01*
X92693238Y-135124849D01*
X92727457Y-135140805D01*
X92780742Y-135187722D01*
X92800203Y-135255999D01*
X92779661Y-135323959D01*
X92727457Y-135369195D01*
X92693238Y-135385151D01*
X92693233Y-135385154D01*
X92688251Y-135387477D01*
X92611728Y-135441059D01*
X92505211Y-135515643D01*
X92505208Y-135515645D01*
X92500700Y-135518802D01*
X92338802Y-135680700D01*
X92335645Y-135685208D01*
X92335643Y-135685211D01*
X92301563Y-135733882D01*
X92207477Y-135868251D01*
X92205154Y-135873233D01*
X92205151Y-135873238D01*
X92124808Y-136045536D01*
X92110716Y-136075757D01*
X92109294Y-136081065D01*
X92109293Y-136081067D01*
X92065980Y-136242714D01*
X92051457Y-136296913D01*
X92031502Y-136525000D01*
X92051457Y-136753087D01*
X92052881Y-136758400D01*
X92052881Y-136758402D01*
X92103791Y-136948397D01*
X92110716Y-136974243D01*
X92113039Y-136979224D01*
X92113039Y-136979225D01*
X92205151Y-137176762D01*
X92205154Y-137176767D01*
X92207477Y-137181749D01*
X92280902Y-137286611D01*
X92323360Y-137347246D01*
X92338802Y-137369300D01*
X92500700Y-137531198D01*
X92505211Y-137534357D01*
X92509424Y-137537892D01*
X92508473Y-137539026D01*
X92548471Y-137589071D01*
X92555776Y-137659690D01*
X92523742Y-137723049D01*
X92462538Y-137759030D01*
X92445483Y-137762082D01*
X92434684Y-137763255D01*
X92298295Y-137814385D01*
X92181739Y-137901739D01*
X92094385Y-138018295D01*
X92043255Y-138154684D01*
X92036500Y-138216866D01*
X92036500Y-139835500D01*
X92016498Y-139903621D01*
X91962842Y-139950114D01*
X91910500Y-139961500D01*
X91909925Y-139961500D01*
X91841804Y-139941498D01*
X91820830Y-139924595D01*
X87469481Y-135573246D01*
X83065318Y-131169084D01*
X83031292Y-131106772D01*
X83036357Y-131035957D01*
X83078904Y-130979121D01*
X83145424Y-130954310D01*
X83154413Y-130953989D01*
X91958218Y-130953989D01*
X92026339Y-130973991D01*
G37*
%TD.AperFunction*%
%TA.AperFunction,Conductor*%
G36*
X121387549Y-127023502D02*
G01*
X121408523Y-127040405D01*
X122540854Y-128172736D01*
X122548398Y-128181026D01*
X122552511Y-128187507D01*
X122558288Y-128192932D01*
X122602178Y-128234147D01*
X122605020Y-128236902D01*
X122624742Y-128256624D01*
X122627866Y-128259047D01*
X122627870Y-128259051D01*
X122627935Y-128259101D01*
X122636956Y-128266806D01*
X122669190Y-128297075D01*
X122676138Y-128300894D01*
X122676140Y-128300896D01*
X122686943Y-128306835D01*
X122703470Y-128317691D01*
X122713209Y-128325246D01*
X122713211Y-128325247D01*
X122719471Y-128330103D01*
X122760051Y-128347663D01*
X122770699Y-128352880D01*
X122783216Y-128359761D01*
X122809451Y-128374184D01*
X122817127Y-128376155D01*
X122817130Y-128376156D01*
X122829073Y-128379222D01*
X122847778Y-128385626D01*
X122866366Y-128393670D01*
X122874189Y-128394909D01*
X122874199Y-128394912D01*
X122910035Y-128400588D01*
X122921655Y-128402994D01*
X122956800Y-128412017D01*
X122964481Y-128413989D01*
X122984735Y-128413989D01*
X123004445Y-128415540D01*
X123024454Y-128418709D01*
X123032346Y-128417963D01*
X123068472Y-128414548D01*
X123080330Y-128413989D01*
X123606311Y-128413989D01*
X123674432Y-128433991D01*
X123693658Y-128450332D01*
X123693931Y-128450029D01*
X123698843Y-128454452D01*
X123703258Y-128459355D01*
X123708597Y-128463234D01*
X123775554Y-128511881D01*
X123857759Y-128571607D01*
X123863787Y-128574291D01*
X123863789Y-128574292D01*
X124026192Y-128646598D01*
X124032223Y-128649283D01*
X124125624Y-128669136D01*
X124212567Y-128687617D01*
X124212572Y-128687617D01*
X124219024Y-128688989D01*
X124409998Y-128688989D01*
X124416450Y-128687617D01*
X124416455Y-128687617D01*
X124575769Y-128653753D01*
X124601966Y-128651000D01*
X126997967Y-128651000D01*
X127011498Y-128647027D01*
X127012727Y-128638478D01*
X126995075Y-128572600D01*
X126996765Y-128501623D01*
X127036559Y-128442828D01*
X127101824Y-128414880D01*
X127116782Y-128413989D01*
X131962701Y-128413989D01*
X132030822Y-128433991D01*
X132077315Y-128487647D01*
X132087419Y-128557921D01*
X132084410Y-128572593D01*
X132056457Y-128676913D01*
X132036502Y-128905000D01*
X132056457Y-129133087D01*
X132084408Y-129237399D01*
X132082718Y-129308376D01*
X132042924Y-129367172D01*
X131977660Y-129395120D01*
X131962701Y-129396011D01*
X127116782Y-129396011D01*
X127048661Y-129376009D01*
X127002168Y-129322353D01*
X126992064Y-129252079D01*
X126995075Y-129237400D01*
X127011394Y-129176497D01*
X127011058Y-129162401D01*
X127003116Y-129159000D01*
X124462033Y-129159000D01*
X124433798Y-129167291D01*
X124395937Y-129191622D01*
X124324940Y-129191622D01*
X124309191Y-129185833D01*
X124258812Y-129163403D01*
X124258804Y-129163400D01*
X124252777Y-129160717D01*
X124146312Y-129138087D01*
X124072433Y-129122383D01*
X124072428Y-129122383D01*
X124065976Y-129121011D01*
X123875002Y-129121011D01*
X123868550Y-129122383D01*
X123868545Y-129122383D01*
X123794666Y-129138087D01*
X123688201Y-129160717D01*
X123682171Y-129163402D01*
X123682170Y-129163402D01*
X123519767Y-129235708D01*
X123519765Y-129235709D01*
X123513737Y-129238393D01*
X123508396Y-129242273D01*
X123508395Y-129242274D01*
X123435713Y-129295081D01*
X123359236Y-129350645D01*
X123354821Y-129355548D01*
X123349909Y-129359971D01*
X123348784Y-129358722D01*
X123295475Y-129391562D01*
X123262289Y-129396011D01*
X121444105Y-129396011D01*
X121375984Y-129376009D01*
X121355010Y-129359106D01*
X121319152Y-129323248D01*
X121285126Y-129260936D01*
X121286541Y-129201541D01*
X121302118Y-129143409D01*
X121302120Y-129143398D01*
X121303543Y-129138087D01*
X121323498Y-128910000D01*
X121303543Y-128681913D01*
X121300779Y-128671598D01*
X121245707Y-128466067D01*
X121245706Y-128466065D01*
X121244284Y-128460757D01*
X121241961Y-128455775D01*
X121149849Y-128258238D01*
X121149846Y-128258233D01*
X121147523Y-128253251D01*
X121044134Y-128105597D01*
X121019357Y-128070211D01*
X121019355Y-128070208D01*
X121016198Y-128065700D01*
X120854300Y-127903802D01*
X120849792Y-127900645D01*
X120849789Y-127900643D01*
X120729793Y-127816621D01*
X120666749Y-127772477D01*
X120661767Y-127770154D01*
X120661762Y-127770151D01*
X120627543Y-127754195D01*
X120574258Y-127707278D01*
X120554797Y-127639001D01*
X120575339Y-127571041D01*
X120627543Y-127525805D01*
X120661762Y-127509849D01*
X120661767Y-127509846D01*
X120666749Y-127507523D01*
X120838015Y-127387601D01*
X120849789Y-127379357D01*
X120849792Y-127379355D01*
X120854300Y-127376198D01*
X121016198Y-127214300D01*
X121019699Y-127209300D01*
X121126181Y-127057229D01*
X121181638Y-127012901D01*
X121229394Y-127003500D01*
X121319428Y-127003500D01*
X121387549Y-127023502D01*
G37*
%TD.AperFunction*%
%TA.AperFunction,Conductor*%
G36*
X141241901Y-105168502D02*
G01*
X141249343Y-105173672D01*
X141335595Y-105238315D01*
X141471984Y-105289445D01*
X141534166Y-105296200D01*
X141981108Y-105296200D01*
X142049229Y-105316202D01*
X142095722Y-105369858D01*
X142105826Y-105440132D01*
X142076332Y-105504712D01*
X142016606Y-105543096D01*
X142002446Y-105546380D01*
X141935298Y-105557918D01*
X141924178Y-105560898D01*
X141735743Y-105630415D01*
X141725365Y-105635365D01*
X141627583Y-105693539D01*
X141617985Y-105703872D01*
X141621471Y-105712260D01*
X142217189Y-106307979D01*
X142231132Y-106315592D01*
X142232966Y-106315461D01*
X142239580Y-106311210D01*
X142834869Y-105715920D01*
X142841626Y-105703545D01*
X142835596Y-105695489D01*
X142761809Y-105648933D01*
X142751561Y-105643712D01*
X142565007Y-105569285D01*
X142553979Y-105566018D01*
X142452229Y-105545779D01*
X142389319Y-105512872D01*
X142354187Y-105451177D01*
X142357987Y-105380282D01*
X142399513Y-105322696D01*
X142465579Y-105296701D01*
X142476810Y-105296200D01*
X142925834Y-105296200D01*
X142988016Y-105289445D01*
X143124405Y-105238315D01*
X143210655Y-105173674D01*
X143277161Y-105148826D01*
X143286220Y-105148500D01*
X156863061Y-105148500D01*
X156915368Y-105161787D01*
X156915946Y-105160441D01*
X157012219Y-105201803D01*
X157111184Y-105244322D01*
X157203993Y-105265322D01*
X157307473Y-105288738D01*
X157369500Y-105323281D01*
X157403004Y-105385874D01*
X157397350Y-105456646D01*
X157354331Y-105513125D01*
X157301004Y-105535810D01*
X157169471Y-105558412D01*
X156970111Y-105631960D01*
X156965150Y-105634912D01*
X156965149Y-105634912D01*
X156792459Y-105737651D01*
X156792456Y-105737653D01*
X156787491Y-105740607D01*
X156783151Y-105744413D01*
X156783147Y-105744416D01*
X156694232Y-105822393D01*
X156627729Y-105880715D01*
X156624154Y-105885250D01*
X156624153Y-105885251D01*
X156502534Y-106039525D01*
X156496175Y-106047591D01*
X156493487Y-106052700D01*
X156399924Y-106230534D01*
X156399922Y-106230539D01*
X156397235Y-106235646D01*
X156334221Y-106438583D01*
X156309245Y-106649605D01*
X156323143Y-106861644D01*
X156375449Y-107067601D01*
X156464412Y-107260576D01*
X156467745Y-107265292D01*
X156545080Y-107374719D01*
X156587052Y-107434109D01*
X156591194Y-107438144D01*
X156605907Y-107452477D01*
X156739263Y-107582385D01*
X156915946Y-107700441D01*
X156921249Y-107702719D01*
X156921252Y-107702721D01*
X157070016Y-107766635D01*
X157111184Y-107784322D01*
X157170585Y-107797763D01*
X157307473Y-107828738D01*
X157369500Y-107863281D01*
X157403004Y-107925874D01*
X157397350Y-107996646D01*
X157354331Y-108053125D01*
X157301004Y-108075810D01*
X157169471Y-108098412D01*
X156970111Y-108171960D01*
X156965150Y-108174912D01*
X156965149Y-108174912D01*
X156792459Y-108277651D01*
X156792456Y-108277653D01*
X156787491Y-108280607D01*
X156783151Y-108284413D01*
X156783147Y-108284416D01*
X156664128Y-108388794D01*
X156627729Y-108420715D01*
X156624154Y-108425250D01*
X156624153Y-108425251D01*
X156502534Y-108579525D01*
X156496175Y-108587591D01*
X156493487Y-108592700D01*
X156399924Y-108770534D01*
X156399922Y-108770539D01*
X156397235Y-108775646D01*
X156385758Y-108812607D01*
X156339284Y-108962279D01*
X156334221Y-108978583D01*
X156309245Y-109189605D01*
X156323143Y-109401644D01*
X156375449Y-109607601D01*
X156418451Y-109700880D01*
X156428806Y-109771115D01*
X156399544Y-109835800D01*
X156339955Y-109874397D01*
X156268959Y-109874651D01*
X156210390Y-109837941D01*
X156208462Y-109835800D01*
X156186253Y-109811134D01*
X156031752Y-109698882D01*
X156025724Y-109696198D01*
X156025722Y-109696197D01*
X155863319Y-109623891D01*
X155863318Y-109623891D01*
X155857288Y-109621206D01*
X155763888Y-109601353D01*
X155676944Y-109582872D01*
X155676939Y-109582872D01*
X155670487Y-109581500D01*
X155479513Y-109581500D01*
X155479513Y-109579817D01*
X155455569Y-109577679D01*
X155455355Y-109579029D01*
X155411687Y-109572112D01*
X155400067Y-109569706D01*
X155364922Y-109560683D01*
X155364921Y-109560683D01*
X155357241Y-109558711D01*
X155336987Y-109558711D01*
X155317276Y-109557160D01*
X155305097Y-109555231D01*
X155297268Y-109553991D01*
X155289376Y-109554737D01*
X155253250Y-109558152D01*
X155241392Y-109558711D01*
X143494849Y-109558711D01*
X143426728Y-109538709D01*
X143380235Y-109485053D01*
X143370153Y-109414631D01*
X143383476Y-109322744D01*
X143389562Y-109280770D01*
X143391153Y-109220000D01*
X143371709Y-109008397D01*
X143364917Y-108984312D01*
X143319536Y-108823402D01*
X143314030Y-108803880D01*
X143294969Y-108765228D01*
X143282779Y-108695286D01*
X143310338Y-108629856D01*
X143368896Y-108589713D01*
X143407975Y-108583500D01*
X143436800Y-108583500D01*
X143504921Y-108603502D01*
X143524147Y-108619843D01*
X143524420Y-108619540D01*
X143529332Y-108623963D01*
X143533747Y-108628866D01*
X143688248Y-108741118D01*
X143694276Y-108743802D01*
X143694278Y-108743803D01*
X143856681Y-108816109D01*
X143862712Y-108818794D01*
X143956113Y-108838647D01*
X144043056Y-108857128D01*
X144043061Y-108857128D01*
X144049513Y-108858500D01*
X144240487Y-108858500D01*
X144246939Y-108857128D01*
X144246944Y-108857128D01*
X144333887Y-108838647D01*
X144427288Y-108818794D01*
X144433319Y-108816109D01*
X144595722Y-108743803D01*
X144595724Y-108743802D01*
X144601752Y-108741118D01*
X144756253Y-108628866D01*
X144789839Y-108591565D01*
X144879621Y-108491852D01*
X144879622Y-108491851D01*
X144884040Y-108486944D01*
X144959114Y-108356913D01*
X144976223Y-108327279D01*
X144976224Y-108327278D01*
X144979527Y-108321556D01*
X145038542Y-108139928D01*
X145042906Y-108098412D01*
X145057814Y-107956565D01*
X145058504Y-107950000D01*
X145054874Y-107915460D01*
X145039232Y-107766635D01*
X145039232Y-107766633D01*
X145038542Y-107760072D01*
X144979527Y-107578444D01*
X144884040Y-107413056D01*
X144860830Y-107387278D01*
X144760675Y-107276045D01*
X144760674Y-107276044D01*
X144756253Y-107271134D01*
X144601752Y-107158882D01*
X144595724Y-107156198D01*
X144595722Y-107156197D01*
X144433319Y-107083891D01*
X144433318Y-107083891D01*
X144427288Y-107081206D01*
X144324497Y-107059357D01*
X144246944Y-107042872D01*
X144246939Y-107042872D01*
X144240487Y-107041500D01*
X144049513Y-107041500D01*
X144043061Y-107042872D01*
X144043056Y-107042872D01*
X143965503Y-107059357D01*
X143862712Y-107081206D01*
X143856682Y-107083891D01*
X143856681Y-107083891D01*
X143694278Y-107156197D01*
X143694276Y-107156198D01*
X143688248Y-107158882D01*
X143682907Y-107162762D01*
X143682906Y-107162763D01*
X143630546Y-107200805D01*
X143533747Y-107271134D01*
X143529332Y-107276037D01*
X143524420Y-107280460D01*
X143523295Y-107279211D01*
X143469986Y-107312051D01*
X143436800Y-107316500D01*
X143410326Y-107316500D01*
X143342205Y-107296498D01*
X143295712Y-107242842D01*
X143285608Y-107172568D01*
X143291013Y-107149998D01*
X143356724Y-106956423D01*
X143359412Y-106945227D01*
X143388527Y-106744418D01*
X143389157Y-106737035D01*
X143390554Y-106683704D01*
X143390311Y-106676305D01*
X143371745Y-106474242D01*
X143369648Y-106462928D01*
X143315129Y-106269619D01*
X143311007Y-106258880D01*
X143222172Y-106078740D01*
X143218867Y-106073347D01*
X143208952Y-106065907D01*
X143196534Y-106072677D01*
X142319095Y-106950116D01*
X142256783Y-106984141D01*
X142185967Y-106979076D01*
X142140905Y-106950116D01*
X141263220Y-106072431D01*
X141250842Y-106065673D01*
X141244877Y-106070138D01*
X141160387Y-106230728D01*
X141155986Y-106241352D01*
X141096425Y-106433170D01*
X141094033Y-106444424D01*
X141070426Y-106643883D01*
X141070125Y-106655384D01*
X141083261Y-106855798D01*
X141085062Y-106867168D01*
X141134500Y-107061833D01*
X141138341Y-107072680D01*
X141168338Y-107137749D01*
X141178693Y-107207986D01*
X141149430Y-107272672D01*
X141089842Y-107311269D01*
X141053912Y-107316500D01*
X138744595Y-107316500D01*
X138676474Y-107296498D01*
X138655499Y-107279595D01*
X138298647Y-106922742D01*
X138291113Y-106914463D01*
X138287000Y-106907982D01*
X138237348Y-106861356D01*
X138234507Y-106858602D01*
X138214770Y-106838865D01*
X138211573Y-106836385D01*
X138202551Y-106828680D01*
X138170321Y-106798414D01*
X138163375Y-106794595D01*
X138163372Y-106794593D01*
X138152566Y-106788652D01*
X138136047Y-106777801D01*
X138135583Y-106777441D01*
X138120041Y-106765386D01*
X138112772Y-106762241D01*
X138112768Y-106762238D01*
X138079463Y-106747826D01*
X138068813Y-106742609D01*
X138030060Y-106721305D01*
X138010437Y-106716267D01*
X137991734Y-106709863D01*
X137980420Y-106704967D01*
X137980419Y-106704967D01*
X137973145Y-106701819D01*
X137965322Y-106700580D01*
X137965312Y-106700577D01*
X137929476Y-106694901D01*
X137917856Y-106692495D01*
X137882711Y-106683472D01*
X137882710Y-106683472D01*
X137875030Y-106681500D01*
X137854776Y-106681500D01*
X137835065Y-106679949D01*
X137822886Y-106678020D01*
X137815057Y-106676780D01*
X137807165Y-106677526D01*
X137771039Y-106680941D01*
X137759181Y-106681500D01*
X134694745Y-106681500D01*
X134626624Y-106661498D01*
X134580131Y-106607842D01*
X134570027Y-106537568D01*
X134580552Y-106502247D01*
X134581959Y-106499230D01*
X134581961Y-106499225D01*
X134584284Y-106494243D01*
X134591210Y-106468397D01*
X134603947Y-106420859D01*
X134643543Y-106273087D01*
X134648692Y-106214229D01*
X134674555Y-106148112D01*
X134685118Y-106136116D01*
X135635829Y-105185405D01*
X135698141Y-105151379D01*
X135724924Y-105148500D01*
X141173780Y-105148500D01*
X141241901Y-105168502D01*
G37*
%TD.AperFunction*%
%TA.AperFunction,Conductor*%
G36*
X141256578Y-102888502D02*
G01*
X141303071Y-102942158D01*
X141313175Y-103012432D01*
X141283681Y-103077012D01*
X141264027Y-103095322D01*
X141249344Y-103106327D01*
X141182840Y-103131174D01*
X141173780Y-103131500D01*
X135316843Y-103131500D01*
X135303236Y-103130763D01*
X135271738Y-103127341D01*
X135271733Y-103127341D01*
X135265612Y-103126676D01*
X135239362Y-103128973D01*
X135215612Y-103131050D01*
X135210786Y-103131379D01*
X135208314Y-103131500D01*
X135205231Y-103131500D01*
X135193262Y-103132674D01*
X135162494Y-103135690D01*
X135161181Y-103135812D01*
X135116916Y-103139685D01*
X135068587Y-103143913D01*
X135063468Y-103145400D01*
X135058167Y-103145920D01*
X134969166Y-103172791D01*
X134968033Y-103173126D01*
X134884586Y-103197370D01*
X134884582Y-103197372D01*
X134878664Y-103199091D01*
X134873932Y-103201544D01*
X134868831Y-103203084D01*
X134863388Y-103205978D01*
X134786740Y-103246731D01*
X134785574Y-103247343D01*
X134708547Y-103287271D01*
X134703074Y-103290108D01*
X134698911Y-103293431D01*
X134694204Y-103295934D01*
X134689429Y-103299828D01*
X134689428Y-103299829D01*
X134622102Y-103354739D01*
X134621075Y-103355567D01*
X134584792Y-103384531D01*
X134584787Y-103384536D01*
X134582028Y-103386738D01*
X134579527Y-103389239D01*
X134578809Y-103389881D01*
X134574461Y-103393594D01*
X134540938Y-103420935D01*
X134537015Y-103425677D01*
X134537013Y-103425679D01*
X134511703Y-103456273D01*
X134503713Y-103465053D01*
X133258884Y-104709882D01*
X133196572Y-104743908D01*
X133180773Y-104746308D01*
X133121913Y-104751457D01*
X133015390Y-104780000D01*
X132906067Y-104809293D01*
X132906065Y-104809294D01*
X132900757Y-104810716D01*
X132895776Y-104813039D01*
X132895775Y-104813039D01*
X132698238Y-104905151D01*
X132698233Y-104905154D01*
X132693251Y-104907477D01*
X132616728Y-104961059D01*
X132510211Y-105035643D01*
X132510208Y-105035645D01*
X132505700Y-105038802D01*
X132343802Y-105200700D01*
X132340645Y-105205208D01*
X132340643Y-105205211D01*
X132314854Y-105242042D01*
X132212477Y-105388251D01*
X132210154Y-105393233D01*
X132210151Y-105393238D01*
X132133360Y-105557918D01*
X132115716Y-105595757D01*
X132114294Y-105601065D01*
X132114293Y-105601067D01*
X132064972Y-105785135D01*
X132056457Y-105816913D01*
X132036502Y-106045000D01*
X132056457Y-106273087D01*
X132057881Y-106278400D01*
X132057881Y-106278402D01*
X132108791Y-106468397D01*
X132115716Y-106494243D01*
X132118039Y-106499225D01*
X132118041Y-106499230D01*
X132119448Y-106502247D01*
X132119669Y-106503704D01*
X132119922Y-106504398D01*
X132119782Y-106504449D01*
X132130111Y-106572438D01*
X132101133Y-106637252D01*
X132041715Y-106676110D01*
X132005255Y-106681500D01*
X127164000Y-106681500D01*
X127095879Y-106661498D01*
X127049386Y-106607842D01*
X127038000Y-106555500D01*
X127038000Y-106317115D01*
X127033525Y-106301876D01*
X127032135Y-106300671D01*
X127024452Y-106299000D01*
X124440116Y-106299000D01*
X124424877Y-106303475D01*
X124423672Y-106304865D01*
X124422001Y-106312548D01*
X124422001Y-106889669D01*
X124422371Y-106896490D01*
X124427895Y-106947352D01*
X124431521Y-106962604D01*
X124476676Y-107083054D01*
X124485214Y-107098649D01*
X124561715Y-107200724D01*
X124574276Y-107213285D01*
X124676351Y-107289786D01*
X124691946Y-107298324D01*
X124812394Y-107343478D01*
X124827643Y-107347104D01*
X124831096Y-107347479D01*
X124833606Y-107348522D01*
X124835331Y-107348932D01*
X124835265Y-107349211D01*
X124896659Y-107374719D01*
X124937088Y-107433080D01*
X124939546Y-107504034D01*
X124903253Y-107565054D01*
X124891760Y-107574344D01*
X124890214Y-107575641D01*
X124885700Y-107578802D01*
X124723802Y-107740700D01*
X124720645Y-107745208D01*
X124720643Y-107745211D01*
X124686563Y-107793882D01*
X124592477Y-107928251D01*
X124590154Y-107933233D01*
X124590151Y-107933238D01*
X124513130Y-108098412D01*
X124495716Y-108135757D01*
X124494294Y-108141065D01*
X124494293Y-108141067D01*
X124438034Y-108351026D01*
X124436457Y-108356913D01*
X124416502Y-108585000D01*
X124436457Y-108813087D01*
X124437881Y-108818400D01*
X124437881Y-108818402D01*
X124488791Y-109008397D01*
X124495716Y-109034243D01*
X124498039Y-109039224D01*
X124498039Y-109039225D01*
X124499448Y-109042247D01*
X124562399Y-109177245D01*
X124567292Y-109187739D01*
X124577953Y-109257931D01*
X124548973Y-109322744D01*
X124489553Y-109361600D01*
X124453097Y-109366989D01*
X121289235Y-109366989D01*
X121221114Y-109346987D01*
X121174621Y-109293331D01*
X121164517Y-109223057D01*
X121175040Y-109187740D01*
X121241959Y-109044230D01*
X121241961Y-109044225D01*
X121244284Y-109039243D01*
X121286541Y-108881541D01*
X121302119Y-108823402D01*
X121302120Y-108823398D01*
X121303543Y-108818087D01*
X121323498Y-108590000D01*
X121303543Y-108361913D01*
X121299948Y-108348495D01*
X121245707Y-108146067D01*
X121245706Y-108146065D01*
X121244284Y-108140757D01*
X121241961Y-108135775D01*
X121149849Y-107938238D01*
X121149846Y-107938233D01*
X121147523Y-107933251D01*
X121052653Y-107797763D01*
X121019357Y-107750211D01*
X121019355Y-107750208D01*
X121016198Y-107745700D01*
X120854300Y-107583802D01*
X120849792Y-107580645D01*
X120849789Y-107580643D01*
X120729793Y-107496621D01*
X120666749Y-107452477D01*
X120661767Y-107450154D01*
X120661762Y-107450151D01*
X120627543Y-107434195D01*
X120574258Y-107387278D01*
X120554797Y-107319001D01*
X120575339Y-107251041D01*
X120627543Y-107205805D01*
X120661762Y-107189849D01*
X120661767Y-107189846D01*
X120666749Y-107187523D01*
X120793674Y-107098649D01*
X120849789Y-107059357D01*
X120849792Y-107059355D01*
X120854300Y-107056198D01*
X121016198Y-106894300D01*
X121020493Y-106888167D01*
X121097772Y-106777801D01*
X121147523Y-106706749D01*
X121149846Y-106701767D01*
X121149849Y-106701762D01*
X121241961Y-106504225D01*
X121241961Y-106504224D01*
X121244284Y-106499243D01*
X121261989Y-106433170D01*
X121302119Y-106283402D01*
X121302119Y-106283400D01*
X121303543Y-106278087D01*
X121323498Y-106050000D01*
X121303543Y-105821913D01*
X121290406Y-105772885D01*
X124422000Y-105772885D01*
X124426475Y-105788124D01*
X124427865Y-105789329D01*
X124435548Y-105791000D01*
X125457885Y-105791000D01*
X125473124Y-105786525D01*
X125474329Y-105785135D01*
X125476000Y-105777452D01*
X125476000Y-105772885D01*
X125984000Y-105772885D01*
X125988475Y-105788124D01*
X125989865Y-105789329D01*
X125997548Y-105791000D01*
X127019884Y-105791000D01*
X127035123Y-105786525D01*
X127036328Y-105785135D01*
X127037999Y-105777452D01*
X127037999Y-105200331D01*
X127037629Y-105193510D01*
X127032105Y-105142648D01*
X127028479Y-105127396D01*
X126983324Y-105006946D01*
X126974786Y-104991351D01*
X126898285Y-104889276D01*
X126885724Y-104876715D01*
X126783649Y-104800214D01*
X126768054Y-104791676D01*
X126647606Y-104746522D01*
X126632351Y-104742895D01*
X126581486Y-104737369D01*
X126574672Y-104737000D01*
X126002115Y-104737000D01*
X125986876Y-104741475D01*
X125985671Y-104742865D01*
X125984000Y-104750548D01*
X125984000Y-105772885D01*
X125476000Y-105772885D01*
X125476000Y-104755116D01*
X125471525Y-104739877D01*
X125470135Y-104738672D01*
X125462452Y-104737001D01*
X124885331Y-104737001D01*
X124878510Y-104737371D01*
X124827648Y-104742895D01*
X124812396Y-104746521D01*
X124691946Y-104791676D01*
X124676351Y-104800214D01*
X124574276Y-104876715D01*
X124561715Y-104889276D01*
X124485214Y-104991351D01*
X124476676Y-105006946D01*
X124431522Y-105127394D01*
X124427895Y-105142649D01*
X124422369Y-105193514D01*
X124422000Y-105200328D01*
X124422000Y-105772885D01*
X121290406Y-105772885D01*
X121287681Y-105762714D01*
X121245707Y-105606067D01*
X121245706Y-105606065D01*
X121244284Y-105600757D01*
X121241961Y-105595775D01*
X121149849Y-105398238D01*
X121149846Y-105398233D01*
X121147523Y-105393251D01*
X121044134Y-105245597D01*
X121019357Y-105210211D01*
X121019355Y-105210208D01*
X121016198Y-105205700D01*
X120854300Y-105043802D01*
X120849792Y-105040645D01*
X120849789Y-105040643D01*
X120729793Y-104956621D01*
X120666749Y-104912477D01*
X120661767Y-104910154D01*
X120661762Y-104910151D01*
X120627543Y-104894195D01*
X120574258Y-104847278D01*
X120554797Y-104779001D01*
X120575339Y-104711041D01*
X120627543Y-104665805D01*
X120661762Y-104649849D01*
X120661767Y-104649846D01*
X120666749Y-104647523D01*
X120771611Y-104574098D01*
X120849789Y-104519357D01*
X120849792Y-104519355D01*
X120854300Y-104516198D01*
X121016198Y-104354300D01*
X121121129Y-104204444D01*
X121126181Y-104197229D01*
X121181638Y-104152901D01*
X121229394Y-104143500D01*
X130741580Y-104143500D01*
X130809701Y-104163502D01*
X130825888Y-104175862D01*
X130829333Y-104178964D01*
X130833747Y-104183866D01*
X130988248Y-104296118D01*
X130994276Y-104298802D01*
X130994278Y-104298803D01*
X131127680Y-104358197D01*
X131162712Y-104373794D01*
X131256113Y-104393647D01*
X131343056Y-104412128D01*
X131343061Y-104412128D01*
X131349513Y-104413500D01*
X131540487Y-104413500D01*
X131546939Y-104412128D01*
X131546944Y-104412128D01*
X131633887Y-104393647D01*
X131727288Y-104373794D01*
X131762320Y-104358197D01*
X131895722Y-104298803D01*
X131895724Y-104298802D01*
X131901752Y-104296118D01*
X132056253Y-104183866D01*
X132099077Y-104136305D01*
X132179621Y-104046852D01*
X132179622Y-104046851D01*
X132184040Y-104041944D01*
X132279527Y-103876556D01*
X132338542Y-103694928D01*
X132341814Y-103663803D01*
X132357814Y-103511565D01*
X132358504Y-103505000D01*
X132346795Y-103393594D01*
X132339232Y-103321635D01*
X132339232Y-103321633D01*
X132338542Y-103315072D01*
X132279527Y-103133444D01*
X132276223Y-103127721D01*
X132235681Y-103057500D01*
X132218943Y-102988504D01*
X132242164Y-102921413D01*
X132297971Y-102877526D01*
X132344800Y-102868500D01*
X141188457Y-102868500D01*
X141256578Y-102888502D01*
G37*
%TD.AperFunction*%
%TD*%
M02*
