G04 #@! TF.GenerationSoftware,KiCad,Pcbnew,(6.0.4)*
G04 #@! TF.CreationDate,2022-12-30T23:34:26-05:00*
G04 #@! TF.ProjectId,tms7000 n2l adapter,746d7337-3030-4302-906e-326c20616461,rev?*
G04 #@! TF.SameCoordinates,Original*
G04 #@! TF.FileFunction,Copper,L2,Bot*
G04 #@! TF.FilePolarity,Positive*
%FSLAX46Y46*%
G04 Gerber Fmt 4.6, Leading zero omitted, Abs format (unit mm)*
G04 Created by KiCad (PCBNEW (6.0.4)) date 2022-12-30 23:34:26*
%MOMM*%
%LPD*%
G01*
G04 APERTURE LIST*
G04 #@! TA.AperFunction,ComponentPad*
%ADD10R,1.600000X1.600000*%
G04 #@! TD*
G04 #@! TA.AperFunction,ComponentPad*
%ADD11O,1.600000X1.600000*%
G04 #@! TD*
G04 #@! TA.AperFunction,ComponentPad*
%ADD12R,1.100000X1.100000*%
G04 #@! TD*
G04 #@! TA.AperFunction,ComponentPad*
%ADD13C,1.100000*%
G04 #@! TD*
G04 APERTURE END LIST*
D10*
X115565000Y-52837000D03*
D11*
X115565000Y-55377000D03*
X115565000Y-57917000D03*
X115565000Y-60457000D03*
X115565000Y-62997000D03*
X115565000Y-65537000D03*
X115565000Y-68077000D03*
X115565000Y-70617000D03*
X115565000Y-73157000D03*
X115565000Y-75697000D03*
X115565000Y-78237000D03*
X115565000Y-80777000D03*
X115565000Y-83317000D03*
X115565000Y-85857000D03*
X115565000Y-88397000D03*
X115565000Y-90937000D03*
X115565000Y-93477000D03*
X115565000Y-96017000D03*
X115565000Y-98557000D03*
X115565000Y-101097000D03*
X130805000Y-101097000D03*
X130805000Y-98557000D03*
X130805000Y-96017000D03*
X130805000Y-93477000D03*
X130805000Y-90937000D03*
X130805000Y-88397000D03*
X130805000Y-85857000D03*
X130805000Y-83317000D03*
X130805000Y-80777000D03*
X130805000Y-78237000D03*
X130805000Y-75697000D03*
X130805000Y-73157000D03*
X130805000Y-70617000D03*
X130805000Y-68077000D03*
X130805000Y-65537000D03*
X130805000Y-62997000D03*
X130805000Y-60457000D03*
X130805000Y-57917000D03*
X130805000Y-55377000D03*
X130805000Y-52837000D03*
D12*
X118872000Y-60071000D03*
D13*
X118872000Y-61849000D03*
X118872000Y-63627000D03*
X118872000Y-65405000D03*
X118872000Y-67183000D03*
X118872000Y-68961000D03*
X118872000Y-70739000D03*
X118872000Y-72517000D03*
X118872000Y-74295000D03*
X118872000Y-76073000D03*
X118872000Y-77851000D03*
X118872000Y-79629000D03*
X118872000Y-81407000D03*
X118872000Y-83185000D03*
X118872000Y-84963000D03*
X118872000Y-86741000D03*
X118872000Y-88519000D03*
X118872000Y-90297000D03*
X118872000Y-92075000D03*
X118872000Y-93853000D03*
X134112000Y-93853000D03*
X134112000Y-92075000D03*
X134112000Y-90297000D03*
X134112000Y-88519000D03*
X134112000Y-86741000D03*
X134112000Y-84963000D03*
X134112000Y-83185000D03*
X134112000Y-81407000D03*
X134112000Y-79629000D03*
X134112000Y-77851000D03*
X134112000Y-76073000D03*
X134112000Y-74295000D03*
X134112000Y-72517000D03*
X134112000Y-70739000D03*
X134112000Y-68961000D03*
X134112000Y-67183000D03*
X134112000Y-65405000D03*
X134112000Y-63627000D03*
X134112000Y-61849000D03*
X134112000Y-60071000D03*
M02*
